<svg xmlns="http://www.w3.org/2000/svg" xmlns:xlink="http://www.w3.org/1999/xlink" width="1229.289" height="351.243" viewBox="0 0 1229.289 351.243">
  <defs>
    <linearGradient id="linear-gradient" x1="0.5" x2="0.5" y2="1" gradientUnits="objectBoundingBox">
      <stop offset="0" stop-color="#c0e4f6"/>
      <stop offset="1" stop-color="#b5f5f0"/>
    </linearGradient>
    <clipPath id="clip-path">
      <path id="Trazado_611005" data-name="Trazado 611005" d="M0,0H1229.289V350.243H0Z" fill="url(#linear-gradient)"/>
    </clipPath>
    <clipPath id="clip-path-2">
      <rect id="Rectángulo_467203" data-name="Rectángulo 467203" width="117.737" height="150" fill="#19538d"/>
    </clipPath>
  </defs>
  <g id="Grupo_1212926" data-name="Grupo 1212926" transform="translate(-184.711 -2233.557)">
    <g id="Grupo_1180571" data-name="Grupo 1180571" transform="translate(1414 2584.8) rotate(180)">
      <path id="Trazado_608309" data-name="Trazado 608309" d="M0,0H1229.289V350.243H0Z" fill="url(#linear-gradient)"/>
    </g>
    <g id="Grupo_1212924" data-name="Grupo 1212924" transform="translate(-1.578)">
      <circle id="Elipse_13713" data-name="Elipse 13713" cx="135" cy="135" r="135" transform="translate(230.289 2254)" fill="#ffeebc"/>
      <circle id="Elipse_13714" data-name="Elipse 13714" cx="135" cy="135" r="135" transform="translate(520 2254)" fill="#ffeebc"/>
      <circle id="Elipse_13715" data-name="Elipse 13715" cx="135" cy="135" r="135" transform="translate(809.711 2254)" fill="#ffeebc"/>
      <circle id="Elipse_13716" data-name="Elipse 13716" cx="135" cy="135" r="135" transform="translate(1102 2254)" fill="#ffeebc"/>
      <g id="Grupo_1212923" data-name="Grupo 1212923" transform="translate(-33.711 13)">
        <rect id="Rectángulo_467197" data-name="Rectángulo 467197" width="56" height="56" rx="14" transform="translate(1211.711 2298)" fill="#19538d"/>
        <rect id="Rectángulo_467200" data-name="Rectángulo 467200" width="56" height="55" rx="14" transform="translate(1211.711 2360)" fill="#19538d"/>
        <rect id="Rectángulo_467198" data-name="Rectángulo 467198" width="55" height="56" rx="14" transform="translate(1274.711 2298)" fill="#19538d"/>
        <rect id="Rectángulo_467199" data-name="Rectángulo 467199" width="55" height="55" rx="14" transform="translate(1274.711 2360)" fill="#19538d"/>
      </g>
      <g id="Grupo_1212917" data-name="Grupo 1212917" transform="translate(75.578 -24)">
        <rect id="Rectángulo_467188" data-name="Rectángulo 467188" width="124" height="38" rx="14" transform="translate(227.711 2313)" fill="#19538d"/>
        <rect id="Rectángulo_467191" data-name="Rectángulo 467191" width="124" height="39" rx="14" transform="translate(227.711 2368.017)" fill="#19538d"/>
        <rect id="Rectángulo_467192" data-name="Rectángulo 467192" width="124" height="38" rx="14" transform="translate(227.711 2425)" fill="#19538d"/>
        <path id="Unión_30" data-name="Unión 30" d="M0,14.625H5.833V0h8.333V14.625H20L10,26Z" transform="translate(279.711 2343.031)" fill="#19538d"/>
        <path id="Unión_31" data-name="Unión 31" d="M0,14.625H5.833V0h8.333V14.625H20L10,26Z" transform="translate(279.711 2399.219)" fill="#19538d"/>
      </g>
      <g id="Grupo_1212916" data-name="Grupo 1212916" transform="translate(-312.711 -19.158)">
        <rect id="Rectángulo_467194" data-name="Rectángulo 467194" width="82.332" height="37.899" rx="14" transform="translate(871.711 2409.542)" fill="#19538d"/>
        <rect id="Rectángulo_467195" data-name="Rectángulo 467195" width="82.332" height="37.899" rx="14" transform="translate(980.834 2409.542)" fill="#19538d"/>
        <g id="Rectángulo_467193" data-name="Rectángulo 467193" transform="translate(925.292 2339.487) rotate(-45)" fill="#19538d" stroke="#707070" stroke-width="1">
          <rect width="59.462" height="59.462" rx="17" stroke="none"/>
          <rect x="0.5" y="0.5" width="58.462" height="58.462" rx="16.5" fill="none"/>
        </g>
        <path id="Trazado_1278644" data-name="Trazado 1278644" d="M-9273-9213" transform="translate(10185.877 11637.57)" fill="none" stroke="#707070" stroke-width="1"/>
        <path id="Trazado_1278645" data-name="Trazado 1278645" d="M-9163.689-9242.955v-19.712H-9273v19.712" transform="translate(10185.552 11653.868)" fill="none" stroke="#19538d" stroke-width="3"/>
        <path id="Trazado_1278646" data-name="Trazado 1278646" d="M-9189.711-9284v13.243" transform="translate(10157.149 11660.807)" fill="none" stroke="#19538d" stroke-width="3"/>
      </g>
      <g id="Grupo_1212918" data-name="Grupo 1212918" transform="translate(298.289 2427.737)">
        <g id="Grupo_20708" data-name="Grupo 20708" transform="translate(15 15.527)">
          <path id="Trazado_1284751" data-name="Trazado 1284751" d="M.861,18.517V15.7a5.4,5.4,0,0,0,1.661.962,5.34,5.34,0,0,0,1.811.321,4.015,4.015,0,0,0,.936-.1,2.193,2.193,0,0,0,.668-.268,1.169,1.169,0,0,0,.4-.4,1.009,1.009,0,0,0,.132-.505,1.092,1.092,0,0,0-.211-.659,2.27,2.27,0,0,0-.576-.536,6.015,6.015,0,0,0-.866-.475q-.5-.229-1.081-.466a5.517,5.517,0,0,1-2.2-1.5A3.281,3.281,0,0,1,.809,9.93a3.416,3.416,0,0,1,.4-1.692A3.359,3.359,0,0,1,2.281,7.073,4.828,4.828,0,0,1,3.858,6.4a8.106,8.106,0,0,1,1.9-.215A11.418,11.418,0,0,1,7.5,6.3a6.861,6.861,0,0,1,1.4.365V9.3a4.239,4.239,0,0,0-.69-.387,5.466,5.466,0,0,0-.769-.277,5.866,5.866,0,0,0-.787-.163,5.567,5.567,0,0,0-.743-.053,3.873,3.873,0,0,0-.879.092,2.254,2.254,0,0,0-.668.259,1.29,1.29,0,0,0-.422.4.948.948,0,0,0-.149.523,1,1,0,0,0,.167.567,1.916,1.916,0,0,0,.475.475,5.037,5.037,0,0,0,.747.439q.439.215.993.444a11.067,11.067,0,0,1,1.358.672,4.827,4.827,0,0,1,1.033.8,3.133,3.133,0,0,1,.659,1.024,3.618,3.618,0,0,1,.229,1.34,3.59,3.59,0,0,1-.4,1.771,3.247,3.247,0,0,1-1.085,1.16,4.707,4.707,0,0,1-1.6.637,9.219,9.219,0,0,1-1.92.193,10.678,10.678,0,0,1-1.973-.176A5.956,5.956,0,0,1,.861,18.517Zm18.483-3.226H13.474q.141,1.96,2.47,1.96a4.822,4.822,0,0,0,2.61-.7v2a6.858,6.858,0,0,1-3.243.668,4.565,4.565,0,0,1-3.384-1.208,4.566,4.566,0,0,1-1.2-3.371,4.816,4.816,0,0,1,1.3-3.551,4.334,4.334,0,0,1,3.2-1.31,3.933,3.933,0,0,1,3.045,1.169,4.5,4.5,0,0,1,1.077,3.173ZM16.77,13.586q0-1.934-1.564-1.934a1.494,1.494,0,0,0-1.156.554,2.513,2.513,0,0,0-.593,1.38Zm11.048,5.089a5.492,5.492,0,0,1-2.716.545,4.593,4.593,0,0,1-3.357-1.257,4.341,4.341,0,0,1-1.283-3.243A4.782,4.782,0,0,1,21.836,11.1,5.083,5.083,0,0,1,25.515,9.78a4.72,4.72,0,0,1,2.3.422v2.355a3.166,3.166,0,0,0-1.942-.65,2.559,2.559,0,0,0-1.894.7,2.607,2.607,0,0,0-.7,1.929,2.565,2.565,0,0,0,.668,1.876,2.455,2.455,0,0,0,1.837.681,3.666,3.666,0,0,0,2.03-.65ZM38.188,19H35.42V17.629h-.044a3.141,3.141,0,0,1-2.751,1.591q-3.129,0-3.129-3.788V10h2.769v5.186q0,1.907,1.512,1.907a1.5,1.5,0,0,0,1.2-.523,2.109,2.109,0,0,0,.448-1.419V10h2.769Zm10.424-3.709H42.741q.141,1.96,2.47,1.96a4.822,4.822,0,0,0,2.61-.7v2a6.858,6.858,0,0,1-3.243.668,4.565,4.565,0,0,1-3.384-1.208,4.566,4.566,0,0,1-1.2-3.371,4.816,4.816,0,0,1,1.3-3.551,4.334,4.334,0,0,1,3.2-1.31,3.933,3.933,0,0,1,3.045,1.169,4.5,4.5,0,0,1,1.077,3.173Zm-2.575-1.705q0-1.934-1.564-1.934a1.494,1.494,0,0,0-1.156.554,2.513,2.513,0,0,0-.593,1.38ZM58.957,19H56.188V14q0-2.092-1.494-2.092a1.483,1.483,0,0,0-1.187.554,2.109,2.109,0,0,0-.466,1.406V19H50.265V10h2.777v1.424h.035A3.183,3.183,0,0,1,55.969,9.78q2.988,0,2.988,3.709Zm9.018-.325a5.492,5.492,0,0,1-2.716.545A4.593,4.593,0,0,1,61.9,17.963a4.341,4.341,0,0,1-1.283-3.243A4.782,4.782,0,0,1,61.994,11.1,5.083,5.083,0,0,1,65.672,9.78a4.72,4.72,0,0,1,2.3.422v2.355a3.166,3.166,0,0,0-1.942-.65,2.559,2.559,0,0,0-1.894.7,2.607,2.607,0,0,0-.7,1.929,2.565,2.565,0,0,0,.668,1.876,2.455,2.455,0,0,0,1.837.681,3.666,3.666,0,0,0,2.03-.65ZM71.2,8.576a1.622,1.622,0,0,1-1.151-.417A1.345,1.345,0,0,1,69.6,7.135a1.3,1.3,0,0,1,.448-1.02,1.88,1.88,0,0,1,2.307,0,1.3,1.3,0,0,1,.444,1.02,1.34,1.34,0,0,1-.444,1.037A1.65,1.65,0,0,1,71.2,8.576ZM72.571,19H69.794V10h2.777ZM82.4,19H79.77V17.708h-.035a2.933,2.933,0,0,1-2.681,1.512,2.8,2.8,0,0,1-2.061-.743,2.661,2.661,0,0,1-.751-1.982q0-2.619,3.1-3.023l2.443-.325q0-1.477-1.6-1.477a5.46,5.46,0,0,0-3.059.958V10.536a6.881,6.881,0,0,1,1.586-.527,8.339,8.339,0,0,1,1.833-.229q3.85,0,3.85,3.841Zm-2.61-3.656v-.606l-1.635.211Q76.8,15.124,76.8,16.17a1.01,1.01,0,0,0,.33.778,1.266,1.266,0,0,0,.892.3,1.644,1.644,0,0,0,1.274-.541A1.952,1.952,0,0,0,79.787,15.344ZM87.372,19H84.595V5.676h2.777Z" transform="translate(0 10.7)" fill="#12263f"/>
        </g>
      </g>
      <g id="Grupo_1212919" data-name="Grupo 1212919" transform="translate(588 2427.737)">
        <g id="Grupo_20708-2" data-name="Grupo 20708" transform="translate(15 15.527)">
          <path id="Trazado_1284750" data-name="Trazado 1284750" d="M10.477,18.552a8.311,8.311,0,0,1-3.6.668,6.074,6.074,0,0,1-4.562-1.705A6.233,6.233,0,0,1,.65,12.971a6.659,6.659,0,0,1,1.868-4.9A6.533,6.533,0,0,1,7.365,6.186a9.065,9.065,0,0,1,3.111.466V9.385a5.513,5.513,0,0,0-2.883-.756A3.824,3.824,0,0,0,4.729,9.745a4.142,4.142,0,0,0-1.09,3.023,4.062,4.062,0,0,0,1.028,2.914,3.633,3.633,0,0,0,2.769,1.085,5.905,5.905,0,0,0,3.041-.809Zm6.214.668a4.838,4.838,0,0,1-3.538-1.261,4.573,4.573,0,0,1-1.288-3.423A4.573,4.573,0,0,1,13.2,11.042,5.048,5.048,0,0,1,16.813,9.78a4.78,4.78,0,0,1,3.516,1.261A4.483,4.483,0,0,1,21.6,14.377a4.759,4.759,0,0,1-1.314,3.542A4.892,4.892,0,0,1,16.69,19.22Zm.07-7.312a1.852,1.852,0,0,0-1.529.677,2.984,2.984,0,0,0-.545,1.916q0,2.593,2.092,2.593,2,0,2-2.663Q18.773,11.907,16.761,11.907ZM32.1,19H29.329V14q0-2.092-1.494-2.092a1.483,1.483,0,0,0-1.187.554,2.109,2.109,0,0,0-.466,1.406V19H23.405V10h2.777v1.424h.035A3.183,3.183,0,0,1,29.109,9.78q2.988,0,2.988,3.709Zm11,0H40.324V17.761h-.035A3.114,3.114,0,0,1,37.5,19.22a3.412,3.412,0,0,1-2.716-1.191A4.93,4.93,0,0,1,33.759,14.7a5.366,5.366,0,0,1,1.134-3.577A3.7,3.7,0,0,1,37.863,9.78a2.527,2.527,0,0,1,2.426,1.248h.035V5.676H43.1Zm-2.725-4.377v-.677a2.13,2.13,0,0,0-.51-1.459,1.8,1.8,0,0,0-2.769.145,3.367,3.367,0,0,0-.519,1.991,2.914,2.914,0,0,0,.5,1.828,1.779,1.779,0,0,0,2.764-.035A2.821,2.821,0,0,0,40.377,14.623Zm6.469-6.047a1.622,1.622,0,0,1-1.151-.417,1.345,1.345,0,0,1-.448-1.024,1.3,1.3,0,0,1,.448-1.02,1.88,1.88,0,0,1,2.307,0,1.3,1.3,0,0,1,.444,1.02A1.34,1.34,0,0,1,48,8.172,1.65,1.65,0,0,1,46.846,8.576ZM48.217,19H45.439V10h2.777Zm9.158-.325a5.492,5.492,0,0,1-2.716.545A4.593,4.593,0,0,1,51.3,17.963a4.341,4.341,0,0,1-1.283-3.243A4.782,4.782,0,0,1,51.394,11.1,5.083,5.083,0,0,1,55.072,9.78a4.72,4.72,0,0,1,2.3.422v2.355a3.166,3.166,0,0,0-1.942-.65,2.559,2.559,0,0,0-1.894.7,2.607,2.607,0,0,0-.7,1.929,2.565,2.565,0,0,0,.668,1.876,2.455,2.455,0,0,0,1.837.681,3.666,3.666,0,0,0,2.03-.65ZM60.6,8.576a1.622,1.622,0,0,1-1.151-.417A1.345,1.345,0,0,1,59,7.135a1.3,1.3,0,0,1,.448-1.02,1.88,1.88,0,0,1,2.307,0,1.3,1.3,0,0,1,.444,1.02,1.34,1.34,0,0,1-.444,1.037A1.65,1.65,0,0,1,60.6,8.576ZM61.972,19H59.194V10h2.777Zm6.627.22a4.838,4.838,0,0,1-3.538-1.261,4.573,4.573,0,0,1-1.288-3.423,4.573,4.573,0,0,1,1.336-3.494A5.048,5.048,0,0,1,68.722,9.78a4.78,4.78,0,0,1,3.516,1.261,4.483,4.483,0,0,1,1.274,3.335A4.759,4.759,0,0,1,72.2,17.919,4.892,4.892,0,0,1,68.6,19.22Zm.07-7.312a1.852,1.852,0,0,0-1.529.677,2.984,2.984,0,0,0-.545,1.916q0,2.593,2.092,2.593,2,0,2-2.663Q70.682,11.907,68.669,11.907ZM84.006,19H81.237V14q0-2.092-1.494-2.092a1.483,1.483,0,0,0-1.187.554,2.109,2.109,0,0,0-.466,1.406V19H75.313V10h2.777v1.424h.035A3.183,3.183,0,0,1,81.018,9.78q2.988,0,2.988,3.709Zm9.686,0H91.063V17.708h-.035a2.933,2.933,0,0,1-2.681,1.512,2.8,2.8,0,0,1-2.061-.743,2.661,2.661,0,0,1-.751-1.982q0-2.619,3.1-3.023l2.443-.325q0-1.477-1.6-1.477a5.46,5.46,0,0,0-3.059.958V10.536a6.881,6.881,0,0,1,1.586-.527,8.339,8.339,0,0,1,1.833-.229q3.85,0,3.85,3.841Zm-2.61-3.656v-.606l-1.635.211q-1.354.176-1.354,1.222a1.01,1.01,0,0,0,.33.778,1.266,1.266,0,0,0,.892.3,1.644,1.644,0,0,0,1.274-.541A1.952,1.952,0,0,0,91.081,15.344ZM98.666,19H95.889V5.676h2.777Z" transform="translate(0 10.7)" fill="#12263f"/>
        </g>
      </g>
      <path id="Trazado_1284749" data-name="Trazado 1284749" d="M21.023,19H18.184V6.4h2.839Zm8.033-.105a4.105,4.105,0,0,1-1.854.325q-2.936,0-2.936-3.05V12.048H22.807V10h1.459V8.058l2.769-.791V10h2.021v2.048H27.035v3.639q0,1.406,1.116,1.406a1.882,1.882,0,0,0,.905-.255Zm9.58-3.6H32.765q.141,1.96,2.47,1.96a4.822,4.822,0,0,0,2.61-.7v2a6.858,6.858,0,0,1-3.243.668,4.565,4.565,0,0,1-3.384-1.208,4.566,4.566,0,0,1-1.2-3.371,4.816,4.816,0,0,1,1.3-3.551,4.334,4.334,0,0,1,3.2-1.31,3.933,3.933,0,0,1,3.045,1.169,4.5,4.5,0,0,1,1.077,3.173Zm-2.575-1.705q0-1.934-1.564-1.934a1.494,1.494,0,0,0-1.156.554,2.513,2.513,0,0,0-.593,1.38ZM46.16,12.5a2.409,2.409,0,0,0-1.169-.272,1.684,1.684,0,0,0-1.415.664,2.9,2.9,0,0,0-.51,1.806V19H40.289V10h2.777v1.67H43.1a2.4,2.4,0,0,1,2.373-1.828,1.788,1.788,0,0,1,.686.105ZM54.94,19H52.312V17.708h-.035A2.933,2.933,0,0,1,49.6,19.22a2.8,2.8,0,0,1-2.061-.743,2.661,2.661,0,0,1-.751-1.982q0-2.619,3.1-3.023l2.443-.325q0-1.477-1.6-1.477a5.46,5.46,0,0,0-3.059.958V10.536a6.881,6.881,0,0,1,1.586-.527A8.339,8.339,0,0,1,51.09,9.78q3.85,0,3.85,3.841Zm-2.61-3.656v-.606l-1.635.211q-1.354.176-1.354,1.222a1.01,1.01,0,0,0,.33.778,1.266,1.266,0,0,0,.892.3,1.644,1.644,0,0,0,1.274-.541A1.952,1.952,0,0,0,52.33,15.344Zm10.248,3.551a4.105,4.105,0,0,1-1.854.325q-2.936,0-2.936-3.05V12.048H56.329V10h1.459V8.058l2.769-.791V10h2.021v2.048H60.556v3.639q0,1.406,1.116,1.406a1.882,1.882,0,0,0,.905-.255ZM65.548,8.576A1.622,1.622,0,0,1,64.4,8.159a1.345,1.345,0,0,1-.448-1.024,1.3,1.3,0,0,1,.448-1.02,1.88,1.88,0,0,1,2.307,0,1.3,1.3,0,0,1,.444,1.02A1.34,1.34,0,0,1,66.7,8.172,1.65,1.65,0,0,1,65.548,8.576ZM66.919,19H64.142V10h2.777Zm10.907-9-3.349,9H71.314l-3.19-9h2.971l1.564,5.546a8.1,8.1,0,0,1,.308,1.6H73a9.078,9.078,0,0,1,.325-1.547l1.6-5.6Zm8.4,9H83.6V17.708h-.035a2.933,2.933,0,0,1-2.681,1.512,2.8,2.8,0,0,1-2.061-.743,2.661,2.661,0,0,1-.751-1.982q0-2.619,3.1-3.023l2.443-.325q0-1.477-1.6-1.477a5.46,5.46,0,0,0-3.059.958V10.536a6.881,6.881,0,0,1,1.586-.527,8.339,8.339,0,0,1,1.833-.229q3.85,0,3.85,3.841Zm-2.61-3.656v-.606l-1.635.211q-1.354.176-1.354,1.222a1.01,1.01,0,0,0,.33.778,1.266,1.266,0,0,0,.892.3,1.644,1.644,0,0,0,1.274-.541A1.952,1.952,0,0,0,83.619,15.344Z" transform="translate(892.711 2453.963)" fill="#12263f"/>
      <path id="Trazado_1284748" data-name="Trazado 1284748" d="M31.688,19h-2.8V11.459q0-1.222.105-2.7h-.07a13.277,13.277,0,0,1-.4,1.67L25.571,19h-2.32l-3.006-8.481a16.5,16.5,0,0,1-.4-1.758h-.079q.114,1.863.114,3.27V19H17.327V6.4h4.157l2.575,7.471a10.519,10.519,0,0,1,.448,1.8h.053a18.143,18.143,0,0,1,.5-1.819L27.637,6.4h4.052Zm6.882.22a4.838,4.838,0,0,1-3.538-1.261,4.573,4.573,0,0,1-1.288-3.423,4.573,4.573,0,0,1,1.336-3.494A5.048,5.048,0,0,1,38.693,9.78a4.78,4.78,0,0,1,3.516,1.261,4.483,4.483,0,0,1,1.274,3.335,4.759,4.759,0,0,1-1.314,3.542A4.892,4.892,0,0,1,38.57,19.22Zm.07-7.312a1.852,1.852,0,0,0-1.529.677,2.984,2.984,0,0,0-.545,1.916q0,2.593,2.092,2.593,2,0,2-2.663Q40.653,11.907,38.641,11.907ZM54.092,19H51.314V17.761h-.035a3.114,3.114,0,0,1-2.786,1.459,3.412,3.412,0,0,1-2.716-1.191A4.93,4.93,0,0,1,44.749,14.7a5.366,5.366,0,0,1,1.134-3.577A3.7,3.7,0,0,1,48.854,9.78a2.527,2.527,0,0,1,2.426,1.248h.035V5.676h2.777Zm-2.725-4.377v-.677a2.13,2.13,0,0,0-.51-1.459,1.8,1.8,0,0,0-2.769.145,3.367,3.367,0,0,0-.519,1.991,2.914,2.914,0,0,0,.5,1.828,1.779,1.779,0,0,0,2.764-.035A2.821,2.821,0,0,0,51.367,14.623ZM64.981,19H62.213V17.629h-.044a3.141,3.141,0,0,1-2.751,1.591q-3.129,0-3.129-3.788V10h2.769v5.186q0,1.907,1.512,1.907a1.5,1.5,0,0,0,1.2-.523,2.109,2.109,0,0,0,.448-1.419V10h2.769ZM70.1,19H67.319V5.676H70.1Zm9.826,0H77.295V17.708H77.26a2.933,2.933,0,0,1-2.681,1.512,2.8,2.8,0,0,1-2.061-.743,2.661,2.661,0,0,1-.751-1.982q0-2.619,3.1-3.023l2.443-.325q0-1.477-1.6-1.477a5.46,5.46,0,0,0-3.059.958V10.536a6.881,6.881,0,0,1,1.586-.527,8.339,8.339,0,0,1,1.833-.229q3.85,0,3.85,3.841Zm-2.61-3.656v-.606l-1.635.211q-1.354.176-1.354,1.222a1.01,1.01,0,0,0,.33.778,1.266,1.266,0,0,0,.892.3,1.644,1.644,0,0,0,1.274-.541A1.952,1.952,0,0,0,77.313,15.344ZM87.991,12.5a2.409,2.409,0,0,0-1.169-.272,1.684,1.684,0,0,0-1.415.664A2.9,2.9,0,0,0,84.9,14.7V19H82.12V10H84.9v1.67h.035a2.4,2.4,0,0,1,2.373-1.828,1.788,1.788,0,0,1,.686.105Z" transform="translate(1185 2453.963)" fill="#12263f"/>
      <g id="Grupo_1212922" data-name="Grupo 1212922" transform="translate(885.711 2287.267)">
        <g id="Grupo_1212921" data-name="Grupo 1212921" clip-path="url(#clip-path-2)">
          <path id="Trazado_1278649" data-name="Trazado 1278649" d="M94.945,111.6H84.983A58.853,58.853,0,0,0,58.878,0C24.623,0,.789,30.39.019,58.774-.427,75.232,7.2,88.083,12.293,94.782L7.711,99.364l17.717,4.747L20.681,86.394l-3.871,3.87C12.282,84.135,5.965,73,6.346,58.946,7.034,33.535,28.308,6.329,58.878,6.329a52.531,52.531,0,1,1,0,105.062v.213H22.794a5.907,5.907,0,0,0-5.907,5.907v26.582A5.907,5.907,0,0,0,22.794,150H94.945a5.907,5.907,0,0,0,5.907-5.907V117.511a5.907,5.907,0,0,0-5.907-5.907" transform="translate(0)" fill="#19538d"/>
        </g>
      </g>
    </g>
  </g>
</svg>
