<svg xmlns="http://www.w3.org/2000/svg" xmlns:xlink="http://www.w3.org/1999/xlink" width="84" height="84" viewBox="0 0 84 84">
  <defs>
    <clipPath id="clip-path">
      <rect id="Rectángulo_467931" data-name="Rectángulo 467931" width="63.926" height="64" fill="#19538d"/>
    </clipPath>
  </defs>
  <g id="Grupo_1212411" data-name="Grupo 1212411" transform="translate(0.578 0.547)">
    <g id="Grupo_1119665" data-name="Grupo 1119665" transform="translate(-0.578 -0.547)">
      <rect id="Rectángulo_402006" data-name="Rectángulo 402006" width="84" height="84" rx="5" fill="#ffe2bc"/>
    </g>
    <g id="Grupo_1214638" data-name="Grupo 1214638" transform="translate(9.459 11.453)">
      <g id="Grupo_1214637" data-name="Grupo 1214637" clip-path="url(#clip-path)">
        <path id="Trazado_1283062" data-name="Trazado 1283062" d="M62.352,64,1.571,64A1.376,1.376,0,0,1,0,62.756a1.338,1.338,0,0,1,1.483-1.481l7.826-.008V1.374C9.313.747,9.707,0,10.4,0L45.923,0l8.693,10.152,0,51.115,7.827.006a1.337,1.337,0,0,1,1.484,1.278c.029.86-.525,1.446-1.572,1.446m-17.1-51.989a1.481,1.481,0,0,1-1.321-1.572V2.671l-31.943,0,0,58.6,39.94,0V12ZM50.3,9.24,46.637,4.978,46.61,9.347Z" transform="translate(0)" fill="#19538d"/>
        <path id="Trazado_1283063" data-name="Trazado 1283063" d="M47.413,33.052a1.349,1.349,0,1,1,.006,2.683h-3.17a1.449,1.449,0,0,1-1.573-1.574l-.011-2.329-1.227-1.062a2.053,2.053,0,0,1-.54-.9,1.748,1.748,0,0,1,.473-1.121l1.3-1.156.027-3.915a1.3,1.3,0,0,1,1.32-1.249l3.835.034c.588.005,1.085.789,1.064,1.279a1.375,1.375,0,0,1-1.267,1.319l-2.26.021-.015,3.152a2.443,2.443,0,0,1-.982,1.487,2.428,2.428,0,0,1,1.015,2.044l-.025,1.308Z" transform="translate(-26.279 -14.411)" fill="#19538d"/>
        <path id="Trazado_1283064" data-name="Trazado 1283064" d="M120.569,132.545l-3.55.024a1.419,1.419,0,0,1-1.448-1.146,1.338,1.338,0,0,1,1.262-1.519l2.252-.009,0-2.969a2.332,2.332,0,0,1,1-1.682,2.4,2.4,0,0,1-1.008-1.833l.019-1.471-2.21-.016a1.356,1.356,0,1,1,.165-2.706l3.387.007a1.4,1.4,0,0,1,1.347,1.361l.035,2.547,1.295,1.139a1.261,1.261,0,0,1,.075,1.847l-1.384,1.265-.023,3.918a1.334,1.334,0,0,1-1.2,1.243" transform="translate(-74.261 -76.612)" fill="#19538d"/>
        <path id="Trazado_1283065" data-name="Trazado 1283065" d="M75.816,88.453H57.267A1.344,1.344,0,0,1,55.9,87.283c-.069-.462.276-1.462.991-1.462l19.222-.009c.651,0,1.116.842,1.1,1.29a1.344,1.344,0,0,1-1.4,1.351" transform="translate(-35.918 -55.144)" fill="#19538d"/>
        <path id="Trazado_1283066" data-name="Trazado 1283066" d="M76.006,73.475l-18.735.01a1.335,1.335,0,0,1-.192-2.66l18.833-.007a1.382,1.382,0,0,1,1.288,1.11,1.353,1.353,0,0,1-1.193,1.548" transform="translate(-35.92 -45.508)" fill="#19538d"/>
        <path id="Trazado_1283067" data-name="Trazado 1283067" d="M75.983,103.32l-18.9,0c-.7,0-1.194-.864-1.188-1.361a1.382,1.382,0,0,1,1.374-1.323l18.651,0a1.427,1.427,0,0,1,1.282,1.164,1.342,1.342,0,0,1-1.22,1.514" transform="translate(-35.92 -64.673)" fill="#19538d"/>
      </g>
    </g>
  </g>
</svg>
