<svg id="Grupo_1214677" data-name="Grupo 1214677" xmlns="http://www.w3.org/2000/svg" xmlns:xlink="http://www.w3.org/1999/xlink" width="396" height="238.765" viewBox="0 0 396 238.765">
  <defs>
    <clipPath id="clip-path">
      <rect id="Rectángulo_468173" data-name="Rectángulo 468173" width="396" height="238.765" fill="none"/>
    </clipPath>
    <clipPath id="clip-path-3">
      <rect id="Rectángulo_468041" data-name="Rectángulo 468041" width="96.334" height="151.579" fill="none"/>
    </clipPath>
    <clipPath id="clip-path-4">
      <rect id="Rectángulo_468139" data-name="Rectángulo 468139" width="96.334" height="152.445" fill="none"/>
    </clipPath>
    <clipPath id="clip-path-5">
      <rect id="Rectángulo_468140" data-name="Rectángulo 468140" width="94.992" height="191.518" fill="none"/>
    </clipPath>
    <clipPath id="clip-path-6">
      <rect id="Rectángulo_468164" data-name="Rectángulo 468164" width="226.884" height="128.485" fill="none"/>
    </clipPath>
  </defs>
  <g id="Grupo_1214676" data-name="Grupo 1214676" clip-path="url(#clip-path)">
    <g id="Grupo_1214675" data-name="Grupo 1214675">
      <g id="Grupo_1214674" data-name="Grupo 1214674" clip-path="url(#clip-path)">
        <path id="Trazado_1283146" data-name="Trazado 1283146" d="M394.054,152.609c0,35.079-17.794,66.176-45.2,85.458H57.516c-21.38-13.878-35.43-37.343-35.43-63.952A74.818,74.818,0,0,1,38.83,127q1.211-1.506,2.5-2.947,1.216-1.369,2.5-2.68,1.216-1.248,2.5-2.443,1.224-1.15,2.5-2.245,1.224-1.056,2.5-2.065,1.227-.974,2.5-1.9,1.229-.9,2.5-1.755,1.234-.834,2.5-1.619,1.232-.77,2.5-1.493,1.232-.712,2.5-1.376c.822-.436,1.656-.858,2.5-1.266q1.237-.6,2.5-1.159,1.237-.551,2.5-1.058,1.24-.505,2.5-.964c.827-.308,1.659-.6,2.5-.876.459-.151.922-.3,1.387-.446q.269-1.947.626-3.875a85.706,85.706,0,0,1,4.753-16.311,90.073,90.073,0,0,1,6.078-12.3q.421-.713.857-1.42c.3-.489.606-.976.916-1.458q1.286-2.01,2.685-3.96,1.787-2.507,3.746-4.909c.074-.092.147-.182.221-.272q1.33-1.619,2.731-3.189,1.147-1.29,2.348-2.544,1.547-1.623,3.175-3.189,1.347-1.29,2.742-2.542,1.817-1.63,3.726-3.191,1.583-1.3,3.226-2.542c20.449-15.51,47.433-24.941,77.014-24.941A131.411,131.411,0,0,1,248.679,26.4q2.432,1.145,4.793,2.393,2.192,1.157,4.316,2.394,2,1.157,3.937,2.393,1.836,1.162,3.619,2.393,1.7,1.17,3.341,2.393c.174.128.348.257.52.387q1.314.984,2.588,2.007,1.469,1.173,2.889,2.393,1.376,1.173,2.7,2.393.653.6,1.3,1.211c1.246-.053,2.5-.087,3.757-.1h.118c.31-.006.622-.006.932-.006.624,0,1.244.006,1.862.016.04,0,.078,0,.116,0,.936.013,1.867.042,2.794.08a.721.721,0,0,1,.118.006c1.014.039,2.027.1,3.034.166a.843.843,0,0,1,.114.008c.936.059,1.868.136,2.8.223.038,0,.076.006.114.011q1.4.131,2.8.3a.85.85,0,0,1,.114.013A112.106,112.106,0,0,1,362.4,78.4c.04.039.078.075.116.115q1.425,1.392,2.794,2.834c.038.041.076.083.118.125q1.428,1.511,2.8,3.076c.041.042.078.087.114.13q1.559,1.781,3.034,3.635c.04.049.082.1.118.148q1.44,1.806,2.793,3.673c.041.052.079.1.118.16q1.444,1.994,2.794,4.059c.04.057.078.115.116.175a102.222,102.222,0,0,1,16.744,56.082" transform="translate(1.946 0.601)" fill="#c0f6f2"/>
        <path id="Trazado_1283147" data-name="Trazado 1283147" d="M157.22,130.8H73.544v-.081h83.625l38.987-70.431h79.891v.081H196.206Z" transform="translate(6.481 2.574)" fill="#51aeff"/>
        <path id="Trazado_1283148" data-name="Trazado 1283148" d="M157.22,128.5H73.544v-.081h83.625l38.987-70.431h79.891v.081H196.206Z" transform="translate(6.481 2.476)" fill="#51aeff"/>
        <path id="Trazado_1283149" data-name="Trazado 1283149" d="M157.22,126.208H73.544v-.081h83.625L196.156,55.7h79.891v.081H196.206Z" transform="translate(6.481 2.378)" fill="#51aeff"/>
        <path id="Trazado_1283150" data-name="Trazado 1283150" d="M157.22,123.913H73.544v-.081h83.625L196.156,53.4h79.891v.081H196.206Z" transform="translate(6.481 2.28)" fill="#51aeff"/>
        <path id="Trazado_1283151" data-name="Trazado 1283151" d="M157.22,121.618H73.544v-.081h83.625l38.987-70.431h79.891v.081H196.206Z" transform="translate(6.481 2.182)" fill="#51aeff"/>
        <path id="Trazado_1283152" data-name="Trazado 1283152" d="M157.22,119.322H73.544v-.081h83.625L196.156,48.81h79.891v.081H196.206Z" transform="translate(6.481 2.084)" fill="#51aeff"/>
        <path id="Trazado_1283153" data-name="Trazado 1283153" d="M157.22,117.027H73.544v-.081h83.625l38.987-70.431h79.891V46.6H196.206Z" transform="translate(6.481 1.986)" fill="#51aeff"/>
        <path id="Trazado_1283154" data-name="Trazado 1283154" d="M157.22,114.731H73.545v-.081h83.624l17.295-31.243L196.155,44.22h76.691v.08H196.205Z" transform="translate(6.481 1.888)" fill="#51aeff"/>
        <path id="Trazado_1283155" data-name="Trazado 1283155" d="M157.22,112.435H73.545v-.081h83.624l15.97-28.85,23.016-41.58h73.991v.081H196.205Z" transform="translate(6.481 1.79)" fill="#51aeff"/>
        <path id="Trazado_1283156" data-name="Trazado 1283156" d="M157.22,110.14H73.545v-.081h83.624l5.04-9.106,9.6-17.351,24.341-43.972h71.1v.081H196.205Z" transform="translate(6.481 1.692)" fill="#51aeff"/>
        <path id="Trazado_1283157" data-name="Trazado 1283157" d="M157.22,107.847H73.545v-.081h83.624L164.1,95.242l32.055-57.909h67.994v.081H196.205Z" transform="translate(6.481 1.594)" fill="#51aeff"/>
        <path id="Trazado_1283158" data-name="Trazado 1283158" d="M157.22,105.552H73.545v-.081h83.624l5.606-10.131,33.38-60.3h64.654v.081h-64.6Z" transform="translate(6.481 1.496)" fill="#51aeff"/>
        <path id="Trazado_1283159" data-name="Trazado 1283159" d="M157.22,103.257H73.545v-.081h83.624L176.8,67.713l19.357-34.971H257.19v.081H196.205Z" transform="translate(6.481 1.398)" fill="#51aeff"/>
        <path id="Trazado_1283160" data-name="Trazado 1283160" d="M157.22,100.961H73.545v-.081h83.624l18.78-33.929,20.206-36.5h57.1v.081H196.205Z" transform="translate(6.481 1.3)" fill="#51aeff"/>
        <path id="Trazado_1283161" data-name="Trazado 1283161" d="M157.22,98.666H73.545v-.081h83.624l.227-.409,17.228-31.126,21.531-38.9h52.784v.081H196.205Z" transform="translate(6.481 1.202)" fill="#51aeff"/>
        <path id="Trazado_1283162" data-name="Trazado 1283162" d="M157.22,96.37H73.545v-.081h83.624l.309-.558,38.677-69.875h47.989v.081H196.205Z" transform="translate(6.481 1.104)" fill="#51aeff"/>
        <g id="Grupo_1214664" data-name="Grupo 1214664" transform="translate(91.085 39.609)" opacity="0.2">
          <g id="Grupo_1214663" data-name="Grupo 1214663">
            <g id="Grupo_1214662" data-name="Grupo 1214662" clip-path="url(#clip-path-3)">
              <path id="Trazado_1283163" data-name="Trazado 1283163" d="M110.022,37.987v2.542h-5.04q1.583-1.3,3.228-2.542Z" transform="translate(-81.834 -37.987)" fill="#5198ff"/>
              <path id="Trazado_1283164" data-name="Trazado 1283164" d="M110.546,43.486v2.542H99.039c.9-.86,1.81-1.708,2.743-2.542Z" transform="translate(-82.358 -37.752)" fill="#5198ff"/>
              <path id="Trazado_1283165" data-name="Trazado 1283165" d="M110.993,48.981v2.544H93.964q1.144-1.29,2.347-2.544Z" transform="translate(-82.805 -37.518)" fill="#5198ff"/>
              <rect id="Rectángulo_467952" data-name="Rectángulo 467952" width="19.98" height="2.543" transform="translate(8.207 17.196)" fill="#5198ff"/>
              <path id="Trazado_1283166" data-name="Trazado 1283166" d="M88.024,59.448v3.96H85.339q1.286-2.01,2.685-3.96" transform="translate(-83.565 -37.071)" fill="#5198ff"/>
              <rect id="Rectángulo_467953" data-name="Rectángulo 467953" width="19.98" height="2.543" transform="translate(8.207 22.929)" fill="#5198ff"/>
              <rect id="Rectángulo_467954" data-name="Rectángulo 467954" width="4.46" height="4.274" transform="translate(0 27.795)" fill="#5198ff"/>
              <rect id="Rectángulo_467955" data-name="Rectángulo 467955" width="19.98" height="2.543" transform="translate(8.207 28.661)" fill="#5198ff"/>
              <rect id="Rectángulo_467956" data-name="Rectángulo 467956" width="4.46" height="4.274" transform="translate(0 33.528)" fill="#5198ff"/>
              <rect id="Rectángulo_467957" data-name="Rectángulo 467957" width="19.98" height="2.543" transform="translate(8.207 34.393)" fill="#5198ff"/>
              <rect id="Rectángulo_467958" data-name="Rectángulo 467958" width="4.46" height="4.274" transform="translate(0 39.259)" fill="#5198ff"/>
              <rect id="Rectángulo_467959" data-name="Rectángulo 467959" width="19.98" height="2.543" transform="translate(8.207 40.125)" fill="#5198ff"/>
              <rect id="Rectángulo_467960" data-name="Rectángulo 467960" width="4.46" height="4.274" transform="translate(0 44.992)" fill="#5198ff"/>
              <rect id="Rectángulo_467961" data-name="Rectángulo 467961" width="19.98" height="2.543" transform="translate(8.207 45.858)" fill="#5198ff"/>
              <rect id="Rectángulo_467962" data-name="Rectángulo 467962" width="4.46" height="4.274" transform="translate(0 50.724)" fill="#5198ff"/>
              <rect id="Rectángulo_467963" data-name="Rectángulo 467963" width="19.98" height="2.543" transform="translate(8.207 51.589)" fill="#5198ff"/>
              <rect id="Rectángulo_467964" data-name="Rectángulo 467964" width="4.46" height="4.274" transform="translate(0 56.456)" fill="#5198ff"/>
              <rect id="Rectángulo_467965" data-name="Rectángulo 467965" width="19.98" height="2.543" transform="translate(8.207 57.321)" fill="#5198ff"/>
              <rect id="Rectángulo_467966" data-name="Rectángulo 467966" width="4.46" height="4.274" transform="translate(0 62.188)" fill="#5198ff"/>
              <rect id="Rectángulo_467967" data-name="Rectángulo 467967" width="19.98" height="2.543" transform="translate(8.207 63.054)" fill="#5198ff"/>
              <rect id="Rectángulo_467968" data-name="Rectángulo 467968" width="4.46" height="4.274" transform="translate(0 67.92)" fill="#5198ff"/>
              <rect id="Rectángulo_467969" data-name="Rectángulo 467969" width="19.98" height="2.543" transform="translate(8.207 68.785)" fill="#5198ff"/>
              <rect id="Rectángulo_467970" data-name="Rectángulo 467970" width="4.46" height="4.274" transform="translate(0 73.653)" fill="#5198ff"/>
              <rect id="Rectángulo_467971" data-name="Rectángulo 467971" width="19.98" height="2.543" transform="translate(8.207 74.518)" fill="#5198ff"/>
              <rect id="Rectángulo_467972" data-name="Rectángulo 467972" width="4.46" height="4.274" transform="translate(0 79.384)" fill="#5198ff"/>
              <rect id="Rectángulo_467973" data-name="Rectángulo 467973" width="19.98" height="2.543" transform="translate(8.207 80.25)" fill="#5198ff"/>
              <rect id="Rectángulo_467974" data-name="Rectángulo 467974" width="4.46" height="4.274" transform="translate(0 85.117)" fill="#5198ff"/>
              <rect id="Rectángulo_467975" data-name="Rectángulo 467975" width="19.98" height="2.543" transform="translate(8.207 85.983)" fill="#5198ff"/>
              <rect id="Rectángulo_467976" data-name="Rectángulo 467976" width="4.46" height="4.274" transform="translate(0 90.849)" fill="#5198ff"/>
              <rect id="Rectángulo_467977" data-name="Rectángulo 467977" width="19.98" height="2.543" transform="translate(8.207 91.714)" fill="#5198ff"/>
              <rect id="Rectángulo_467978" data-name="Rectángulo 467978" width="4.46" height="4.274" transform="translate(0 96.582)" fill="#5198ff"/>
              <rect id="Rectángulo_467979" data-name="Rectángulo 467979" width="19.98" height="2.543" transform="translate(8.207 97.447)" fill="#5198ff"/>
              <rect id="Rectángulo_467980" data-name="Rectángulo 467980" width="11.061" height="2.543" transform="translate(73.142 74.518)" fill="#5198ff"/>
              <rect id="Rectángulo_467981" data-name="Rectángulo 467981" width="11.061" height="2.543" transform="translate(72.072 57.245)" fill="#5198ff"/>
              <rect id="Rectángulo_467982" data-name="Rectángulo 467982" width="11.061" height="2.543" transform="translate(79.386 45.704)" fill="#5198ff"/>
              <rect id="Rectángulo_467983" data-name="Rectángulo 467983" width="11.061" height="2.543" transform="translate(72.875 34.393)" fill="#5198ff"/>
              <rect id="Rectángulo_467984" data-name="Rectángulo 467984" width="19.98" height="2.543" transform="translate(76.353)" fill="#5198ff"/>
              <rect id="Rectángulo_467985" data-name="Rectángulo 467985" width="31.279" height="2.543" transform="translate(39.128)" fill="#5198ff"/>
              <rect id="Rectángulo_467986" data-name="Rectángulo 467986" width="31.279" height="2.543" transform="translate(39.128 5.732)" fill="#5198ff"/>
              <rect id="Rectángulo_467987" data-name="Rectángulo 467987" width="41.925" height="3.409" transform="translate(39.128 10.599)" fill="#5198ff"/>
              <rect id="Rectángulo_467988" data-name="Rectángulo 467988" width="31.279" height="2.543" transform="translate(39.128 17.196)" fill="#5198ff"/>
              <rect id="Rectángulo_467989" data-name="Rectángulo 467989" width="31.279" height="2.543" transform="translate(39.128 22.929)" fill="#5198ff"/>
              <rect id="Rectángulo_467990" data-name="Rectángulo 467990" width="53.102" height="2.543" transform="translate(39.129 28.661)" fill="#5198ff"/>
              <rect id="Rectángulo_467991" data-name="Rectángulo 467991" width="31.279" height="2.543" transform="translate(39.128 34.393)" fill="#5198ff"/>
              <rect id="Rectángulo_467992" data-name="Rectángulo 467992" width="34.995" height="2.543" transform="translate(39.129 40.125)" fill="#5198ff"/>
              <rect id="Rectángulo_467993" data-name="Rectángulo 467993" width="37.226" height="2.543" transform="translate(39.128 45.858)" fill="#5198ff"/>
              <rect id="Rectángulo_467994" data-name="Rectángulo 467994" width="31.279" height="2.543" transform="translate(39.128 51.589)" fill="#5198ff"/>
              <rect id="Rectángulo_467995" data-name="Rectángulo 467995" width="31.279" height="2.543" transform="translate(39.128 57.321)" fill="#5198ff"/>
              <rect id="Rectángulo_467996" data-name="Rectángulo 467996" width="44.005" height="2.543" transform="translate(39.128 63.054)" fill="#5198ff"/>
              <rect id="Rectángulo_467997" data-name="Rectángulo 467997" width="35.798" height="2.543" transform="translate(39.128 68.785)" fill="#5198ff"/>
              <rect id="Rectángulo_467998" data-name="Rectángulo 467998" width="31.279" height="2.543" transform="translate(39.128 74.518)" fill="#5198ff"/>
              <rect id="Rectángulo_467999" data-name="Rectángulo 467999" width="35.798" height="2.543" transform="translate(39.128 80.25)" fill="#5198ff"/>
              <rect id="Rectángulo_468000" data-name="Rectángulo 468000" width="39.277" height="2.543" transform="translate(39.128 85.983)" fill="#5198ff"/>
              <rect id="Rectángulo_468001" data-name="Rectángulo 468001" width="31.279" height="2.543" transform="translate(39.128 91.714)" fill="#5198ff"/>
              <rect id="Rectángulo_468002" data-name="Rectángulo 468002" width="36.512" height="2.543" transform="translate(39.128 97.447)" fill="#5198ff"/>
              <rect id="Rectángulo_468003" data-name="Rectángulo 468003" width="11.061" height="2.543" transform="translate(73.142 125.996)" fill="#5198ff"/>
              <rect id="Rectángulo_468004" data-name="Rectángulo 468004" width="11.061" height="2.543" transform="translate(72.072 108.723)" fill="#5198ff"/>
              <rect id="Rectángulo_468005" data-name="Rectángulo 468005" width="31.279" height="2.543" transform="translate(39.128 103.067)" fill="#5198ff"/>
              <rect id="Rectángulo_468006" data-name="Rectángulo 468006" width="31.279" height="2.543" transform="translate(39.128 108.799)" fill="#5198ff"/>
              <rect id="Rectángulo_468007" data-name="Rectángulo 468007" width="44.005" height="2.543" transform="translate(39.128 114.532)" fill="#5198ff"/>
              <rect id="Rectángulo_468008" data-name="Rectángulo 468008" width="35.798" height="2.543" transform="translate(39.128 120.263)" fill="#5198ff"/>
              <rect id="Rectángulo_468009" data-name="Rectángulo 468009" width="31.279" height="2.543" transform="translate(39.128 125.996)" fill="#5198ff"/>
              <rect id="Rectángulo_468010" data-name="Rectángulo 468010" width="35.798" height="2.543" transform="translate(39.128 131.728)" fill="#5198ff"/>
              <rect id="Rectángulo_468011" data-name="Rectángulo 468011" width="39.277" height="2.543" transform="translate(39.128 137.46)" fill="#5198ff"/>
              <rect id="Rectángulo_468012" data-name="Rectángulo 468012" width="31.279" height="2.543" transform="translate(39.128 143.192)" fill="#5198ff"/>
              <rect id="Rectángulo_468013" data-name="Rectángulo 468013" width="36.512" height="2.543" transform="translate(39.128 148.925)" fill="#5198ff"/>
              <rect id="Rectángulo_468014" data-name="Rectángulo 468014" width="2.654" height="2.543" transform="translate(31.932)" fill="#5198ff"/>
              <rect id="Rectángulo_468015" data-name="Rectángulo 468015" width="2.654" height="2.543" transform="translate(31.932 5.732)" fill="#5198ff"/>
              <rect id="Rectángulo_468016" data-name="Rectángulo 468016" width="2.654" height="2.543" transform="translate(31.932 11.464)" fill="#5198ff"/>
              <rect id="Rectángulo_468017" data-name="Rectángulo 468017" width="2.654" height="2.543" transform="translate(31.932 17.196)" fill="#5198ff"/>
              <rect id="Rectángulo_468018" data-name="Rectángulo 468018" width="2.654" height="2.543" transform="translate(31.932 22.929)" fill="#5198ff"/>
              <rect id="Rectángulo_468019" data-name="Rectángulo 468019" width="2.654" height="2.543" transform="translate(31.932 28.661)" fill="#5198ff"/>
              <rect id="Rectángulo_468020" data-name="Rectángulo 468020" width="2.654" height="2.543" transform="translate(31.932 34.393)" fill="#5198ff"/>
              <rect id="Rectángulo_468021" data-name="Rectángulo 468021" width="2.654" height="2.543" transform="translate(31.932 40.125)" fill="#5198ff"/>
              <rect id="Rectángulo_468022" data-name="Rectángulo 468022" width="2.654" height="2.543" transform="translate(31.932 45.858)" fill="#5198ff"/>
              <rect id="Rectángulo_468023" data-name="Rectángulo 468023" width="2.654" height="2.543" transform="translate(31.932 51.589)" fill="#5198ff"/>
              <rect id="Rectángulo_468024" data-name="Rectángulo 468024" width="2.654" height="2.543" transform="translate(31.932 57.321)" fill="#5198ff"/>
              <rect id="Rectángulo_468025" data-name="Rectángulo 468025" width="2.654" height="2.543" transform="translate(31.932 63.054)" fill="#5198ff"/>
              <rect id="Rectángulo_468026" data-name="Rectángulo 468026" width="2.654" height="2.543" transform="translate(31.932 68.785)" fill="#5198ff"/>
              <rect id="Rectángulo_468027" data-name="Rectángulo 468027" width="2.654" height="2.543" transform="translate(31.932 74.518)" fill="#5198ff"/>
              <rect id="Rectángulo_468028" data-name="Rectángulo 468028" width="2.654" height="2.543" transform="translate(31.932 80.25)" fill="#5198ff"/>
              <rect id="Rectángulo_468029" data-name="Rectángulo 468029" width="2.654" height="2.543" transform="translate(31.932 85.983)" fill="#5198ff"/>
              <rect id="Rectángulo_468030" data-name="Rectángulo 468030" width="2.654" height="2.543" transform="translate(31.932 91.714)" fill="#5198ff"/>
              <rect id="Rectángulo_468031" data-name="Rectángulo 468031" width="2.654" height="2.543" transform="translate(31.932 97.447)" fill="#5198ff"/>
              <rect id="Rectángulo_468032" data-name="Rectángulo 468032" width="2.654" height="2.543" transform="translate(31.932 103.179)" fill="#5198ff"/>
              <rect id="Rectángulo_468033" data-name="Rectángulo 468033" width="2.654" height="2.543" transform="translate(31.932 108.91)" fill="#5198ff"/>
              <rect id="Rectángulo_468034" data-name="Rectángulo 468034" width="2.654" height="2.543" transform="translate(31.932 114.643)" fill="#5198ff"/>
              <rect id="Rectángulo_468035" data-name="Rectángulo 468035" width="2.654" height="2.543" transform="translate(31.932 120.375)" fill="#5198ff"/>
              <rect id="Rectángulo_468036" data-name="Rectángulo 468036" width="2.654" height="2.543" transform="translate(31.932 126.108)" fill="#5198ff"/>
              <rect id="Rectángulo_468037" data-name="Rectángulo 468037" width="2.654" height="2.543" transform="translate(31.932 131.839)" fill="#5198ff"/>
              <rect id="Rectángulo_468038" data-name="Rectángulo 468038" width="2.654" height="2.543" transform="translate(31.932 137.572)" fill="#5198ff"/>
              <rect id="Rectángulo_468039" data-name="Rectángulo 468039" width="2.654" height="2.543" transform="translate(31.932 143.304)" fill="#5198ff"/>
              <rect id="Rectángulo_468040" data-name="Rectángulo 468040" width="2.654" height="2.543" transform="translate(31.932 149.036)" fill="#5198ff"/>
            </g>
          </g>
        </g>
        <g id="Grupo_1214667" data-name="Grupo 1214667" transform="translate(243.399 79.301)" opacity="0.2">
          <g id="Grupo_1214666" data-name="Grupo 1214666">
            <g id="Grupo_1214665" data-name="Grupo 1214665" clip-path="url(#clip-path-4)">
              <rect id="Rectángulo_468042" data-name="Rectángulo 468042" width="4.46" height="4.274" fill="#5198ff"/>
              <rect id="Rectángulo_468043" data-name="Rectángulo 468043" width="19.98" height="2.543" transform="translate(8.207 0.865)" fill="#5198ff"/>
              <rect id="Rectángulo_468044" data-name="Rectángulo 468044" width="4.46" height="4.274" transform="translate(0 5.733)" fill="#5198ff"/>
              <rect id="Rectángulo_468045" data-name="Rectángulo 468045" width="19.98" height="2.543" transform="translate(8.207 6.598)" fill="#5198ff"/>
              <rect id="Rectángulo_468046" data-name="Rectángulo 468046" width="4.46" height="4.274" transform="translate(0 11.464)" fill="#5198ff"/>
              <rect id="Rectángulo_468047" data-name="Rectángulo 468047" width="19.98" height="2.543" transform="translate(8.207 12.33)" fill="#5198ff"/>
              <rect id="Rectángulo_468048" data-name="Rectángulo 468048" width="4.46" height="4.274" transform="translate(0 17.196)" fill="#5198ff"/>
              <rect id="Rectángulo_468049" data-name="Rectángulo 468049" width="19.98" height="2.543" transform="translate(8.207 18.062)" fill="#5198ff"/>
              <rect id="Rectángulo_468050" data-name="Rectángulo 468050" width="4.46" height="4.274" transform="translate(0 22.929)" fill="#5198ff"/>
              <rect id="Rectángulo_468051" data-name="Rectángulo 468051" width="19.98" height="2.543" transform="translate(8.207 23.794)" fill="#5198ff"/>
              <rect id="Rectángulo_468052" data-name="Rectángulo 468052" width="4.46" height="4.274" transform="translate(0 28.661)" fill="#5198ff"/>
              <rect id="Rectángulo_468053" data-name="Rectángulo 468053" width="19.98" height="2.543" transform="translate(8.207 29.526)" fill="#5198ff"/>
              <rect id="Rectángulo_468054" data-name="Rectángulo 468054" width="4.46" height="4.274" transform="translate(0 34.393)" fill="#5198ff"/>
              <rect id="Rectángulo_468055" data-name="Rectángulo 468055" width="19.98" height="2.543" transform="translate(8.207 35.259)" fill="#5198ff"/>
              <rect id="Rectángulo_468056" data-name="Rectángulo 468056" width="4.46" height="4.274" transform="translate(0 40.125)" fill="#5198ff"/>
              <rect id="Rectángulo_468057" data-name="Rectángulo 468057" width="19.98" height="2.543" transform="translate(8.207 40.99)" fill="#5198ff"/>
              <rect id="Rectángulo_468058" data-name="Rectángulo 468058" width="4.46" height="4.274" transform="translate(0 45.858)" fill="#5198ff"/>
              <rect id="Rectángulo_468059" data-name="Rectángulo 468059" width="19.98" height="2.543" transform="translate(8.207 46.723)" fill="#5198ff"/>
              <rect id="Rectángulo_468060" data-name="Rectángulo 468060" width="4.46" height="4.274" transform="translate(0 51.589)" fill="#5198ff"/>
              <rect id="Rectángulo_468061" data-name="Rectángulo 468061" width="19.98" height="2.543" transform="translate(8.207 52.455)" fill="#5198ff"/>
              <rect id="Rectángulo_468062" data-name="Rectángulo 468062" width="4.46" height="4.274" transform="translate(0 57.322)" fill="#5198ff"/>
              <rect id="Rectángulo_468063" data-name="Rectángulo 468063" width="19.98" height="2.543" transform="translate(8.207 58.188)" fill="#5198ff"/>
              <rect id="Rectángulo_468064" data-name="Rectángulo 468064" width="4.46" height="4.274" transform="translate(0 63.054)" fill="#5198ff"/>
              <rect id="Rectángulo_468065" data-name="Rectángulo 468065" width="19.98" height="2.543" transform="translate(8.207 63.919)" fill="#5198ff"/>
              <rect id="Rectángulo_468066" data-name="Rectángulo 468066" width="4.46" height="4.274" transform="translate(0 68.785)" fill="#5198ff"/>
              <rect id="Rectángulo_468067" data-name="Rectángulo 468067" width="19.98" height="2.543" transform="translate(8.207 69.651)" fill="#5198ff"/>
              <rect id="Rectángulo_468068" data-name="Rectángulo 468068" width="4.46" height="4.274" transform="translate(0 74.518)" fill="#5198ff"/>
              <rect id="Rectángulo_468069" data-name="Rectángulo 468069" width="19.98" height="2.543" transform="translate(8.207 75.384)" fill="#5198ff"/>
              <rect id="Rectángulo_468070" data-name="Rectángulo 468070" width="4.46" height="4.274" transform="translate(0 80.25)" fill="#5198ff"/>
              <rect id="Rectángulo_468071" data-name="Rectángulo 468071" width="19.98" height="2.543" transform="translate(8.207 81.115)" fill="#5198ff"/>
              <rect id="Rectángulo_468072" data-name="Rectángulo 468072" width="4.46" height="4.274" transform="translate(0 85.983)" fill="#5198ff"/>
              <rect id="Rectángulo_468073" data-name="Rectángulo 468073" width="19.98" height="2.543" transform="translate(8.207 86.848)" fill="#5198ff"/>
              <rect id="Rectángulo_468074" data-name="Rectángulo 468074" width="4.46" height="4.274" transform="translate(0 91.714)" fill="#5198ff"/>
              <rect id="Rectángulo_468075" data-name="Rectángulo 468075" width="19.98" height="2.543" transform="translate(8.207 92.58)" fill="#5198ff"/>
              <rect id="Rectángulo_468076" data-name="Rectángulo 468076" width="4.46" height="4.274" transform="translate(0 97.447)" fill="#5198ff"/>
              <rect id="Rectángulo_468077" data-name="Rectángulo 468077" width="19.98" height="2.543" transform="translate(8.207 98.312)" fill="#5198ff"/>
              <rect id="Rectángulo_468078" data-name="Rectángulo 468078" width="11.061" height="2.543" transform="translate(73.142 75.384)" fill="#5198ff"/>
              <rect id="Rectángulo_468079" data-name="Rectángulo 468079" width="11.061" height="2.543" transform="translate(72.072 58.11)" fill="#5198ff"/>
              <rect id="Rectángulo_468080" data-name="Rectángulo 468080" width="11.061" height="2.543" transform="translate(79.386 46.57)" fill="#5198ff"/>
              <rect id="Rectángulo_468081" data-name="Rectángulo 468081" width="11.061" height="2.543" transform="translate(72.875 35.259)" fill="#5198ff"/>
              <rect id="Rectángulo_468082" data-name="Rectángulo 468082" width="19.98" height="2.543" transform="translate(76.354 0.865)" fill="#5198ff"/>
              <rect id="Rectángulo_468083" data-name="Rectángulo 468083" width="31.279" height="2.543" transform="translate(39.128 0.865)" fill="#5198ff"/>
              <rect id="Rectángulo_468084" data-name="Rectángulo 468084" width="31.279" height="2.543" transform="translate(39.128 6.598)" fill="#5198ff"/>
              <rect id="Rectángulo_468085" data-name="Rectángulo 468085" width="41.925" height="3.409" transform="translate(39.128 11.464)" fill="#5198ff"/>
              <rect id="Rectángulo_468086" data-name="Rectángulo 468086" width="31.279" height="2.543" transform="translate(39.128 18.062)" fill="#5198ff"/>
              <rect id="Rectángulo_468087" data-name="Rectángulo 468087" width="31.279" height="2.543" transform="translate(39.128 23.794)" fill="#5198ff"/>
              <rect id="Rectángulo_468088" data-name="Rectángulo 468088" width="53.102" height="2.543" transform="translate(39.129 29.526)" fill="#5198ff"/>
              <rect id="Rectángulo_468089" data-name="Rectángulo 468089" width="31.279" height="2.543" transform="translate(39.128 35.259)" fill="#5198ff"/>
              <rect id="Rectángulo_468090" data-name="Rectángulo 468090" width="34.995" height="2.543" transform="translate(39.129 40.99)" fill="#5198ff"/>
              <rect id="Rectángulo_468091" data-name="Rectángulo 468091" width="37.226" height="2.543" transform="translate(39.128 46.723)" fill="#5198ff"/>
              <rect id="Rectángulo_468092" data-name="Rectángulo 468092" width="31.279" height="2.543" transform="translate(39.128 52.455)" fill="#5198ff"/>
              <rect id="Rectángulo_468093" data-name="Rectángulo 468093" width="31.279" height="2.543" transform="translate(39.128 58.188)" fill="#5198ff"/>
              <rect id="Rectángulo_468094" data-name="Rectángulo 468094" width="44.005" height="2.543" transform="translate(39.128 63.919)" fill="#5198ff"/>
              <rect id="Rectángulo_468095" data-name="Rectángulo 468095" width="35.798" height="2.543" transform="translate(39.129 69.651)" fill="#5198ff"/>
              <rect id="Rectángulo_468096" data-name="Rectángulo 468096" width="31.279" height="2.543" transform="translate(39.128 75.384)" fill="#5198ff"/>
              <rect id="Rectángulo_468097" data-name="Rectángulo 468097" width="35.798" height="2.543" transform="translate(39.129 81.115)" fill="#5198ff"/>
              <rect id="Rectángulo_468098" data-name="Rectángulo 468098" width="39.277" height="2.543" transform="translate(39.129 86.848)" fill="#5198ff"/>
              <rect id="Rectángulo_468099" data-name="Rectángulo 468099" width="31.279" height="2.543" transform="translate(39.128 92.58)" fill="#5198ff"/>
              <rect id="Rectángulo_468100" data-name="Rectángulo 468100" width="36.512" height="2.543" transform="translate(39.128 98.312)" fill="#5198ff"/>
              <rect id="Rectángulo_468101" data-name="Rectángulo 468101" width="11.061" height="2.543" transform="translate(73.142 126.861)" fill="#5198ff"/>
              <rect id="Rectángulo_468102" data-name="Rectángulo 468102" width="11.061" height="2.543" transform="translate(72.072 109.588)" fill="#5198ff"/>
              <rect id="Rectángulo_468103" data-name="Rectángulo 468103" width="31.279" height="2.543" transform="translate(39.128 103.933)" fill="#5198ff"/>
              <rect id="Rectángulo_468104" data-name="Rectángulo 468104" width="31.279" height="2.543" transform="translate(39.128 109.665)" fill="#5198ff"/>
              <rect id="Rectángulo_468105" data-name="Rectángulo 468105" width="44.005" height="2.543" transform="translate(39.128 115.397)" fill="#5198ff"/>
              <rect id="Rectángulo_468106" data-name="Rectángulo 468106" width="35.798" height="2.543" transform="translate(39.129 121.129)" fill="#5198ff"/>
              <rect id="Rectángulo_468107" data-name="Rectángulo 468107" width="31.279" height="2.543" transform="translate(39.128 126.861)" fill="#5198ff"/>
              <rect id="Rectángulo_468108" data-name="Rectángulo 468108" width="35.798" height="2.543" transform="translate(39.129 132.593)" fill="#5198ff"/>
              <rect id="Rectángulo_468109" data-name="Rectángulo 468109" width="39.277" height="2.543" transform="translate(39.129 138.326)" fill="#5198ff"/>
              <rect id="Rectángulo_468110" data-name="Rectángulo 468110" width="31.279" height="2.543" transform="translate(39.128 144.058)" fill="#5198ff"/>
              <rect id="Rectángulo_468111" data-name="Rectángulo 468111" width="36.512" height="2.543" transform="translate(39.128 149.79)" fill="#5198ff"/>
              <rect id="Rectángulo_468112" data-name="Rectángulo 468112" width="2.654" height="2.543" transform="translate(31.933 0.865)" fill="#5198ff"/>
              <rect id="Rectángulo_468113" data-name="Rectángulo 468113" width="2.654" height="2.543" transform="translate(31.933 6.598)" fill="#5198ff"/>
              <rect id="Rectángulo_468114" data-name="Rectángulo 468114" width="2.654" height="2.543" transform="translate(31.933 12.33)" fill="#5198ff"/>
              <rect id="Rectángulo_468115" data-name="Rectángulo 468115" width="2.654" height="2.543" transform="translate(31.933 18.062)" fill="#5198ff"/>
              <rect id="Rectángulo_468116" data-name="Rectángulo 468116" width="2.654" height="2.543" transform="translate(31.933 23.794)" fill="#5198ff"/>
              <rect id="Rectángulo_468117" data-name="Rectángulo 468117" width="2.654" height="2.543" transform="translate(31.933 29.526)" fill="#5198ff"/>
              <rect id="Rectángulo_468118" data-name="Rectángulo 468118" width="2.654" height="2.543" transform="translate(31.933 35.259)" fill="#5198ff"/>
              <rect id="Rectángulo_468119" data-name="Rectángulo 468119" width="2.654" height="2.543" transform="translate(31.933 40.99)" fill="#5198ff"/>
              <rect id="Rectángulo_468120" data-name="Rectángulo 468120" width="2.654" height="2.543" transform="translate(31.933 46.723)" fill="#5198ff"/>
              <rect id="Rectángulo_468121" data-name="Rectángulo 468121" width="2.654" height="2.543" transform="translate(31.933 52.455)" fill="#5198ff"/>
              <rect id="Rectángulo_468122" data-name="Rectángulo 468122" width="2.654" height="2.543" transform="translate(31.933 58.188)" fill="#5198ff"/>
              <rect id="Rectángulo_468123" data-name="Rectángulo 468123" width="2.654" height="2.543" transform="translate(31.933 63.919)" fill="#5198ff"/>
              <rect id="Rectángulo_468124" data-name="Rectángulo 468124" width="2.654" height="2.543" transform="translate(31.933 69.651)" fill="#5198ff"/>
              <rect id="Rectángulo_468125" data-name="Rectángulo 468125" width="2.654" height="2.543" transform="translate(31.933 75.384)" fill="#5198ff"/>
              <rect id="Rectángulo_468126" data-name="Rectángulo 468126" width="2.654" height="2.543" transform="translate(31.933 81.115)" fill="#5198ff"/>
              <rect id="Rectángulo_468127" data-name="Rectángulo 468127" width="2.654" height="2.543" transform="translate(31.933 86.848)" fill="#5198ff"/>
              <rect id="Rectángulo_468128" data-name="Rectángulo 468128" width="2.654" height="2.543" transform="translate(31.933 92.58)" fill="#5198ff"/>
              <rect id="Rectángulo_468129" data-name="Rectángulo 468129" width="2.654" height="2.543" transform="translate(31.933 98.312)" fill="#5198ff"/>
              <rect id="Rectángulo_468130" data-name="Rectángulo 468130" width="2.654" height="2.543" transform="translate(31.933 104.044)" fill="#5198ff"/>
              <rect id="Rectángulo_468131" data-name="Rectángulo 468131" width="2.654" height="2.543" transform="translate(31.933 109.777)" fill="#5198ff"/>
              <rect id="Rectángulo_468132" data-name="Rectángulo 468132" width="2.654" height="2.543" transform="translate(31.933 115.509)" fill="#5198ff"/>
              <rect id="Rectángulo_468133" data-name="Rectángulo 468133" width="2.654" height="2.543" transform="translate(31.933 121.24)" fill="#5198ff"/>
              <rect id="Rectángulo_468134" data-name="Rectángulo 468134" width="2.654" height="2.543" transform="translate(31.933 126.973)" fill="#5198ff"/>
              <rect id="Rectángulo_468135" data-name="Rectángulo 468135" width="2.654" height="2.543" transform="translate(31.933 132.705)" fill="#5198ff"/>
              <rect id="Rectángulo_468136" data-name="Rectángulo 468136" width="2.654" height="2.543" transform="translate(31.933 138.437)" fill="#5198ff"/>
              <rect id="Rectángulo_468137" data-name="Rectángulo 468137" width="2.654" height="2.543" transform="translate(31.933 144.169)" fill="#5198ff"/>
              <rect id="Rectángulo_468138" data-name="Rectángulo 468138" width="2.654" height="2.543" transform="translate(31.933 149.902)" fill="#5198ff"/>
            </g>
          </g>
        </g>
        <g id="Grupo_1214670" data-name="Grupo 1214670" transform="translate(284.323 47.205)" opacity="0.5">
          <g id="Grupo_1214669" data-name="Grupo 1214669">
            <g id="Grupo_1214668" data-name="Grupo 1214668" clip-path="url(#clip-path-5)">
              <path id="Trazado_1283167" data-name="Trazado 1283167" d="M315.283,235.089h-.234l.01-38.934L345.5,136.9V85.117l.1.125c.042.051.084.1.12.152l.011.014-.007,51.555-.116.226-30.325,59.038Zm-.118-.112h0V196.2l.007-.011,30.442-59.265V85.443h0v51.483l-.005.011L315.165,196.2Z" transform="translate(-256.562 -43.571)" fill="#51aeff"/>
              <path id="Trazado_1283168" data-name="Trazado 1283168" d="M320.634,234.76H320.4V197.139l.012-.015,30.436-59.256V92.808l.107.149c.041.058.079.116.119.177l.009.014-.007,44.784L320.634,197.2Zm-.116-.113h0V197.175h0Zm30.448-141.47V137.9l-.007.011-7.315,14.243,7.323-14.257V93.179h0" transform="translate(-256.09 -43.243)" fill="#51aeff"/>
              <path id="Trazado_1283169" data-name="Trazado 1283169" d="M317.958,234.932h-.233V196.666l.016-.026,30.431-59.248V88.775l.1.135c.041.053.081.106.119.162l.011.015-.008,48.372-30.441,59.264Zm-.116-.112h0v0Zm30.448-145.7v48.3l-.007.011-5.721,11.14,5.729-11.154v-48.3h0" transform="translate(-256.326 -43.415)" fill="#51aeff"/>
              <path id="Trazado_1283170" data-name="Trazado 1283170" d="M315.283,235.089h-.234l.012-38.289.111-.214L345.5,137.548V85.117l.1.125c.042.051.084.1.12.152l.011.014-.007,52.2-30.441,59.265Zm-.118-.112h0V196.851l.007-.011,30.442-59.267V85.443h0v52.133l-.005.011L315.164,196.85Z" transform="translate(-256.562 -43.571)" fill="#51aeff"/>
              <path id="Trazado_1283171" data-name="Trazado 1283171" d="M312.39,235.242h-.234l.007-38.856L342.6,137.122v-55.6l.1.1c.041.044.082.09.118.135l.012.016-.005,55.41L312.39,196.452Zm-.118-.112h0v-38.7l.007-.011,4.966-9.669-4.973,9.681Z" transform="translate(-256.816 -43.724)" fill="#51aeff"/>
              <path id="Trazado_1283172" data-name="Trazado 1283172" d="M307.04,235.494h-.234l.007-40.154,30.439-59.264V75.632l.1.1c.041.039.081.076.119.116l.015.016-.007,60.281-.116.226L307.04,195.405Zm-.118-.112h0v-40l.007-.011L337.368,136.1V75.9h0v60.2l-.007.011L306.922,195.38Z" transform="translate(-257.288 -43.976)" fill="#51aeff"/>
              <path id="Trazado_1283173" data-name="Trazado 1283173" d="M309.715,235.373h-.234l.007-39.5,30.438-59.265V78.447l.1.112c.038.042.076.082.116.124l.015.016-.005,57.97-30.439,59.266Zm-.117-.112h0V195.907l.007-.011,30.44-59.266v0l-.007.011L309.6,195.909Z" transform="translate(-257.052 -43.856)" fill="#51aeff"/>
              <path id="Trazado_1283174" data-name="Trazado 1283174" d="M307.04,235.494h-.234l.007-39.5.116-.226,30.323-59.037V75.632l.1.1c.041.039.081.076.119.116l.015.016-.005,60.929L307.04,196.054Zm-.118-.112h0V196.028l.007-.011,30.44-59.266V75.9h0v60.848l-.007.011-30.439,59.266Z" transform="translate(-257.288 -43.976)" fill="#51aeff"/>
              <path id="Trazado_1283175" data-name="Trazado 1283175" d="M291.976,236.79h-.233V199.227L261.3,139.937V45.272h.233V139.9l30.446,59.29Zm-.116-.113h0V199.2l-2.343-4.562,2.343,4.574Zm-5.284-47.766.806,1.568ZM276.338,168.98l2.271,4.419Zm-2.942-5.73.875,1.7Zm-3.033-5.9,1.024,1.994Zm-2.852-5.554.93,1.811Zm-2.459-4.785,1.342,2.61L262,141.066l1.406,2.738Zm-3.638-7.084.059.115-.059-.127v.013Z" transform="translate(-261.298 -45.272)" fill="#51aeff"/>
              <path id="Trazado_1283176" data-name="Trazado 1283176" d="M297.327,236.786h-.233V197.925l-30.446-59.29V45.362h.059a.8.8,0,0,1,.124.006l.051.006V138.6l30.444,59.29Zm-.116-.113h0v-38.78l-3.091-6.017,3.092,6.035Zm-8.533-55.388,2.05,3.988-5.38-10.474Zm-6.331-12.329.933,1.815Zm-5.806-11.306,2.147,4.183Zm-4.63-9.011.506.985Zm-2.86-5.57.848,1.652Zm-2.286-4.448,1.114,2.165-1.114-2.178v.014Z" transform="translate(-260.827 -45.268)" fill="#51aeff"/>
              <path id="Trazado_1283177" data-name="Trazado 1283177" d="M294.651,236.789h-.234V198.578l-.028-.056-30.416-59.233V45.282h.058q.064,0,.121,0l.056,0v93.96l30.444,59.29Zm-.116-.112h0V198.546l-.013-.023-3.542-6.9,3.556,6.937Zm-8.867-55.389,3.315,6.454L282.236,174.6Zm-13.356-26.006,7.869,15.322-10.717-20.866.016.033Zm-4.251-8.276.4.782-.824-1.606Zm-3.971-7.733,1.4,2.717-1.4-2.73v.013Z" transform="translate(-261.062 -45.272)" fill="#51aeff"/>
              <path id="Trazado_1283178" data-name="Trazado 1283178" d="M297.327,236.786h-.233V198.574l-30.446-59.29V45.362h.059a.958.958,0,0,1,.124.006l.051.007v93.87l30.444,59.29Zm-.116-.112h0v-38.13l-.11-.211-4.751-9.253,4.862,9.48Zm-8.867-55.389,2.342,4.557-5.728-11.153ZM274.987,155.28l7.9,15.376-12.6-24.537Zm-8.222-16.008,1.432,2.785-1.432-2.8v.013Z" transform="translate(-260.827 -45.268)" fill="#51aeff"/>
              <path id="Trazado_1283179" data-name="Trazado 1283179" d="M300.222,236.779h-.233v-38.79L269.544,138.7V45.528h.059a.8.8,0,0,1,.122.008l.05.006v93.117l30.448,59.29Zm-.116-.112h0V197.961l-.336-.654.336.667Zm-16.486-70.8,14.155,27.562Zm-4.3-8.38,2.311,4.5Zm-3.988-7.765.529,1.031Zm-1.4-2.724.344.668-2.4-4.684Z" transform="translate(-260.571 -45.261)" fill="#51aeff"/>
              <path id="Trazado_1283180" data-name="Trazado 1283180" d="M305.574,236.757h-.234V196.668L274.9,137.379V46.044l.063,0a.972.972,0,0,1,.122.015l.047.009v91.267L290.209,166.7l15.365,29.926Zm-.117-.112h0v-40l-10.61-20.656.02.04,10.59,20.629ZM284.2,155.251l7.22,14.057-8.985-17.5Zm-4.25-8.276.474.923-.7-1.365Zm-.855-1.664.552,1.076v0Zm-3.729-7.257,2.007,3.9-2.275-4.426Z" transform="translate(-260.1 -45.239)" fill="#51aeff"/>
              <path id="Trazado_1283181" data-name="Trazado 1283181" d="M302.9,236.77h-.234V197.33l-30.446-59.29V45.746l.063,0c.039,0,.078.005.118.01l.05.007V138l.033.065L302.9,197.29Zm-.118-.113h0V197.3l-2.846-5.54,2.845,5.552ZM289.7,171.837l2.324,4.527Zm-5.947-11.575,3.841,7.479Zm-2.569-5,.466.905-5.177-10.082ZM273.244,139.8l1.146,2.23Z" transform="translate(-260.336 -45.252)" fill="#51aeff"/>
              <path id="Trazado_1283182" data-name="Trazado 1283182" d="M305.574,236.757h-.234v-39.44L274.9,138.027V46.044l.063,0a.807.807,0,0,1,.122.014l.046.009v91.917l.033.066,19.709,38.368,10.707,20.856Zm-.117-.112h0V197.291l-.344-.669.344.683Zm-12.351-63.4,2.226,4.337ZM288,163.3l.8,1.555Zm-4.136-8.049.432.839-4.518-8.8Zm-4.249-8.276.041.08-.041-.082Zm-3.664-7.132,1.153,2.243Z" transform="translate(-260.1 -45.239)" fill="#51aeff"/>
            </g>
          </g>
        </g>
        <path id="Trazado_1283183" data-name="Trazado 1283183" d="M111.038,233.442h-.116v-3.6l-73.5-70.431V122.376h.116v36.985l73.5,70.431Z" transform="translate(3.297 5.225)" fill="#51aeff"/>
        <path id="Trazado_1283184" data-name="Trazado 1283184" d="M113.334,233.563h-.116v-3.6l-73.5-70.431V119.55h.116v39.932l73.5,70.431Z" transform="translate(3.5 5.104)" fill="#51aeff"/>
        <path id="Trazado_1283185" data-name="Trazado 1283185" d="M115.629,233.672h-.116v-3.6l-73.5-70.431V116.98h.118v42.612l73.5,70.431Z" transform="translate(3.702 4.994)" fill="#51aeff"/>
        <path id="Trazado_1283186" data-name="Trazado 1283186" d="M117.924,233.772h-.116v-3.6l-73.5-70.431v-45.1h.116v45.055l73.5,70.431Z" transform="translate(3.904 4.894)" fill="#51aeff"/>
        <path id="Trazado_1283187" data-name="Trazado 1283187" d="M120.22,233.864H120.1v-3.6L46.6,159.83V112.484h.116v47.3l73.5,70.431Z" transform="translate(4.106 4.802)" fill="#51aeff"/>
        <path id="Trazado_1283188" data-name="Trazado 1283188" d="M122.515,233.949H122.4v-3.6L48.9,159.914V110.5h.116v49.364l73.5,70.431Z" transform="translate(4.309 4.718)" fill="#51aeff"/>
        <path id="Trazado_1283189" data-name="Trazado 1283189" d="M124.808,234.027h-.116v-3.6l-73.5-70.431V108.681h.116v51.265l73.5,70.431Z" transform="translate(4.511 4.64)" fill="#51aeff"/>
        <path id="Trazado_1283190" data-name="Trazado 1283190" d="M127.106,234.1h-.116v-3.6l-73.5-70.431V107H53.6v53.02l73.5,70.431Z" transform="translate(4.713 4.568)" fill="#51aeff"/>
        <path id="Trazado_1283191" data-name="Trazado 1283191" d="M129.4,234.165h-.116v-3.6l-73.5-70.431V105.446H55.9v54.638l73.5,70.431Z" transform="translate(4.916 4.502)" fill="#51aeff"/>
        <path id="Trazado_1283192" data-name="Trazado 1283192" d="M131.694,234.226h-.116v-3.6l-73.5-70.431V104.013h.116v56.132l73.5,70.431Z" transform="translate(5.118 4.441)" fill="#51aeff"/>
        <path id="Trazado_1283193" data-name="Trazado 1283193" d="M133.989,234.282h-.116v-3.6l-73.5-70.431V102.693h.116V160.2l73.5,70.431Z" transform="translate(5.32 4.384)" fill="#51aeff"/>
        <path id="Trazado_1283194" data-name="Trazado 1283194" d="M136.284,234.334h-.116v-3.6L104.32,200.209,62.67,160.3V101.48h.116v58.774l73.5,70.431Z" transform="translate(5.522 4.333)" fill="#51aeff"/>
        <path id="Trazado_1283195" data-name="Trazado 1283195" d="M138.58,234.382h-.116v-3.6l-73.5-70.431v-59.98h.118V160.3l73.5,70.431Z" transform="translate(5.725 4.285)" fill="#51aeff"/>
        <path id="Trazado_1283196" data-name="Trazado 1283196" d="M140.875,234.425h-.116v-3.6l-73.5-70.431V99.352h.118v60.992l73.5,70.431Z" transform="translate(5.927 4.242)" fill="#51aeff"/>
        <path id="Trazado_1283197" data-name="Trazado 1283197" d="M143.171,234.464h-.116v-3.6l-73.5-70.431v-62h.116v61.957l73.5,70.431Z" transform="translate(6.129 4.202)" fill="#51aeff"/>
        <path id="Trazado_1283198" data-name="Trazado 1283198" d="M145.466,234.5h-.116v-3.6l-73.5-70.431V97.587h.118V160.42l73.5,70.431Z" transform="translate(6.331 4.166)" fill="#51aeff"/>
        <path id="Trazado_1283199" data-name="Trazado 1283199" d="M307.526,62.694c-3.85,21.213-4,42.475-4.488,57.811-.273,15.44-.886,24.953-.677,25.059a65.815,65.815,0,0,0,18.594-14.046c9.458-9.964,18.6-26.238,22.42-48s4-43.235,4.494-58.406c.286-15.315.889-24.323.671-24.464a72.3,72.3,0,0,0-18.6,14.643c-9.451,10.129-18.563,26.186-22.413,47.4" transform="translate(26.64 0.028)" fill="#fff"/>
        <path id="Trazado_1283200" data-name="Trazado 1283200" d="M302.046,146.273a.9.9,0,0,1-.217-.136l-.232-.149.019-.44c0-.014,0-.026,0-.04-.066-.714-.011-2.216.116-5.588.164-4.373.412-10.983.561-19.4q.088-2.778.169-5.78c.416-14.894.934-33.431,4.332-52.15l.793.132-.793-.132c4.617-25.443,16.146-40.857,22.606-47.781A71.055,71.055,0,0,1,347.474.459c.268-.15.545-.306.609-.35a.729.729,0,0,0-.28.63l.745-.049.433-.69.417.214.013.458V.694c.075.656.02,2.106-.116,5.651-.161,4.218-.4,10.591-.558,18.812q-.09,2.764-.173,5.77c-.431,14.955-.966,33.568-4.333,52.751-4.6,26.215-16.146,41.568-22.618,48.385a63.6,63.6,0,0,1-18.04,13.764c-.281.145-.571.3-.64.341a.722.722,0,0,0,.292-.587l-.749,0ZM347.834,2.047a69.388,69.388,0,0,0-17.222,13.781c-6.356,6.81-17.681,21.961-22.229,47.027-3.378,18.609-3.893,37.082-4.308,51.926-.057,2-.11,3.933-.169,5.775-.149,8.423-.4,15.042-.563,19.421-.066,1.763-.124,3.3-.147,4.291a62.085,62.085,0,0,0,17.215-13.231c6.363-6.7,17.7-21.788,22.23-47.615,3.348-19.075,3.882-37.629,4.311-52.537.058-2.006.113-3.932.173-5.766.153-8.225.4-14.607.559-18.83.066-1.737.124-3.251.148-4.243" transform="translate(26.576 0)" fill="#d86a43"/>
        <path id="Trazado_1283201" data-name="Trazado 1283201" d="M334.636,31.365c-11.183,37.384-12.129,80.714-32.279,112.888Z" transform="translate(26.643 1.339)" fill="#fff"/>
        <path id="Trazado_1283202" data-name="Trazado 1283202" d="M303.1,144.659l-1.381-.795C314.791,123,319.834,96.9,324.711,71.665c2.609-13.5,5.308-27.471,9.207-40.5l1.548.425c-3.877,12.963-6.569,26.891-9.172,40.361-4.9,25.371-9.973,51.6-23.191,72.712" transform="translate(26.587 1.33)" fill="#d86a43"/>
        <path id="Trazado_1283203" data-name="Trazado 1283203" d="M326.557,168.829c-18.15,17.606-27.6,30.717-34.218,38.7-6.363,8.089-9.892,11.048-10.333,10.825a74.758,74.758,0,0,1-13.155-21.062c-5.085-13.186-7.241-31.749,11.446-49.689,8.7-9.263,21.845-17.418,33.958-25.664,12.242-8.187,23.458-16.464,31.289-24.624,7.961-8.1,12.535-16.087,14.463-22.345,2.058-6.2,1.469-10.672,2.073-10.4-.544-.271,2.778,5.639,4.887,13.932a65.79,65.79,0,0,1,.991,29.883c-2.137,10.851-7.559,21.755-15.333,31.843-7.649,10.151-17.651,19.485-26.068,28.605" transform="translate(23.378 2.756)" fill="#fff"/>
        <path id="Trazado_1283204" data-name="Trazado 1283204" d="M282.34,219.344l-.441-.188a1.309,1.309,0,0,1-.206-.09l.358-.7-.582-.479a.736.736,0,0,0-.074.878c-.044-.062-.249-.3-.448-.524A72.483,72.483,0,0,1,268.163,197.6c-7.35-19.058-3.436-36.05,11.628-50.511,7.344-7.817,17.941-14.921,28.19-21.791,1.968-1.32,3.934-2.637,5.871-3.956,14.542-9.725,24.442-17.515,31.163-24.519,7.041-7.166,12.112-14.991,14.284-22.04a35.428,35.428,0,0,0,1.651-8.566c.126-1.451.173-1.995.7-2.286a.922.922,0,0,1,.684-.087.91.91,0,0,1,.186.069l-.712,1.386a.78.78,0,0,0,.118.041.746.746,0,0,0,.454-.034.619.619,0,0,0,.34-.307.807.807,0,0,0-.03.125.674.674,0,0,0,.2-.566c.037.172.348.9.647,1.6a80.827,80.827,0,0,1,4.282,12.194,66.873,66.873,0,0,1,1,30.217c-2.088,10.6-7.441,21.723-15.475,32.15-5.343,7.089-11.829,13.784-18.1,20.258-2.8,2.893-5.453,5.627-8.01,8.4l-.03.031a323.769,323.769,0,0,0-29.853,33.3c-1.608,2.016-3,3.756-4.308,5.339a95.969,95.969,0,0,1-7.438,8.585,11.283,11.283,0,0,1-3.061,2.473ZM362.434,67.661a35.093,35.093,0,0,1-1.594,7.574C358.6,82.5,353.4,90.541,346.195,97.875c-6.8,7.082-16.78,14.942-31.414,24.729-1.937,1.318-3.905,2.638-5.877,3.959-10.174,6.821-20.695,13.874-27.944,21.588-14.609,14.026-18.4,30.471-11.288,48.9a70.953,70.953,0,0,0,12.512,20.2l.15.173c1.024-.736,3.978-3.408,9.425-10.331,1.314-1.586,2.7-3.321,4.3-5.329a325.1,325.1,0,0,1,29.971-33.432c2.566-2.78,5.216-5.516,8.022-8.41,6.239-6.441,12.692-13.1,17.982-20.119,7.9-10.248,13.149-21.15,15.194-31.535a65.383,65.383,0,0,0-.981-29.547,76.551,76.551,0,0,0-3.815-11.061" transform="translate(23.313 2.724)" fill="#d86a43"/>
        <path id="Trazado_1283205" data-name="Trazado 1283205" d="M353.158,105.407c-23.487,37.369-83.932,57.367-72.388,111.2Z" transform="translate(24.613 4.5)" fill="#fff"/>
        <path id="Trazado_1283206" data-name="Trazado 1283206" d="M280.045,216.78c-7.72-36,16.654-57.3,40.226-77.9,11.974-10.461,24.354-21.279,32.262-33.859l1.381.8c-8.028,12.773-20.5,23.668-32.556,34.2-23.238,20.305-47.268,41.3-39.732,76.442Z" transform="translate(24.549 4.484)" fill="#d86a43"/>
        <path id="Trazado_1283207" data-name="Trazado 1283207" d="M59.135,53.626c-9.093,20.41-14.618,38.14-20.494,39.032-5.582,1.126-9.877-19.109.915-44.556,10.78-25.464,31.015-40.066,34.7-36.169C78.246,15.7,67.867,33.14,59.135,53.626" transform="translate(2.899 0.483)" fill="#fff"/>
        <path id="Trazado_1283208" data-name="Trazado 1283208" d="M38.251,93.509a3.638,3.638,0,0,1-2.758-1.44c-4.337-4.973-5.574-23.108,3.383-44.227,8.939-21.114,25.074-35.887,32.706-37.185a3.508,3.508,0,0,1,3.321.772c3.248,3.109-1.087,12.374-7.644,26.385-2.292,4.9-4.889,10.449-7.313,16.135l0,.01c-2.275,5.107-4.371,10.151-6.22,14.6C47.679,83.105,43.688,92.713,38.832,93.452a2.984,2.984,0,0,1-.581.057m34.334-81.4a4.329,4.329,0,0,0-.724.067c-6.073,1.031-22.241,14.389-31.494,36.245-8.6,20.288-7.614,38.1-3.639,42.657a1.932,1.932,0,0,0,1.812.854c3.99-.607,8.269-10.906,13.684-23.943,1.852-4.458,3.95-9.508,6.232-14.631,2.433-5.708,5.036-11.269,7.333-16.176C71.395,25.2,76.237,14.856,73.756,12.514l-.032-.031a1.544,1.544,0,0,0-1.139-.371" transform="translate(2.834 0.451)" fill="#d86a43"/>
        <path id="Trazado_1283209" data-name="Trazado 1283209" d="M122.5,218c-15.835-3.428-31.273-11.278-44.642-22.7a113.772,113.772,0,0,1-31.893-44.762c-7.455-18.153-10.351-38.783-8.372-59.648a136.529,136.529,0,0,1,22.1-62.37l1.359.829C37,65.593,31.8,111.818,47.468,149.98c13.082,33.329,42.673,59.431,75.387,66.513Z" transform="translate(3.259 1.217)" fill="#d86a43"/>
        <path id="Trazado_1283210" data-name="Trazado 1283210" d="M63.77,109c-9.509,12.261-18.725,21.468-23.483,14.755-4.846-6.572-.115-26.848,12.52-38.506C65.3,73.507,77.187,73.8,78.886,79.752c1.829,6.159-5.6,16.786-15.116,29.249" transform="translate(3.385 3.233)" fill="#fff"/>
        <path id="Trazado_1283211" data-name="Trazado 1283211" d="M44.347,126.82h-.122a5.558,5.558,0,0,1-4.54-2.6c-5.219-7.075.063-27.9,12.628-39.494,9.393-8.831,18.058-10.584,22.624-9.4a6.265,6.265,0,0,1,4.789,4.255c1.967,6.619-5.739,17.461-15.242,29.908l0,0c-9.286,11.973-15.506,17.329-20.133,17.329M72.042,76.527c-4.467,0-11.228,2.37-18.607,9.305a46.957,46.957,0,0,0-12.6,20.817c-2.131,7.259-2.062,13.655.178,16.692a3.979,3.979,0,0,0,3.249,1.934h.084c5.887,0,15.629-12.559,18.843-16.7,8.908-11.667,16.756-22.631,14.99-28.578a4.692,4.692,0,0,0-3.659-3.18,9.9,9.9,0,0,0-2.474-.288" transform="translate(3.321 3.202)" fill="#d86a43"/>
        <path id="Trazado_1283212" data-name="Trazado 1283212" d="M66.463,88.436a111.075,111.075,0,0,0-26.327,34.777Z" transform="translate(3.537 3.776)" fill="#fff"/>
        <path id="Trazado_1283213" data-name="Trazado 1283213" d="M40.924,123.564l-1.458-.655A111.2,111.2,0,0,1,65.979,87.89l1.087,1.139a109.688,109.688,0,0,0-26.142,34.535" transform="translate(3.478 3.752)" fill="#d86a43"/>
        <path id="Trazado_1283214" data-name="Trazado 1283214" d="M16.246,126.647c12.817,10.479,23.99,7.035,25.388-1.952,1.459-9.228-5.693-23.389-14.7-37.266C18.019,73.743,8.206,67.379,2.775,79.815c-5.5,12.365.469,36.5,13.471,46.833" transform="translate(0.065 3.123)" fill="#fff"/>
        <path id="Trazado_1283215" data-name="Trazado 1283215" d="M31.335,133.925c-4.763,0-10.211-2.3-15.542-6.654C9.6,122.35,4.523,113.95,1.86,104.223-.7,94.869-.613,85.644,2.1,79.544c1.951-4.467,4.582-6.861,7.819-7.112,6.491-.5,13.237,7.673,17.761,14.621,11.251,17.33,16.1,29.691,14.816,37.79a10.247,10.247,0,0,1-6.76,8.346,12.982,12.982,0,0,1-4.4.736M10.486,73.953c-.147,0-.293.005-.437.017-2.589.2-4.765,2.278-6.466,6.174-5.132,11.542.076,35.483,13.241,45.941l.009.007c6.607,5.4,13.29,7.462,18.337,5.651a8.727,8.727,0,0,0,5.732-7.13c1.2-7.616-3.7-19.977-14.589-36.745-5.863-9-11.459-13.916-15.827-13.916" transform="translate(0 3.091)" fill="#d86a43"/>
        <path id="Trazado_1283216" data-name="Trazado 1283216" d="M11.109,94.853A106.263,106.263,0,0,0,40.721,123.77Z" transform="translate(0.979 4.05)" fill="#fff"/>
        <path id="Trazado_1283217" data-name="Trazado 1283217" d="M40.323,124.427A107.061,107.061,0,0,1,10.491,95.3l1.343-.853a105.484,105.484,0,0,0,29.392,28.7Z" transform="translate(0.924 4.032)" fill="#d86a43"/>
        <path id="Trazado_1283218" data-name="Trazado 1283218" d="M74.083,146.07c-4.386,14.2-9.37,26.132-16.09,22.552-6.749-3.41-10.142-22.816-2.906-38.031,7.084-15.236,18.391-19.623,22.255-15.2,4.072,4.551,1.039,16.3-3.259,30.68" transform="translate(4.497 4.857)" fill="#fff"/>
        <path id="Trazado_1283219" data-name="Trazado 1283219" d="M60.436,170.069a5.856,5.856,0,0,1-2.769-.739c-3.547-1.792-6.276-7.613-7.107-15.183A45.462,45.462,0,0,1,54.42,130.3c5.422-11.664,12.974-16.558,17.791-17.2a6.315,6.315,0,0,1,5.814,1.828c4.36,4.873,1.322,16.584-3.1,31.388l0,.006c-3.208,10.385-7.206,21.283-12.534,23.37a5.311,5.311,0,0,1-1.951.377M73.423,114.56a7.553,7.553,0,0,0-.989.068c-4.409.591-11.389,5.218-16.546,16.31-7.3,15.354-3.577,33.941,2.546,37.034a3.812,3.812,0,0,0,3.344.291c4.725-1.85,8.68-12.929,11.6-22.376,4.141-13.856,7.257-25.675,3.421-29.962a4.316,4.316,0,0,0-3.373-1.365" transform="translate(4.432 4.825)" fill="#d86a43"/>
        <path id="Trazado_1283220" data-name="Trazado 1283220" d="M68.782,127.39A101.819,101.819,0,0,0,57.43,168.042Z" transform="translate(5.061 5.439)" fill="#fff"/>
        <path id="Trazado_1283221" data-name="Trazado 1283221" d="M58.3,168.106l-1.607-.1a103.276,103.276,0,0,1,11.437-40.95l1.437.7A101.767,101.767,0,0,0,58.3,168.106" transform="translate(4.996 5.424)" fill="#d86a43"/>
        <path id="Trazado_1283222" data-name="Trazado 1283222" d="M38.543,183.031c15.187,2.413,23.772-5.615,21.77-13.938-2.071-8.528-13.785-17.382-27.452-24.356-13.512-6.871-25.156-6.567-24.828,6.44.268,12.99,15.25,29.625,30.51,31.854" transform="translate(0.707 5.989)" fill="#fff"/>
        <path id="Trazado_1283223" data-name="Trazado 1283223" d="M43.905,184.269a34.684,34.684,0,0,1-5.423-.443c-7.338-1.074-15.119-5.5-21.349-12.139-6.029-6.426-9.708-14.076-9.84-20.463-.124-4.937,1.394-8.379,4.514-10.227,4.593-2.72,12.227-1.622,21.5,3.091,9.3,4.747,25.292,14.291,27.858,24.863A10.823,10.823,0,0,1,58.2,179.215c-3.238,3.3-8.289,5.054-14.294,5.054M17.857,141.09a10.127,10.127,0,0,0-5.2,1.221c-2.6,1.538-3.86,4.526-3.75,8.88.124,6.031,3.648,13.306,9.426,19.465,5.987,6.381,13.422,10.625,20.4,11.645l.01,0c7.821,1.243,14.484-.269,18.285-4.144a9.227,9.227,0,0,0,2.568-8.859c-1.768-7.287-11.627-15.98-27.044-23.85-5.663-2.879-10.736-4.361-14.692-4.361" transform="translate(0.642 5.957)" fill="#d86a43"/>
        <path id="Trazado_1283224" data-name="Trazado 1283224" d="M21.556,158.481a113.249,113.249,0,0,0,37.564,9.837Z" transform="translate(1.899 6.766)" fill="#fff"/>
        <path id="Trazado_1283225" data-name="Trazado 1283225" d="M59.077,169.115a114.417,114.417,0,0,1-37.841-9.909l.7-1.393a112.773,112.773,0,0,0,37.29,9.765Z" transform="translate(1.871 6.738)" fill="#d86a43"/>
        <path id="Trazado_1283226" data-name="Trazado 1283226" d="M96.183,173.259c.749,13.766.369,26.183-6.778,25.936-7.1-.083-17.074-15.543-15.927-31.6,1.015-16.022,9.957-24.065,15.134-21.684,5.413,2.415,6.664,13.454,7.571,27.347" transform="translate(6.467 6.212)" fill="#fff"/>
        <path id="Trazado_1283227" data-name="Trazado 1283227" d="M89.679,200c-.078,0-.158,0-.237,0-2.263-.026-4.774-1.4-7.241-3.959-5.153-5.352-10.311-16.542-9.461-28.463.775-12.219,6-19.341,10.23-21.726a6.605,6.605,0,0,1,6.056-.6c5.9,2.632,7.127,14.235,8.026,27.993v.008c.585,10.774.578,21.28-3.41,25.162A5.492,5.492,0,0,1,89.679,200m-2.932-53.694a6.114,6.114,0,0,0-2.961.873c-3.894,2.192-8.7,8.874-9.438,20.493-.819,11.472,4.11,22.2,9.037,27.318,2.129,2.212,4.294,3.442,6.1,3.463A3.906,3.906,0,0,0,92.5,197.33c3.559-3.466,3.489-14.074,2.949-24-.833-12.767-2.005-24.415-7.106-26.69a3.762,3.762,0,0,0-1.591-.336" transform="translate(6.402 6.18)" fill="#d86a43"/>
        <path id="Trazado_1283228" data-name="Trazado 1283228" d="M84.681,159.057a91.019,91.019,0,0,0,3.793,39.559Z" transform="translate(7.398 6.791)" fill="#fff"/>
        <path id="Trazado_1283229" data-name="Trazado 1283229" d="M87.769,198.846a92.284,92.284,0,0,1-3.823-39.881l1.6.193a90.8,90.8,0,0,0,3.764,39.236Z" transform="translate(7.334 6.787)" fill="#d86a43"/>
        <path id="Trazado_1283230" data-name="Trazado 1283230" d="M78.091,221.458c13.661-5.039,18.3-15.738,13.654-22.152-4.792-6.543-18.327-9.3-32.875-8.859-14.393.449-24.289,6.872-18.836,18.039,5.426,11.185,24.423,18.17,38.058,12.972" transform="translate(3.394 8.129)" fill="#fff"/>
        <path id="Trazado_1283231" data-name="Trazado 1283231" d="M68.179,223.98c-11.794,0-24.415-6.078-28.811-15.138-2.088-4.276-2.115-8.217-.079-11.4,2.958-4.62,10.11-7.44,19.62-7.737,16.439-.5,28.985,2.939,33.56,9.186a10.567,10.567,0,0,1,1.288,9.662c-1.851,5.77-7.431,10.747-15.307,13.653a28.939,28.939,0,0,1-10.271,1.773M61.908,191.2q-1.453,0-2.948.045c-8.96.279-15.63,2.832-18.3,7-1.765,2.756-1.708,6.1.165,9.939,5.416,11.161,24.1,17.51,37.031,12.582l.009,0c7.306-2.694,12.67-7.43,14.35-12.668a9.108,9.108,0,0,0-1.069-8.325c-3.929-5.365-14.994-8.572-29.24-8.572" transform="translate(3.329 8.097)" fill="#d86a43"/>
        <path id="Trazado_1283232" data-name="Trazado 1283232" d="M54.244,207.681a133.175,133.175,0,0,0,36.114-8.741Z" transform="translate(4.78 8.493)" fill="#fff"/>
        <path id="Trazado_1283233" data-name="Trazado 1283233" d="M54.329,208.479l-.156-1.537a131.328,131.328,0,0,0,35.888-8.687l.606,1.43a133.032,133.032,0,0,1-36.339,8.794" transform="translate(4.774 8.464)" fill="#d86a43"/>
        <path id="Trazado_1283234" data-name="Trazado 1283234" d="M327.409,219.319H73.564a9.816,9.816,0,0,1-10.018-9.6V72.69a9.816,9.816,0,0,1,10.018-9.6H327.409a9.816,9.816,0,0,1,10.018,9.6V209.719a9.816,9.816,0,0,1-10.018,9.6" transform="translate(5.6 2.693)" fill="#1f1b3d"/>
        <path id="Trazado_1283235" data-name="Trazado 1283235" d="M337.4,70.753a10.093,10.093,0,0,0-9.975-7.811H73.58a10.4,10.4,0,0,0-6.689,2.405,9.819,9.819,0,0,0-2.433,3.02A9.336,9.336,0,0,0,63.4,72.7V209.726a8.093,8.093,0,0,0,.038.815,9.779,9.779,0,0,0,5.739,7.979c.12.054.238.107.361.154s.262.107.4.154a10.4,10.4,0,0,0,3.648.651H327.422a10.417,10.417,0,0,0,3.648-.651c.133-.047.266-.1.395-.154s.242-.1.357-.154a9.861,9.861,0,0,0,5.574-6.852,9.312,9.312,0,0,0,.2-1.943V72.7a9.312,9.312,0,0,0-.2-1.943m-.119,138.973a9.472,9.472,0,0,1-6.268,8.794c-.144.057-.291.107-.441.154-.172.057-.347.111-.526.154a10.057,10.057,0,0,1-2.622.342H73.58a10.02,10.02,0,0,1-2.619-.342c-.178-.044-.357-.1-.529-.154-.151-.047-.3-.1-.442-.154a9.507,9.507,0,0,1-6.228-7.979,7.78,7.78,0,0,1-.042-.815V72.7a9.009,9.009,0,0,1,1.1-4.328,9.5,9.5,0,0,1,2.57-3.02,10.087,10.087,0,0,1,6.187-2.1H327.422a9.669,9.669,0,0,1,9.856,9.445Z" transform="translate(5.586 2.687)"/>
        <rect id="Rectángulo_468141" data-name="Rectángulo 468141" width="255.14" height="138.515" transform="translate(77.314 77.777)" fill="#68c6ea"/>
        <path id="Trazado_1283236" data-name="Trazado 1283236" d="M326.2,74.443H71.066a.157.157,0,0,0-.161.154V213.114a.157.157,0,0,0,.161.154H326.2a.16.16,0,0,0,.164-.154V74.6a.16.16,0,0,0-.164-.154m-.161,138.517H71.227V74.752H326.043Z" transform="translate(6.248 3.178)"/>
        <rect id="Rectángulo_468142" data-name="Rectángulo 468142" width="328.578" height="5.455" transform="translate(41.934 221.363)" fill="#4e4e4e"/>
        <path id="Trazado_1283237" data-name="Trazado 1283237" d="M106.914,217.76H364.273v-.154H106.914Zm0,0H364.273v-.154H106.914Zm0,0H364.273v-.154H106.914Zm-68.523.158h328.9V212.15H38.391Zm328.578-.313H38.713v-5.147H366.969Zm-260.055.154H364.273v-.154H106.914Zm0,0H364.273v-.154H106.914Zm0,0H364.273v-.154H106.914Z" transform="translate(3.383 9.057)"/>
        <path id="Trazado_1283238" data-name="Trazado 1283238" d="M38.539,217.531l7.253,3.778a13.579,13.579,0,0,0,6.269,1.526H353.97a13.574,13.574,0,0,0,6.532-1.668l6.615-3.636Z" transform="translate(3.396 9.287)" fill="#1f1b3d"/>
        <path id="Trazado_1283239" data-name="Trazado 1283239" d="M37.953,217.382l.477.248.122.065,6.7,3.489.515.269A13.819,13.819,0,0,0,52.113,223H354.021a13.765,13.765,0,0,0,6.614-1.688l3.677-2.023,2.9-1.59.123-.068.445-.245Zm326.358,1.55-3.838,2.107a13.433,13.433,0,0,1-6.453,1.647H52.113a13.483,13.483,0,0,1-6.187-1.5l-.007,0-6.7-3.486H366.563Z" transform="translate(3.344 9.281)"/>
        <path id="Trazado_1283240" data-name="Trazado 1283240" d="M190.8,67.9a2.325,2.325,0,1,1-2.323-2.225A2.276,2.276,0,0,1,190.8,67.9" transform="translate(16.404 2.804)" fill="#fff"/>
        <path id="Trazado_1283241" data-name="Trazado 1283241" d="M188.492,65.522a2.383,2.383,0,1,0,2.486,2.379,2.435,2.435,0,0,0-2.486-2.379m0,4.449a2.072,2.072,0,1,1,2.16-2.07,2.118,2.118,0,0,1-2.16,2.07" transform="translate(16.391 2.797)"/>
        <path id="Trazado_1283242" data-name="Trazado 1283242" d="M226.219,214.424h-76.16a2.251,2.251,0,0,1-2.3-2.2h80.756a2.252,2.252,0,0,1-2.3,2.2" transform="translate(13.02 9.061)" fill="#fff"/>
        <path id="Trazado_1283243" data-name="Trazado 1283243" d="M228.666,212.153a.153.153,0,0,0-.137-.077H147.774a.151.151,0,0,0-.136.077.114.114,0,0,0-.025.077.459.459,0,0,0,0,.077,1.185,1.185,0,0,0,.01.154,1.864,1.864,0,0,0,.063.342.819.819,0,0,0,.046.154,1.187,1.187,0,0,0,.055.154,2.469,2.469,0,0,0,2.28,1.473h76.161a2.469,2.469,0,0,0,2.28-1.473,1.046,1.046,0,0,0,.055-.154.683.683,0,0,0,.046-.154,1.776,1.776,0,0,0,.063-.342,1.02,1.02,0,0,0,.011-.154.61.61,0,0,0,0-.077.114.114,0,0,0-.024-.077m-.316.309a1.634,1.634,0,0,1-.07.342,1.039,1.039,0,0,1-.053.154,1.678,1.678,0,0,1-.07.154,2.145,2.145,0,0,1-1.926,1.165H150.071a2.156,2.156,0,0,1-1.929-1.165c-.024-.05-.046-.1-.066-.154s-.038-.1-.055-.154a1.87,1.87,0,0,1-.067-.342.555.555,0,0,1-.01-.077h80.418c0,.027,0,.053-.011.077" transform="translate(13.007 9.054)"/>
        <g id="Grupo_1214673" data-name="Grupo 1214673" transform="translate(92.645 84.318)" opacity="0.5">
          <g id="Grupo_1214672" data-name="Grupo 1214672">
            <g id="Grupo_1214671" data-name="Grupo 1214671" clip-path="url(#clip-path-6)">
              <rect id="Rectángulo_468143" data-name="Rectángulo 468143" width="66.77" height="72.681" transform="translate(160.113 55.804)" fill="#333"/>
              <rect id="Rectángulo_468144" data-name="Rectángulo 468144" width="48.414" height="6.193" transform="translate(165.807 64.316)" fill="#485e5c"/>
              <rect id="Rectángulo_468145" data-name="Rectángulo 468145" width="22.479" height="6.193" transform="translate(165.807 75.631)" fill="#485e5c"/>
              <rect id="Rectángulo_468146" data-name="Rectángulo 468146" width="22.479" height="6.193" transform="translate(178.775 86.946)" fill="#485e5c"/>
              <rect id="Rectángulo_468147" data-name="Rectángulo 468147" width="22.479" height="6.193" transform="translate(191.742 98.261)" fill="#485e5c"/>
              <rect id="Rectángulo_468148" data-name="Rectángulo 468148" width="22.479" height="6.193" transform="translate(165.807 110.495)" fill="#485e5c"/>
              <rect id="Rectángulo_468149" data-name="Rectángulo 468149" width="148.461" height="8.427" transform="translate(0 3.474)" fill="#02ffad"/>
              <rect id="Rectángulo_468150" data-name="Rectángulo 468150" width="89.049" height="8.427" transform="translate(0 22.903)" fill="#02ffad"/>
              <rect id="Rectángulo_468151" data-name="Rectángulo 468151" width="74.23" height="8.501" transform="translate(0 45.237)" fill="#02ffad"/>
              <rect id="Rectángulo_468152" data-name="Rectángulo 468152" width="74.23" height="8.501" transform="translate(89.049 45.237)" fill="#ff552b"/>
              <rect id="Rectángulo_468153" data-name="Rectángulo 468153" width="74.23" height="8.501" transform="translate(0 67.647)" fill="#02ffad"/>
              <rect id="Rectángulo_468154" data-name="Rectángulo 468154" width="74.23" height="8.501" transform="translate(0.752 112.466)" fill="#ff552b"/>
              <rect id="Rectángulo_468155" data-name="Rectángulo 468155" width="36.966" height="8.501" transform="translate(0.903 90.056)" fill="#02ffad"/>
              <rect id="Rectángulo_468156" data-name="Rectángulo 468156" width="8.61" height="105.957" transform="translate(16.623)" fill="#5b51e0"/>
              <path id="Trazado_1283244" data-name="Trazado 1283244" d="M230.579,102.916l16.471-8.13v2.347L233.171,103.8v.069l13.879,6.667v2.347l-16.471-8.13Z" transform="translate(-72.326 -80.272)" fill="#fff"/>
              <path id="Trazado_1283245" data-name="Trazado 1283245" d="M247.838,114.456l9.9-24.662h2.413l-9.939,24.662Z" transform="translate(-70.806 -80.485)" fill="#fff"/>
              <path id="Trazado_1283246" data-name="Trazado 1283246" d="M277.685,104.787l-16.471,8.1v-2.347l13.986-6.667V103.8l-13.986-6.667V94.786l16.471,8.1Z" transform="translate(-69.627 -80.272)" fill="#fff"/>
              <rect id="Rectángulo_468157" data-name="Rectángulo 468157" width="159.985" height="83.5" transform="translate(25.572 18.734)" fill="#aaa"/>
              <rect id="Rectángulo_468158" data-name="Rectángulo 468158" width="159.985" height="11.134" transform="translate(25.572 18.733)" fill="#333"/>
              <rect id="Rectángulo_468159" data-name="Rectángulo 468159" width="131.191" height="3.711" transform="translate(33.32 42.856)" fill="#333"/>
              <rect id="Rectángulo_468160" data-name="Rectángulo 468160" width="45.021" height="3.711" transform="translate(33.32 53.989)" fill="#333"/>
              <rect id="Rectángulo_468161" data-name="Rectángulo 468161" width="38.365" height="8.93" transform="translate(48.408 83.214)" fill="#333"/>
              <rect id="Rectángulo_468162" data-name="Rectángulo 468162" width="38.365" height="8.93" transform="translate(121.75 83.214)" fill="#ff552b"/>
              <rect id="Rectángulo_468163" data-name="Rectángulo 468163" width="68.5" height="3.711" transform="translate(33.319 64.079)" fill="#333"/>
            </g>
          </g>
        </g>
        <path id="Trazado_1283247" data-name="Trazado 1283247" d="M212.757,134.875q.85-.538,1.737-1.027H201.626a24.94,24.94,0,0,1,.911,14.851,7.676,7.676,0,0,0,8.74-1.989l1.936-2.242a6.926,6.926,0,0,0-.455-9.593m0,0q.85-.538,1.737-1.027H201.626a24.94,24.94,0,0,1,.911,14.851,7.676,7.676,0,0,0,8.74-1.989l1.936-2.242a6.926,6.926,0,0,0-.455-9.593m0,0q.85-.538,1.737-1.027H201.626a24.94,24.94,0,0,1,.911,14.851,7.676,7.676,0,0,0,8.74-1.989l1.936-2.242a6.926,6.926,0,0,0-.455-9.593m-.567,15.538a11.653,11.653,0,0,1,13.154-8.368,44.789,44.789,0,0,0-.665-6.023q-.194-1.1-.445-2.175A45.348,45.348,0,0,0,222.2,127.3a12.081,12.081,0,0,1-13.331-.617,11.041,11.041,0,0,1-1.5-1.329c-.21-.218-.406-.442-.6-.681l-1.373-1.7-1.53-1.9a10.782,10.782,0,0,1-1.552-11.092,11.084,11.084,0,0,1,2.917-3.983,49.87,49.87,0,0,0-13.82-6.771,11.5,11.5,0,0,1-11.793,9.882l-4.749-.083a12.06,12.06,0,0,1-4.4-.913,11.475,11.475,0,0,1-5.715-5.093,10.7,10.7,0,0,1-1.268-4.171c-.014-.1-.021-.195-.028-.292-.36.094-.721.191-1.078.292a49.676,49.676,0,0,0-10.277,4.171c-1.008.543-2,1.124-2.962,1.734a10.969,10.969,0,0,1,3.057,5.228,10.37,10.37,0,0,1,.267,1.466,10.816,10.816,0,0,1-2.613,8.3l-2.783,3.228-.242.278a11.483,11.483,0,0,1-2.406,2.1,11.652,11.652,0,0,1-2.758,1.329,12.168,12.168,0,0,1-7.63,0,11.691,11.691,0,0,1-2.752-1.329c-.039-.023-.074-.047-.109-.07-.011.023-.021.047-.032.07-.2.44-.388.883-.575,1.329a44.687,44.687,0,0,0-2.289,7.17c-.022.084-.039.168-.057.252q-.415,1.831-.668,3.711c-.1.681-.175,1.369-.238,2.059a11.889,11.889,0,0,1,10.529,4.319,10.884,10.884,0,0,1,1.905,3.57.984.984,0,0,1,.041.141c.077.254.144.513.2.778l.977,4.453a10.56,10.56,0,0,1,.213,3.127,10.969,10.969,0,0,1-3.386,7.066,11.687,11.687,0,0,1-4.923,2.8,46.8,46.8,0,0,0,4.068,6.124,47.7,47.7,0,0,0,5.437,5.861,11.948,11.948,0,0,1,15.088-4.016l4.244,2.044a11.282,11.282,0,0,1,5.729,6.2,10.7,10.7,0,0,1-.161,7.965,51.731,51.731,0,0,0,15.7.346,10.707,10.707,0,0,1,.407-8.311,11.382,11.382,0,0,1,5.718-5.5l4.31-1.9a12.073,12.073,0,0,1,9.261-.209,11.493,11.493,0,0,1,5.767,4.856,48.324,48.324,0,0,0,7.118-7.328q.845-1.078,1.621-2.2c.466-.661.906-1.339,1.334-2.024a11.676,11.676,0,0,1-4.307-2.566,11.073,11.073,0,0,1-1.771-2.138,10.732,10.732,0,0,1-1.383-8.493Zm-35.859,18.119a27.867,27.867,0,0,1-8.134-1.2,27.226,27.226,0,0,1-8.088-4.006,26.328,26.328,0,0,1-6.713-7.066,25.086,25.086,0,0,1-3.456-8.358c-.008-.047-.017-.094-.028-.141a24.913,24.913,0,0,1-.469-3.57c-.028-.483-.042-.973-.042-1.463a24.877,24.877,0,0,1,1.544-8.626c.028-.084.06-.168.091-.252a25.554,25.554,0,0,1,4.206-7.17c.133-.165.269-.326.412-.484a25.908,25.908,0,0,1,3.355-3.227,27.823,27.823,0,0,1,34.644,0,25.886,25.886,0,0,1,2.588,2.382c.41.43.8.873,1.181,1.329a25.578,25.578,0,0,1,4.2,7.17,24.94,24.94,0,0,1,.911,14.851,25.075,25.075,0,0,1-3.7,8.2,27.211,27.211,0,0,1-22.508,11.636m36.426-33.657q.85-.538,1.737-1.027H201.626a24.94,24.94,0,0,1,.911,14.851,7.676,7.676,0,0,0,8.74-1.989l1.936-2.242a6.926,6.926,0,0,0-.455-9.593m0,0q.85-.538,1.737-1.027H201.626a24.94,24.94,0,0,1,.911,14.851,7.676,7.676,0,0,0,8.74-1.989l1.936-2.242a6.926,6.926,0,0,0-.455-9.593m0,0q.85-.538,1.737-1.027H201.626a24.94,24.94,0,0,1,.911,14.851,7.676,7.676,0,0,0,8.74-1.989l1.936-2.242a6.926,6.926,0,0,0-.455-9.593" transform="translate(11.219 4.207)" fill="#ffb758"/>
        <path id="Trazado_1283248" data-name="Trazado 1283248" d="M247.3,162.766a6.939,6.939,0,0,1,.959-2.154,7.594,7.594,0,0,1,7.456-3.2,28.477,28.477,0,0,0-.284-2.993,28.991,28.991,0,0,0-1.243-5.124c-.152-.446-.317-.883-.489-1.319a7.674,7.674,0,0,1-9.867-1.681l-1.855-2.3a6.577,6.577,0,0,1-.536-.761,6.923,6.923,0,0,1,1.146-8.64c.085-.084.171-.165.262-.242a31.913,31.913,0,0,0-8.841-4.334,6.868,6.868,0,0,1-.8,2.51,7.511,7.511,0,0,1-6.742,3.811l-3.036-.053a7.6,7.6,0,0,1-4.536-1.584A7.2,7.2,0,0,1,217,132.524a6.879,6.879,0,0,1-.875-2.939,32.1,32.1,0,0,0-7.424,2.939q-.886.488-1.736,1.026a6.928,6.928,0,0,1,.455,9.593l-1.937,2.242a7.676,7.676,0,0,1-8.74,1.989,7.576,7.576,0,0,1-1.275-.688,28.929,28.929,0,0,0-2.421,8.885c-.018.148-.033.3-.047.45a7.434,7.434,0,0,1,8.114,5.634l.075.345.546,2.5a6.932,6.932,0,0,1-1.932,6.425,7.5,7.5,0,0,1-3.245,1.892c.108.194.218.389.333.581a30.5,30.5,0,0,0,5.75,7.086,7.64,7.64,0,0,1,9.653-2.57l2.713,1.309a7.413,7.413,0,0,1,2.364,1.791,6.915,6.915,0,0,1,1.2,7.271,33.09,33.09,0,0,0,10.049.218,6.939,6.939,0,0,1,1.86-7.489,7.378,7.378,0,0,1,2.054-1.345l2.759-1.222c.15-.067.3-.127.456-.185a7.649,7.649,0,0,1,8.9,2.752c.087.131.174.269.256.407.16-.135.319-.269.479-.407a30.69,30.69,0,0,0,5.963-6.982,7.1,7.1,0,0,1-4.772-8.443Zm-11.551,7.472c-.284.242-.579.473-.88.691a17.817,17.817,0,0,1-21.018,0,16.92,16.92,0,0,1-2.452-2.2,16.448,16.448,0,0,1-2.973-4.59,15.8,15.8,0,0,1-1.295-6.292c0-9.116,7.713-16.508,17.227-16.508a17.615,17.615,0,0,1,11.39,4.121,16.272,16.272,0,0,1,5.692,10.24,15.564,15.564,0,0,1,0,4.3,16.275,16.275,0,0,1-5.692,10.24" transform="translate(17.007 5.532)" fill="#fff"/>
        <path id="Trazado_1283249" data-name="Trazado 1283249" d="M256.722,225.087c0,.123,0,.251.005.374a5.049,5.049,0,0,0,.089.776.757.757,0,0,0,.111.172c.164.19,5.4.351,11.523.48,6.651.143,17.827.31,21.215.348,1.1.015,1.752.019,1.752.019l.4-18.148s-14.556.08-15.674,0c0,0-2,6.636-3.749,7.314a11.46,11.46,0,0,1-3.078.622c-.062-.006-.128-.007-.19-.008a17.271,17.271,0,0,0-4.541.5c-4.536,1.128-7.785,4.055-7.863,7.552" transform="translate(22.622 8.928)" fill="#6998ff"/>
        <path id="Trazado_1283250" data-name="Trazado 1283250" d="M286.581,223.994a7.2,7.2,0,0,0,.453,2.793c1.1.014,1.752.019,1.752.019l.158-7.164c-1.25-.025-2.309,1.922-2.362,4.352" transform="translate(25.253 9.377)" fill="#c7cbcc"/>
        <path id="Trazado_1283251" data-name="Trazado 1283251" d="M271.938,216.011l-.066-.524a24.726,24.726,0,0,1,4.989-.058l-.062.524a24.74,24.74,0,0,0-4.861.058" transform="translate(23.957 9.193)" fill="#fff"/>
        <path id="Trazado_1283330" data-name="Trazado 1283330" d="M0,0,3.566.064l.01.546L.01.546Z" transform="matrix(0.475, -0.88, 0.88, 0.475, 294.201, 227.791)" fill="#fff"/>
        <path id="Trazado_1283252" data-name="Trazado 1283252" d="M304.717,122.615l-13.439,99.368c-8.41-2.412-13.527.545-20.29-2.114l7.828-99.782Z" transform="translate(23.879 5.127)" fill="#7a4806"/>
        <path id="Trazado_1283334" data-name="Trazado 1283334" d="M0,0,5.774,0l.011,14.546-5.774,0Z" transform="matrix(0.009, -1, 1, 0.009, 331.257, 225.467)" fill="#aad4ca"/>
        <path id="Trazado_1283253" data-name="Trazado 1283253" d="M321.912,225.2l-2.747-8.516a6.252,6.252,0,0,0-5.874-3.968l-2.621-.074c-3.507-.1-6.447,2.312-6.567,5.381l-1.055,7.468c-.12,3.07,3.454,3.953,6.961,4.051l4.823.135c4.334.121,8.311-.838,7.081-4.476" transform="translate(26.704 9.078)" fill="#6998ff"/>
        <path id="Trazado_1283254" data-name="Trazado 1283254" d="M305.254,221.06l-.4-.43a26.475,26.475,0,0,1,12.031-5.565l.123.564a25.855,25.855,0,0,0-11.754,5.43" transform="translate(26.863 9.182)" fill="#fff"/>
        <path id="Trazado_1283255" data-name="Trazado 1283255" d="M318.906,221.648a25.441,25.441,0,0,0-11.449-5.875l.134-.561a26.053,26.053,0,0,1,11.726,6.015Z" transform="translate(27.093 9.188)" fill="#fff"/>
        <path id="Trazado_1283256" data-name="Trazado 1283256" d="M322.608,220.6c-6.824-1.63-9.146,4.983-20.471,1.468l-8.984-100.013,25.991-1.472Z" transform="translate(25.832 5.148)" fill="#7a4806"/>
        <path id="Trazado_1283257" data-name="Trazado 1283257" d="M297.348,164.745l-3.617-35.881-5.062-.529.015-.127,5.169.541,0,.051,3.622,35.932Z" transform="translate(25.437 5.474)"/>
        <path id="Trazado_1283258" data-name="Trazado 1283258" d="M303.6,65.052l-14.2,2.807-.194-12.049,9.6-1.9Z" transform="translate(25.484 2.302)" fill="#f5b297"/>
        <path id="Trazado_1283259" data-name="Trazado 1283259" d="M289.4,67.838A70.956,70.956,0,0,1,298.283,54.4L289.2,55.79Z" transform="translate(25.484 2.323)" fill="#d19881"/>
        <path id="Trazado_1283260" data-name="Trazado 1283260" d="M285.508,47.891c0,.636-1.04,1.151-2.323,1.151s-2.322-.515-2.322-1.151,1.039-1.151,2.322-1.151,2.323.515,2.323,1.151" transform="translate(24.749 1.995)"/>
        <path id="Trazado_1283261" data-name="Trazado 1283261" d="M284.285,56.554a2.966,2.966,0,0,1-2.635-2.157,3.163,3.163,0,0,1,.025-2.16,2.153,2.153,0,0,1,1.371-1.317,2.28,2.28,0,0,1,1.913.317,3.312,3.312,0,0,1,1.321,1.752,3.163,3.163,0,0,1-.025,2.16,2.158,2.158,0,0,1-1.371,1.317,2.029,2.029,0,0,1-.6.089m-.637-5.6a1.908,1.908,0,0,0-.563.083,2.029,2.029,0,0,0-1.287,1.241,3.047,3.047,0,0,0-.023,2.077,2.661,2.661,0,0,0,3.067,1.986A2.031,2.031,0,0,0,286.13,55.1a3.047,3.047,0,0,0,.023-2.077,3.181,3.181,0,0,0-1.269-1.684,2.283,2.283,0,0,0-1.236-.386" transform="translate(24.803 2.17)"/>
        <path id="Trazado_1283262" data-name="Trazado 1283262" d="M298.927,55.019l-.067.107a14.933,14.933,0,0,1-2.215,2.74c-8.292,8.35-12.151-1.615-13.832-9.56q-.08-.378-.153-.749c-.35-1.766-.594-3.4-.754-4.654a6.449,6.449,0,0,1,1.44-1.157c.147-.089.3-.17.455-.246a14.293,14.293,0,0,1,5.581-1.541c6.233.259,9.941,5.242,11.245,9.25a10.058,10.058,0,0,1-1.7,5.81" transform="translate(24.841 1.706)" fill="#f5b297"/>
        <path id="Trazado_1283263" data-name="Trazado 1283263" d="M282.5,46.74l1.087,8.68.559,4.095,2.83-.98Z" transform="translate(24.894 1.995)" fill="#f5b297"/>
        <path id="Trazado_1283264" data-name="Trazado 1283264" d="M287.14,55.648A2.967,2.967,0,0,1,284.5,53.49a2.63,2.63,0,0,1,1.4-3.477,2.789,2.789,0,0,1,3.234,2.069,2.632,2.632,0,0,1-1.4,3.478,2.057,2.057,0,0,1-.6.089m-.641-5.6a1.937,1.937,0,0,0-.559.082,2.507,2.507,0,0,0-1.31,3.318,2.659,2.659,0,0,0,3.067,1.987,2.509,2.509,0,0,0,1.31-3.319,2.835,2.835,0,0,0-2.508-2.069" transform="translate(25.054 2.131)"/>
        <path id="Trazado_1283265" data-name="Trazado 1283265" d="M288.088,51.032l-.046-.12,6.531-2.275.046.12Z" transform="translate(25.382 2.076)"/>
        <path id="Trazado_1283266" data-name="Trazado 1283266" d="M284.973,51.807l-.064-.072a.2.2,0,0,1,.036-.3,4.7,4.7,0,0,1,2.5-.886.21.21,0,0,1,.211.222l-.005.09a.215.215,0,0,1-.209.2,4.228,4.228,0,0,0-2.182.785.224.224,0,0,1-.292-.035" transform="translate(25.101 2.158)"/>
        <path id="Trazado_1283267" data-name="Trazado 1283267" d="M286.747,53.664c.111.185.1.392-.033.464s-.324-.021-.435-.205-.1-.392.033-.463.324.02.435.2" transform="translate(25.22 2.281)"/>
        <path id="Trazado_1283268" data-name="Trazado 1283268" d="M299.6,54.509s-1.632-7.353-5.775-5.959-1.489-1.843-6.977-1.52a8.113,8.113,0,0,0-2.535.528,5.926,5.926,0,0,0-1.134.6q-.111.077-.215.153c-.452.339-2.421,1.467-2.58.733a6.893,6.893,0,0,1,1.672-6.134,6.453,6.453,0,0,1,1.44-1.158c.147-.089.3-.169.455-.245a14.278,14.278,0,0,1,5.581-1.542,11.054,11.054,0,0,1,11.288,9.251,10.017,10.017,0,0,1-1.22,5.3" transform="translate(24.693 1.706)"/>
        <path id="Trazado_1283269" data-name="Trazado 1283269" d="M298.263,49.762a2.774,2.774,0,1,1-2.771-2.656,2.715,2.715,0,0,1,2.771,2.656" transform="translate(25.794 2.011)" fill="#f5b297"/>
        <path id="Trazado_1283270" data-name="Trazado 1283270" d="M294,48.509l-.047-.119a3.664,3.664,0,0,1,2.634.005l-.07.108a3.6,3.6,0,0,0-2.518.005" transform="translate(25.903 2.055)"/>
        <path id="Trazado_1283271" data-name="Trazado 1283271" d="M289.108,58.067l.339-.3.351-.287c.236-.189.481-.366.721-.549s.493-.351.747-.517l.382-.247.395-.233.112.141a2.952,2.952,0,0,1,.011,1.475,1.459,1.459,0,0,1-.529.793,1.534,1.534,0,0,1-.937.276,3.264,3.264,0,0,1-1.482-.411Z" transform="translate(25.476 2.388)" fill="#fff"/>
        <path id="Trazado_1283272" data-name="Trazado 1283272" d="M253.134,97.12c0,.7,1.372,1.277,3.064,1.277s3.064-.572,3.064-1.277-1.371-1.277-3.064-1.277-3.064.572-3.064,1.277" transform="translate(22.306 4.092)" fill="#f5b297"/>
        <path id="Trazado_1283273" data-name="Trazado 1283273" d="M258.441,96.722a39.752,39.752,0,0,0-4.905-.174c-1.609.036-3.2.152-4.764.331a12.553,12.553,0,0,0-2.224.329c-.842.172-1.09.455-1.135,1.033-.061.811.984,1.333,1.853,1.211a14.476,14.476,0,0,0,1.985-.025c.376-.02,7.441,1.159,7.441,1.159s8.247,1.283,9.62,1.476c2.819.4-2.346.714-2.089-1.246a2.043,2.043,0,0,0,.705-.727c.553-.974-.01-1.568-1.169-2.089l-.371-.165c-.124-.054-.25-.109-.366-.149-.233-.083-.477-.176-.7-.237s-.457-.138-.676-.189-.444-.112-.659-.152a23.933,23.933,0,0,0-2.547-.388" transform="translate(21.625 4.121)" fill="#f5b297"/>
        <path id="Trazado_1283274" data-name="Trazado 1283274" d="M324.637,125.17c-16.378,3.232-32.759,8.374-49.137,2.461,2.8-16.3,3.745-52.345,3.745-52.345a6.674,6.674,0,0,1,4.767-6.311L312,60.162l6.751,18.325s4.233,29.932,5.891,46.682" transform="translate(24.277 2.569)" fill="#fbdb4a"/>
        <path id="Trazado_1283275" data-name="Trazado 1283275" d="M277.93,114.446a6.822,6.822,0,0,1-3.569-1L255.744,102l7.137-10.664,11.035,6.781,7.207-25.382,12.756,3.326-9.571,33.71a6.436,6.436,0,0,1-4,4.248,6.858,6.858,0,0,1-2.374.423" transform="translate(22.536 3.105)" fill="#fbdb4a"/>
        <path id="Trazado_1283276" data-name="Trazado 1283276" d="M276.484,115.933l-.121-.052c2.519-5.352,4.121-36.533,4.137-36.848l.133.006c-.016.315-1.619,31.52-4.149,36.894" transform="translate(24.353 3.374)"/>
        <path id="Trazado_1283277" data-name="Trazado 1283277" d="M311.873,83.259l-.1-.081,6.973-8.032.1.081Z" transform="translate(27.473 3.208)"/>
        <path id="Trazado_1283278" data-name="Trazado 1283278" d="M306.286,37.937l-6.658-2.554-.291-.111a1.5,1.5,0,0,0-1.724.477L293.707,40.9a1.4,1.4,0,0,0,.331,2,1.558,1.558,0,0,0,1.136.252l4.858-.813a1.44,1.44,0,0,0,1.217-1.658c-.141-.779,1.991,1.827,1.991,1.827a2.97,2.97,0,0,0,4.073-.118,2.68,2.68,0,0,0-.123-3.9,2.948,2.948,0,0,0-.9-.553" transform="translate(25.856 1.502)" fill="#f5b297"/>
        <path id="Trazado_1283279" data-name="Trazado 1283279" d="M307.449,39.067a2.94,2.94,0,0,0-.9-.553l-6.659-2.554-.289-.111a1.5,1.5,0,0,0-1.724.477l-3.906,5.151a1.394,1.394,0,0,0,.331,2,1.548,1.548,0,0,0,1.136.252l4.858-.812a1.44,1.44,0,0,0,1.221-1.623l1.987,1.792a2.971,2.971,0,0,0,4.073-.118,2.681,2.681,0,0,0-.123-3.9" transform="translate(25.879 1.526)" fill="#f5b297"/>
        <path id="Trazado_1283280" data-name="Trazado 1283280" d="M294.263,43.532a1.479,1.479,0,0,1-.625-.977,1.437,1.437,0,0,1,.28-1.114l3.905-5.151a1.568,1.568,0,0,1,1.8-.5l.289.112-.049.118-.289-.111a1.427,1.427,0,0,0-1.646.455l-3.905,5.151a1.313,1.313,0,0,0-.256,1.019,1.351,1.351,0,0,0,.571.894Z" transform="translate(25.873 1.524)"/>
        <path id="Trazado_1283281" data-name="Trazado 1283281" d="M300.815,42.314l-.092-.091c.533-.5.6-.994.215-1.469a1.456,1.456,0,0,0-1.38-.468l-3.013.517-.023-.125,3.012-.517a1.59,1.59,0,0,1,1.507.514,1.086,1.086,0,0,1-.226,1.639" transform="translate(26.129 1.714)"/>
        <path id="Trazado_1283282" data-name="Trazado 1283282" d="M300.509,67.14l25.773-17.506,1.468,10.974L299.419,45.766l5.771-10.689L334.2,48.661a6.452,6.452,0,0,1,3.151,8.791,6.571,6.571,0,0,1-.995,1.437l-.689.747-20.89,22.709Z" transform="translate(26.384 1.498)" fill="#fbdb4a"/>
        <rect id="Rectángulo_468167" data-name="Rectángulo 468167" width="49.015" height="2.999" transform="translate(267.698 98.991)" fill="#2b0045"/>
        <path id="Trazado_1283283" data-name="Trazado 1283283" d="M276.929,99.038H242.254a2.615,2.615,0,0,1-2.669-2.559V69.147h37.344Z" transform="translate(21.112 2.952)" fill="#510082"/>
        <path id="Trazado_1283284" data-name="Trazado 1283284" d="M254.962,80.124a2.174,2.174,0,1,1,2.267-2.172,2.223,2.223,0,0,1-2.267,2.172m0-4.1a1.93,1.93,0,1,0,2.013,1.929,1.975,1.975,0,0,0-2.013-1.929" transform="translate(22.267 3.235)" fill="#fff"/>
        <path id="Trazado_1283285" data-name="Trazado 1283285" d="M246.016,94.975l-1.094,2.736a1.462,1.462,0,0,0,.9,1.922,1.6,1.6,0,0,0,2.023-.882,1.563,1.563,0,0,0,.081-.279l.521-2.881a1.2,1.2,0,0,0-1.034-1.389,1.293,1.293,0,0,0-1.4.774" transform="translate(21.573 4.021)" fill="#f5b297"/>
        <path id="Trazado_1283286" data-name="Trazado 1283286" d="M248.321,95.426l-1.094,2.736a1.462,1.462,0,0,0,.9,1.922,1.6,1.6,0,0,0,2.023-.882,1.565,1.565,0,0,0,.081-.279l.521-2.881a1.2,1.2,0,0,0-1.034-1.389,1.293,1.293,0,0,0-1.4.774" transform="translate(21.776 4.04)" fill="#f5b297"/>
        <path id="Trazado_1283287" data-name="Trazado 1283287" d="M250.5,95.341l-1.094,2.736a1.462,1.462,0,0,0,.9,1.922,1.605,1.605,0,0,0,2.023-.882,1.565,1.565,0,0,0,.081-.279l.521-2.881a1.2,1.2,0,0,0-1.034-1.389,1.293,1.293,0,0,0-1.4.774" transform="translate(21.968 4.037)" fill="#f5b297"/>
        <path id="Trazado_1283288" data-name="Trazado 1283288" d="M252.934,94.989l-1.052,2.746a1.252,1.252,0,0,0,.8,1.635,1.375,1.375,0,0,0,1.721-.778,1.433,1.433,0,0,0,.059-.206l.563-2.871a1.029,1.029,0,0,0-.868-1.2,1.107,1.107,0,0,0-1.22.674" transform="translate(22.188 4.026)" fill="#f5b297"/>
        <path id="Trazado_1283289" data-name="Trazado 1283289" d="M252.325,98.264l-.132-.018.38-2.642.132.017Z" transform="translate(22.223 4.082)"/>
        <path id="Trazado_1283290" data-name="Trazado 1283290" d="M249.688,98.871l-.129-.027.738-3.262.129.027Z" transform="translate(21.991 4.081)"/>
        <path id="Trazado_1283331" data-name="Trazado 1283331" d="M0,0,3.29.04l0,.133L0,.133Z" transform="matrix(0.294, -0.956, 0.956, 0.294, 268.838, 102.696)"/>
        <path id="Trazado_1283291" data-name="Trazado 1283291" d="M101.923,139.828h-13.5l3.2-12.432h7.1Z" transform="translate(7.792 5.439)" fill="#f5b297"/>
        <path id="Trazado_1283292" data-name="Trazado 1283292" d="M88.425,139.674s6.954-6.886,11.31-8.5l-9.068-.2Z" transform="translate(7.792 5.592)" fill="#d19881"/>
        <path id="Trazado_1283293" data-name="Trazado 1283293" d="M104.135,125.375c0,5.77-3.837,10.448-8.569,10.448S87,131.145,87,125.375s3.837-10.448,8.57-10.448,8.569,4.678,8.569,10.448" transform="translate(7.666 4.907)"/>
        <path id="Trazado_1283294" data-name="Trazado 1283294" d="M97.705,114.495a2.627,2.627,0,1,1-2.625-2.515,2.572,2.572,0,0,1,2.625,2.515" transform="translate(8.147 4.781)"/>
        <path id="Trazado_1283295" data-name="Trazado 1283295" d="M92.1,128.793c.314-.026.629-.046.943-.055s.628-.01.942-.016.629,0,.943.017.629.028.942.054v.143a2.682,2.682,0,0,1-.942.952,1.912,1.912,0,0,1-.943.263,1.869,1.869,0,0,1-.942-.26,2.68,2.68,0,0,1-.943-.955Z" transform="translate(8.116 5.496)" fill="#fff"/>
        <path id="Trazado_1283296" data-name="Trazado 1283296" d="M100.631,119.15a19.387,19.387,0,0,0-2.119.371,14.844,14.844,0,0,1-6.033,0,19.387,19.387,0,0,0-2.119-.371c-1.447,0-2.619,2.075-2.619,4.635s1.172,4.635,2.619,4.635c.26,0,1.276-.18,2.337-.384a14.893,14.893,0,0,1,5.6,0c1.061.2,2.077.384,2.337.384,1.447,0,2.62-2.075,2.62-4.635s-1.173-4.635-2.62-4.635" transform="translate(7.732 5.087)" fill="#f5b297"/>
        <path id="Trazado_1283297" data-name="Trazado 1283297" d="M97.882,124.394a.654.654,0,0,1-.727.56.641.641,0,0,1-.584-.7.654.654,0,0,1,.727-.56.639.639,0,0,1,.584.7" transform="translate(8.509 5.281)"/>
        <path id="Trazado_1283298" data-name="Trazado 1283298" d="M92.812,124.452a.653.653,0,0,1-.727.56.638.638,0,0,1-.583-.7.653.653,0,0,1,.726-.56.639.639,0,0,1,.584.7" transform="translate(8.063 5.283)"/>
        <path id="Trazado_1283299" data-name="Trazado 1283299" d="M95.724,127.022h-1.9l.827-3.831.122.024-.8,3.688h1.749Z" transform="translate(8.267 5.259)"/>
        <path id="Trazado_1283300" data-name="Trazado 1283300" d="M90.956,121.75l-.085-.087a2,2,0,0,1,2.029-.4l-.058.105a1.879,1.879,0,0,0-1.887.38" transform="translate(8.007 5.171)"/>
        <path id="Trazado_1283301" data-name="Trazado 1283301" d="M98.3,121.75a1.876,1.876,0,0,0-1.887-.38l-.058-.105a2.005,2.005,0,0,1,2.029.4Z" transform="translate(8.491 5.171)"/>
        <path id="Trazado_1283302" data-name="Trazado 1283302" d="M104.165,122.295a1.933,1.933,0,0,1-1.944,1.85,1.885,1.885,0,0,1-1.4-2.257,1.933,1.933,0,0,1,1.944-1.85,1.883,1.883,0,0,1,1.4,2.257" transform="translate(8.882 5.124)" fill="#f5b297"/>
        <path id="Trazado_1283332" data-name="Trazado 1283332" d="M0,0,.121,0,.145,1.184l-.121,0Z" transform="translate(111.209 125.796) rotate(-53.151)"/>
        <path id="Trazado_1283303" data-name="Trazado 1283303" d="M85.664,122.295a1.933,1.933,0,0,0,1.944,1.85,1.885,1.885,0,0,0,1.4-2.257,1.933,1.933,0,0,0-1.944-1.85,1.883,1.883,0,0,0-1.4,2.257" transform="translate(7.547 5.124)" fill="#f5b297"/>
        <path id="Trazado_1283333" data-name="Trazado 1283333" d="M0,0,1.181.024l0,.121L0,.121Z" transform="translate(94.015 126.393) rotate(-37.172)"/>
        <path id="Trazado_1283304" data-name="Trazado 1283304" d="M125.049,202.395H68.713v-45c0-10.688,9.041-19.351,20.194-19.351h15.947c11.153,0,20.194,8.664,20.194,19.351Z" transform="translate(6.055 5.894)" fill="#f5b297"/>
        <path id="Trazado_1283305" data-name="Trazado 1283305" d="M104.855,138.048h-1.322l-6.652,14.534-6.365-14.534H88.907c-11.153,0-20.194,8.664-20.194,19.351v45h56.336v-45c0-10.688-9.041-19.351-20.194-19.351" transform="translate(6.055 5.894)" fill="#ffb758"/>
        <path id="Trazado_1283306" data-name="Trazado 1283306" d="M136.34,192.9l-.282-.753-16.131-42.988-12.685,5.81,5.468,24.863,19.4,8.012-4.537,3.818a6.044,6.044,0,0,0,.952.478c.943.376,2.122.3,2.907,1.054.314.225.551.376,1.022.678,1.537,1.031,2.874,2.03,4.25,3.038a7.554,7.554,0,0,0-.368-4.01" transform="translate(9.45 6.368)" fill="#ffb758"/>
        <path id="Trazado_1283307" data-name="Trazado 1283307" d="M128.544,186.141l-15.378-5.8.045-.111,15.379,5.8Z" transform="translate(9.972 7.695)"/>
        <path id="Trazado_1283308" data-name="Trazado 1283308" d="M121.557,199l-13.616-9.222.072-.1,13.616,9.222Z" transform="translate(9.512 8.098)"/>
        <path id="Trazado_1283309" data-name="Trazado 1283309" d="M117.363,181.507l-2.174-21.132.123-.011,2.175,21.132Z" transform="translate(10.15 6.846)"/>
        <path id="Trazado_1283310" data-name="Trazado 1283310" d="M120.557,180.9l12.313,5.728-13.176,8.932Z" transform="translate(10.547 7.723)" fill="#ffb758"/>
        <path id="Trazado_1283311" data-name="Trazado 1283311" d="M78.961,189.52v1.654l.679-.474Z" transform="translate(6.958 8.091)" fill="#f65930"/>
        <path id="Trazado_1283312" data-name="Trazado 1283312" d="M55.152,192.9l.282-.753,16.131-42.988,17.3,6.257-10.08,24.416-19.4,8.012,4.537,3.818a6,6,0,0,1-.952.478c-.943.376-2.122.3-2.907,1.054-.314.225-.551.376-1.022.678-1.538,1.031-2.874,2.03-4.25,3.038a7.554,7.554,0,0,1,.368-4.01" transform="translate(4.817 6.368)" fill="#ffb758"/>
        <path id="Trazado_1283313" data-name="Trazado 1283313" d="M62.155,186.1l-.045-.112,13.321-4.838.044.112Z" transform="translate(5.473 7.734)"/>
        <path id="Trazado_1283314" data-name="Trazado 1283314" d="M69.268,198.581l-.073-.1L80.464,190.6l.073.1Z" transform="translate(6.097 8.138)"/>
        <path id="Trazado_1283315" data-name="Trazado 1283315" d="M72.125,181.507,72,181.5l2.174-21.132.124.011Z" transform="translate(6.345 6.846)"/>
        <path id="Trazado_1283316" data-name="Trazado 1283316" d="M69.423,194.286l-11.187-7.648c.331,0,13.591-6,13.591-6Z" transform="translate(5.132 7.712)" fill="#ffb758"/>
        <path id="Trazado_1283317" data-name="Trazado 1283317" d="M56.195,187.97l39.073,7.114,42.009-7.362-2.289,8.9-45.368,6.258L58.9,192.23Z" transform="translate(4.952 8.015)" fill="#69abf7"/>
        <rect id="Rectángulo_468171" data-name="Rectángulo 468171" width="47.236" height="29.78" transform="translate(78.253 174.284)" fill="#510082"/>
        <path id="Trazado_1283318" data-name="Trazado 1283318" d="M93.826,178.546a2.425,2.425,0,1,1,2.529-2.423,2.481,2.481,0,0,1-2.529,2.423m0-4.324a1.9,1.9,0,1,0,1.985,1.9,1.946,1.946,0,0,0-1.985-1.9" transform="translate(8.045 7.416)" fill="#fff"/>
        <path id="Trazado_1283319" data-name="Trazado 1283319" d="M67.47,206.266l20.331.877-1.438,13.84-17.719,1.2Z" transform="translate(5.945 8.806)" fill="#f5b297"/>
        <path id="Trazado_1283320" data-name="Trazado 1283320" d="M69.883,214.342a13.187,13.187,0,0,1,1.461-8.383,28.037,28.037,0,0,0-6.438-.786c-2.386-.091-4.392,1.574-4.134,3.434l1.868,13.451c.257,1.848,2.622,2.947,4.9,2.287a22.894,22.894,0,0,0,5.793-2.533,13.556,13.556,0,0,1-3.447-7.469" transform="translate(5.353 8.759)"/>
        <path id="Trazado_1283321" data-name="Trazado 1283321" d="M68.559,222.759c-2.968.378-5.915-3.2-6.581-7.994s1.2-8.988,4.17-9.367,5.914,3.2,6.58,8-1.2,8.987-4.169,9.365" transform="translate(5.45 8.768)"/>
        <path id="Trazado_1283322" data-name="Trazado 1283322" d="M73.025,202.6l62.232-14.716a11.329,11.329,0,0,1,13.666,7.911l1.135,4.407a10.946,10.946,0,0,1-8.211,13.271L78.436,223.606c-6.054,1.432-11.463-19.576-5.41-21.007" transform="translate(6.202 8.008)" fill="#6998ff"/>
        <path id="Trazado_1283323" data-name="Trazado 1283323" d="M123.7,222.85,103.486,220.6l2.453-13.708H123.7Z" transform="translate(9.119 8.833)" fill="#f5b297"/>
        <path id="Trazado_1283324" data-name="Trazado 1283324" d="M121.173,214.8a13.229,13.229,0,0,1-2.074,8.263,27.961,27.961,0,0,0,6.363,1.22c2.374.251,4.5-1.275,4.376-3.146l-.874-13.544c-.12-1.86-2.4-3.117-4.716-2.612a23.049,23.049,0,0,0-5.965,2.134,13.471,13.471,0,0,1,2.889,7.684" transform="translate(10.423 8.747)"/>
        <path id="Trazado_1283325" data-name="Trazado 1283325" d="M123.029,206.417c2.989-.177,5.664,3.592,5.976,8.42s-1.86,8.884-4.849,9.06-5.664-3.592-5.975-8.419,1.858-8.884,4.848-9.061" transform="translate(10.411 8.812)"/>
        <path id="Trazado_1283326" data-name="Trazado 1283326" d="M116.632,225.412l-62.965-11.5a10.853,10.853,0,0,1-8.976-12.653l.887-4.459a11.429,11.429,0,0,1,13.24-8.781l62.042,16.14c6.125,1.119,1.9,22.373-4.228,21.254" transform="translate(3.92 8.019)" fill="#6998ff"/>
        <path id="Trazado_1283327" data-name="Trazado 1283327" d="M121.812,214.313l-.12-.03a11.792,11.792,0,0,0-1.187-9.255L65.741,190.346l.034-.115,54.809,14.695.013.018a11.881,11.881,0,0,1,1.215,9.37" transform="translate(5.793 8.122)"/>
        <path id="Trazado_1283328" data-name="Trazado 1283328" d="M93.813,220.374l-40.9-7.471.024-.117,40.9,7.471Z" transform="translate(4.663 9.085)"/>
        <path id="Trazado_1283329" data-name="Trazado 1283329" d="M92.115,197.9l-.03-.116,22.975-5.469.029.116Z" transform="translate(8.114 8.211)"/>
      </g>
    </g>
  </g>
</svg>
