<svg xmlns="http://www.w3.org/2000/svg" xmlns:xlink="http://www.w3.org/1999/xlink" width="69.323" height="69.323" viewBox="0 0 69.323 69.323">
  <defs>
    <clipPath id="clip-path">
      <rect id="Rectángulo_467925" data-name="Rectángulo 467925" width="32.632" height="45" fill="#fff"/>
    </clipPath>
  </defs>
  <g id="Grupo_1214632" data-name="Grupo 1214632" transform="translate(-304.711 -1637)">
    <path id="Trazado_1033543" data-name="Trazado 1033543" d="M0,0H69.323V69.323H0Z" transform="translate(304.711 1637)" fill="#0f654d"/>
    <g id="Grupo_1214622" data-name="Grupo 1214622" transform="translate(325.071 1651.87)">
      <g id="Grupo_1214621" data-name="Grupo 1214621" transform="translate(-2.36 -2.87)" clip-path="url(#clip-path)">
        <path id="Trazado_1283032" data-name="Trazado 1283032" d="M32.617,41.067a3.921,3.921,0,0,1-3.852,3.914L4.149,45A3.983,3.983,0,0,1,0,41.122L0,3.854A3.834,3.834,0,0,1,3.558.053L22.519,0V6.358a4.06,4.06,0,0,0,3.734,3.727l6.379,0ZM10.682,20.615a.845.845,0,0,0,1.117.106.869.869,0,0,0,.09-1.166L9.271,16.066l2.6-3.472a.858.858,0,0,0-.069-1.161.822.822,0,0,0-1.147.1L7.617,15.6A.954.954,0,0,0,7.7,16.644Zm11.287-.039,3.088-4.125c.188-.251,0-.8-.183-1.042l-2.923-3.874a.814.814,0,0,0-1.143-.1.852.852,0,0,0-.068,1.16l2.6,3.473-2.618,3.489a.866.866,0,0,0,.088,1.164.84.84,0,0,0,1.154-.143m-5.474-.927,1.221-6.964a.813.813,0,0,0-.673-.935.892.892,0,0,0-.887.578L14.91,19.338a.816.816,0,0,0,.667,1.026.829.829,0,0,0,.918-.716m-.082,5.287a.947.947,0,0,0,.693-.957.863.863,0,0,0-.87-.671l-12.514.009c-.47,0-.737.566-.666.939a.958.958,0,0,0,.8.676Zm12.229,4.832a.986.986,0,0,0,.917-.655c.085-.262-.137-.955-.532-.955H3.584c-.457,0-.645.785-.485,1.081a1.135,1.135,0,0,0,.927.528Zm.308,4.776c.519,0,.687-.712.61-.968-.068-.228-.378-.632-.71-.632H3.766c-.39,0-.714.5-.73.764-.019.3.249.839.683.838Zm-.207,4.84a.81.81,0,1,0,0-1.619H3.874a.81.81,0,1,0,0,1.619Z" transform="translate(0 -0.001)" fill="#fff"/>
        <path id="Trazado_1283033" data-name="Trazado 1283033" d="M165.9,11.245a2.426,2.426,0,0,1-2.353-2.254l.028-5.756,7.968,7.968Z" transform="translate(-139.432 -2.759)" fill="#fff"/>
      </g>
    </g>
  </g>
</svg>
