<svg xmlns="http://www.w3.org/2000/svg" xmlns:xlink="http://www.w3.org/1999/xlink" width="69.323" height="69.323" viewBox="0 0 69.323 69.323">
  <defs>
    <clipPath id="clip-path">
      <rect id="Rectángulo_467926" data-name="Rectángulo 467926" width="44.921" height="45" fill="#fff"/>
    </clipPath>
  </defs>
  <g id="Grupo_1214631" data-name="Grupo 1214631" transform="translate(-611.711 -1637)">
    <rect id="Rectángulo_467181" data-name="Rectángulo 467181" width="69.323" height="69.323" transform="translate(611.711 1637)" fill="#19538d"/>
    <g id="Grupo_1214624" data-name="Grupo 1214624" transform="translate(623.711 1649)">
      <g id="Grupo_1214623" data-name="Grupo 1214623" clip-path="url(#clip-path)">
        <path id="Trazado_1283034" data-name="Trazado 1283034" d="M32.782,45l-20.7,0A11.93,11.93,0,0,1,.013,33.32L0,11.774A11.95,11.95,0,0,1,12.061,0L32.97.012A11.948,11.948,0,0,1,44.921,11.884L44.909,33.2A11.967,11.967,0,0,1,32.782,45M22.328,34.264l4.36-22.6A2.129,2.129,0,0,0,25.1,9a2.092,2.092,0,0,0-2.515,1.632L18.208,33.3a2.123,2.123,0,0,0,1.6,2.679,2.084,2.084,0,0,0,2.522-1.711m-7.64-7.727-3.5-3.521a1.118,1.118,0,0,1,0-1.054L14.717,18.4a2.114,2.114,0,0,0-.135-3.044,2.149,2.149,0,0,0-2.991.179L5.962,21.207a2.041,2.041,0,0,0,.124,2.708l5.73,5.723a2.076,2.076,0,0,0,2.9-.154,2.106,2.106,0,0,0-.026-2.947M33.13,29.6l5.745-5.759a2.044,2.044,0,0,0,0-2.7l-5.561-5.6a2.144,2.144,0,0,0-3-.18,2.093,2.093,0,0,0-.2,2.964l3.609,3.651a1.125,1.125,0,0,1-.064,1.1l-3.483,3.5a2.1,2.1,0,0,0,.011,2.913,2.071,2.071,0,0,0,2.941.108" transform="translate(0 0)" fill="#fff"/>
      </g>
    </g>
  </g>
</svg>
