<svg xmlns="http://www.w3.org/2000/svg" xmlns:xlink="http://www.w3.org/1999/xlink" width="84" height="84" viewBox="0 0 84 84">
  <defs>
    <clipPath id="clip-path">
      <rect id="Rectángulo_467929" data-name="Rectángulo 467929" width="65.003" height="65" fill="#19538d"/>
    </clipPath>
  </defs>
  <g id="Grupo_1212407" data-name="Grupo 1212407" transform="translate(0.578 0.547)">
    <g id="Grupo_1119665" data-name="Grupo 1119665" transform="translate(-0.578 -0.547)">
      <rect id="Rectángulo_402006" data-name="Rectángulo 402006" width="84" height="84" rx="5" fill="#ffe2bc"/>
    </g>
    <g id="Grupo_1214634" data-name="Grupo 1214634" transform="translate(8.92 8.953)">
      <g id="Grupo_1214633" data-name="Grupo 1214633" clip-path="url(#clip-path)">
        <path id="Trazado_1283046" data-name="Trazado 1283046" d="M29.018,35.044a2.24,2.24,0,0,1-2.427,2.091,2.317,2.317,0,0,1-2.183-2.22l-.01-20.83a2.345,2.345,0,0,1,2.113-2.47l7.377-.045A19.749,19.749,0,0,1,38.827.889,2.385,2.385,0,0,1,42.2.556a2.352,2.352,0,0,1,.129,3.4,14.444,14.444,0,0,0-.127,19.77,2.366,2.366,0,1,1-3.55,3.072,19.853,19.853,0,0,1-4.762-10.579l-4.861.008Z" transform="translate(-12.816 0)" fill="#19538d"/>
        <path id="Trazado_1283047" data-name="Trazado 1283047" d="M87.357,35.235,87.32,16.228,82.475,16.2a20.12,20.12,0,0,1-4.781,10.589,2.366,2.366,0,1,1-3.55-3.07A14.448,14.448,0,0,0,74.015,3.95,2.344,2.344,0,0,1,74.143.559,2.421,2.421,0,0,1,77.628,1a19.792,19.792,0,0,1,4.83,10.573l7.385.04a2.4,2.4,0,0,1,2.11,2.27l-.011,21.032a2.314,2.314,0,0,1-1.993,2.2c-.959.138-2.589-.51-2.592-1.881" transform="translate(-38.532 0)" fill="#19538d"/>
        <path id="Trazado_1283048" data-name="Trazado 1283048" d="M36.226,106.076a2.253,2.253,0,0,1-2.012-2.4,2.281,2.281,0,0,1,2.145-2.166,2.446,2.446,0,0,0,2.509-2.453l0-2.559a7.418,7.418,0,0,1,1.42-4.325,6.917,6.917,0,0,1-1.4-3.952L38.857,85.2a2.286,2.286,0,0,0-2.151-2.274,2.406,2.406,0,0,1-2.484-2.121,2.278,2.278,0,0,1,2.143-2.532,6.85,6.85,0,0,1,7.108,6.539l.133,3.805c.033.949,2.212,1.84,2.24,3.519.029,1.744-2.213,2.675-2.248,3.692l-.134,3.854a6.787,6.787,0,0,1-7.239,6.39" transform="translate(-17.969 -41.118)" fill="#19538d"/>
        <path id="Trazado_1283049" data-name="Trazado 1283049" d="M87.7,101.506a2.317,2.317,0,0,1,2.14,2.166,2.245,2.245,0,0,1-1.906,2.382,6.766,6.766,0,0,1-7.343-6.369l-.136-3.853c-.037-1.058-2.28-1.964-2.246-3.694.034-1.683,2.208-2.563,2.242-3.527l.132-3.8a6.852,6.852,0,0,1,7.1-6.535,2.293,2.293,0,0,1,2.163,2.349,2.327,2.327,0,0,1-2.309,2.263A2.354,2.354,0,0,0,85.2,85.423l-.046,3a6.673,6.673,0,0,1-1.382,3.723,7.729,7.729,0,0,1,1.416,4.347l-.007,2.564a2.452,2.452,0,0,0,2.513,2.451" transform="translate(-41.082 -41.118)" fill="#19538d"/>
        <path id="Trazado_1283050" data-name="Trazado 1283050" d="M9.238,101.481a2.331,2.331,0,1,1-.3,4.64,6.8,6.8,0,0,1-6.56-6.4l-.092-3.638C2.255,94.748.1,94.065,0,92.354c-.123-2.277,2.812-2.2,2.341-5.859a7.063,7.063,0,0,1,7.221-8.2A2.3,2.3,0,0,1,11.6,80.64a2.339,2.339,0,0,1-2.384,2.273,2.4,2.4,0,0,0-2.256,2.512L6.918,88.7A7.345,7.345,0,0,1,5.56,92.221a7.487,7.487,0,0,1,1.41,4.3l.006,2.761a2.252,2.252,0,0,0,2.262,2.194" transform="translate(0 -41.125)" fill="#19538d"/>
        <path id="Trazado_1283051" data-name="Trazado 1283051" d="M114.67,101.514a2.38,2.38,0,0,0,2.482-2.461l-.028-2.532a8.153,8.153,0,0,1,1.385-4.314,8.6,8.6,0,0,1-1.366-4.039l-.034-3.177a2.394,2.394,0,0,0-2.384-2.121,2.292,2.292,0,0,1-.339-4.546,6.618,6.618,0,0,1,5.474,2.106,7.436,7.436,0,0,1,1.9,6.065c-.329,3.785,2.325,3.562,2.345,5.635.02,1.951-2.255,2.559-2.289,3.942l-.091,3.641a6.8,6.8,0,0,1-6.563,6.4,2.334,2.334,0,0,1-2.637-2.049,2.256,2.256,0,0,1,2.146-2.549" transform="translate(-59.102 -41.118)" fill="#19538d"/>
        <path id="Trazado_1283052" data-name="Trazado 1283052" d="M25.065,106.326,20.1,101.38a2.233,2.233,0,0,1-.057-2.975l4.883-4.892a2.32,2.32,0,0,1,3.282,3.271l-3.043,3.071,3.184,3.307a2.292,2.292,0,0,1-.127,2.918,2.241,2.241,0,0,1-3.156.246" transform="translate(-10.245 -48.806)" fill="#19538d"/>
        <path id="Trazado_1283053" data-name="Trazado 1283053" d="M101.92,106.031a2.316,2.316,0,1,1-3.438-3.1l3.01-3.062-3.059-3.084a2.32,2.32,0,0,1,3.285-3.268l4.784,4.772a2.279,2.279,0,0,1-.066,3.207Z" transform="translate(-51.396 -48.807)" fill="#19538d"/>
      </g>
    </g>
  </g>
</svg>
