<svg xmlns="http://www.w3.org/2000/svg" xmlns:xlink="http://www.w3.org/1999/xlink" width="291.711" height="417.681" viewBox="0 0 291.711 417.681">
  <defs>
    <clipPath id="clip-path">
      <rect id="Rectangle_464141" data-name="Rectangle 464141" width="257.615" height="209.629" fill="none"/>
    </clipPath>
    <clipPath id="clip-path-3">
      <rect id="Rectangle_464135" data-name="Rectangle 464135" width="163.593" height="114.643" fill="none"/>
    </clipPath>
  </defs>
  <g id="img11" transform="translate(-289.711 -2162)">
    <g id="Group_1212377" data-name="Group 1212377" transform="translate(289.711 2162)">
      <g id="Group_1209444" data-name="Group 1209444" transform="translate(0)">
        <g id="Group_1208498" data-name="Group 1208498" transform="translate(1.212)">
          <g id="Group_1206741" data-name="Group 1206741">
            <g id="Group_1204235" data-name="Group 1204235">
              <rect id="Rectangle_402012" data-name="Rectangle 402012" width="290.499" height="404.042" fill="#fff7df"/>
            </g>
          </g>
        </g>
        <g id="Group_1211225" data-name="Group 1211225" transform="translate(0 18.927)">
          <path id="Path_1273686" data-name="Path 1273686" d="M-21.711,458.666l291.3-398.754V458.666Z" transform="translate(21.711 -59.913)" fill="#ffe79e"/>
        </g>
      </g>
    </g>
    <g id="Group_1214130" data-name="Group 1214130" transform="translate(308.464 2266.026)">
      <g id="Group_1214129" data-name="Group 1214129" transform="translate(0 0)" clip-path="url(#clip-path)">
        <g id="Group_1214128" data-name="Group 1214128">
          <g id="Group_1214127" data-name="Group 1214127" clip-path="url(#clip-path)">
            <path id="Path_1281488" data-name="Path 1281488" d="M75.194,52.386V176.241a4.315,4.315,0,0,0,4.055,4.5H251.88a4.31,4.31,0,0,0,4.051-4.5V52.386a4.31,4.31,0,0,0-4.051-4.5H79.249a4.315,4.315,0,0,0-4.055,4.5" transform="translate(-75.194 6.545)" fill="#1a222b"/>
            <path id="Path_1281489" data-name="Path 1281489" d="M67.738,52.386V176.241a4.314,4.314,0,0,0,4.053,4.5H244.417a4.306,4.306,0,0,0,4.052-4.5V52.386a4.306,4.306,0,0,0-4.052-4.5H71.791a4.314,4.314,0,0,0-4.053,4.5" transform="translate(-60.109 6.545)" fill="#2c3540"/>
            <path id="Path_1281490" data-name="Path 1281490" d="M74.159,168.583a4.251,4.251,0,0,0,4,4.447H237.756a4.252,4.252,0,0,0,4-4.447V58.389a4.25,4.25,0,0,0-4-4.448H78.163a4.248,4.248,0,0,0-4,4.448Z" transform="translate(-59.961 7.373)" fill="#e4e8ed"/>
            <g id="Group_1214126" data-name="Group 1214126" transform="translate(18.202 61.314)" opacity="0.3" style="mix-blend-mode: screen;isolation: isolate">
              <g id="Group_1214125" data-name="Group 1214125">
                <g id="Group_1214124" data-name="Group 1214124" clip-path="url(#clip-path-3)">
                  <path id="Path_1281491" data-name="Path 1281491" d="M237.753,168.583V58.389a4.25,4.25,0,0,0-4-4.448H74.159Z" transform="translate(-74.16 -53.941)" fill="#fff"/>
                </g>
              </g>
            </g>
            <path id="Path_1281492" data-name="Path 1281492" d="M128.561,164.766H257.577v2.6c0,10.9-7.949,19.741-17.759,19.741H19.447c-9.807,0-17.76-8.846-17.76-19.741v-2.6Z" transform="translate(-1.687 22.521)" fill="#1a222b"/>
            <path id="Path_1281493" data-name="Path 1281493" d="M126.874,164.766h64.571v2.6c0,10.9-7.949,19.741-17.755,19.741H17.763C7.953,187.109,0,178.263,0,167.368v-2.6Z" transform="translate(66.17 22.521)" fill="#1a222b"/>
            <path id="Path_1281494" data-name="Path 1281494" d="M162.4,0h75.055V170.579H87.347V0Z" transform="translate(-69.145)" fill="#c5d5e6"/>
            <path id="Path_1281495" data-name="Path 1281495" d="M162.4,0h75.055V14.56H87.347V0Z" transform="translate(-69.145)" fill="#15202e"/>
            <path id="Path_1281496" data-name="Path 1281496" d="M157.767,0h75.055V170.579H82.713V0Z" transform="translate(-59.773)" fill="#fff"/>
            <rect id="Rectangle_464136" data-name="Rectangle 464136" width="97.123" height="6.985" transform="translate(33.148 131.65)" fill="#2d4375"/>
            <path id="Path_1281497" data-name="Path 1281497" d="M124.553,127.032v4.4h77.8V124.45h-77.8Z" transform="translate(-72.085 17.01)" fill="#2d4375"/>
            <path id="Path_1281498" data-name="Path 1281498" d="M124.553,135.661v4.4h89.926v-6.992H124.553Z" transform="translate(-84.207 18.188)" fill="#2d4375"/>
            <rect id="Rectangle_464137" data-name="Rectangle 464137" width="26.675" height="26.597" transform="translate(136.164 131.65)" fill="#16405e"/>
            <path id="Path_1281499" data-name="Path 1281499" d="M157.767,0h75.055V14.56H82.713V0Z" transform="translate(-59.773)" fill="#16405e"/>
            <rect id="Rectangle_464138" data-name="Rectangle 464138" width="6.667" height="7.42" transform="translate(40.152 3.561)" fill="#fff"/>
            <rect id="Rectangle_464139" data-name="Rectangle 464139" width="6.667" height="7.42" transform="translate(29.317 3.561)" fill="#fff"/>
            <path id="Path_1281500" data-name="Path 1281500" d="M180.375,37.12,176.53,51.284a2.817,2.817,0,0,1-2.837,1.791,3.094,3.094,0,0,1-2.5-2.428l-3.651-13.34-2.336,12.9c-.331,1.828-1.268,2.764-2.936,2.583-1.348-.148-2.133-1.657-1.836-3.466l3.679-22.461a2.989,2.989,0,0,1,2.7-2.814,2.9,2.9,0,0,1,3,2.443l4.135,15.052,4.236-15.573a2.492,2.492,0,0,1,2.616-1.9,2.647,2.647,0,0,1,2.753,2.207l4.019,23.049c.28,1.612-.365,3.061-1.408,3.376a2.41,2.41,0,0,1-3.271-2.045Z" transform="translate(-70.475 3.286)" fill="#16405e"/>
            <path id="Path_1281501" data-name="Path 1281501" d="M140.816,49.972c0,1.8-.934,2.875-2.145,3.092a2.433,2.433,0,0,1-2.634-2.413l-.094-9.94-9.895.09-.073,9.432a2.62,2.62,0,0,1-2.139,2.812,2.4,2.4,0,0,1-2.594-2.541l-.012-23.66c0-1.727,1.009-2.749,2.21-2.8,1.675-.064,2.558,1.09,2.555,3.06l-.013,8.239,9.985.064,0-8.3c0-1.852.987-2.993,2.374-3.057,1.581-.072,2.468,1.178,2.469,3.075Z" transform="translate(-71.352 3.286)" fill="#16405e"/>
            <path id="Path_1281502" data-name="Path 1281502" d="M155.466,49.944c0,1.763-.8,2.888-2,3.117a2.411,2.411,0,0,1-2.73-2.338L150.7,29.489l-3.356-.2a2.372,2.372,0,0,1-2.517-2.435,2.448,2.448,0,0,1,2.661-2.847l11.308.013a2.485,2.485,0,0,1,2.565,2.4,2.54,2.54,0,0,1-2.472,2.857l-3.437.25Z" transform="translate(-70.824 3.281)" fill="#16405e"/>
            <path id="Path_1281503" data-name="Path 1281503" d="M201.607,52.975l-8.066.064c-1.467.011-2.265-1.292-2.261-2.826l.065-23.988a2.194,2.194,0,0,1,2.3-2.172,2.412,2.412,0,0,1,2.425,2.6l.04,21.094,5.783.156c1.22.033,1.574,1.474,1.557,2.561-.015.971-.417,2.5-1.843,2.508" transform="translate(-69.783 3.287)" fill="#16405e"/>
            <path id="Path_1281504" data-name="Path 1281504" d="M100.7,104.812l30.238,0a2.447,2.447,0,0,0,2.742-2.436,2.526,2.526,0,0,0-2.316-2.821l-31.082.006a2.53,2.53,0,0,0-2.314,2.811,2.428,2.428,0,0,0,2.732,2.445" transform="translate(23.782 13.607)" fill="#003eed"/>
            <path id="Path_1281505" data-name="Path 1281505" d="M95.823,80.578a3,3,0,0,0,.151,3.822,2.207,2.207,0,0,0,3.574-.414l6.7-10.608a2.476,2.476,0,0,0-.054-2.619L99.484,60.1a2.31,2.31,0,0,0-2.966-.74,2.6,2.6,0,0,0-1.111,3.351l5.716,9.33Z" transform="translate(53.749 8.08)" fill="#16405e"/>
            <path id="Path_1281506" data-name="Path 1281506" d="M137.333,81.6l21.54-.052c1.227,0,1.988-1.224,2.159-2.257.156-.939-.4-2.906-1.708-2.906l-22.84,0c-1.262,0-1.8,2.031-1.657,2.942a2.6,2.6,0,0,0,2.507,2.279" transform="translate(-41.268 10.44)" fill="#003eed"/>
            <path id="Path_1281507" data-name="Path 1281507" d="M155.39,70.084l21.521.019a2.524,2.524,0,0,0,2.391-2.619,2.482,2.482,0,0,0-2.362-2.67l-21.2-.027a2.466,2.466,0,0,0-2.612,2.273,2.509,2.509,0,0,0,2.257,3.024" transform="translate(-78.224 8.855)" fill="#fee17c"/>
            <path id="Path_1281508" data-name="Path 1281508" d="M212.34,108.657c.7,1.6,1.853,2.1,3.057,1.675a2.708,2.708,0,0,0,1.469-3.467l-8.625-19.94A2.312,2.312,0,0,0,205,85.735a2.783,2.783,0,0,0-1.1,3.549Z" transform="translate(-167.665 11.682)" fill="#16405e"/>
            <path id="Path_1281509" data-name="Path 1281509" d="M100.622,93.317l20.776.009a2.441,2.441,0,0,0,2.745-2.44,2.5,2.5,0,0,0-2.328-2.813L100.2,88.058a2.5,2.5,0,0,0-2.245,2.8,2.459,2.459,0,0,0,2.67,2.456" transform="translate(33.326 12.036)" fill="#fee078"/>
            <path id="Path_1281510" data-name="Path 1281510" d="M133.93,93.275l18.306.041a2.486,2.486,0,0,0,2.49-2.479,2.589,2.589,0,0,0-2.491-2.82l-18.081.007a2.438,2.438,0,0,0-2.4,2.4c-.1,1.188.529,2.845,2.176,2.849" transform="translate(-31.813 12.03)" fill="#99d5b9"/>
            <path id="Path_1281511" data-name="Path 1281511" d="M127.814,70.069l15.413,0a2.515,2.515,0,0,0,2.22-2.625,2.4,2.4,0,0,0-2.136-2.612l-15.773.007c-1.344,0-2.033,1.43-2.035,2.638a2.535,2.535,0,0,0,2.311,2.587" transform="translate(-16.145 8.862)" fill="#16405e"/>
            <path id="Path_1281512" data-name="Path 1281512" d="M192.233,81.577l15.047.065a2.611,2.611,0,0,0,2.6-2.326c.169-.98-.416-2.906-1.746-2.916l-15.692-.1a2.543,2.543,0,0,0-2.467,2.264c-.145,1.134.7,3.007,2.263,3.013" transform="translate(-146.499 10.429)" fill="#fee17c"/>
            <path id="Path_1281513" data-name="Path 1281513" d="M143.242,104.759l15.15.032a2.462,2.462,0,0,0,2.465-2.478,2.527,2.527,0,0,0-2.468-2.772l-15.35.057c-1.276,0-1.9,1.332-1.988,2.3-.112,1.281.531,2.86,2.191,2.863" transform="translate(-47.446 13.606)" fill="#16405e"/>
            <path id="Path_1281514" data-name="Path 1281514" d="M189.513,93.32l14.461-.07c1.276-.006,2.051-1.322,2.146-2.4.1-1.157-.769-2.778-2.162-2.779l-14.86-.009a2.537,2.537,0,0,0-2.238,2.794,2.5,2.5,0,0,0,2.653,2.46" transform="translate(-139.55 12.037)" fill="#99d5b9"/>
            <path id="Path_1281515" data-name="Path 1281515" d="M112.37,81.56l12.348.034a2.584,2.584,0,0,0,2.273-2.211c.212-1.156-.52-2.984-1.866-2.985l-12.939-.019c-1.232,0-1.863,1.577-1.851,2.569s.635,2.609,2.035,2.612" transform="translate(17.781 10.44)" fill="#9cd6bb"/>
            <path id="Path_1281516" data-name="Path 1281516" d="M164.306,93.224l12.879.01c1.37,0,1.987-1.671,1.878-2.8a2.479,2.479,0,0,0-2.322-2.388l-12.183.026a2.417,2.417,0,0,0-2.174,2.381c-.071,1,.411,2.77,1.921,2.771" transform="translate(-87.476 12.034)" fill="#003eed"/>
            <path id="Path_1281517" data-name="Path 1281517" d="M189.626,70.176l8.478-.1a2.466,2.466,0,0,0,2.262-2.608,2.385,2.385,0,0,0-2.178-2.628l-9.384.036c-1.52.006-2.126,1.713-1.915,3.052a2.586,2.586,0,0,0,2.737,2.246" transform="translate(-133.786 8.863)" fill="#9cd6bb"/>
            <path id="Path_1281518" data-name="Path 1281518" d="M170.741,81.5l9.158.068a2.372,2.372,0,0,0,2.229-2.2c.15-1.042-.2-2.908-1.484-2.917l-10.122-.066c-1.194-.008-1.885,1.567-1.861,2.544.025,1.013.688,2.559,2.08,2.569" transform="translate(-96.985 10.441)" fill="#16405e"/>
            <path id="Path_1281519" data-name="Path 1281519" d="M171.307,104.806l8.153,0a2.377,2.377,0,0,0,2.694-2.429,2.441,2.441,0,0,0-2.273-2.809l-8.994.028a2.616,2.616,0,0,0,.42,5.2" transform="translate(-96.965 13.61)" fill="#99d5b9"/>
            <path id="Path_1281520" data-name="Path 1281520" d="M191.282,104.483a22.406,22.406,0,0,0,7.3.14c1.248-.118,1.787-1.665,1.7-2.693a2.457,2.457,0,0,0-2.144-2.336l-6.286.027a1.988,1.988,0,0,0-1.832,1.836c-.182.962-.058,2.714,1.266,3.026" transform="translate(-136.878 13.613)" fill="#fee078"/>
            <path id="Path_1281521" data-name="Path 1281521" d="M111.712,65.109c-1.486.525-1.6,2.554-1.115,3.568.992,2.055,5.644,2.1,6.683.015.528-1.061.334-2.952-1.005-3.535a6.69,6.69,0,0,0-4.563-.048" transform="translate(27.253 8.848)" fill="#003eed"/>
          </g>
        </g>
      </g>
    </g>
  </g>
</svg>
