<svg xmlns="http://www.w3.org/2000/svg" xmlns:xlink="http://www.w3.org/1999/xlink" width="396" height="256.768" viewBox="0 0 396 256.768">
  <defs>
    <clipPath id="clip-path">
      <rect id="Rectangle_462695" data-name="Rectangle 462695" width="369.344" height="244.966" fill="none"/>
    </clipPath>
    <clipPath id="clip-path-2">
      <path id="Path_1279201" data-name="Path 1279201" d="M193.015,0c-16.422,0-29.733,14.519-29.733,32.428,0,.19.01.381.012.573-4.89-8.975-13.864-14.993-24.13-14.993a27.218,27.218,0,0,0-21.946,11.543c-5.985-10.243-16.484-17.044-28.446-17.044-18.621,0-33.715,16.461-33.715,36.768A39.317,39.317,0,0,0,58.61,65.7c-6.124.98-10.83,6.717-10.83,13.667,0,.114.012.223.016.337-8.891,2.405-15.478,11.163-15.478,21.6a24.067,24.067,0,0,0,1.022,6.955,22.611,22.611,0,0,0-2.738-.172c-13.509,0-24.457,11.945-24.457,26.675a28.172,28.172,0,0,0,4.788,15.853A36.486,36.486,0,0,0,0,176.98c0,19.271,14.228,34.909,31.85,35.122,3.525,13.62,15,23.6,28.611,23.6H307.208c21.921,0,39.692-19.381,39.692-43.288a47.142,47.142,0,0,0-1.112-10.164c13.656-4.7,23.556-18.624,23.556-35.068,0-20.307-15.094-36.77-33.713-36.77a31.237,31.237,0,0,0-13.171,2.914c-1.741-8.156-7.454-14.643-14.8-16.908a45.052,45.052,0,0,0,12.6-31.623c0-23.906-17.769-43.286-39.688-43.286-12.612,0-23.84,6.421-31.11,16.42a27.41,27.41,0,0,0-21.488-10.737,26.317,26.317,0,0,0-5.533.591C220.376,12.075,207.991,0,193.015,0Z" transform="translate(0 0)" fill="#fff7df"/>
    </clipPath>
    <clipPath id="clip-path-3">
      <rect id="Rectangle_468820" data-name="Rectangle 468820" width="272.065" height="222.086" fill="none"/>
    </clipPath>
  </defs>
  <g id="img18" transform="translate(-1015.422 -3335.146)">
    <path id="Path_1273937" data-name="Path 1273937" d="M0,0H396V256.768H0Z" transform="translate(1015.422 3335.146)" fill="none"/>
    <g id="Group_1212993" data-name="Group 1212993" transform="translate(1027.455 3338.48)">
      <g id="Group_1212992" data-name="Group 1212992" clip-path="url(#clip-path)">
        <g id="Group_1212962" data-name="Group 1212962" transform="translate(0 0)">
          <g id="Group_1212961" data-name="Group 1212961" clip-path="url(#clip-path-2)">
            <path id="Path_1279268" data-name="Path 1279268" d="M0,0,374.772-.107,374.7,244.4l-374.772.107Z" transform="translate(-5.527 0.133) rotate(-1.36)" fill="#fff7df"/>
          </g>
        </g>
        <g id="Group_1214932" data-name="Group 1214932" transform="translate(54.967 13.62)">
          <g id="Group_1214931" data-name="Group 1214931" transform="translate(0 0)" clip-path="url(#clip-path-3)">
            <path id="Path_1284617" data-name="Path 1284617" d="M128.131,105.014H107.819V65.621H62.469l0,39.393h-21.8A7.664,7.664,0,0,0,33,112.678v1.392h102.8v-1.392a7.664,7.664,0,0,0-7.664-7.664" transform="translate(50.078 99.587)" fill="#a7cefc"/>
            <rect id="Rectangle_468790" data-name="Rectangle 468790" width="241.652" height="164.604" transform="translate(14.396)" fill="#fff"/>
            <path id="Path_1284618" data-name="Path 1284618" d="M136.495,114.768H32.825v-1.825a8.11,8.11,0,0,1,8.1-8.1H62.294l0-39.4h46.223v39.4H128.4a8.108,8.108,0,0,1,8.1,8.1Zm-102.8-.874H135.621v-.952a7.232,7.232,0,0,0-7.226-7.226h-20.75v-39.4H63.17l0,39.4H40.927a7.234,7.234,0,0,0-7.228,7.226Z" transform="translate(49.815 99.324)" fill="#332b33"/>
            <path id="Path_1284619" data-name="Path 1284619" d="M52.176,125.176h76.905a6.736,6.736,0,0,0,6.735-6.735V15.051a6.734,6.734,0,0,0-6.735-6.735H52.176Z" transform="translate(79.183 12.621)" fill="#a7cefc"/>
            <rect id="Rectangle_468791" data-name="Rectangle 468791" width="76.875" height="111.296" transform="translate(134.742 23.532)" fill="#fff"/>
            <rect id="Rectangle_468792" data-name="Rectangle 468792" width="68.298" height="11.735" transform="translate(139.443 117.713)" fill="#a7cefc"/>
            <rect id="Rectangle_468793" data-name="Rectangle 468793" width="68.298" height="32.767" transform="translate(139.443 80.382)" fill="#a7cefc"/>
            <rect id="Rectangle_468794" data-name="Rectangle 468794" width="68.298" height="45.773" transform="translate(139.443 28.54)" fill="#a7cefc"/>
            <path id="Path_1284620" data-name="Path 1284620" d="M103.433,125.176H28.112a6.667,6.667,0,0,1-6.667-6.669V14.983a6.666,6.666,0,0,1,6.667-6.667h75.322Z" transform="translate(32.545 12.621)" fill="#a7cefc"/>
            <rect id="Rectangle_468795" data-name="Rectangle 468795" width="76.875" height="111.296" transform="translate(57.371 23.532)" fill="#fff"/>
            <rect id="Rectangle_468796" data-name="Rectangle 468796" width="68.298" height="24.484" transform="translate(61.248 28.542)" fill="#a7cefc"/>
            <rect id="Rectangle_468797" data-name="Rectangle 468797" width="68.298" height="25.491" transform="translate(61.248 52.26)" fill="#a7cefc"/>
            <rect id="Rectangle_468798" data-name="Rectangle 468798" width="68.298" height="19.476" transform="translate(61.248 109.972)" fill="#a7cefc"/>
            <path id="Path_1284621" data-name="Path 1284621" d="M33.922,18.125A12.268,12.268,0,1,1,21.653,5.857,12.269,12.269,0,0,1,33.922,18.125" transform="translate(14.243 8.889)" fill="#332b33"/>
            <path id="Path_1284622" data-name="Path 1284622" d="M13.043,22.813V7.735q5.042,3.92,10.086,7.845Q18.087,19.2,13.043,22.813" transform="translate(19.794 11.739)" fill="#fff"/>
            <path id="Path_1284623" data-name="Path 1284623" d="M33.922,18.125A12.268,12.268,0,1,1,21.653,5.857,12.269,12.269,0,0,1,33.922,18.125" transform="translate(14.243 8.889)" fill="#332b33"/>
            <path id="Path_1284624" data-name="Path 1284624" d="M13.043,22.813V7.735q5.042,3.92,10.086,7.845Q18.087,19.2,13.043,22.813" transform="translate(19.794 11.739)" fill="#fff"/>
            <path id="Path_1284625" data-name="Path 1284625" d="M112.848,18.125A12.268,12.268,0,1,1,100.579,5.857a12.269,12.269,0,0,1,12.268,12.268" transform="translate(134.021 8.889)" fill="#332b33"/>
            <path id="Path_1284626" data-name="Path 1284626" d="M91.968,22.813V7.735q5.042,3.92,10.086,7.845Q97.012,19.2,91.968,22.813" transform="translate(139.571 11.739)" fill="#fff"/>
            <path id="Path_1284627" data-name="Path 1284627" d="M78.2,99.919a27.226,27.226,0,0,0-53.874,0Z" transform="translate(36.92 116.319)" fill="#332b33"/>
            <rect id="Rectangle_468799" data-name="Rectangle 468799" width="4.184" height="102.102" transform="translate(42.5 51.55)" fill="#ffbf0b"/>
            <path id="Path_1284628" data-name="Path 1284628" d="M19.2,28.121h-.483a1.76,1.76,0,0,1-1.76-1.762V19.365a1.76,1.76,0,0,1,1.76-1.76H19.2a1.762,1.762,0,0,1,1.762,1.76v6.994A1.763,1.763,0,0,1,19.2,28.121" transform="translate(25.726 26.718)" fill="#ffbf0b"/>
            <rect id="Rectangle_468800" data-name="Rectangle 468800" width="5.622" height="10.516" transform="translate(41.795 47.278)" fill="#332b33"/>
            <rect id="Rectangle_468801" data-name="Rectangle 468801" width="4.184" height="102.1" transform="translate(25.494 69.389) rotate(-5.628)" fill="#332b33"/>
            <path id="Path_1284629" data-name="Path 1284629" d="M13.081,35.081l-.481.048a1.762,1.762,0,0,1-1.926-1.581l-.685-6.959a1.761,1.761,0,0,1,1.579-1.926l.481-.048A1.761,1.761,0,0,1,13.975,26.2l.687,6.959a1.761,1.761,0,0,1-1.581,1.926" transform="translate(15.147 37.343)" fill="#ffbf0b"/>
            <rect id="Rectangle_468802" data-name="Rectangle 468802" width="5.621" height="10.516" transform="matrix(0.995, -0.098, 0.098, 0.995, 24.375, 65.207)" fill="#332b33"/>
            <path id="Path_1284675" data-name="Path 1284675" d="M0,0H53.988V82.537H0Z" transform="translate(0 133.7)" fill="#19538d"/>
            <rect id="Rectangle_468804" data-name="Rectangle 468804" width="57.575" height="0.874" transform="translate(64.889 33.492)" fill="#332b33"/>
            <rect id="Rectangle_468805" data-name="Rectangle 468805" width="54.028" height="0.874" transform="translate(65.216 38.847)" fill="#332b33"/>
            <rect id="Rectangle_468806" data-name="Rectangle 468806" width="46.339" height="0.874" transform="translate(64.889 47.072)" fill="#332b33"/>
            <rect id="Rectangle_468807" data-name="Rectangle 468807" width="9.595" height="0.874" transform="translate(113.267 47.072)" fill="#332b33"/>
            <rect id="Rectangle_468808" data-name="Rectangle 468808" width="44.169" height="0.874" transform="translate(65.219 57.598)" fill="#332b33"/>
            <rect id="Rectangle_468809" data-name="Rectangle 468809" width="31.941" height="0.874" transform="translate(65.813 62.855)" fill="#332b33"/>
            <rect id="Rectangle_468810" data-name="Rectangle 468810" width="53.106" height="0.874" transform="translate(68.502 114.909)" fill="#332b33"/>
            <rect id="Rectangle_468811" data-name="Rectangle 468811" width="53.169" height="0.874" transform="translate(68.439 119.274)" fill="#332b33"/>
            <rect id="Rectangle_468812" data-name="Rectangle 468812" width="26.969" height="0.874" transform="translate(144.287 88.496)" fill="#332b33"/>
            <rect id="Rectangle_468813" data-name="Rectangle 468813" width="9.139" height="0.874" transform="translate(144.284 95.334)" fill="#332b33"/>
            <rect id="Rectangle_468814" data-name="Rectangle 468814" width="32.099" height="0.874" transform="translate(144.284 102.686)" fill="#332b33"/>
            <rect id="Rectangle_468815" data-name="Rectangle 468815" width="62.298" height="0.874" transform="translate(142.975 36.367)" fill="#332b33"/>
            <rect id="Rectangle_468816" data-name="Rectangle 468816" width="38.668" height="0.874" transform="translate(143.894 40.143)" fill="#332b33"/>
            <path id="Path_1284630" data-name="Path 1284630" d="M89.012,26.984a5.792,5.792,0,0,1-10.994.073,19.248,19.248,0,0,0,1.73-5.013c.3-1.286.471-2.4.569-3.064.025-.2.05-.347.05-.446.023-.222.048-.443.073-.667.05-.493.1-.962.149-1.433,1.508-.2,3.039-.37,4.569-.566a16.946,16.946,0,0,0,3.854,11.115" transform="translate(118.401 24.083)" fill="#f96e58"/>
            <path id="Path_1284631" data-name="Path 1284631" d="M78.747,18.2c.274-.194.551-.385.828-.577l-.433-1.654-1.08-.368a1.435,1.435,0,0,1-.3,1.1c-.159.171-.3.2-.33.33-.048.189.141.524,1.314,1.168" transform="translate(117.503 23.679)" fill="#f96e58"/>
            <path id="Path_1284632" data-name="Path 1284632" d="M79.378,16.557a2.046,2.046,0,0,0,2.316,1.652,1.976,1.976,0,0,0,1.221-2.525A2.047,2.047,0,0,0,80.6,14.032a1.978,1.978,0,0,0-1.221,2.525" transform="translate(120.338 21.225)" fill="#f96e58"/>
            <path id="Path_1284633" data-name="Path 1284633" d="M79.1,16.394a1.45,1.45,0,0,0,1.76,1.015A1.4,1.4,0,0,0,81.9,15.7a1.45,1.45,0,0,0-1.76-1.015A1.4,1.4,0,0,0,79.1,16.394" transform="translate(119.968 22.223)" fill="#f96e58"/>
            <path id="Path_1284634" data-name="Path 1284634" d="M84.621,26.112l-.244.06a4.252,4.252,0,0,1-5.237-2.807l-2.178-8.3a8.757,8.757,0,0,1,4.705-2.835,8.943,8.943,0,0,1,5.242.38l1.881,7.16a5.322,5.322,0,0,1-4.169,6.339" transform="translate(116.798 18.22)" fill="#f96e58"/>
            <path id="Path_1284635" data-name="Path 1284635" d="M59,30.639a13.549,13.549,0,0,0,2.475,8.19l5.166-2.044c1.584-3.23,1.266-5.352.911-6.475-.433-1.37-1.166-2.019-4.021-5.514-1.279-1.566-2.291-2.852-2.918-3.661a2.947,2.947,0,0,0-.217,1.148c.015.657.3,1.176,1.4,2.691.34.473.783,1.07,1.314,1.752a5.992,5.992,0,0,0-1.974.967A6.235,6.235,0,0,0,59,30.639" transform="translate(89.528 32.075)" fill="#f96e58"/>
            <path id="Path_1284636" data-name="Path 1284636" d="M89.5,85.236Q81.035,83.9,72.571,82.573q1.25-21.125,2.5-42.245l15.176-1.893q-.374,23.4-.745,46.8" transform="translate(110.134 58.328)" fill="#f96e58"/>
            <path id="Path_1284637" data-name="Path 1284637" d="M74.1,47.991a35.446,35.446,0,0,0,30.43-1.347q-2.738-7.115-5.473-14.227l-18.7.2Q77.226,40.3,74.1,47.991" transform="translate(112.45 49.196)" fill="#f96e58"/>
            <path id="Path_1284638" data-name="Path 1284638" d="M81.723,51.994l18.7-.174,9.705-26.7a31.259,31.259,0,0,0-18.937-5.453,30.5,30.5,0,0,0-18,6.485q4.264,12.923,8.527,25.841" transform="translate(111.083 29.818)" fill="#f96e58"/>
            <path id="Path_1284639" data-name="Path 1284639" d="M72.659,60.294c-1.9-2.928-3.827-5.853-5.75-8.754,2.226-4.089,4.451-8.149,6.674-12.236,1-1.823,2-3.666,3-5.486,2.16-3.98,4.345-7.966,6.506-11.946.2.005.4.008.574.015,2.623.144,6.881,1.181,11.762,6.2-2.784,3.945-5.592,7.92-8.376,11.868Q79.851,50.114,72.659,60.294" transform="translate(101.541 33.195)" fill="#f96e58"/>
            <path id="Path_1284640" data-name="Path 1284640" d="M116.3,55.03c-3.4.778-6.813,1.581-10.2,2.392-3.074-3.494-6.123-6.981-9.2-10.473-1.367-1.566-2.757-3.134-4.124-4.7-2.993-3.4-5.984-6.82-8.98-10.216.073-.186.144-.373.209-.534,1.037-2.414,3.477-6.057,9.869-8.915l8.268,11.949q7.066,10.245,14.151,20.5" transform="translate(127.178 34.277)" fill="#f96e58"/>
            <path id="Path_1284641" data-name="Path 1284641" d="M64.5,25.976q-2.515,1.707-5.013,3.416c1.3,3.613,2.6,6.891,3.827,9.8.614,1.463,1.213,2.825,1.77,4.089.695,1.586,1.271,2.769,1.354,2.948,5.632,11.818,12.117,12.062,12.117,12.062.194.008,3.854.1,5.962-2.555,1.679-2.122,1.8-5.267.357-8.112A129.181,129.181,0,0,1,72.247,35.42c-2.928-3.24-5.5-6.417-7.744-9.444" transform="translate(90.282 39.422)" fill="#f96e58"/>
            <path id="Path_1284642" data-name="Path 1284642" d="M78.034,125.965l-6.7.176,2.576-69.055c.116-.471.232-.944.345-1.415l16.815,3.316a60.8,60.8,0,0,1,.6,23.711c-1.03,5.848-2.553,9.31-6.188,19.934-2.092,6.115-4.68,14.013-7.447,23.333" transform="translate(108.258 84.487)" fill="#f96e58"/>
            <path id="Path_1284643" data-name="Path 1284643" d="M65.9,93.81c.159.483.909.7,1.76.833a118.59,118.59,0,0,0,12.749.385c3.195-.01,6.052-.065,7.384-.086a8.744,8.744,0,0,0,.111-1.133,10.283,10.283,0,0,0-.025-1.4c-.018-.133-.035-.267-.063-.393a10.824,10.824,0,0,0-.594-2.178,10.274,10.274,0,0,1-.1-5.848c-2.2-.37-4.4-.6-6.609-.843-.914.607-1.808,1.2-2.714,1.808-.269.171-.541.355-.823.544-.169.113-.34.224-.521.347-.272.181-.544.363-.823.544-.191.128-.383.249-.574.38-.269.181-.541.363-.813.544l-.521.345c-.272.184-.544.365-.823.546-1.659,1.105-3.316,2.2-4.972,3.311-.423.259-1.8,1.13-2,1.891a.576.576,0,0,0-.028.408" transform="translate(99.977 126.179)" fill="#ffbf0b"/>
            <path id="Path_1284644" data-name="Path 1284644" d="M65.9,87.625c.161.478.916.695,1.765.831,3.872.579,16.813.363,20.128.3a8.827,8.827,0,0,0,.116-1.135L65.926,87.22a.608.608,0,0,0-.025.405" transform="translate(99.977 132.366)" fill="#332b33"/>
            <path id="Path_1284645" data-name="Path 1284645" d="M71.565,88.533c.073.383.143.768.217,1.151,3.195-.013,6.052-.065,7.382-.086a8.359,8.359,0,0,0,.111-1.135,9.877,9.877,0,0,0-.023-1.4c-.018-.133-.035-.267-.063-.39-.239.048-.478.088-.728.136a68.077,68.077,0,0,0-6.9,1.73" transform="translate(108.607 131.527)" fill="#332b33"/>
            <path id="Path_1284646" data-name="Path 1284646" d="M99.849,84.1l-17.135-.4Q81.154,62.6,79.592,41.5q7.394-1.945,14.791-3.887Q97.117,60.852,99.849,84.1" transform="translate(120.789 57.074)" fill="#f96e58"/>
            <path id="Path_1284647" data-name="Path 1284647" d="M137.473,108.7l-4.232,5.2L82.534,66.952c-.285-.393-.566-.788-.851-1.183q6.737-5.3,13.472-10.6a60.817,60.817,0,0,1,18.379,14.995c3.766,4.592,5.4,8,11.093,17.684,3.275,5.569,7.578,12.679,12.847,20.851" transform="translate(123.963 83.73)" fill="#f96e58"/>
            <path id="Path_1284648" data-name="Path 1284648" d="M101.77,98.616c.471.194,1.125-.234,1.777-.793a118.036,118.036,0,0,0,8.6-9.421c2.072-2.429,3.895-4.632,4.746-5.655a8.422,8.422,0,0,0-.788-.823,10.145,10.145,0,0,0-1.083-.9,3.7,3.7,0,0,0-.337-.209,10.925,10.925,0,0,0-2.039-.969,10.258,10.258,0,0,1-4.5-3.734c-1.712,1.425-3.323,2.951-4.947,4.466-.136,1.088-.267,2.155-.4,3.235-.048.317-.086.642-.126.979-.025.2-.05.405-.076.622-.04.322-.078.647-.123.979-.028.229-.06.451-.086.68-.04.325-.078.65-.116.974-.028.2-.053.405-.078.622-.04.322-.078.647-.126.977-.239,1.979-.486,3.953-.725,5.929-.081.488-.315,2.1.131,2.749a.578.578,0,0,0,.292.287" transform="translate(153.601 115.514)" fill="#ffbf0b"/>
            <path id="Path_1284649" data-name="Path 1284649" d="M101.609,95.119c.468.189,1.125-.242,1.78-.8,2.963-2.56,11.229-12.518,13.346-15.07a8.979,8.979,0,0,0-.786-.828L101.317,94.834a.615.615,0,0,0,.292.284" transform="translate(153.759 119.014)" fill="#332b33"/>
            <path id="Path_1284650" data-name="Path 1284650" d="M105.154,84.983c.337.194.675.39,1.015.584,2.072-2.43,3.892-4.632,4.743-5.655a8.13,8.13,0,0,0-.788-.823,10.1,10.1,0,0,0-1.08-.9c-.113-.076-.227-.149-.34-.209-.118.214-.244.42-.368.639a68.282,68.282,0,0,0-3.182,6.359" transform="translate(159.582 118.349)" fill="#332b33"/>
            <path id="Path_1284651" data-name="Path 1284651" d="M91.689,43.335c.287,4.23-1.639,7.737-3.963,8.369-2.82.765-7.5-2.359-8.318-8.369L76.583,32.617l18.7-.2-3.6,10.919" transform="translate(116.223 49.195)" fill="#332b33"/>
            <path id="Path_1284652" data-name="Path 1284652" d="M83.073,49.85q1.344,2.7,2.7,5.383c3.852-.682,7.364-1.412,10.493-2.127,1.571-.357,3.041-.72,4.4-1.052,1.707-.418,2.993-.783,3.187-.838,12.744-3.53,14.033-9.761,14.033-9.761a7.6,7.6,0,0,0-.589-4.617,7.331,7.331,0,0,1-.826.252c-3.646.871-7.082-1.352-8.653-2.543-4.187,3.082-8.854,6.239-14.021,9.343-3.686,2.215-7.273,4.194-10.725,5.962" transform="translate(126.072 52.426)" fill="#f96e58"/>
            <path id="Path_1284653" data-name="Path 1284653" d="M91.724,50.825l3.623-3.23q-.9-3.625-1.788-7.253L87.237,39.08q-1.873.563-3.749,1.128-4.328,2.628-4.056,3.25.317.733,6.954-1.292a29.737,29.737,0,0,1,5.337,8.658" transform="translate(120.523 59.308)" fill="#f96e58"/>
            <path id="Path_1284654" data-name="Path 1284654" d="M83.64,143.308l-11.594-.8c-1.47-34.622-.458-61.216.982-74.778,1.012-9.529,2.855-18.494,7.445-27.928A73.294,73.294,0,0,1,84.559,32.5q5.612,8.882,11.229,17.759a195.681,195.681,0,0,0-2.069,33.107c.36,15.118,2.324,21.42.642,32.449a69.716,69.716,0,0,1-10.72,27.5" transform="translate(108.246 49.316)" fill="#332b33"/>
            <path id="Path_1284655" data-name="Path 1284655" d="M101.377,88.056a93.626,93.626,0,0,1,35.977,45.43q-3.614,3.871-7.233,7.739a209.746,209.746,0,0,1-32.86-27.981c-4.481-4.685-7.392-7.752-10.025-11.724-4.038-6.088-12.88-22.525-6.274-53.215Q86.218,40.454,91.477,32.6l1.659-.2a127.414,127.414,0,0,1,4.9,15.584,129.344,129.344,0,0,1,3.336,40.078" transform="translate(119.261 49.162)" fill="#332b33"/>
            <path id="Path_1284656" data-name="Path 1284656" d="M120.688,75.816l-18.139,2.893-4.733-7.361q.264,3.153.526,6.309L76.784,81.337Q75.205,53.6,73.629,25.864q5.9-2.821,11.8-5.647,4.615-.461,9.23-.926a23.729,23.729,0,0,1,11.108,3.484,22.806,22.806,0,0,1,3.7,2.888l11.216,50.153" transform="translate(111.74 29.276)" fill="#68c6ea"/>
            <path id="Path_1284657" data-name="Path 1284657" d="M73.261,65.181,67.634,51.823l14.35-26.314q6.356-3.014,12.709-6.03L89.429,49.111,73.261,65.181" transform="translate(102.642 29.562)" fill="#68c6ea"/>
            <path id="Path_1284658" data-name="Path 1284658" d="M79.519,40.232q3.41,4.407,6.823,8.814a8.919,8.919,0,0,1-2.1,5.655c-3.056,3.517-7.767,2.943-8.15,2.89a48.129,48.129,0,0,1-5.521-5.126A49.764,49.764,0,0,1,60.053,34.456l7.754-6.966L79.519,40.232" transform="translate(91.137 41.719)" fill="#68c6ea"/>
            <path id="Path_1284659" data-name="Path 1284659" d="M109.158,51.337c.838.758,4.214,3.988,4.091,8.414-.154,5.516-5.69,10.942-13.555,11.566q-1.186-4.732-2.367-9.464-.147-2.64-.29-5.282-5.049-9.517-10.1-19.036,1.159-7.859,2.324-15.712,9.943,14.758,19.892,29.514" transform="translate(131.945 33.119)" fill="#68c6ea"/>
            <path id="Path_1284660" data-name="Path 1284660" d="M100.77,63.178a.435.435,0,0,1-.41-.284L87.15,28.06A.436.436,0,0,1,87.4,27.5a.446.446,0,0,1,.564.254l13.212,34.834a.44.44,0,0,1-.257.564.471.471,0,0,1-.154.028" transform="translate(132.217 41.695)" fill="#e4e7eb"/>
            <path id="Path_1284661" data-name="Path 1284661" d="M87.544,35.222a.45.45,0,0,1-.438-.476l.984-11.435a.455.455,0,0,1,.476-.4.443.443,0,0,1,.4.476l-.982,11.435a.438.438,0,0,1-.438.4" transform="translate(132.19 34.77)" fill="#e4e7eb"/>
            <path id="Path_1284662" data-name="Path 1284662" d="M90.751,37.835a.433.433,0,0,1-.4-.267.439.439,0,0,1,.232-.574l4.232-1.775a.437.437,0,1,1,.34.806L90.923,37.8a.417.417,0,0,1-.171.035" transform="translate(137.062 53.4)" fill="#e4e7eb"/>
            <path id="Path_1284663" data-name="Path 1284663" d="M85.746,53.737a.436.436,0,0,1-.433-.375l-3.1-22.1a.437.437,0,0,1,.37-.5.447.447,0,0,1,.5.373l3.1,22.1a.439.439,0,0,1-.373.5l-.06,0" transform="translate(124.764 46.683)" fill="#e4e7eb"/>
            <path id="Path_1284664" data-name="Path 1284664" d="M84.686,47.685a.435.435,0,0,1-.433-.383L80.872,20.682a.438.438,0,0,1,.38-.488.432.432,0,0,1,.486.38l3.381,26.621a.437.437,0,0,1-.378.488l-.055,0" transform="translate(122.727 30.635)" fill="#e4e7eb"/>
            <path id="Path_1284665" data-name="Path 1284665" d="M74.551,40.215c-.39-.123-.5-.38-.405-.6L78.2,29.6a.45.45,0,0,1,.572-.244.443.443,0,0,1,.242.571l-4.061,10.01a.437.437,0,0,1-.405.274" transform="translate(112.477 44.515)" fill="#e4e7eb"/>
            <path id="Path_1284666" data-name="Path 1284666" d="M78.9,41.345a.433.433,0,0,1-.423-.332L73.937,22.534A.436.436,0,0,1,74.254,22a.421.421,0,0,1,.529.317L79.322,40.8A.436.436,0,0,1,79,41.33a.325.325,0,0,1-.106.015" transform="translate(112.187 33.373)" fill="#e4e7eb"/>
            <path id="Path_1284667" data-name="Path 1284667" d="M102.362,24.29c1.85,3.585,7.832,1.317,11.042,5.126,1.861,2.21.325,3.542,2.367,6.835,1.9,3.064,4.066,3.268,7.623,6.047,1.631,1.274,8.044,6.286,7.362,9.99-.856,4.647-12.87,7.173-22.346,6.047A36.72,36.72,0,0,1,88.691,49.4,37.694,37.694,0,0,1,77.78,32.374c-1.362-4.5-3.854-12.726.526-17.681.363-.41,3.016-3.328,6.573-3.285,4.559.055,5.274,4.914,11.961,6.573,1.372.34,3.034.554,4.207,1.971,1.284,1.551.493,2.747,1.314,4.338" transform="translate(115.081 17.311)" fill="#332b33"/>
            <path id="Path_1284668" data-name="Path 1284668" d="M94.872,24.185a10.617,10.617,0,0,1-.254-1.609A4.275,4.275,0,0,0,93.6,19.832a6.634,6.634,0,0,0-3.744-2.1l.206-.846a7.568,7.568,0,0,1,4.207,2.389,5.106,5.106,0,0,1,1.213,3.22,10.187,10.187,0,0,0,.232,1.483Z" transform="translate(136.371 25.619)" fill="#332b33"/>
            <path id="Path_1284669" data-name="Path 1284669" d="M89.41,19.639a5.422,5.422,0,0,1-.32-1.667,3.4,3.4,0,0,0-.755-2.178A5.313,5.313,0,0,0,85.19,14.16l.2-.853a6.154,6.154,0,0,1,3.62,1.926,4.19,4.19,0,0,1,.952,2.669,4.768,4.768,0,0,0,.264,1.422Z" transform="translate(129.285 20.195)" fill="#332b33"/>
            <path id="Path_1284670" data-name="Path 1284670" d="M89.111,16.262a22.385,22.385,0,0,1-2.863-2.281c-1.526-1.38-2.732-2.465-4.8-2.492a8.014,8.014,0,0,0-1.906.277l-.247-.841a7.5,7.5,0,0,1,2.1-.31c2.467.03,3.849,1.276,5.448,2.716a20.369,20.369,0,0,0,2.744,2.193Z" transform="translate(120.334 16.11)" fill="#332b33"/>
            <path id="Path_1284671" data-name="Path 1284671" d="M99.638,32.368l-.682-.546a3.084,3.084,0,0,0,.67-1.372c.249-1.347-.546-3.082-2.362-5.154l.657-.574c2,2.281,2.86,4.262,2.563,5.884a3.939,3.939,0,0,1-.846,1.762" transform="translate(147.608 37.518)" fill="#332b33"/>
            <path id="Path_1284672" data-name="Path 1284672" d="M80.7,77.983a.445.445,0,0,1-.441-.463L81.791,52.2a.466.466,0,0,1,.05-.181l4.6-8.494a.438.438,0,1,1,.77.415l-4.554,8.411L81.136,77.573a.438.438,0,0,1-.436.41" transform="translate(121.803 65.702)" fill="#e4e7eb"/>
            <rect id="Rectangle_468817" data-name="Rectangle 468817" width="22.711" height="2.095" transform="translate(165.877 219.991)" fill="#332b33"/>
            <rect id="Rectangle_468818" data-name="Rectangle 468818" width="22.712" height="2.095" transform="matrix(0.68, -0.733, 0.733, 0.68, 255.077, 214.274)" fill="#332b33"/>
            <path id="Path_1284673" data-name="Path 1284673" d="M111.2,82.1q-3.81,1.208-7.623,2.414-1.363-1.084-2.729-2.168,3.773-3.648,7.543-7.3L111.2,82.1" transform="translate(153.041 113.895)" fill="#ffbf0b"/>
            <path id="Path_1284674" data-name="Path 1284674" d="M79.209,89.065l-7.719-.934q-.272-3.474-.544-6.951l10.607-.556q-1.171,4.222-2.344,8.442" transform="translate(107.668 122.354)" fill="#ffbf0b"/>
            <rect id="Rectangle_468819" data-name="Rectangle 468819" width="239.611" height="6.405" transform="translate(15.418 0.889)" fill="#68c6ea"/>
          </g>
        </g>
      </g>
    </g>
  </g>
</svg>
