<svg xmlns="http://www.w3.org/2000/svg" xmlns:xlink="http://www.w3.org/1999/xlink" width="69.323" height="69.323" viewBox="0 0 69.323 69.323">
  <defs>
    <clipPath id="clip-path">
      <rect id="Rectangle_468788" data-name="Rectangle 468788" width="45.529" height="45.557" fill="#fff"/>
    </clipPath>
  </defs>
  <g id="img13" transform="translate(-612 -5558)">
    <rect id="Rectangle_467849" data-name="Rectangle 467849" width="69.323" height="69.323" transform="translate(612 5558)" fill="#19538d"/>
    <g id="Group_1214926" data-name="Group 1214926" transform="translate(624 5570)">
      <g id="Group_1214925" data-name="Group 1214925" clip-path="url(#clip-path)">
        <path id="Path_1284604" data-name="Path 1284604" d="M19.816,9.909A9.908,9.908,0,1,1,9.908,0a9.908,9.908,0,0,1,9.908,9.908m-5.5,1.427a1.333,1.333,0,1,0-.094-2.665l-2.887,0,.009-4.232a1.356,1.356,0,0,0-1.223-1.467A1.3,1.3,0,0,0,8.673,4.2l-.006,5.829a1.362,1.362,0,0,0,1.4,1.314Z" transform="translate(0 -0.001)" fill="#fff"/>
        <path id="Path_1284605" data-name="Path 1284605" d="M82.566,188.122c.86,0,1.142.936,1.074,1.469a1.312,1.312,0,0,1-1.4,1.17l-37.139,0a1.276,1.276,0,0,1-1.251-1.2L43.844,167a27.2,27.2,0,0,0,2.654.6l0,20.515Z" transform="translate(-38.121 -145.203)" fill="#fff"/>
        <path id="Path_1284606" data-name="Path 1284606" d="M271.164,199.783l-8.38.01V184.908a1.362,1.362,0,0,1,1.355-1.369l5.749,0a1.3,1.3,0,0,1,1.275,1.367Z" transform="translate(-228.485 -159.583)" fill="#fff"/>
        <path id="Path_1284607" data-name="Path 1284607" d="M115.317,100.544,89.483,115.449a1.325,1.325,0,0,1-1.757-.675,1.312,1.312,0,0,1,.548-1.707l25.778-14.881a5,5,0,0,1-1.27-.477,1.326,1.326,0,0,1-.357-1.612,1.291,1.291,0,0,1,1.313-.754l4.019,1.049A1.343,1.343,0,0,1,118.82,98l-1.1,4.082a1.327,1.327,0,0,1-1.864.731c-.759-.395-.82-1.181-.54-2.266" transform="translate(-76.165 -82.878)" fill="#fff"/>
        <path id="Path_1284608" data-name="Path 1284608" d="M183.453,243.887l-8.393.008v-8.235a1.414,1.414,0,0,1,1.106-1.4h6.2a1.377,1.377,0,0,1,1.087,1.131Z" transform="translate(-152.21 -203.686)" fill="#fff"/>
        <path id="Path_1284609" data-name="Path 1284609" d="M95.931,287.787l-8.386,0-.007-1.7a1.361,1.361,0,0,1,1.383-1.343h5.623a1.348,1.348,0,0,1,1.384,1.357Z" transform="translate(-76.112 -247.582)" fill="#fff"/>
      </g>
    </g>
  </g>
</svg>
