<svg xmlns="http://www.w3.org/2000/svg" xmlns:xlink="http://www.w3.org/1999/xlink" width="96" height="96" viewBox="0 0 96 96">
  <defs>
    <clipPath id="clip-path">
      <rect id="Rectangle_456267" data-name="Rectangle 456267" width="96" height="96" fill="none"/>
    </clipPath>
    <clipPath id="clip-path-2">
      <rect id="Rectangle_468824" data-name="Rectangle 468824" width="51.183" height="49.494" fill="#0f654d"/>
    </clipPath>
  </defs>
  <g id="img26" transform="translate(479.746 8495) rotate(180)">
    <path id="Path_999622" data-name="Path 999622" d="M43.07,0A43.07,43.07,0,1,1,0,43.07,43.071,43.071,0,0,1,43.07,0" transform="translate(388.676 8403.93)" fill="#e3fbf9"/>
    <g id="Group_1179902" data-name="Group 1179902" transform="translate(383.746 8399)">
      <g id="Group_1179905" data-name="Group 1179905" clip-path="url(#clip-path)">
        <path id="Path_999618" data-name="Path 999618" d="M48,0A48,48,0,1,1,0,48,48,48,0,0,1,48,0" fill="none"/>
        <path id="Path_999619" data-name="Path 999619" d="M3.75,59A3.75,3.75,0,1,1,0,62.75,3.75,3.75,0,0,1,3.75,59" transform="translate(0 -14.75)" fill="#0f654d"/>
        <path id="Path_999620" data-name="Path 999620" d="M19.75,19A3.75,3.75,0,1,1,16,22.75,3.75,3.75,0,0,1,19.75,19" transform="translate(-4 -4.75)" fill="#0f654d"/>
        <path id="Path_999621" data-name="Path 999621" d="M49,94A45.051,45.051,0,0,1,4,49H6.25A42.75,42.75,0,1,0,17.806,19.768l-1.641-1.539A45,45,0,1,1,49,94" transform="translate(-1 -1)" fill="#0f654d"/>
        <rect id="Rectangle_456268" data-name="Rectangle 456268" width="96" height="96" fill="none"/>
        <rect id="Rectangle_456269" data-name="Rectangle 456269" width="96" height="96" fill="none"/>
      </g>
    </g>
    <g id="Group_1179903" data-name="Group 1179903" transform="translate(458.745 8474.508) rotate(180)">
      <g id="Group_1099618" data-name="Group 1099618" transform="translate(0 0)">
        <rect id="Rectangle_401104" data-name="Rectangle 401104" width="54.153" height="54.806" transform="translate(0)" fill="none"/>
      </g>
      <g id="Group_1214940" data-name="Group 1214940" transform="translate(1.51 2.102)">
        <g id="Group_1214939" data-name="Group 1214939" clip-path="url(#clip-path-2)">
          <path id="Path_1284738" data-name="Path 1284738" d="M10.337,44.836,4.517,39a.874.874,0,0,1,.045-1.055L6.137,36.4a23.1,23.1,0,0,1-2.889-6.709l-2.425,0a.858.858,0,0,1-.824-.8l.021-6.154c.01-2.843,2.188-4.743,4.843-5.266l4.163-.82c.317-1.308-.185-1.7-1.011-2.649a2.546,2.546,0,0,1-3.031-2.143A2.427,2.427,0,0,1,7.436,9.093l.022-1.838a4.94,4.94,0,0,1,9.878.156l.012,1.682a2.6,2.6,0,0,1,2.34,1.555,4.927,4.927,0,0,1,4.177-2.394l3.158-.013a4.134,4.134,0,0,1,3.458,1.994L30.563,7.3A7.828,7.828,0,0,1,39.288.048a8.475,8.475,0,0,1,7.7,8.125l.048,9.482a5.259,5.259,0,0,1,4.12,5.065l.026,6.167a.871.871,0,0,1-.826.8l-2.425,0A23.514,23.514,0,0,1,45.04,36.4l1.581,1.545a.887.887,0,0,1,.046,1.058L40.684,45a.951.951,0,0,1-.975.017L38.06,43.384a22.99,22.99,0,0,1-7.531,3.094l-.007,2.279a.847.847,0,0,1-.768.737H21.426a.863.863,0,0,1-.773-.733l.02-2.26a23.613,23.613,0,0,1-7.551-3.118l-1.554,1.542a.845.845,0,0,1-1.231-.089M35.179,5.109A10.172,10.172,0,0,0,42.9,8.221c.49-.018.653.608.916.72l1.532.65A7.088,7.088,0,0,0,43.2,3.571a6.906,6.906,0,0,0-6.084-1.783A6.072,6.072,0,0,0,32.2,7.561l-.031,2.1a4.232,4.232,0,0,1,1.666-.615V5.887a1.3,1.3,0,0,1,.337-.809,1.071,1.071,0,0,1,1.008.031m-19.811.914A3.279,3.279,0,0,0,9.414,6.01a5.881,5.881,0,0,1,1.557.5c1.879,1.028,2.707-.251,4.4-.489m26.7,5.8L42.1,9.89A12.216,12.216,0,0,1,35.5,7.577l.012,4.09a3.245,3.245,0,0,0,3.237,3.171,3.207,3.207,0,0,0,3.312-3.02M15.688,8.335a.77.77,0,0,0-.307-.545c-.586-.214-2.651,1.791-5.388.068a.924.924,0,0,0-.65-.046.8.8,0,0,0-.269.54l.039,3.4a3.236,3.236,0,0,0,3.307,3.09,3.2,3.2,0,0,0,3.226-3.033Zm14.8,6.648-.013-2.08c-.005-.836-.926-1.164-1.324-1.664a2.684,2.684,0,0,0-2.3-1.367L23.847,9.9a3.168,3.168,0,0,0-3.154,2.956l-.029,4.117a1.341,1.341,0,0,1,1.213-.489,5.242,5.242,0,0,0,5.275-2.571,1.123,1.123,0,0,1,1.461-.67,2.711,2.711,0,0,1,1.879,1.735M7.414,10.7c-.714.207-.844.589-.783,1.012a.993.993,0,0,0,.846.695Zm9.9,1.7c.634-.136.9-.532.84-.969a.891.891,0,0,0-.786-.717Zm16.507-1.681a.815.815,0,0,0-.775,1.016,1.069,1.069,0,0,0,.828.661Zm9.888,1.7a.952.952,0,0,0,.863-.845.911.911,0,0,0-.81-.864ZM15.717,16.657l3.289.648.007-3.883a3.89,3.89,0,0,1-2.376.658l-.871,1.141c-.2.258-.087,1.061-.049,1.436m19.675-1.462-.847-1.109a3.963,3.963,0,0,1-2.379-.663l.008,3.882,3.3-.658c.032-.376.121-1.185-.083-1.452m6.778,1.462,3.21.649,0-3.854a3.842,3.842,0,0,1-2.31.614L42.148,15.3c-.182.244-.041,1.052.021,1.357M28.862,19.922l.023-4.324a.908.908,0,0,0-.428-.585A6.877,6.877,0,0,1,22.3,18.16l.03,1.978A3.191,3.191,0,0,0,25.721,23.1a3.253,3.253,0,0,0,3.141-3.174M15.5,18.31c-.479-.08-1.211-.25-1.328-.558A4.471,4.471,0,0,1,14,16.223a5.21,5.21,0,0,1-3.266,0,7.072,7.072,0,0,1-.111,1.485c-.074.351-.885.548-1.351.585a3.222,3.222,0,0,0,3.146,2.321,3.19,3.19,0,0,0,3.081-2.3m26.388,0c-.524-.1-1.174-.248-1.284-.523a4.02,4.02,0,0,1-.143-1.563,5.3,5.3,0,0,1-3.288,0,3.023,3.023,0,0,1-.216,1.594c-.2.308-.9.424-1.288.486a3.249,3.249,0,0,0,6.218.006M18.154,23.923l1.64-.006.026,1.477,2.466-.49a5.393,5.393,0,0,0-.062-1.447l-.978-1.21a2.719,2.719,0,0,1-2.5-.857,2.487,2.487,0,0,1-.414-2.527l-1.154-.244a4.965,4.965,0,0,1-4.753,3.634,4.867,4.867,0,0,1-4.794-3.642l-3.246.681a3.628,3.628,0,0,0-2.725,3.549l-.008,5.192,3.289,0,0-4.112,1.666,0v4.118l7.576,0a5.757,5.757,0,0,1,3.985-2.346Zm27.242-.79,1.629-.013a6.1,6.1,0,0,1-1.551,4.292l-.052.625h4.109l-.009-5.2a3.58,3.58,0,0,0-2.609-3.507l-3.362-.719a4.877,4.877,0,0,1-4.795,3.644A4.977,4.977,0,0,1,34,18.624l-1.153.243a2.5,2.5,0,0,1-.486,2.607,2.832,2.832,0,0,1-2.431.778L28.9,23.529l-.016,1.38,1.939.368-.347-2.134,1.672-.023a5.56,5.56,0,0,0,.779,2.6,5.536,5.536,0,0,1,4.081,2.316l6.733,0c-.332-1.66,1.738-2.169,1.656-4.9m-24.764-4.2c-.417.087-.831.48-.825.823a.843.843,0,0,0,.876.857Zm9.878,1.7a.851.851,0,0,0,.847-1c-.036-.278-.44-.609-.822-.705Zm-1.825,5.888c-.563-.064-1.327-.261-1.357-.594L27.2,24.463a4.568,4.568,0,0,1-3.212,0,9.871,9.871,0,0,1-.138,1.466c-.081.391-.919.558-1.374.581a3.223,3.223,0,0,0,6.213.014m2.694,5.668,1.646.031,0,4.107H36.3l.013-5.161A3.635,3.635,0,0,0,33.432,27.5l-3.076-.6a4.946,4.946,0,0,1-9.531,0l-3.1.6A3.5,3.5,0,0,0,14.91,30.71l-.041,5.618h3.285l0-4.118L19.8,32.2l.017,4.135H31.378ZM40.2,43.168,44.861,38.5l-1.41-1.382a.937.937,0,0,1-.13-1.138,20.8,20.8,0,0,0,2.9-6.288l-4.9-.009a16,16,0,0,1-3.349,5.939l-.015,1.48a.909.909,0,0,1-.92.875l-1.639.017a16.37,16.37,0,0,1-19.612,0l-1.773-.036a.926.926,0,0,1-.795-1.005l0-1.337a15.848,15.848,0,0,1-3.351-5.934l-4.9.01a20.7,20.7,0,0,0,2.9,6.289A.958.958,0,0,1,7.8,37.029l-1.464,1.5L11,43.178l1.579-1.551c.187-.184.8-.1,1.044.072A20.806,20.806,0,0,0,21.675,45a.962.962,0,0,1,.634.824l0,2.01H28.87l.013-2.152c0-.269.425-.66.738-.715a20.584,20.584,0,0,0,8.038-3.321.97.97,0,0,1,1.031.059Zm-26.883-13.5-1.749.014A18.716,18.716,0,0,0,13.179,32.9ZM39.6,29.7l-1.745-.039L38,32.9a18.59,18.59,0,0,0,1.6-3.2m-7.338,8.279H18.932a14.463,14.463,0,0,0,13.334,0" transform="translate(0 0)" fill="#0f654d"/>
        </g>
      </g>
    </g>
  </g>
</svg>
