<svg xmlns="http://www.w3.org/2000/svg" xmlns:xlink="http://www.w3.org/1999/xlink" width="96" height="96" viewBox="0 0 96 96">
  <defs>
    <clipPath id="clip-path">
      <rect id="Rectangle_456267" data-name="Rectangle 456267" width="96" height="96" fill="none"/>
    </clipPath>
    <clipPath id="clip-path-2">
      <rect id="Rectangle_468823" data-name="Rectangle 468823" width="54" height="58" transform="translate(-0.412 -0.196)" fill="#0f654d"/>
    </clipPath>
  </defs>
  <g id="img25" transform="translate(479.746 8495) rotate(180)">
    <path id="Path_999622" data-name="Path 999622" d="M43.07,0A43.07,43.07,0,1,1,0,43.07,43.071,43.071,0,0,1,43.07,0" transform="translate(388.676 8403.93)" fill="#e3fbf9"/>
    <g id="Group_1179902" data-name="Group 1179902" transform="translate(383.746 8399)">
      <g id="Group_1179905" data-name="Group 1179905" clip-path="url(#clip-path)">
        <path id="Path_999618" data-name="Path 999618" d="M48,0A48,48,0,1,1,0,48,48,48,0,0,1,48,0" fill="none"/>
        <path id="Path_999619" data-name="Path 999619" d="M3.75,59A3.75,3.75,0,1,1,0,62.75,3.75,3.75,0,0,1,3.75,59" transform="translate(0 -14.75)" fill="#0f654d"/>
        <path id="Path_999620" data-name="Path 999620" d="M19.75,19A3.75,3.75,0,1,1,16,22.75,3.75,3.75,0,0,1,19.75,19" transform="translate(-4 -4.75)" fill="#0f654d"/>
        <path id="Path_999621" data-name="Path 999621" d="M49,94A45.051,45.051,0,0,1,4,49H6.25A42.75,42.75,0,1,0,17.806,19.768l-1.641-1.539A45,45,0,1,1,49,94" transform="translate(-1 -1)" fill="#0f654d"/>
        <rect id="Rectangle_456268" data-name="Rectangle 456268" width="96" height="96" fill="none"/>
        <rect id="Rectangle_456269" data-name="Rectangle 456269" width="96" height="96" fill="none"/>
      </g>
    </g>
    <g id="Group_1179903" data-name="Group 1179903" transform="translate(456.534 8472.181) rotate(180)">
      <g id="Group_1099618" data-name="Group 1099618" transform="translate(-0.229 -0.325)">
        <rect id="Rectangle_401104" data-name="Rectangle 401104" width="50.063" height="50.666" transform="translate(0)" fill="none"/>
      </g>
      <g id="Group_1214938" data-name="Group 1214938" transform="translate(-2.546 -4.622)">
        <g id="Group_1214937" data-name="Group 1214937" transform="translate(0 0)" clip-path="url(#clip-path-2)">
          <path id="Path_1284706" data-name="Path 1284706" d="M36.42,50.145l-22.615,0a2.2,2.2,0,0,1-2.2-2.161l0-8.909a2.183,2.183,0,0,1,2.044-2.146l10.692,0,0-4.139H.733A.715.715,0,0,1,0,32.137V.74A.726.726,0,0,1,.754,0H49.4a.731.731,0,0,1,.754.74v31.4a.716.716,0,0,1-.731.657H25.809l0,4.138,10.7,0a2.145,2.145,0,0,1,2.024,2.008l.012,9.051a2.172,2.172,0,0,1-2.123,2.152M1.452,4.888H48.7V1.441H1.452Zm0,26.44H15.663V6.339H1.452Zm15.675,0H48.7V6.339H17.127ZM36.366,48.692a.829.829,0,0,0,.71-.842v-8.63a.8.8,0,0,0-.879-.842H13.955a.8.8,0,0,0-.88.841l0,8.776a.829.829,0,0,0,.753.7Z" transform="translate(1.64 3.854)" fill="#0f654d"/>
          <path id="Path_1284707" data-name="Path 1284707" d="M162.058,65.675H137.032a.8.8,0,0,1-.839-.736l-.015-3.008a.871.871,0,0,1,.734-.678h25.08a.789.789,0,0,1,.865.819l.005,2.741a.81.81,0,0,1-.8.861m-.687-2.941h-23.7v1.492h23.7Z" transform="translate(-114.97 -48.597)" fill="#0f654d"/>
          <path id="Path_1284708" data-name="Path 1284708" d="M146.739,118.328l-9.677,0a.836.836,0,0,1-.838-.863v-7.736a.807.807,0,0,1,.823-.733l9.78,0c.337,0,.646.4.689.724v7.873a.924.924,0,0,1-.78.737m-.709-7.885h-8.316v6.425h8.316Z" transform="translate(-115.009 -89.475)" fill="#0f654d"/>
          <path id="Path_1284709" data-name="Path 1284709" d="M162.24,192.44l-25.3,0a.829.829,0,0,1-.7-.684.734.734,0,0,1,.7-.755h25.254a.789.789,0,0,1,.713.647c.016.327-.2.632-.667.795" transform="translate(-115.02 -159.698)" fill="#0f654d"/>
          <path id="Path_1284710" data-name="Path 1284710" d="M244,137.692l-11.6,0a.839.839,0,0,1-.654-.727.887.887,0,0,1,.634-.758l11.6,0a.854.854,0,0,1,.706.634.762.762,0,0,1-.68.843" transform="translate(-196.804 -112.783)" fill="#0f654d"/>
          <path id="Path_1284711" data-name="Path 1284711" d="M244.1,165.238l-11.388,0a.934.934,0,0,1-.861-.532c-.1-.238.1-.921.438-.921l11.93-.01c.241,0,.559.46.549.674a.993.993,0,0,1-.667.787" transform="translate(-196.872 -136.388)" fill="#0f654d"/>
          <path id="Path_1284712" data-name="Path 1284712" d="M267.4,110.454l-7.862,0c-.321,0-.592-.517-.554-.8a.887.887,0,0,1,.706-.648h7.642c.3,0,.631.408.681.663.047.236-.258.783-.612.784" transform="translate(-220.126 -89.489)" fill="#0f654d"/>
          <path id="Path_1284713" data-name="Path 1284713" d="M233.807,110.189c-1.111.242-2.025.158-2.084-.593-.016-.2.191-.659.389-.7,1.054-.207,1.937-.157,2.084.583.036.183-.195.666-.389.709" transform="translate(-196.784 -89.304)" fill="#0f654d"/>
          <path id="Path_1284714" data-name="Path 1284714" d="M30.777,148.778H21.163a.8.8,0,0,1-.811-.627.807.807,0,0,1,.716-.85l9.836,0a.832.832,0,0,1,.727.732.782.782,0,0,1-.855.751" transform="translate(-15.781 -122.275)" fill="#0f654d"/>
          <path id="Path_1284715" data-name="Path 1284715" d="M30.985,192.4l-9.844.014a.924.924,0,0,1-.787-.569c-.088-.249.181-.87.523-.87l10.052-.012a.85.85,0,0,1,.707.648c.041.241-.275.789-.651.79" transform="translate(-15.774 -159.671)" fill="#0f654d"/>
          <path id="Path_1284716" data-name="Path 1284716" d="M48.621,127.259l-7.124,0c-.236,0-.589-.444-.583-.666a1.141,1.141,0,0,1,.444-.788l7.057-.006a.879.879,0,0,1,.821.554c.094.262-.189.9-.616.9" transform="translate(-33.394 -103.87)" fill="#0f654d"/>
          <path id="Path_1284717" data-name="Path 1284717" d="M48.726,170.581l-7.288-.009c-.278,0-.57-.446-.576-.678-.005-.249.3-.758.6-.758l7.033-.011a.982.982,0,0,1,.68.539.9.9,0,0,1-.451.918" transform="translate(-33.351 -140.968)" fill="#0f654d"/>
          <path id="Path_1284718" data-name="Path 1284718" d="M50.442,61.59a.854.854,0,0,1-.832.7c-.308-.015-.748-.434-.659-.794l1.576-6.343a.787.787,0,0,1,.792-.639.725.725,0,0,1,.653.914Z" transform="translate(-40.267 -42.824)" fill="#0f654d"/>
          <path id="Path_1284719" data-name="Path 1284719" d="M23.663,67.216A.839.839,0,0,1,23.9,68.3a.818.818,0,0,1-1.018.195l-2.128-1.808a1.509,1.509,0,0,1-.426-.6,1.011,1.011,0,0,1,.31-.685l2.169-1.881a.815.815,0,0,1,1.017.059.788.788,0,0,1-.035,1.057L22.2,66Z" transform="translate(-15.762 -50.413)" fill="#0f654d"/>
          <path id="Path_1284720" data-name="Path 1284720" d="M74.452,68.443a.772.772,0,0,1-1.041-.209.852.852,0,0,1,.285-1.076l1.44-1.212-1.468-1.223a.823.823,0,0,1-.186-1.164.811.811,0,0,1,1.172.036l2.173,1.9a.837.837,0,0,1-.047.974Z" transform="translate(-61.138 -50.371)" fill="#0f654d"/>
          <path id="Path_1284721" data-name="Path 1284721" d="M21.959,125.782c.294.037.448.739.318.961a1.137,1.137,0,0,1-.946.444.861.861,0,0,1-.956-.7.778.778,0,0,1,.78-.8Z" transform="translate(-15.803 -103.764)" fill="#0f654d"/>
          <path id="Path_1284722" data-name="Path 1284722" d="M21.657,168.976a.8.8,0,0,1,.8.789c-.041.544-.447.727-1.039.712a1.173,1.173,0,0,1-.839-.414.875.875,0,0,1,.085-.815,1.579,1.579,0,0,1,.992-.271" transform="translate(-15.927 -140.84)" fill="#0f654d"/>
          <path id="Path_1284723" data-name="Path 1284723" d="M144.035,319.7l-10.5.007a.866.866,0,0,1-.774-.762.818.818,0,0,1,.754-.761h10.489a.885.885,0,0,1,.742.626.811.811,0,0,1-.715.89" transform="translate(-112.047 -268.604)" fill="#0f654d"/>
          <path id="Path_1284724" data-name="Path 1284724" d="M166.54,278.786l-1.7-.033a.893.893,0,0,1-.674-.749.809.809,0,0,1,.823-.755l1.333,0a.852.852,0,0,1,.8.639,1.021,1.021,0,0,1-.589.9" transform="translate(-138.938 -233.553)" fill="#0f654d"/>
          <path id="Path_1284725" data-name="Path 1284725" d="M103.557,278.693l-1.689.038c-.271.006-.645-.423-.681-.661-.045-.3.25-.825.553-.832l1.6-.038a.857.857,0,0,1,.79.664c.057.26-.252.822-.571.83" transform="translate(-85.004 -233.511)" fill="#0f654d"/>
          <path id="Path_1284726" data-name="Path 1284726" d="M229.646,278.739l-1.7.018c-.3,0-.673-.477-.658-.747a.81.81,0,0,1,.805-.769l1.328,0a.839.839,0,0,1,.812.635c.061.268-.267.856-.586.859" transform="translate(-192.986 -233.548)" fill="#0f654d"/>
          <path id="Path_1284727" data-name="Path 1284727" d="M103.343,319.663l-1.48,0c-.3,0-.675-.474-.667-.753a.8.8,0,0,1,.821-.769h1.322a.782.782,0,0,1,.8.742.826.826,0,0,1-.792.777" transform="translate(-85.015 -268.572)" fill="#0f654d"/>
          <path id="Path_1284728" data-name="Path 1284728" d="M229.671,319.629l-1.7.009c-.3,0-.655-.47-.652-.763a.786.786,0,0,1,.8-.747l1.333,0a.887.887,0,0,1,.808.648c.058.265-.281.857-.589.858" transform="translate(-193.012 -268.555)" fill="#0f654d"/>
          <path id="Path_1284729" data-name="Path 1284729" d="M135.116,278.757l-1.791.021c-.263,0-.611-.507-.6-.755a.863.863,0,0,1,.745-.735l1.471,0a.968.968,0,0,1,.726.606c.062.26-.246.857-.546.861" transform="translate(-112.009 -233.588)" fill="#0f654d"/>
          <path id="Path_1284730" data-name="Path 1284730" d="M198.164,278.748l-1.807.027c-.258,0-.626-.506-.618-.756a.867.867,0,0,1,.743-.741l1.471,0a.991.991,0,0,1,.73.6c.061.242-.256.859-.52.863" transform="translate(-165.972 -233.579)" fill="#0f654d"/>
          <path id="Path_1284731" data-name="Path 1284731" d="M166.515,299.41l-1.741.019c-.244,0-.637-.427-.657-.667a.812.812,0,0,1,.663-.77l1.655,0c.267,0,.63.4.668.648s-.309.77-.588.773" transform="translate(-138.893 -251.314)" fill="#0f654d"/>
          <path id="Path_1284732" data-name="Path 1284732" d="M135,299.379l-1.5.01a.914.914,0,0,1-.691-.524c-.071-.276.147-.886.424-.891l1.776-.037a.78.78,0,0,1,.72.643.74.74,0,0,1-.728.8" transform="translate(-112.069 -251.27)" fill="#0f654d"/>
          <path id="Path_1284733" data-name="Path 1284733" d="M198.31,299.339l-1.782.064a.809.809,0,0,1-.725-.658.719.719,0,0,1,.745-.8l1.724.031c.212,0,.451.424.47.621s-.2.732-.433.74" transform="translate(-166.026 -251.278)" fill="#0f654d"/>
          <path id="Path_1284734" data-name="Path 1284734" d="M103.565,299.4l-1.74.021c-.269,0-.643-.423-.659-.666a.781.781,0,0,1,.673-.776l1.73.022c.239,0,.529.435.551.642.025.233-.3.754-.554.757" transform="translate(-84.987 -251.306)" fill="#0f654d"/>
          <path id="Path_1284735" data-name="Path 1284735" d="M229.681,299.367l-1.607.039a.95.95,0,0,1-.751-.581c-.083-.253.2-.842.5-.848l1.779-.033c.271-.005.627.4.662.658.033.242-.295.758-.581.765" transform="translate(-193.005 -251.275)" fill="#0f654d"/>
          <path id="Path_1284736" data-name="Path 1284736" d="M286.205,18.295c-1.067.283-2.064.151-2.145-.583-.026-.239.3-.729.559-.745,1.048-.068,1.85-.107,1.918.619.016.172-.149.66-.332.708" transform="translate(-241.6 -10.645)" fill="#0f654d"/>
          <path id="Path_1284737" data-name="Path 1284737" d="M313.333,18.432l-1.118.025a.838.838,0,0,1-.739-.68.759.759,0,0,1,.778-.794l1.016,0a.93.93,0,0,1,.677.656c.026.306-.338.782-.613.788" transform="translate(-265.076 -10.689)" fill="#0f654d"/>
        </g>
      </g>
    </g>
  </g>
</svg>
