<svg xmlns="http://www.w3.org/2000/svg" xmlns:xlink="http://www.w3.org/1999/xlink" width="85" height="85" viewBox="0 0 85 85">
  <defs>
    <clipPath id="clip-path">
      <rect id="Rectangle_468780" data-name="Rectangle 468780" width="66.911" height="66.552" fill="#12263f"/>
    </clipPath>
  </defs>
  <g id="img20" transform="translate(-705.629 -409.811)">
    <g id="Group_1180019" data-name="Group 1180019">
      <g id="Group_1180023" data-name="Group 1180023">
        <rect id="Rectangle_456333" data-name="Rectangle 456333" width="85" height="85" rx="10" transform="translate(705.629 409.811)" fill="#68eae0"/>
        <g id="Group_1214916" data-name="Group 1214916" transform="translate(714.628 418.81)">
          <g id="Group_1214915" data-name="Group 1214915" clip-path="url(#clip-path)">
            <path id="Path_1284584" data-name="Path 1284584" d="M52.878,58.137a4.421,4.421,0,0,1,4.278,3.356,24.371,24.371,0,0,1,.077,4.29c-.008.346-.721.768-1.2.768H15.612a1.2,1.2,0,0,1-1.243-1.139,27.548,27.548,0,0,1,.092-3.748,4.408,4.408,0,0,1,4.259-3.518l6.617-.064-.006-5.167L10.4,52.891a5.584,5.584,0,0,1-5.611-5.442l-.063-7.013c-1.324-.682-2.673-1.9-2.677-3.529L2.013,22.1A5.6,5.6,0,0,1,0,18.059L.006,9.633A2.722,2.722,0,0,1,2.67,7.03l11.017-.014.051-2.775A4.435,4.435,0,0,1,18.189,0H28.927a4.5,4.5,0,0,1,4.427,4.056c.1.974.059,1.94.065,2.957l11.187.037A2.637,2.637,0,0,1,47.073,9.8l14.585.062A5.522,5.522,0,0,1,66.9,15.391l.009,31.762a5.761,5.761,0,0,1-5.779,5.777c-.253.39-1.021,1.094-1.389.943l-2.3-.94-3.147,1.311-1.2,2.638-4.766.047a1.443,1.443,0,0,1-1.017-.705L46.4,54l-.077,4.083ZM29.058,3.126c.76,0,1.235,1.012,1.237,1.516l.012,2.375L31.261,7l-.032-2.564a2.408,2.408,0,0,0-2.463-2.282H18.353a2.44,2.44,0,0,0-2.494,2.484L15.87,7.01l.927,0,.036-2.5a1.5,1.5,0,0,1,1.485-1.4Zm-.929,2.12h-9.15V7.021h9.15ZM44.951,17.677l-.029-8.453L36.4,9.172l-.05,4.615a3.163,3.163,0,0,1-2.992,2.978l-19.389.013a3.182,3.182,0,0,1-3.23-3.208l0-4.4-8.566.058.025,9.008A3.907,3.907,0,0,0,4.231,21.1c3.862,2.444,9.562,2.888,14.351,3.268a5.272,5.272,0,0,1,9.925-.009l3.278-.283c4.455-.385,13.182-1.785,13.165-6.4M33.237,14.622a1.146,1.146,0,0,0,.985-1.036l-.018-4.4H12.911L12.9,13.581a1.091,1.091,0,0,0,1.063,1.04ZM62.9,33.458l1.216,2.782a.9.9,0,0,0,.647.416L64.73,15.195a3.392,3.392,0,0,0-3.261-3.208l-14.382-.02.022,1.7,14.147,0a1.669,1.669,0,0,1,1.788,1.682l.01,14.479a1.245,1.245,0,0,1,.626,1.808Zm-9.3-8.649.807,1.855a23.431,23.431,0,0,1,2.955,1.221l2.01-.851a1.646,1.646,0,0,1,1.534.407V15.812l-13.807,0c.087,2.7,0,4.377-2,6.29L45.089,27c2.227-.042,1.434-1.889,2.786-3.091l4.792,0c.335,0,.806.615.931.9M26.608,26.087a3.057,3.057,0,1,0-3.057,3.057,3.057,3.057,0,0,0,3.057-3.057M37.283,30.1l3.239-3.165a5.712,5.712,0,0,1,2.4.762l-.007-4.044c-4.608,2.064-9.354,2.459-14.147,2.861a5.238,5.238,0,0,1-10.44-.014c-4.843-.308-9.68-.84-14.148-2.878L4.164,36.113a2.211,2.211,0,0,0,2.1,2.468l27.584,0a1.378,1.378,0,0,1,.964-1.389l1.793-.7,1.26-3.161-.893-2.042a1.551,1.551,0,0,1,.309-1.188M51.794,54.7l.949-2.352a14.29,14.29,0,0,0,4.42-1.838l2.466.975L61.5,49.553l-.995-2.34a15.988,15.988,0,0,0,1.864-4.489l2.383-1.008-.009-2.673L62.356,38.02a16.82,16.82,0,0,0-1.862-4.469l.989-2.311-1.921-1.931-2.27.987a18.867,18.867,0,0,0-4.559-1.877l-1.028-2.392-2.716.047a6.466,6.466,0,0,1-1.079,2.383A21.389,21.389,0,0,0,43.471,30.3l-2.246-.987-1.9,1.9.966,2.3a20.365,20.365,0,0,0-1.861,4.518L36.049,39.1l.022,2.649,2.345.977a16.675,16.675,0,0,0,1.874,4.495l-.982,2.4,1.824,1.85,2.443-.941A20.444,20.444,0,0,0,48.1,52.415l.97,2.334ZM37.832,47.266l-.953-2.09-27.018,0a1.2,1.2,0,0,1-1.247-1.135l-.01-3.3-1.685.009-.01,6.267c0,1.648,1.21,3.667,3.148,3.67l27.247.037c-.971-1.2.37-2.006.527-3.46M33.939,40.74l-23.158.006v2.272l23.158-.007Zm30.815,6.552,0-3.083c-.1-.072-.549.137-.626.324L62.914,47.5l.933,2.026a3.652,3.652,0,0,0,.908-2.231M39.627,52.919l-12.139,0,.015,5.177,16.677-.006-.011-4.707c-1.361-1.4-2.938,1.941-4.542-.462M55.086,64.383a12.245,12.245,0,0,0-.055-2.527,2.428,2.428,0,0,0-2.308-1.587H18.943A2.425,2.425,0,0,0,16.6,62.037a14.656,14.656,0,0,0-.039,2.34Z" transform="translate(0)" fill="#12263f"/>
            <path id="Path_1284585" data-name="Path 1284585" d="M229.146,170.27a8.359,8.359,0,1,1-8.359-8.359,8.359,8.359,0,0,1,8.359,8.359m-2.165,0a6.2,6.2,0,1,0-6.2,6.2,6.2,6.2,0,0,0,6.2-6.2" transform="translate(-170.39 -129.87)" fill="#12263f"/>
            <path id="Path_1284586" data-name="Path 1284586" d="M242.141,185.73c-.365.266-.6,1.038-1.145,1.023-.758-.02-.823-.5-1.263-.99-.686-.764-1.89-1.066-2.176-2.327a1.222,1.222,0,0,1,.7-1.457c.68-.2,1.182.252,1.476.934a1.432,1.432,0,0,0,2.441-.018c-.358-1.133-2.7-.384-4.008-2.216a2.692,2.692,0,0,1-.2-2.536c.254-.642,1.152-1.139,1.761-1.726.343-.33.5-1.032,1.063-1.057.742-.033.9.515,1.335,1.028.575.682,1.606.963,1.929,2.023a1.189,1.189,0,0,1-.561,1.422c-1.457.586-1.469-1.852-3.092-1.184a1.078,1.078,0,0,0-.506.6c-.13,1.041,4.783.348,4.412,4.113-.115,1.17-1.135,1.622-2.164,2.373" transform="translate(-190.518 -140.655)" fill="#12263f"/>
          </g>
        </g>
      </g>
    </g>
  </g>
</svg>
