<svg xmlns="http://www.w3.org/2000/svg" xmlns:xlink="http://www.w3.org/1999/xlink" width="96" height="96" viewBox="0 0 96 96">
  <defs>
    <clipPath id="clip-path">
      <rect id="Rectangle_456267" data-name="Rectangle 456267" width="96" height="96" fill="none"/>
    </clipPath>
    <clipPath id="clip-path-2">
      <rect id="Rectangle_468828" data-name="Rectangle 468828" width="51.518" height="51.557" fill="#0f654d"/>
    </clipPath>
  </defs>
  <g id="img27" transform="translate(479.746 8495) rotate(180)">
    <path id="Path_999622" data-name="Path 999622" d="M43.07,0A43.07,43.07,0,1,1,0,43.07,43.071,43.071,0,0,1,43.07,0" transform="translate(388.676 8403.93)" fill="#e3fbf9"/>
    <g id="Group_1179902" data-name="Group 1179902" transform="translate(383.746 8399)">
      <g id="Group_1179905" data-name="Group 1179905" clip-path="url(#clip-path)">
        <path id="Path_999618" data-name="Path 999618" d="M48,0A48,48,0,1,1,0,48,48,48,0,0,1,48,0" fill="none"/>
        <path id="Path_999619" data-name="Path 999619" d="M3.75,59A3.75,3.75,0,1,1,0,62.75,3.75,3.75,0,0,1,3.75,59" transform="translate(0 -14.75)" fill="#0f654d"/>
        <path id="Path_999620" data-name="Path 999620" d="M19.75,19A3.75,3.75,0,1,1,16,22.75,3.75,3.75,0,0,1,19.75,19" transform="translate(-4 -4.75)" fill="#0f654d"/>
        <path id="Path_999621" data-name="Path 999621" d="M49,94A45.051,45.051,0,0,1,4,49H6.25A42.75,42.75,0,1,0,17.806,19.768l-1.641-1.539A45,45,0,1,1,49,94" transform="translate(-1 -1)" fill="#0f654d"/>
        <rect id="Rectangle_456268" data-name="Rectangle 456268" width="96" height="96" fill="none"/>
        <rect id="Rectangle_456269" data-name="Rectangle 456269" width="96" height="96" fill="none"/>
      </g>
    </g>
    <g id="Group_1179903" data-name="Group 1179903" transform="translate(458.745 8474.508) rotate(180)">
      <g id="Group_1099618" data-name="Group 1099618" transform="translate(0.253 -0.492)">
        <rect id="Rectangle_401104" data-name="Rectangle 401104" width="54.153" height="54.806" transform="translate(0)" fill="none"/>
      </g>
      <g id="Group_1214944" data-name="Group 1214944" transform="translate(1.253 1.508)">
        <g id="Group_1214943" data-name="Group 1214943" clip-path="url(#clip-path-2)">
          <path id="Path_1284743" data-name="Path 1284743" d="M13.289,25.889a.877.877,0,0,1,.794-.955l1.7,0-.017-1.672-14.906,0A.828.828,0,0,1,0,22.46V12.467a.8.8,0,0,1,.853-.794l14.916,0,.009-5.03a2.522,2.522,0,0,1,1.98-2.435L24.093,4.2,26.56,1.719a.958.958,0,0,1,1.1,0l.9.886,1.359-.562,0-1.2A.868.868,0,0,1,30.846,0l3.427.051c.848.013.508,1.9.658,1.972l.685.345a1.48,1.48,0,0,0,.607.178c.186-.029,1.251-1.465,1.782-.948L40.664,4.19,47,4.252a2.324,2.324,0,0,1,1.967,2.091l.014,18.576,1.692.008a.915.915,0,0,1,.829.79L51.462,29.3a2.492,2.492,0,0,1-2.52,2.309H15.8a2.4,2.4,0,0,1-2.443-2.093Zm18.289-7.607,1.687-.023c-.1-.6-.12-1.461.328-1.645l2.656-1.092c.453-.186,1.034.52,1.428.924l1.161-1.184c-.462-.409-1.024-.971-.959-1.369.744-1.344.99-3.014,1.566-3.046l1.276-.072-.062-1.651c-.587.079-1.4.06-1.606-.268l-1.137-2.74c-.178-.428.431-1,.926-1.378L37.636,3.532c-.38.493-.952,1.1-1.383.927L33.514,3.323c-.329-.25-.323-1.112-.283-1.625l-1.625-.032-.087,1.323c-.019.281-.686.5-.974.625l-2.066.863c-.367.143-.992-.513-1.36-.944L25.922,4.7l.745.713a1.055,1.055,0,0,1,.12.959c-.414.851-.671,1.519-1.028,2.4-.181.45-1.044.434-1.655.339l.032,1.742c.74-.126,1.45-.116,1.637.347l1.084,2.679c.175.432-.557,1.062-.9,1.371l1.162,1.163c.307-.343.944-1.077,1.367-.9l2.791,1.138c.342.2.323,1.068.3,1.631M19.766,7.531l4.673.012.628-1.654-6.723-.032a.8.8,0,0,0-.9.8l0,5.017,1.678,0,0-3.509a.847.847,0,0,1,.645-.635m25.9,17.381,1.656,0,0-18.259c0-.339-.309-.8-.619-.8L39.727,5.9l.6,1.632,4.7.01c.414,0,.633.521.633.943Zm-9.405-7.569-1.358.589-.015,1.064a.861.861,0,0,1-.823.948l-3.394,0a.807.807,0,0,1-.758-.773l0-1.225-1.327-.6-.858.841a1.043,1.043,0,0,1-1.151.076l-2.317-2.3a.95.95,0,0,1-.051-1.337l.819-.835-.595-1.33-1.234,0a.81.81,0,0,1-.756-.767l-.005-2.552H20.776l.026,2.469c.4.138.776.416.776.809V22.494c0,.394-.366.666-.782.8l.011,1.638h23.2l0-15.78-1.649,0,.005,2.52a.893.893,0,0,1-.811.8l-1.225-.01-.555,1.36.879.891a.94.94,0,0,1,0,1.094l-2.3,2.317a.887.887,0,0,1-1.227.09ZM1.653,21.6H19.92V13.32H1.653Zm17.47,1.65H17.447v1.686h1.675Zm-4.16,3.35v3.346l34.874,0V26.6Z" transform="translate(0 0)" fill="#0f654d"/>
          <path id="Path_1284744" data-name="Path 1284744" d="M23.964,227.493l-5.108-3.364-5.6.039c.2.662.027,1.577-.565,1.589l-4.431.088c.238.781-.04,1.616-.735,1.618l-6.515.025c-.386,0-.995-.347-.995-.8V208.237c0-.534.576-.7,1-.7l11.837.017a1.6,1.6,0,0,1,.437,1.654l9.555,0,4.982,5.8.363.789,19.385.047a4.186,4.186,0,0,1,3.955,4.63c-.039.651-.16,1.025-.831,1.172ZM6.646,209.178H1.666v16.636h4.98Zm5.016,0H8.321v14.97h3.341Zm11.33,10.05-3.633-3.635,1.2-1.181,3.8,3.776a2.105,2.105,0,0,0,1.924-.1c.509-.527.322-1.407.213-2.058l-4.436-5.2-8.749,0,0,11.66,6.1,0,4.88,3.228,25.543-5.581c.063-1.775-1.321-2.7-3.01-2.7l-18.559.021A2.636,2.636,0,0,1,25.374,220a3.268,3.268,0,0,1-2.382-.769" transform="translate(-0.009 -175.936)" fill="#0f654d"/>
          <rect id="Rectangle_468827" data-name="Rectangle 468827" width="7.496" height="1.714" transform="translate(8.369 20.417) rotate(-63.446)" fill="#0f654d"/>
          <path id="Path_1284745" data-name="Path 1284745" d="M25.8,99.373l-1.151,1.193L22.084,98a.87.87,0,0,1,.061-1.119l2.478-2.484,1.192,1.179-1.9,1.909Z" transform="translate(-18.571 -80.021)" fill="#0f654d"/>
          <path id="Path_1284746" data-name="Path 1284746" d="M95.643,100.709,94.482,99.56l1.9-1.909-1.9-1.9L95.63,94.6l2.354,2.33c.288.285.561.867.213,1.216Z" transform="translate(-80.096 -80.192)" fill="#0f654d"/>
          <path id="Path_1284747" data-name="Path 1284747" d="M189.963,37.844a4.982,4.982,0,1,1-4.981-4.982,4.981,4.981,0,0,1,4.981,4.982m-1.665,0a3.319,3.319,0,1,0-3.319,3.319,3.319,3.319,0,0,0,3.319-3.319" transform="translate(-152.592 -27.858)" fill="#0f654d"/>
        </g>
      </g>
    </g>
  </g>
</svg>
