<svg xmlns="http://www.w3.org/2000/svg" xmlns:xlink="http://www.w3.org/1999/xlink" width="85" height="85" viewBox="0 0 85 85">
  <defs>
    <clipPath id="clip-path">
      <rect id="Rectangle_468784" data-name="Rectangle 468784" width="63.449" height="63.45" fill="#12263f"/>
    </clipPath>
  </defs>
  <g id="img9" transform="translate(-705.629 -410)">
    <g id="Group_1180019" data-name="Group 1180019">
      <g id="Group_1180023" data-name="Group 1180023">
        <rect id="Rectangle_456333" data-name="Rectangle 456333" width="85" height="85" rx="10" transform="translate(705.629 410)" fill="#68eae0"/>
        <g id="Group_1214918" data-name="Group 1214918" transform="translate(716.629 421)">
          <g id="Group_1214917" data-name="Group 1214917" clip-path="url(#clip-path)">
            <path id="Path_1284589" data-name="Path 1284589" d="M.459,155.358,6.73,149.1c.226-.226.989-.389,1.274-.1l14.262,14.249a5.62,5.62,0,0,1,3.365-1.634l18.809-.041a7.771,7.771,0,0,0,6.453-3.24l9.786-14.021a3.484,3.484,0,0,0,.47-3.1,2.8,2.8,0,0,0-1.836-1.577,2.983,2.983,0,0,0-2.678.615L50,146.833c-.246.245-1.078-.03-1.281-.285s-.346-1.012-.08-1.276l6.627-6.6a4.807,4.807,0,0,1,4.509-1.085,4.736,4.736,0,0,1,3.388,2.978,5.444,5.444,0,0,1-.65,4.8l-9.7,13.945a10,10,0,0,1-8,4.349l-18.6.048a3.409,3.409,0,0,0-2.465.986l1.327,1.371a1.1,1.1,0,0,1-.032,1.555l-6.211,6.219c-.278.278-1.068.582-1.423.228L.17,156.827c-.383-.382-.045-1.136.289-1.469M7.408,151.4,2.54,156.264,17.985,171.7l4.868-4.869Z" transform="translate(0 -110.774)" fill="#12263f"/>
            <path id="Path_1284590" data-name="Path 1284590" d="M91.44,7.832A12.672,12.672,0,1,0,93.853,5.1,1.155,1.155,0,0,1,92.4,4.829a1.141,1.141,0,0,1,.281-1.492,14.822,14.822,0,1,1-3.089,3.479,1.2,1.2,0,0,1,1.376-.409,1.082,1.082,0,0,1,.477,1.424" transform="translate(-70.32 0)" fill="#12263f"/>
            <path id="Path_1284591" data-name="Path 1284591" d="M89.763,183.023A3.159,3.159,0,0,0,93.021,180a3.124,3.124,0,0,0-3.012-3.316l-22.642-.008c-4.662,0-6.32,3.578-7.457,3.386a1.34,1.34,0,0,1-.923-.854c-.147-1.426,4.426-4.619,8.034-4.618l23.157.009a5.269,5.269,0,0,1-.14,10.527l-11.825.037a1.116,1.116,0,0,1-1.052-.875c-.073-.529.241-1.25.876-1.25Z" transform="translate(-47.541 -140.718)" fill="#12263f"/>
            <path id="Path_1284592" data-name="Path 1284592" d="M147.1,41.776a1.216,1.216,0,0,1-.928,1.161,1.129,1.129,0,0,1-1.2-.91l-.025-2.408a4.353,4.353,0,0,1-3.151-3.838,1.179,1.179,0,0,1,.931-1.321,1.116,1.116,0,0,1,1.21,1.146,2.1,2.1,0,0,0,2.1,2.053,2.141,2.141,0,0,0,2.094-2.174,2.165,2.165,0,0,0-2.37-2.111,4.209,4.209,0,0,1-.814-8.276l.007-2.127c0-.751.4-1.213,1.07-1.211s1.068.459,1.071,1.211L147.1,25.1a4.22,4.22,0,0,1,3.147,3.9,1.067,1.067,0,1,1-2.118.156,2.108,2.108,0,0,0-4.2-.235,2.064,2.064,0,0,0,1.845,2.325,4.354,4.354,0,0,1,4.4,3.51,4.257,4.257,0,0,1-3.087,4.86Z" transform="translate(-114.286 -17.54)" fill="#12263f"/>
          </g>
        </g>
      </g>
    </g>
  </g>
</svg>
