<svg xmlns="http://www.w3.org/2000/svg" xmlns:xlink="http://www.w3.org/1999/xlink" width="85" height="85" viewBox="0 0 85 85">
  <defs>
    <clipPath id="clip-path">
      <rect id="Rectángulo_468370" data-name="Rectángulo 468370" width="62.027" height="62.038" fill="#12263f"/>
    </clipPath>
  </defs>
  <g id="Grupo_1214404" data-name="Grupo 1214404" transform="translate(-705.629 -410)">
    <g id="Grupo_1180019" data-name="Grupo 1180019">
      <g id="Grupo_1180023" data-name="Grupo 1180023">
        <rect id="Rectángulo_456333" data-name="Rectángulo 456333" width="85" height="85" rx="10" transform="translate(705.629 410)" fill="#68eae0"/>
        <g id="Grupo_1214741" data-name="Grupo 1214741" transform="translate(716.629 421)">
          <g id="Grupo_1214740" data-name="Grupo 1214740" clip-path="url(#clip-path)">
            <path id="Trazado_1284029" data-name="Trazado 1284029" d="M2.991,54.071a1.566,1.566,0,0,0-.71-1.625A3.407,3.407,0,0,1,0,48.84a3.159,3.159,0,0,1,1.941-3.173c.651-.232,1.346-1.1,1.025-1.81a3.413,3.413,0,0,1,.8-4.057,3.348,3.348,0,0,1,3.883-.993A1.515,1.515,0,0,0,9.712,37.9c.5-1.452,1.857-1.913,3.254-1.937a3.307,3.307,0,0,1,3.558,2.25,1.586,1.586,0,0,0,1.523.723l.007-10.969-9.3-.026A8.932,8.932,0,0,1,.034,19.061,9.033,9.033,0,0,1,8.621,10a14,14,0,0,1,25.17-3.6,12,12,0,0,1,18.6,5.777,7.983,7.983,0,1,1,1.663,15.793l-4.044,0V58.918a2.974,2.974,0,0,1-2.851,3.062l-26.229.009a3.013,3.013,0,0,1-2.884-2.962,1.585,1.585,0,0,0-1.763,1.181,3.252,3.252,0,0,1-3.1,1.826,3.557,3.557,0,0,1-3.686-2.411,1.532,1.532,0,0,0-1.532-.612,3.392,3.392,0,0,1-4.131-.825,3.347,3.347,0,0,1-.835-4.114m47-35.25.016,7.153,4.4-.042a5.876,5.876,0,0,0,5.245-3.91,5.943,5.943,0,0,0-1.628-6.492,6.179,6.179,0,0,0-7.041-.8,10.134,10.134,0,0,0-7.546-8.448,9.947,9.947,0,0,0-10.772,4.239L30.948,9.429l1.33-1.672A11.981,11.981,0,0,0,10.2,12.07a7.009,7.009,0,1,0-.9,13.919l8.741-.031.022-7.206a2.84,2.84,0,0,1,2.617-2.717H47.432a2.847,2.847,0,0,1,2.562,2.784M48,27.961v-9a.917.917,0,0,0-1.133-.934H21.055a.931.931,0,0,0-1.011.933l0,9Zm0,12.05,0-10.033H20.043l.009,8.538a4.143,4.143,0,0,1,2.4,1.5Zm-33.7,19.545a4.182,4.182,0,0,1,2.244-2.35,4.094,4.094,0,0,1,3.225.249,3.467,3.467,0,0,0,1.755-1.787,3.907,3.907,0,0,1-.1-3.511,4.357,4.357,0,0,1,2.3-1.944,2.559,2.559,0,0,0-.023-2.561,3.58,3.58,0,0,1-2.33-4.928,1.435,1.435,0,0,0-.524-1.54,1.47,1.47,0,0,0-1.9-.449,3.387,3.387,0,0,1-4.215-1.66,1.54,1.54,0,0,0-1.778-1.121,1.469,1.469,0,0,0-1.6,1.086A3.4,3.4,0,0,1,7.183,40.75a1.562,1.562,0,0,0-1.987.492,1.452,1.452,0,0,0-.383,1.814,3.615,3.615,0,0,1-2.386,4.623A2.041,2.041,0,0,0,2.392,50.2,4.8,4.8,0,0,1,4.727,52.29c.558,1.255.211,2.1-.066,3.369-.15.687,1.154,1.9,1.793,1.7a4.119,4.119,0,0,1,3.39-.008,4.833,4.833,0,0,1,1.968,2.265,1.911,1.911,0,0,0,2.5-.058m11.7-9.592a4.354,4.354,0,0,1-1.166,2.007l23.155,0,0-10H23.538l-.406,1.995,8.908,0v5.993Zm4.008-2,0-2-5.139-.011a7.308,7.308,0,0,1,1.171,1.989Zm16.9,12.045c.7-.089,1.083-.506,1.082-1.06L48,53.988H23.049a3.315,3.315,0,0,1-.765,4.165,4.887,4.887,0,0,1-2.126,1.261,1.535,1.535,0,0,0,1.1.592Z" transform="translate(0 0)" fill="#12263f"/>
            <path id="Trazado_1284030" data-name="Trazado 1284030" d="M76.807,23.691a7.99,7.99,0,0,0-7.78,6.215l-1.949-.4a9.962,9.962,0,0,1,9.7-7.8Z" transform="translate(-54.782 -17.722)" fill="#12263f"/>
            <path id="Trazado_1284031" data-name="Trazado 1284031" d="M131.938,25.539l-1.922-.693.422-1.966,2.363.831Z" transform="translate(-106.184 -18.687)" fill="#12263f"/>
            <path id="Trazado_1284032" data-name="Trazado 1284032" d="M206.638,180.507h-9.959v-6.033h9.959Zm-1.994-4.017h-5.97V178.5h5.97Z" transform="translate(-160.627 -142.493)" fill="#12263f"/>
            <path id="Trazado_1284033" data-name="Trazado 1284033" d="M126.157,180.508h-5.981v-6.033h5.981Zm-2-4.017-2,0,0,2.01,2,0Z" transform="translate(-98.148 -142.493)" fill="#12263f"/>
            <path id="Trazado_1284034" data-name="Trazado 1284034" d="M130.176,109.024l0,5.978-10.017.005,0-5.978Zm-8.02,1.989v1.995h6.008v-1.994Z" transform="translate(-98.134 -89.04)" fill="#12263f"/>
            <path id="Trazado_1284035" data-name="Trazado 1284035" d="M224.406,115h-5.971v-5.98h5.971Zm-1.995-3.989h-1.99V113h1.99Z" transform="translate(-178.396 -89.034)" fill="#12263f"/>
            <path id="Trazado_1284036" data-name="Trazado 1284036" d="M46.994,236A6.991,6.991,0,1,1,40,229.009,6.991,6.991,0,0,1,46.994,236m-2-.006A4.993,4.993,0,1,0,40,240.987,4.993,4.993,0,0,0,45,235.994" transform="translate(-26.961 -187.031)" fill="#12263f"/>
            <path id="Trazado_1284037" data-name="Trazado 1284037" d="M224.406,245.825h-5.971v-6h5.971Zm-1.995-4h-1.99v2h1.99Z" transform="translate(-178.396 -195.867)" fill="#12263f"/>
            <rect id="Rectángulo_468367" data-name="Rectángulo 468367" width="1.995" height="2.008" transform="translate(36.052 55.994)" fill="#12263f"/>
            <rect id="Rectángulo_468368" data-name="Rectángulo 468368" width="1.998" height="2.008" transform="translate(44.013 55.994)" fill="#12263f"/>
            <rect id="Rectángulo_468369" data-name="Rectángulo 468369" width="1.986" height="2.008" transform="translate(40.04 55.994)" fill="#12263f"/>
            <path id="Trazado_1284038" data-name="Trazado 1284038" d="M60.8,253.782a3,3,0,1,1-3-3,3,3,0,0,1,3,3m-2,0a.995.995,0,1,0-.995.995.995.995,0,0,0,.995-.995" transform="translate(-44.758 -204.816)" fill="#12263f"/>
          </g>
        </g>
      </g>
    </g>
  </g>
</svg>
