<svg xmlns="http://www.w3.org/2000/svg" xmlns:xlink="http://www.w3.org/1999/xlink" width="85" height="85" viewBox="0 0 85 85">
  <defs>
    <clipPath id="clip-path">
      <rect id="Rectángulo_468373" data-name="Rectángulo 468373" width="56" height="48.716" fill="#12263f"/>
    </clipPath>
  </defs>
  <g id="Grupo_1180328" data-name="Grupo 1180328" transform="translate(-705.629 -409.643)">
    <g id="Grupo_1180019" data-name="Grupo 1180019">
      <g id="Grupo_1180023" data-name="Grupo 1180023">
        <rect id="Rectángulo_456333" data-name="Rectángulo 456333" width="85" height="85" rx="10" transform="translate(705.629 409.643)" fill="#68eae0"/>
        <g id="Grupo_1214747" data-name="Grupo 1214747" transform="translate(720.629 427.643)">
          <g id="Grupo_1214746" data-name="Grupo 1214746" clip-path="url(#clip-path)">
            <path id="Trazado_1284039" data-name="Trazado 1284039" d="M17.45,47.066l35.79,0c.6,0,1.112-.82,1.117-1.255l.027-2.963c0-.353.534-.667.878-.626a.924.924,0,0,1,.738.8L55.98,45.8a2.93,2.93,0,0,1-2.9,2.913l-35.74,0A2.851,2.851,0,0,1,14.6,46.131l-.041-4.877a17.077,17.077,0,0,1-.023-33.778L14.6,2.6a2.874,2.874,0,0,1,2.9-2.6L53.086,0a2.929,2.929,0,0,1,2.9,2.957l0,36.209a.818.818,0,1,1-1.628-.112l0-3.811-24.1,0a19.271,19.271,0,0,1-3.806,3.389,2.736,2.736,0,0,1-1.88,5.1,2.8,2.8,0,0,1-2.076-3.167,18.589,18.589,0,0,1-6.306.878l.007,4.336a1.228,1.228,0,0,0,1.238,1.28M32.855,17.673l21.485,0,.013-2.54H43.158a.868.868,0,0,1-.864-.721.818.818,0,0,1,.7-.9H54.37l0-10.245A1.487,1.487,0,0,0,53.24,1.658H17.517A1.237,1.237,0,0,0,16.21,2.941l0,4.331a19.265,19.265,0,0,1,6.3.873,2.809,2.809,0,0,1,2.081-3.16,2.732,2.732,0,0,1,1.877,5.094,18.6,18.6,0,0,1,3.814,3.412l9.339.034c.378,0,.607.749.51,1.038a.994.994,0,0,1-.981.572l-7.673-.009ZM26.329,7.638a1.093,1.093,0,1,0-1.093,1.093,1.093,1.093,0,0,0,1.093-1.093M16.275,17.581l0-8.593A6.554,6.554,0,0,0,12.779,11.4a16.824,16.824,0,0,0-2.614,5.361,23.658,23.658,0,0,0,6.11.818m7.739-.847A16.992,16.992,0,0,0,21.395,11.4,6.486,6.486,0,0,0,17.921,9V17.61a23.864,23.864,0,0,0,6.092-.877M8.6,16.287a17.813,17.813,0,0,1,3.319-6.462,15.324,15.324,0,0,0-6.823,4.8,17.125,17.125,0,0,0,3.5,1.659m20.468-1.664a14.708,14.708,0,0,0-6.7-4.711,19.207,19.207,0,0,1,3.189,6.363,15.112,15.112,0,0,0,3.507-1.652M7.458,23.535a39.939,39.939,0,0,1,.68-5.628A25.034,25.034,0,0,1,4.13,16a15.055,15.055,0,0,0-2.466,7.53Zm25.053-.018a15.275,15.275,0,0,0-2.464-7.53,22.566,22.566,0,0,1-4.02,1.916,35.115,35.115,0,0,1,.68,5.647Zm-16.234.017-.01-4.26a31.027,31.027,0,0,1-6.519-.9,31.779,31.779,0,0,0-.641,5.163Zm1.657.008,7.114,0a31.884,31.884,0,0,0-.612-5.165,32.159,32.159,0,0,1-6.519.907Zm15.492,5.916H54.369V19.29H33.411l.622,2.625a2.739,2.739,0,1,1,0,4.886Zm2.924-5.1a1.09,1.09,0,1,0-1.09,1.09,1.09,1.09,0,0,0,1.09-1.09M16.278,29.429l-.013-4.255L9.107,25.2c.064.745-.015,1.094-.313,1.368-.215.2-.982.128-1.093-.167a5.652,5.652,0,0,1-.27-1.22l-5.768.009a15.173,15.173,0,0,0,2.469,7.537,22.968,22.968,0,0,1,4-1.9l-.166-1.112a.8.8,0,0,1,.777-.919,1,1,0,0,1,.809.639l.237.9a33.135,33.135,0,0,1,6.483-.9m8.174.906a34.021,34.021,0,0,0,.594-5.153H17.921l0,4.26a33.43,33.43,0,0,1,6.529.893m5.62,2.376A15.317,15.317,0,0,0,32.5,25.179l-5.813.017a32.173,32.173,0,0,1-.661,5.621,27.633,27.633,0,0,1,4.045,1.894m24.29.883-.022-2.509-21.521,0L31.462,33.6Zm-38.092,6.1,0-8.576a25.989,25.989,0,0,0-6.1.841A16.494,16.494,0,0,0,12.853,37.4a6.091,6.091,0,0,0,3.418,2.289m5.091-2.332a16.52,16.52,0,0,0,2.647-5.408,27.889,27.889,0,0,0-6.088-.842v8.615a6.559,6.559,0,0,0,3.441-2.365M11.894,38.87a18.255,18.255,0,0,1-3.3-6.446,18.361,18.361,0,0,0-3.5,1.66,15.13,15.13,0,0,0,6.8,4.786m17.182-4.8a18.074,18.074,0,0,0-3.51-1.629,19.3,19.3,0,0,1-3.187,6.367,14.561,14.561,0,0,0,6.7-4.738m-2.749,7.01a1.091,1.091,0,1,0-1.091,1.091,1.091,1.091,0,0,0,1.091-1.091" transform="translate(0 0.001)" fill="#12263f"/>
            <path id="Trazado_1284040" data-name="Trazado 1284040" d="M270.81,241.77a2.736,2.736,0,1,1-2.736-2.736,2.736,2.736,0,0,1,2.736,2.736m-1.64-.006a1.093,1.093,0,1,0-1.093,1.093,1.093,1.093,0,0,0,1.093-1.093" transform="translate(-222.771 -200.686)" fill="#12263f"/>
            <path id="Trazado_1284041" data-name="Trazado 1284041" d="M208.245,241.717a2.736,2.736,0,1,1-2.736-2.736,2.736,2.736,0,0,1,2.736,2.736m-1.647.01a1.092,1.092,0,1,0-1.092,1.092,1.092,1.092,0,0,0,1.092-1.092" transform="translate(-170.243 -200.642)" fill="#12263f"/>
            <path id="Trazado_1284042" data-name="Trazado 1284042" d="M270.815,33.29a2.735,2.735,0,1,1-2.735-2.735,2.735,2.735,0,0,1,2.735,2.735m-1.638,0a1.1,1.1,0,1,0-1.1,1.1,1.1,1.1,0,0,0,1.1-1.1" transform="translate(-222.776 -25.653)" fill="#12263f"/>
            <path id="Trazado_1284043" data-name="Trazado 1284043" d="M208.241,33.32a2.735,2.735,0,1,1-2.735-2.735,2.735,2.735,0,0,1,2.735,2.735m-1.643-.006a1.093,1.093,0,1,0-1.093,1.093,1.093,1.093,0,0,0,1.093-1.093" transform="translate(-170.24 -25.678)" fill="#12263f"/>
            <path id="Trazado_1284044" data-name="Trazado 1284044" d="M270.8,137.527a2.737,2.737,0,1,1-2.737-2.737,2.737,2.737,0,0,1,2.737,2.737m-1.641,0a1.094,1.094,0,1,0-1.094,1.094,1.094,1.094,0,0,0,1.094-1.094" transform="translate(-222.758 -113.166)" fill="#12263f"/>
          </g>
        </g>
      </g>
    </g>
  </g>
</svg>
