<svg xmlns="http://www.w3.org/2000/svg" xmlns:xlink="http://www.w3.org/1999/xlink" width="680" height="564" viewBox="0 0 680 564">
  <defs>
    <clipPath id="clip-path">
      <rect id="Rectángulo_468763" data-name="Rectángulo 468763" width="333.421" height="214.355" fill="none"/>
    </clipPath>
    <clipPath id="clip-path-3">
      <rect id="Rectángulo_468643" data-name="Rectángulo 468643" width="86.351" height="141.791" fill="none"/>
    </clipPath>
    <clipPath id="clip-path-4">
      <rect id="Rectángulo_468741" data-name="Rectángulo 468741" width="86.351" height="142.6" fill="none"/>
    </clipPath>
    <clipPath id="clip-path-5">
      <rect id="Rectángulo_468742" data-name="Rectángulo 468742" width="85.149" height="179.149" fill="none"/>
    </clipPath>
    <clipPath id="clip-path-6">
      <rect id="Rectángulo_468764" data-name="Rectángulo 468764" width="66.312" height="66.308" fill="none"/>
    </clipPath>
    <clipPath id="clip-path-7">
      <rect id="Rectángulo_468770" data-name="Rectángulo 468770" width="62.666" height="58.227" fill="#fff"/>
    </clipPath>
    <clipPath id="clip-path-8">
      <rect id="Rectángulo_468765" data-name="Rectángulo 468765" width="47.518" height="55.806" fill="#fff"/>
    </clipPath>
    <clipPath id="clip-path-9">
      <rect id="Rectángulo_468771" data-name="Rectángulo 468771" width="53.897" height="62.688" fill="#fff"/>
    </clipPath>
    <clipPath id="clip-path-10">
      <rect id="Rectángulo_468772" data-name="Rectángulo 468772" width="57.55" height="56.662" fill="#12263f"/>
    </clipPath>
  </defs>
  <g id="Grupo_1214903" data-name="Grupo 1214903" transform="translate(-7515 1150)">
    <g id="Elipse_13769" data-name="Elipse 13769" transform="translate(7667 -1056)" fill="#ffeebc" stroke="#707070" stroke-linecap="round" stroke-linejoin="round" stroke-width="3" stroke-dasharray="5 10">
      <circle cx="188" cy="188" r="188" stroke="none"/>
      <circle cx="188" cy="188" r="186.5" fill="none"/>
    </g>
    <g id="Grupo_1214885" data-name="Grupo 1214885" transform="translate(7688 -975)">
      <g id="Grupo_1214884" data-name="Grupo 1214884" clip-path="url(#clip-path)">
        <g id="Grupo_1214883" data-name="Grupo 1214883">
          <g id="Grupo_1214882" data-name="Grupo 1214882" clip-path="url(#clip-path)">
            <path id="Trazado_1284395" data-name="Trazado 1284395" d="M333.421,129.592A98.648,98.648,0,0,1,322.063,175.7c-.048.094-.1.187-.145.277q-1.813,3.416-3.884,6.673c-.056.094-.115.183-.179.277q-2.193,3.434-4.661,6.674c-.07.093-.145.186-.217.28q-2.89,3.766-6.124,7.239c-.086.094-.172.183-.261.277q-3.283,3.5-6.895,6.673c-.105.094-.214.187-.318.277q-3.127,2.721-6.473,5.181H31.758A72.313,72.313,0,0,1,.834,138.709c0-.037.012-.071.016-.1.007-.063.019-.124.026-.183.007-.034.011-.063.015-.094q.538-3.384,1.38-6.655c.026-.094.049-.187.075-.281q.859-3.283,2.016-6.442c.03-.09.06-.176.094-.261q1.116-3.014,2.488-5.9c.037-.086.078-.172.119-.255.06-.131.124-.261.187-.393.042-.082.083-.168.12-.251q1.324-2.682,2.855-5.237c.045-.079.093-.161.145-.24q1.74-2.884,3.744-5.593c.057-.078.113-.153.169-.228.24-.322.483-.64.726-.958q1.089-1.407,2.241-2.756,1.089-1.28,2.24-2.507,1.089-1.168,2.234-2.286,1.1-1.077,2.24-2.1,1.1-.988,2.237-1.93c.737-.61,1.482-1.2,2.24-1.78.733-.562,1.482-1.108,2.237-1.639q1.106-.78,2.241-1.516,1.1-.723,2.237-1.4,1.106-.663,2.241-1.287c.736-.408,1.485-.8,2.236-1.182s1.485-.736,2.241-1.085c.736-.344,1.485-.673,2.236-.991s1.489-.617,2.237-.9,1.489-.561,2.241-.819c.411-.141.826-.28,1.242-.418.161-1.212.351-2.425.561-3.622a82.785,82.785,0,0,1,4.261-15.26,85.528,85.528,0,0,1,5.45-11.5c.251-.446.505-.887.768-1.328s.542-.913.822-1.366q1.151-1.88,2.406-3.7,1.6-2.345,3.359-4.59c.063-.086.131-.173.2-.255q1.189-1.516,2.447-2.986,1.026-1.206,2.106-2.379,1.385-1.516,2.847-2.982c.8-.8,1.62-1.6,2.458-2.379q1.627-1.527,3.337-2.986,1.419-1.213,2.892-2.376C102.077,8.821,126.266,0,152.78,0a113.677,113.677,0,0,1,50.332,11.534q2.183,1.072,4.3,2.24c1.309.723,2.6,1.463,3.867,2.237q1.8,1.083,3.528,2.237,1.65,1.089,3.244,2.24,1.526,1.094,3,2.237c.157.12.31.239.467.363q1.173.92,2.316,1.878,1.318,1.094,2.593,2.237c.823.733,1.627,1.478,2.42,2.24.389.371.774.752,1.16,1.13,1.119-.049,2.245-.079,3.371-.09h.105c.276,0,.557,0,.834,0,.561,0,1.115,0,1.668.015h.105c.842.016,1.676.041,2.507.079a.907.907,0,0,1,.1,0c.909.037,1.818.09,2.719.157a.507.507,0,0,1,.1.007c.838.057,1.676.124,2.507.21a.94.94,0,0,1,.1.008c.838.082,1.677.176,2.507.28l.1.012A98.84,98.84,0,0,1,305.046,60.17l.108.109q1.273,1.3,2.5,2.652l.1.116q1.28,1.415,2.507,2.876c.037.038.071.083.1.124q1.4,1.666,2.716,3.4c.037.049.075.094.108.141q1.29,1.69,2.5,3.434c.038.049.071.1.105.15q1.3,1.862,2.506,3.8c.034.053.067.108.105.165a98.634,98.634,0,0,1,15,52.46" fill="#68c6ea"/>
            <path id="Trazado_1284396" data-name="Trazado 1284396" d="M126.464,112.175H51.459V112.1h74.959l34.946-65.883h71.613v.076H161.41Z" transform="translate(-1.268 -1.139)" fill="#51aeff"/>
            <path id="Trazado_1284397" data-name="Trazado 1284397" d="M126.464,109.88H51.459V109.8h74.959l34.946-65.883h71.613V44H161.41Z" transform="translate(-1.268 -1.082)" fill="#51aeff"/>
            <path id="Trazado_1284398" data-name="Trazado 1284398" d="M126.464,107.585H51.459v-.076h74.959l34.946-65.883h71.613V41.7H161.41Z" transform="translate(-1.268 -1.026)" fill="#51aeff"/>
            <path id="Trazado_1284399" data-name="Trazado 1284399" d="M126.464,105.289H51.459v-.076h74.959l34.946-65.883h71.613v.076H161.41Z" transform="translate(-1.268 -0.969)" fill="#51aeff"/>
            <path id="Trazado_1284400" data-name="Trazado 1284400" d="M126.464,102.994H51.459v-.076h74.959l34.946-65.883h71.613v.076H161.41Z" transform="translate(-1.268 -0.912)" fill="#51aeff"/>
            <path id="Trazado_1284401" data-name="Trazado 1284401" d="M126.464,100.7H51.459v-.076h74.959L161.364,34.74h71.613v.076H161.41Z" transform="translate(-1.268 -0.856)" fill="#51aeff"/>
            <path id="Trazado_1284402" data-name="Trazado 1284402" d="M126.464,98.4H51.459v-.076h74.959l34.946-65.883h71.613v.076H161.41Z" transform="translate(-1.268 -0.799)" fill="#51aeff"/>
            <path id="Trazado_1284403" data-name="Trazado 1284403" d="M126.464,96.107h-75v-.076h74.958L161.363,30.15h68.744v.076h-68.7Z" transform="translate(-1.268 -0.743)" fill="#51aeff"/>
            <path id="Trazado_1284404" data-name="Trazado 1284404" d="M126.464,93.812h-75v-.076h74.958l14.315-26.987,20.63-38.895h66.326v.076h-66.28Z" transform="translate(-1.268 -0.686)" fill="#51aeff"/>
            <path id="Trazado_1284405" data-name="Trazado 1284405" d="M126.464,91.517h-75v-.076h74.958l7.4-13.952,27.544-51.93H225.1v.076H161.409Z" transform="translate(-1.268 -0.63)" fill="#51aeff"/>
            <path id="Trazado_1284406" data-name="Trazado 1284406" d="M126.464,89.224h-75v-.076h74.959l6.213-11.715,28.731-54.17h60.95v.076h-60.9Z" transform="translate(-1.268 -0.573)" fill="#51aeff"/>
            <path id="Trazado_1284407" data-name="Trazado 1284407" d="M126.464,86.928h-75v-.076h74.959l5.025-9.477,29.919-56.408h57.955v.076H161.409Z" transform="translate(-1.268 -0.517)" fill="#51aeff"/>
            <path id="Trazado_1284408" data-name="Trazado 1284408" d="M126.464,84.633h-75v-.076h74.958l9.567-18.034,25.378-47.85h54.712v.076H161.41Z" transform="translate(-1.268 -0.46)" fill="#51aeff"/>
            <path id="Trazado_1284409" data-name="Trazado 1284409" d="M126.464,82.337h-75v-.076h74.958l16.834-31.738,18.111-34.146h51.182v.076H161.409Z" transform="translate(-1.268 -0.403)" fill="#51aeff"/>
            <path id="Trazado_1284410" data-name="Trazado 1284410" d="M126.464,80.042h-75v-.076h74.959l.2-.382,15.443-29.117,19.3-36.386h47.314v.076H161.409Z" transform="translate(-1.268 -0.347)" fill="#51aeff"/>
            <path id="Trazado_1284411" data-name="Trazado 1284411" d="M126.464,77.747h-75v-.076h74.959l.277-.522,34.668-65.363H204.38v.076H161.41Z" transform="translate(-1.268 -0.29)" fill="#51aeff"/>
            <g id="Grupo_1214875" data-name="Grupo 1214875" transform="translate(60.105 23.328)" opacity="0.2">
              <g id="Grupo_1214874" data-name="Grupo 1214874">
                <g id="Grupo_1214873" data-name="Grupo 1214873" clip-path="url(#clip-path-3)">
                  <path id="Trazado_1284412" data-name="Trazado 1284412" d="M87.414,23.917v2.378H82.9q1.419-1.214,2.893-2.378Z" transform="translate(-62.148 -23.917)" fill="#5198ff"/>
                  <path id="Trazado_1284413" data-name="Trazado 1284413" d="M87.267,29.416v2.378H76.954q1.207-1.207,2.458-2.378Z" transform="translate(-62.001 -24.052)" fill="#5198ff"/>
                  <path id="Trazado_1284414" data-name="Trazado 1284414" d="M87.142,34.911v2.381H71.878q1.029-1.208,2.1-2.381Z" transform="translate(-61.876 -24.188)" fill="#5198ff"/>
                  <rect id="Rectángulo_468554" data-name="Rectángulo 468554" width="17.91" height="2.379" transform="translate(7.356 16.086)" fill="#5198ff"/>
                  <path id="Trazado_1284415" data-name="Trazado 1284415" d="M65.661,45.378v3.7H63.254q1.153-1.88,2.407-3.7" transform="translate(-61.664 -24.446)" fill="#5198ff"/>
                  <rect id="Rectángulo_468555" data-name="Rectángulo 468555" width="17.91" height="2.379" transform="translate(7.356 21.448)" fill="#5198ff"/>
                  <rect id="Rectángulo_468556" data-name="Rectángulo 468556" width="3.998" height="3.998" transform="translate(0 26)" fill="#5198ff"/>
                  <rect id="Rectángulo_468557" data-name="Rectángulo 468557" width="17.91" height="2.379" transform="translate(7.356 26.81)" fill="#5198ff"/>
                  <rect id="Rectángulo_468558" data-name="Rectángulo 468558" width="3.998" height="3.998" transform="translate(0 31.363)" fill="#5198ff"/>
                  <rect id="Rectángulo_468559" data-name="Rectángulo 468559" width="17.91" height="2.379" transform="translate(7.356 32.172)" fill="#5198ff"/>
                  <rect id="Rectángulo_468560" data-name="Rectángulo 468560" width="3.998" height="3.998" transform="translate(0 36.724)" fill="#5198ff"/>
                  <rect id="Rectángulo_468561" data-name="Rectángulo 468561" width="17.91" height="2.379" transform="translate(7.356 37.534)" fill="#5198ff"/>
                  <rect id="Rectángulo_468562" data-name="Rectángulo 468562" width="3.998" height="3.998" transform="translate(0 42.086)" fill="#5198ff"/>
                  <rect id="Rectángulo_468563" data-name="Rectángulo 468563" width="17.91" height="2.379" transform="translate(7.356 42.895)" fill="#5198ff"/>
                  <rect id="Rectángulo_468564" data-name="Rectángulo 468564" width="3.998" height="3.998" transform="translate(0 47.448)" fill="#5198ff"/>
                  <rect id="Rectángulo_468565" data-name="Rectángulo 468565" width="17.91" height="2.379" transform="translate(7.356 48.258)" fill="#5198ff"/>
                  <rect id="Rectángulo_468566" data-name="Rectángulo 468566" width="3.998" height="3.998" transform="translate(0 52.81)" fill="#5198ff"/>
                  <rect id="Rectángulo_468567" data-name="Rectángulo 468567" width="17.91" height="2.379" transform="translate(7.356 53.62)" fill="#5198ff"/>
                  <rect id="Rectángulo_468568" data-name="Rectángulo 468568" width="3.998" height="3.998" transform="translate(0 58.173)" fill="#5198ff"/>
                  <rect id="Rectángulo_468569" data-name="Rectángulo 468569" width="17.91" height="2.379" transform="translate(7.356 58.982)" fill="#5198ff"/>
                  <rect id="Rectángulo_468570" data-name="Rectángulo 468570" width="3.998" height="3.998" transform="translate(0 63.534)" fill="#5198ff"/>
                  <rect id="Rectángulo_468571" data-name="Rectángulo 468571" width="17.91" height="2.379" transform="translate(7.356 64.344)" fill="#5198ff"/>
                  <rect id="Rectángulo_468572" data-name="Rectángulo 468572" width="3.998" height="3.998" transform="translate(0 68.897)" fill="#5198ff"/>
                  <rect id="Rectángulo_468573" data-name="Rectángulo 468573" width="17.91" height="2.379" transform="translate(7.356 69.706)" fill="#5198ff"/>
                  <rect id="Rectángulo_468574" data-name="Rectángulo 468574" width="3.998" height="3.998" transform="translate(0 74.258)" fill="#5198ff"/>
                  <rect id="Rectángulo_468575" data-name="Rectángulo 468575" width="17.91" height="2.379" transform="translate(7.356 75.068)" fill="#5198ff"/>
                  <rect id="Rectángulo_468576" data-name="Rectángulo 468576" width="3.998" height="3.998" transform="translate(0 79.621)" fill="#5198ff"/>
                  <rect id="Rectángulo_468577" data-name="Rectángulo 468577" width="17.91" height="2.379" transform="translate(7.356 80.43)" fill="#5198ff"/>
                  <rect id="Rectángulo_468578" data-name="Rectángulo 468578" width="3.998" height="3.998" transform="translate(0 84.982)" fill="#5198ff"/>
                  <rect id="Rectángulo_468579" data-name="Rectángulo 468579" width="17.91" height="2.379" transform="translate(7.356 85.792)" fill="#5198ff"/>
                  <rect id="Rectángulo_468580" data-name="Rectángulo 468580" width="3.998" height="3.998" transform="translate(0 90.344)" fill="#5198ff"/>
                  <rect id="Rectángulo_468581" data-name="Rectángulo 468581" width="17.91" height="2.379" transform="translate(7.356 91.153)" fill="#5198ff"/>
                  <rect id="Rectángulo_468582" data-name="Rectángulo 468582" width="9.915" height="2.379" transform="translate(65.562 69.706)" fill="#5198ff"/>
                  <rect id="Rectángulo_468583" data-name="Rectángulo 468583" width="9.915" height="2.379" transform="translate(64.604 53.548)" fill="#5198ff"/>
                  <rect id="Rectángulo_468584" data-name="Rectángulo 468584" width="9.915" height="2.379" transform="translate(71.16 42.753)" fill="#5198ff"/>
                  <rect id="Rectángulo_468585" data-name="Rectángulo 468585" width="9.915" height="2.379" transform="translate(65.322 32.172)" fill="#5198ff"/>
                  <rect id="Rectángulo_468586" data-name="Rectángulo 468586" width="17.91" height="2.379" transform="translate(68.442)" fill="#5198ff"/>
                  <rect id="Rectángulo_468587" data-name="Rectángulo 468587" width="28.038" height="2.379" transform="translate(35.074)" fill="#5198ff"/>
                  <rect id="Rectángulo_468588" data-name="Rectángulo 468588" width="28.038" height="2.379" transform="translate(35.074 5.362)" fill="#5198ff"/>
                  <rect id="Rectángulo_468589" data-name="Rectángulo 468589" width="37.581" height="3.188" transform="translate(35.074 9.915)" fill="#5198ff"/>
                  <rect id="Rectángulo_468590" data-name="Rectángulo 468590" width="28.038" height="2.379" transform="translate(35.074 16.086)" fill="#5198ff"/>
                  <rect id="Rectángulo_468591" data-name="Rectángulo 468591" width="28.038" height="2.379" transform="translate(35.074 21.448)" fill="#5198ff"/>
                  <rect id="Rectángulo_468592" data-name="Rectángulo 468592" width="47.6" height="2.379" transform="translate(35.074 26.81)" fill="#5198ff"/>
                  <rect id="Rectángulo_468593" data-name="Rectángulo 468593" width="28.038" height="2.379" transform="translate(35.074 32.172)" fill="#5198ff"/>
                  <rect id="Rectángulo_468594" data-name="Rectángulo 468594" width="31.369" height="2.379" transform="translate(35.074 37.534)" fill="#5198ff"/>
                  <rect id="Rectángulo_468595" data-name="Rectángulo 468595" width="33.368" height="2.379" transform="translate(35.074 42.895)" fill="#5198ff"/>
                  <rect id="Rectángulo_468596" data-name="Rectángulo 468596" width="28.038" height="2.379" transform="translate(35.074 48.258)" fill="#5198ff"/>
                  <rect id="Rectángulo_468597" data-name="Rectángulo 468597" width="28.038" height="2.379" transform="translate(35.074 53.62)" fill="#5198ff"/>
                  <rect id="Rectángulo_468598" data-name="Rectángulo 468598" width="39.445" height="2.379" transform="translate(35.074 58.982)" fill="#5198ff"/>
                  <rect id="Rectángulo_468599" data-name="Rectángulo 468599" width="32.088" height="2.379" transform="translate(35.074 64.344)" fill="#5198ff"/>
                  <rect id="Rectángulo_468600" data-name="Rectángulo 468600" width="28.038" height="2.379" transform="translate(35.074 69.706)" fill="#5198ff"/>
                  <rect id="Rectángulo_468601" data-name="Rectángulo 468601" width="32.088" height="2.379" transform="translate(35.074 75.068)" fill="#5198ff"/>
                  <rect id="Rectángulo_468602" data-name="Rectángulo 468602" width="35.207" height="2.379" transform="translate(35.074 80.43)" fill="#5198ff"/>
                  <rect id="Rectángulo_468603" data-name="Rectángulo 468603" width="28.038" height="2.379" transform="translate(35.074 85.792)" fill="#5198ff"/>
                  <rect id="Rectángulo_468604" data-name="Rectángulo 468604" width="32.728" height="2.379" transform="translate(35.074 91.153)" fill="#5198ff"/>
                  <rect id="Rectángulo_468605" data-name="Rectángulo 468605" width="9.915" height="2.379" transform="translate(65.562 117.86)" fill="#5198ff"/>
                  <rect id="Rectángulo_468606" data-name="Rectángulo 468606" width="9.915" height="2.379" transform="translate(64.604 101.702)" fill="#5198ff"/>
                  <rect id="Rectángulo_468607" data-name="Rectángulo 468607" width="28.038" height="2.379" transform="translate(35.074 96.412)" fill="#5198ff"/>
                  <rect id="Rectángulo_468608" data-name="Rectángulo 468608" width="28.038" height="2.379" transform="translate(35.074 101.773)" fill="#5198ff"/>
                  <rect id="Rectángulo_468609" data-name="Rectángulo 468609" width="39.445" height="2.379" transform="translate(35.074 107.136)" fill="#5198ff"/>
                  <rect id="Rectángulo_468610" data-name="Rectángulo 468610" width="32.088" height="2.379" transform="translate(35.074 112.497)" fill="#5198ff"/>
                  <rect id="Rectángulo_468611" data-name="Rectángulo 468611" width="28.038" height="2.379" transform="translate(35.074 117.86)" fill="#5198ff"/>
                  <rect id="Rectángulo_468612" data-name="Rectángulo 468612" width="32.088" height="2.379" transform="translate(35.074 123.221)" fill="#5198ff"/>
                  <rect id="Rectángulo_468613" data-name="Rectángulo 468613" width="35.207" height="2.379" transform="translate(35.074 128.584)" fill="#5198ff"/>
                  <rect id="Rectángulo_468614" data-name="Rectángulo 468614" width="28.038" height="2.379" transform="translate(35.074 133.945)" fill="#5198ff"/>
                  <rect id="Rectángulo_468615" data-name="Rectángulo 468615" width="32.728" height="2.379" transform="translate(35.074 139.307)" fill="#5198ff"/>
                  <rect id="Rectángulo_468616" data-name="Rectángulo 468616" width="2.379" height="2.379" transform="translate(28.624)" fill="#5198ff"/>
                  <rect id="Rectángulo_468617" data-name="Rectángulo 468617" width="2.379" height="2.379" transform="translate(28.624 5.362)" fill="#5198ff"/>
                  <rect id="Rectángulo_468618" data-name="Rectángulo 468618" width="2.379" height="2.379" transform="translate(28.624 10.724)" fill="#5198ff"/>
                  <rect id="Rectángulo_468619" data-name="Rectángulo 468619" width="2.379" height="2.379" transform="translate(28.624 16.086)" fill="#5198ff"/>
                  <rect id="Rectángulo_468620" data-name="Rectángulo 468620" width="2.379" height="2.379" transform="translate(28.624 21.448)" fill="#5198ff"/>
                  <rect id="Rectángulo_468621" data-name="Rectángulo 468621" width="2.379" height="2.379" transform="translate(28.624 26.81)" fill="#5198ff"/>
                  <rect id="Rectángulo_468622" data-name="Rectángulo 468622" width="2.379" height="2.379" transform="translate(28.624 32.172)" fill="#5198ff"/>
                  <rect id="Rectángulo_468623" data-name="Rectángulo 468623" width="2.379" height="2.379" transform="translate(28.624 37.534)" fill="#5198ff"/>
                  <rect id="Rectángulo_468624" data-name="Rectángulo 468624" width="2.379" height="2.379" transform="translate(28.624 42.895)" fill="#5198ff"/>
                  <rect id="Rectángulo_468625" data-name="Rectángulo 468625" width="2.379" height="2.379" transform="translate(28.624 48.258)" fill="#5198ff"/>
                  <rect id="Rectángulo_468626" data-name="Rectángulo 468626" width="2.379" height="2.379" transform="translate(28.624 53.62)" fill="#5198ff"/>
                  <rect id="Rectángulo_468627" data-name="Rectángulo 468627" width="2.379" height="2.379" transform="translate(28.624 58.982)" fill="#5198ff"/>
                  <rect id="Rectángulo_468628" data-name="Rectángulo 468628" width="2.379" height="2.379" transform="translate(28.624 64.344)" fill="#5198ff"/>
                  <rect id="Rectángulo_468629" data-name="Rectángulo 468629" width="2.379" height="2.379" transform="translate(28.624 69.706)" fill="#5198ff"/>
                  <rect id="Rectángulo_468630" data-name="Rectángulo 468630" width="2.379" height="2.379" transform="translate(28.624 75.068)" fill="#5198ff"/>
                  <rect id="Rectángulo_468631" data-name="Rectángulo 468631" width="2.379" height="2.379" transform="translate(28.624 80.43)" fill="#5198ff"/>
                  <rect id="Rectángulo_468632" data-name="Rectángulo 468632" width="2.379" height="2.379" transform="translate(28.624 85.792)" fill="#5198ff"/>
                  <rect id="Rectángulo_468633" data-name="Rectángulo 468633" width="2.379" height="2.379" transform="translate(28.624 91.153)" fill="#5198ff"/>
                  <rect id="Rectángulo_468634" data-name="Rectángulo 468634" width="2.379" height="2.379" transform="translate(28.624 96.516)" fill="#5198ff"/>
                  <rect id="Rectángulo_468635" data-name="Rectángulo 468635" width="2.379" height="2.379" transform="translate(28.624 101.878)" fill="#5198ff"/>
                  <rect id="Rectángulo_468636" data-name="Rectángulo 468636" width="2.379" height="2.379" transform="translate(28.624 107.24)" fill="#5198ff"/>
                  <rect id="Rectángulo_468637" data-name="Rectángulo 468637" width="2.379" height="2.379" transform="translate(28.624 112.602)" fill="#5198ff"/>
                  <rect id="Rectángulo_468638" data-name="Rectángulo 468638" width="2.379" height="2.379" transform="translate(28.624 117.964)" fill="#5198ff"/>
                  <rect id="Rectángulo_468639" data-name="Rectángulo 468639" width="2.379" height="2.379" transform="translate(28.624 123.326)" fill="#5198ff"/>
                  <rect id="Rectángulo_468640" data-name="Rectángulo 468640" width="2.379" height="2.379" transform="translate(28.624 128.688)" fill="#5198ff"/>
                  <rect id="Rectángulo_468641" data-name="Rectángulo 468641" width="2.379" height="2.379" transform="translate(28.624 134.05)" fill="#5198ff"/>
                  <rect id="Rectángulo_468642" data-name="Rectángulo 468642" width="2.379" height="2.379" transform="translate(28.624 139.411)" fill="#5198ff"/>
                </g>
              </g>
            </g>
            <g id="Grupo_1214878" data-name="Grupo 1214878" transform="translate(196.636 60.457)" opacity="0.2">
              <g id="Grupo_1214877" data-name="Grupo 1214877">
                <g id="Grupo_1214876" data-name="Grupo 1214876" clip-path="url(#clip-path-4)">
                  <rect id="Rectángulo_468644" data-name="Rectángulo 468644" width="3.998" height="3.998" transform="translate(-0.001)" fill="#5198ff"/>
                  <rect id="Rectángulo_468645" data-name="Rectángulo 468645" width="17.91" height="2.379" transform="translate(7.356 0.81)" fill="#5198ff"/>
                  <rect id="Rectángulo_468646" data-name="Rectángulo 468646" width="3.998" height="3.998" transform="translate(-0.001 5.362)" fill="#5198ff"/>
                  <rect id="Rectángulo_468647" data-name="Rectángulo 468647" width="17.91" height="2.379" transform="translate(7.356 6.171)" fill="#5198ff"/>
                  <rect id="Rectángulo_468648" data-name="Rectángulo 468648" width="3.998" height="3.998" transform="translate(-0.001 10.724)" fill="#5198ff"/>
                  <rect id="Rectángulo_468649" data-name="Rectángulo 468649" width="17.91" height="2.379" transform="translate(7.356 11.534)" fill="#5198ff"/>
                  <rect id="Rectángulo_468650" data-name="Rectángulo 468650" width="3.998" height="3.998" transform="translate(-0.001 16.086)" fill="#5198ff"/>
                  <rect id="Rectángulo_468651" data-name="Rectángulo 468651" width="17.91" height="2.379" transform="translate(7.356 16.895)" fill="#5198ff"/>
                  <rect id="Rectángulo_468652" data-name="Rectángulo 468652" width="3.998" height="3.998" transform="translate(-0.001 21.448)" fill="#5198ff"/>
                  <rect id="Rectángulo_468653" data-name="Rectángulo 468653" width="17.91" height="2.379" transform="translate(7.356 22.258)" fill="#5198ff"/>
                  <rect id="Rectángulo_468654" data-name="Rectángulo 468654" width="3.998" height="3.998" transform="translate(-0.001 26.81)" fill="#5198ff"/>
                  <rect id="Rectángulo_468655" data-name="Rectángulo 468655" width="17.91" height="2.379" transform="translate(7.356 27.619)" fill="#5198ff"/>
                  <rect id="Rectángulo_468656" data-name="Rectángulo 468656" width="3.998" height="3.998" transform="translate(-0.001 32.172)" fill="#5198ff"/>
                  <rect id="Rectángulo_468657" data-name="Rectángulo 468657" width="17.91" height="2.379" transform="translate(7.356 32.982)" fill="#5198ff"/>
                  <rect id="Rectángulo_468658" data-name="Rectángulo 468658" width="3.998" height="3.998" transform="translate(-0.001 37.534)" fill="#5198ff"/>
                  <rect id="Rectángulo_468659" data-name="Rectángulo 468659" width="17.91" height="2.379" transform="translate(7.356 38.343)" fill="#5198ff"/>
                  <rect id="Rectángulo_468660" data-name="Rectángulo 468660" width="3.998" height="3.998" transform="translate(-0.001 42.896)" fill="#5198ff"/>
                  <rect id="Rectángulo_468661" data-name="Rectángulo 468661" width="17.91" height="2.379" transform="translate(7.356 43.706)" fill="#5198ff"/>
                  <rect id="Rectángulo_468662" data-name="Rectángulo 468662" width="3.998" height="3.998" transform="translate(-0.001 48.258)" fill="#5198ff"/>
                  <rect id="Rectángulo_468663" data-name="Rectángulo 468663" width="17.91" height="2.379" transform="translate(7.356 49.068)" fill="#5198ff"/>
                  <rect id="Rectángulo_468664" data-name="Rectángulo 468664" width="3.998" height="3.998" transform="translate(-0.001 53.62)" fill="#5198ff"/>
                  <rect id="Rectángulo_468665" data-name="Rectángulo 468665" width="17.91" height="2.379" transform="translate(7.356 54.429)" fill="#5198ff"/>
                  <rect id="Rectángulo_468666" data-name="Rectángulo 468666" width="3.998" height="3.998" transform="translate(-0.001 58.982)" fill="#5198ff"/>
                  <rect id="Rectángulo_468667" data-name="Rectángulo 468667" width="17.91" height="2.379" transform="translate(7.356 59.792)" fill="#5198ff"/>
                  <rect id="Rectángulo_468668" data-name="Rectángulo 468668" width="3.998" height="3.998" transform="translate(-0.001 64.344)" fill="#5198ff"/>
                  <rect id="Rectángulo_468669" data-name="Rectángulo 468669" width="17.91" height="2.379" transform="translate(7.356 65.153)" fill="#5198ff"/>
                  <rect id="Rectángulo_468670" data-name="Rectángulo 468670" width="3.998" height="3.998" transform="translate(-0.001 69.706)" fill="#5198ff"/>
                  <rect id="Rectángulo_468671" data-name="Rectángulo 468671" width="17.91" height="2.379" transform="translate(7.356 70.516)" fill="#5198ff"/>
                  <rect id="Rectángulo_468672" data-name="Rectángulo 468672" width="3.998" height="3.998" transform="translate(-0.001 75.068)" fill="#5198ff"/>
                  <rect id="Rectángulo_468673" data-name="Rectángulo 468673" width="17.91" height="2.379" transform="translate(7.356 75.877)" fill="#5198ff"/>
                  <rect id="Rectángulo_468674" data-name="Rectángulo 468674" width="3.998" height="3.998" transform="translate(-0.001 80.43)" fill="#5198ff"/>
                  <rect id="Rectángulo_468675" data-name="Rectángulo 468675" width="17.91" height="2.379" transform="translate(7.356 81.24)" fill="#5198ff"/>
                  <rect id="Rectángulo_468676" data-name="Rectángulo 468676" width="3.998" height="3.998" transform="translate(-0.001 85.792)" fill="#5198ff"/>
                  <rect id="Rectángulo_468677" data-name="Rectángulo 468677" width="17.91" height="2.379" transform="translate(7.356 86.601)" fill="#5198ff"/>
                  <rect id="Rectángulo_468678" data-name="Rectángulo 468678" width="3.998" height="3.998" transform="translate(-0.001 91.154)" fill="#5198ff"/>
                  <rect id="Rectángulo_468679" data-name="Rectángulo 468679" width="17.91" height="2.379" transform="translate(7.356 91.964)" fill="#5198ff"/>
                  <rect id="Rectángulo_468680" data-name="Rectángulo 468680" width="9.915" height="2.379" transform="translate(65.563 70.516)" fill="#5198ff"/>
                  <rect id="Rectángulo_468681" data-name="Rectángulo 468681" width="9.915" height="2.379" transform="translate(64.603 54.358)" fill="#5198ff"/>
                  <rect id="Rectángulo_468682" data-name="Rectángulo 468682" width="9.915" height="2.379" transform="translate(71.159 43.563)" fill="#5198ff"/>
                  <rect id="Rectángulo_468683" data-name="Rectángulo 468683" width="9.915" height="2.379" transform="translate(65.323 32.982)" fill="#5198ff"/>
                  <rect id="Rectángulo_468684" data-name="Rectángulo 468684" width="17.91" height="2.379" transform="translate(68.441 0.81)" fill="#5198ff"/>
                  <rect id="Rectángulo_468685" data-name="Rectángulo 468685" width="28.038" height="2.379" transform="translate(35.073 0.81)" fill="#5198ff"/>
                  <rect id="Rectángulo_468686" data-name="Rectángulo 468686" width="28.038" height="2.379" transform="translate(35.073 6.171)" fill="#5198ff"/>
                  <rect id="Rectángulo_468687" data-name="Rectángulo 468687" width="37.581" height="3.188" transform="translate(35.073 10.724)" fill="#5198ff"/>
                  <rect id="Rectángulo_468688" data-name="Rectángulo 468688" width="28.038" height="2.379" transform="translate(35.073 16.895)" fill="#5198ff"/>
                  <rect id="Rectángulo_468689" data-name="Rectángulo 468689" width="28.038" height="2.379" transform="translate(35.073 22.258)" fill="#5198ff"/>
                  <rect id="Rectángulo_468690" data-name="Rectángulo 468690" width="47.6" height="2.379" transform="translate(35.074 27.619)" fill="#5198ff"/>
                  <rect id="Rectángulo_468691" data-name="Rectángulo 468691" width="28.038" height="2.379" transform="translate(35.073 32.982)" fill="#5198ff"/>
                  <rect id="Rectángulo_468692" data-name="Rectángulo 468692" width="31.369" height="2.379" transform="translate(35.074 38.343)" fill="#5198ff"/>
                  <rect id="Rectángulo_468693" data-name="Rectángulo 468693" width="33.368" height="2.379" transform="translate(35.073 43.706)" fill="#5198ff"/>
                  <rect id="Rectángulo_468694" data-name="Rectángulo 468694" width="28.038" height="2.379" transform="translate(35.073 49.068)" fill="#5198ff"/>
                  <rect id="Rectángulo_468695" data-name="Rectángulo 468695" width="28.038" height="2.379" transform="translate(35.073 54.429)" fill="#5198ff"/>
                  <rect id="Rectángulo_468696" data-name="Rectángulo 468696" width="39.445" height="2.379" transform="translate(35.073 59.792)" fill="#5198ff"/>
                  <rect id="Rectángulo_468697" data-name="Rectángulo 468697" width="32.088" height="2.379" transform="translate(35.073 65.153)" fill="#5198ff"/>
                  <rect id="Rectángulo_468698" data-name="Rectángulo 468698" width="28.038" height="2.379" transform="translate(35.073 70.516)" fill="#5198ff"/>
                  <rect id="Rectángulo_468699" data-name="Rectángulo 468699" width="32.088" height="2.379" transform="translate(35.073 75.877)" fill="#5198ff"/>
                  <rect id="Rectángulo_468700" data-name="Rectángulo 468700" width="35.207" height="2.379" transform="translate(35.073 81.24)" fill="#5198ff"/>
                  <rect id="Rectángulo_468701" data-name="Rectángulo 468701" width="28.038" height="2.379" transform="translate(35.073 86.601)" fill="#5198ff"/>
                  <rect id="Rectángulo_468702" data-name="Rectángulo 468702" width="32.728" height="2.379" transform="translate(35.073 91.964)" fill="#5198ff"/>
                  <rect id="Rectángulo_468703" data-name="Rectángulo 468703" width="9.915" height="2.379" transform="translate(65.563 118.669)" fill="#5198ff"/>
                  <rect id="Rectángulo_468704" data-name="Rectángulo 468704" width="9.915" height="2.379" transform="translate(64.603 102.512)" fill="#5198ff"/>
                  <rect id="Rectángulo_468705" data-name="Rectángulo 468705" width="28.038" height="2.379" transform="translate(35.073 97.221)" fill="#5198ff"/>
                  <rect id="Rectángulo_468706" data-name="Rectángulo 468706" width="28.038" height="2.379" transform="translate(35.073 102.583)" fill="#5198ff"/>
                  <rect id="Rectángulo_468707" data-name="Rectángulo 468707" width="39.445" height="2.379" transform="translate(35.073 107.945)" fill="#5198ff"/>
                  <rect id="Rectángulo_468708" data-name="Rectángulo 468708" width="32.088" height="2.379" transform="translate(35.073 113.307)" fill="#5198ff"/>
                  <rect id="Rectángulo_468709" data-name="Rectángulo 468709" width="28.038" height="2.379" transform="translate(35.073 118.669)" fill="#5198ff"/>
                  <rect id="Rectángulo_468710" data-name="Rectángulo 468710" width="32.088" height="2.379" transform="translate(35.073 124.031)" fill="#5198ff"/>
                  <rect id="Rectángulo_468711" data-name="Rectángulo 468711" width="35.207" height="2.379" transform="translate(35.073 129.393)" fill="#5198ff"/>
                  <rect id="Rectángulo_468712" data-name="Rectángulo 468712" width="28.038" height="2.379" transform="translate(35.073 134.755)" fill="#5198ff"/>
                  <rect id="Rectángulo_468713" data-name="Rectángulo 468713" width="32.728" height="2.379" transform="translate(35.073 140.118)" fill="#5198ff"/>
                  <rect id="Rectángulo_468714" data-name="Rectángulo 468714" width="2.379" height="2.379" transform="translate(28.623 0.81)" fill="#5198ff"/>
                  <rect id="Rectángulo_468715" data-name="Rectángulo 468715" width="2.379" height="2.379" transform="translate(28.623 6.171)" fill="#5198ff"/>
                  <rect id="Rectángulo_468716" data-name="Rectángulo 468716" width="2.379" height="2.379" transform="translate(28.623 11.534)" fill="#5198ff"/>
                  <rect id="Rectángulo_468717" data-name="Rectángulo 468717" width="2.379" height="2.379" transform="translate(28.623 16.895)" fill="#5198ff"/>
                  <rect id="Rectángulo_468718" data-name="Rectángulo 468718" width="2.379" height="2.379" transform="translate(28.623 22.258)" fill="#5198ff"/>
                  <rect id="Rectángulo_468719" data-name="Rectángulo 468719" width="2.379" height="2.379" transform="translate(28.623 27.619)" fill="#5198ff"/>
                  <rect id="Rectángulo_468720" data-name="Rectángulo 468720" width="2.379" height="2.379" transform="translate(28.623 32.982)" fill="#5198ff"/>
                  <rect id="Rectángulo_468721" data-name="Rectángulo 468721" width="2.379" height="2.379" transform="translate(28.623 38.343)" fill="#5198ff"/>
                  <rect id="Rectángulo_468722" data-name="Rectángulo 468722" width="2.379" height="2.379" transform="translate(28.623 43.706)" fill="#5198ff"/>
                  <rect id="Rectángulo_468723" data-name="Rectángulo 468723" width="2.379" height="2.379" transform="translate(28.623 49.068)" fill="#5198ff"/>
                  <rect id="Rectángulo_468724" data-name="Rectángulo 468724" width="2.379" height="2.379" transform="translate(28.623 54.429)" fill="#5198ff"/>
                  <rect id="Rectángulo_468725" data-name="Rectángulo 468725" width="2.379" height="2.379" transform="translate(28.623 59.792)" fill="#5198ff"/>
                  <rect id="Rectángulo_468726" data-name="Rectángulo 468726" width="2.379" height="2.379" transform="translate(28.623 65.153)" fill="#5198ff"/>
                  <rect id="Rectángulo_468727" data-name="Rectángulo 468727" width="2.379" height="2.379" transform="translate(28.623 70.516)" fill="#5198ff"/>
                  <rect id="Rectángulo_468728" data-name="Rectángulo 468728" width="2.379" height="2.379" transform="translate(28.623 75.877)" fill="#5198ff"/>
                  <rect id="Rectángulo_468729" data-name="Rectángulo 468729" width="2.379" height="2.379" transform="translate(28.623 81.24)" fill="#5198ff"/>
                  <rect id="Rectángulo_468730" data-name="Rectángulo 468730" width="2.379" height="2.379" transform="translate(28.623 86.601)" fill="#5198ff"/>
                  <rect id="Rectángulo_468731" data-name="Rectángulo 468731" width="2.379" height="2.379" transform="translate(28.623 91.964)" fill="#5198ff"/>
                  <rect id="Rectángulo_468732" data-name="Rectángulo 468732" width="2.379" height="2.379" transform="translate(28.623 97.326)" fill="#5198ff"/>
                  <rect id="Rectángulo_468733" data-name="Rectángulo 468733" width="2.379" height="2.379" transform="translate(28.623 102.687)" fill="#5198ff"/>
                  <rect id="Rectángulo_468734" data-name="Rectángulo 468734" width="2.379" height="2.379" transform="translate(28.623 108.05)" fill="#5198ff"/>
                  <rect id="Rectángulo_468735" data-name="Rectángulo 468735" width="2.379" height="2.379" transform="translate(28.623 113.411)" fill="#5198ff"/>
                  <rect id="Rectángulo_468736" data-name="Rectángulo 468736" width="2.379" height="2.379" transform="translate(28.623 118.774)" fill="#5198ff"/>
                  <rect id="Rectángulo_468737" data-name="Rectángulo 468737" width="2.379" height="2.379" transform="translate(28.623 124.135)" fill="#5198ff"/>
                  <rect id="Rectángulo_468738" data-name="Rectángulo 468738" width="2.379" height="2.379" transform="translate(28.623 129.498)" fill="#5198ff"/>
                  <rect id="Rectángulo_468739" data-name="Rectángulo 468739" width="2.379" height="2.379" transform="translate(28.623 134.859)" fill="#5198ff"/>
                  <rect id="Rectángulo_468740" data-name="Rectángulo 468740" width="2.379" height="2.379" transform="translate(28.623 140.222)" fill="#5198ff"/>
                </g>
              </g>
            </g>
            <g id="Grupo_1214881" data-name="Grupo 1214881" transform="translate(233.319 30.433)" opacity="0.5">
              <g id="Grupo_1214880" data-name="Grupo 1214880">
                <g id="Grupo_1214879" data-name="Grupo 1214879" clip-path="url(#clip-path-5)">
                  <path id="Trazado_1284416" data-name="Trazado 1284416" d="M293.173,211.333h-.208l.009-36.423,27.281-55.424V71.041l.129.167a1.2,1.2,0,0,1,.074.1l.011.014v48.216l-.017.023-.1.2-27.181,55.225Zm-.1-.1V174.958l0-.011,24.149-49.065-24.157,49.073ZM320.36,71.348v48.163l-.075.15.079-.156V71.353l0,0" transform="translate(-240.537 -32.184)" fill="#51aeff"/>
                  <path id="Trazado_1284417" data-name="Trazado 1284417" d="M298.525,211.523h-.21V176.333l.017-.024,27.278-55.421V78.73l.136.212c.02.033.042.067.065.1l.009.013v41.893l-.017.016-27.278,55.424Zm-.105-.1h0V176.364h0ZM325.714,79.087v0h0" transform="translate(-240.669 -32.373)" fill="#51aeff"/>
                  <path id="Trazado_1284418" data-name="Trazado 1284418" d="M295.851,211.423h-.213V175.629l.016-.024,27.279-55.422V74.707l.094.122c.038.05.072.1.106.153l.009.014-.009,45.255-27.282,55.428Zm-.108-.1h0V175.654l0-.011L323.039,120.2l0-45.179v45.181l-.006.011-27.289,55.442Z" transform="translate(-240.603 -32.274)" fill="#51aeff"/>
                  <path id="Trazado_1284419" data-name="Trazado 1284419" d="M293.173,211.333h-.208l.009-35.814.1-.2,27.18-55.225V71.041l.129.167a1.2,1.2,0,0,1,.074.1l.011.014v48.822l-.017.024-27.279,55.422Zm-.1-.1V175.565l.076-.156-.079.158ZM320.36,71.348v48.769l-.006.011L300.012,161.46l20.352-41.348V71.353l0,0" transform="translate(-240.537 -32.184)" fill="#51aeff"/>
                  <path id="Trazado_1284420" data-name="Trazado 1284420" d="M290.281,211.244h-.209l.009-36.356,27.282-55.428v-52l.089.088a1.093,1.093,0,0,1,.087.1l.033.041v51.83l-.015.016-27.276,55.425Zm-.1-.1v-36.2l.006-.011L305.3,144.2l-15.127,30.732ZM317.467,67.727v0Z" transform="translate(-240.466 -32.095)" fill="#51aeff"/>
                  <path id="Trazado_1284421" data-name="Trazado 1284421" d="M284.932,211.1h-.21l.006-37.561L312.009,118.1V61.56l.214.214v56.381l-.018.024-.1.2L284.932,173.6Zm-.105-.1h0V173.575l.006-.011,27.285-55.441V61.817l0,0v56.313l-.006.011-27.282,55.439Z" transform="translate(-240.334 -31.95)" fill="#51aeff"/>
                  <path id="Trazado_1284422" data-name="Trazado 1284422" d="M287.6,211.168h-.21l.009-36.961,27.282-55.428v-54.4l.209.232-.009,54.235L287.6,174.276Zm-.105-.1h0V174.252l.006-.011L314.792,118.8l0-54.15V118.8l0,.011L287.5,174.253Z" transform="translate(-240.4 -32.019)" fill="#51aeff"/>
                  <path id="Trazado_1284423" data-name="Trazado 1284423" d="M284.931,211.1h-.21l.01-36.962.1-.2,27.176-55.225V61.561l.213.214v56.986l-.017.025-27.274,55.421Zm-.105-.1h0V174.182l.086-.173-.088.175ZM312.113,61.814v56.921l0,.011-22.3,45.316,22.309-45.332V61.818Z" transform="translate(-240.334 -31.95)" fill="#51aeff"/>
                  <path id="Trazado_1284424" data-name="Trazado 1284424" d="M266.713,210.352h-.21V175.217l-27.291-55.461V31.2h.21v88.516l.626,1.276,26.664,54.17Zm-.105-.1v0Zm-.329-35.725.012.024v0l-.012-.023Zm-2.541-5.16,2.43,4.931Zm-1.567-3.186.012.023v0l-.012-.024Zm-2.64-5.362.011.023v0l-.011-.023Zm-6.281-12.763,2.4,4.88Zm-1.583-3.219.012.023v0l-.012-.023Zm-1.174-2.38,1.076,2.176-1.75-3.553Zm-4.1-8.346.012.023v0l-.012-.023Zm-2.641-5.361.05.1-.034-.075-2.528-5.132Zm-4.429-9,.07.141-.07-.155v.014Z" transform="translate(-239.213 -31.202)" fill="#51aeff"/>
                  <path id="Trazado_1284425" data-name="Trazado 1284425" d="M272.064,210.354h-.21V174l-27.291-55.462V31.294h.052a1.022,1.022,0,0,1,.111,0l.047,0v87.2l9.145,18.575,1.167,2.379,16.979,34.488Zm-.105-.105h0v0Zm-6.479-49.431,1.078,2.189-3.547-7.214Zm-7.744-15.738,2.452,4.984-1.084-2.209Zm-.119-.243.012.024v0l-.012-.024Zm-1.171-2.379.012.023v0l-.012-.023Zm-4.107-8.346.012.023v0l-.012-.023ZM249.7,128.75l.012.023v0l-.012-.024Zm-5.028-10.22h0v0Z" transform="translate(-239.345 -31.204)" fill="#51aeff"/>
                  <path id="Trazado_1284426" data-name="Trazado 1284426" d="M269.386,210.351h-.209V174.607l-27.291-55.445V31.213h.209v87.9l27.291,55.462Zm-.1-.1h0V174.578l-.028-.057v0l.029.072Zm-3.306-42.38,1.6,3.242Zm-3.469-7.051.012.024v0l-.012-.024Zm-1.171-2.379.012.024v0l-.012-.023Zm-6.7-13.6.011.023v0l-.011-.023Zm-1.17-2.379.973,1.977-2.175-4.423Zm-4.108-8.346,1.359,2.755-3.79-7.7Zm-2.637-5.361.012.023v0l-.012-.024Zm-1.17-2.38.011.023v0l-.011-.023Zm-3.562-7.238h0v0Z" transform="translate(-239.279 -31.202)" fill="#51aeff"/>
                  <path id="Trazado_1284427" data-name="Trazado 1284427" d="M272.064,210.353h-.21V174.609l-27.291-55.462V31.294h.052a1.022,1.022,0,0,1,.111,0l.047,0v87.81l27.291,55.445Zm-.105-.1h0v0ZM269.4,169.4l2.328,4.727Zm-2.075-4.216,1.839,3.736Zm-2.15-4.364.012.024v0l-.012-.023Zm-1.171-2.379.012.023v0l-.012-.023Zm-3.263-6.633,3.145,6.389Zm-3.429-6.969.012.023v0l-.012-.023Zm-1.171-2.379.012.023v0l-.012-.024Zm-3.978-8.082,3.858,7.834Zm-.13-.265.012.024v0l-.012-.023Zm-2.625-5.333.087.179,1.261,2.561Zm-.013-.026.012.024v0l-.012-.024Zm-1.171-2.38.012.023v0l-.012-.023Zm-3.559-7.23,2.009,4.083Zm0,0h0v0Z" transform="translate(-239.345 -31.204)" fill="#51aeff"/>
                  <path id="Trazado_1284428" data-name="Trazado 1284428" d="M274.96,210.357h-.21V174.074L247.46,118.612V31.459h.053a.562.562,0,0,1,.112.008l.041.01v87.1L274.96,174.02Zm-.105-.1v0Zm-11.6-59.775,9.1,18.478Zm-2.774-5.638.012.023v0l-.012-.024Zm-5.04-10.241,3.086,6.271Zm-.238-.485.011.023v0l-.011-.022Zm-2.572-5.222.033.068,1.163,2.359Zm-1.241-2.517.012.023v0l-.012-.023Z" transform="translate(-239.416 -31.208)" fill="#51aeff"/>
                  <path id="Trazado_1284429" data-name="Trazado 1284429" d="M280.31,210.37h-.21v-37.5L252.81,117.41V31.971l.206.022v85.378l2.965,6.019,1.187,2.424.289.573,9.086,18.466,13.767,27.98Zm-.105-.1h0v-37.42l-2.713-5.5,2.712,5.519Zm-13.782-65.413,3.462,7.025-4.532-9.207Zm-1.167-2.379.011.023v0l-.011-.024Zm-4.107-8.347.011.024v0l-.011-.023Zm-2.642-5.361.012.024v0l-.012-.024Zm-1.17-2.379,1.088,2.206-1.286-2.608Zm-1.291-2.629,1.018,2.076v0Zm-2.7-5.487,1.3,2.638-.283-.577Zm-.113-.23.011.023v0l-.011-.023Zm-.268-.544.05.1.177.354Z" transform="translate(-239.548 -31.221)" fill="#51aeff"/>
                  <path id="Trazado_1284430" data-name="Trazado 1284430" d="M277.632,210.363h-.209V173.47l-4.772-9.7-22.518-45.764V31.681h.052a.826.826,0,0,1,.11.009l.047,0v86.279l.03.06,27.26,55.4Zm-.1-.1V173.441l-.782-1.589.783,1.606Zm-14.077-65.414.011.023v0l-.011-.023Zm-1.171-2.379.012.023v0l-.012-.023Zm-2.554-5.194,1.078,2.2,1.364,2.764Zm-1.554-3.152.012.023v0l-.012-.024Zm-2.637-5.361.011.023v0l-.011-.023Zm-1.171-2.38.012.023v0l-.012-.023Zm-2.962-6.021,1.426,2.9Zm-1.145-2.325.012.024v0Zm-.019-.038h0v0Z" transform="translate(-239.482 -31.214)" fill="#51aeff"/>
                  <path id="Trazado_1284431" data-name="Trazado 1284431" d="M280.31,210.37h-.21V173.477l-27.29-55.462V31.971l.2.022V117.98l.03.06,27.264,55.4Zm-.1-.1h0V173.448l-.088-.175.089.192Zm-14.077-65.413.011.024v0l-.011-.024Zm-1.175-2.379,1.062,2.148-1.7-3.443Zm-4.1-8.346.012.023v0l-.012-.023Zm-2.641-5.361.012.023v0l-.012-.024Zm-1.17-2.38.043.087,1.019,2.07-1.062-2.159Zm-4.108-8.346.012.024v0Z" transform="translate(-239.548 -31.221)" fill="#51aeff"/>
                </g>
              </g>
            </g>
            <path id="Trazado_1284432" data-name="Trazado 1284432" d="M81.324,212.2h-.1v-3.371L15.335,142.946v-34.64h.1v34.6l65.885,65.883Z" transform="translate(-0.378 -2.668)" fill="#51aeff"/>
            <path id="Trazado_1284433" data-name="Trazado 1284433" d="M83.619,212.13h-.1v-3.371L17.63,142.877v-37.4h.1v37.353l65.885,65.883Z" transform="translate(-0.434 -2.599)" fill="#51aeff"/>
            <path id="Trazado_1284434" data-name="Trazado 1284434" d="M85.915,212.067h-.1V208.7L19.928,142.813v-39.9h.1v39.86l65.882,65.883Z" transform="translate(-0.491 -2.536)" fill="#51aeff"/>
            <path id="Trazado_1284435" data-name="Trazado 1284435" d="M88.21,212.009h-.1v-3.371L22.221,142.756V100.567h.1v42.145L88.21,208.6Z" transform="translate(-0.548 -2.478)" fill="#51aeff"/>
            <path id="Trazado_1284436" data-name="Trazado 1284436" d="M90.506,211.956h-.1v-3.371L24.517,142.7V98.414h.1V142.66l65.885,65.883Z" transform="translate(-0.604 -2.425)" fill="#51aeff"/>
            <path id="Trazado_1284437" data-name="Trazado 1284437" d="M92.8,211.907h-.1v-3.371L26.812,142.654V96.434h.1v46.177L92.8,208.494Z" transform="translate(-0.661 -2.376)" fill="#51aeff"/>
            <path id="Trazado_1284438" data-name="Trazado 1284438" d="M95.094,211.862h-.1v-3.371L29.107,142.609v-48h.105v47.955l65.882,65.883Z" transform="translate(-0.717 -2.331)" fill="#51aeff"/>
            <path id="Trazado_1284439" data-name="Trazado 1284439" d="M97.392,211.821h-.1V208.45L31.4,142.567V92.928h.1v49.6l65.885,65.883Z" transform="translate(-0.774 -2.29)" fill="#51aeff"/>
            <path id="Trazado_1284440" data-name="Trazado 1284440" d="M99.687,211.783h-.1v-3.371L33.7,142.529V91.376h.1v51.11l65.885,65.883Z" transform="translate(-0.83 -2.251)" fill="#51aeff"/>
            <path id="Trazado_1284441" data-name="Trazado 1284441" d="M101.98,211.747h-.1v-3.371L35.993,142.494V89.943H36.1v52.508l65.882,65.883Z" transform="translate(-0.887 -2.216)" fill="#51aeff"/>
            <path id="Trazado_1284442" data-name="Trazado 1284442" d="M104.275,211.715h-.1v-3.371L38.289,142.461V88.623h.1v53.8L104.275,208.3Z" transform="translate(-0.943 -2.184)" fill="#51aeff"/>
            <path id="Trazado_1284443" data-name="Trazado 1284443" d="M106.571,211.685h-.1v-3.371L77.919,179.763,40.585,142.431V87.41h.1v54.978l65.882,65.883Z" transform="translate(-1 -2.154)" fill="#51aeff"/>
            <path id="Trazado_1284444" data-name="Trazado 1284444" d="M108.866,211.658h-.1v-3.371L42.88,142.4V86.3h.1v56.064l65.882,65.883Z" transform="translate(-1.057 -2.126)" fill="#51aeff"/>
            <path id="Trazado_1284445" data-name="Trazado 1284445" d="M111.161,211.633h-.1v-3.371L45.174,142.379v-57.1h.105v57.054l65.882,65.883Z" transform="translate(-1.113 -2.101)" fill="#51aeff"/>
            <path id="Trazado_1284446" data-name="Trazado 1284446" d="M113.457,211.61h-.1v-3.371L47.47,142.356v-58h.105v57.956L113.457,208.2Z" transform="translate(-1.17 -2.078)" fill="#51aeff"/>
            <path id="Trazado_1284447" data-name="Trazado 1284447" d="M115.752,211.589h-.1v-3.371L49.766,142.335V83.517h.1v58.775l65.882,65.883Z" transform="translate(-1.226 -2.058)" fill="#51aeff"/>
            <path id="Trazado_1284448" data-name="Trazado 1284448" d="M288.966,195.464H61.426a8.98,8.98,0,0,1-8.98-8.98V58.3a8.981,8.981,0,0,1,8.98-8.981h227.54a8.981,8.981,0,0,1,8.98,8.981v128.18a8.98,8.98,0,0,1-8.98,8.98" transform="translate(-1.292 -1.215)" fill="#1f1b3d"/>
            <path id="Trazado_1284449" data-name="Trazado 1284449" d="M297.9,56.482a9.136,9.136,0,0,0-8.942-7.306H61.425A9.133,9.133,0,0,0,52.3,58.3V186.482c0,.258.01.512.034.763a9.132,9.132,0,0,0,5.144,7.463c.107.051.214.1.324.144s.235.1.354.144a8.981,8.981,0,0,0,3.271.609H288.963a8.992,8.992,0,0,0,3.271-.609c.119-.044.238-.091.354-.144s.217-.094.321-.144a9.119,9.119,0,0,0,5.178-8.226V58.3a9.08,9.08,0,0,0-.182-1.818m-.106,130a8.842,8.842,0,0,1-5.618,8.226c-.129.054-.26.1-.4.144-.153.054-.31.1-.47.144a8.664,8.664,0,0,1-2.352.321H61.425A8.631,8.631,0,0,1,59.078,195c-.161-.041-.321-.091-.474-.144-.136-.044-.267-.091-.4-.144a8.838,8.838,0,0,1-5.583-7.463,7.578,7.578,0,0,1-.038-.763V58.3a8.848,8.848,0,0,1,8.839-8.836H288.963A8.846,8.846,0,0,1,297.8,58.3Z" transform="translate(-1.289 -1.212)"/>
            <rect id="Rectángulo_468743" data-name="Rectángulo 468743" width="228.701" height="129.57" transform="translate(58.476 59.327)" fill="#cafaff"/>
            <path id="Trazado_1284450" data-name="Trazado 1284450" d="M288.649,60.677H59.949a.144.144,0,0,0-.144.144V190.393a.143.143,0,0,0,.144.144h228.7a.147.147,0,0,0,.147-.144V60.821a.147.147,0,0,0-.147-.144M288.5,190.249H60.094V60.966H288.5Z" transform="translate(-1.474 -1.495)" fill="#cafaff"/>
            <rect id="Rectángulo_468744" data-name="Rectángulo 468744" width="294.529" height="5.103" transform="translate(26.763 193.643)" fill="#4e4e4e"/>
            <path id="Trazado_1284451" data-name="Trazado 1284451" d="M88.714,203.632H319.4v-.144H88.714Zm0,0H319.4v-.144H88.714Zm0,0H319.4v-.144H88.714Zm-61.423.147H322.109v-5.4H27.291Zm294.529-.292H27.58v-4.814H321.82Zm-233.105.144H319.4v-.144H88.714Zm0,0H319.4v-.144H88.714Zm0,0H319.4v-.144H88.714Z" transform="translate(-0.672 -4.888)"/>
            <path id="Trazado_1284452" data-name="Trazado 1284452" d="M27.439,203.766l6.5,3.534a11.771,11.771,0,0,0,5.62,1.428H310.184a11.769,11.769,0,0,0,5.855-1.561l5.929-3.4Z" transform="translate(-0.676 -5.02)" fill="#1f1b3d"/>
            <path id="Trazado_1284453" data-name="Trazado 1284453" d="M26.853,203.616l.427.232.109.06,6,3.264.461.252a11.972,11.972,0,0,0,5.69,1.444H310.168a11.935,11.935,0,0,0,5.928-1.579l3.3-1.892,2.6-1.487.11-.063.4-.229Zm292.539,1.45-3.44,1.971a11.647,11.647,0,0,1-5.784,1.541H39.545A11.681,11.681,0,0,1,34,207.172l-.006,0-6-3.261H321.41Z" transform="translate(-0.662 -5.017)"/>
            <path id="Trazado_1284454" data-name="Trazado 1284454" d="M179.221,53.986a2.082,2.082,0,1,1-2.081-2.082,2.082,2.082,0,0,1,2.081,2.082" transform="translate(-4.313 -1.279)" fill="#fff"/>
            <path id="Trazado_1284455" data-name="Trazado 1284455" d="M177.135,51.757a2.227,2.227,0,1,0,2.229,2.226,2.227,2.227,0,0,0-2.229-2.226m0,4.162a1.937,1.937,0,1,1,1.936-1.936,1.937,1.937,0,0,1-1.936,1.936" transform="translate(-4.31 -1.275)"/>
            <path id="Trazado_1284456" data-name="Trazado 1284456" d="M206.988,200.517H138.721a2.059,2.059,0,0,1-2.06-2.06h72.387a2.06,2.06,0,0,1-2.06,2.06" transform="translate(-3.367 -4.89)" fill="#fff"/>
            <path id="Trazado_1284457" data-name="Trazado 1284457" d="M209.167,198.383a.136.136,0,0,0-.123-.072H136.657a.135.135,0,0,0-.122.072.11.11,0,0,0-.022.072.6.6,0,0,0,0,.072,1.158,1.158,0,0,0,.01.144,1.811,1.811,0,0,0,.057.32.789.789,0,0,0,.041.144,1.138,1.138,0,0,0,.05.144,2.212,2.212,0,0,0,2.043,1.378h68.268a2.212,2.212,0,0,0,2.043-1.378,1.144,1.144,0,0,0,.051-.144.72.72,0,0,0,.04-.144,1.729,1.729,0,0,0,.057-.32.993.993,0,0,0,.01-.144.6.6,0,0,0,0-.072.11.11,0,0,0-.021-.072m-.283.289a1.588,1.588,0,0,1-.062.32,1,1,0,0,1-.048.144c-.019.051-.04.1-.062.144a1.915,1.915,0,0,1-1.726,1.089H138.716a1.924,1.924,0,0,1-1.729-1.089c-.021-.047-.041-.094-.059-.144s-.034-.094-.05-.144a1.818,1.818,0,0,1-.06-.32.535.535,0,0,1-.009-.072h72.085c0,.025,0,.05-.01.072" transform="translate(-3.364 -4.886)"/>
            <rect id="Rectángulo_468745" data-name="Rectángulo 468745" width="148.839" height="6.11" transform="translate(63.685 71.634)" fill="#68eae0"/>
            <rect id="Rectángulo_468746" data-name="Rectángulo 468746" width="89.277" height="6.11" transform="translate(63.685 85.721)" fill="#68eae0"/>
            <rect id="Rectángulo_468747" data-name="Rectángulo 468747" width="74.42" height="6.163" transform="translate(63.684 101.915)" fill="#68eae0"/>
            <rect id="Rectángulo_468748" data-name="Rectángulo 468748" width="74.42" height="6.163" transform="translate(152.961 101.915)" fill="#ffb758"/>
            <rect id="Rectángulo_468749" data-name="Rectángulo 468749" width="74.42" height="6.163" transform="translate(63.684 118.161)" fill="#68eae0"/>
            <rect id="Rectángulo_468750" data-name="Rectángulo 468750" width="74.42" height="6.163" transform="translate(64.438 150.656)" fill="#ff552b"/>
            <rect id="Rectángulo_468751" data-name="Rectángulo 468751" width="37.06" height="6.163" transform="translate(64.59 134.409)" fill="#02ffad"/>
            <rect id="Rectángulo_468752" data-name="Rectángulo 468752" width="8.632" height="76.822" transform="translate(80.35 69.115)" fill="#5b51e0"/>
            <path id="Trazado_1284458" data-name="Trazado 1284458" d="M227.96,87.546l16.514-5.894v1.7l-13.915,4.833v.05l13.915,4.834v1.7L227.96,88.877Z" transform="translate(-5.617 -2.012)" fill="#fff"/>
            <path id="Trazado_1284459" data-name="Trazado 1284459" d="M247.262,95.663l9.929-17.879h2.421l-9.965,17.879Z" transform="translate(-6.092 -1.916)" fill="#fff"/>
            <path id="Trazado_1284460" data-name="Trazado 1284460" d="M278.737,88.9l-16.514,5.87v-1.7l14.023-4.834v-.049l-14.023-4.834v-1.7l16.514,5.87Z" transform="translate(-6.461 -2.012)" fill="#fff"/>
            <rect id="Rectángulo_468753" data-name="Rectángulo 468753" width="77.683" height="66.965" transform="translate(199.226 121.774)" fill="#183835"/>
            <path id="Trazado_1284461" data-name="Trazado 1284461" d="M280.85,145.3H209.727a4.572,4.572,0,0,1-4.572-4.572V129.416a4.572,4.572,0,0,1,4.572-4.572H280.85a4.571,4.571,0,0,1,4.572,4.572v11.315a4.571,4.571,0,0,1-4.572,4.572" transform="translate(-5.055 -3.076)" fill="#183835"/>
            <path id="Trazado_1284462" data-name="Trazado 1284462" d="M267.5,145.3h-63.1a4.322,4.322,0,0,1-4.323-4.323V129.166a4.322,4.322,0,0,1,4.323-4.322h63.1a4.322,4.322,0,0,1,4.322,4.322v11.814A4.322,4.322,0,0,1,267.5,145.3" transform="translate(-4.93 -3.076)" fill="#183835"/>
            <rect id="Rectángulo_468754" data-name="Rectángulo 468754" width="62.527" height="9.779" transform="translate(199.226 126.685)" fill="#afafaf"/>
            <path id="Trazado_1284463" data-name="Trazado 1284463" d="M245.485,135.289a1.657,1.657,0,1,1-1.657-1.657,1.657,1.657,0,0,1,1.657,1.657" transform="translate(-5.967 -3.292)" fill="#183835"/>
            <path id="Trazado_1284464" data-name="Trazado 1284464" d="M244.739,135.293a1.523,1.523,0,1,1-1.523-1.523,1.523,1.523,0,0,1,1.523,1.523" transform="translate(-5.955 -3.296)" fill="#fff"/>
            <path id="Trazado_1284465" data-name="Trazado 1284465" d="M243.215,136.891a1.6,1.6,0,1,1,1.6-1.6,1.6,1.6,0,0,1-1.6,1.6m0-3.046a1.445,1.445,0,1,0,1.445,1.445,1.447,1.447,0,0,0-1.445-1.445" transform="translate(-5.953 -3.294)" fill="#afafaf"/>
            <path id="Trazado_1284466" data-name="Trazado 1284466" d="M253.954,135.289a1.657,1.657,0,1,1-1.657-1.657,1.657,1.657,0,0,1,1.657,1.657" transform="translate(-6.175 -3.292)" fill="#183835"/>
            <path id="Trazado_1284467" data-name="Trazado 1284467" d="M253.208,135.293a1.523,1.523,0,1,1-1.523-1.523,1.523,1.523,0,0,1,1.523,1.523" transform="translate(-6.164 -3.296)" fill="#fff"/>
            <path id="Trazado_1284468" data-name="Trazado 1284468" d="M251.683,136.891a1.6,1.6,0,1,1,1.6-1.6,1.6,1.6,0,0,1-1.6,1.6m0-3.046a1.445,1.445,0,1,0,1.445,1.445,1.447,1.447,0,0,0-1.445-1.445" transform="translate(-6.162 -3.294)" fill="#afafaf"/>
            <path id="Trazado_1284469" data-name="Trazado 1284469" d="M262.423,135.289a1.657,1.657,0,1,1-1.657-1.657,1.658,1.658,0,0,1,1.657,1.657" transform="translate(-6.384 -3.292)" fill="#183835"/>
            <path id="Trazado_1284470" data-name="Trazado 1284470" d="M261.677,135.293a1.523,1.523,0,1,1-1.523-1.523,1.523,1.523,0,0,1,1.523,1.523" transform="translate(-6.372 -3.296)" fill="#183835"/>
            <path id="Trazado_1284471" data-name="Trazado 1284471" d="M260.152,136.891a1.6,1.6,0,1,1,1.6-1.6,1.6,1.6,0,0,1-1.6,1.6m0-3.046a1.445,1.445,0,1,0,1.445,1.445,1.447,1.447,0,0,0-1.445-1.445" transform="translate(-6.37 -3.294)" fill="#afafaf"/>
            <path id="Trazado_1284472" data-name="Trazado 1284472" d="M237.188,135.289a1.657,1.657,0,1,1-1.657-1.657,1.658,1.658,0,0,1,1.657,1.657" transform="translate(-5.762 -3.292)" fill="#183835"/>
            <path id="Trazado_1284473" data-name="Trazado 1284473" d="M236.443,135.293a1.524,1.524,0,1,1-1.524-1.523,1.524,1.524,0,0,1,1.524,1.523" transform="translate(-5.751 -3.296)" fill="#6998ff"/>
            <path id="Trazado_1284474" data-name="Trazado 1284474" d="M234.918,136.891a1.6,1.6,0,1,1,1.6-1.6,1.6,1.6,0,0,1-1.6,1.6m0-3.046a1.445,1.445,0,1,0,1.446,1.445,1.447,1.447,0,0,0-1.446-1.445" transform="translate(-5.749 -3.294)" fill="#afafaf"/>
            <path id="Trazado_1284475" data-name="Trazado 1284475" d="M280.85,168.641H209.727a4.572,4.572,0,0,1-4.572-4.572V152.754a4.572,4.572,0,0,1,4.572-4.572H280.85a4.571,4.571,0,0,1,4.572,4.572V164.07a4.571,4.571,0,0,1-4.572,4.572" transform="translate(-5.055 -3.651)" fill="#183835"/>
            <path id="Trazado_1284476" data-name="Trazado 1284476" d="M267.5,168.641h-63.1a4.322,4.322,0,0,1-4.323-4.322V152.5a4.322,4.322,0,0,1,4.323-4.322h63.1a4.322,4.322,0,0,1,4.322,4.322v11.815a4.322,4.322,0,0,1-4.322,4.322" transform="translate(-4.93 -3.651)" fill="#183835"/>
            <rect id="Rectángulo_468755" data-name="Rectángulo 468755" width="62.527" height="9.779" transform="translate(199.226 149.448)" fill="#afafaf"/>
            <path id="Trazado_1284477" data-name="Trazado 1284477" d="M245.485,158.628a1.657,1.657,0,1,1-1.657-1.657,1.657,1.657,0,0,1,1.657,1.657" transform="translate(-5.967 -3.867)" fill="#183835"/>
            <path id="Trazado_1284478" data-name="Trazado 1284478" d="M244.739,158.632a1.523,1.523,0,1,1-1.523-1.523,1.523,1.523,0,0,1,1.523,1.523" transform="translate(-5.955 -3.871)" fill="#fff"/>
            <path id="Trazado_1284479" data-name="Trazado 1284479" d="M243.215,160.229a1.6,1.6,0,1,1,1.6-1.6,1.6,1.6,0,0,1-1.6,1.6m0-3.045a1.445,1.445,0,1,0,1.445,1.445,1.447,1.447,0,0,0-1.445-1.445" transform="translate(-5.953 -3.869)" fill="#afafaf"/>
            <path id="Trazado_1284480" data-name="Trazado 1284480" d="M253.954,158.628a1.657,1.657,0,1,1-1.657-1.657,1.657,1.657,0,0,1,1.657,1.657" transform="translate(-6.175 -3.867)" fill="#183835"/>
            <path id="Trazado_1284481" data-name="Trazado 1284481" d="M253.208,158.632a1.523,1.523,0,1,1-1.523-1.523,1.523,1.523,0,0,1,1.523,1.523" transform="translate(-6.164 -3.871)" fill="#fff"/>
            <path id="Trazado_1284482" data-name="Trazado 1284482" d="M251.683,160.229a1.6,1.6,0,1,1,1.6-1.6,1.6,1.6,0,0,1-1.6,1.6m0-3.045a1.445,1.445,0,1,0,1.445,1.445,1.447,1.447,0,0,0-1.445-1.445" transform="translate(-6.162 -3.869)" fill="#afafaf"/>
            <path id="Trazado_1284483" data-name="Trazado 1284483" d="M262.423,158.628a1.657,1.657,0,1,1-1.657-1.657,1.658,1.658,0,0,1,1.657,1.657" transform="translate(-6.384 -3.867)" fill="#183835"/>
            <path id="Trazado_1284484" data-name="Trazado 1284484" d="M261.677,158.632a1.523,1.523,0,1,1-1.523-1.523,1.523,1.523,0,0,1,1.523,1.523" transform="translate(-6.372 -3.871)" fill="#183835"/>
            <path id="Trazado_1284485" data-name="Trazado 1284485" d="M260.152,160.229a1.6,1.6,0,1,1,1.6-1.6,1.6,1.6,0,0,1-1.6,1.6m0-3.045a1.445,1.445,0,1,0,1.445,1.445,1.447,1.447,0,0,0-1.445-1.445" transform="translate(-6.37 -3.869)" fill="#afafaf"/>
            <path id="Trazado_1284486" data-name="Trazado 1284486" d="M237.188,158.628a1.657,1.657,0,1,1-1.657-1.657,1.658,1.658,0,0,1,1.657,1.657" transform="translate(-5.762 -3.867)" fill="#183835"/>
            <path id="Trazado_1284487" data-name="Trazado 1284487" d="M236.443,158.632a1.524,1.524,0,1,1-1.524-1.523,1.524,1.524,0,0,1,1.524,1.523" transform="translate(-5.751 -3.871)" fill="#6998ff"/>
            <path id="Trazado_1284488" data-name="Trazado 1284488" d="M234.918,160.229a1.6,1.6,0,1,1,1.6-1.6,1.6,1.6,0,0,1-1.6,1.6m0-3.045a1.445,1.445,0,1,0,1.446,1.445,1.447,1.447,0,0,0-1.446-1.445" transform="translate(-5.749 -3.869)" fill="#afafaf"/>
            <path id="Trazado_1284489" data-name="Trazado 1284489" d="M280.85,191.979H209.727a4.572,4.572,0,0,1-4.572-4.572V176.093a4.572,4.572,0,0,1,4.572-4.572H280.85a4.571,4.571,0,0,1,4.572,4.572v11.315a4.572,4.572,0,0,1-4.572,4.572" transform="translate(-5.055 -4.226)" fill="#183835"/>
            <path id="Trazado_1284490" data-name="Trazado 1284490" d="M267.5,191.979h-63.1a4.322,4.322,0,0,1-4.323-4.322V175.843a4.322,4.322,0,0,1,4.323-4.322h63.1a4.322,4.322,0,0,1,4.322,4.322v11.815a4.322,4.322,0,0,1-4.322,4.322" transform="translate(-4.93 -4.226)" fill="#183835"/>
            <rect id="Rectángulo_468756" data-name="Rectángulo 468756" width="62.527" height="9.779" transform="translate(199.226 172.212)" fill="#afafaf"/>
            <path id="Trazado_1284491" data-name="Trazado 1284491" d="M245.485,181.967a1.657,1.657,0,1,1-1.657-1.657,1.657,1.657,0,0,1,1.657,1.657" transform="translate(-5.967 -4.442)" fill="#183835"/>
            <path id="Trazado_1284492" data-name="Trazado 1284492" d="M244.739,181.971a1.523,1.523,0,1,1-1.523-1.523,1.523,1.523,0,0,1,1.523,1.523" transform="translate(-5.955 -4.446)" fill="#fff"/>
            <path id="Trazado_1284493" data-name="Trazado 1284493" d="M243.215,183.569a1.6,1.6,0,1,1,1.6-1.6,1.6,1.6,0,0,1-1.6,1.6m0-3.046a1.445,1.445,0,1,0,1.445,1.446,1.447,1.447,0,0,0-1.445-1.446" transform="translate(-5.953 -4.444)" fill="#afafaf"/>
            <path id="Trazado_1284494" data-name="Trazado 1284494" d="M253.954,181.967a1.657,1.657,0,1,1-1.657-1.657,1.657,1.657,0,0,1,1.657,1.657" transform="translate(-6.175 -4.442)" fill="#183835"/>
            <path id="Trazado_1284495" data-name="Trazado 1284495" d="M253.208,181.971a1.523,1.523,0,1,1-1.523-1.523,1.523,1.523,0,0,1,1.523,1.523" transform="translate(-6.164 -4.446)" fill="#fff"/>
            <path id="Trazado_1284496" data-name="Trazado 1284496" d="M251.683,183.569a1.6,1.6,0,1,1,1.6-1.6,1.6,1.6,0,0,1-1.6,1.6m0-3.046a1.445,1.445,0,1,0,1.445,1.446,1.447,1.447,0,0,0-1.445-1.446" transform="translate(-6.162 -4.444)" fill="#afafaf"/>
            <path id="Trazado_1284497" data-name="Trazado 1284497" d="M262.423,181.967a1.657,1.657,0,1,1-1.657-1.657,1.658,1.658,0,0,1,1.657,1.657" transform="translate(-6.384 -4.442)" fill="#183835"/>
            <path id="Trazado_1284498" data-name="Trazado 1284498" d="M261.677,181.971a1.523,1.523,0,1,1-1.523-1.523,1.523,1.523,0,0,1,1.523,1.523" transform="translate(-6.372 -4.446)" fill="#183835"/>
            <path id="Trazado_1284499" data-name="Trazado 1284499" d="M260.152,183.569a1.6,1.6,0,1,1,1.6-1.6,1.6,1.6,0,0,1-1.6,1.6m0-3.046a1.445,1.445,0,1,0,1.445,1.446,1.447,1.447,0,0,0-1.445-1.446" transform="translate(-6.37 -4.444)" fill="#afafaf"/>
            <path id="Trazado_1284500" data-name="Trazado 1284500" d="M237.188,181.967a1.657,1.657,0,1,1-1.657-1.657,1.658,1.658,0,0,1,1.657,1.657" transform="translate(-5.762 -4.442)" fill="#183835"/>
            <path id="Trazado_1284501" data-name="Trazado 1284501" d="M236.443,181.971a1.524,1.524,0,1,1-1.524-1.523,1.524,1.524,0,0,1,1.524,1.523" transform="translate(-5.751 -4.446)" fill="#6998ff"/>
            <path id="Trazado_1284502" data-name="Trazado 1284502" d="M234.918,183.569a1.6,1.6,0,1,1,1.6-1.6,1.6,1.6,0,0,1-1.6,1.6m0-3.046a1.445,1.445,0,1,0,1.446,1.446,1.447,1.447,0,0,0-1.446-1.446" transform="translate(-5.749 -4.444)" fill="#afafaf"/>
            <path id="Trazado_1284503" data-name="Trazado 1284503" d="M223.858,214.217c-6.9,0-13.172-3.985-19.066-12.076-6.115-8.391-10.869-19.723-15.467-30.681-6.015-14.334-11.7-27.876-18.334-27.876h-.038l-.017-2.012h.057c7.974,0,13.635,13.492,20.188,29.11,8.2,19.554,17.421,41.51,32.725,41.513a17.363,17.363,0,0,0,4.076-.5c7.787-1.875,13.248-5.824,16.231-11.737,6.794-13.469-3.714-41.514-3.8-41.709l1.854-.783c.088.207,4.6,13.778,5.823,20.537,1.138,6.289,1.7,15.36-2.083,22.862-3.261,6.465-9.168,10.767-17.556,12.787a19.572,19.572,0,0,1-4.595.565" transform="translate(-4.212 -3.488)" fill="#183835"/>
            <path id="Trazado_1284506" data-name="Trazado 1284506" d="M190.681,186.989l-3.05-.141c.36-7.758-2.776-13.547-9.32-17.2a28.859,28.859,0,0,0-10.36-3.288l.249-3.043a31.493,31.493,0,0,1,11.508,3.615c5.294,2.931,11.495,8.791,10.973,20.062" transform="translate(-4.138 -4.024)" fill="#183835"/>
            <path id="Trazado_1284507" data-name="Trazado 1284507" d="M185.992,198.217c.011-.145.019-.288.025-.428l.029-.415c.011-.136.025-.269.037-.4s.029-.261.044-.389l.051-.377c.018-.124.043-.244.06-.365s.046-.236.066-.353c.01-.059.025-.115.037-.172l.037-.17a9.571,9.571,0,0,1,.836-2.317,5.3,5.3,0,0,1,1.194-1.548,3.164,3.164,0,0,1,1.456-.735,2.985,2.985,0,0,1,1.619.162,4.966,4.966,0,0,1,1.645,1.091,9.157,9.157,0,0,1,1.522,2c.056.1.117.2.174.31s.115.213.17.324q.164.332.324.689c.21.476.4.987.592,1.533l1.508-.238a16.392,16.392,0,0,0-.8-4.556,14.915,14.915,0,0,0-1.964-4.009,8.822,8.822,0,0,0-2.736-2.6,4.7,4.7,0,0,0-2.99-.648c-.121.02-.242.041-.362.066s-.238.066-.357.1-.234.086-.351.132-.228.111-.342.167a5.1,5.1,0,0,0-1.268.987,8.551,8.551,0,0,0-1.839,3.313,14.644,14.644,0,0,0-.634,4.471c0,.2,0,.4.015.594s.019.4.035.593.035.4.059.592l.036.295c.013.1.023.194.041.293a14,14,0,0,0,.523,2.249Z" transform="translate(-4.528 -4.547)" fill="#979695"/>
            <rect id="Rectángulo_468757" data-name="Rectángulo 468757" width="22.134" height="46.599" transform="translate(144.598 143.519)" fill="#6b6966"/>
            <path id="Trazado_1284508" data-name="Trazado 1284508" d="M142.428,151a2.071,2.071,0,0,1-2.078-2.054v-.021a18.774,18.774,0,0,1,37.547,0v.021A2.071,2.071,0,0,1,175.819,151Z" transform="translate(-3.458 -3.207)" fill="#979695"/>
            <path id="Trazado_1284509" data-name="Trazado 1284509" d="M151.516,145.734h15.607a3.264,3.264,0,0,0,3.264-3.264v-2.016a3.264,3.264,0,0,0-3.264-3.264H151.516a3.263,3.263,0,0,0-3.264,3.264v2.016a3.263,3.263,0,0,0,3.264,3.264" transform="translate(-3.653 -3.38)" fill="#6998ff"/>
            <path id="Trazado_1284510" data-name="Trazado 1284510" d="M167.116,145.977H151.509A3.517,3.517,0,0,1,148,142.463v-2.015a3.517,3.517,0,0,1,3.513-3.512h15.607a3.516,3.516,0,0,1,3.512,3.512v2.015a3.517,3.517,0,0,1-3.512,3.513m-15.607-8.543a3.018,3.018,0,0,0-3.015,3.015v2.015a3.018,3.018,0,0,0,3.015,3.016h15.607a3.019,3.019,0,0,0,3.015-3.016v-2.015a3.019,3.019,0,0,0-3.015-3.015Z" transform="translate(-3.646 -3.374)" fill="#183835"/>
            <path id="Trazado_1284511" data-name="Trazado 1284511" d="M153.354,187.866a59.79,59.79,0,0,1,11.712,0c3.58.341,6.963-2.859,7.586-7.619q.914-7.671,1.828-15.341c.624-4.746-2.753-9.486-7.581-9.957a78.5,78.5,0,0,0-15.378,0c-4.828.471-8.206,5.212-7.581,9.957q.914,7.671,1.828,15.341c.623,4.761,4.007,7.96,7.586,7.619" transform="translate(-3.545 -3.808)" fill="#979695"/>
            <path id="Trazado_1284512" data-name="Trazado 1284512" d="M156.04,180.891a34.056,34.056,0,0,1,6.673,0c2.039.2,3.968-1.629,4.323-4.341l1.042-8.741a5.035,5.035,0,0,0-4.32-5.674,44.725,44.725,0,0,0-8.762,0,5.035,5.035,0,0,0-4.321,5.674l1.042,8.741c.355,2.712,2.283,4.536,4.323,4.341" transform="translate(-3.711 -3.989)" fill="#183835"/>
            <path id="Trazado_1284513" data-name="Trazado 1284513" d="M145.848,203.746h26.5a6.527,6.527,0,0,0,0-13.054h-26.5a6.527,6.527,0,0,0,0,13.054" transform="translate(-3.433 -4.698)" fill="#979695"/>
            <path id="Trazado_1284514" data-name="Trazado 1284514" d="M151.9,200.945h14.829a3.652,3.652,0,1,0,0-7.3H151.9a3.652,3.652,0,1,0,0,7.3" transform="translate(-3.653 -4.771)" fill="#183835"/>
            <path id="Trazado_1284515" data-name="Trazado 1284515" d="M11.331,219.06c-.111-.017-.226-.037-.336-.06a5.536,5.536,0,0,1-.683-.181.627.627,0,0,1-.136-.106,71.366,71.366,0,0,1,1.6-8.294c1.044-4.767,2.863-12.765,3.425-15.187.181-.79.292-1.252.292-1.252l14.13,2.13s-1.629,7.38-1.69,7.662c-.177.8-.348,1.612-.533,2.415-.237,1.041-.222.882-1.39.988A6,6,0,0,0,21.9,209.2a7.378,7.378,0,0,0-1.1,2.1c-.007.045-.018.093-.027.137a10.654,10.654,0,0,1-1.249,3.163c-1.815,3.065-5.024,4.938-8.186,4.461" transform="translate(-0.25 -4.779)" fill="#d86a43"/>
            <path id="Trazado_1284516" data-name="Trazado 1284516" d="M17.764,195.979a7.8,7.8,0,0,1-2.435-.748c.182-.79.292-1.252.292-1.252l6.479.976c-.2.9-2.138,1.356-4.335,1.024" transform="translate(-0.378 -4.779)" fill="#aad4ca"/>
            <path id="Trazado_1284517" data-name="Trazado 1284517" d="M11.331,219.476c-.111-.017-.226-.037-.336-.06a5.538,5.538,0,0,1-.683-.181.628.628,0,0,1-.136-.106,71.366,71.366,0,0,1,1.6-8.294c.125.013.252.031.378.051,3.681.555,6.544,2.244,7.363,4.13-1.815,3.065-5.024,4.938-8.186,4.461" transform="translate(-0.25 -5.195)" fill="#aad4ca"/>
            <path id="Trazado_1284518" data-name="Trazado 1284518" d="M22.784,208.964l-.127-.052a14.738,14.738,0,0,0,.916-3.486l.137.015a14.942,14.942,0,0,1-.926,3.523" transform="translate(-0.558 -5.061)" fill="#fff"/>
            <rect id="Rectángulo_468758" data-name="Rectángulo 468758" width="3.202" height="0.137" transform="translate(19.217 204.37) rotate(-14.036)" fill="#fff"/>
            <path id="Trazado_1284519" data-name="Trazado 1284519" d="M79.662,159.786l-.342,42.735-.012,1.416a9.84,9.84,0,0,1-9.836,9.758H21.188s-4.962-19.74,0-19.853c9.389-.211,48.284,0,48.284,0l-9.847,11.173-10.6-43.146Z" transform="translate(-0.468 -3.937)"/>
            <path id="Trazado_1284520" data-name="Trazado 1284520" d="M94.193,157.593l5.92,43.517.183,1.352a9.852,9.852,0,0,1-8.433,11.09,10.941,10.941,0,0,1-1.328.09H42.251V193.789H90.535L80.957,206.32,64.02,165.8Z" transform="translate(-1.041 -3.883)"/>
            <path id="Trazado_1284521" data-name="Trazado 1284521" d="M87.688,208.507l-6.937-43.382.136-.022,6.937,43.383Z" transform="translate(-1.99 -4.068)" fill="#fff"/>
            <path id="Trazado_1284522" data-name="Trazado 1284522" d="M89.147,161.71H49.266V118.658a11.11,11.11,0,0,1,11.109-11.109l15.961,2.065a13.146,13.146,0,0,1,9.3,5.795c.834,1.27,1.338,2.256,1.338,2.256Z" transform="translate(-1.214 -2.65)" fill="#fbdb4a"/>
            <path id="Trazado_1284523" data-name="Trazado 1284523" d="M120.272,144.929a9.973,9.973,0,0,1,1.685.077l5.512-.28a1.253,1.253,0,0,1,.58,2.392l-3.36,1.524a5.88,5.88,0,0,1-2.25,1.02l-.109.05a2.476,2.476,0,0,1-.886.215,2.437,2.437,0,0,1-.487-.023c-.162.014-.327.024-.493.031-2.823.108-5.154-.924-5.206-2.306s2.191-2.591,5.013-2.7" transform="translate(-2.84 -3.566)" fill="#f5b297"/>
            <path id="Trazado_1284524" data-name="Trazado 1284524" d="M132.473,149.328l-7.2,1.286.462,0-8.263-2.968a3.116,3.116,0,1,0-2.118,5.861,3.481,3.481,0,0,0,1.213.236l9.2-.376,7.2-1.286a1.4,1.4,0,1,0-.493-2.749" transform="translate(-2.791 -3.633)" fill="#f5b297"/>
            <rect id="Rectángulo_468759" data-name="Rectángulo 468759" width="8.559" height="0.137" transform="translate(118.395 147.975) rotate(-12.355)"/>
            <path id="Trazado_1284525" data-name="Trazado 1284525" d="M131.787,152.439l-.023-.135a1.329,1.329,0,0,0,1.076-1.541,1.336,1.336,0,0,0-1.545-1.073l-.024-.135a1.469,1.469,0,0,1,1.7,1.184,1.466,1.466,0,0,1-1.187,1.7" transform="translate(-3.234 -3.684)"/>
            <path id="Trazado_1284526" data-name="Trazado 1284526" d="M127.451,153.337l-.024-.135a1.328,1.328,0,1,0-.468-2.614l-.024-.135a1.469,1.469,0,0,1,1.7,1.184,1.463,1.463,0,0,1-1.187,1.7" transform="translate(-3.128 -3.706)"/>
            <path id="Trazado_1284527" data-name="Trazado 1284527" d="M129.67,152.931l-.023-.135a1.328,1.328,0,1,0-.469-2.614l-.023-.135a1.468,1.468,0,0,1,1.7,1.184,1.464,1.464,0,0,1-1.187,1.7" transform="translate(-3.182 -3.696)"/>
            <path id="Trazado_1284528" data-name="Trazado 1284528" d="M87.54,117.92l12.279,21.793-4.678-3.67,24.174,7.123-2.808,11.577-24.752-4.751a6.37,6.37,0,0,1-4.279-3l-.4-.675-15.09-25.476Z" transform="translate(-1.774 -2.905)" fill="#fbdb4a"/>
            <path id="Trazado_1284529" data-name="Trazado 1284529" d="M112.837,159.716a1.111,1.111,0,0,0-1.154-.635l-.105.015a6.794,6.794,0,0,1-1.32.033,11.407,11.407,0,0,1-1.391-.2c-.468-.1-.935-.223-1.4-.366-.23-.071-.46-.147-.685-.229-.114-.04-.223-.083-.334-.125l-.16-.065-.075-.031-.036-.017a.125.125,0,0,1-.02-.013c-.991-.566-3.226-.8-3.792.19a1.866,1.866,0,0,0,.221,1.741l-.724,1.067c.028.053-.919,1.9-1.4,2.833a.367.367,0,0,1-.032-.116l-1.821,2.712,1.306.614c.633.539,5.583,4.323,6.33,4.533a1.024,1.024,0,0,0,.52.013,1.044,1.044,0,0,0,.082-2.013,10.87,10.87,0,0,1-1.6-1.261c-.011-.011-.024-.021-.035-.031l.131-.034a6.3,6.3,0,0,0,2.085-.975c.1-.073.2-.148.3-.227l.155-.131c.056-.048.111-.1.166-.149a6.31,6.31,0,0,0,.517-.539,3.329,3.329,0,0,0,.589-1,.05.05,0,0,0,.008-.019c.023-.063.046-.129.064-.192.008-.022.014-.046.02-.067a3.38,3.38,0,0,0-.4-2.722l-.2-.268.063,0a14.188,14.188,0,0,0,1.786-.257,8.918,8.918,0,0,0,1.791-.592,1.11,1.11,0,0,0,.542-1.474" transform="translate(-2.43 -3.883)" fill="#f5b297"/>
            <path id="Trazado_1284530" data-name="Trazado 1284530" d="M104.945,158.8a1.873,1.873,0,0,1,1.114.392,1.552,1.552,0,0,1,.147.127q.752.717,1.558,1.379a26.4,26.4,0,0,0,6.433,3.931l.008,0a1.358,1.358,0,0,1-.931,2.548,16.518,16.518,0,0,1-1.962-.753c-.114-.052-.225-.1-.337-.159-.493-.237-.972-.494-1.444-.772l-.014-.01c-.083-.046-.166-.095-.249-.145a53.7,53.7,0,0,1-5.051-3.626l-.461.455a1.846,1.846,0,0,1-.393-.412,1.8,1.8,0,0,1-.124-.208Z" transform="translate(-2.544 -3.913)" fill="#f5b297"/>
            <path id="Trazado_1284531" data-name="Trazado 1284531" d="M103.354,161.816a.753.753,0,0,1,.064-.073,1.729,1.729,0,0,1,2.445-.053,1.523,1.523,0,0,1,.122.131,25.643,25.643,0,0,0,3.367,3.3c.241.2.489.391.742.579,0,0,.008,0,.01.008.282.212.568.419.861.617.1.072.211.143.317.213q.727.481,1.491.907l.008,0a1.248,1.248,0,0,1-1.1,2.237l-.039-.017c-.123-.052-.245-.106-.366-.162h0c-.187-.086-.374-.172-.559-.26h0a26.514,26.514,0,0,1-3.182-1.8,28.877,28.877,0,0,1-4.057-3.247l-.007-.007a1.722,1.722,0,0,1-.5-1.611,1.7,1.7,0,0,1,.378-.762" transform="translate(-2.536 -3.972)" fill="#f5b297"/>
            <path id="Trazado_1284532" data-name="Trazado 1284532" d="M101.974,163.088a1.7,1.7,0,0,1,.548-.359l-1.066,1.717a1.726,1.726,0,0,1,.518-1.358" transform="translate(-2.5 -4.009)" fill="#f5b297"/>
            <path id="Trazado_1284533" data-name="Trazado 1284533" d="M102.522,162.726a1.744,1.744,0,0,1,.417-.114,1.725,1.725,0,0,1,1.482.507,1.692,1.692,0,0,1,.117.134,26.168,26.168,0,0,0,3.581,3.718,23.873,23.873,0,0,0,3,2.186l.006,0a1.247,1.247,0,0,1-1.192,2.187,26.462,26.462,0,0,1-2.6-1.437q-1.037-.65-2.018-1.393-.354-.268-.7-.547a29.743,29.743,0,0,1-2.67-2.434l-.007-.006a1.723,1.723,0,0,1-.485-1.089Z" transform="translate(-2.5 -4.006)" fill="#f5b297"/>
            <path id="Trazado_1284534" data-name="Trazado 1284534" d="M101.974,163.088a1.7,1.7,0,0,1,.548-.359l-1.066,1.717a1.726,1.726,0,0,1,.518-1.358" transform="translate(-2.5 -4.009)" fill="#f5b297"/>
            <path id="Trazado_1284535" data-name="Trazado 1284535" d="M112.6,167.165a33.247,33.247,0,0,1-4.38-2.984l.084-.108a34.475,34.475,0,0,0,4.332,2.959Z" transform="translate(-2.666 -4.042)"/>
            <path id="Trazado_1284536" data-name="Trazado 1284536" d="M111.761,169.881c-1.8-.648-4.8-3.267-4.83-3.294l.091-.1c.029.026,3.01,2.629,4.785,3.267Z" transform="translate(-2.635 -4.102)"/>
            <path id="Trazado_1284537" data-name="Trazado 1284537" d="M107.374,170.1l-2.718-1.941.08-.111,2.718,1.941Z" transform="translate(-2.579 -4.14)"/>
            <path id="Trazado_1284538" data-name="Trazado 1284538" d="M66.84,118.086l19.693,25.679-1.584-1.383,20.44,14.576-6.437,10.024L77.192,154.459a4.762,4.762,0,0,1-1.07-.839l-.514-.544L53.375,129.562Z" transform="translate(-1.315 -2.909)" fill="#fbdb4a"/>
            <rect id="Rectángulo_468760" data-name="Rectángulo 468760" width="0.137" height="34.436" transform="translate(63.419 113.91) rotate(-40.347)" fill="#1b2541"/>
            <rect id="Rectángulo_468761" data-name="Rectángulo 468761" width="0.137" height="32.682" transform="translate(52.596 131.877) rotate(-51.079)" fill="#1b2541"/>
            <path id="Trazado_1284539" data-name="Trazado 1284539" d="M92.193,143.879c-.477-8.556-6.126-25.5-6.183-25.666l.13-.044c.057.171,5.712,17.127,6.19,25.7Z" transform="translate(-2.119 -2.911)"/>
            <path id="Trazado_1284540" data-name="Trazado 1284540" d="M75.357,111.253l-12.339-3.186,4.714-10,8.341,2.154Z" transform="translate(-1.553 -2.416)" fill="#f5b297"/>
            <path id="Trazado_1284541" data-name="Trazado 1284541" d="M63.018,108.067a65.4,65.4,0,0,1,12.437-7.623l-7.723-2.372Z" transform="translate(-1.553 -2.416)" fill="#d19881"/>
            <path id="Trazado_1284542" data-name="Trazado 1284542" d="M81.692,99.311c-2.314,4.3-7.223,6.145-10.966,4.13s-4.9-7.132-2.588-11.428,7.223-6.145,10.966-4.13a7.4,7.4,0,0,1,3.739,5.946,9.675,9.675,0,0,1-1.151,5.483" transform="translate(-1.649 -2.145)" fill="#f5b297"/>
            <path id="Trazado_1284543" data-name="Trazado 1284543" d="M80.128,102.483c-1.409,2.617-5.551,3.124-9.249,1.132S65.4,97.926,66.734,95.27c1.459-2.908,2.56-4.239,3.512-4.644,1.936-.827,3.257,2.175,5.737,3.51,3.448,1.857,5.3,5.231,4.386,7.8a3.754,3.754,0,0,1-.241.545" transform="translate(-1.633 -2.229)" fill="#f5b297"/>
            <path id="Trazado_1284544" data-name="Trazado 1284544" d="M80.505,102.046l2.51-.7-.706-5.7Z" transform="translate(-1.984 -2.357)" fill="#f5b297"/>
            <path id="Trazado_1284545" data-name="Trazado 1284545" d="M80.484,97.466a.393.393,0,1,1-.09-.627.459.459,0,0,1,.09.627" transform="translate(-1.965 -2.385)"/>
            <path id="Trazado_1284546" data-name="Trazado 1284546" d="M79.28,95.619,79.2,95.3a.2.2,0,0,1,.16-.241,2.934,2.934,0,0,1,1.786.218.2.2,0,0,1,.059.287l-.2.264a.193.193,0,0,1-.243.06,2.277,2.277,0,0,0-1.266-.125.2.2,0,0,1-.221-.147" transform="translate(-1.951 -2.341)" fill="#1b2541"/>
            <path id="Trazado_1284547" data-name="Trazado 1284547" d="M80.116,102.48c-1.409,2.617-5.667,3.062-9.509.993s-5.736-5.827-4.4-8.485c1.456-2.91,2.569-4.234,3.543-4.628,1.672,2.427,5.878,8.142,10.61,11.574a3.656,3.656,0,0,1-.24.546" transform="translate(-1.621 -2.226)" fill="#1b2541"/>
            <path id="Trazado_1284548" data-name="Trazado 1284548" d="M74.7,99.567c.143.1.278.21.417.315l.4.331c.269.22.527.454.784.686s.508.473.751.722l.365.373c.116.13.237.255.349.388l-.139.151-.072.031-.067.024-.134.05c-.084.028-.168.055-.245.075a4.06,4.06,0,0,1-.442.1,2.874,2.874,0,0,1-.732.027,1.724,1.724,0,0,1-1.021-.426,1.7,1.7,0,0,1-.517-.976,2.868,2.868,0,0,1-.035-.733c.007-.072.012-.14.021-.217s.02-.149.037-.232.033-.165.055-.253l.038-.138.02-.069.024-.075Z" transform="translate(-1.832 -2.453)" fill="#fff"/>
            <path id="Trazado_1284549" data-name="Trazado 1284549" d="M75.009,95.936a2.057,2.057,0,1,1-.836-2.786,2.057,2.057,0,0,1,.836,2.786" transform="translate(-1.753 -2.289)" fill="#f5b297"/>
            <path id="Trazado_1284550" data-name="Trazado 1284550" d="M71.692,94.5l-.089-.1a2.427,2.427,0,0,1,2.925-.339l-.077.113a2.256,2.256,0,0,0-2.759.33" transform="translate(-1.764 -2.309)"/>
            <path id="Trazado_1284551" data-name="Trazado 1284551" d="M84.255,94.1a7.617,7.617,0,0,0-14.526-4.565Z" transform="translate(-1.718 -2.08)" fill="#183835"/>
            <path id="Trazado_1284552" data-name="Trazado 1284552" d="M89.833,95.9c-.21.668-4.876-.2-10.422-1.946s-9.872-3.7-9.662-4.365,4.876.2,10.422,1.946,9.872,3.7,9.662,4.365" transform="translate(-1.718 -2.202)" fill="#183835"/>
            <path id="Trazado_1284553" data-name="Trazado 1284553" d="M295.272,215.816a113.7,113.7,0,0,1-20.493-1.84c-8.8-1.622-15.3-6.084-19.337-13.261-5.3-9.429-6.318-23.261-3.03-41.112a153.442,153.442,0,0,1,6.495-23.928l2.1.8c-.158.414-15.661,41.688-3.6,63.142,3.691,6.567,9.676,10.656,17.787,12.151a110.388,110.388,0,0,0,37.744.382c10.7-1.779,18-4.8,20.491-7,.773-.683.79-1.027.789-1.03s-.677-1.057-5.943-1.057h-.254L328,200.82c4.795-.049,7.411.7,8.216,2.3a2.542,2.542,0,0,1-.431,2.784c-2.258,3.013-10.628,6.3-20.827,8.174a109.492,109.492,0,0,1-19.687,1.741" transform="translate(-6.173 -3.343)" fill="#979695"/>
          </g>
        </g>
      </g>
    </g>
    <g id="Grupo_1214887" data-name="Grupo 1214887" transform="translate(7816.07 -862.424)">
      <g id="Grupo_1214886" data-name="Grupo 1214886" clip-path="url(#clip-path-6)">
        <path id="Trazado_1284554" data-name="Trazado 1284554" d="M58.758,66.307l-50.88-.055a8.063,8.063,0,0,1-7.82-7.824L0,7.651C.466,3.576,3.588,0,7.9,0H58.481a8.067,8.067,0,0,1,7.83,7.825V58.409c0,4.236-3.461,7.353-7.554,7.9m3.412-49.754.008-8.771a4.126,4.126,0,0,0-4.29-3.672H8.473A4,4,0,0,0,4.242,7.79c-.1,2.959-.06,5.869,0,8.768ZM58.6,62.115a3.987,3.987,0,0,0,3.547-3.675l.02-37.767H4.195l.02,37.77a3.983,3.983,0,0,0,3.644,3.673Z" transform="translate(0 0.001)" fill="#12263f"/>
        <path id="Trazado_1284555" data-name="Trazado 1284555" d="M75.183,143.818H24.437a3.984,3.984,0,0,1-3.644-3.672l-.02-37.77H78.75l-.02,37.766a3.986,3.986,0,0,1-3.546,3.675m-15.324-5.48a6.372,6.372,0,0,0,5.506-3.243,6.443,6.443,0,0,0-.126-6.684l-9.831-17.187a6.46,6.46,0,0,0-11.294,0l-9.763,17.058a6.5,6.5,0,0,0-.191,6.819,6.405,6.405,0,0,0,5.417,3.235Z" transform="translate(-16.578 -81.703)" fill="#fff"/>
        <path id="Trazado_1284556" data-name="Trazado 1284556" d="M78.7,32.8l-57.933,0c-.055-2.9-.092-5.809,0-8.768A4,4,0,0,1,25,20.355H74.418a4.126,4.126,0,0,1,4.29,3.672ZM28.981,26.577a2.067,2.067,0,1,0-2.067,2.067,2.067,2.067,0,0,0,2.067-2.067m8.283,0A2.065,2.065,0,1,0,35.2,28.641a2.064,2.064,0,0,0,2.065-2.065m8.29,0a2.062,2.062,0,1,0-2.062,2.062,2.062,2.062,0,0,0,2.062-2.062M70.5,28.636a2.032,2.032,0,0,0,2.015-2.091A2.083,2.083,0,0,0,70.561,24.5l-16.684-.009a2.082,2.082,0,1,0,.183,4.155Z" transform="translate(-16.529 -16.244)" fill="#5af6ea"/>
        <path id="Trazado_1284557" data-name="Trazado 1284557" d="M109.3,160.181H89.017a6.4,6.4,0,0,1-5.417-3.235,6.5,6.5,0,0,1,.191-6.819l9.763-17.058a6.46,6.46,0,0,1,11.294,0l9.831,17.187a6.443,6.443,0,0,1,.126,6.684,6.372,6.372,0,0,1-5.506,3.243m-.109-4.143a2.338,2.338,0,0,0,2.079-3.385l-10.209-17.831a2.311,2.311,0,0,0-3.715,0l-10.209,17.83a2.319,2.319,0,0,0,.128,2.328,2.351,2.351,0,0,0,1.947,1.059Z" transform="translate(-66.017 -103.545)" fill="#ec1c1c"/>
        <path id="Trazado_1284558" data-name="Trazado 1284558" d="M193.35,44.99,176.911,45a2.082,2.082,0,1,1-.183-4.155l16.684.009a2.083,2.083,0,0,1,1.953,2.044,2.032,2.032,0,0,1-2.015,2.091" transform="translate(-139.38 -32.598)"/>
        <path id="Trazado_1284559" data-name="Trazado 1284559" d="M45.324,43a2.067,2.067,0,1,1-2.067-2.067A2.067,2.067,0,0,1,45.324,43" transform="translate(-32.872 -32.666)"/>
        <path id="Trazado_1284560" data-name="Trazado 1284560" d="M86.361,43.009A2.065,2.065,0,1,1,84.3,40.944a2.065,2.065,0,0,1,2.065,2.065" transform="translate(-65.627 -32.676)"/>
        <path id="Trazado_1284561" data-name="Trazado 1284561" d="M127.436,43.028a2.062,2.062,0,1,1-2.062-2.062,2.062,2.062,0,0,1,2.062,2.062" transform="translate(-98.412 -32.694)"/>
        <path id="Trazado_1284562" data-name="Trazado 1284562" d="M125.611,172.4h-19.98a2.35,2.35,0,0,1-1.947-1.059,2.319,2.319,0,0,1-.128-2.327l10.209-17.83a2.311,2.311,0,0,1,3.715,0l10.209,17.831a2.337,2.337,0,0,1-2.079,3.386m-7.92-11.472V157.19a2.072,2.072,0,0,0-4.139,0l.009,3.823a2.07,2.07,0,0,0,4.13-.08m0,6.484a2.065,2.065,0,1,0-2.066,2.065,2.066,2.066,0,0,0,2.066-2.065" transform="translate(-82.439 -119.911)" fill="#ae0000"/>
        <path id="Trazado_1284563" data-name="Trazado 1284563" d="M158.217,180.527a2.07,2.07,0,0,1-4.13.08l-.009-3.823a2.072,2.072,0,0,1,4.139,0Z" transform="translate(-122.965 -139.507)" fill="#fff"/>
        <path id="Trazado_1284564" data-name="Trazado 1284564" d="M158.244,227.085a2.065,2.065,0,1,1-2.066-2.065,2.065,2.065,0,0,1,2.066,2.065" transform="translate(-122.992 -179.581)" fill="#fff"/>
      </g>
    </g>
    <g id="Grupo_1214902" data-name="Grupo 1214902">
      <g id="Grupo_1214901" data-name="Grupo 1214901">
        <circle id="Elipse_13766" data-name="Elipse 13766" cx="45.5" cy="45.5" r="45.5" transform="translate(8065 -947)" fill="#19538d"/>
        <rect id="Rectángulo_468767" data-name="Rectángulo 468767" width="170" height="46" rx="23" transform="translate(8025 -851)" fill="#19538d"/>
        <text id="Correctivo_Recuperación" data-name="Correctivo
Recuperación" transform="translate(8110 -836)" fill="#fff" font-size="16" font-family="SegoeUI-Bold, Segoe UI" letter-spacing="0.003em" font-weight="700"><tspan x="-39.102" y="0">Correctivo</tspan><tspan y="0" font-family="SegoeUI, Segoe UI" font-weight="400"></tspan><tspan font-family="SegoeUI, Segoe UI" font-weight="400"><tspan x="-47.763" y="20">Recuperación</tspan></tspan></text>
        <g id="Grupo_1214894" data-name="Grupo 1214894" transform="translate(8079 -931.066)">
          <g id="Grupo_1214893" data-name="Grupo 1214893" clip-path="url(#clip-path-7)">
            <path id="Trazado_1284566" data-name="Trazado 1284566" d="M75.645,81.193a17.457,17.457,0,0,1-6.092.066l-.432-3.7L66.1,76.1l-3.08,2.272a19.079,19.079,0,0,1-3.939-4.242l2.4-3.241-1.306-2.969L56.2,67.686l.021-5.7,4.09-.561,1.1-2.857-2.288-2.906a16.847,16.847,0,0,1,3.905-4.148l3.138,2.06,2.927-1.2.628-3.916,5.8-.059.412,3.85,3.126,1.276,3.06-1.953a12.144,12.144,0,0,1,3.726,3.787c-.073.968-1.113,2.192-2.142,3.1l1.179,2.94,4.173.725-.045,5.6-4,.393-1.26,3,2.293,2.966a15.313,15.313,0,0,1-3.94,4.242L79.144,76.13l-3.33,1.49Zm2.984-16.358a5.98,5.98,0,1,0-5.98,5.978,5.979,5.979,0,0,0,5.98-5.978" transform="translate(-41.358 -35.611)" fill="#fff"/>
            <path id="Trazado_1284567" data-name="Trazado 1284567" d="M11.1,36,9.317,43.726a3.072,3.072,0,0,1-.649,1.242A1.957,1.957,0,0,1,7,44.862L.485,40.329C.146,40.093-.2,38.752.135,38.6l1.354-.612L3.659,37.2A28.967,28.967,0,0,1,8.985,10.78,28.565,28.565,0,0,1,51.917,8.75a2.958,2.958,0,0,1,.4,2.232c-.208.585-1.935,1.027-2.376.559a25.3,25.3,0,0,0-30.3-5.227A25.98,25.98,0,0,0,6.612,36.405l2.631-1.3c.5-.246,2.007.26,1.86.9" transform="translate(0 0)" fill="#fff"/>
            <path id="Trazado_1284568" data-name="Trazado 1284568" d="M41.04,87.668a2.211,2.211,0,0,1-.555-2.648,1.993,1.993,0,0,1,2.655-.06,25.053,25.053,0,0,0,28.669,4.881,25.562,25.562,0,0,0,13.812-29.56l-2.633.852a5.8,5.8,0,0,1-1.21.231c-.368.011-.794-1.023-.69-1.467l1.783-7.624a2.96,2.96,0,0,1,.8-1.261,2.163,2.163,0,0,1,1.64.152l6.356,4.719a2.116,2.116,0,0,1,.608,1.427,2.088,2.088,0,0,1-1.194,1.076l-2.385.681A28.967,28.967,0,0,1,61.441,95.684c-7.757.128-14.527-2.828-20.4-8.016" transform="translate(-29.617 -37.461)" fill="#fff"/>
          </g>
        </g>
      </g>
      <g id="Grupo_1214899" data-name="Grupo 1214899">
        <circle id="Elipse_13765" data-name="Elipse 13765" cx="45.5" cy="45.5" r="45.5" transform="translate(7809 -1150)" fill="#0f654d"/>
        <circle id="Elipse_13768" data-name="Elipse 13768" cx="45.5" cy="45.5" r="45.5" transform="translate(7809 -730)" fill="#7a4806"/>
        <g id="Grupo_1214889" data-name="Grupo 1214889" transform="translate(7830 -1129.8)">
          <g id="Grupo_1214888" data-name="Grupo 1214888" clip-path="url(#clip-path-8)">
            <path id="Trazado_1284565" data-name="Trazado 1284565" d="M32.865,51.573c-8.567,5.591-9.312,5.415-17.019.811C6.536,46.823.143,37.088.081,26.143L0,11.969a3.659,3.659,0,0,1,3.088-3.8A42.786,42.786,0,0,0,21.273.811a3.992,3.992,0,0,1,4.869.035A38.931,38.931,0,0,0,44.394,8.132a3.471,3.471,0,0,1,3.124,3.462L47.49,25.383a31.412,31.412,0,0,1-14.625,26.19M12.356,31.549,18.8,38.294a2.639,2.639,0,0,0,3.985.05L37.1,22.621c1.106-1.214-.719-3.234-1.749-3.586-1.335-.456-2.376.26-3.4,1.362L20.757,32.5l-5.132-5.172A2.673,2.673,0,0,0,11.5,27.6c-1.024,1.34-.378,2.661.854,3.95" transform="translate(0 0)" fill="#fff"/>
          </g>
        </g>
        <rect id="Rectángulo_468766" data-name="Rectángulo 468766" width="182" height="43" rx="21.5" transform="translate(7763 -1054)" fill="#0f654d"/>
        <rect id="Rectángulo_468769" data-name="Rectángulo 468769" width="184" height="48" rx="24" transform="translate(7762 -634)" fill="#7a4806"/>
        <text id="Preventivo_Validación_de_datos" data-name="Preventivo
Validación de datos" transform="translate(7854 -1037)" fill="#fff" font-size="16" font-family="SegoeUI-Bold, Segoe UI" letter-spacing="0.003em" font-weight="700"><tspan x="-40.535" y="0">Preventivo</tspan><tspan font-family="SegoeUI, Segoe UI" font-weight="400"><tspan x="-69.169" y="20">Validación de datos</tspan></tspan></text>
        <text id="Informativo_Registro_logs_" data-name="Informativo
Registro (logs)" transform="translate(7854 -614)" fill="#fff" font-size="16" font-family="SegoeUI-Bold, Segoe UI" letter-spacing="0.003em" font-weight="700"><tspan x="-44.907" y="0">Informativo</tspan><tspan font-family="SegoeUI, Segoe UI" font-weight="400"><tspan x="-50.143" y="20">Registro </tspan><tspan y="20" font-family="SegoeUI-Italic, Segoe UI" font-style="italic">(logs)</tspan></tspan></text>
        <g id="Grupo_1214896" data-name="Grupo 1214896" transform="translate(7827 -718.009)">
          <g id="Grupo_1214895" data-name="Grupo 1214895" clip-path="url(#clip-path-9)">
            <path id="Trazado_1284569" data-name="Trazado 1284569" d="M5.88,57.221l-.074-8.438-2.875-.06c-1.924-.04-2.969-1.682-2.929-3.5l.337-15.5C.384,27.65,4,27.494,5.752,27.935L5.831,5.722A5.8,5.8,0,0,1,11.87,0L39.333.058,52.193,12.971a5.653,5.653,0,0,1,1.7,3.521l-.045,41.124c0,2.513-2.719,5.057-5.193,5.058l-37.7.014c-2.716,0-5.05-2.72-5.074-5.467m2.3-.053a3.238,3.238,0,0,0,3.695,3.156l36.684-.037c2.254,0,2.994-2.552,2.992-4.3L51.5,16.879l-11.811.027a4.119,4.119,0,0,1-2.466-3.966l.008-10.457L11.41,2.5c-2.444.1-3.239,1.969-3.236,4.107l.031,21.2,26.015,0a3.487,3.487,0,0,1,3.468,3.28l0,14.19c0,1.56-1.115,3.521-3.03,3.525l-26.47.051Zm4.6-15.676-3.911-.038-.086-8.1-1.842-.046.017,9.961,5.876-.069Zm9.41-3.65c-.092-3.09-2.129-4.956-4.709-4.735-2.387.2-3.925,2.34-3.919,4.934.005,1.905.419,3.7,1.931,4.683a4.681,4.681,0,0,0,4.825-.01c1.406-.934,1.933-2.816,1.872-4.872m7.381,1.853c-.24.935-.446,1.746-.9,1.934a3.687,3.687,0,0,1-2-.17c-1.933-1.134-1.722-5.876.365-6.508,1.107-.336,4.04,1.954,4.011.969a4,4,0,0,0-.432-1.512c-1.063-1.5-3.608-1.748-5.25-.63-2.835,1.931-2.43,6.87-.539,8.6a4.853,4.853,0,0,0,4.276.772l2.295-.514.023-4.811-3.718.188c-.07.305-.061,1.47.225,1.5Z" transform="translate(0 0)" fill="#fff"/>
            <path id="Trazado_1284570" data-name="Trazado 1284570" d="M56.88,118.714c.717,3.125-.228,5.522-1.956,5.489a2.806,2.806,0,0,1-2.045-1.49,9.494,9.494,0,0,1,.021-4.028,2.825,2.825,0,0,1,2.027-1.423,2.769,2.769,0,0,1,1.953,1.452" transform="translate(-37.026 -82.428)" fill="#fff"/>
          </g>
        </g>
      </g>
      <g id="Grupo_1214900" data-name="Grupo 1214900" transform="translate(0 2)">
        <circle id="Elipse_13767" data-name="Elipse 13767" cx="45.5" cy="45.5" r="45.5" transform="translate(7555 -947)" fill="#7dd3ff"/>
        <rect id="Rectángulo_468768" data-name="Rectángulo 468768" width="170" height="46" rx="23" transform="translate(7515 -854)" fill="#7dd3ff"/>
        <text id="Detectivo_Captura_de_errores" data-name="Detectivo
Captura de errores" transform="translate(7600 -835)" fill="#12263f" font-size="16" font-family="SegoeUI-Bold, Segoe UI" letter-spacing="0.003em" font-weight="700"><tspan x="-36.172" y="0">Detectivo</tspan><tspan font-family="SegoeUI, Segoe UI" font-weight="400"><tspan x="-66.227" y="20">Captura de errores</tspan></tspan></text>
        <g id="Grupo_1214898" data-name="Grupo 1214898" transform="translate(7571 -931.066)">
          <g id="Grupo_1214897" data-name="Grupo 1214897" clip-path="url(#clip-path-10)">
            <path id="Trazado_1284571" data-name="Trazado 1284571" d="M51.347,56.341,39.97,45.427a6.146,6.146,0,0,1-.02-2.453l-2.508-2.216A22.9,22.9,0,0,1,1.715,14.376,22.9,22.9,0,0,1,20.348.131,23.065,23.065,0,0,1,41.2,36.686a4.857,4.857,0,0,0,4.226,2.553L56.947,50.581c1.342,1.321.156,3.594-.773,4.634a4.16,4.16,0,0,1-4.827,1.127m-10.912-33.3A17.664,17.664,0,1,0,22.772,40.7,17.661,17.661,0,0,0,40.435,23.046" transform="translate(0 -0.001)" fill="#12263f"/>
            <path id="Trazado_1284572" data-name="Trazado 1284572" d="M72.111,86.5l.322,1.067c.086.287-.6.858-.879.757-1.609-.574-.286-2.822-2.453-3.675a6.135,6.135,0,0,1-5.2,3.262c-2.306.1-3.983-1.335-5.426-3.139-2.2,0-1.459,3.575-2.328,3.4l-1.217-.251c.185.038.443-3.811,2.858-4.41l.043-2.739a5.877,5.877,0,0,0-3.426.853c-.414-.071-.631-1.206-.271-1.446a5.453,5.453,0,0,1,1.717-.753l1.66-.185c.407-.045.518-1.25.4-1.365a6.987,6.987,0,0,1-2.9-2.777l-.5-.814c-.141-.231.331-.868.6-.856,1.237.056,1.5,2.263,3.723,3.4l10,0,2.422-2.956c.172-.211.773-.53.979-.354a1.349,1.349,0,0,1,.149,1.194l-1.543,2.043-1.2.96c-.285.228.044,1.5.27,1.56,1.258-.23,3.217.433,3.545,1.405a2.329,2.329,0,0,1-.188,1.01c-.316.639-1.429-1.261-3.688-1.044l.087,2.829a3.993,3.993,0,0,1,2.431,3.03m-7.667-1.82,0-6.554-1.394.034-.016,6.63a1.249,1.249,0,0,0,.8.954c.255.025.6-.745.6-1.064" transform="translate(-40.841 -55.581)" fill="#12263f"/>
            <path id="Trazado_1284573" data-name="Trazado 1284573" d="M81.534,55.425a12.732,12.732,0,0,1,1.284,3.952l-9.067.024a14.034,14.034,0,0,1,1.411-3.878c-.646-1.743-2.429-1.607-1.917-3.1.113-.328,1.1-.243,1.316.018l1.754,2.135,3.852-.093,2.1-2.318c.117-.129.876-.047.888.126a2.476,2.476,0,0,1-.234,1.127Z" transform="translate(-55.372 -39.44)" fill="#12263f"/>
          </g>
        </g>
      </g>
    </g>
    <path id="Unión_88" data-name="Unión 88" d="M129.409,132.869l10.51-4.284C97.294,17.281,3.847,7.588,2.888,7.5,1.169,7.347-.121,5.544.009,3.475S1.64-.145,3.355.011c1,.09,98.492,10.208,142.51,126.151l12.141-4.948-5.025,31.392Z" transform="matrix(0.999, -0.035, 0.035, 0.999, 7921.457, -1098.506)" fill="#0f654d"/>
    <path id="Unión_91" data-name="Unión 91" d="M129.409,132.869l10.51-4.284C97.294,17.281,3.847,7.588,2.888,7.5,1.169,7.347-.121,5.544.009,3.475S1.64-.145,3.355.011c1,.09,98.492,10.208,142.51,126.151l12.141-4.948-5.025,31.392Z" transform="matrix(-0.999, 0.035, -0.035, -0.999, 7785.92, -643.614)" fill="#0f654d"/>
    <path id="Unión_89" data-name="Unión 89" d="M129.409,132.869l10.51-4.284C97.294,17.281,3.847,7.588,2.888,7.5,1.169,7.347-.121,5.544.009,3.475S1.64-.145,3.355.011c1,.09,98.492,10.208,142.51,126.151l12.141-4.948-5.025,31.392Z" transform="translate(8090.377 -796.106) rotate(90)" fill="#0f654d"/>
    <path id="Unión_90" data-name="Unión 90" d="M129.409,132.869l10.51-4.284C97.294,17.281,3.847,7.588,2.888,7.5,1.169,7.347-.121,5.544.009,3.475S1.64-.145,3.355.011c1,.09,98.492,10.208,142.51,126.151l12.141-4.948-5.025,31.392Z" transform="matrix(0.052, -0.999, 0.999, 0.052, 7631.97, -950.117)" fill="#0f654d"/>
  </g>
</svg>
