<svg xmlns="http://www.w3.org/2000/svg" width="1228" height="117" viewBox="0 0 1228 117">
  <g id="img27" transform="translate(-186 -5794.718)">
    <rect id="Rectangle_466834" data-name="Rectangle 466834" width="1228" height="117" rx="16" transform="translate(186 5794.718)" fill="#c0f6f2"/>
    <g id="Group_1180568" data-name="Group 1180568" transform="translate(12.4 -5.282)">
      <g id="Rectangle_466826" data-name="Rectangle 466826" transform="translate(943.717 5823)" fill="#ffe2bc" stroke="#12263f" stroke-width="3">
        <rect width="176.962" height="71" rx="14" stroke="none"/>
        <rect x="-1.5" y="-1.5" width="179.962" height="74" rx="15.5" fill="none"/>
      </g>
      <g id="Rectangle_467808" data-name="Rectangle 467808" transform="translate(1187.638 5823)" fill="#ffb758" stroke="#12263f" stroke-width="3">
        <rect width="176.962" height="71" rx="14" stroke="none"/>
        <rect x="-1.5" y="-1.5" width="179.962" height="74" rx="15.5" fill="none"/>
      </g>
      <path id="Path_1284825" data-name="Path 1284825" d="M39.352,14.065a4.364,4.364,0,0,1-1.428,3.017,4.867,4.867,0,0,1-3.312,1.083,4.713,4.713,0,0,1-2.544-.685,4.5,4.5,0,0,1-1.7-1.947,7.024,7.024,0,0,1-.623-2.93V11.476a7.075,7.075,0,0,1,.606-3.013,4.567,4.567,0,0,1,1.739-2.009,4.851,4.851,0,0,1,2.619-.706,4.672,4.672,0,0,1,3.221,1.083A4.527,4.527,0,0,1,39.352,9.9H37.26a2.985,2.985,0,0,0-.76-1.88,2.51,2.51,0,0,0-1.789-.577,2.452,2.452,0,0,0-2.1,1,5,5,0,0,0-.751,2.937v1.072a5.308,5.308,0,0,0,.7,2.991,2.328,2.328,0,0,0,2.054,1.03,2.715,2.715,0,0,0,1.859-.556,2.9,2.9,0,0,0,.789-1.851Zm1.3-.639a5.3,5.3,0,0,1,.523-2.378,3.819,3.819,0,0,1,1.469-1.627,4.14,4.14,0,0,1,2.175-.569,3.923,3.923,0,0,1,2.951,1.17A4.6,4.6,0,0,1,49,13.127l.008.473a5.343,5.343,0,0,1-.51,2.374,3.773,3.773,0,0,1-1.461,1.619,4.17,4.17,0,0,1-2.2.573A3.9,3.9,0,0,1,41.8,16.9a4.848,4.848,0,0,1-1.141-3.374Zm2.017.174a3.619,3.619,0,0,0,.573,2.171,1.862,1.862,0,0,0,1.594.784,1.842,1.842,0,0,0,1.59-.8A4,4,0,0,0,47,13.426a3.572,3.572,0,0,0-.585-2.158,1.973,1.973,0,0,0-3.158-.012A3.922,3.922,0,0,0,42.672,13.6Zm9.936-4.582.058.938a3.232,3.232,0,0,1,2.59-1.1,2.483,2.483,0,0,1,2.465,1.378,3.186,3.186,0,0,1,2.756-1.378,2.8,2.8,0,0,1,2.212.822,3.618,3.618,0,0,1,.743,2.424V18H61.415V12.156a1.786,1.786,0,0,0-.374-1.253,1.635,1.635,0,0,0-1.237-.4,1.679,1.679,0,0,0-1.125.369,1.948,1.948,0,0,0-.61.967L58.078,18H56.061V12.09A1.439,1.439,0,0,0,54.443,10.5a1.776,1.776,0,0,0-1.718.988V18H50.707V9.019ZM73.368,13.6a5.348,5.348,0,0,1-.946,3.324,3.287,3.287,0,0,1-4.906.27v4.258H65.5V9.019h1.859l.083.913a2.963,2.963,0,0,1,2.416-1.079,3.062,3.062,0,0,1,2.577,1.224,5.49,5.49,0,0,1,.934,3.4Zm-2.009-.174a3.746,3.746,0,0,0-.535-2.133,1.741,1.741,0,0,0-1.531-.789,1.856,1.856,0,0,0-1.776,1.021V15.51a1.873,1.873,0,0,0,1.793,1.046,1.739,1.739,0,0,0,1.507-.776A4.124,4.124,0,0,0,71.359,13.426Zm8.417-2.565a4.991,4.991,0,0,0-.822-.066,1.85,1.85,0,0,0-1.868,1.063V18H75.07V9.019H77l.05,1a2.273,2.273,0,0,1,2.025-1.17,1.888,1.888,0,0,1,.714.116Zm5.229,7.3A4.173,4.173,0,0,1,81.9,16.958a4.381,4.381,0,0,1-1.191-3.217v-.249a5.389,5.389,0,0,1,.519-2.4,3.949,3.949,0,0,1,1.457-1.648,3.851,3.851,0,0,1,2.092-.589,3.525,3.525,0,0,1,2.835,1.17,4.949,4.949,0,0,1,1,3.312v.813H82.74a2.7,2.7,0,0,0,.743,1.76,2.23,2.23,0,0,0,1.639.647,2.731,2.731,0,0,0,2.258-1.121l1.087,1.038a3.631,3.631,0,0,1-1.44,1.249A4.509,4.509,0,0,1,85.006,18.166Zm-.241-7.695a1.7,1.7,0,0,0-1.341.581,3.012,3.012,0,0,0-.652,1.619h3.843v-.149a2.452,2.452,0,0,0-.54-1.531A1.686,1.686,0,0,0,84.765,10.471Zm7.28-1.453.058,1.038a3.229,3.229,0,0,1,2.615-1.2q2.806,0,2.855,3.212V18H95.556V12.181a1.85,1.85,0,0,0-.369-1.266,1.554,1.554,0,0,0-1.208-.411,1.944,1.944,0,0,0-1.818,1.1V18H90.144V9.019Zm12.617,6.541a.914.914,0,0,0-.444-.822,4.723,4.723,0,0,0-1.473-.5,7.574,7.574,0,0,1-1.718-.548,2.293,2.293,0,0,1-1.511-2.117,2.391,2.391,0,0,1,.979-1.942,3.872,3.872,0,0,1,2.49-.78,4.029,4.029,0,0,1,2.6.8,2.529,2.529,0,0,1,.992,2.067h-2.017a1.243,1.243,0,0,0-.432-.967,1.654,1.654,0,0,0-1.146-.386,1.787,1.787,0,0,0-1.083.307.968.968,0,0,0-.419.822.818.818,0,0,0,.39.722,5.365,5.365,0,0,0,1.577.519,7.466,7.466,0,0,1,1.864.623,2.639,2.639,0,0,1,1,.867,2.212,2.212,0,0,1,.328,1.229,2.34,2.34,0,0,1-1,1.963,4.283,4.283,0,0,1-2.631.751,4.644,4.644,0,0,1-1.967-.4,3.238,3.238,0,0,1-1.345-1.1,2.594,2.594,0,0,1-.481-1.5h1.959a1.421,1.421,0,0,0,.54,1.1,2.1,2.1,0,0,0,1.32.386,2.04,2.04,0,0,0,1.212-.3A.938.938,0,0,0,104.662,15.56ZM110.547,18H108.53V9.019h2.017ZM108.406,6.686a1.071,1.071,0,0,1,.295-.772,1.113,1.113,0,0,1,.843-.307,1.127,1.127,0,0,1,.847.307,1.062,1.062,0,0,1,.3.772,1.038,1.038,0,0,1-.3.76,1.136,1.136,0,0,1-.847.3,1.122,1.122,0,0,1-.843-.3A1.046,1.046,0,0,1,108.406,6.686Zm3.959,6.74a5.3,5.3,0,0,1,.523-2.378,3.819,3.819,0,0,1,1.469-1.627,4.14,4.14,0,0,1,2.175-.569,3.923,3.923,0,0,1,2.951,1.17,4.6,4.6,0,0,1,1.224,3.1l.008.473a5.343,5.343,0,0,1-.51,2.374,3.773,3.773,0,0,1-1.461,1.619,4.17,4.17,0,0,1-2.2.573,3.9,3.9,0,0,1-3.042-1.266,4.848,4.848,0,0,1-1.141-3.374Zm2.017.174a3.619,3.619,0,0,0,.573,2.171,1.862,1.862,0,0,0,1.594.784,1.842,1.842,0,0,0,1.59-.8,4,4,0,0,0,.569-2.333,3.572,3.572,0,0,0-.585-2.158,1.973,1.973,0,0,0-3.158-.012A3.922,3.922,0,0,0,114.382,13.6Zm2.706-8.351h2.3l-2.3,2.515-1.619,0Zm7.205,3.769.058,1.038a3.229,3.229,0,0,1,2.615-1.2q2.806,0,2.855,3.212V18H127.8V12.181a1.85,1.85,0,0,0-.369-1.266,1.554,1.554,0,0,0-1.208-.411,1.944,1.944,0,0,0-1.818,1.1V18h-2.017V9.019Z" transform="translate(952.326 5846)" fill="#12263f"/>
      <path id="Path_1284826" data-name="Path 1284826" d="M26.373,5.914l3.486,9.264,3.478-9.264h2.714V18H33.96V14.016l.208-5.329L30.6,18H29.1L25.535,8.695l.208,5.321V18H23.651V5.914ZM43.705,18a3.113,3.113,0,0,1-.232-.838,3.393,3.393,0,0,1-4.565.232,2.47,2.47,0,0,1-.855-1.909,2.55,2.55,0,0,1,1.067-2.2,5.169,5.169,0,0,1,3.051-.768h1.237v-.589a1.573,1.573,0,0,0-.39-1.116,1.547,1.547,0,0,0-1.187-.419,1.777,1.777,0,0,0-1.129.344,1.066,1.066,0,0,0-.44.876H38.244a2.239,2.239,0,0,1,.49-1.382,3.263,3.263,0,0,1,1.332-1.009,4.68,4.68,0,0,1,1.88-.365,3.769,3.769,0,0,1,2.515.793,2.827,2.827,0,0,1,.963,2.229v4.051a4.591,4.591,0,0,0,.34,1.934V18Zm-2.216-1.453a2.294,2.294,0,0,0,1.125-.291,1.941,1.941,0,0,0,.793-.78V13.783H42.319a2.973,2.973,0,0,0-1.685.39,1.264,1.264,0,0,0-.564,1.1,1.179,1.179,0,0,0,.386.926A1.5,1.5,0,0,0,41.489,16.547Zm7.919-7.529.058,1.038a3.229,3.229,0,0,1,2.615-1.2q2.806,0,2.855,3.212V18H52.919V12.181a1.85,1.85,0,0,0-.369-1.266,1.554,1.554,0,0,0-1.208-.411,1.944,1.944,0,0,0-1.818,1.1V18H47.507V9.019Zm10.11-2.183V9.019H61.1v1.494H59.518v5.014a1.1,1.1,0,0,0,.2.743.943.943,0,0,0,.726.228,3.107,3.107,0,0,0,.706-.083v1.561a4.968,4.968,0,0,1-1.328.191q-2.324,0-2.324-2.565V10.513H56.024V9.019H57.5V6.835ZM66.6,18.166a4.173,4.173,0,0,1-3.109-1.208A4.381,4.381,0,0,1,62.3,13.742v-.249a5.389,5.389,0,0,1,.519-2.4,3.949,3.949,0,0,1,1.457-1.648,3.851,3.851,0,0,1,2.092-.589,3.525,3.525,0,0,1,2.835,1.17,4.949,4.949,0,0,1,1,3.312v.813H64.333a2.7,2.7,0,0,0,.743,1.76,2.23,2.23,0,0,0,1.639.647,2.731,2.731,0,0,0,2.258-1.121l1.087,1.038a3.631,3.631,0,0,1-1.44,1.249A4.509,4.509,0,0,1,66.6,18.166Zm-.241-7.695a1.7,1.7,0,0,0-1.341.581,3.012,3.012,0,0,0-.652,1.619h3.843v-.149a2.452,2.452,0,0,0-.54-1.531A1.686,1.686,0,0,0,66.358,10.471Zm7.28-1.453.058,1.038a3.229,3.229,0,0,1,2.615-1.2q2.806,0,2.855,3.212V18H77.149V12.181a1.85,1.85,0,0,0-.369-1.266,1.554,1.554,0,0,0-1.208-.411,1.944,1.944,0,0,0-1.818,1.1V18H71.737V9.019ZM83.367,18H81.349V9.019h2.017ZM81.225,6.686a1.071,1.071,0,0,1,.295-.772,1.113,1.113,0,0,1,.843-.307,1.127,1.127,0,0,1,.847.307,1.062,1.062,0,0,1,.3.772,1.038,1.038,0,0,1-.3.76,1.136,1.136,0,0,1-.847.3,1.122,1.122,0,0,1-.843-.3A1.046,1.046,0,0,1,81.225,6.686Zm6.234,2.333.058.938a3.232,3.232,0,0,1,2.59-1.1,2.483,2.483,0,0,1,2.465,1.378,3.186,3.186,0,0,1,2.756-1.378,2.8,2.8,0,0,1,2.212.822,3.618,3.618,0,0,1,.743,2.424V18H96.266V12.156a1.786,1.786,0,0,0-.374-1.253,1.635,1.635,0,0,0-1.237-.4,1.679,1.679,0,0,0-1.125.369,1.948,1.948,0,0,0-.61.967L92.929,18H90.912V12.09A1.439,1.439,0,0,0,89.293,10.5a1.776,1.776,0,0,0-1.718.988V18H85.558V9.019ZM102.5,18h-2.017V9.019H102.5ZM100.358,6.686a1.071,1.071,0,0,1,.295-.772,1.113,1.113,0,0,1,.843-.307,1.127,1.127,0,0,1,.847.307,1.062,1.062,0,0,1,.3.772,1.038,1.038,0,0,1-.3.76,1.136,1.136,0,0,1-.847.3,1.122,1.122,0,0,1-.843-.3A1.046,1.046,0,0,1,100.358,6.686Zm8.292,11.48a4.173,4.173,0,0,1-3.109-1.208,4.381,4.381,0,0,1-1.191-3.217v-.249a5.389,5.389,0,0,1,.519-2.4,3.949,3.949,0,0,1,1.457-1.648,3.851,3.851,0,0,1,2.092-.589,3.525,3.525,0,0,1,2.835,1.17,4.949,4.949,0,0,1,1,3.312v.813h-5.869a2.7,2.7,0,0,0,.743,1.76,2.23,2.23,0,0,0,1.639.647,2.731,2.731,0,0,0,2.258-1.121l1.087,1.038a3.631,3.631,0,0,1-1.44,1.249A4.509,4.509,0,0,1,108.651,18.166Zm-.241-7.695a1.7,1.7,0,0,0-1.341.581,3.012,3.012,0,0,0-.652,1.619h3.843v-.149a2.452,2.452,0,0,0-.54-1.531A1.686,1.686,0,0,0,108.41,10.471Zm7.28-1.453.058,1.038a3.229,3.229,0,0,1,2.615-1.2q2.806,0,2.855,3.212V18H119.2V12.181a1.85,1.85,0,0,0-.369-1.266,1.554,1.554,0,0,0-1.208-.411,1.944,1.944,0,0,0-1.818,1.1V18h-2.017V9.019ZM125.8,6.835V9.019h1.585v1.494H125.8v5.014a1.1,1.1,0,0,0,.2.743.943.943,0,0,0,.726.228,3.107,3.107,0,0,0,.706-.083v1.561a4.968,4.968,0,0,1-1.328.191q-2.324,0-2.324-2.565V10.513h-1.478V9.019h1.478V6.835Zm2.5,6.591a5.3,5.3,0,0,1,.523-2.378,3.819,3.819,0,0,1,1.469-1.627,4.14,4.14,0,0,1,2.175-.569,3.923,3.923,0,0,1,2.951,1.17,4.6,4.6,0,0,1,1.224,3.1l.008.473a5.343,5.343,0,0,1-.51,2.374,3.773,3.773,0,0,1-1.461,1.619,4.17,4.17,0,0,1-2.2.573A3.9,3.9,0,0,1,129.44,16.9a4.848,4.848,0,0,1-1.141-3.374Zm2.017.174a3.619,3.619,0,0,0,.573,2.171,1.862,1.862,0,0,0,1.594.784,1.842,1.842,0,0,0,1.59-.8,4,4,0,0,0,.569-2.333,3.572,3.572,0,0,0-.585-2.158,1.973,1.973,0,0,0-3.158-.012A3.922,3.922,0,0,0,130.316,13.6Z" transform="translate(1196.247 5846)" fill="#12263f"/>
      <g id="Rectangle_466827" data-name="Rectangle 466827" transform="translate(699.797 5823)" fill="#ffb758" stroke="#12263f" stroke-width="3">
        <rect width="176.962" height="71" rx="14" stroke="none"/>
        <rect x="-1.5" y="-1.5" width="179.962" height="74" rx="15.5" fill="none"/>
      </g>
      <path id="Path_1284824" data-name="Path 1284824" d="M29.868,18H27.776V5.914h2.092Zm4.258-8.981.058,1.038a3.229,3.229,0,0,1,2.615-1.2q2.806,0,2.855,3.212V18H37.638V12.181a1.85,1.85,0,0,0-.369-1.266A1.554,1.554,0,0,0,36.06,10.5a1.944,1.944,0,0,0-1.818,1.1V18H32.225V9.019Zm10.11-2.183V9.019h1.585v1.494H44.237v5.014a1.1,1.1,0,0,0,.2.743.943.943,0,0,0,.726.228,3.107,3.107,0,0,0,.706-.083v1.561a4.968,4.968,0,0,1-1.328.191q-2.324,0-2.324-2.565V10.513H40.742V9.019H42.22V6.835Zm7.081,11.331a4.173,4.173,0,0,1-3.109-1.208,4.381,4.381,0,0,1-1.191-3.217v-.249a5.389,5.389,0,0,1,.519-2.4,3.949,3.949,0,0,1,1.457-1.648,3.851,3.851,0,0,1,2.092-.589,3.525,3.525,0,0,1,2.835,1.17,4.949,4.949,0,0,1,1,3.312v.813H49.051a2.7,2.7,0,0,0,.743,1.76,2.23,2.23,0,0,0,1.639.647,2.731,2.731,0,0,0,2.258-1.121l1.087,1.038a3.631,3.631,0,0,1-1.44,1.249A4.509,4.509,0,0,1,51.317,18.166Zm-.241-7.695a1.7,1.7,0,0,0-1.341.581,3.012,3.012,0,0,0-.652,1.619h3.843v-.149a2.452,2.452,0,0,0-.54-1.531A1.686,1.686,0,0,0,51.077,10.471Zm10.11.39a4.991,4.991,0,0,0-.822-.066A1.85,1.85,0,0,0,58.5,11.857V18H56.48V9.019h1.926l.05,1a2.273,2.273,0,0,1,2.025-1.17,1.888,1.888,0,0,1,.714.116ZM70.326,13.6a5.348,5.348,0,0,1-.946,3.324,3.287,3.287,0,0,1-4.906.27v4.258H62.457V9.019h1.859l.083.913a2.963,2.963,0,0,1,2.416-1.079,3.062,3.062,0,0,1,2.577,1.224,5.49,5.49,0,0,1,.934,3.4Zm-2.009-.174a3.746,3.746,0,0,0-.535-2.133A1.741,1.741,0,0,0,66.25,10.5a1.856,1.856,0,0,0-1.776,1.021V15.51a1.873,1.873,0,0,0,1.793,1.046,1.739,1.739,0,0,0,1.507-.776A4.124,4.124,0,0,0,68.317,13.426Zm8.417-2.565a4.991,4.991,0,0,0-.822-.066,1.85,1.85,0,0,0-1.868,1.063V18H72.028V9.019h1.926l.05,1a2.273,2.273,0,0,1,2.025-1.17,1.888,1.888,0,0,1,.714.116Zm5.229,7.3a4.173,4.173,0,0,1-3.109-1.208,4.381,4.381,0,0,1-1.191-3.217v-.249a5.389,5.389,0,0,1,.519-2.4A3.949,3.949,0,0,1,79.64,9.442a3.851,3.851,0,0,1,2.092-.589,3.525,3.525,0,0,1,2.835,1.17,4.949,4.949,0,0,1,1,3.312v.813H79.7a2.7,2.7,0,0,0,.743,1.76,2.23,2.23,0,0,0,1.639.647,2.731,2.731,0,0,0,2.258-1.121l1.087,1.038a3.631,3.631,0,0,1-1.44,1.249A4.509,4.509,0,0,1,81.964,18.166Zm-.241-7.695a1.7,1.7,0,0,0-1.341.581,3.012,3.012,0,0,0-.652,1.619h3.843v-.149a2.452,2.452,0,0,0-.54-1.531A1.686,1.686,0,0,0,81.723,10.471Zm7.936-3.636V9.019h1.585v1.494H89.659v5.014a1.1,1.1,0,0,0,.2.743.943.943,0,0,0,.726.228,3.107,3.107,0,0,0,.706-.083v1.561a4.968,4.968,0,0,1-1.328.191q-2.324,0-2.324-2.565V10.513H86.164V9.019h1.478V6.835ZM98.15,18a3.113,3.113,0,0,1-.232-.838,3.393,3.393,0,0,1-4.565.232,2.47,2.47,0,0,1-.855-1.909,2.55,2.55,0,0,1,1.067-2.2,5.169,5.169,0,0,1,3.051-.768h1.237v-.589a1.573,1.573,0,0,0-.39-1.116,1.547,1.547,0,0,0-1.187-.419,1.777,1.777,0,0,0-1.129.344,1.066,1.066,0,0,0-.44.876H92.688a2.239,2.239,0,0,1,.49-1.382A3.263,3.263,0,0,1,94.51,9.218a4.68,4.68,0,0,1,1.88-.365,3.769,3.769,0,0,1,2.515.793,2.827,2.827,0,0,1,.963,2.229v4.051a4.591,4.591,0,0,0,.34,1.934V18Zm-2.216-1.453a2.294,2.294,0,0,0,1.125-.291,1.941,1.941,0,0,0,.793-.78V13.783H96.764a2.973,2.973,0,0,0-1.685.39,1.264,1.264,0,0,0-.564,1.1,1.179,1.179,0,0,0,.386.926A1.5,1.5,0,0,0,95.934,16.547Zm9.737.008a1.824,1.824,0,0,0,1.253-.44,1.5,1.5,0,0,0,.531-1.087h1.9a2.963,2.963,0,0,1-.523,1.565,3.43,3.43,0,0,1-1.328,1.15,3.958,3.958,0,0,1-1.81.423,3.829,3.829,0,0,1-2.988-1.22,4.84,4.84,0,0,1-1.1-3.37v-.208a4.759,4.759,0,0,1,1.1-3.283,3.8,3.8,0,0,1,2.988-1.233,3.69,3.69,0,0,1,2.611.934,3.345,3.345,0,0,1,1.058,2.453h-1.9a1.847,1.847,0,0,0-.527-1.27,1.7,1.7,0,0,0-1.258-.5,1.775,1.775,0,0,0-1.511.71,3.621,3.621,0,0,0-.54,2.154v.324a3.681,3.681,0,0,0,.527,2.179A1.774,1.774,0,0,0,105.671,16.556ZM113.025,18h-2.017V9.019h2.017ZM110.884,6.686a1.071,1.071,0,0,1,.295-.772,1.113,1.113,0,0,1,.843-.307,1.127,1.127,0,0,1,.847.307,1.062,1.062,0,0,1,.3.772,1.038,1.038,0,0,1-.3.76,1.136,1.136,0,0,1-.847.3,1.122,1.122,0,0,1-.843-.3A1.046,1.046,0,0,1,110.884,6.686Zm3.959,6.74a5.3,5.3,0,0,1,.523-2.378,3.819,3.819,0,0,1,1.469-1.627,4.14,4.14,0,0,1,2.175-.569,3.923,3.923,0,0,1,2.951,1.17,4.6,4.6,0,0,1,1.224,3.1l.008.473a5.343,5.343,0,0,1-.51,2.374,3.773,3.773,0,0,1-1.461,1.619,4.17,4.17,0,0,1-2.2.573,3.9,3.9,0,0,1-3.042-1.266,4.848,4.848,0,0,1-1.141-3.374Zm2.017.174a3.619,3.619,0,0,0,.573,2.171,1.862,1.862,0,0,0,1.594.784,1.842,1.842,0,0,0,1.59-.8,4,4,0,0,0,.569-2.333,3.572,3.572,0,0,0-.585-2.158,1.973,1.973,0,0,0-3.158-.012A3.922,3.922,0,0,0,116.86,13.6Zm2.706-8.351h2.3l-2.3,2.515-1.619,0Zm7.205,3.769.058,1.038a3.229,3.229,0,0,1,2.615-1.2q2.806,0,2.855,3.212V18h-2.017V12.181a1.85,1.85,0,0,0-.369-1.266,1.554,1.554,0,0,0-1.208-.411,1.944,1.944,0,0,0-1.818,1.1V18H124.87V9.019Z" transform="translate(708.406 5847)" fill="#12263f"/>
      <g id="Rectangle_466828" data-name="Rectangle 466828" transform="translate(454.92 5823)" fill="#ffe2bc" stroke="#12263f" stroke-width="3">
        <rect width="176.962" height="71" rx="14" stroke="none"/>
        <rect x="-1.5" y="-1.5" width="179.962" height="74" rx="15.5" fill="none"/>
      </g>
      <path id="Path_1284823" data-name="Path 1284823" d="M54.579,16.323h5.487V18H52.479V5.914h2.1Zm10.857,1.843a4.173,4.173,0,0,1-3.109-1.208,4.381,4.381,0,0,1-1.191-3.217v-.249a5.389,5.389,0,0,1,.519-2.4,3.949,3.949,0,0,1,1.457-1.648A3.851,3.851,0,0,1,65.2,8.853a3.525,3.525,0,0,1,2.835,1.17,4.949,4.949,0,0,1,1,3.312v.813H63.171a2.7,2.7,0,0,0,.743,1.76,2.23,2.23,0,0,0,1.639.647,2.731,2.731,0,0,0,2.258-1.121L68.9,16.473a3.631,3.631,0,0,1-1.44,1.249A4.509,4.509,0,0,1,65.437,18.166ZM65.2,10.471a1.7,1.7,0,0,0-1.341.581,3.012,3.012,0,0,0-.652,1.619h3.843v-.149a2.452,2.452,0,0,0-.54-1.531A1.686,1.686,0,0,0,65.2,10.471Zm9.1,6.084a1.824,1.824,0,0,0,1.253-.44,1.5,1.5,0,0,0,.531-1.087h1.9a2.963,2.963,0,0,1-.523,1.565,3.43,3.43,0,0,1-1.328,1.15,3.958,3.958,0,0,1-1.81.423,3.829,3.829,0,0,1-2.988-1.22,4.84,4.84,0,0,1-1.1-3.37v-.208a4.759,4.759,0,0,1,1.1-3.283A3.8,3.8,0,0,1,74.31,8.853a3.69,3.69,0,0,1,2.611.934,3.345,3.345,0,0,1,1.058,2.453h-1.9a1.847,1.847,0,0,0-.527-1.27,1.7,1.7,0,0,0-1.258-.5,1.775,1.775,0,0,0-1.511.71,3.621,3.621,0,0,0-.54,2.154v.324a3.681,3.681,0,0,0,.527,2.179A1.774,1.774,0,0,0,74.294,16.556Zm7.736-9.72V9.019h1.585v1.494H82.03v5.014a1.1,1.1,0,0,0,.2.743.943.943,0,0,0,.726.228,3.107,3.107,0,0,0,.706-.083v1.561a4.968,4.968,0,0,1-1.328.191q-2.324,0-2.324-2.565V10.513H78.536V9.019h1.478V6.835ZM90.6,17.12a3.128,3.128,0,0,1-2.523,1.046,2.788,2.788,0,0,1-2.212-.855,3.637,3.637,0,0,1-.751-2.474V9.019h2.017v5.794q0,1.71,1.419,1.71a1.993,1.993,0,0,0,1.984-1.054V9.019h2.017V18h-1.9ZM99.3,10.861a4.991,4.991,0,0,0-.822-.066,1.85,1.85,0,0,0-1.868,1.063V18H94.6V9.019h1.926l.05,1A2.273,2.273,0,0,1,98.6,8.853a1.888,1.888,0,0,1,.714.116ZM105.7,18a3.113,3.113,0,0,1-.232-.838,3.393,3.393,0,0,1-4.565.232,2.47,2.47,0,0,1-.855-1.909,2.55,2.55,0,0,1,1.067-2.2,5.169,5.169,0,0,1,3.051-.768H105.4v-.589a1.573,1.573,0,0,0-.39-1.116,1.547,1.547,0,0,0-1.187-.419,1.777,1.777,0,0,0-1.129.344,1.066,1.066,0,0,0-.44.876h-2.017a2.239,2.239,0,0,1,.49-1.382,3.263,3.263,0,0,1,1.332-1.009,4.68,4.68,0,0,1,1.88-.365,3.769,3.769,0,0,1,2.515.793,2.827,2.827,0,0,1,.963,2.229v4.051a4.591,4.591,0,0,0,.34,1.934V18Zm-2.216-1.453a2.294,2.294,0,0,0,1.125-.291,1.941,1.941,0,0,0,.793-.78V13.783h-1.087a2.973,2.973,0,0,0-1.685.39,1.264,1.264,0,0,0-.564,1.1,1.179,1.179,0,0,0,.386.926A1.5,1.5,0,0,0,103.479,16.547Z" transform="translate(463.529 5847)" fill="#12263f"/>
      <g id="Rectangle_466829" data-name="Rectangle 466829" transform="translate(211 5823)" fill="#ffb758" stroke="#12263f" stroke-width="3">
        <rect width="176.962" height="71" rx="14" stroke="none"/>
        <rect x="-1.5" y="-1.5" width="179.962" height="74" rx="15.5" fill="none"/>
      </g>
      <path id="Path_1284822" data-name="Path 1284822" d="M63.308,14.065a4.364,4.364,0,0,1-1.428,3.017,4.867,4.867,0,0,1-3.312,1.083,4.713,4.713,0,0,1-2.544-.685,4.5,4.5,0,0,1-1.7-1.947A7.024,7.024,0,0,1,53.7,12.6V11.476a7.075,7.075,0,0,1,.606-3.013,4.567,4.567,0,0,1,1.739-2.009,4.851,4.851,0,0,1,2.619-.706,4.672,4.672,0,0,1,3.221,1.083A4.527,4.527,0,0,1,63.308,9.9H61.216a2.985,2.985,0,0,0-.76-1.88,2.51,2.51,0,0,0-1.789-.577,2.452,2.452,0,0,0-2.1,1,5,5,0,0,0-.751,2.937v1.072a5.308,5.308,0,0,0,.7,2.991,2.328,2.328,0,0,0,2.054,1.03,2.715,2.715,0,0,0,1.859-.556,2.9,2.9,0,0,0,.789-1.851Zm1.3-.639a5.3,5.3,0,0,1,.523-2.378A3.819,3.819,0,0,1,66.6,9.421a4.14,4.14,0,0,1,2.175-.569,3.923,3.923,0,0,1,2.951,1.17,4.6,4.6,0,0,1,1.224,3.1l.008.473a5.343,5.343,0,0,1-.51,2.374,3.773,3.773,0,0,1-1.461,1.619,4.17,4.17,0,0,1-2.2.573A3.9,3.9,0,0,1,65.752,16.9a4.848,4.848,0,0,1-1.141-3.374Zm2.017.174a3.619,3.619,0,0,0,.573,2.171,1.862,1.862,0,0,0,1.594.784,1.842,1.842,0,0,0,1.59-.8,4,4,0,0,0,.569-2.333,3.572,3.572,0,0,0-.585-2.158,1.973,1.973,0,0,0-3.158-.012A3.922,3.922,0,0,0,66.628,13.6ZM69.334,5.25h2.3l-2.3,2.515-1.619,0Zm4.956,8.193a5.34,5.34,0,0,1,.963-3.333,3.085,3.085,0,0,1,2.582-1.258,2.931,2.931,0,0,1,2.308,1V5.25h2.017V18H80.333l-.1-.93a2.973,2.973,0,0,1-2.416,1.1,3.068,3.068,0,0,1-2.552-1.27A5.535,5.535,0,0,1,74.29,13.443Zm2.017.174a3.739,3.739,0,0,0,.527,2.137,1.71,1.71,0,0,0,1.5.768,1.9,1.9,0,0,0,1.81-1.1V11.583A1.876,1.876,0,0,0,78.349,10.5a1.723,1.723,0,0,0-1.511.776A4.163,4.163,0,0,0,76.307,13.617ZM86.409,18H84.392V9.019h2.017ZM84.267,6.686a1.071,1.071,0,0,1,.295-.772,1.113,1.113,0,0,1,.843-.307,1.127,1.127,0,0,1,.847.307,1.062,1.062,0,0,1,.3.772,1.038,1.038,0,0,1-.3.76,1.136,1.136,0,0,1-.847.3,1.122,1.122,0,0,1-.843-.3A1.046,1.046,0,0,1,84.267,6.686Zm3.984,6.757a5.253,5.253,0,0,1,.984-3.341,3.157,3.157,0,0,1,2.611-1.249,2.958,2.958,0,0,1,2.416,1.071l.091-.9h1.818v8.708a3.619,3.619,0,0,1-1.1,2.789A4.189,4.189,0,0,1,92.1,21.536a4.783,4.783,0,0,1-1.93-.411,3.429,3.429,0,0,1-1.432-1.075l.955-1.212a2.883,2.883,0,0,0,2.291,1.1,2.228,2.228,0,0,0,1.585-.544,2.084,2.084,0,0,0,.581-1.6v-.606a2.97,2.97,0,0,1-2.324.971,3.15,3.15,0,0,1-2.577-1.253A5.423,5.423,0,0,1,88.252,13.443Zm2.009.174a3.616,3.616,0,0,0,.552,2.129,1.775,1.775,0,0,0,1.531.776,1.941,1.941,0,0,0,1.81-1.046V11.525A1.913,1.913,0,0,0,92.36,10.5a1.782,1.782,0,0,0-1.548.789A4.049,4.049,0,0,0,90.26,13.617Zm7.6-.191a5.3,5.3,0,0,1,.523-2.378,3.819,3.819,0,0,1,1.469-1.627,4.14,4.14,0,0,1,2.175-.569,3.923,3.923,0,0,1,2.951,1.17,4.6,4.6,0,0,1,1.224,3.1l.008.473a5.343,5.343,0,0,1-.51,2.374,3.773,3.773,0,0,1-1.461,1.619,4.17,4.17,0,0,1-2.2.573A3.9,3.9,0,0,1,99.005,16.9a4.848,4.848,0,0,1-1.141-3.374Zm2.017.174a3.619,3.619,0,0,0,.573,2.171,1.862,1.862,0,0,0,1.594.784,1.842,1.842,0,0,0,1.59-.8,4,4,0,0,0,.569-2.333,3.572,3.572,0,0,0-.585-2.158,1.973,1.973,0,0,0-3.158-.012A3.922,3.922,0,0,0,99.881,13.6Z" transform="translate(219.609 5847)" fill="#12263f"/>
      <g id="Union_25" data-name="Union 25" transform="translate(405.179 5871.67) rotate(-90)" fill="#ffb758">
        <path d="M 12.83388137817383 35.64372634887695 L 11.57655048370361 33.71060562133789 L -1.257429003715515 13.97857475280762 L -2.764989137649536 11.66072463989258 L 9.37499976316758e-07 11.66072463989258 L 6.982420921325684 11.66072463989258 L 6.982420921325684 4.893188361165812e-06 L 6.982420921325684 -1.499995112419128 L 8.482420921325684 -1.499995112419128 L 17.92773056030273 -1.499995112419128 L 19.42773056030273 -1.499995112419128 L 19.42773056030273 4.893188361165812e-06 L 19.42773056030273 11.66072463989258 L 25.669921875 11.66072463989258 L 28.43514060974121 11.66072463989258 L 26.92729187011719 13.97866535186768 L 14.09135055541992 33.710693359375 L 12.83388137817383 35.64372634887695 Z" stroke="none"/>
        <path d="M 8.482421875 -3.814697265625e-06 L 8.482421875 13.16072463989258 L 0 13.16072463989258 L 12.83398056030273 32.89274597167969 L 25.669921875 13.16072463989258 L 17.92773056030273 13.16072463989258 L 17.92773056030273 -3.814697265625e-06 L 8.482421875 -3.814697265625e-06 M 5.482421875 -3.000003814697266 L 20.92773056030273 -3.000003814697266 L 20.92773056030273 10.16072463989258 L 31.20036125183105 10.16072463989258 L 12.83379077911377 38.39469528198242 L -5.529979705810547 10.16072463989258 L 5.482421875 10.16072463989258 L 5.482421875 -3.000003814697266 Z" stroke="none" fill="#12263f"/>
      </g>
      <g id="Union_26" data-name="Union 26" transform="translate(649.099 5871.67) rotate(-90)" fill="#ffe2bc">
        <path d="M 12.83388137817383 35.64372634887695 L 11.57655048370361 33.71060562133789 L -1.257429003715515 13.97857475280762 L -2.764989137649536 11.66072463989258 L 9.37499976316758e-07 11.66072463989258 L 6.982420921325684 11.66072463989258 L 6.982420921325684 4.893188361165812e-06 L 6.982420921325684 -1.499995112419128 L 8.482420921325684 -1.499995112419128 L 17.92773056030273 -1.499995112419128 L 19.42773056030273 -1.499995112419128 L 19.42773056030273 4.893188361165812e-06 L 19.42773056030273 11.66072463989258 L 25.669921875 11.66072463989258 L 28.43514060974121 11.66072463989258 L 26.92729187011719 13.97866535186768 L 14.09135055541992 33.710693359375 L 12.83388137817383 35.64372634887695 Z" stroke="none"/>
        <path d="M 8.482421875 -3.814697265625e-06 L 8.482421875 13.16072463989258 L 0 13.16072463989258 L 12.83398056030273 32.89274597167969 L 25.669921875 13.16072463989258 L 17.92773056030273 13.16072463989258 L 17.92773056030273 -3.814697265625e-06 L 8.482421875 -3.814697265625e-06 M 5.482421875 -3.000003814697266 L 20.92773056030273 -3.000003814697266 L 20.92773056030273 10.16072463989258 L 31.20036125183105 10.16072463989258 L 12.83379077911377 38.39469528198242 L -5.529979705810547 10.16072463989258 L 5.482421875 10.16072463989258 L 5.482421875 -3.000003814697266 Z" stroke="none" fill="#12263f"/>
      </g>
      <g id="Union_27" data-name="Union 27" transform="translate(893.791 5871.67) rotate(-90)" fill="#ffb758">
        <path d="M 12.83388137817383 35.64372634887695 L 11.57655048370361 33.71060562133789 L -1.257429003715515 13.97857475280762 L -2.764989137649536 11.66072463989258 L 9.37499976316758e-07 11.66072463989258 L 6.982420921325684 11.66072463989258 L 6.982420921325684 4.893188361165812e-06 L 6.982420921325684 -1.499995112419128 L 8.482420921325684 -1.499995112419128 L 17.92773056030273 -1.499995112419128 L 19.42773056030273 -1.499995112419128 L 19.42773056030273 4.893188361165812e-06 L 19.42773056030273 11.66072463989258 L 25.669921875 11.66072463989258 L 28.43514060974121 11.66072463989258 L 26.92729187011719 13.97866535186768 L 14.09135055541992 33.710693359375 L 12.83388137817383 35.64372634887695 Z" stroke="none"/>
        <path d="M 8.482421875 -3.814697265625e-06 L 8.482421875 13.16072463989258 L 0 13.16072463989258 L 12.83398056030273 32.89274597167969 L 25.669921875 13.16072463989258 L 17.92773056030273 13.16072463989258 L 17.92773056030273 -3.814697265625e-06 L 8.482421875 -3.814697265625e-06 M 5.482421875 -3.000003814697266 L 20.92773056030273 -3.000003814697266 L 20.92773056030273 10.16072463989258 L 31.20036125183105 10.16072463989258 L 12.83379077911377 38.39469528198242 L -5.529979705810547 10.16072463989258 L 5.482421875 10.16072463989258 L 5.482421875 -3.000003814697266 Z" stroke="none" fill="#12263f"/>
      </g>
      <g id="Union_59" data-name="Union 59" transform="translate(1137.711 5871.67) rotate(-90)" fill="#ffe2bc">
        <path d="M 12.83388137817383 35.64372634887695 L 11.57655048370361 33.71060562133789 L -1.257429003715515 13.97857475280762 L -2.764989137649536 11.66072463989258 L 9.37499976316758e-07 11.66072463989258 L 6.982420921325684 11.66072463989258 L 6.982420921325684 4.893188361165812e-06 L 6.982420921325684 -1.499995112419128 L 8.482420921325684 -1.499995112419128 L 17.92773056030273 -1.499995112419128 L 19.42773056030273 -1.499995112419128 L 19.42773056030273 4.893188361165812e-06 L 19.42773056030273 11.66072463989258 L 25.669921875 11.66072463989258 L 28.43514060974121 11.66072463989258 L 26.92729187011719 13.97866535186768 L 14.09135055541992 33.710693359375 L 12.83388137817383 35.64372634887695 Z" stroke="none"/>
        <path d="M 8.482421875 -3.814697265625e-06 L 8.482421875 13.16072463989258 L 0 13.16072463989258 L 12.83398056030273 32.89274597167969 L 25.669921875 13.16072463989258 L 17.92773056030273 13.16072463989258 L 17.92773056030273 -3.814697265625e-06 L 8.482421875 -3.814697265625e-06 M 5.482421875 -3.000003814697266 L 20.92773056030273 -3.000003814697266 L 20.92773056030273 10.16072463989258 L 31.20036125183105 10.16072463989258 L 12.83379077911377 38.39469528198242 L -5.529979705810547 10.16072463989258 L 5.482421875 10.16072463989258 L 5.482421875 -3.000003814697266 Z" stroke="none" fill="#12263f"/>
      </g>
    </g>
  </g>
</svg>
