<svg xmlns="http://www.w3.org/2000/svg" width="396" height="701" viewBox="0 0 396 701">
  <g id="Grupo_1214497" data-name="Grupo 1214497" transform="translate(-289.711 -2988)">
    <rect id="Rectángulo_466854" data-name="Rectángulo 466854" width="396" height="701" rx="1" transform="translate(289.711 2988)" fill="#c0f6f2"/>
    <g id="Grupo_1212932" data-name="Grupo 1212932" transform="translate(-312 -76)">
      <g id="Rectángulo_466826" data-name="Rectángulo 466826" transform="translate(707.711 3510.739)" fill="#ffe2bc" stroke="#12263f" stroke-width="3">
        <rect width="185" height="71" rx="14" stroke="none"/>
        <rect x="-1.5" y="-1.5" width="188" height="74" rx="15.5" fill="none"/>
      </g>
      <g id="Rectángulo_467809" data-name="Rectángulo 467809" transform="translate(707.711 3651.739)" fill="#ffb758" stroke="#12263f" stroke-width="3">
        <rect width="185" height="71" rx="14" stroke="none"/>
        <rect x="-1.5" y="-1.5" width="188" height="74" rx="15.5" fill="none"/>
      </g>
      <text id="Comprensión_" data-name="Comprensión " transform="translate(716.711 3533.739)" fill="#12263f" font-size="17" font-family="SegoeUI, Segoe UI"><tspan x="33.272" y="18">Comprensión </tspan></text>
      <text id="Mantenimiento" transform="translate(716.711 3674.739)" fill="#12263f" font-size="17" font-family="SegoeUI, Segoe UI"><tspan x="26.042" y="18">Mantenimiento</tspan></text>
      <g id="Rectángulo_466827" data-name="Rectángulo 466827" transform="translate(707.711 3370.739)" fill="#ffb758" stroke="#12263f" stroke-width="3">
        <rect width="185" height="71" rx="14" stroke="none"/>
        <rect x="-1.5" y="-1.5" width="188" height="74" rx="15.5" fill="none"/>
      </g>
      <text id="Interpretación_" data-name="Interpretación " transform="translate(716.711 3394.739)" fill="#12263f" font-size="17" font-family="SegoeUI, Segoe UI"><tspan x="30.769" y="18">Interpretación </tspan></text>
      <g id="Rectángulo_466828" data-name="Rectángulo 466828" transform="translate(707.711 3230.739)" fill="#ffe2bc" stroke="#12263f" stroke-width="3">
        <rect width="185" height="71" rx="14" stroke="none"/>
        <rect x="-1.5" y="-1.5" width="188" height="74" rx="15.5" fill="none"/>
      </g>
      <text id="Lectura_" data-name="Lectura " transform="translate(716.711 3254.739)" fill="#12263f" font-size="17" font-family="SegoeUI, Segoe UI"><tspan x="56.157" y="18">Lectura </tspan></text>
      <g id="Rectángulo_466829" data-name="Rectángulo 466829" transform="translate(707.711 3091.739)" fill="#ffb758" stroke="#12263f" stroke-width="3">
        <rect width="185" height="71" rx="14" stroke="none"/>
        <rect x="-1.5" y="-1.5" width="188" height="74" rx="15.5" fill="none"/>
      </g>
      <text id="Código_" data-name="Código " transform="translate(716.711 3115.739)" fill="#12263f" font-size="17" font-family="SegoeUI, Segoe UI"><tspan x="56.207" y="18">Código </tspan></text>
      <g id="Unión_25" data-name="Unión 25" transform="translate(-9420 -8528.184)" fill="#ffb758">
        <path d="M 10220.54296875 11737.224609375 L 10219.26953125 11735.1767578125 L 10206.435546875 11714.5478515625 L 10205.0087890625 11712.255859375 L 10207.708984375 11712.255859375 L 10214.69140625 11712.255859375 L 10214.69140625 11699.998046875 L 10214.69140625 11698.498046875 L 10216.19140625 11698.498046875 L 10225.63671875 11698.498046875 L 10227.13671875 11698.498046875 L 10227.13671875 11699.998046875 L 10227.13671875 11712.255859375 L 10233.37890625 11712.255859375 L 10236.0791015625 11712.255859375 L 10234.65234375 11714.5478515625 L 10221.81640625 11735.1767578125 L 10220.54296875 11737.224609375 Z" stroke="none"/>
        <path d="M 10216.19140625 11699.998046875 L 10216.19140625 11713.755859375 L 10207.708984375 11713.755859375 L 10220.54296875 11734.384765625 L 10233.37890625 11713.755859375 L 10225.63671875 11713.755859375 L 10225.63671875 11699.998046875 L 10216.19140625 11699.998046875 M 10213.19140625 11696.998046875 L 10228.63671875 11696.998046875 L 10228.63671875 11710.755859375 L 10238.779296875 11710.755859375 L 10220.54296875 11740.0634765625 L 10202.3095703125 11710.755859375 L 10213.19140625 11710.755859375 L 10213.19140625 11696.998046875 Z" stroke="none" fill="#12263f"/>
      </g>
      <g id="Unión_26" data-name="Unión 26" transform="translate(-9420 -8381.617)" fill="#ffe2bc">
        <path d="M 10220.54296875 11737.224609375 L 10219.26953125 11735.1767578125 L 10206.435546875 11714.5478515625 L 10205.0087890625 11712.255859375 L 10207.708984375 11712.255859375 L 10214.69140625 11712.255859375 L 10214.69140625 11699.998046875 L 10214.69140625 11698.498046875 L 10216.19140625 11698.498046875 L 10225.63671875 11698.498046875 L 10227.13671875 11698.498046875 L 10227.13671875 11699.998046875 L 10227.13671875 11712.255859375 L 10233.37890625 11712.255859375 L 10236.0791015625 11712.255859375 L 10234.65234375 11714.5478515625 L 10221.81640625 11735.1767578125 L 10220.54296875 11737.224609375 Z" stroke="none"/>
        <path d="M 10216.19140625 11699.998046875 L 10216.19140625 11713.755859375 L 10207.708984375 11713.755859375 L 10220.54296875 11734.384765625 L 10233.37890625 11713.755859375 L 10225.63671875 11713.755859375 L 10225.63671875 11699.998046875 L 10216.19140625 11699.998046875 M 10213.19140625 11696.998046875 L 10228.63671875 11696.998046875 L 10228.63671875 11710.755859375 L 10238.779296875 11710.755859375 L 10220.54296875 11740.0634765625 L 10202.3095703125 11710.755859375 L 10213.19140625 11710.755859375 L 10213.19140625 11696.998046875 Z" stroke="none" fill="#12263f"/>
      </g>
      <g id="Unión_27" data-name="Unión 27" transform="translate(-9420 -8241.617)" fill="#ffb758">
        <path d="M 10220.54296875 11737.224609375 L 10219.26953125 11735.1767578125 L 10206.435546875 11714.5478515625 L 10205.0087890625 11712.255859375 L 10207.708984375 11712.255859375 L 10214.69140625 11712.255859375 L 10214.69140625 11699.998046875 L 10214.69140625 11698.498046875 L 10216.19140625 11698.498046875 L 10225.63671875 11698.498046875 L 10227.13671875 11698.498046875 L 10227.13671875 11699.998046875 L 10227.13671875 11712.255859375 L 10233.37890625 11712.255859375 L 10236.0791015625 11712.255859375 L 10234.65234375 11714.5478515625 L 10221.81640625 11735.1767578125 L 10220.54296875 11737.224609375 Z" stroke="none"/>
        <path d="M 10216.19140625 11699.998046875 L 10216.19140625 11713.755859375 L 10207.708984375 11713.755859375 L 10220.54296875 11734.384765625 L 10233.37890625 11713.755859375 L 10225.63671875 11713.755859375 L 10225.63671875 11699.998046875 L 10216.19140625 11699.998046875 M 10213.19140625 11696.998046875 L 10228.63671875 11696.998046875 L 10228.63671875 11710.755859375 L 10238.779296875 11710.755859375 L 10220.54296875 11740.0634765625 L 10202.3095703125 11710.755859375 L 10213.19140625 11710.755859375 L 10213.19140625 11696.998046875 Z" stroke="none" fill="#12263f"/>
      </g>
      <g id="Unión_60" data-name="Unión 60" transform="translate(-9420 -8100.617)" fill="#ffe2bc">
        <path d="M 10220.54296875 11737.224609375 L 10219.26953125 11735.1767578125 L 10206.435546875 11714.5478515625 L 10205.0087890625 11712.255859375 L 10207.708984375 11712.255859375 L 10214.69140625 11712.255859375 L 10214.69140625 11699.998046875 L 10214.69140625 11698.498046875 L 10216.19140625 11698.498046875 L 10225.63671875 11698.498046875 L 10227.13671875 11698.498046875 L 10227.13671875 11699.998046875 L 10227.13671875 11712.255859375 L 10233.37890625 11712.255859375 L 10236.0791015625 11712.255859375 L 10234.65234375 11714.5478515625 L 10221.81640625 11735.1767578125 L 10220.54296875 11737.224609375 Z" stroke="none"/>
        <path d="M 10216.19140625 11699.998046875 L 10216.19140625 11713.755859375 L 10207.708984375 11713.755859375 L 10220.54296875 11734.384765625 L 10233.37890625 11713.755859375 L 10225.63671875 11713.755859375 L 10225.63671875 11699.998046875 L 10216.19140625 11699.998046875 M 10213.19140625 11696.998046875 L 10228.63671875 11696.998046875 L 10228.63671875 11710.755859375 L 10238.779296875 11710.755859375 L 10220.54296875 11740.0634765625 L 10202.3095703125 11710.755859375 L 10213.19140625 11710.755859375 L 10213.19140625 11696.998046875 Z" stroke="none" fill="#12263f"/>
      </g>
    </g>
  </g>
</svg>
