<svg xmlns="http://www.w3.org/2000/svg" width="1228" height="117" viewBox="0 0 1228 117">
  <g id="Grupo_1214496" data-name="Grupo 1214496" transform="translate(-186 -5794.718)">
    <rect id="Rectángulo_466834" data-name="Rectángulo 466834" width="1228" height="117" rx="16" transform="translate(186 5794.718)" fill="#c0f6f2"/>
    <g id="Grupo_1180568" data-name="Grupo 1180568" transform="translate(12.4 -5.282)">
      <g id="Rectángulo_466826" data-name="Rectángulo 466826" transform="translate(943.717 5823)" fill="#ffe2bc" stroke="#12263f" stroke-width="3">
        <rect width="176.962" height="71" rx="14" stroke="none"/>
        <rect x="-1.5" y="-1.5" width="179.962" height="74" rx="15.5" fill="none"/>
      </g>
      <g id="Rectángulo_467808" data-name="Rectángulo 467808" transform="translate(1187.638 5823)" fill="#ffb758" stroke="#12263f" stroke-width="3">
        <rect width="176.962" height="71" rx="14" stroke="none"/>
        <rect x="-1.5" y="-1.5" width="179.962" height="74" rx="15.5" fill="none"/>
      </g>
      <text id="Comprensión_" data-name="Comprensión " transform="translate(952.326 5846)" fill="#12263f" font-size="17" font-family="SegoeUI, Segoe UI"><tspan x="29.644" y="18">Comprensión </tspan></text>
      <text id="Mantenimiento" transform="translate(1196.247 5846)" fill="#12263f" font-size="17" font-family="SegoeUI, Segoe UI"><tspan x="22.414" y="18">Mantenimiento</tspan></text>
      <g id="Rectángulo_466827" data-name="Rectángulo 466827" transform="translate(699.797 5823)" fill="#ffb758" stroke="#12263f" stroke-width="3">
        <rect width="176.962" height="71" rx="14" stroke="none"/>
        <rect x="-1.5" y="-1.5" width="179.962" height="74" rx="15.5" fill="none"/>
      </g>
      <text id="Interpretación_" data-name="Interpretación " transform="translate(708.406 5847)" fill="#12263f" font-size="17" font-family="SegoeUI, Segoe UI"><tspan x="27.141" y="18">Interpretación </tspan></text>
      <g id="Rectángulo_466828" data-name="Rectángulo 466828" transform="translate(454.92 5823)" fill="#ffe2bc" stroke="#12263f" stroke-width="3">
        <rect width="176.962" height="71" rx="14" stroke="none"/>
        <rect x="-1.5" y="-1.5" width="179.962" height="74" rx="15.5" fill="none"/>
      </g>
      <text id="Lectura_" data-name="Lectura " transform="translate(463.529 5847)" fill="#12263f" font-size="17" font-family="SegoeUI, Segoe UI"><tspan x="52.529" y="18">Lectura </tspan></text>
      <g id="Rectángulo_466829" data-name="Rectángulo 466829" transform="translate(211 5823)" fill="#ffb758" stroke="#12263f" stroke-width="3">
        <rect width="176.962" height="71" rx="14" stroke="none"/>
        <rect x="-1.5" y="-1.5" width="179.962" height="74" rx="15.5" fill="none"/>
      </g>
      <text id="Código_" data-name="Código " transform="translate(219.609 5847)" fill="#12263f" font-size="17" font-family="SegoeUI, Segoe UI"><tspan x="52.579" y="18">Código </tspan></text>
      <g id="Unión_25" data-name="Unión 25" transform="translate(405.179 5871.67) rotate(-90)" fill="#ffb758">
        <path d="M 12.83388137817383 35.64372634887695 L 11.57655048370361 33.71060562133789 L -1.257429003715515 13.97857475280762 L -2.764989137649536 11.66072463989258 L 9.37499976316758e-07 11.66072463989258 L 6.982420921325684 11.66072463989258 L 6.982420921325684 4.893188361165812e-06 L 6.982420921325684 -1.499995112419128 L 8.482420921325684 -1.499995112419128 L 17.92773056030273 -1.499995112419128 L 19.42773056030273 -1.499995112419128 L 19.42773056030273 4.893188361165812e-06 L 19.42773056030273 11.66072463989258 L 25.669921875 11.66072463989258 L 28.43514060974121 11.66072463989258 L 26.92729187011719 13.97866535186768 L 14.09135055541992 33.710693359375 L 12.83388137817383 35.64372634887695 Z" stroke="none"/>
        <path d="M 8.482421875 -3.814697265625e-06 L 8.482421875 13.16072463989258 L 0 13.16072463989258 L 12.83398056030273 32.89274597167969 L 25.669921875 13.16072463989258 L 17.92773056030273 13.16072463989258 L 17.92773056030273 -3.814697265625e-06 L 8.482421875 -3.814697265625e-06 M 5.482421875 -3.000003814697266 L 20.92773056030273 -3.000003814697266 L 20.92773056030273 10.16072463989258 L 31.20036125183105 10.16072463989258 L 12.83379077911377 38.39469528198242 L -5.529979705810547 10.16072463989258 L 5.482421875 10.16072463989258 L 5.482421875 -3.000003814697266 Z" stroke="none" fill="#12263f"/>
      </g>
      <g id="Unión_26" data-name="Unión 26" transform="translate(649.099 5871.67) rotate(-90)" fill="#ffe2bc">
        <path d="M 12.83388137817383 35.64372634887695 L 11.57655048370361 33.71060562133789 L -1.257429003715515 13.97857475280762 L -2.764989137649536 11.66072463989258 L 9.37499976316758e-07 11.66072463989258 L 6.982420921325684 11.66072463989258 L 6.982420921325684 4.893188361165812e-06 L 6.982420921325684 -1.499995112419128 L 8.482420921325684 -1.499995112419128 L 17.92773056030273 -1.499995112419128 L 19.42773056030273 -1.499995112419128 L 19.42773056030273 4.893188361165812e-06 L 19.42773056030273 11.66072463989258 L 25.669921875 11.66072463989258 L 28.43514060974121 11.66072463989258 L 26.92729187011719 13.97866535186768 L 14.09135055541992 33.710693359375 L 12.83388137817383 35.64372634887695 Z" stroke="none"/>
        <path d="M 8.482421875 -3.814697265625e-06 L 8.482421875 13.16072463989258 L 0 13.16072463989258 L 12.83398056030273 32.89274597167969 L 25.669921875 13.16072463989258 L 17.92773056030273 13.16072463989258 L 17.92773056030273 -3.814697265625e-06 L 8.482421875 -3.814697265625e-06 M 5.482421875 -3.000003814697266 L 20.92773056030273 -3.000003814697266 L 20.92773056030273 10.16072463989258 L 31.20036125183105 10.16072463989258 L 12.83379077911377 38.39469528198242 L -5.529979705810547 10.16072463989258 L 5.482421875 10.16072463989258 L 5.482421875 -3.000003814697266 Z" stroke="none" fill="#12263f"/>
      </g>
      <g id="Unión_27" data-name="Unión 27" transform="translate(893.791 5871.67) rotate(-90)" fill="#ffb758">
        <path d="M 12.83388137817383 35.64372634887695 L 11.57655048370361 33.71060562133789 L -1.257429003715515 13.97857475280762 L -2.764989137649536 11.66072463989258 L 9.37499976316758e-07 11.66072463989258 L 6.982420921325684 11.66072463989258 L 6.982420921325684 4.893188361165812e-06 L 6.982420921325684 -1.499995112419128 L 8.482420921325684 -1.499995112419128 L 17.92773056030273 -1.499995112419128 L 19.42773056030273 -1.499995112419128 L 19.42773056030273 4.893188361165812e-06 L 19.42773056030273 11.66072463989258 L 25.669921875 11.66072463989258 L 28.43514060974121 11.66072463989258 L 26.92729187011719 13.97866535186768 L 14.09135055541992 33.710693359375 L 12.83388137817383 35.64372634887695 Z" stroke="none"/>
        <path d="M 8.482421875 -3.814697265625e-06 L 8.482421875 13.16072463989258 L 0 13.16072463989258 L 12.83398056030273 32.89274597167969 L 25.669921875 13.16072463989258 L 17.92773056030273 13.16072463989258 L 17.92773056030273 -3.814697265625e-06 L 8.482421875 -3.814697265625e-06 M 5.482421875 -3.000003814697266 L 20.92773056030273 -3.000003814697266 L 20.92773056030273 10.16072463989258 L 31.20036125183105 10.16072463989258 L 12.83379077911377 38.39469528198242 L -5.529979705810547 10.16072463989258 L 5.482421875 10.16072463989258 L 5.482421875 -3.000003814697266 Z" stroke="none" fill="#12263f"/>
      </g>
      <g id="Unión_59" data-name="Unión 59" transform="translate(1137.711 5871.67) rotate(-90)" fill="#ffe2bc">
        <path d="M 12.83388137817383 35.64372634887695 L 11.57655048370361 33.71060562133789 L -1.257429003715515 13.97857475280762 L -2.764989137649536 11.66072463989258 L 9.37499976316758e-07 11.66072463989258 L 6.982420921325684 11.66072463989258 L 6.982420921325684 4.893188361165812e-06 L 6.982420921325684 -1.499995112419128 L 8.482420921325684 -1.499995112419128 L 17.92773056030273 -1.499995112419128 L 19.42773056030273 -1.499995112419128 L 19.42773056030273 4.893188361165812e-06 L 19.42773056030273 11.66072463989258 L 25.669921875 11.66072463989258 L 28.43514060974121 11.66072463989258 L 26.92729187011719 13.97866535186768 L 14.09135055541992 33.710693359375 L 12.83388137817383 35.64372634887695 Z" stroke="none"/>
        <path d="M 8.482421875 -3.814697265625e-06 L 8.482421875 13.16072463989258 L 0 13.16072463989258 L 12.83398056030273 32.89274597167969 L 25.669921875 13.16072463989258 L 17.92773056030273 13.16072463989258 L 17.92773056030273 -3.814697265625e-06 L 8.482421875 -3.814697265625e-06 M 5.482421875 -3.000003814697266 L 20.92773056030273 -3.000003814697266 L 20.92773056030273 10.16072463989258 L 31.20036125183105 10.16072463989258 L 12.83379077911377 38.39469528198242 L -5.529979705810547 10.16072463989258 L 5.482421875 10.16072463989258 L 5.482421875 -3.000003814697266 Z" stroke="none" fill="#12263f"/>
      </g>
    </g>
  </g>
</svg>
