<svg xmlns="http://www.w3.org/2000/svg" xmlns:xlink="http://www.w3.org/1999/xlink" width="66.683" height="69.323" viewBox="0 0 66.683 69.323">
  <defs>
    <clipPath id="clip-path">
      <rect id="Rectángulo_468461" data-name="Rectángulo 468461" width="45" height="44.982" fill="#fff"/>
    </clipPath>
  </defs>
  <g id="Grupo_1214823" data-name="Grupo 1214823" transform="translate(-521 -1566)">
    <rect id="Rectángulo_467759" data-name="Rectángulo 467759" width="66.683" height="69.323" transform="translate(521 1566)" fill="#19538d"/>
    <g id="Grupo_1214822" data-name="Grupo 1214822" transform="translate(532 1578)">
      <g id="Grupo_1214821" data-name="Grupo 1214821" clip-path="url(#clip-path)">
        <path id="Trazado_1284207" data-name="Trazado 1284207" d="M118.894,94.175l-.019,12.861a1.9,1.9,0,0,1-1.732,1.806H102.991a1.9,1.9,0,0,1-1.736-1.811l-.011-17.738a1.975,1.975,0,0,1,2.023-1.962l8.773.009,0,5.845a.943.943,0,0,0,.915.991Zm-7.742,2.941a1.022,1.022,0,0,0,.883-1.033c-.029-.351-.375-.9-.81-.9L104.9,95.2c-.511,0-.761.755-.68,1.122a1.073,1.073,0,0,0,.923.8Zm-.069,3.907a.992.992,0,0,0,.948-1.038,1,1,0,0,0-.942-.893l-5.942,0a.958.958,0,0,0-.94,1.015.975.975,0,0,0,1.079.921Zm0,3.924a.99.99,0,0,0,.947-1.045,1.013,1.013,0,0,0-1.076-.9H105.28a.984.984,0,0,0-1.073,1.019.969.969,0,0,0,1.079.933Z" transform="translate(-87.61 -75.571)" fill="#fff"/>
        <path id="Trazado_1284208" data-name="Trazado 1284208" d="M33.442,76.139c.22,1.373,1.462,1.784,2.77,1.538A22.518,22.518,0,0,1,5.1,45.527l-1.6-1.6,6.832-.779-.771,6.835-1.417-1.4A18.22,18.22,0,0,0,33.52,74.345a7.254,7.254,0,0,0-.078,1.793" transform="translate(0 -37.339)" fill="#fff"/>
        <path id="Trazado_1284209" data-name="Trazado 1284209" d="M100.294,32.945A18.224,18.224,0,0,0,75.039,7.471l.088-1.212a2.273,2.273,0,0,0-.522-1.748,2.481,2.481,0,0,0-1.938-.628,22.559,22.559,0,0,1,30.719,32.187l1.649,1.692-6.829.764.751-6.846Z" transform="translate(-62.882 -0.001)" fill="#fff"/>
        <path id="Trazado_1284210" data-name="Trazado 1284210" d="M199.709,98.878l-3.886.039.036-3.889Z" transform="translate(-169.453 -82.23)" fill="#fff"/>
      </g>
    </g>
  </g>
</svg>
