<svg xmlns="http://www.w3.org/2000/svg" xmlns:xlink="http://www.w3.org/1999/xlink" width="129" height="129" viewBox="0 0 129 129">
  <defs>
    <clipPath id="clip-path">
      <rect id="Rectángulo_456296" data-name="Rectángulo 456296" width="129" height="129" fill="none"/>
    </clipPath>
    <clipPath id="clip-path-3">
      <rect id="Rectángulo_468430" data-name="Rectángulo 468430" width="84" height="67.554" fill="#19538d"/>
    </clipPath>
  </defs>
  <g id="Grupo_1179964" data-name="Grupo 1179964" transform="translate(-1122.059 -5874)">
    <g id="Grupo_1179964-2" data-name="Grupo 1179964" transform="translate(92 -3561)">
      <g id="Grupo_1179952" data-name="Grupo 1179952" transform="translate(1030.059 9435)" clip-path="url(#clip-path)">
        <path id="Trazado_999645" data-name="Trazado 999645" d="M1.5,5.146H106.366A15.892,15.892,0,0,1,122.3,21V125.366H17.429A15.892,15.892,0,0,1,1.5,109.513Z" transform="translate(0.491 1.653)" fill="#d7f1fe"/>
      </g>
      <g id="Grupo_1179957" data-name="Grupo 1179957" transform="translate(1030.059 9435)">
        <g id="Grupo_1179956" data-name="Grupo 1179956" clip-path="url(#clip-path)">
          <path id="Trazado_999651" data-name="Trazado 999651" d="M93.818,30a6.606,6.606,0,1,1-6.637,6.605A6.622,6.622,0,0,1,93.818,30" transform="translate(28.545 9.633)" fill="#19538d"/>
          <path id="Trazado_999652" data-name="Trazado 999652" d="M64.818,0a6.606,6.606,0,1,1-6.637,6.605A6.622,6.622,0,0,1,64.818,0" transform="translate(19.05 0)" fill="#19538d"/>
          <path id="Trazado_999653" data-name="Trazado 999653" d="M122.3,44.586v80.78H17.429A15.892,15.892,0,0,1,1.5,109.513V5.146H84.275" transform="translate(0.491 1.653)" fill="none" stroke="#19538d" stroke-miterlimit="10" stroke-width="4"/>
        </g>
      </g>
    </g>
    <g id="Grupo_1179965" data-name="Grupo 1179965" transform="translate(1141.059 5897)">
      <rect id="Rectángulo_456311" data-name="Rectángulo 456311" width="87.124" height="87.753" transform="translate(0 -0.189)" fill="none"/>
      <g id="Grupo_1214765" data-name="Grupo 1214765" transform="translate(2 9.81)">
        <g id="Grupo_1214764" data-name="Grupo 1214764" clip-path="url(#clip-path-3)">
          <path id="Trazado_1284124" data-name="Trazado 1284124" d="M70.93,32.529l-.035,26.984a8.022,8.022,0,0,1-7.686,7.966l-54.567.076C4.023,67.561.028,64.3.025,59.46L0,5.806A5.632,5.632,0,0,1,5.489,0L22.516,0c1.913,0,3.329,1.387,4.467,2.669L29.44,5.442c.857.966,1.867,2.076,3.346,2.073l25.966-.048a14.928,14.928,0,0,1,17.68-2.445,14.729,14.729,0,0,1-5.5,27.506M33.149,9.207A5.993,5.993,0,0,1,28.629,6.98L25.221,3.226a4.393,4.393,0,0,0-3.293-1.632L5.227,1.6A4.1,4.1,0,0,0,1.678,5.787L1.692,19.08H54.553a14.7,14.7,0,0,1,2.79-9.861Zm49.195,8.7A13.1,13.1,0,1,0,69.247,31a13.1,13.1,0,0,0,13.1-13.1M69.266,59.4V32.66A14.815,14.815,0,0,1,54.778,20.773H1.682l.011,38.7a6.5,6.5,0,0,0,6,6.423l55.338-.034A6.449,6.449,0,0,0,69.266,59.4" transform="translate(0 0)" fill="#19538d"/>
          <path id="Trazado_1284125" data-name="Trazado 1284125" d="M102.3,122.563l-29.18.016a3.628,3.628,0,0,1-3.908-3.707l.024-12.55a3.5,3.5,0,0,1,3.287-3.311L102.551,103a3.582,3.582,0,0,1,3.487,3.576l-.016,12.5a3.6,3.6,0,0,1-3.723,3.484m.106-1.676a1.883,1.883,0,0,0,1.966-2l-.007-12.3a1.993,1.993,0,0,0-1.759-1.949l-29.933.008a1.944,1.944,0,0,0-1.783,1.663l-.016,12.606c0,.752.568,1.96,1.506,1.96Z" transform="translate(-52.158 -77.624)" fill="#19538d"/>
          <rect id="Rectángulo_468427" data-name="Rectángulo 468427" width="28.289" height="1.655" transform="translate(31.045 58.573)" fill="#19538d"/>
          <rect id="Rectángulo_468428" data-name="Rectángulo 468428" width="28.233" height="1.606" transform="translate(31.049 49.618)" fill="#19538d"/>
          <rect id="Rectángulo_468429" data-name="Rectángulo 468429" width="16.703" height="1.69" transform="translate(24.379 54.099)" fill="#19538d"/>
          <path id="Trazado_1284126" data-name="Trazado 1284126" d="M60.4,239.385l-12.363,0c-.387,0-.956-.513-.94-.844a1.01,1.01,0,0,1,.943-.805l12.363,0a1.009,1.009,0,0,1,.906.831c.028.315-.517.818-.909.818" transform="translate(-35.493 -179.159)" fill="#19538d"/>
          <path id="Trazado_1284127" data-name="Trazado 1284127" d="M60.463,202.974H48.058c-.308,0-.886-.439-.905-.725a1.212,1.212,0,0,1,.665-.875H60.709a1.274,1.274,0,0,1,.642.879c-.006.3-.559.723-.888.723" transform="translate(-35.534 -151.754)" fill="#19538d"/>
          <path id="Trazado_1284128" data-name="Trazado 1284128" d="M193.237,221.246h-6.831l-.78-.625c-.194-.155.2-1.042.46-1.043l7.448-.025c.252,0,.669.624.63.869a1.453,1.453,0,0,1-.927.825" transform="translate(-139.848 -165.456)" fill="#19538d"/>
          <path id="Trazado_1284129" data-name="Trazado 1284129" d="M52.917,221.21l-4.9.016a1.2,1.2,0,0,1-.942-.857,1.153,1.153,0,0,1,.914-.84l4.726.006a1.37,1.37,0,0,1,.969.636c.118.3-.413,1.038-.768,1.039" transform="translate(-35.477 -165.438)" fill="#19538d"/>
          <path id="Trazado_1284130" data-name="Trazado 1284130" d="M24.45,39.079a3.519,3.519,0,1,1-3.519-3.519,3.519,3.519,0,0,1,3.519,3.519m-1.661.006a1.866,1.866,0,1,0-1.866,1.866,1.866,1.866,0,0,0,1.866-1.866" transform="translate(-13.122 -26.798)" fill="#19538d"/>
          <path id="Trazado_1284131" data-name="Trazado 1284131" d="M61.65,39.12a3.514,3.514,0,1,1-3.514-3.514A3.514,3.514,0,0,1,61.65,39.12M60,39.112a1.864,1.864,0,1,0-1.864,1.864A1.865,1.865,0,0,0,60,39.112" transform="translate(-41.163 -26.833)" fill="#19538d"/>
          <path id="Trazado_1284132" data-name="Trazado 1284132" d="M98.839,39.126a3.516,3.516,0,1,1-3.516-3.516,3.516,3.516,0,0,1,3.516,3.516m-1.646-.005a1.866,1.866,0,1,0-1.865,1.865,1.865,1.865,0,0,0,1.865-1.865" transform="translate(-69.187 -26.836)" fill="#19538d"/>
          <path id="Trazado_1284133" data-name="Trazado 1284133" d="M253.4,58.91l-3.123-3.123a2.731,2.731,0,0,1,.676-4.155,3.1,3.1,0,0,1,4.222,1.086l5.443-5.342c1.025-1.006,3.055-.4,3.768.51a2.908,2.908,0,0,1-.28,3.948l-6.768,6.774a2.755,2.755,0,0,1-3.937.3m.923-1.352a1.282,1.282,0,0,0,1.837-.128l6.91-6.927a1.287,1.287,0,0,0-.062-1.7,1.372,1.372,0,0,0-1.638,0L255.357,54.8c-1.665-.591-2.317-2.895-3.761-1.584a1.293,1.293,0,0,0,.152,1.806Z" transform="translate(-188.087 -35.31)" fill="#19538d"/>
          <path id="Trazado_1284134" data-name="Trazado 1284134" d="M99.778,130.437a1.314,1.314,0,0,1,.2,1.243,1.113,1.113,0,0,1-1.223.045l-4.991-4.387a.948.948,0,0,1,.046-1.211l5.086-4.438a1.112,1.112,0,0,1,1.083.136,1.259,1.259,0,0,1-.122,1.167l-4.239,3.767Z" transform="translate(-70.511 -91.641)" fill="#19538d"/>
          <path id="Trazado_1284135" data-name="Trazado 1284135" d="M169.141,131.8a1.145,1.145,0,0,1-1.12-.106,1.261,1.261,0,0,1,.079-1.107l4.233-3.825-4.224-3.78a1.284,1.284,0,0,1-.084-1.154,1.058,1.058,0,0,1,1.114-.095l4.927,4.3a1.017,1.017,0,0,1,.032,1.432Z" transform="translate(-126.551 -91.651)" fill="#19538d"/>
          <path id="Trazado_1284136" data-name="Trazado 1284136" d="M134.929,130.4a1.165,1.165,0,0,1-1.216.452c-.257-.154-.357-.674-.314-1.1l3.643-9.718a1.529,1.529,0,0,1,.992-.517,1.022,1.022,0,0,1,.569,1.049Z" transform="translate(-100.522 -90.069)" fill="#19538d"/>
        </g>
      </g>
    </g>
  </g>
</svg>
