<svg xmlns="http://www.w3.org/2000/svg" xmlns:xlink="http://www.w3.org/1999/xlink" width="719.167" height="612.11" viewBox="0 0 719.167 612.11">
  <defs>
    <clipPath id="clip-path">
      <rect id="Rectángulo_467391" data-name="Rectángulo 467391" width="61.26" height="51.34" fill="#f3f9ff"/>
    </clipPath>
    <clipPath id="clip-path-2">
      <rect id="Rectángulo_468433" data-name="Rectángulo 468433" width="53.629" height="53.626" fill="none"/>
    </clipPath>
    <clipPath id="clip-path-3">
      <rect id="Rectángulo_468434" data-name="Rectángulo 468434" width="59.901" height="42.077" fill="none"/>
    </clipPath>
    <clipPath id="clip-path-4">
      <rect id="Rectángulo_468435" data-name="Rectángulo 468435" width="57.894" height="49.278" fill="none"/>
    </clipPath>
    <clipPath id="clip-path-5">
      <rect id="Rectángulo_468436" data-name="Rectángulo 468436" width="45" height="52.147" fill="#19538d"/>
    </clipPath>
    <clipPath id="clip-path-6">
      <rect id="Rectángulo_468442" data-name="Rectángulo 468442" width="54" height="54.334" fill="none"/>
    </clipPath>
    <clipPath id="clip-path-7">
      <rect id="Rectángulo_468443" data-name="Rectángulo 468443" width="49.23" height="49.23" fill="#5af6ea"/>
    </clipPath>
    <clipPath id="clip-path-8">
      <rect id="Rectángulo_468444" data-name="Rectángulo 468444" width="35.5" height="35.49" fill="#68c6ea"/>
    </clipPath>
  </defs>
  <g id="Grupo_1214810" data-name="Grupo 1214810" transform="translate(-2615.833 5613.165)">
    <rect id="Rectángulo_468452" data-name="Rectángulo 468452" width="719.167" height="612.11" rx="16" transform="translate(2615.833 -5613.165)" fill="#c0f6f2"/>
    <g id="Elipse_13757" data-name="Elipse 13757" transform="translate(2749.912 -5594.259)" fill="#c0f6f2" stroke="#0f654d" stroke-width="1" stroke-dasharray="3 3">
      <ellipse cx="122.231" cy="152.353" rx="122.231" ry="152.353" stroke="none"/>
      <ellipse cx="122.231" cy="152.353" rx="121.731" ry="151.853" fill="none"/>
    </g>
    <rect id="Rectángulo_468454" data-name="Rectángulo 468454" width="186" height="136" rx="19" transform="translate(2779.142 -5477.871)" fill="#19538d"/>
    <rect id="Rectángulo_468453" data-name="Rectángulo 468453" width="402.771" height="181.435" rx="19" transform="translate(2658.372 -5201.396)" fill="#ffeebc"/>
    <text id="Unidad_de_código_función_método_" data-name="Unidad de código
(función / método)
" transform="translate(2772.142 -5403.871)" fill="#fff" font-size="18" font-family="SegoeUI-Bold, Segoe UI" letter-spacing="0.003em" font-weight="700"><tspan x="24.736" y="19">Unidad de código</tspan><tspan font-family="SegoeUI, Segoe UI" font-weight="400"><tspan x="24.686" y="43">(función / método)</tspan></tspan></text>
    <text id="Dependencias_externas_no_utilizadas_en_la_prueba_" data-name="Dependencias externas
(no utilizadas en la prueba)

" transform="translate(2729.508 -5193.881)" fill="#12263f" font-size="16" font-family="SegoeUI-Bold, Segoe UI" font-weight="700" letter-spacing="0.003em"><tspan x="44.586" y="17">Dependencias externas</tspan><tspan font-family="SegoeUI, Segoe UI" font-weight="400"><tspan x="35.684" y="37">(no utilizadas en la prueba)</tspan></tspan></text>
    <text id="Aislamiento_" data-name="Aislamiento
" transform="translate(2806.142 -5574.714)" fill="#12263f" font-size="16" font-family="SegoeUI-Bold, Segoe UI" font-weight="700" letter-spacing="0.003em"><tspan x="21.062" y="17">Aislamiento</tspan></text>
    <text id="Entradas_de_prueba_" data-name="Entradas de prueba
" transform="translate(2615.833 -5582.859)" fill="#12263f" font-size="18" font-family="SegoeUI-Bold, Segoe UI" font-weight="700" letter-spacing="0.003em"><tspan x="16.315" y="19">Entradas de </tspan><tspan x="36.049" y="43">prueba</tspan></text>
    <text id="Servicio_API" data-name="Servicio / API" transform="translate(2792.2 -5073.926)" fill="#12263f" font-size="16" font-family="SegoeUI-Bold, Segoe UI" font-weight="700" letter-spacing="0.003em"><tspan x="16.405" y="17">Servicio / API</tspan></text>
    <text id="Base_de_datos_" data-name="Base de datos
" transform="translate(2658.372 -5075.066)" fill="#12263f" font-size="16" font-family="SegoeUI-Bold, Segoe UI" font-weight="700" letter-spacing="0.003em"><tspan x="15.664" y="17">Base de datos</tspan></text>
    <text id="Interfaz_de_usuario_" data-name="Interfaz de usuario

" transform="translate(2934.073 -5083.474)" fill="#12263f" font-size="16" font-family="SegoeUI-Bold, Segoe UI" font-weight="700" letter-spacing="0.003em"><tspan x="26.186" y="17">Interfaz de </tspan><tspan x="39.243" y="37">usuario</tspan></text>
    <rect id="Rectángulo_468457" data-name="Rectángulo 468457" width="81.833" height="71" rx="15" transform="translate(2639.476 -5528.578)" fill="#ffcc74"/>
    <rect id="Rectángulo_468458" data-name="Rectángulo 468458" width="81.833" height="71" rx="15" transform="translate(2639.476 -5443.906)" fill="#ffcc74"/>
    <rect id="Rectángulo_468459" data-name="Rectángulo 468459" width="81.833" height="71" rx="15" transform="translate(2639.476 -5359.371)" fill="#ffcc74"/>
    <text id="_123" data-name="123" transform="translate(2653.476 -5502.578)" fill="#12263f" font-size="18" font-family="SegoeUI, Segoe UI" letter-spacing="0.003em"><tspan x="-14.6" y="19">123</tspan></text>
    <text id="_texto_" data-name="*texto*" transform="translate(2644.476 -5418.906)" fill="#12263f" font-size="18" font-family="SegoeUI, Segoe UI" letter-spacing="0.003em"><tspan x="-27.851" y="19">*texto*</tspan></text>
    <text id="true" transform="translate(2644.476 -5333.371)" fill="#12263f" font-size="18" font-family="SegoeUI, Segoe UI" letter-spacing="0.003em"><tspan x="-16.046" y="19">true</tspan></text>
    <g id="Grupo_1214805" data-name="Grupo 1214805" transform="translate(2825.513 -5464.906)">
      <g id="Grupo_1214382" data-name="Grupo 1214382" transform="translate(15.63)" clip-path="url(#clip-path)">
        <path id="Trazado_1282773" data-name="Trazado 1282773" d="M5.007.049,55.779,0A5.989,5.989,0,0,1,61.26,5.711V45.8a6.031,6.031,0,0,1-5.306,5.538H5.306A6.031,6.031,0,0,1,0,45.8L.008,5.369a6.038,6.038,0,0,1,5-5.321M58.294,11.783V5.192c0-.863-1.612-2.243-2.523-2.2L4.908,3.113c-.7.19-1.944,1.363-1.944,2.079v6.591Zm0,2.988H2.964V46.146c0,.667,1.231,1.934,1.909,2.114l50.9.083a3.066,3.066,0,0,0,2.522-2.2Z" transform="translate(0 0.001)" fill="#f3f9ff"/>
        <path id="Trazado_1282774" data-name="Trazado 1282774" d="M726.466,431.234a1.571,1.571,0,0,1-.229,2.373c-3.46,1.675-7.24,5.553-10.631,7.011a1.457,1.457,0,1,1-1.343-2.586l8.432-5.716-8.817-5.942a1.483,1.483,0,0,1,1.843-2.3Z" transform="translate(-675.017 -400.758)" fill="#f3f9ff"/>
        <path id="Trazado_1282775" data-name="Trazado 1282775" d="M190.44,424.159a1.715,1.715,0,0,1-.21,2.06l-8.784,5.888,8.873,5.973a1.529,1.529,0,0,1-1.12,2.549,15.932,15.932,0,0,1-2.87-1.682,81.624,81.624,0,0,1-8.353-5.624c-1.124-.993-.859-1.714.175-2.607,2.876-2.482,7.262-4.375,10.268-6.851a1.589,1.589,0,0,1,2.019.294" transform="translate(-167.691 -400.549)" fill="#f3f9ff"/>
        <path id="Trazado_1282776" data-name="Trazado 1282776" d="M466.685,440.179a1.636,1.636,0,0,1-.082-1.827c1.966-4.561,5.759-9.235,7.891-13.823,1.161-1.933,3.537-.7,2.608,1.406-2.012,4.565-5.791,9.192-7.888,13.825a1.615,1.615,0,0,1-2.529.418" transform="translate(-441.223 -400.498)" fill="#f3f9ff"/>
        <rect id="Rectángulo_467389" data-name="Rectángulo 467389" width="5.742" height="5.097" transform="translate(40.547 4.753)" fill="#f3f9ff"/>
        <rect id="Rectángulo_467390" data-name="Rectángulo 467390" width="5.742" height="5.097" transform="translate(49.595 4.753)" fill="#f3f9ff"/>
      </g>
    </g>
    <g id="Grupo_1214808" data-name="Grupo 1214808" transform="translate(2690.915 -5147.422)">
      <g id="Grupo_1214768" data-name="Grupo 1214768" clip-path="url(#clip-path-2)">
        <path id="Trazado_1284138" data-name="Trazado 1284138" d="M49.936,50.856c-6.967,3.277-17.525,3.356-25.058,1.742-3.583-.918-8.589-2.408-8.817-6.213-4.523-.191-11.041-1.152-14.254-3.942-.8-.7-1.792-1.644-1.793-2.827L0,7.089C0,3.56,5.911,1.608,9.269.939a48.382,48.382,0,0,1,20.457.321c3.231.954,7.654,2.426,7.822,5.956,4.407.3,10.435,1.107,13.97,3.659.983.71,2.091,1.782,2.092,3.134l.018,32.374c0,2.073-1.859,3.611-3.692,4.473M28.466,7.565C30.938,7.231,33.3,7.2,35.794,7.1c-.522-2.265-4.2-3.5-6.543-4.1a45.132,45.132,0,0,0-22.08.312C5.1,3.931,1.826,5.317,1.791,7.144c-.033,1.707,3.068,3.076,5.034,3.713a38.235,38.235,0,0,0,9.78,1.611c2.315-3.192,7.914-4.37,11.861-4.9m20.091,9.8a8.466,8.466,0,0,0,2.685-1.74,1.818,1.818,0,0,0-.083-2.734,9.807,9.807,0,0,0-3.38-1.983C42.33,8.921,35.461,8.622,29.663,9.213c-3.57.364-8.715,1.38-11.161,3.72a1.821,1.821,0,0,0-.012,2.71c1.99,1.969,6.039,3,8.988,3.452,6.451.991,15.073.818,21.079-1.73m-32.469,5.8,0-8.933a39.346,39.346,0,0,1-9.972-1.735,16.479,16.479,0,0,1-4.319-2.148l.041,7.792c0,.773.948,1.469,1.528,1.843,3.407,2.2,8.587,2.914,12.726,3.181M51.81,25.493l.025-7.95a18.723,18.723,0,0,1-5.667,2.542A47.22,47.22,0,0,1,23.7,20.13a18.662,18.662,0,0,1-5.809-2.592l.044,7.865c0,.67.955,1.4,1.477,1.73a16.551,16.551,0,0,0,5.406,2.158,45.91,45.91,0,0,0,18.992.248c2.661-.514,6.822-1.748,8-4.045M16.087,33.847l0-8.906a39.148,39.148,0,0,1-9.589-1.6,17.518,17.518,0,0,1-4.7-2.272L1.83,28.9c0,.586.828,1.308,1.276,1.624,3.271,2.3,8.947,3.164,12.981,3.318m35.669,2.216c.156-2.714.062-5.2.071-7.811a16.371,16.371,0,0,1-4.954,2.338,41.146,41.146,0,0,1-11.992,1.562,41.04,41.04,0,0,1-12.114-1.589,16.683,16.683,0,0,1-4.9-2.3l.064,7.889A4.18,4.18,0,0,0,20.1,38.285c5.939,3.155,15.85,3.3,22.514,2.2A21.332,21.332,0,0,0,49.743,38.2c.724-.4,1.957-1.166,2.013-2.138M16.087,44.589l0-8.9C11.24,35.357,5.8,34.718,1.793,31.771l.016,8.015a4.874,4.874,0,0,0,1.869,1.861c3.495,2,8.393,2.769,12.409,2.943M51.8,46.725,51.832,39a17.642,17.642,0,0,1-5.36,2.437,46.27,46.27,0,0,1-23.071.044,17.258,17.258,0,0,1-5.521-2.5l.012,7.693c0,.577.664,1.273,1.117,1.614a13.343,13.343,0,0,0,4.406,2.074,45.183,45.183,0,0,0,21.846.285c2.191-.561,6.529-2.135,6.536-3.922" transform="translate(0 0)" fill="#161615"/>
        <path id="Trazado_1284139" data-name="Trazado 1284139" d="M129.743,148.789a4.016,4.016,0,0,1-1.506-.676.96.96,0,0,1-.11-1.082,1.081,1.081,0,0,1,1.035-.365l.974.4a1.065,1.065,0,0,1,.519,1.058.948.948,0,0,1-.912.663" transform="translate(-108.34 -124.101)" fill="#161615"/>
        <path id="Trazado_1284140" data-name="Trazado 1284140" d="M159.034,158.111l-1.22-.158a.93.93,0,0,1-.758-1.1.919.919,0,0,1,1.128-.677l.836.179a1.165,1.165,0,0,1,.724.794c.051.319-.395,1-.71.96" transform="translate(-132.908 -132.158)" fill="#161615"/>
        <path id="Trazado_1284141" data-name="Trazado 1284141" d="M24.858,102.162l-1.135-.514a.984.984,0,0,1-.347-1.144.969.969,0,0,1,1.153-.441l1.029.464a1.044,1.044,0,0,1,.394,1.027c-.123.378-.7.784-1.094.608" transform="translate(-19.728 -84.635)" fill="#161615"/>
        <path id="Trazado_1284142" data-name="Trazado 1284142" d="M54.582,110.239a.859.859,0,0,1,.135,1.33,1.885,1.885,0,0,1-2.375-.442.894.894,0,0,1,.416-1.135,2.541,2.541,0,0,1,1.825.246" transform="translate(-44.241 -93.026)" fill="#161615"/>
      </g>
    </g>
    <g id="Grupo_1214806" data-name="Grupo 1214806" transform="translate(2723.823 -5121.827)">
      <g id="Elipse_13752" data-name="Elipse 13752" fill="none" stroke="#ae0000" stroke-width="5">
        <circle cx="16.454" cy="16.454" r="16.454" stroke="none"/>
        <circle cx="16.454" cy="16.454" r="13.954" fill="none"/>
      </g>
      <path id="Trazado_1284143" data-name="Trazado 1284143" d="M2880-5320l20.052,20.052" transform="translate(-2873.549 5326.451)" fill="none" stroke="#ae0000" stroke-width="5"/>
    </g>
    <g id="Grupo_1214803" data-name="Grupo 1214803" transform="translate(2828.583 -5142.532)">
      <g id="Grupo_1214773" data-name="Grupo 1214773" clip-path="url(#clip-path-3)">
        <path id="Trazado_1284144" data-name="Trazado 1284144" d="M11.753,42.033C4.117,42.024-1.238,34.588.248,27.4A12.355,12.355,0,0,1,7.141,18.77a12.328,12.328,0,0,1,16.277-11.1A15.8,15.8,0,0,1,52.495,18.645a12.411,12.411,0,0,1,6.932,7.836,12.307,12.307,0,0,1-11.375,15.6Zm.519-3.42,35.262,0a8.846,8.846,0,0,0,8.782-7.691,8.535,8.535,0,0,0-4.764-8.787l-3.228-1.556A12.3,12.3,0,0,0,26.566,9.276c-.566.9-.976,1.876-1.482,2.886a13.537,13.537,0,0,0-5.507-1.625,8.861,8.861,0,0,0-8.81,10.581c-3.629,1.123-6.449,3.46-7.117,7.281a8.727,8.727,0,0,0,8.621,10.213" transform="translate(0 0)" fill="#161615"/>
      </g>
    </g>
    <g id="Grupo_1214804" data-name="Grupo 1214804" transform="translate(2865.696 -5126.946)">
      <g id="Elipse_13752-2" data-name="Elipse 13752" fill="none" stroke="#ae0000" stroke-width="5">
        <circle cx="16.454" cy="16.454" r="16.454" stroke="none"/>
        <circle cx="16.454" cy="16.454" r="13.954" fill="none"/>
      </g>
      <path id="Trazado_1284143-2" data-name="Trazado 1284143" d="M2880-5320l20.052,20.052" transform="translate(-2873.549 5326.451)" fill="none" stroke="#ae0000" stroke-width="5"/>
    </g>
    <g id="Grupo_1214801" data-name="Grupo 1214801" transform="translate(2972.345 -5142.933)">
      <g id="Grupo_1214776" data-name="Grupo 1214776" transform="translate(0 0)" clip-path="url(#clip-path-4)">
        <path id="Trazado_1284145" data-name="Trazado 1284145" d="M50.293,47.615l2.5-.024L52.783,35.7H28.522l0,11.91,18.231.005a.986.986,0,0,1,.58.9.9.9,0,0,1-.9.757l-17.722,0a1.9,1.9,0,0,1-1.886-1.81l-.035-1.906-2.457.007-.027,1.68a2.05,2.05,0,0,1-2.084,2.03l-16.57.007a2.128,2.128,0,0,1-2.274-2.2l-.024-1.523A2.911,2.911,0,0,1,.012,42.764L0,3A2.8,2.8,0,0,1,2.511.05C4.035-.025,5.545,0,7.106.029c.244,0,.551.494.571.721.023.26-.258.893-.537.9l-4.314.034A1.214,1.214,0,0,0,1.684,2.828v7.318H56.216l0-7.317a1.219,1.219,0,0,0-1.179-1.161H10.99A.832.832,0,0,1,10.1.916.8.8,0,0,1,10.988,0L55.216.011a2.8,2.8,0,0,1,2.677,2.824V42.6a2.942,2.942,0,0,1-3.359,2.951L54.492,47.4a1.976,1.976,0,0,1-2.051,1.877l-2.049-.01a.947.947,0,0,1-.814-.756.9.9,0,0,1,.716-.9M26.807,43.843V35.976a1.926,1.926,0,0,1,1.915-1.959H52.568A1.957,1.957,0,0,1,54.507,36l0,7.8a1.284,1.284,0,0,0,1.7-1.205l-.006-30.747H1.687L1.681,42.592A1.258,1.258,0,0,0,3.386,43.78l.007-28.141a2.105,2.105,0,0,1,2.1-1.99l16.567-.007a2.137,2.137,0,0,1,2.254,2l.007,28.17ZM22.6,15.4H5.105V47.615H22.6Z" transform="translate(0 0)" fill="#161615"/>
        <path id="Trazado_1284146" data-name="Trazado 1284146" d="M264.193,234.033l-5.683.022a1.421,1.421,0,0,1-1.5-1.475v-5.645a1.318,1.318,0,0,1,1.322-1.4h5.812a1.3,1.3,0,0,1,1.33,1.389v5.669a1.328,1.328,0,0,1-1.28,1.44m-.382-6.788h-5.129v5.065h5.129Z" transform="translate(-214.376 -188.124)" fill="#161615"/>
        <path id="Trazado_1284147" data-name="Trazado 1284147" d="M236.966,22.895a2.543,2.543,0,1,1-2.543-2.543,2.543,2.543,0,0,1,2.543,2.543m-1.705-.008a.84.84,0,1,0-.84.84.84.84,0,0,0,.84-.84" transform="translate(-193.417 -16.976)" fill="#161615"/>
        <path id="Trazado_1284148" data-name="Trazado 1284148" d="M194.362,22.868a2.54,2.54,0,1,1-2.54-2.54,2.54,2.54,0,0,1,2.54,2.54m-1.7.011a.841.841,0,1,0-.841.841.841.841,0,0,0,.841-.841" transform="translate(-157.884 -16.956)" fill="#161615"/>
        <path id="Trazado_1284149" data-name="Trazado 1284149" d="M279.586,22.884a2.543,2.543,0,1,1-2.543-2.543,2.543,2.543,0,0,1,2.543,2.543m-1.707,0a.842.842,0,1,0-.842.842.842.842,0,0,0,.842-.842" transform="translate(-228.968 -16.967)" fill="#161615"/>
        <path id="Trazado_1284150" data-name="Trazado 1284150" d="M196.9,268.067l-6.875.009a.99.99,0,0,1-.805-.888.9.9,0,0,1,.81-.857l6.776,0a1.071,1.071,0,0,1,.9.7.965.965,0,0,1-.8,1.043" transform="translate(-157.832 -222.15)" fill="#161615"/>
        <path id="Trazado_1284151" data-name="Trazado 1284151" d="M196.881,247.7l-6.665,0a.909.909,0,0,1-.937-.759.88.88,0,0,1,.938-.914l6.656,0a.892.892,0,0,1,.886.729.855.855,0,0,1-.879.939" transform="translate(-157.882 -205.22)" fill="#161615"/>
        <path id="Trazado_1284152" data-name="Trazado 1284152" d="M194.913,227.225l-4.9.013c-.419,0-.819-.586-.8-.906a.887.887,0,0,1,.941-.82l4.522,0a1,1,0,0,1,.99.66c.1.318-.252,1.055-.756,1.056" transform="translate(-157.829 -188.102)" fill="#161615"/>
        <path id="Trazado_1284153" data-name="Trazado 1284153" d="M53.686,234.046l-11.176,0a1.442,1.442,0,0,1-1.5-1.467l0-5.654a1.333,1.333,0,0,1,1.329-1.392l11.445,0a1.333,1.333,0,0,1,1.327,1.395v5.658a1.418,1.418,0,0,1-1.423,1.459m-.237-6.8H42.667v5.065H53.449Z" transform="translate(-34.204 -188.124)" fill="#161615"/>
        <path id="Trazado_1284154" data-name="Trazado 1284154" d="M56.973,134.157l-11.062,0a.847.847,0,1,1,.034-1.694H56.939a.89.89,0,0,1,.879.843.879.879,0,0,1-.846.849" transform="translate(-37.588 -110.492)" fill="#161615"/>
        <path id="Trazado_1284155" data-name="Trazado 1284155" d="M56.963,154.638l-11.116,0a1.008,1.008,0,0,1-.823-.8c-.029-.285.3-.9.668-.9l11.115-.013a.862.862,0,1,1,.156,1.715" transform="translate(-37.554 -127.557)" fill="#161615"/>
        <path id="Trazado_1284156" data-name="Trazado 1284156" d="M53.515,113.746l-7.655-.011a.948.948,0,0,1-.814-.806.91.91,0,0,1,.813-.9h7.817a.864.864,0,1,1-.162,1.717" transform="translate(-37.573 -93.446)" fill="#161615"/>
        <path id="Trazado_1284157" data-name="Trazado 1284157" d="M94.5,181.326H91.3a.945.945,0,0,1-.909-.787.873.873,0,0,1,.909-.912l3.028-.009a.905.905,0,0,1,1.009.8.921.921,0,0,1-.839.906" transform="translate(-75.398 -149.823)" fill="#161615"/>
        <path id="Trazado_1284158" data-name="Trazado 1284158" d="M187.185,100.607l-23.124,0c-1.044,0-2.366-.623-2.368-1.833l-.018-14.6a2.067,2.067,0,0,1,2.075-1.938l23.348-.006a2.137,2.137,0,0,1,2.26,1.988l.013,14.485a2.239,2.239,0,0,1-2.186,1.894m.465-16.64H163.375V98.924h24.275Z" transform="translate(-134.858 -68.597)" fill="#161615"/>
        <path id="Trazado_1284159" data-name="Trazado 1284159" d="M264.2,120.392l-5.995-.01a1.32,1.32,0,0,1-1.2-1.285L257,113.249c0-.5.4-1.309.988-1.309l6.487,0c.6,0,.992.812.992,1.312l-.006,5.841a1.287,1.287,0,0,1-1.265,1.3m-.392-6.79-5.133,0,0,5.118,5.133,0Z" transform="translate(-214.37 -93.369)" fill="#161615"/>
        <path id="Trazado_1284160" data-name="Trazado 1284160" d="M195.315,154.484l-6.885.022a1.155,1.155,0,0,1-.868-.606c-.116-.3.177-1.073.545-1.073l7.335-.014c.254,0,.589.528.607.773.021.277-.349.9-.735.9" transform="translate(-156.429 -127.465)" fill="#161615"/>
        <path id="Trazado_1284161" data-name="Trazado 1284161" d="M195.226,133.747l-6.838.012a.94.94,0,0,1-.892-.8.926.926,0,0,1,.758-.9h6.954a1.049,1.049,0,0,1,.794.765.9.9,0,0,1-.776.923" transform="translate(-156.392 -110.153)" fill="#161615"/>
        <path id="Trazado_1284162" data-name="Trazado 1284162" d="M193.088,113.563h-4.674a.994.994,0,0,1-.9-.754c-.04-.391.3-.929.713-.929l5.037,0c.429,0,.74.523.7.932a.95.95,0,0,1-.881.753" transform="translate(-156.412 -93.32)" fill="#161615"/>
      </g>
    </g>
    <g id="Grupo_1214798" data-name="Grupo 1214798" transform="translate(3007.569 -5154.735)">
      <g id="Elipse_13752-3" data-name="Elipse 13752" fill="none" stroke="#ae0000" stroke-width="5">
        <circle cx="16.454" cy="16.454" r="16.454" stroke="none"/>
        <circle cx="16.454" cy="16.454" r="13.954" fill="none"/>
      </g>
      <path id="Trazado_1284143-3" data-name="Trazado 1284143" d="M2880-5320l20.052,20.052" transform="translate(-2873.549 5326.451)" fill="none" stroke="#ae0000" stroke-width="5"/>
    </g>
    <g id="Grupo_1214807" data-name="Grupo 1214807" transform="translate(2849.642 -5544.456)">
      <g id="Grupo_1214779" data-name="Grupo 1214779" clip-path="url(#clip-path-5)">
        <path id="Trazado_1284163" data-name="Trazado 1284163" d="M29.652,52.147l-24.928,0A4.613,4.613,0,0,1,.013,47.61L0,23.562a4.581,4.581,0,0,1,3.738-4.5,12.507,12.507,0,0,1,2.176-.074L5.92,16.7a16.575,16.575,0,0,1,33.149-.321l.026,2.59a13.529,13.529,0,0,1,2.166.084,4.58,4.58,0,0,1,3.74,4.5l-.011,24.043a4.608,4.608,0,0,1-4.69,4.531Zm2.286-36.2.039,3.03,4.762,0-.053-3.221A14.209,14.209,0,0,0,8.306,15.9l-.046,3.081,4.763,0c.009-1.055-.023-2.014.037-3.029a9.459,9.459,0,0,1,18.877,0M29.571,18.98l.031-2.135a7.174,7.174,0,0,0-6.619-7.34,7.044,7.044,0,0,0-7.529,6.37c-.089,1.035-.036,2.046-.035,3.1ZM40.7,49.758a2.352,2.352,0,0,0,1.935-2.134l.005-24.081a2.242,2.242,0,0,0-2.2-2.229L4.428,21.309a2.29,2.29,0,0,0-2.072,2.239l-.008,23.76a2.3,2.3,0,0,0,2.177,2.443Z" transform="translate(0 0)" fill="#19538d"/>
        <path id="Trazado_1284164" data-name="Trazado 1284164" d="M111.164,175.715A3.439,3.439,0,0,1,107.653,179a3.478,3.478,0,0,1-3.52-3.373l-.017-4.906a5.92,5.92,0,1,1,7.105-.032Zm-2.326-.348,0-5.315a1.424,1.424,0,0,1,.729-1.1,3.536,3.536,0,0,0,.707-5.39,3.583,3.583,0,0,0-5.3.087,3.528,3.528,0,0,0,.791,5.3,1.456,1.456,0,0,1,.714,1.1v5.39a1.167,1.167,0,0,0,1.172,1.186,1.185,1.185,0,0,0,1.187-1.26" transform="translate(-85.157 -133.996)" fill="#19538d"/>
      </g>
    </g>
    <path id="Trazado_1284199" data-name="Trazado 1284199" d="M3041.333-5614.172h15.943v40.838h30.557" transform="translate(-318.461 121.094)" fill="none" stroke="#448573" stroke-width="3" stroke-dasharray="3 3"/>
    <path id="Trazado_1284200" data-name="Trazado 1284200" d="M3041.333-5573.334h15.943v-40.838h30.557" transform="translate(-318.461 250.963)" fill="none" stroke="#448573" stroke-width="3" stroke-dasharray="3 3"/>
    <path id="Trazado_1284195" data-name="Trazado 1284195" d="M0,0H99.269" transform="translate(2871.642 -5300.665) rotate(90)" fill="none" stroke="#0f654d" stroke-linecap="round" stroke-linejoin="round" stroke-width="2" stroke-dasharray="2 3"/>
    <path id="Trazado_1284201" data-name="Trazado 1284201" d="M0,0H28.166" transform="translate(2750.706 -5408.406) rotate(180)" fill="none" stroke="#0f654d" stroke-linecap="round" stroke-linejoin="round" stroke-width="2" stroke-dasharray="2 3"/>
    <path id="Trazado_1284196" data-name="Trazado 1284196" d="M0,0H29.293" transform="translate(2999.52 -5410.406) rotate(180)" fill="none" stroke="#19538d" stroke-linecap="round" stroke-linejoin="round" stroke-width="2"/>
    <path id="Trazado_1284197" data-name="Trazado 1284197" d="M0,0H17.667" transform="translate(3108.57 -5410.406) rotate(180)" fill="none" stroke="#19538d" stroke-linecap="round" stroke-linejoin="round" stroke-width="2"/>
    <path id="Trazado_1284198" data-name="Trazado 1284198" d="M0,0H11.54" transform="translate(3221.277 -5410.406)" fill="none" stroke="#19538d" stroke-linecap="round" stroke-linejoin="round" stroke-width="2"/>
    <path id="Unión_81" data-name="Unión 81" d="M9.5,11.206,0,0H19Z" transform="translate(2881.143 -5300.665) rotate(180)" fill="#0f654d"/>
    <path id="Unión_85" data-name="Unión 85" d="M9.5,11.206,0,0H19Z" transform="translate(2767.769 -5441.882) rotate(-90)" fill="#0f654d"/>
    <path id="Unión_86" data-name="Unión 86" d="M9.5,0,0,11.206H19Z" transform="translate(2778.975 -5373.567) rotate(90)" fill="#0f654d"/>
    <path id="Unión_87" data-name="Unión 87" d="M9.5,11.206,0,0H19Z" transform="translate(2747.833 -5398.905) rotate(-90)" fill="#0f654d"/>
    <path id="Unión_82" data-name="Unión 82" d="M9.5,11.206,0,0H19Z" transform="translate(2999.52 -5400.905) rotate(-90)" fill="#19538d"/>
    <path id="Unión_83" data-name="Unión 83" d="M9.5,11.206,0,0H19Z" transform="translate(3102.967 -5400.905) rotate(-90)" fill="#19538d"/>
    <path id="Unión_84" data-name="Unión 84" d="M9.5,0,0,11.206H19Z" transform="translate(3210.071 -5400.905) rotate(-90)" fill="#19538d"/>
    <path id="Unión_79" data-name="Unión 79" d="M9.5,0,0,11.206H19Z" transform="translate(3219.571 -5264.804) rotate(180)" fill="#19538d"/>
    <path id="Unión_80" data-name="Unión 80" d="M9.5,0,0,11.206H19Z" transform="translate(3125.823 -5264.804) rotate(180)" fill="#19538d"/>
    <g id="Rectángulo_468455" data-name="Rectángulo 468455" transform="matrix(1, -0.017, 0.017, 1, 3009.766, -5464.929)" fill="#fff" stroke="#19538d" stroke-width="2">
      <rect width="87.789" height="111" rx="15" stroke="none"/>
      <rect x="1" y="1" width="85.789" height="109" rx="14" fill="none"/>
    </g>
    <g id="Rectángulo_468456" data-name="Rectángulo 468456" transform="translate(3227.34 -5465.906)" fill="#fff" stroke="#19538d" stroke-width="2">
      <rect width="95" height="111" rx="15" stroke="none"/>
      <rect x="1" y="1" width="93" height="109" rx="14" fill="none"/>
    </g>
    <text id="Resultado_obtenido_" data-name="Resultado obtenido
" transform="translate(3009.52 -5453.095)" fill="#12263f" font-size="16" font-family="SegoeUI-Bold, Segoe UI" font-weight="700" letter-spacing="0.003em"><tspan x="7.094" y="17">Resultado </tspan><tspan x="10.141" y="41">obtenido</tspan></text>
    <text id="Comparación_" data-name="Comparación
" transform="translate(3094.49 -5505.19)" fill="#12263f" font-size="16" font-family="SegoeUI-Bold, Segoe UI" font-weight="700" letter-spacing="0.003em"><tspan x="21.28" y="17">Comparación</tspan><tspan font-family="Roboto-Bold, Roboto"><tspan x="71.207" y="41"></tspan></tspan></text>
    <text id="Resultado_esperado_" data-name="Resultado esperado
" transform="translate(3233.34 -5453.095)" fill="#12263f" font-size="16" font-family="SegoeUI-Bold, Segoe UI" font-weight="700" letter-spacing="0.003em"><tspan x="7.094" y="17">Resultado </tspan><tspan x="9.891" y="41">esperado</tspan></text>
    <g id="Elipse_13758" data-name="Elipse 13758" transform="translate(3113.903 -5457.906)" fill="#fff" stroke="#19538d" stroke-width="2">
      <circle cx="48" cy="48" r="48" stroke="none"/>
      <circle cx="48" cy="48" r="47" fill="none"/>
    </g>
    <text id="_" data-name="= / ≠" transform="translate(3117.903 -5428.188)" fill="#12263f" font-size="28" font-family="SegoeUIBlack, Segoe UI" letter-spacing="0.003em"><tspan x="9.818" y="30">= / ≠</tspan></text>
    <path id="Trazado_1284192" data-name="Trazado 1284192" d="M3447.127-5427.465v58.131h-44.46v30.667" transform="translate(-284.763 63.398)" fill="none" stroke="#19538d" stroke-width="2"/>
    <path id="Trazado_1284193" data-name="Trazado 1284193" d="M3402.667-5427.465v58.131h47.54v30.667" transform="translate(-240.303 63.398)" fill="none" stroke="#19538d" stroke-width="2"/>
    <g id="Grupo_1214799" data-name="Grupo 1214799" transform="translate(3182.903 -5255.602)">
      <g id="Grupo_1214781" data-name="Grupo 1214781" clip-path="url(#clip-path-6)">
        <path id="Trazado_1284174" data-name="Trazado 1284174" d="M54,27.167A27,27,0,1,1,27,0,27.084,27.084,0,0,1,54,27.167m-7.713-.006a19.282,19.282,0,1,0-19.282,19.4,19.342,19.342,0,0,0,19.282-19.4" fill="#ae0000"/>
        <path id="Trazado_1284175" data-name="Trazado 1284175" d="M60.4,41.2A19.282,19.282,0,1,1,41.119,21.8,19.342,19.342,0,0,1,60.4,41.2M50.811,45.5l-4.2-4.284,4.281-4.378a3.822,3.822,0,0,0-.2-5.448,3.78,3.78,0,0,0-5.228-.012l-4.345,4.3-4.362-4.307a3.761,3.761,0,0,0-5.4.2,3.864,3.864,0,0,0-.026,5.253l4.284,4.389L31.327,45.6a3.869,3.869,0,0,0,.213,5.432,3.8,3.8,0,0,0,5.215.026l4.366-4.313,4.351,4.312a3.856,3.856,0,0,0,5.34-5.559" transform="translate(-14.113 -14.044)" fill="#fff"/>
        <path id="Trazado_1284176" data-name="Trazado 1284176" d="M66.3,60.913a3.856,3.856,0,0,1-5.34,5.559L56.6,62.16l-4.366,4.313a3.8,3.8,0,0,1-5.215-.026,3.869,3.869,0,0,1-.213-5.432L51.1,56.633l-4.284-4.389a3.864,3.864,0,0,1,.026-5.253,3.761,3.761,0,0,1,5.4-.2L56.6,51.093l4.345-4.3a3.78,3.78,0,0,1,5.228.012,3.822,3.822,0,0,1,.2,5.448l-4.281,4.378Z" transform="translate(-29.597 -29.461)" fill="#ae0000"/>
      </g>
    </g>
    <g id="Grupo_1214800" data-name="Grupo 1214800" transform="translate(3090.903 -5255.396)">
      <g id="Grupo_1214783" data-name="Grupo 1214783" clip-path="url(#clip-path-7)">
        <path id="Trazado_1284177" data-name="Trazado 1284177" d="M49.23,24.615A24.615,24.615,0,1,1,24.615,0,24.615,24.615,0,0,1,49.23,24.615m-7.031,0A17.579,17.579,0,1,0,24.62,42.2,17.579,17.579,0,0,0,42.2,24.62" transform="translate(0 0)" fill="#0f654d"/>
        <path id="Trazado_1284178" data-name="Trazado 1284178" d="M56.993,39.413A17.579,17.579,0,1,1,39.414,21.834,17.579,17.579,0,0,1,56.993,39.413M27.433,41.86,34,48.4a3.376,3.376,0,0,0,4.51.05L51.536,35.441a3.529,3.529,0,1,0-5.288-4.675L36.3,40.742l-4.026-3.894a3.543,3.543,0,0,0-4.973.239,3.472,3.472,0,0,0,.134,4.773" transform="translate(-14.794 -14.794)" fill="#fff"/>
        <path id="Trazado_1284179" data-name="Trazado 1284179" d="M37.053,58.1a3.472,3.472,0,0,1-.134-4.773,3.543,3.543,0,0,1,4.973-.239l4.026,3.894,9.951-9.976a3.529,3.529,0,1,1,5.288,4.675L48.128,64.693a3.376,3.376,0,0,1-4.51-.05Z" transform="translate(-24.415 -31.033)" fill="#0f654d"/>
      </g>
    </g>
    <path id="Trazado_1284194" data-name="Trazado 1284194" d="M37.152,59.291A3.808,3.808,0,0,1,37,54.055a3.886,3.886,0,0,1,5.455-.262l4.416,4.272L57.79,47.122a3.871,3.871,0,1,1,5.8,5.128L49.3,66.523a3.7,3.7,0,0,1-4.947-.054Z" transform="translate(3224.536 -5442.708)" fill="#0f654d"/>
    <g id="Grupo_1214802" data-name="Grupo 1214802" transform="translate(3033.064 -5400.905)">
      <g id="Grupo_1214785" data-name="Grupo 1214785" clip-path="url(#clip-path-8)">
        <path id="Trazado_1284181" data-name="Trazado 1284181" d="M20.445,35.491H15.052a1.056,1.056,0,0,1-1.107-1.024l-.036-1.618a16.168,16.168,0,0,1-4.146-1.7L8.585,32.277a1,1,0,0,1-1.344.034L3.176,28.247a1.017,1.017,0,0,1,.077-1.4l1.09-1.13a16.145,16.145,0,0,1-1.72-4.162H1.1a1.076,1.076,0,0,1-1.09-.93L0,14.935a1.029,1.029,0,0,1,.913-.992l1.691-.01a16.706,16.706,0,0,1,1.74-4.176L3.256,8.625a1.018,1.018,0,0,1-.08-1.4L7.24,3.163a1.024,1.024,0,0,1,1.4.079L9.767,4.329a16.084,16.084,0,0,1,4.164-1.715V1.088A1.052,1.052,0,0,1,14.859,0H20.64a1.055,1.055,0,0,1,.928,1.086l-.013,1.5a16.874,16.874,0,0,1,4.176,1.743l1.127-1.084a1.027,1.027,0,0,1,1.456-.036l4.01,4.015a1.02,1.02,0,0,1-.08,1.4L31.156,9.754a15.906,15.906,0,0,1,1.721,4.169l1.6.011a1.046,1.046,0,0,1,1.019,1.1l-.007,5.494a1.065,1.065,0,0,1-1.107,1.023l-1.525.023a15.609,15.609,0,0,1-1.706,4.143l1.045,1.07a1.042,1.042,0,0,1,.12,1.454l-3.953,3.965a1.033,1.033,0,0,1-1.515.013l-1.116-1.08a16.385,16.385,0,0,1-4.169,1.727v1.5a1.081,1.081,0,0,1-1.122,1.123m8.046-17.753A10.742,10.742,0,1,0,17.75,28.479,10.742,10.742,0,0,0,28.491,17.738" transform="translate(0 -0.001)" fill="#68c6ea"/>
      </g>
    </g>
  </g>
</svg>
