<svg xmlns="http://www.w3.org/2000/svg" xmlns:xlink="http://www.w3.org/1999/xlink" width="85" height="85" viewBox="0 0 85 85">
  <defs>
    <clipPath id="clip-path">
      <rect id="Rectángulo_467139" data-name="Rectángulo 467139" width="66.666" height="62.113" fill="#12263f"/>
    </clipPath>
  </defs>
  <g id="Grupo_1180314" data-name="Grupo 1180314" transform="translate(-705.629 -410)">
    <g id="Grupo_1180019" data-name="Grupo 1180019">
      <g id="Grupo_1180023" data-name="Grupo 1180023">
        <rect id="Rectángulo_456333" data-name="Rectángulo 456333" width="85" height="85" rx="10" transform="translate(705.629 410)" fill="#68eae0"/>
        <g id="Grupo_1180997" data-name="Grupo 1180997" transform="translate(714.796 419.025)">
          <g id="Grupo_1180996" data-name="Grupo 1180996" clip-path="url(#clip-path)">
            <path id="Trazado_1033190" data-name="Trazado 1033190" d="M22.047,51.487a15.705,15.705,0,0,1-2.55,2.5c-.577.4-1.491-.068-2.012-.492a8.086,8.086,0,0,0-2.24,1.008c-.411.33-.411,1.571-1.014,1.726a8.94,8.94,0,0,1-3.9.023c-.747-.155-.755-1.3-1.074-1.718L7.124,53.471c-.552.268-1.494.983-2.119.574a11.456,11.456,0,0,1-2.684-2.666c-.566-.762,1.392-1.756-.443-4.188-.391-.434-1.737-.342-1.766-1.165L0,42.895a1.256,1.256,0,0,1,1-1.359c.878-.173,1.137-.655,1.43-1.4s.552-1.3,0-2.059a1.193,1.193,0,0,1,.094-1.467l2.166-2.165a1.336,1.336,0,0,1,1.5-.112L6.278,15.8a4.932,4.932,0,0,1,4.945-4.615l30.944-.032c.051-1.88,1.833-1.491,2.074-2.066L45.113,7c-.325-.5-.948-1.479-.493-2.056a14.692,14.692,0,0,1,2.6-2.585c.564-.427,1.532.244,2.071.507a9.188,9.188,0,0,0,2.063-.913L52.313.143a13.553,13.553,0,0,1,4.161.043c.65.162.647,1.263.941,1.642a4.824,4.824,0,0,0,2.223.951c.5.066,1.333-.946,2.037-.452A10.042,10.042,0,0,1,64.4,5.105c.37.624-.515,1.415-.468,1.87a4.467,4.467,0,0,0,.855,2.213c.312.421,1.745.323,1.771,1.121l.106,3.336a1.245,1.245,0,0,1-1.083,1.25c-.864.132-1.031.646-1.316,1.324-.308.733-.588,1.286-.02,2.055.186.252.368.944.1,1.225l-2.326,2.444V44.614a5.17,5.17,0,0,1-5.041,5.321l-13.349.043-.006,4.34,5.582.067a4.187,4.187,0,0,1,4.048,2.954,14.356,14.356,0,0,1,.11,3.829,1.027,1.027,0,0,1-1.132.946H15.95c-.487,0-1.069-.275-1.081-.755a16.113,16.113,0,0,1,.077-4.013A4.057,4.057,0,0,1,18.8,54.4l5.761-.094.007-4.332-2.612,0c.134.442.433,1.137.094,1.517M55.3,22.026c.3-.534.373-1.255.9-1.431,2.445-.819,3.192-1.884,4.72-.732a3.83,3.83,0,0,0,1.2-1.2c-.275-.45-.778-1.17-.532-1.686.487-1.027.892-2,1.267-3.042.21-.584,1.053-.594,1.456-.9a1.278,1.278,0,0,0-.049-1.653c-.493-.274-1.289-.31-1.467-.938a26.761,26.761,0,0,0-1.238-3.044c-.222-.528.4-1.118.48-1.585.064-.4-.725-1.182-1.141-1.116-.622.1-1.246.718-1.921.329a14.205,14.205,0,0,0-2.748-1.136c-.625-.2-.612-1.019-.923-1.456a1.324,1.324,0,0,0-1.7.03c-.263.462-.279,1.182-.822,1.378A24.909,24.909,0,0,0,49.86,5.054c-.61.311-1.2-.224-1.783-.355-.421-.095-1.244.718-1.146,1.154.126.56.688,1.136.374,1.743A20.919,20.919,0,0,0,46.093,10.5c-.219.645-1.168.618-1.569.957a1.583,1.583,0,0,0,.018,1.559c.46.321,1.373.3,1.58.972a20.51,20.51,0,0,0,1.195,2.917c.3.6-.3,1.2-.389,1.728-.074.466.718,1.236,1.152,1.14.543-.12,1.147-.709,1.719-.411a25.145,25.145,0,0,0,3.052,1.275c.469.173.479,1.154.839,1.486.294.272,1.379.307,1.607-.1M9.658,16.142a1.5,1.5,0,0,1,1.466-1.519L42.545,14.6A13.023,13.023,0,0,0,42.1,13.3l-30.648,0a3.011,3.011,0,0,0-3.106,3.151l.021,17.8A1.507,1.507,0,0,0,9.61,32.726ZM56.431,40.834l-.015-16.405-3.886-.043a2.986,2.986,0,0,1-1-1.871,7.483,7.483,0,0,0-2.3-.83c-.526,0-1.346.939-2.012.441a15.98,15.98,0,0,1-2.595-2.551c-.631-.76,1.2-2.814.008-2.814l-32.853,0,.011,15.181a9.7,9.7,0,0,1,2.487.137c.592.376.533,1.321,1.02,1.758a3.974,3.974,0,0,0,2.147.855c.524.034,1.359-.91,2-.439A11.463,11.463,0,0,1,22.1,36.911c.389.587-.246,1.52-.518,2a8.44,8.44,0,0,0,.8,1.938ZM22.4,47.821H56.536a3.138,3.138,0,0,0,3.333-3.22l-.016-22.96c-.4-.126-1.188.16-1.257.478l-.022,19.7A1.128,1.128,0,0,1,57.488,43L24.5,43.012l-.137,2.974c-.043.931-2.434.794-1.964,1.835m-9.36,6.167c.309-.661.431-1.326,1.042-1.528a15.035,15.035,0,0,0,2.573-1.08c.672-.371,1.253.109,1.917.29.416.114,1.271-.735,1.167-1.144-.15-.586-.659-1.173-.356-1.78A18.575,18.575,0,0,0,20.532,46c.218-.7,1.042-.705,1.557-1.045a1.289,1.289,0,0,0-.067-1.652c-.517-.278-1.281-.318-1.474-.929a22.243,22.243,0,0,0-1.193-2.945c-.281-.586.373-1.212.4-1.689a1.237,1.237,0,0,0-1.212-1.087c-.525.111-1.135.634-1.682.355a18.894,18.894,0,0,0-2.888-1.192c-.616-.2-.629-1-.92-1.466a1.319,1.319,0,0,0-1.638-.074c-.326.371-.345,1.191-.729,1.437a17.394,17.394,0,0,0-2.877,1.214c-.684.418-1.324-.147-2.011-.285-.4-.08-1.151.68-1.165,1.051,1.11,1.744-.026,2.264-.782,4.768-.181.6-1.063.573-1.477.868a1.343,1.343,0,0,0,.006,1.659c.469.285,1.314.314,1.486.912a26.213,26.213,0,0,0,1.249,3.055c.247.578-.475,1.231-.476,1.708.008.38.755,1.1,1.137,1.028.61-.114,1.26-.708,1.894-.344a17.984,17.984,0,0,0,2.9,1.2c.578.211.538,1.124.838,1.5.258.327,1.452.305,1.626-.067m28.411.339,0-4.362-14.711-.01.035,4.4Zm9.722,5.628a3.78,3.78,0,0,0-.111-2.352,2.36,2.36,0,0,0-2.1-1.09L19.407,56.5a2.529,2.529,0,0,0-2.273,1.114,4.381,4.381,0,0,0-.1,2.342Z" transform="translate(0 0)" fill="#12263f"/>
            <path id="Trazado_1033191" data-name="Trazado 1033191" d="M109.984,116.345a1.068,1.068,0,0,1,.034,1.439,1.107,1.107,0,0,1-1.488.126l-5.6-4.711a1.246,1.246,0,0,1-.577-.982,1.268,1.268,0,0,1,.548-1l5.739-4.776a1.078,1.078,0,0,1,1.475.3,1.158,1.158,0,0,1-.316,1.5l-4.709,3.968Z" transform="translate(-80.348 -83.406)" fill="#12263f"/>
            <path id="Trazado_1033192" data-name="Trazado 1033192" d="M179.8,117.753a1.085,1.085,0,0,1-1.631-.214,1.142,1.142,0,0,1,.385-1.561l4.634-3.874-4.716-4a1.129,1.129,0,0,1-.395-1.312c.12-.4.919-.954,1.426-.536l5.745,4.724a1.522,1.522,0,0,1,.663,1.12c.007.477-.3.771-.688,1.1Z" transform="translate(-139.72 -83.291)" fill="#12263f"/>
            <path id="Trazado_1033193" data-name="Trazado 1033193" d="M147.472,112.822a1.025,1.025,0,0,1-1.36.732,1.1,1.1,0,0,1-.718-1.208l3.515-13.2a1.089,1.089,0,0,1,1.414-.835,1.073,1.073,0,0,1,.671,1.4Z" transform="translate(-114.108 -77.134)" fill="#12263f"/>
            <path id="Trazado_1033194" data-name="Trazado 1033194" d="M226.985,25.494A6.784,6.784,0,1,1,222,33.867a6.733,6.733,0,0,1,4.989-8.373m.422,2.123a4.626,4.626,0,1,0,2.282,8.966A4.656,4.656,0,0,0,233.036,31a4.565,4.565,0,0,0-5.629-3.378" transform="translate(-174.075 -19.864)" fill="#12263f"/>
            <path id="Trazado_1033195" data-name="Trazado 1033195" d="M31.245,173.868a6.785,6.785,0,1,1-5.9,7.651,6.751,6.751,0,0,1,5.9-7.651m.221,2.144a4.629,4.629,0,1,0,5.173,3.891,4.625,4.625,0,0,0-5.173-3.891" transform="translate(-19.844 -136.441)" fill="#12263f"/>
          </g>
        </g>
      </g>
    </g>
  </g>
</svg>
