<svg xmlns="http://www.w3.org/2000/svg" xmlns:xlink="http://www.w3.org/1999/xlink" width="69.323" height="69.323" viewBox="0 0 69.323 69.323">
  <defs>
    <clipPath id="clip-path">
      <rect id="Rectangle_468192" data-name="Rectangle 468192" width="52" height="49.109" fill="#fff"/>
    </clipPath>
  </defs>
  <g id="img15" transform="translate(-1228 -3064)">
    <rect id="img15-2" data-name="img15" width="69.323" height="69.323" transform="translate(1228 3064)" fill="#19538d"/>
    <g id="Group_1214696" data-name="Group 1214696" transform="translate(1237 3074)">
      <g id="Group_1214695" data-name="Group 1214695" clip-path="url(#clip-path)">
        <path id="Path_1283440" data-name="Path 1283440" d="M41.7,49.042a17.531,17.531,0,0,1-2.9.013l-.751-2.126a23.14,23.14,0,0,1-3.025-1.271l-2.1.981-1.5-1.405a.984.984,0,0,1-.2-1.319l.67-1.392a18.378,18.378,0,0,1-1.232-2.984l-1.4-.5c-.452-.161-.739-.313-.851-.856H13.468a1.914,1.914,0,0,1-2.015,1,1.972,1.972,0,0,1-1.506-1.491A1.915,1.915,0,0,1,10.953,35.6l0-11.967a1.012,1.012,0,0,1-.85-.78l-.547-1.5a17.688,17.688,0,0,1-2.891-1.217c-.768.094-1.388.789-2.275.909L2.466,19.1l.977-2.086A19.636,19.636,0,0,1,2.219,14L.049,13.2a17.647,17.647,0,0,1,.02-2.878L2.2,9.573a17.8,17.8,0,0,1,1.241-3.03L2.464,4.468l2-2.031L6.55,3.43a21.965,21.965,0,0,1,3-1.227L10.163.5c.047-.131.31-.5.452-.5L13.2.017l.773,2.144A22.62,22.62,0,0,1,17,3.434l2.1-1,1.6,1.509A.964.964,0,0,1,20.9,4.952l-.781,1.607a17.106,17.106,0,0,1,1.235,2.989l1.52.538a.969.969,0,0,1,.728.831l14.894,0a2.029,2.029,0,0,1,2.069-1.009,1.925,1.925,0,0,1,1.527,1.6,2,2,0,0,1-1.035,2l0,11.922a1.083,1.083,0,0,1,.86.8l.554,1.511A14.038,14.038,0,0,1,45.4,28.986l2.161-.992,1.924,1.91c-.1,1.007-1.068,1.825-.814,2.362a21.31,21.31,0,0,1,1.13,2.821l2.18.8L52,38.735l-2.182.788a18.782,18.782,0,0,1-1.237,3.017l.977,2.075-2,2.023-2.14-.986a16.455,16.455,0,0,1-2.994,1.258ZM17.359,11.771a5.571,5.571,0,1,0-5.571,5.571,5.571,5.571,0,0,0,5.571-5.571m11,24.7a1.116,1.116,0,0,1,.824-.85l1.485-.553a19.16,19.16,0,0,1,1.213-2.992l-.969-2.084,2.013-2,2.081,1a17.53,17.53,0,0,1,3.016-1.256l.692-1.972.683-.383,0-11.792-.942-.928-14.839.013-.252.6L21.354,14a20.55,20.55,0,0,1-1.215,3.011l.968,2.084L19.093,21.1l-2.079-.993A18.75,18.75,0,0,1,14,21.363l-.729,2.019-.65.332V35.5l.958.968Zm17.442.845a5.57,5.57,0,1,0-5.57,5.57,5.57,5.57,0,0,0,5.57-5.57" transform="translate(0 0)" fill="#fff"/>
        <path id="Path_1283441" data-name="Path 1283441" d="M251.535,228.06a3.894,3.894,0,1,1-3.894-3.894,3.894,3.894,0,0,1,3.894,3.894" transform="translate(-207.406 -190.745)" fill="#fff"/>
        <path id="Path_1283442" data-name="Path 1283442" d="M60.726,56.745a3.9,3.9,0,1,1-3.9-3.9,3.9,3.9,0,0,1,3.9,3.9" transform="translate(-45.042 -44.97)" fill="#fff"/>
      </g>
    </g>
  </g>
</svg>
