<svg xmlns="http://www.w3.org/2000/svg" xmlns:xlink="http://www.w3.org/1999/xlink" width="96" height="96" viewBox="0 0 96 96">
  <defs>
    <clipPath id="clip-path">
      <rect id="Rectángulo_456267" data-name="Rectángulo 456267" width="96" height="96" fill="none"/>
    </clipPath>
    <clipPath id="clip-path-2">
      <rect id="Rectángulo_468177" data-name="Rectángulo 468177" width="51.753" height="51.616" fill="#0f654d"/>
    </clipPath>
  </defs>
  <g id="Grupo_1179918" data-name="Grupo 1179918" transform="translate(479.746 8495) rotate(180)">
    <path id="Trazado_999622" data-name="Trazado 999622" d="M43.07,0A43.07,43.07,0,1,1,0,43.07,43.071,43.071,0,0,1,43.07,0" transform="translate(388.676 8403.93)" fill="#e3fbf9"/>
    <g id="Grupo_1179902" data-name="Grupo 1179902" transform="translate(383.746 8399)">
      <g id="Grupo_1179905" data-name="Grupo 1179905" clip-path="url(#clip-path)">
        <path id="Trazado_999618" data-name="Trazado 999618" d="M48,0A48,48,0,1,1,0,48,48,48,0,0,1,48,0" fill="none"/>
        <path id="Trazado_999619" data-name="Trazado 999619" d="M3.75,59A3.75,3.75,0,1,1,0,62.75,3.75,3.75,0,0,1,3.75,59" transform="translate(0 -14.75)" fill="#0f654d"/>
        <path id="Trazado_999620" data-name="Trazado 999620" d="M19.75,19A3.75,3.75,0,1,1,16,22.75,3.75,3.75,0,0,1,19.75,19" transform="translate(-4 -4.75)" fill="#0f654d"/>
        <path id="Trazado_999621" data-name="Trazado 999621" d="M49,94A45.051,45.051,0,0,1,4,49H6.25A42.75,42.75,0,1,0,17.806,19.768l-1.641-1.539A45,45,0,1,1,49,94" transform="translate(-1 -1)" fill="#0f654d"/>
        <rect id="Rectángulo_456268" data-name="Rectángulo 456268" width="96" height="96" fill="none"/>
        <rect id="Rectángulo_456269" data-name="Rectángulo 456269" width="96" height="96" fill="none"/>
      </g>
    </g>
    <g id="Grupo_1179903" data-name="Grupo 1179903" transform="translate(458.745 8474.508) rotate(180)">
      <g id="Grupo_1099618" data-name="Grupo 1099618" transform="translate(-0.247 -0.32)">
        <rect id="Rectángulo_401104" data-name="Rectángulo 401104" width="54.153" height="54.806" transform="translate(0)" fill="none"/>
      </g>
      <g id="Grupo_1214683" data-name="Grupo 1214683" transform="translate(0.753 1.68)">
        <g id="Grupo_1214682" data-name="Grupo 1214682" clip-path="url(#clip-path-2)">
          <path id="Trazado_1283352" data-name="Trazado 1283352" d="M18.065,45.989l0-2.713-7.247,0a.85.85,0,0,1-.779-.658.743.743,0,0,1,.64-.829l16.318,0,.042-2.05c.02-.951.863-1.466,2.056-1.382l-.044-1.271H1.5l.019,2.945a1.825,1.825,0,0,0,1.788,1.726l2.79.036a.77.77,0,0,1,.84.693.828.828,0,0,1-.712.786l-2.954-.02A3.306,3.306,0,0,1,0,39.869L0,3.27A3.239,3.239,0,0,1,2.986,0H48.77a3.237,3.237,0,0,1,2.983,3.272l-.063,36.8a3.343,3.343,0,0,1-2.539,3.113c-.019,1.145-.606,1.863-1.7,1.863l-13.781,0-.04.937,2.564.047a2.627,2.627,0,0,1,2.45,2.468l.015,2.08a1.285,1.285,0,0,1-1,1.029L14.4,51.616a1.215,1.215,0,0,1-1.366-1.207l-.008-1.649a2.718,2.718,0,0,1,2.548-2.735Zm32.1-37.245.018-5.485a1.778,1.778,0,0,0-1.867-1.773H3.288A1.742,1.742,0,0,0,1.581,3.261l.007,5.484Zm-2.575,18.25.005-3.588L43.474,23.4a.85.85,0,0,1-.876-.786.782.782,0,0,1,.748-.751l4.483.017a1.465,1.465,0,0,1,1.281,1.378l-.038,4.025c-.009.947-1.124,1.393-2.01,1.22l-.018,1.653c.831-.171,2.008.183,2.016,1.139l.034,4.267,1.089-.029-.007-25.286H1.5l0,25.3,25.55,0-.029-3.826a1.738,1.738,0,0,1,.556-1.278A2.53,2.53,0,0,1,29.1,30.1l-.01-1.562a2.488,2.488,0,0,1-1.551-.362,1.745,1.745,0,0,1-.517-1.181l.021-3.845a1.417,1.417,0,0,1,1.37-1.278l10.114-.01a.783.783,0,0,1,.863.758.856.856,0,0,1-.865.784l-10,0V27Zm-16.96,1.534v1.606l14.895,0V28.531ZM47.6,31.622H28.523v3.655H47.6Zm-2.069,5.157H30.632v1.616H45.527Zm3.611,4.772a1.761,1.761,0,0,0,1.038-1.656V37.081l-3.153.007.051,1.349c.906-.212,1.921.165,1.963,1.039ZM47.6,39.888H28.523v3.625H47.6ZM32.084,45.05l-3.607-.021a1.518,1.518,0,0,1-1.451-1.749H19.577l0,2.722H32.119Zm5.087,5.085-.019-1.461a1.253,1.253,0,0,0-1.18-1.167L15.892,47.5a1.293,1.293,0,0,0-1.368,1.283l.02,1.35Z" transform="translate(0)" fill="#0f654d"/>
          <path id="Trazado_1283353" data-name="Trazado 1283353" d="M93.9,53.377l-15.925,0a.768.768,0,1,1-.145-1.528h16a.906.906,0,0,1,.742.675c.04.272-.21.849-.671.849" transform="translate(-54.84 -36.875)" fill="#0f654d"/>
          <path id="Trazado_1283354" data-name="Trazado 1283354" d="M50.108,77.515H41.193a.767.767,0,1,1,.01-1.533h8.9a.807.807,0,0,1,.789.661.784.784,0,0,1-.781.872" transform="translate(-28.746 -54.035)" fill="#0f654d"/>
          <path id="Trazado_1283355" data-name="Trazado 1283355" d="M40.912,50.243a.884.884,0,0,1-1.088.068.874.874,0,0,1-.093-1.005l1.9-1.928-1.868-1.883a.836.836,0,0,1,.09-1.077.851.851,0,0,1,1.079.07l2.319,2.324a.95.95,0,0,1,.078,1Z" transform="translate(-28.165 -31.473)" fill="#0f654d"/>
          <path id="Trazado_1283356" data-name="Trazado 1283356" d="M15.291,49.124a.922.922,0,0,1,.219,1.011.8.8,0,0,1-1.091.238l-2.565-2.559a.98.98,0,0,1,.1-.993l2.41-2.4a.918.918,0,0,1,.991,0c.2.166.345.8.158.989l-1.953,2Z" transform="translate(-8.361 -31.487)" fill="#0f654d"/>
          <path id="Trazado_1283357" data-name="Trazado 1283357" d="M68.723,99.527H62.167a.79.79,0,0,1-.79-.682.778.778,0,0,1,.8-.826l6.551,0a.83.83,0,0,1,.818.692.788.788,0,0,1-.818.816" transform="translate(-43.646 -69.706)" fill="#0f654d"/>
          <path id="Trazado_1283358" data-name="Trazado 1283358" d="M37.2,88.652l-6.623.005a.855.855,0,0,1-.7-.811.8.8,0,0,1,.846-.7l6.689.019c.241,0,.526.583.481.81s-.379.677-.694.677" transform="translate(-21.245 -61.975)" fill="#0f654d"/>
          <path id="Trazado_1283359" data-name="Trazado 1283359" d="M108.78,64.977l-6.429,0a.853.853,0,0,1-.784-.794.8.8,0,0,1,.9-.727l6.254,0a.862.862,0,0,1,.822.717.839.839,0,0,1-.768.8" transform="translate(-72.228 -45.125)" fill="#0f654d"/>
          <path id="Trazado_1283360" data-name="Trazado 1283360" d="M64.069,64.982l-5.408,0a.969.969,0,0,1-.785-.672.792.792,0,0,1,.761-.847h5.371a.761.761,0,1,1,.061,1.52" transform="translate(-41.155 -45.13)" fill="#0f654d"/>
          <path id="Trazado_1283361" data-name="Trazado 1283361" d="M28.245,49.917a.763.763,0,1,1-1.445-.485l1.842-4.688a.759.759,0,1,1,1.464.4Z" transform="translate(-19.029 -31.427)" fill="#0f654d"/>
          <path id="Trazado_1283362" data-name="Trazado 1283362" d="M143.6,86.1l-5.287.016a.833.833,0,0,1-.733-.824.787.787,0,0,1,.877-.714l4.934,0a.948.948,0,0,1,.821.576c.1.261-.224.939-.611.94" transform="translate(-97.839 -60.15)" fill="#0f654d"/>
          <path id="Trazado_1283363" data-name="Trazado 1283363" d="M40.653,99.529l-5.164.009a.755.755,0,1,1,.016-1.51h5.063a.886.886,0,0,1,.772.668.76.76,0,0,1-.687.834" transform="translate(-24.686 -69.711)" fill="#0f654d"/>
          <path id="Trazado_1283364" data-name="Trazado 1283364" d="M19.1,77.509l-5.164.012a.842.842,0,0,1-.767-.719.777.777,0,0,1,.787-.818h5.061a.863.863,0,0,1,.742.674.779.779,0,0,1-.659.851" transform="translate(-9.364 -54.035)" fill="#0f654d"/>
          <path id="Trazado_1283365" data-name="Trazado 1283365" d="M18.056,99.514l-4.288.016c-.345,0-.644-.513-.612-.835a.836.836,0,0,1,.776-.672l3.9,0a.993.993,0,0,1,.718.553c.094.256-.144.939-.5.94" transform="translate(-9.354 -69.708)" fill="#0f654d"/>
          <path id="Trazado_1283366" data-name="Trazado 1283366" d="M107.433,86.073l-3.662.017a1.055,1.055,0,0,1-.756-.56c-.092-.254.172-.933.469-.937l3.747-.054a.908.908,0,0,1,.89.562.778.778,0,0,1-.689.973" transform="translate(-73.246 -60.12)" fill="#0f654d"/>
          <path id="Trazado_1283367" data-name="Trazado 1283367" d="M61.285,53.368l-2.684.011a.764.764,0,0,1,.019-1.528l2.562,0a.874.874,0,0,1,.8.661.829.829,0,0,1-.7.861" transform="translate(-41.14 -36.87)" fill="#0f654d"/>
          <path id="Trazado_1283368" data-name="Trazado 1283368" d="M78.115,88.624l-2.53.009a1.03,1.03,0,0,1-.709-.55c-.092-.254.156-.924.425-.929l2.74-.047a.881.881,0,0,1,.8.709.856.856,0,0,1-.723.808" transform="translate(-53.235 -61.946)" fill="#0f654d"/>
          <path id="Trazado_1283369" data-name="Trazado 1283369" d="M88.48,64.964l-2.4.006c-.3,0-.7-.521-.669-.8a.9.9,0,0,1,.8-.722l2.149,0a.838.838,0,0,1,.813.737.857.857,0,0,1-.685.771" transform="translate(-60.737 -45.124)" fill="#0f654d"/>
          <path id="Trazado_1283370" data-name="Trazado 1283370" d="M16.143,88.643l-2.218.008a.854.854,0,0,1-.767-.661c-.034-.345.267-.833.6-.835l2.3-.016a.806.806,0,0,1,.767.7.842.842,0,0,1-.69.8" transform="translate(-9.355 -61.968)" fill="#0f654d"/>
          <path id="Trazado_1283371" data-name="Trazado 1283371" d="M64.159,88.577a8,8,0,0,1-1.832-.03c-.208-.029-.432-.526-.423-.735s.286-.659.5-.666l1.525-.052a.9.9,0,0,1,.8.618.82.82,0,0,1-.571.865" transform="translate(-44.022 -61.937)" fill="#0f654d"/>
          <path id="Trazado_1283372" data-name="Trazado 1283372" d="M126.555,86.194l-1.384-.014c-.245,0-.6-.433-.626-.669s.238-.807.5-.808l1.659,0c.259,0,.556.553.531.8s-.405.7-.676.7" transform="translate(-88.569 -60.234)" fill="#0f654d"/>
          <path id="Trazado_1283373" data-name="Trazado 1283373" d="M35.7,12.129a2.217,2.217,0,1,1-2.217-2.217A2.217,2.217,0,0,1,35.7,12.129m-1.524,0a.695.695,0,1,0-.695.695.695.695,0,0,0,.695-.695" transform="translate(-22.234 -7.049)" fill="#0f654d"/>
          <path id="Trazado_1283374" data-name="Trazado 1283374" d="M55.291,12.138A2.217,2.217,0,1,1,53.074,9.92a2.217,2.217,0,0,1,2.217,2.218m-1.519-.012a.7.7,0,1,0-.7.7.7.7,0,0,0,.7-.7" transform="translate(-36.166 -7.055)" fill="#0f654d"/>
          <path id="Trazado_1283375" data-name="Trazado 1283375" d="M16.1,12.124a2.215,2.215,0,1,1-2.215-2.215A2.215,2.215,0,0,1,16.1,12.124m-1.525.006a.694.694,0,1,0-.694.694.694.694,0,0,0,.694-.694" transform="translate(-8.298 -7.047)" fill="#0f654d"/>
          <path id="Trazado_1283376" data-name="Trazado 1283376" d="M143.433,114.7l-5.1-.005a.878.878,0,0,1-.765-.787.8.8,0,0,1,.795-.755h5.106a.81.81,0,0,1,.753.752.888.888,0,0,1-.786.795" transform="translate(-97.829 -80.471)" fill="#0f654d"/>
          <path id="Trazado_1283377" data-name="Trazado 1283377" d="M107.519,114.673l-3.867.012c-.3,0-.689-.51-.685-.772s.391-.75.682-.749l3.81,0c.25,0,.607.389.663.616.063.257-.248.891-.6.892" transform="translate(-73.225 -80.476)" fill="#0f654d"/>
          <path id="Trazado_1283378" data-name="Trazado 1283378" d="M126.557,114.693l-1.357-.014c-.268,0-.659-.495-.654-.761.006-.289.377-.754.661-.752l1.415.01c.274,0,.615.476.616.736,0,.31-.371.784-.682.78" transform="translate(-88.571 -80.479)" fill="#0f654d"/>
          <path id="Trazado_1283379" data-name="Trazado 1283379" d="M143.62,143.223l-5.144.029a.815.815,0,0,1-.869-.728.779.779,0,0,1,.876-.812h4.925a.952.952,0,0,1,.817.57c.105.256-.18.939-.605.941" transform="translate(-97.858 -100.778)" fill="#0f654d"/>
          <path id="Trazado_1283380" data-name="Trazado 1283380" d="M107.38,143.246l-3.609.006a.857.857,0,0,1-.765-.716.8.8,0,0,1,.784-.814h3.583a.812.812,0,0,1,.775.656.792.792,0,0,1-.767.869" transform="translate(-73.252 -100.785)" fill="#0f654d"/>
          <path id="Trazado_1283381" data-name="Trazado 1283381" d="M126.7,143.2l-1.37.049a.864.864,0,0,1-.751-.718.767.767,0,0,1,.8-.82l1.334.029c.22,0,.521.445.549.658.032.24-.309.792-.559.8" transform="translate(-88.591 -100.778)" fill="#0f654d"/>
        </g>
      </g>
    </g>
  </g>
</svg>
