<svg xmlns="http://www.w3.org/2000/svg" xmlns:xlink="http://www.w3.org/1999/xlink" width="500" height="350.975" viewBox="0 0 500 350.975">
  <defs>
    <clipPath id="clip-path">
      <rect id="Rectángulo_468293" data-name="Rectángulo 468293" width="500" height="350.975" transform="translate(-38.79)" fill="none"/>
    </clipPath>
    <clipPath id="clip-path-3">
      <rect id="Rectángulo_468193" data-name="Rectángulo 468193" width="500" height="350.88" fill="none"/>
    </clipPath>
    <clipPath id="clip-path-4">
      <rect id="Rectángulo_468196" data-name="Rectángulo 468196" width="12" height="10.88" fill="none"/>
    </clipPath>
    <clipPath id="clip-path-5">
      <rect id="Rectángulo_468206" data-name="Rectángulo 468206" width="34.689" height="16.412" fill="none"/>
    </clipPath>
  </defs>
  <g id="Grupo_1214721" data-name="Grupo 1214721" transform="translate(38.79)">
    <g id="Grupo_1214720" data-name="Grupo 1214720" clip-path="url(#clip-path)">
      <g id="Grupo_1214719" data-name="Grupo 1214719">
        <g id="Grupo_1214718" data-name="Grupo 1214718" clip-path="url(#clip-path)">
          <g id="Grupo_1214699" data-name="Grupo 1214699" transform="translate(-8.123 0.094)" opacity="0.45">
            <g id="Grupo_1214698" data-name="Grupo 1214698" transform="translate(-30.667)">
              <g id="Grupo_1214697" data-name="Grupo 1214697" clip-path="url(#clip-path-3)">
                <path id="Trazado_1283443" data-name="Trazado 1283443" d="M487.289,336.078c0,62.945-51.305,113.974-114.592,113.974S258.105,399.024,258.105,336.078,309.409,222.1,372.7,222.1s114.592,51.027,114.592,113.974" transform="translate(12.711 -99.172)" fill="#c0f6f2"/>
                <path id="Trazado_1283444" data-name="Trazado 1283444" d="M335.186,154.237c0,85.125-70.981,154.133-158.54,154.133S18.1,239.363,18.1,154.237,89.086.1,176.645.1s158.54,69.008,158.54,154.133" transform="translate(-18.105 -0.104)" fill="#c0f6f2"/>
              </g>
            </g>
          </g>
          <path id="Trazado_1283445" data-name="Trazado 1283445" d="M415.018,125.634l-4.194,3.482a2.969,2.969,0,0,0-.374.374,28.657,28.657,0,0,0-8.641-3.623,2.71,2.71,0,0,0,.077-.51l.223-5.152a3.046,3.046,0,0,0-3.08-3.022l-5.683-.2a3.1,3.1,0,0,0-3.332,2.793l-.223,5.152a2.637,2.637,0,0,0,.032.511,29.107,29.107,0,0,0-8.7,2.881,3.089,3.089,0,0,0-.336-.4l-3.841-3.8a3.449,3.449,0,0,0-4.534-.18l-4.194,3.482a2.726,2.726,0,0,0-.2,4.111l3.84,3.8a3.2,3.2,0,0,0,.412.339,23.742,23.742,0,0,0-4,7.835,3.464,3.464,0,0,0-.561-.07l-5.682-.2a3.385,3.385,0,0,0-2.293.761l-.011.01a2.785,2.785,0,0,0-1.029,2.022l-.223,5.152h0a3.047,3.047,0,0,0,3.081,3.021l5.682.2a3.52,3.52,0,0,0,.564-.031,23.3,23.3,0,0,0,3.178,7.893,3.261,3.261,0,0,0-.443.3l-4.194,3.482a2.725,2.725,0,0,0-.2,4.11l3.84,3.8a3.45,3.45,0,0,0,4.534.181l4.194-3.482a3.111,3.111,0,0,0,.374-.374,28.637,28.637,0,0,0,8.643,3.624,2.6,2.6,0,0,0-.079.508l-.224,5.152a2.739,2.739,0,0,0,.851,2.09,3.333,3.333,0,0,0,2.23.932l5.682.2h0a3.4,3.4,0,0,0,2.292-.763A2.8,2.8,0,0,0,399.518,180l.223-5.152a2.546,2.546,0,0,0-.035-.511,29.091,29.091,0,0,0,8.707-2.882,2.892,2.892,0,0,0,.336.4l3.841,3.8a3.448,3.448,0,0,0,4.533.181l4.194-3.482a2.726,2.726,0,0,0,.2-4.111l-3.841-3.8a2.936,2.936,0,0,0-.412-.339,23.731,23.731,0,0,0,4-7.836,3.557,3.557,0,0,0,.561.072l5.683.2a3.4,3.4,0,0,0,2.292-.763,2.8,2.8,0,0,0,1.04-2.03l.224-5.153a3.046,3.046,0,0,0-3.081-3.021l-5.682-.2a3.549,3.549,0,0,0-.565.029,23.3,23.3,0,0,0-3.178-7.892,3.289,3.289,0,0,0,.444-.3l4.193-3.482a2.726,2.726,0,0,0,.2-4.111l-3.84-3.8A3.45,3.45,0,0,0,415.018,125.634Zm-10.074,34.332a16.2,16.2,0,0,1-21.294-.85,12.8,12.8,0,0,1,.937-19.307,16.2,16.2,0,0,1,21.294.85A12.8,12.8,0,0,1,404.944,159.966Z" transform="translate(0 -10.918)" fill="none" stroke="#0f1b63" stroke-miterlimit="10" stroke-width="1"/>
          <path id="Trazado_1283446" data-name="Trazado 1283446" d="M83.493,332.116h-2.21a.673.673,0,1,1,0-1.339h2.21a.673.673,0,1,1,0,1.339m-7.134,0H71.434a.673.673,0,1,1,0-1.339h4.925a.673.673,0,1,1,0,1.339m-9.85,0H61.584a.673.673,0,1,1,0-1.339h4.925a.673.673,0,1,1,0,1.339m-9.85,0H51.734a.673.673,0,1,1,0-1.339h4.925a.673.673,0,1,1,0,1.339m-9.85,0H41.884a.673.673,0,1,1,0-1.339h4.925a.673.673,0,1,1,0,1.339m-9.85,0H32.034a.673.673,0,1,1,0-1.339h4.925a.673.673,0,1,1,0,1.339m-9.85-.006h-.02a20.53,20.53,0,0,1-5.042-.756.66.66,0,0,1-.485-.839.753.753,0,0,1,.924-.441,18.939,18.939,0,0,0,4.644.7.7.7,0,0,1,.718.688.711.711,0,0,1-.739.651m-9.286-2.618a.785.785,0,0,1-.4-.108,18.448,18.448,0,0,1-3.87-3.025.627.627,0,0,1,.065-.945.792.792,0,0,1,1.043.058,16.965,16.965,0,0,0,3.566,2.787.634.634,0,0,1,.217.927.759.759,0,0,1-.62.306m-6.437-6.611a.751.751,0,0,1-.667-.378,15.955,15.955,0,0,1-1.574-4.408.679.679,0,0,1,.6-.777.74.74,0,0,1,.856.542,14.62,14.62,0,0,0,1.45,4.06.644.644,0,0,1-.344.895.8.8,0,0,1-.32.066M9.594,314.2a.707.707,0,0,1-.739-.67v-4.465a.742.742,0,0,1,1.477,0v4.465a.707.707,0,0,1-.738.67m0-8.931a.707.707,0,0,1-.739-.67v-4.465a.742.742,0,0,1,1.477,0V304.6a.707.707,0,0,1-.738.67m0-8.931a.707.707,0,0,1-.739-.669V291.2a.742.742,0,0,1,1.477,0v4.465a.707.707,0,0,1-.738.669m0-8.931a.707.707,0,0,1-.739-.669v-4.465a.742.742,0,0,1,1.477,0v4.465a.707.707,0,0,1-.738.669m0-8.931a.707.707,0,0,1-.739-.669v-4.465a.742.742,0,0,1,1.477,0v4.465a.706.706,0,0,1-.738.669m0-8.93a.707.707,0,0,1-.739-.67V264.41a.742.742,0,0,1,1.477,0v4.465a.707.707,0,0,1-.738.67m0-8.931a.707.707,0,0,1-.739-.67v-4.465a.742.742,0,0,1,1.477,0v4.465a.707.707,0,0,1-.738.67m0-8.931a.707.707,0,0,1-.739-.67v-4.465a.742.742,0,0,1,1.477,0v4.465a.707.707,0,0,1-.738.67m0-8.931a.707.707,0,0,1-.739-.67v-4.465a.742.742,0,0,1,1.477,0v4.465a.707.707,0,0,1-.738.67m0-8.931a.707.707,0,0,1-.739-.67v-4.465a.742.742,0,0,1,1.477,0v4.465a.707.707,0,0,1-.738.67m0-8.931a.707.707,0,0,1-.739-.67v-4.465a.742.742,0,0,1,1.477,0v4.465a.707.707,0,0,1-.738.67m0-8.931a.707.707,0,0,1-.739-.67v-4.465a.742.742,0,0,1,1.477,0v4.465a.707.707,0,0,1-.738.67m0-8.931a.707.707,0,0,1-.739-.67v-.452a15.543,15.543,0,0,1,.558-4.134.75.75,0,0,1,.895-.487.667.667,0,0,1,.538.811,14.35,14.35,0,0,0-.514,3.81v.452a.707.707,0,0,1-.738.67m2.366-8.553a.809.809,0,0,1-.366-.088.638.638,0,0,1-.275-.914,17.413,17.413,0,0,1,3.114-3.673.8.8,0,0,1,1.045.005.628.628,0,0,1-.006.947,15.985,15.985,0,0,0-2.87,3.384.754.754,0,0,1-.642.338m6.919-6.2a.755.755,0,0,1-.647-.345.639.639,0,0,1,.287-.911,19.861,19.861,0,0,1,4.766-1.675.744.744,0,0,1,.889.5.67.67,0,0,1-.548.807,18.261,18.261,0,0,0-4.389,1.542.8.8,0,0,1-.358.084m122.737-2.048h-4.925a.673.673,0,1,1,0-1.34h4.925a.673.673,0,1,1,0,1.34m-9.85,0h-4.925a.673.673,0,1,1,0-1.34h4.925a.673.673,0,1,1,0,1.34m-9.85,0h-4.925a.673.673,0,1,1,0-1.34h4.925a.673.673,0,1,1,0,1.34m-9.85,0h-4.925a.673.673,0,1,1,0-1.34h4.925a.673.673,0,1,1,0,1.34m-9.85,0H97.292a.673.673,0,1,1,0-1.34h4.924a.673.673,0,1,1,0,1.34m-9.849,0H87.441a.673.673,0,1,1,0-1.34h4.926a.673.673,0,1,1,0,1.34m-9.85,0H77.592a.673.673,0,1,1,0-1.34h4.925a.673.673,0,1,1,0,1.34m-9.85,0H67.742a.673.673,0,1,1,0-1.34h4.925a.673.673,0,1,1,0,1.34m-9.85,0H57.892a.673.673,0,1,1,0-1.34h4.925a.673.673,0,1,1,0,1.34m-9.85,0H48.042a.673.673,0,1,1,0-1.34h4.925a.673.673,0,1,1,0,1.34m-9.85,0H38.192a.673.673,0,1,1,0-1.34h4.925a.673.673,0,1,1,0,1.34m-9.85,0H28.342a.673.673,0,1,1,0-1.34h4.925a.673.673,0,1,1,0,1.34" transform="translate(0 -17.63)" fill="#b19cfe"/>
          <path id="Trazado_1283447" data-name="Trazado 1283447" d="M12.812,267.794a3.08,3.08,0,0,1-3.219,2.919,2.933,2.933,0,1,1,0-5.837,3.08,3.08,0,0,1,3.219,2.919" transform="translate(0 -24.721)" fill="#b19cfe"/>
          <path id="Trazado_1283448" data-name="Trazado 1283448" d="M9.593,273a5.5,5.5,0,1,1,0-10.94,5.5,5.5,0,1,1,0,10.94m0-10.27a4.823,4.823,0,1,0,0,9.6,4.823,4.823,0,1,0,0-9.6" transform="translate(0 -24.459)" fill="#b19cfe"/>
          <path id="Trazado_1283449" data-name="Trazado 1283449" d="M175.4,152.7a.861.861,0,0,1-.9-.815v-5.433a.9.9,0,0,1,1.8,0v5.433a.86.86,0,0,1-.9.815m0-10.866a.861.861,0,0,1-.9-.815v-5.433a.9.9,0,0,1,1.8,0v5.433a.86.86,0,0,1-.9.815m0-10.866a.86.86,0,0,1-.9-.814v-5.433a.9.9,0,0,1,1.8,0v5.433a.86.86,0,0,1-.9.814m0-10.866a.86.86,0,0,1-.9-.815v-5.433a.9.9,0,0,1,1.8,0v5.433a.86.86,0,0,1-.9.815m0-10.866a.86.86,0,0,1-.9-.815v-5.433a.9.9,0,0,1,1.8,0v5.433a.86.86,0,0,1-.9.815m0-10.866a.861.861,0,0,1-.9-.815V92.121a.9.9,0,0,1,1.8,0v5.433a.86.86,0,0,1-.9.815m95.161-9.787a.86.86,0,0,1-.9-.815V84.751a.9.9,0,0,1,1.8,0v3.016a.86.86,0,0,1-.9.815M175.4,87.5a.861.861,0,0,1-.9-.815V81.256a.9.9,0,0,1,1.8,0v5.433a.86.86,0,0,1-.9.815m95.161-7.37a.86.86,0,0,1-.9-.815V73.885a.9.9,0,0,1,1.8,0v5.433a.86.86,0,0,1-.9.815m-95.161-3.5a.861.861,0,0,1-.9-.815V70.39a.9.9,0,0,1,1.8,0v5.433a.86.86,0,0,1-.9.815m95.161-7.37a.86.86,0,0,1-.9-.815V63.02a.9.9,0,0,1,1.8,0v5.433a.86.86,0,0,1-.9.815m-95.161-3.5a.86.86,0,0,1-.9-.814V59.525a.9.9,0,0,1,1.8,0v5.433a.86.86,0,0,1-.9.814m95.161-7.37a.859.859,0,0,1-.9-.814V52.153a.9.9,0,0,1,1.8,0v5.434a.859.859,0,0,1-.9.814m-95.161-3.5a.86.86,0,0,1-.9-.815V48.658a.9.9,0,0,1,1.8,0v5.433a.86.86,0,0,1-.9.815m95.161-7.37a.86.86,0,0,1-.9-.815V41.288a.9.9,0,0,1,1.8,0v5.433a.859.859,0,0,1-.9.815M175.4,44.04a.86.86,0,0,1-.9-.815V37.793a.9.9,0,0,1,1.8,0v5.433a.86.86,0,0,1-.9.815m95.161-7.37a.86.86,0,0,1-.9-.815V30.422a.9.9,0,0,1,1.8,0v5.433a.86.86,0,0,1-.9.815m-95.161-3.5a.861.861,0,0,1-.9-.815V26.927a.9.9,0,0,1,1.8,0V32.36a.86.86,0,0,1-.9.815m95.123-7.369a.865.865,0,0,1-.9-.769,17.426,17.426,0,0,0-1.1-5.1.8.8,0,0,1,.56-1.035.925.925,0,0,1,1.14.506,18.92,18.92,0,0,1,1.194,5.532.849.849,0,0,1-.846.86h-.052m-94.533-3.453a.945.945,0,0,1-.207-.022.814.814,0,0,1-.668-.981,19.409,19.409,0,0,1,2.25-5.258.948.948,0,0,1,1.222-.316.777.777,0,0,1,.347,1.109,17.928,17.928,0,0,0-2.071,4.84.883.883,0,0,1-.873.627m90.7-6.691a.928.928,0,0,1-.74-.351,20.07,20.07,0,0,0-3.866-3.836.763.763,0,0,1-.115-1.147.962.962,0,0,1,1.266-.1,21.77,21.77,0,0,1,4.194,4.16.767.767,0,0,1-.229,1.133.948.948,0,0,1-.51.145m-84.957-2.69a.945.945,0,0,1-.632-.235.764.764,0,0,1-.008-1.153,22.856,22.856,0,0,1,4.927-3.434.953.953,0,0,1,1.228.3.778.778,0,0,1-.336,1.112,21.037,21.037,0,0,0-4.541,3.165.941.941,0,0,1-.638.242M257.6,8.793a.984.984,0,0,1-.367-.071,22.583,22.583,0,0,0-5.5-1.456.831.831,0,0,1-.758-.925.88.88,0,0,1,1.02-.687,24.564,24.564,0,0,1,5.971,1.58.787.787,0,0,1,.453,1.077.91.91,0,0,1-.821.481M192.007,7.651a.885.885,0,0,1-.87-.617.812.812,0,0,1,.653-.988,25.187,25.187,0,0,1,5.549-.616h.606a.861.861,0,0,1,.9.815.861.861,0,0,1-.9.815h-.606a23.2,23.2,0,0,0-5.114.567.985.985,0,0,1-.218.024m53.875-.591h-5.993a.859.859,0,0,1-.9-.815.859.859,0,0,1,.9-.815h5.993a.861.861,0,0,1,.9.815.861.861,0,0,1-.9.815m-11.985,0h-5.991a.861.861,0,0,1-.9-.815.861.861,0,0,1,.9-.815H233.9a.859.859,0,0,1,.9.815.859.859,0,0,1-.9.815m-11.984,0h-5.992a.861.861,0,0,1-.9-.815.861.861,0,0,1,.9-.815h5.992a.861.861,0,0,1,.9.815.861.861,0,0,1-.9.815m-11.983,0h-5.992a.861.861,0,0,1-.9-.815.861.861,0,0,1,.9-.815h5.992a.86.86,0,0,1,.9.815.86.86,0,0,1-.9.815" transform="translate(0 -0.507)" fill="#b19cfe"/>
          <path id="Trazado_1283450" data-name="Trazado 1283450" d="M222.982,9.076a3.231,3.231,0,0,0,3.377-3.062,3.393,3.393,0,0,0-6.754,0,3.231,3.231,0,0,0,3.377,3.062" transform="translate(0 -0.276)" fill="#b19cfe"/>
          <path id="Trazado_1283451" data-name="Trazado 1283451" d="M222.982,11.477c-3.49,0-6.329-2.574-6.329-5.738S219.492,0,222.982,0s6.329,2.574,6.329,5.738-2.839,5.738-6.329,5.738m0-10.774a5.32,5.32,0,0,0-5.554,5.036,5.581,5.581,0,0,0,11.108,0A5.32,5.32,0,0,0,222.982.7" transform="translate(0 0)" fill="#b19cfe"/>
          <rect id="Rectángulo_468194" data-name="Rectángulo 468194" width="57.954" height="8.983" transform="translate(169.063 49.882)" fill="#c1c1c1"/>
          <path id="Trazado_1283452" data-name="Trazado 1283452" d="M273.838,51.289H232.411A12.5,12.5,0,0,0,224.6,53.8l-11.254,7.635H169.009a3.21,3.21,0,0,0-3.355,3.043V120.11a3.211,3.211,0,0,0,3.355,3.043H277.034a3.212,3.212,0,0,0,3.356-3.043V58.05a6.764,6.764,0,0,0-6.552-6.761" transform="translate(0 -4.787)" fill="#ffb758"/>
          <path id="Trazado_1283453" data-name="Trazado 1283453" d="M102.621,235.467l-6.144,5.4a4.491,4.491,0,0,0-.545.577,43.349,43.349,0,0,0-13.17-5.115,3.951,3.951,0,0,0,.093-.769l.092-7.758a4.615,4.615,0,0,0-4.777-4.425l-8.557-.083a4.638,4.638,0,0,0-4.88,4.331l-.092,7.757a3.937,3.937,0,0,0,.073.769,43.578,43.578,0,0,0-12.957,4.672,4.529,4.529,0,0,0-.525-.59l-5.956-5.571a5.193,5.193,0,0,0-6.829-.1l-6.144,5.4a4.1,4.1,0,0,0-.1,6.192l5.956,5.571a4.68,4.68,0,0,0,.635.493,35.489,35.489,0,0,0-5.641,11.941,5.335,5.335,0,0,0-.847-.083L23.744,264a5.069,5.069,0,0,0-3.413,1.233l-.017.015a4.163,4.163,0,0,0-1.451,3.082l-.092,7.758a4.614,4.614,0,0,0,4.777,4.425l8.557.083a5.3,5.3,0,0,0,.846-.069,35.268,35.268,0,0,0,5.154,11.75,4.685,4.685,0,0,0-.652.475l-6.144,5.4a4.1,4.1,0,0,0-.1,6.191l5.956,5.571a5.194,5.194,0,0,0,6.829.1l6.143-5.4a4.483,4.483,0,0,0,.545-.576,43.4,43.4,0,0,0,13.172,5.115,3.968,3.968,0,0,0-.095.767l-.092,7.758a4.143,4.143,0,0,0,1.378,3.11,5.047,5.047,0,0,0,3.4,1.316L77,322.18h0a5.083,5.083,0,0,0,3.411-1.237,4.183,4.183,0,0,0,1.469-3.094l.093-7.758a3.9,3.9,0,0,0-.077-.768,43.572,43.572,0,0,0,12.96-4.673,4.48,4.48,0,0,0,.525.591l5.956,5.571a5.194,5.194,0,0,0,6.829.1l6.144-5.4a4.1,4.1,0,0,0,.105-6.191l-5.956-5.571a4.77,4.77,0,0,0-.636-.494,35.454,35.454,0,0,0,5.642-11.943,5.211,5.211,0,0,0,.847.086l8.557.084a5.087,5.087,0,0,0,3.412-1.237,4.183,4.183,0,0,0,1.469-3.094l.092-7.758a4.613,4.613,0,0,0-4.776-4.425l-8.557-.083a5.362,5.362,0,0,0-.848.066A35.273,35.273,0,0,0,108.5,253.2a4.765,4.765,0,0,0,.652-.476l6.144-5.4a4.1,4.1,0,0,0,.1-6.192l-5.956-5.57A5.192,5.192,0,0,0,102.621,235.467ZM89.091,287.5a24.391,24.391,0,0,1-32.07-.45,19.257,19.257,0,0,1,.5-29.078,24.392,24.392,0,0,1,32.07.451A19.256,19.256,0,0,1,89.091,287.5Z" transform="translate(0 -20.841)" fill="none" stroke="#0f1b63" stroke-miterlimit="10" stroke-width="1"/>
          <rect id="Rectángulo_468195" data-name="Rectángulo 468195" width="91.971" height="39.973" transform="translate(173.617 278.221)" fill="#0f654d"/>
          <path id="Trazado_1283454" data-name="Trazado 1283454" d="M372.383,97.617v182.1c0,5.849-5.229,10.59-11.689,10.59H78.51c-6.451,0-11.689-4.741-11.689-10.59V97.617c0-5.849,5.238-10.6,11.689-10.6H360.694c6.46,0,11.689,4.749,11.689,10.6" transform="translate(0 -8.122)" fill="#3be0cc"/>
          <g id="Grupo_1214702" data-name="Grupo 1214702" transform="translate(213.105 263.935)" opacity="0.5">
            <g id="Grupo_1214701" data-name="Grupo 1214701">
              <g id="Grupo_1214700" data-name="Grupo 1214700" clip-path="url(#clip-path-4)">
                <path id="Trazado_1283455" data-name="Trazado 1283455" d="M225.1,296.544a6.029,6.029,0,1,1-6-5.44,5.74,5.74,0,0,1,6,5.44" transform="translate(-213.105 -291.104)" fill="#fff"/>
              </g>
            </g>
          </g>
          <path id="Trazado_1283456" data-name="Trazado 1283456" d="M368.713,265.861V100.021c0-5.027-4.34-9.1-9.693-9.1H80.185c-5.353,0-9.693,4.075-9.693,9.1V265.861Z" transform="translate(0 -8.486)" fill="#c9e8f7"/>
          <path id="Trazado_1283457" data-name="Trazado 1283457" d="M283.684,354.813H155.521v-.278c0-4.6,4.117-8.336,9.2-8.336H274.49c5.078,0,9.194,3.732,9.194,8.336Z" transform="translate(0 -32.312)" fill="#3be0cc"/>
          <path id="Trazado_1283458" data-name="Trazado 1283458" d="M94.537,84.986c0-8.027-6.674-14.632-15.263-15.524a12.778,12.778,0,0,0,.109-1.6c0-7.695-6.881-13.934-15.369-13.934a16.622,16.622,0,0,0-6.366,1.263,23.638,23.638,0,0,0-19.382-9.619c-12.712,0-23.016,9.343-23.016,20.869a19.154,19.154,0,0,0,.238,2.987C6.789,70.229,0,76.889,0,84.986c0,8.635,7.721,15.635,17.245,15.635h60.9v-.04c9.124-.406,16.39-7.223,16.39-15.6" transform="translate(0 -4.254)" fill="#7dd3ff"/>
          <path id="Trazado_1283459" data-name="Trazado 1283459" d="M58.313,116.946V92.654H36.223v24.292H29.318l17.95,15.247,17.95-15.247Z" transform="translate(0 -8.648)" fill="#ffb758"/>
          <path id="Trazado_1283460" data-name="Trazado 1283460" d="M302.34,98.334H248.1c-5.015,0-9.081-3.686-9.081-8.233V73.747c0-4.548,4.066-8.233,9.081-8.233H302.34c5.015,0,9.081,3.686,9.081,8.233V90.1c0,4.547-4.066,8.233-9.081,8.233" transform="translate(0 -6.115)" fill="#19538d"/>
          <path id="Trazado_1283461" data-name="Trazado 1283461" d="M99.882,358.829H45.645c-5.015,0-9.081-3.686-9.081-8.233V334.242c0-4.548,4.066-8.234,9.081-8.234H99.882c5.015,0,9.081,3.687,9.081,8.234V350.6c0,4.547-4.066,8.233-9.081,8.233" transform="translate(0 -30.427)" fill="#19538d"/>
          <path id="Trazado_1283462" data-name="Trazado 1283462" d="M125.962,205.69H71.725c-5.015,0-9.081-3.686-9.081-8.233V181.1c0-4.548,4.066-8.234,9.081-8.234h54.237c5.015,0,9.081,3.687,9.081,8.234v16.354c0,4.547-4.066,8.233-9.081,8.233" transform="translate(0 -16.134)" fill="#542fd0"/>
          <path id="Trazado_1283463" data-name="Trazado 1283463" d="M317.072,324.826h-2.583a.706.706,0,1,1,0-1.405h2.583a.706.706,0,1,1,0,1.405" transform="translate(0 -30.186)" fill="#b19cfe"/>
          <path id="Trazado_1283464" data-name="Trazado 1283464" d="M379.085,316.328h-5.168a.706.706,0,1,1,0-1.405h5.168a.706.706,0,1,1,0,1.405m-10.336,0h-5.166a.706.706,0,1,1,0-1.405h5.166a.706.706,0,1,1,0,1.405m-10.334,0h-5.168a.706.706,0,1,1,0-1.405h5.168a.706.706,0,1,1,0,1.405m-10.336,0h-5.168a.706.706,0,1,1,0-1.405h5.168a.706.706,0,1,1,0,1.405m-10.336,0h-5.167a.706.706,0,1,1,0-1.405h5.167a.706.706,0,1,1,0,1.405m-10.334,0h-5.168a.706.706,0,1,1,0-1.405h5.168a.706.706,0,1,1,0,1.405m56.794-.545a.762.762,0,0,1-.752-.538.7.7,0,0,1,.57-.848,21.826,21.826,0,0,0,4.65-1.583.816.816,0,0,1,1.046.3.674.674,0,0,1-.329.948,23.539,23.539,0,0,1-5,1.7.905.905,0,0,1-.183.019m9.078-4.285a.806.806,0,0,1-.582-.238.658.658,0,0,1,.07-.992,19.6,19.6,0,0,0,3.314-3.357.826.826,0,0,1,1.079-.174.663.663,0,0,1,.191.979,21.1,21.1,0,0,1-3.56,3.608.824.824,0,0,1-.512.174m5.859-7.6a.85.85,0,0,1-.279-.047.684.684,0,0,1-.444-.908,17.109,17.109,0,0,0,1.213-4.366.755.755,0,0,1,.866-.609.719.719,0,0,1,.672.784,18.471,18.471,0,0,1-1.3,4.7.776.776,0,0,1-.723.45m1.43-9.209a.742.742,0,0,1-.775-.7V289.3a.779.779,0,0,1,1.55,0v4.686a.742.742,0,0,1-.775.7m0-9.37a.742.742,0,0,1-.775-.7v-4.686a.779.779,0,0,1,1.55,0v4.686a.742.742,0,0,1-.775.7m0-9.371a.742.742,0,0,1-.775-.7v-4.685a.779.779,0,0,1,1.55,0v4.685a.742.742,0,0,1-.775.7m0-9.37a.742.742,0,0,1-.775-.7v-4.686a.779.779,0,0,1,1.55,0v4.686a.742.742,0,0,1-.775.7m0-9.37a.742.742,0,0,1-.775-.7v-4.686a.779.779,0,0,1,1.55,0V256.5a.742.742,0,0,1-.775.7m0-9.371a.742.742,0,0,1-.775-.7v-4.685a.779.779,0,0,1,1.55,0v4.685a.742.742,0,0,1-.775.7m0-9.37a.742.742,0,0,1-.775-.7v-4.686a.779.779,0,0,1,1.55,0v4.686a.742.742,0,0,1-.775.7" transform="translate(0 -21.688)" fill="#b19cfe"/>
          <path id="Trazado_1283465" data-name="Trazado 1283465" d="M400.57,228.343a.742.742,0,0,1-.775-.7V226h-.65a.706.706,0,1,1,0-1.406h1.425a.742.742,0,0,1,.775.7v2.343a.742.742,0,0,1-.775.7" transform="translate(0 -20.962)" fill="#b19cfe"/>
          <path id="Trazado_1283466" data-name="Trazado 1283466" d="M376.516,147.1h-67.8c-4.076,0-7.38,3-7.38,6.691V281.548c0,3.7,3.3,6.691,7.38,6.691h67.8c4.076,0,7.38-3,7.38-6.691V153.79c0-3.7-3.3-6.691-7.38-6.691" transform="translate(0 -13.729)" fill="#7dd3ff"/>
          <path id="Trazado_1283467" data-name="Trazado 1283467" d="M357.775,154.986h-37.3a1.122,1.122,0,0,1-1.172-1.063v-.138a1.122,1.122,0,0,1,1.172-1.063h37.3a1.122,1.122,0,0,1,1.172,1.063v.138a1.122,1.122,0,0,1-1.172,1.063" transform="translate(0 -14.254)" fill="#0f1b63"/>
          <path id="Trazado_1283468" data-name="Trazado 1283468" d="M365.921,153.855a1.254,1.254,0,1,1-1.248-1.132,1.194,1.194,0,0,1,1.248,1.132" transform="translate(0 -14.254)" fill="#0f1b63"/>
          <rect id="Rectángulo_468197" data-name="Rectángulo 468197" width="73.475" height="40.935" transform="translate(305.876 146.187)" fill="#fff"/>
          <path id="Trazado_1283469" data-name="Trazado 1283469" d="M356.553,179.147l-5.387,5.843L337.227,169.87l-23.306,25.277h57.385Z" transform="translate(0 -15.854)" fill="#ffb758"/>
          <rect id="Rectángulo_468198" data-name="Rectángulo 468198" width="34.689" height="18.447" transform="translate(305.876 241.343)" fill="#fff"/>
          <path id="Trazado_1283470" data-name="Trazado 1283470" d="M329.8,273.643l-2.543,2.758-6.581-7.137-11,11.934h27.092Z" transform="translate(0 -25.131)" fill="#ffc655"/>
          <g id="Grupo_1214705" data-name="Grupo 1214705" transform="translate(305.876 193.948)" style="mix-blend-mode: multiply;isolation: isolate">
            <g id="Grupo_1214704" data-name="Grupo 1214704">
              <g id="Grupo_1214703" data-name="Grupo 1214703" clip-path="url(#clip-path-5)">
                <rect id="Rectángulo_468199" data-name="Rectángulo 468199" width="34.689" height="1.767" transform="translate(0 3.704)" fill="#b19cfe"/>
                <rect id="Rectángulo_468200" data-name="Rectángulo 468200" width="34.689" height="1.767" transform="translate(0 0)" fill="#b19cfe"/>
                <rect id="Rectángulo_468201" data-name="Rectángulo 468201" width="21.934" height="1.767" transform="translate(0 7.32)" fill="#b19cfe"/>
                <rect id="Rectángulo_468202" data-name="Rectángulo 468202" width="11.195" height="1.767" transform="translate(23.494 7.32)" fill="#b19cfe"/>
                <rect id="Rectángulo_468203" data-name="Rectángulo 468203" width="30.69" height="1.767" transform="translate(0 10.933)" fill="#b19cfe"/>
                <rect id="Rectángulo_468204" data-name="Rectángulo 468204" width="10.659" height="1.767" transform="translate(0 14.645)" fill="#b19cfe"/>
                <rect id="Rectángulo_468205" data-name="Rectángulo 468205" width="7.677" height="1.767" transform="translate(12.498 14.645)" fill="#b19cfe"/>
              </g>
            </g>
          </g>
          <g id="Grupo_1214708" data-name="Grupo 1214708" transform="translate(344.662 218.695)" style="mix-blend-mode: multiply;isolation: isolate">
            <g id="Grupo_1214707" data-name="Grupo 1214707">
              <g id="Grupo_1214706" data-name="Grupo 1214706" clip-path="url(#clip-path-5)">
                <rect id="Rectángulo_468207" data-name="Rectángulo 468207" width="34.689" height="1.767" transform="translate(0 3.703)" fill="#b19cfe"/>
                <rect id="Rectángulo_468208" data-name="Rectángulo 468208" width="34.689" height="1.767" transform="translate(0 0)" fill="#b19cfe"/>
                <rect id="Rectángulo_468209" data-name="Rectángulo 468209" width="21.934" height="1.767" transform="translate(0 7.32)" fill="#b19cfe"/>
                <rect id="Rectángulo_468210" data-name="Rectángulo 468210" width="11.195" height="1.767" transform="translate(23.494 7.32)" fill="#b19cfe"/>
                <rect id="Rectángulo_468211" data-name="Rectángulo 468211" width="30.69" height="1.767" transform="translate(0 10.933)" fill="#b19cfe"/>
                <rect id="Rectángulo_468212" data-name="Rectángulo 468212" width="10.659" height="1.767" transform="translate(0 14.644)" fill="#b19cfe"/>
                <rect id="Rectángulo_468213" data-name="Rectángulo 468213" width="7.677" height="1.767" transform="translate(12.498 14.644)" fill="#b19cfe"/>
              </g>
            </g>
          </g>
          <g id="Grupo_1214711" data-name="Grupo 1214711" transform="translate(344.662 193.948)" style="mix-blend-mode: multiply;isolation: isolate">
            <g id="Grupo_1214710" data-name="Grupo 1214710">
              <g id="Grupo_1214709" data-name="Grupo 1214709" clip-path="url(#clip-path-5)">
                <rect id="Rectángulo_468215" data-name="Rectángulo 468215" width="34.689" height="1.767" transform="translate(0 3.704)" fill="#b19cfe"/>
                <rect id="Rectángulo_468216" data-name="Rectángulo 468216" width="34.689" height="1.767" transform="translate(0 0)" fill="#b19cfe"/>
                <rect id="Rectángulo_468217" data-name="Rectángulo 468217" width="21.934" height="1.767" transform="translate(0 7.32)" fill="#b19cfe"/>
                <rect id="Rectángulo_468218" data-name="Rectángulo 468218" width="11.195" height="1.767" transform="translate(23.494 7.32)" fill="#b19cfe"/>
                <rect id="Rectángulo_468219" data-name="Rectángulo 468219" width="34.689" height="1.767" transform="translate(0 10.933)" fill="#b19cfe"/>
                <rect id="Rectángulo_468220" data-name="Rectángulo 468220" width="10.659" height="1.767" transform="translate(0 14.645)" fill="#b19cfe"/>
                <rect id="Rectángulo_468221" data-name="Rectángulo 468221" width="22.191" height="1.767" transform="translate(12.498 14.645)" fill="#b19cfe"/>
              </g>
            </g>
          </g>
          <g id="Grupo_1214714" data-name="Grupo 1214714" transform="translate(305.876 218.695)" style="mix-blend-mode: multiply;isolation: isolate">
            <g id="Grupo_1214713" data-name="Grupo 1214713">
              <g id="Grupo_1214712" data-name="Grupo 1214712" clip-path="url(#clip-path-5)">
                <rect id="Rectángulo_468223" data-name="Rectángulo 468223" width="34.689" height="1.767" transform="translate(0 3.703)" fill="#b19cfe"/>
                <rect id="Rectángulo_468224" data-name="Rectángulo 468224" width="34.689" height="1.767" transform="translate(0 0)" fill="#b19cfe"/>
                <rect id="Rectángulo_468225" data-name="Rectángulo 468225" width="34.689" height="1.767" transform="translate(0 7.32)" fill="#b19cfe"/>
                <rect id="Rectángulo_468226" data-name="Rectángulo 468226" width="34.689" height="1.767" transform="translate(0 10.933)" fill="#b19cfe"/>
                <rect id="Rectángulo_468227" data-name="Rectángulo 468227" width="34.689" height="1.767" transform="translate(0 14.644)" fill="#b19cfe"/>
              </g>
            </g>
          </g>
          <g id="Grupo_1214717" data-name="Grupo 1214717" transform="translate(344.662 241.947)" style="mix-blend-mode: multiply;isolation: isolate">
            <g id="Grupo_1214716" data-name="Grupo 1214716">
              <g id="Grupo_1214715" data-name="Grupo 1214715" clip-path="url(#clip-path-5)">
                <rect id="Rectángulo_468229" data-name="Rectángulo 468229" width="34.689" height="1.767" transform="translate(0 3.703)" fill="#b19cfe"/>
                <rect id="Rectángulo_468230" data-name="Rectángulo 468230" width="34.689" height="1.767" fill="#b19cfe"/>
                <rect id="Rectángulo_468231" data-name="Rectángulo 468231" width="21.934" height="1.767" transform="translate(12.755 7.32)" fill="#b19cfe"/>
                <rect id="Rectángulo_468232" data-name="Rectángulo 468232" width="11.195" height="1.767" transform="translate(0 7.32)" fill="#b19cfe"/>
                <rect id="Rectángulo_468233" data-name="Rectángulo 468233" width="26.636" height="1.767" transform="translate(0 10.934)" fill="#b19cfe"/>
                <rect id="Rectángulo_468234" data-name="Rectángulo 468234" width="6.202" height="1.767" transform="translate(28.486 10.934)" fill="#b19cfe"/>
                <rect id="Rectángulo_468235" data-name="Rectángulo 468235" width="25.588" height="1.767" transform="translate(9.101 14.645)" fill="#b19cfe"/>
                <rect id="Rectángulo_468236" data-name="Rectángulo 468236" width="7.677" height="1.767" transform="translate(0 14.645)" fill="#b19cfe"/>
              </g>
            </g>
          </g>
          <path id="Trazado_1283471" data-name="Trazado 1283471" d="M317.758,335.589H263.521c-5.015,0-9.081-3.686-9.081-8.233V311c0-4.548,4.066-8.233,9.081-8.233h54.237c5.015,0,9.081,3.686,9.081,8.233v16.354c0,4.547-4.066,8.233-9.081,8.233" transform="translate(0 -28.258)" fill="#19538d"/>
          <path id="Trazado_1283472" data-name="Trazado 1283472" d="M403.363,278.614a3.393,3.393,0,1,1-3.377-3.062,3.231,3.231,0,0,1,3.377,3.062" transform="translate(0 -25.718)" fill="#b19cfe"/>
          <path id="Trazado_1283473" data-name="Trazado 1283473" d="M399.985,284.076c-3.49,0-6.329-2.574-6.329-5.739s2.839-5.738,6.329-5.738,6.329,2.574,6.329,5.738-2.839,5.739-6.329,5.739m0-10.775a5.06,5.06,0,1,0,5.554,5.036,5.32,5.32,0,0,0-5.554-5.036" transform="translate(0 -25.442)" fill="#b19cfe"/>
          <path id="Trazado_1283474" data-name="Trazado 1283474" d="M429.129,226H374.892c-5.015,0-9.081-3.687-9.081-8.233V201.412c0-4.548,4.066-8.233,9.081-8.233h54.237c5.015,0,9.081,3.686,9.081,8.233v16.354c0,4.547-4.066,8.233-9.081,8.233" transform="translate(0 -18.03)" fill="#19538d"/>
          <rect id="Rectángulo_468238" data-name="Rectángulo 468238" width="22.782" height="1.874" transform="translate(211.631 213.978)" fill="#0f1b63"/>
          <rect id="Rectángulo_468239" data-name="Rectángulo 468239" width="52.757" height="1.874" transform="translate(240.256 213.978)" fill="#0f1b63"/>
          <path id="Trazado_1283475" data-name="Trazado 1283475" d="M265.974,253.594c-9.056,0-18.132-.01-27.166-.03l0-1.874c18.066.04,36.3.04,54.2,0l.005,1.874c-8.95.02-17.985.03-27.041.03" transform="translate(0 -23.491)" fill="#0f1b63"/>
          <rect id="Rectángulo_468240" data-name="Rectángulo 468240" width="62.505" height="1.874" transform="translate(230.508 221.089)" fill="#0f1b63"/>
          <rect id="Rectángulo_468241" data-name="Rectángulo 468241" width="65.906" height="1.874" transform="translate(227.107 235.34)" fill="#0f1b63"/>
          <rect id="Rectángulo_468242" data-name="Rectángulo 468242" width="75.046" height="1.874" transform="translate(217.967 242.451)" fill="#0f1b63"/>
          <rect id="Rectángulo_468243" data-name="Rectángulo 468243" width="35.285" height="1.874" transform="translate(88.508 106.824)" fill="#b19cfe"/>
          <rect id="Rectángulo_468244" data-name="Rectángulo 468244" width="36.412" height="1.874" transform="translate(169.39 106.824)" fill="#b19cfe"/>
          <rect id="Rectángulo_468245" data-name="Rectángulo 468245" width="25.258" height="1.874" transform="translate(180.544 113.935)" fill="#ffc655"/>
          <rect id="Rectángulo_468246" data-name="Rectángulo 468246" width="35.648" height="1.874" transform="translate(170.154 128.186)" fill="#ffc655"/>
          <rect id="Rectángulo_468247" data-name="Rectángulo 468247" width="42.63" height="1.874" transform="translate(163.172 135.297)" fill="#ffc655"/>
          <rect id="Rectángulo_468248" data-name="Rectángulo 468248" width="54.835" height="1.874" transform="translate(150.967 143.611)" fill="#ffc655"/>
          <rect id="Rectángulo_468249" data-name="Rectángulo 468249" width="35.285" height="1.874" transform="translate(129.512 106.824)" fill="#ffc655"/>
          <path id="Trazado_1283476" data-name="Trazado 1283476" d="M177.317,135.41c-5.39,0-10.8-.007-21.617-.021l-7.033-.008,0-1.874,7.034.009c21.632.027,21.634.027,43.113,0l6.986-.009v1.874l-6.983.008c-10.741.014-16.112.021-21.5.021" transform="translate(0 -12.461)" fill="#ffc655"/>
          <path id="Trazado_1283477" data-name="Trazado 1283477" d="M115.547,135.41c-9.056,0-18.091-.01-27.041-.029l0-1.874c17.9.039,36.133.039,54.2,0l0,1.874c-9.034.019-18.111.029-27.166.029" transform="translate(0 -12.461)" fill="#b19cfe"/>
          <rect id="Rectángulo_468250" data-name="Rectángulo 468250" width="87.025" height="1.874" transform="translate(88.508 113.935)" fill="#b19cfe"/>
          <rect id="Rectángulo_468251" data-name="Rectángulo 468251" width="57.628" height="1.874" transform="translate(88.508 143.611)" fill="#b19cfe"/>
          <rect id="Rectángulo_468252" data-name="Rectángulo 468252" width="77.146" height="1.874" transform="translate(88.508 128.186)" fill="#b19cfe"/>
          <rect id="Rectángulo_468253" data-name="Rectángulo 468253" width="69.917" height="1.874" transform="translate(88.507 135.297)" fill="#b19cfe"/>
          <path id="Trazado_1283478" data-name="Trazado 1283478" d="M82.547,118.722a1.432,1.432,0,1,1-1.425-1.292,1.363,1.363,0,0,1,1.425,1.292" transform="translate(0 -10.96)" fill="#d42190"/>
          <path id="Trazado_1283479" data-name="Trazado 1283479" d="M82.547,126.565a1.432,1.432,0,1,1-1.425-1.292,1.363,1.363,0,0,1,1.425,1.292" transform="translate(0 -11.692)" fill="#d42190"/>
          <path id="Trazado_1283480" data-name="Trazado 1283480" d="M82.547,134.407a1.432,1.432,0,1,1-1.425-1.291,1.363,1.363,0,0,1,1.425,1.291" transform="translate(0 -12.424)" fill="#d42190"/>
          <path id="Trazado_1283481" data-name="Trazado 1283481" d="M82.547,142.25a1.432,1.432,0,1,1-1.425-1.291,1.364,1.364,0,0,1,1.425,1.291" transform="translate(0 -13.156)" fill="#d42190"/>
          <path id="Trazado_1283482" data-name="Trazado 1283482" d="M82.547,150.126a1.432,1.432,0,1,1-1.425-1.292,1.363,1.363,0,0,1,1.425,1.292" transform="translate(0 -13.891)" fill="#d42190"/>
          <path id="Trazado_1283483" data-name="Trazado 1283483" d="M82.547,159.3A1.432,1.432,0,1,1,81.122,158a1.363,1.363,0,0,1,1.425,1.292" transform="translate(0 -14.747)" fill="#d42190"/>
          <path id="Trazado_1283484" data-name="Trazado 1283484" d="M215.208,159.721a.494.494,0,0,1-.517-.469V117.646a.519.519,0,0,1,1.034,0v41.607a.494.494,0,0,1-.517.469" transform="translate(0 -10.936)" fill="#d42190"/>
          <path id="Trazado_1283485" data-name="Trazado 1283485" d="M127.243,259.961h-3.177a.482.482,0,1,1,0-.96h3.177a.482.482,0,1,1,0,.96m-6.353,0h-3.177a.482.482,0,1,1,0-.96h3.177a.482.482,0,1,1,0,.96m-6.353,0H113.25a4.611,4.611,0,0,1-2.067-.484.457.457,0,0,1-.206-.653.56.56,0,0,1,.719-.186,3.479,3.479,0,0,0,1.554.363h1.287a.482.482,0,1,1,0,.96M109.6,257.3a.52.52,0,0,1-.516-.378,3.555,3.555,0,0,1-.1-.826v-2.15a.532.532,0,0,1,1.059,0v2.15a2.733,2.733,0,0,0,.073.622.482.482,0,0,1-.4.571.616.616,0,0,1-.114.011m-.085-5.754a.506.506,0,0,1-.529-.481v-2.88a.532.532,0,0,1,1.059,0v2.88a.507.507,0,0,1-.53.481m0-5.76a.506.506,0,0,1-.529-.481v-2.88a.532.532,0,0,1,1.059,0v2.88a.507.507,0,0,1-.53.481m0-5.76a.506.506,0,0,1-.529-.481v-2.88a.532.532,0,0,1,1.059,0v2.88a.507.507,0,0,1-.53.481m0-5.76a.506.506,0,0,1-.529-.481v-.351a3.665,3.665,0,0,1,1.133-2.626.57.57,0,0,1,.749-.026.45.45,0,0,1,.029.678,2.757,2.757,0,0,0-.852,1.974v.351a.507.507,0,0,1-.53.481m19.714-3.739h-3.176a.482.482,0,1,1,0-.96h3.176a.482.482,0,1,1,0,.96m-6.353,0H119.7a.482.482,0,1,1,0-.96h3.177a.482.482,0,1,1,0,.96m-6.353,0h-3.176a.482.482,0,1,1,0-.96h3.176a.482.482,0,1,1,0,.96" transform="translate(0 -21.426)" fill="#0f1b63"/>
          <rect id="Rectángulo_468254" data-name="Rectángulo 468254" width="17.006" height="1.92" transform="translate(121.76 226.07)" fill="#0f1b63"/>
          <rect id="Rectángulo_468255" data-name="Rectángulo 468255" width="27.472" height="1.92" transform="translate(143.216 226.07)" fill="#0f1b63"/>
          <rect id="Rectángulo_468256" data-name="Rectángulo 468256" width="17.005" height="1.92" transform="translate(153.683 242.405)" fill="#0f1b63"/>
          <rect id="Rectángulo_468257" data-name="Rectángulo 468257" width="27.473" height="1.92" transform="translate(121.76 242.405)" fill="#0f1b63"/>
          <rect id="Rectángulo_468258" data-name="Rectángulo 468258" width="29.909" height="1.92" transform="translate(121.76 231.634)" fill="#0f1b63"/>
          <rect id="Rectángulo_468259" data-name="Rectángulo 468259" width="14.568" height="1.92" transform="translate(156.12 231.634)" fill="#0f1b63"/>
          <rect id="Rectángulo_468260" data-name="Rectángulo 468260" width="24.613" height="1.92" transform="translate(121.76 237.094)" fill="#0f1b63"/>
          <rect id="Rectángulo_468261" data-name="Rectángulo 468261" width="16.701" height="1.92" transform="translate(153.987 237.094)" fill="#0f1b63"/>
          <rect id="Rectángulo_468262" data-name="Rectángulo 468262" width="8.902" height="15.029" transform="translate(121.76 202.874)" fill="#68eae0"/>
          <rect id="Rectángulo_468263" data-name="Rectángulo 468263" width="8.902" height="20.734" transform="translate(135.726 197.168)" fill="#ffb758"/>
          <rect id="Rectángulo_468264" data-name="Rectángulo 468264" width="8.902" height="32.562" transform="translate(149.232 185.34)" fill="#19538d"/>
          <rect id="Rectángulo_468265" data-name="Rectángulo 468265" width="3.195" height="1.92" transform="translate(148.725 237.094)" fill="#0f1b63"/>
          <rect id="Rectángulo_468266" data-name="Rectángulo 468266" width="66.639" height="67.411" transform="translate(225.573 134.328)" fill="#7dd3ff"/>
          <rect id="Rectángulo_468267" data-name="Rectángulo 468267" width="46.466" height="1.405" transform="translate(230.954 146.309)" fill="#fff"/>
          <path id="Trazado_1283486" data-name="Trazado 1283486" d="M254.137,174.055c-7.98,0-15.945-.007-23.185-.024l0-1.405c14.478.033,31.849.033,46.462,0l0,1.405c-7.308.016-15.3.024-23.285.024" transform="translate(0 -16.112)" fill="#fff"/>
          <rect id="Rectángulo_468268" data-name="Rectángulo 468268" width="46.466" height="1.405" transform="translate(230.954 151.412)" fill="#fff"/>
          <rect id="Rectángulo_468269" data-name="Rectángulo 468269" width="33.874" height="1.405" transform="translate(230.954 161.641)" fill="#fff"/>
          <rect id="Rectángulo_468270" data-name="Rectángulo 468270" width="46.466" height="1.405" transform="translate(230.954 195.99)" fill="#fff"/>
          <path id="Trazado_1283487" data-name="Trazado 1283487" d="M277.418,206.313c-14.615-.032-31.985-.032-46.462,0l0-1.405c14.481-.031,31.854-.031,46.47,0Z" transform="translate(0 -19.122)" fill="#fff"/>
          <rect id="Rectángulo_468271" data-name="Rectángulo 468271" width="46.466" height="1.405" transform="translate(230.954 190.888)" fill="#fff"/>
          <rect id="Rectángulo_468272" data-name="Rectángulo 468272" width="33.874" height="1.405" transform="translate(230.954 180.659)" fill="#fff"/>
          <path id="Trazado_1283488" data-name="Trazado 1283488" d="M293.245,216.4H224.539V147.1h68.706Zm-67.672-.937h66.639V148.036H225.573Z" transform="translate(0 -13.729)" fill="#542fd0"/>
          <rect id="Rectángulo_468273" data-name="Rectángulo 468273" width="67.673" height="8.075" transform="translate(225.055 133.838)" fill="#19538d"/>
          <path id="Trazado_1283489" data-name="Trazado 1283489" d="M273.4,194.292a.826.826,0,0,1-.514-.176l-5.207-4.172a.661.661,0,0,1,0-1.053l5.207-4.172a.832.832,0,0,1,1.1.061.659.659,0,0,1-.067.992l-4.551,3.646,4.551,3.645a.659.659,0,0,1,.067.992.808.808,0,0,1-.581.238" transform="translate(0 -17.224)" fill="#fff"/>
          <path id="Trazado_1283490" data-name="Trazado 1283490" d="M281.436,194.293a.808.808,0,0,1-.581-.238.659.659,0,0,1,.067-.992l4.551-3.645-4.551-3.646a.659.659,0,0,1-.067-.992.834.834,0,0,1,1.1-.061l5.207,4.172a.661.661,0,0,1,0,1.053l-5.207,4.173a.826.826,0,0,1-.514.176" transform="translate(0 -17.224)" fill="#fff"/>
          <path id="Trazado_1283491" data-name="Trazado 1283491" d="M231.465,151.831l1.805-1.637a.37.37,0,0,0,0-.56.469.469,0,0,0-.618,0l-1.8,1.637-1.8-1.637a.47.47,0,0,0-.619,0,.372.372,0,0,0,0,.56l1.806,1.637-1.806,1.637a.373.373,0,0,0,0,.561.474.474,0,0,0,.619,0l1.8-1.637,1.8,1.637a.472.472,0,0,0,.618,0,.371.371,0,0,0,0-.561Z" transform="translate(0 -13.955)" fill="#fff"/>
          <path id="Trazado_1283492" data-name="Trazado 1283492" d="M239.208,154.145a2.324,2.324,0,1,1,2.551-2.314,2.445,2.445,0,0,1-2.551,2.314m0-3.886a1.58,1.58,0,1,0,1.734,1.572,1.661,1.661,0,0,0-1.734-1.572" transform="translate(0 -13.955)" fill="#fff"/>
          <path id="Trazado_1283493" data-name="Trazado 1283493" d="M249.079,154.538h-4.158a.4.4,0,1,1,0-.792h4.158a.4.4,0,1,1,0,.792" transform="translate(0 -14.35)" fill="#fff"/>
          <path id="Trazado_1283494" data-name="Trazado 1283494" d="M204.277,46.008l-6.018,1.726a3.707,3.707,0,0,0-.569.217,28.334,28.334,0,0,0-6.829-7.312,3.238,3.238,0,0,0,.341-.48l2.883-5.092a3.094,3.094,0,0,0-1.542-4.347L186.928,28.1a3.752,3.752,0,0,0-4.8,1.4l-2.883,5.092a3.113,3.113,0,0,0-.231.529,33.271,33.271,0,0,0-10.248-.792,3.011,3.011,0,0,0-.132-.548l-1.9-5.456a3.65,3.65,0,0,0-4.471-2.105l-6.018,1.726A3.184,3.184,0,0,0,153.924,32l1.9,5.456a2.99,2.99,0,0,0,.239.516A29.715,29.715,0,0,0,148,44.165a3.65,3.65,0,0,0-.529-.308l-5.615-2.614a3.87,3.87,0,0,0-2.7-.207l-.017,0a3.468,3.468,0,0,0-2.078,1.6l-2.883,5.092a3.093,3.093,0,0,0,1.542,4.347l5.615,2.615a3.864,3.864,0,0,0,.583.208,24.983,24.983,0,0,0-.873,9.293,3.927,3.927,0,0,0-.6.119l-6.018,1.726a3.185,3.185,0,0,0-2.322,4.053l1.9,5.457a3.65,3.65,0,0,0,4.47,2.105l6.019-1.726a3.7,3.7,0,0,0,.568-.218,28.346,28.346,0,0,0,6.83,7.314,3.234,3.234,0,0,0-.341.479L148.669,88.6a2.938,2.938,0,0,0-.223,2.463,3.316,3.316,0,0,0,1.764,1.884l5.616,2.615a3.883,3.883,0,0,0,2.7.2,3.486,3.486,0,0,0,2.1-1.6l2.884-5.091a3.042,3.042,0,0,0,.228-.529,33.291,33.291,0,0,0,10.251.792,3,3,0,0,0,.131.547l1.9,5.456a3.649,3.649,0,0,0,4.471,2.105l6.018-1.725a3.186,3.186,0,0,0,2.322-4.054l-1.9-5.456a3.024,3.024,0,0,0-.24-.516,29.727,29.727,0,0,0,8.067-6.193,3.651,3.651,0,0,0,.528.31L200.9,82.42a3.885,3.885,0,0,0,2.7.2,3.486,3.486,0,0,0,2.1-1.6l2.883-5.091a3.1,3.1,0,0,0-1.542-4.348l-5.615-2.614a3.767,3.767,0,0,0-.584-.209,24.978,24.978,0,0,0,.874-9.292,3.809,3.809,0,0,0,.6-.119l6.018-1.725a3.185,3.185,0,0,0,2.322-4.054l-1.9-5.456a3.65,3.65,0,0,0-4.471-2.105M176.422,76.293c-8.795,2.522-18.214-1.913-21-9.887s2.11-16.514,10.906-19.036,18.213,1.913,20.995,9.888-2.11,16.513-10.9,19.035" transform="translate(0 -2.433)" fill="#0f1b63"/>
          <path id="Trazado_1283495" data-name="Trazado 1283495" d="M196.678,187.652l-1.463,3.248a1.894,1.894,0,0,0-.11.328,20.44,20.44,0,0,0-6.478.051,1.872,1.872,0,0,0-.116-.334L187,187.718a2.275,2.275,0,0,0-2.865-1.046l-3.56,1.374a1.919,1.919,0,0,0-1.154,2.6l1.516,3.228a1.985,1.985,0,0,0,.184.306,17.757,17.757,0,0,0-4.43,4.067,2.178,2.178,0,0,0-.336-.158l-3.582-1.326a2.269,2.269,0,0,0-2.847,1.084l-1.463,3.248a1.924,1.924,0,0,0,1.2,2.582L173.238,205a2.251,2.251,0,0,0,.362.1,15.282,15.282,0,0,0,.055,5.873,2.412,2.412,0,0,0-.368.105l-3.56,1.375a2.076,2.076,0,0,0-1.166,1.073l0,.009a1.8,1.8,0,0,0,.016,1.515l1.516,3.228a2.274,2.274,0,0,0,2.864,1.046l3.561-1.374a2.264,2.264,0,0,0,.336-.169,17.814,17.814,0,0,0,4.488,4.017,2,2,0,0,0-.175.3l-1.462,3.248a1.922,1.922,0,0,0,1.2,2.581l3.582,1.326a2.269,2.269,0,0,0,2.847-1.084l1.463-3.249a1.926,1.926,0,0,0,.11-.328,20.42,20.42,0,0,0,6.479-.05,1.765,1.765,0,0,0,.115.334l1.515,3.228a2.079,2.079,0,0,0,1.193,1.061,2.378,2.378,0,0,0,1.671-.014l3.561-1.375a2.08,2.08,0,0,0,1.165-1.073,1.806,1.806,0,0,0-.011-1.524l-1.516-3.228a1.9,1.9,0,0,0-.185-.306,17.77,17.77,0,0,0,4.431-4.069,2.214,2.214,0,0,0,.335.159l3.583,1.326a2.27,2.27,0,0,0,2.847-1.084l1.462-3.249a1.923,1.923,0,0,0-1.2-2.581l-3.582-1.326a2.249,2.249,0,0,0-.362-.1,15.272,15.272,0,0,0-.056-5.875,2.306,2.306,0,0,0,.368-.1l3.561-1.374a2.078,2.078,0,0,0,1.165-1.074,1.8,1.8,0,0,0-.012-1.523l-1.515-3.229a2.275,2.275,0,0,0-2.864-1.045l-3.561,1.374a2.23,2.23,0,0,0-.337.168,17.823,17.823,0,0,0-4.487-4.017,2,2,0,0,0,.175-.3l1.462-3.248a1.923,1.923,0,0,0-1.2-2.581l-3.582-1.326a2.269,2.269,0,0,0-2.847,1.084m4.818,23.776c-2.138,4.746-8.136,7.031-13.371,5.094s-7.755-7.377-5.617-12.123,8.135-7.031,13.371-5.094,7.755,7.377,5.617,12.123" transform="translate(0 -17.399)" fill="#68c6ea"/>
          <path id="Trazado_1283496" data-name="Trazado 1283496" d="M172.953,169.215l-1.9,1.749a1.507,1.507,0,0,0-.168.186,13.794,13.794,0,0,0-4.21-1.536,1.168,1.168,0,0,0,.023-.244l-.03-2.458a1.47,1.47,0,0,0-1.547-1.371l-2.71.028a1.462,1.462,0,0,0-1.513,1.4l.031,2.458a1.315,1.315,0,0,0,.029.243,13.728,13.728,0,0,0-4.067,1.561,1.522,1.522,0,0,0-.171-.184l-1.929-1.726a1.645,1.645,0,0,0-2.163.014l-1.9,1.749a1.3,1.3,0,0,0,.014,1.961l1.929,1.726a1.445,1.445,0,0,0,.205.152,11.192,11.192,0,0,0-1.694,3.817,1.761,1.761,0,0,0-.269-.021l-2.711.028a1.6,1.6,0,0,0-1.071.412l-.005.005a1.31,1.31,0,0,0-.436.985l.031,2.458a1.468,1.468,0,0,0,1.546,1.371l2.711-.027a1.737,1.737,0,0,0,.268-.027,11.224,11.224,0,0,0,1.722,3.688,1.443,1.443,0,0,0-.2.154l-1.9,1.75a1.3,1.3,0,0,0,.014,1.961l1.929,1.726a1.646,1.646,0,0,0,2.163-.013l1.9-1.75a1.311,1.311,0,0,0,.168-.186,13.778,13.778,0,0,0,4.211,1.537,1.234,1.234,0,0,0-.024.244l.031,2.457a1.318,1.318,0,0,0,.46.976,1.605,1.605,0,0,0,1.086.394l2.711-.027a1.608,1.608,0,0,0,1.071-.413,1.317,1.317,0,0,0,.441-.989l-.03-2.457a1.218,1.218,0,0,0-.031-.243,13.741,13.741,0,0,0,4.069-1.562,1.325,1.325,0,0,0,.171.184l1.929,1.726a1.645,1.645,0,0,0,2.163-.013l1.9-1.749a1.3,1.3,0,0,0-.014-1.962l-1.93-1.726a1.526,1.526,0,0,0-.205-.152,11.173,11.173,0,0,0,1.7-3.818,1.637,1.637,0,0,0,.269.023l2.71-.028a1.606,1.606,0,0,0,1.071-.413,1.317,1.317,0,0,0,.441-.989l-.03-2.457a1.47,1.47,0,0,0-1.547-1.372l-2.71.028a1.741,1.741,0,0,0-.268.026,11.215,11.215,0,0,0-1.723-3.687,1.53,1.53,0,0,0,.2-.155l1.9-1.749a1.3,1.3,0,0,0-.014-1.961l-1.929-1.726A1.646,1.646,0,0,0,172.953,169.215Zm-3.883,16.564a7.728,7.728,0,0,1-10.16.061,6.1,6.1,0,0,1-.066-9.212,7.726,7.726,0,0,1,10.159-.06A6.1,6.1,0,0,1,169.07,185.779Z" transform="translate(0 -15.45)" fill="none" stroke="#b19cfe" stroke-miterlimit="10" stroke-width="0.5"/>
          <rect id="Rectángulo_468274" data-name="Rectángulo 468274" width="12.355" height="1.874" transform="translate(8.354 130.917)" fill="#0f1b63"/>
          <rect id="Rectángulo_468275" data-name="Rectángulo 468275" width="31.514" height="1.874" transform="translate(25.815 130.917)" fill="#0f1b63"/>
          <rect id="Rectángulo_468276" data-name="Rectángulo 468276" width="19.507" height="1.874" transform="translate(37.822 151.035)" fill="#0f1b63"/>
          <rect id="Rectángulo_468277" data-name="Rectángulo 468277" width="24.363" height="1.874" transform="translate(8.354 151.035)" fill="#0f1b63"/>
          <rect id="Rectángulo_468278" data-name="Rectángulo 468278" width="27.158" height="1.874" transform="translate(8.354 137.768)" fill="#0f1b63"/>
          <rect id="Rectángulo_468279" data-name="Rectángulo 468279" width="16.712" height="1.874" transform="translate(40.617 137.768)" fill="#0f1b63"/>
          <rect id="Rectángulo_468280" data-name="Rectángulo 468280" width="21.082" height="1.874" transform="translate(8.354 144.496)" fill="#0f1b63"/>
          <rect id="Rectángulo_468281" data-name="Rectángulo 468281" width="19.159" height="1.874" transform="translate(38.17 144.496)" fill="#0f1b63"/>
          <rect id="Rectángulo_468282" data-name="Rectángulo 468282" width="3.665" height="1.874" transform="translate(32.135 144.496)" fill="#0f1b63"/>
          <rect id="Rectángulo_468283" data-name="Rectángulo 468283" width="12.355" height="1.874" transform="translate(333.982 306.41)" fill="#0f1b63"/>
          <rect id="Rectángulo_468284" data-name="Rectángulo 468284" width="31.514" height="1.874" transform="translate(351.442 306.41)" fill="#0f1b63"/>
          <rect id="Rectángulo_468285" data-name="Rectángulo 468285" width="19.507" height="1.874" transform="translate(363.449 326.528)" fill="#0f1b63"/>
          <rect id="Rectángulo_468286" data-name="Rectángulo 468286" width="24.362" height="1.874" transform="translate(333.982 326.528)" fill="#0f1b63"/>
          <rect id="Rectángulo_468287" data-name="Rectángulo 468287" width="27.157" height="1.874" transform="translate(333.982 313.261)" fill="#0f1b63"/>
          <rect id="Rectángulo_468288" data-name="Rectángulo 468288" width="16.711" height="1.874" transform="translate(366.245 313.261)" fill="#0f1b63"/>
          <rect id="Rectángulo_468289" data-name="Rectángulo 468289" width="21.082" height="1.874" transform="translate(333.982 319.988)" fill="#0f1b63"/>
          <rect id="Rectángulo_468290" data-name="Rectángulo 468290" width="19.159" height="1.874" transform="translate(363.797 319.988)" fill="#0f1b63"/>
          <rect id="Rectángulo_468291" data-name="Rectángulo 468291" width="3.665" height="1.874" transform="translate(357.762 319.988)" fill="#0f1b63"/>
          <path id="Trazado_1283497" data-name="Trazado 1283497" d="M375.046,81l-4.852.942a3.029,3.029,0,0,0-.464.131,21.677,21.677,0,0,0-4.739-6.186,2.569,2.569,0,0,0,.306-.353l2.677-3.788a2.4,2.4,0,0,0-.848-3.507l-4.178-2.427a2.98,2.98,0,0,0-3.868.769L356.4,70.371a2.532,2.532,0,0,0-.225.4,25.967,25.967,0,0,0-7.954-1.316,2.269,2.269,0,0,0-.058-.437l-1.038-4.4a2.815,2.815,0,0,0-3.325-1.951l-4.852.942a2.554,2.554,0,0,0-2.152,3.014l1.039,4.4a2.38,2.38,0,0,0,.145.421,23.982,23.982,0,0,0-6.823,4.3,2.8,2.8,0,0,0-.388-.277l-4.179-2.426a3.014,3.014,0,0,0-2.1-.345l-.013,0a2.8,2.8,0,0,0-1.759,1.111l-2.676,3.788h0A2.4,2.4,0,0,0,320.9,81.1l4.178,2.427a2.833,2.833,0,0,0,.44.2,19.77,19.77,0,0,0-1.452,7.213,3.039,3.039,0,0,0-.482.053l-4.852.941a2.555,2.555,0,0,0-2.152,3.015l1.039,4.4a2.815,2.815,0,0,0,3.325,1.951l4.852-.942a3.049,3.049,0,0,0,.463-.131,21.671,21.671,0,0,0,4.74,6.187,2.648,2.648,0,0,0-.307.351l-2.676,3.788a2.327,2.327,0,0,0-.378,1.913,2.537,2.537,0,0,0,1.225,1.595l4.178,2.427a3.036,3.036,0,0,0,2.1.344,2.812,2.812,0,0,0,1.772-1.112l2.676-3.788a2.381,2.381,0,0,0,.223-.4,25.986,25.986,0,0,0,7.956,1.316,2.288,2.288,0,0,0,.058.437l1.039,4.4a2.814,2.814,0,0,0,3.324,1.951l4.852-.942a2.554,2.554,0,0,0,2.152-3.014l-1.039-4.4a2.318,2.318,0,0,0-.145-.42,23.976,23.976,0,0,0,6.824-4.3,2.89,2.89,0,0,0,.387.278l4.179,2.426a3.028,3.028,0,0,0,2.1.344,2.808,2.808,0,0,0,1.772-1.112l2.677-3.788a2.4,2.4,0,0,0-.847-3.507l-4.179-2.427a2.917,2.917,0,0,0-.439-.2,19.784,19.784,0,0,0,1.451-7.212,3.015,3.015,0,0,0,.482-.053l4.852-.942a2.554,2.554,0,0,0,2.152-3.014l-1.039-4.4A2.814,2.814,0,0,0,375.046,81m-24.3,21.808c-7.091,1.376-14.1-2.734-15.613-9.163s3.015-12.779,10.106-14.156,14.1,2.734,15.613,9.163-3.015,12.779-10.106,14.156" transform="translate(0 -5.844)" fill="#0f1b63"/>
        </g>
      </g>
      <path id="Trazado_1283498" data-name="Trazado 1283498" d="M267.782,79.009l-8.323,2.764,8.323,2.742v2.833l-11.9-4.1V80.3l11.9-4.1Zm8.952-8.385h3.474L271.96,91.971h-3.474ZM292.557,80.3v2.947l-11.9,4.1V84.515l8.323-2.742-8.323-2.764V76.2Z" transform="translate(0 -6.592)" fill="#fff"/>
      <text id="HTML" transform="translate(46.236 316.325)" fill="#fff" font-size="16" font-family="SegoeUI, Segoe UI"><tspan x="0" y="0">HTML</tspan></text>
      <text id="JS" transform="translate(88.52 177.424)" fill="#fff" font-size="17" font-family="SegoeUI, Segoe UI"><tspan x="0" y="0">JS</tspan></text>
      <text id="C_" data-name="C++" transform="translate(268.34 297.558)" fill="#fff" font-size="21" font-family="SegoeUI, Segoe UI"><tspan x="0" y="0" letter-spacing="-0.005em">C</tspan><tspan y="0" letter-spacing="0.006em">+</tspan><tspan y="0">+</tspan></text>
      <text id="JAVA" transform="translate(382.21 198.424)" fill="#fff" font-size="16" font-family="SegoeUI, Segoe UI"><tspan x="0" y="0" letter-spacing="-0.014em">J</tspan><tspan y="0" letter-spacing="-0.037em">AV</tspan><tspan y="0">A</tspan></text>
    </g>
  </g>
</svg>
