<svg xmlns="http://www.w3.org/2000/svg" xmlns:xlink="http://www.w3.org/1999/xlink" width="69.323" height="69.323" viewBox="0 0 69.323 69.323">
  <defs>
    <clipPath id="clip-path">
      <rect id="Rectangle_468190" data-name="Rectangle 468190" width="44.866" height="44.773" fill="#fff"/>
    </clipPath>
  </defs>
  <g id="img13" transform="translate(-612 -3064)">
    <rect id="Rectangle_467360" data-name="Rectangle 467360" width="69.323" height="69.323" transform="translate(612 3064)" fill="#19538d"/>
    <g id="Group_1214691" data-name="Group 1214691" transform="translate(624 3076)">
      <g id="Group_1214690" data-name="Group 1214690" clip-path="url(#clip-path)">
        <path id="Path_1283429" data-name="Path 1283429" d="M157.468,143.562a13.248,13.248,0,1,1-13.248-13.248,13.248,13.248,0,0,1,13.248,13.248m-10.4-3.066a13,13,0,0,0-1.779-5.25,2.162,2.162,0,0,0-1.188-.866c-1.757,1.209-2.364,3.976-2.729,6.128Zm-9.826-.035.672-3.541A8.458,8.458,0,0,0,135.6,140.5Zm15.606-.036a8.918,8.918,0,0,0-2.308-3.5l.685,3.583Zm-15.761,4.151-1.991.005a9.191,9.191,0,0,0,2.841,5.648,31.341,31.341,0,0,1-.85-5.654m9,5.834a18.5,18.5,0,0,0,1.179-5.835l-6.064,0a16.108,16.108,0,0,0,1.556,6.637c.372.622.857,1.421,1.562,1.512a4.786,4.786,0,0,0,1.766-2.317m7.272-5.832-2.005,0a31.908,31.908,0,0,1-.831,5.647,9.244,9.244,0,0,0,2.836-5.651" transform="translate(-112.602 -112.037)" fill="#fff"/>
        <path id="Path_1283430" data-name="Path 1283430" d="M6.279,4.019c-.949,0-2.17.645-2.17,1.741l0,33.2c0,1.138,1.319,1.814,2.26,1.735H19.393v4.05l-13.722,0A6.116,6.116,0,0,1,0,38.648l.009-32.7A5.92,5.92,0,0,1,5.663.022L16.206,0a5.555,5.555,0,0,1,3.645,1.535L29.3,10.159a6.338,6.338,0,0,1,2.316,5.093L21.127,15.2A6.02,6.02,0,0,1,15.3,9.12l-.008-5.1Z" transform="translate(0 0)" fill="#fff"/>
      </g>
    </g>
  </g>
</svg>
