<svg xmlns="http://www.w3.org/2000/svg" xmlns:xlink="http://www.w3.org/1999/xlink" width="96" height="96" viewBox="0 0 96 96">
  <defs>
    <clipPath id="clip-path">
      <rect id="Rectángulo_456267" data-name="Rectángulo 456267" width="96" height="96" fill="none"/>
    </clipPath>
    <clipPath id="clip-path-2">
      <rect id="Rectángulo_468188" data-name="Rectángulo 468188" width="49.688" height="49.063" fill="#0f654d"/>
    </clipPath>
  </defs>
  <g id="Grupo_1214055" data-name="Grupo 1214055" transform="translate(479.746 8495) rotate(180)">
    <path id="Trazado_999622" data-name="Trazado 999622" d="M43.07,0A43.07,43.07,0,1,1,0,43.07,43.071,43.071,0,0,1,43.07,0" transform="translate(388.676 8403.93)" fill="#e3fbf9"/>
    <g id="Grupo_1179902" data-name="Grupo 1179902" transform="translate(383.746 8399)">
      <g id="Grupo_1179905" data-name="Grupo 1179905" clip-path="url(#clip-path)">
        <path id="Trazado_999618" data-name="Trazado 999618" d="M48,0A48,48,0,1,1,0,48,48,48,0,0,1,48,0" fill="none"/>
        <path id="Trazado_999619" data-name="Trazado 999619" d="M3.75,59A3.75,3.75,0,1,1,0,62.75,3.75,3.75,0,0,1,3.75,59" transform="translate(0 -14.75)" fill="#0f654d"/>
        <path id="Trazado_999620" data-name="Trazado 999620" d="M19.75,19A3.75,3.75,0,1,1,16,22.75,3.75,3.75,0,0,1,19.75,19" transform="translate(-4 -4.75)" fill="#0f654d"/>
        <path id="Trazado_999621" data-name="Trazado 999621" d="M49,94A45.051,45.051,0,0,1,4,49H6.25A42.75,42.75,0,1,0,17.806,19.768l-1.641-1.539A45,45,0,1,1,49,94" transform="translate(-1 -1)" fill="#0f654d"/>
        <rect id="Rectángulo_456268" data-name="Rectángulo 456268" width="96" height="96" fill="none"/>
        <rect id="Rectángulo_456269" data-name="Rectángulo 456269" width="96" height="96" fill="none"/>
      </g>
    </g>
    <g id="Grupo_1179903" data-name="Grupo 1179903" transform="translate(458.745 8474.508) rotate(180)">
      <g id="Grupo_1099618" data-name="Grupo 1099618" transform="translate(-0.247 -0.32)">
        <rect id="Rectángulo_401104" data-name="Rectángulo 401104" width="54.153" height="54.806" transform="translate(0)" fill="none"/>
      </g>
      <g id="Grupo_1214687" data-name="Grupo 1214687" transform="translate(1.753 2.68)">
        <g id="Grupo_1214686" data-name="Grupo 1214686" clip-path="url(#clip-path-2)">
          <path id="Trazado_1283385" data-name="Trazado 1283385" d="M15.925,40.891a6.039,6.039,0,1,1-.671-1.36L40.636,26.625a6.64,6.64,0,0,1,.009-4.161L15.237,9.532a6.109,6.109,0,1,1,.688-1.351l25.42,12.938a6.1,6.1,0,1,1,0,6.845ZM14.77,6.1a4.587,4.587,0,1,0-4.587,4.587A4.587,4.587,0,0,0,14.77,6.1M50.983,24.541A4.584,4.584,0,1,0,46.4,29.125a4.584,4.584,0,0,0,4.584-4.584M14.767,42.959a4.585,4.585,0,1,0-4.585,4.585,4.585,4.585,0,0,0,4.585-4.585" transform="translate(-3.469 0)" fill="#0f654d"/>
          <path id="Trazado_1283386" data-name="Trazado 1283386" d="M34.175,161.978H28a.829.829,0,0,1-.859-.713.877.877,0,0,1,.708-.824h6.474a.876.876,0,0,1,.715.824.83.83,0,0,1-.864.712" transform="translate(-23.075 -136.41)" fill="#0f654d"/>
          <path id="Trazado_1283387" data-name="Trazado 1283387" d="M130.608,161.969l-6.165-.009c-.355,0-.648-.52-.617-.823a.863.863,0,0,1,.758-.707l6.026,0a.956.956,0,0,1,.74.707.845.845,0,0,1-.741.828" transform="translate(-105.278 -136.401)" fill="#0f654d"/>
          <path id="Trazado_1283388" data-name="Trazado 1283388" d="M164.526,37.216l-6.1,0a.843.843,0,0,1-.778-.729.808.808,0,0,1,.8-.825l5.995.005a.983.983,0,0,1,.744.691.993.993,0,0,1-.656.86" transform="translate(-134.033 -30.319)" fill="#0f654d"/>
          <path id="Trazado_1283389" data-name="Trazado 1283389" d="M140.018,314.008l-5.712,0a.841.841,0,0,1-.814-.674c-.038-.332.281-.839.653-.839l6.033,0c.373,0,.692.509.651.84a.839.839,0,0,1-.81.678" transform="translate(-113.495 -265.686)" fill="#0f654d"/>
          <path id="Trazado_1283390" data-name="Trazado 1283390" d="M140.034,7.913l-5.706,0a.832.832,0,0,1-.809-.674.807.807,0,0,1,.8-.863h5.723a.868.868,0,0,1,.8.7.782.782,0,0,1-.815.833" transform="translate(-113.518 -5.424)" fill="#0f654d"/>
          <path id="Trazado_1283391" data-name="Trazado 1283391" d="M289.532,255.332l-5.953.024a.823.823,0,0,1-.754-.735.791.791,0,0,1,.789-.8l5.669-.005a.979.979,0,0,1,.846.561c.108.262-.185.95-.6.952" transform="translate(-240.463 -215.803)" fill="#0f654d"/>
          <path id="Trazado_1283392" data-name="Trazado 1283392" d="M289.334,7.894h-5.716a.839.839,0,0,1-.751-.68.788.788,0,0,1,.754-.852l5.725-.007a.882.882,0,0,1,.821.7.793.793,0,0,1-.834.835" transform="translate(-240.498 -5.403)" fill="#0f654d"/>
          <path id="Trazado_1283393" data-name="Trazado 1283393" d="M6.605,132.925l-5.956,0c-.327,0-.649-.529-.624-.8a.8.8,0,0,1,.884-.694l5.57,0a.814.814,0,0,1,.854.719.823.823,0,0,1-.726.773" transform="translate(-0.02 -111.745)" fill="#0f654d"/>
          <path id="Trazado_1283394" data-name="Trazado 1283394" d="M140.124,255.36l-5.807.008a.877.877,0,0,1-.8-.73.819.819,0,0,1,.836-.8h5.669a.892.892,0,0,1,.818.649.8.8,0,0,1-.715.873" transform="translate(-113.518 -215.818)" fill="#0f654d"/>
          <path id="Trazado_1283395" data-name="Trazado 1283395" d="M258.88,284.622l-6.395.006a.757.757,0,1,1,0-1.514h6.329a.953.953,0,0,1,.792.6.774.774,0,0,1-.726.909" transform="translate(-214.01 -240.71)" fill="#0f654d"/>
          <path id="Trazado_1283396" data-name="Trazado 1283396" d="M164.535,284.627l-6.116.01a.819.819,0,0,1-.785-.767.851.851,0,0,1,.785-.747h6.036a.974.974,0,0,1,.708.625c.062.278-.211.88-.628.88" transform="translate(-134.024 -240.716)" fill="#0f654d"/>
          <path id="Trazado_1283397" data-name="Trazado 1283397" d="M153.872,132.919l-3.97.013a.846.846,0,0,1-.714-.779.8.8,0,0,1,.849-.72l3.635,0a.847.847,0,0,1,.87.566.805.805,0,0,1-.669.917" transform="translate(-126.841 -111.747)" fill="#0f654d"/>
          <path id="Trazado_1283398" data-name="Trazado 1283398" d="M153.469,191.251h-3.59c-.36,0-.738-.55-.688-.864a.9.9,0,0,1,.852-.691l3.312.008a.958.958,0,0,1,.815.658.852.852,0,0,1-.7.891" transform="translate(-126.841 -161.282)" fill="#0f654d"/>
          <path id="Trazado_1283399" data-name="Trazado 1283399" d="M105.21,7.879l-1.838.017a.82.82,0,0,1-.773-.677.8.8,0,0,1,.779-.869l1.718.016a.925.925,0,0,1,.749.7c.035.269-.359.806-.636.809" transform="translate(-87.23 -5.399)" fill="#0f654d"/>
          <path id="Trazado_1283400" data-name="Trazado 1283400" d="M95.268,161.947l-1.81.018a.868.868,0,0,1-.75-.695.828.828,0,0,1,.764-.845l1.715-.005a.867.867,0,0,1,.763.7.77.77,0,0,1-.682.829" transform="translate(-78.821 -136.392)" fill="#0f654d"/>
          <path id="Trazado_1283401" data-name="Trazado 1283401" d="M105.17,313.895l-1.8.023a.837.837,0,0,1-.776-.673.764.764,0,0,1,.785-.854l1.559-.016a.918.918,0,0,1,.875.581.821.821,0,0,1-.639.939" transform="translate(-87.222 -265.588)" fill="#0f654d"/>
          <path id="Trazado_1283402" data-name="Trazado 1283402" d="M60.821,132.888l-1.916.016a.846.846,0,0,1-.7-.776.8.8,0,0,1,.846-.726l1.83.028c.257,0,.565.449.581.695s-.346.761-.637.764" transform="translate(-49.483 -111.72)" fill="#0f654d"/>
          <path id="Trazado_1283403" data-name="Trazado 1283403" d="M254.235,7.91l-1.71,0a.837.837,0,0,1-.742-.686.806.806,0,0,1,.752-.843l1.717-.013a.846.846,0,0,1,.754.7.791.791,0,0,1-.771.838" transform="translate(-214.069 -5.418)" fill="#0f654d"/>
          <path id="Trazado_1283404" data-name="Trazado 1283404" d="M254.172,255.4h-1.741a.872.872,0,0,1-.75-.733c-.017-.27.361-.791.652-.789l2.049.013c.266,0,.563.533.548.783a.877.877,0,0,1-.758.724" transform="translate(-213.984 -215.854)" fill="#0f654d"/>
          <path id="Trazado_1283405" data-name="Trazado 1283405" d="M219.713,37.241l-1.861,0c-.284,0-.684-.473-.7-.743a.9.9,0,0,1,.7-.8h1.855a.973.973,0,0,1,.692.683.861.861,0,0,1-.684.855" transform="translate(-184.625 -30.355)" fill="#0f654d"/>
          <path id="Trazado_1283406" data-name="Trazado 1283406" d="M219.5,284.658l-1.731-.013a.874.874,0,0,1-.679-.757.968.968,0,0,1,.681-.741l1.9-.006a.85.85,0,0,1,.678.74.8.8,0,0,1-.853.777" transform="translate(-184.579 -240.732)" fill="#0f654d"/>
          <path id="Trazado_1283407" data-name="Trazado 1283407" d="M195.011,7.94l-1.428.019a.844.844,0,0,1-.722-.686.793.793,0,0,1,.746-.851l1.413,0c.257,0,.656.463.676.718a.87.87,0,0,1-.685.8" transform="translate(-163.973 -5.46)" fill="#0f654d"/>
          <path id="Trazado_1283408" data-name="Trazado 1283408" d="M222.306,7.77l-1.652.067c-.271.011-.682-.445-.706-.7a.854.854,0,0,1,.714-.834l1.3-.031a1.053,1.053,0,0,1,.793.614c.087.24-.192.878-.453.888" transform="translate(-187.003 -5.329)" fill="#0f654d"/>
          <path id="Trazado_1283409" data-name="Trazado 1283409" d="M1.991,162.006H.866A.842.842,0,0,1,0,161.3a.847.847,0,0,1,.7-.834l1.444,0a.921.921,0,0,1,.677.82.866.866,0,0,1-.839.721" transform="translate(0 -136.429)" fill="#0f654d"/>
          <path id="Trazado_1283410" data-name="Trazado 1283410" d="M184.863,162.135l-1.291-.019a.979.979,0,0,1-.724-.684c-.035-.261.324-.825.608-.825l1.673,0c.276,0,.613.561.576.816a.908.908,0,0,1-.843.708" transform="translate(-155.46 -136.551)" fill="#0f654d"/>
          <path id="Trazado_1283411" data-name="Trazado 1283411" d="M212.251,162.146l-1.314.015a.992.992,0,0,1-.811-.6c-.092-.269.234-.917.548-.917l1.688,0c.281,0,.646.555.609.814a.967.967,0,0,1-.72.69" transform="translate(-178.64 -136.581)" fill="#0f654d"/>
          <path id="Trazado_1283412" data-name="Trazado 1283412" d="M104.636,37.187l-1.281.009a.875.875,0,0,1-.76-.728.831.831,0,0,1,.782-.83l1.27,0a.882.882,0,0,1,.76.672.806.806,0,0,1-.771.882" transform="translate(-87.229 -30.296)" fill="#0f654d"/>
          <path id="Trazado_1283413" data-name="Trazado 1283413" d="M195.05,255.369l-1.67.016c-.236,0-.566-.493-.582-.729s.281-.751.527-.755l1.589-.027a.954.954,0,0,1,.73.653c.046.248-.294.839-.594.842" transform="translate(-163.921 -215.849)" fill="#0f654d"/>
          <path id="Trazado_1283414" data-name="Trazado 1283414" d="M222.218,255.329l-1.576.024a.927.927,0,0,1-.7-.731c-.012-.261.345-.771.609-.775l1.525-.024a.944.944,0,0,1,.7.664c.041.289-.293.838-.554.842" transform="translate(-186.997 -215.806)" fill="#0f654d"/>
          <path id="Trazado_1283415" data-name="Trazado 1283415" d="M122.027,132.9l-1.4.013a.957.957,0,0,1-.732-.658c-.038-.326.274-.822.573-.826l1.6-.022c.254,0,.646.433.665.717a.842.842,0,0,1-.7.776" transform="translate(-101.934 -111.729)" fill="#0f654d"/>
          <path id="Trazado_1283416" data-name="Trazado 1283416" d="M131.923,37.111l-1.56.053a.92.92,0,0,1-.751-.746c-.016-.285.362-.79.644-.8l1.414-.034a1.052,1.052,0,0,1,.765.541c.1.284-.216.973-.513.983" transform="translate(-110.199 -30.256)" fill="#0f654d"/>
          <path id="Trazado_1283417" data-name="Trazado 1283417" d="M94.934,133.008l-1.747,0c-.223,0-.534-.423-.578-.628-.05-.233.242-.8.488-.8l1.818-.014c.242,0,.546.466.562.688s-.288.754-.544.754" transform="translate(-78.734 -111.86)" fill="#0f654d"/>
          <path id="Trazado_1283418" data-name="Trazado 1283418" d="M132.079,284.394c-1.206.335-2.493.195-2.49-.633s1.152-.9,2.425-.649c.475.092.614,1.129.065,1.282" transform="translate(-110.179 -240.604)" fill="#0f654d"/>
          <path id="Trazado_1283419" data-name="Trazado 1283419" d="M315.016,284.611l-1.568.04a.982.982,0,0,1-.726-.622c-.049-.241.2-.834.454-.842l1.7-.058c.247-.008.622.427.681.645.067.244-.255.831-.54.838" transform="translate(-265.877 -240.722)" fill="#0f654d"/>
          <path id="Trazado_1283420" data-name="Trazado 1283420" d="M104.736,284.615l-1.39.016a.759.759,0,1,1,0-1.518h1.305a.978.978,0,0,1,.738.606.819.819,0,0,1-.651.894" transform="translate(-87.211 -240.709)" fill="#0f654d"/>
          <path id="Trazado_1283421" data-name="Trazado 1283421" d="M48.721,29.548a.9.9,0,0,1-.934.006.831.831,0,0,1-.126-1.076l1.132-1.134-1.172-1.18a.965.965,0,0,1,.059-1.027.878.878,0,0,1,1-.05L50.4,26.753a.894.894,0,0,1,.023,1.1Z" transform="translate(-40.385 -21.214)" fill="#0f654d"/>
          <path id="Trazado_1283422" data-name="Trazado 1283422" d="M23.505,29.656,21.66,27.869a.867.867,0,0,1-.045-1.061l1.8-1.769a.862.862,0,0,1,.974.1.89.89,0,0,1-.081,1.134l-1.036,1.02L24.362,28.4a1.1,1.1,0,0,1,.078.931c-.1.217-.753.5-.934.327" transform="translate(-18.241 -21.195)" fill="#0f654d"/>
          <path id="Trazado_1283423" data-name="Trazado 1283423" d="M48.621,275.688a.915.915,0,0,1-.972.031.835.835,0,0,1-.121-1.079l1.1-1.111-1.213-1.295a.956.956,0,0,1,.162-.973,1.033,1.033,0,0,1,.97,0l1.764,1.75a.872.872,0,0,1-.02,1.007Z" transform="translate(-40.249 -230.529)" fill="#0f654d"/>
          <path id="Trazado_1283424" data-name="Trazado 1283424" d="M24.395,274.708a1,1,0,0,1-.039.979c-.155.187-.749.36-.945.169l-1.766-1.728a.844.844,0,0,1-.031-1.06l1.7-1.7a1,1,0,0,1,1.024.012.9.9,0,0,1,.114.976l-1.171,1.242Z" transform="translate(-18.23 -230.604)" fill="#0f654d"/>
          <path id="Trazado_1283425" data-name="Trazado 1283425" d="M266.152,151.571a.93.93,0,0,1,.044.991.82.82,0,0,1-1.105.088l-1.615-1.6a.864.864,0,0,1-.01-1.1l1.7-1.692a.838.838,0,0,1,.94-.021.779.779,0,0,1,.111,1.082l-1.125,1.153Z" transform="translate(-223.842 -125.924)" fill="#0f654d"/>
          <path id="Trazado_1283426" data-name="Trazado 1283426" d="M290.529,152.619a.964.964,0,0,1-.985.06c-.21-.167-.359-.819-.168-1.013l1.169-1.184-1.157-1.193a.869.869,0,0,1,.109-1.065.844.844,0,0,1,1.041.079l1.688,1.684a.9.9,0,0,1-.015.966Z" transform="translate(-245.928 -125.901)" fill="#0f654d"/>
        </g>
      </g>
    </g>
  </g>
</svg>
