<svg xmlns="http://www.w3.org/2000/svg" xmlns:xlink="http://www.w3.org/1999/xlink" width="1020" height="523.179" viewBox="0 0 1020 523.179">
  <defs>
    <clipPath id="clip-path">
      <rect id="Rectangle_467388" data-name="Rectangle 467388" width="503.711" height="329.262" transform="translate(0 0)" fill="none"/>
    </clipPath>
    <clipPath id="clip-path-2">
      <rect id="Rectangle_467391" data-name="Rectangle 467391" width="43.827" height="36.73" fill="#f3f9ff"/>
    </clipPath>
    <clipPath id="clip-path-3">
      <rect id="Rectangle_467392" data-name="Rectangle 467392" width="34.217" height="47.12" fill="#19538d"/>
    </clipPath>
    <clipPath id="clip-path-4">
      <rect id="Rectangle_467403" data-name="Rectangle 467403" width="39.166" height="39.563" fill="#19538d"/>
    </clipPath>
    <clipPath id="clip-path-5">
      <rect id="Rectangle_467404" data-name="Rectangle 467404" width="40.857" height="41.226" fill="#19538d"/>
    </clipPath>
    <clipPath id="clip-path-6">
      <rect id="Rectangle_467405" data-name="Rectangle 467405" width="40.462" height="37.986" fill="#19538d"/>
    </clipPath>
  </defs>
  <g id="img19" transform="translate(-290 -4654.712)">
    <rect id="Rectangle_467369" data-name="Rectangle 467369" width="1020" height="523.179" rx="16" transform="translate(290 4654.712)" fill="#c0f6f2"/>
    <g id="Group_1214381" data-name="Group 1214381" transform="translate(306.289 4740.691)">
      <g id="Group_1214380" data-name="Group 1214380" transform="translate(0 -0.002)" clip-path="url(#clip-path)">
        <path id="Path_1282657" data-name="Path 1282657" d="M1622.375,287.458c9.006,29.61-2.995,59.483-26.8,66.725s-50.412-10.891-59.418-40.5,2.995-59.483,26.8-66.725,50.412,10.891,59.417,40.5" transform="translate(-1134.173 -181.511)" fill="#ffe2ba"/>
        <path id="Path_1282658" data-name="Path 1282658" d="M89.787,398.218H498.3c18.659-34.38,44.493-107.837-44.922-148.652,0,0-41.489-14.1-40.975-71.294.334-37.164-35.654-92.015-130.662-59.1-46.408,16.077-89.367-8.03-89.367-8.03S91.873,33.511,56.448,211.2C35.413,316.7,56.88,370.97,89.787,398.218" transform="translate(-35.576 -69.729)" fill="#ffe2bc"/>
        <path id="Path_1282659" data-name="Path 1282659" d="M547.389,1256.064a8.583,8.583,0,0,1-.932-.765,8.6,8.6,0,0,0,.932.765" transform="translate(-404.248 -928.621)" fill="#4a81c2"/>
        <path id="Path_1282660" data-name="Path 1282660" d="M551.211,1258.961a8.6,8.6,0,0,1-1.018-.608,8.582,8.582,0,0,0,1.018.608" transform="translate(-407.012 -930.881)" fill="#4a81c2"/>
        <path id="Path_1282661" data-name="Path 1282661" d="M540.354,1246.2a8.618,8.618,0,0,1-2.1-3.157,8.584,8.584,0,0,0,2.1,3.157" transform="translate(-398.181 -919.556)" fill="#4a81c2"/>
        <path id="Path_1282662" data-name="Path 1282662" d="M1386.471,1255.3a8.669,8.669,0,0,1-.933.766,8.633,8.633,0,0,0,.933-.766" transform="translate(-1024.968 -928.619)" fill="#4a81c2"/>
        <path id="Path_1282663" data-name="Path 1282663" d="M1377.881,1261.008a8.426,8.426,0,0,1-1.031.421,8.473,8.473,0,0,0,1.031-.421" transform="translate(-1018.541 -932.845)" fill="#4a81c2"/>
        <path id="Path_1282664" data-name="Path 1282664" d="M1373.317,1262.738a8.485,8.485,0,0,1-1.135.27,8.57,8.57,0,0,0,1.135-.27" transform="translate(-1015.088 -934.125)" fill="#4a81c2"/>
        <path id="Path_1282665" data-name="Path 1282665" d="M555.8,1261.428a8.452,8.452,0,0,1-1.031-.421,8.453,8.453,0,0,0,1.031.421" transform="translate(-410.395 -932.845)" fill="#4a81c2"/>
        <path id="Path_1282666" data-name="Path 1282666" d="M1382.489,1258.353a8.6,8.6,0,0,1-1.018.608,8.6,8.6,0,0,0,1.018-.608" transform="translate(-1021.959 -930.881)" fill="#4a81c2"/>
        <path id="Path_1282667" data-name="Path 1282667" d="M1367.737,1263.933a8.548,8.548,0,0,1-1.2.094,8.589,8.589,0,0,0,1.2-.094" transform="translate(-1010.909 -935.009)" fill="#4a81c2"/>
        <path id="Path_1282668" data-name="Path 1282668" d="M565.622,1264.027a8.554,8.554,0,0,1-1.2-.094,8.593,8.593,0,0,0,1.2.094" transform="translate(-417.536 -935.009)" fill="#4a81c2"/>
        <path id="Path_1282669" data-name="Path 1282669" d="M560.17,1263.009a8.562,8.562,0,0,1-1.135-.27,8.552,8.552,0,0,0,1.135.27" transform="translate(-413.553 -934.125)" fill="#4a81c2"/>
        <path id="Path_1282670" data-name="Path 1282670" d="M538.255,1243.04h0a8.618,8.618,0,0,0,2.1,3.157l.036.032a8.561,8.561,0,0,0,.932.765l.041.03a8.617,8.617,0,0,0,1.018.608c.057.029.115.055.172.083a8.407,8.407,0,0,0,1.031.421c.027.009.053.021.08.029a8.4,8.4,0,0,0,1.135.27c.088.016.177.029.267.041a8.608,8.608,0,0,0,1.2.094H753.805a8.608,8.608,0,0,0,1.2-.094c.089-.012.178-.026.267-.041a8.4,8.4,0,0,0,1.134-.27c.028-.009.053-.02.08-.029a8.408,8.408,0,0,0,1.031-.421c.057-.028.115-.054.172-.083a8.584,8.584,0,0,0,1.018-.608l.04-.03a8.593,8.593,0,0,0,.933-.765l.034-.031a8.618,8.618,0,0,0,2.1-3.158Z" transform="translate(-398.18 -919.553)" fill="#3370b0"/>
        <path id="Path_1282671" data-name="Path 1282671" d="M757.8,925.4q0,5.419-.121,10.3H867.037c-.007-.3-.01-.623-.016-.926V925.4Z" transform="translate(-560.503 -684.574)" fill="#3370b0"/>
        <path id="Path_1282672" data-name="Path 1282672" d="M566.222,0H213a26.784,26.784,0,0,0-26.784,26.784V214.037A26.785,26.785,0,0,0,213,240.822H335c0,61.726-12.088,70.12-16.85,71.034H285.842a8.562,8.562,0,0,0-8.012,11.629H501.392a8.617,8.617,0,0,1-2.1,3.158,8.573,8.573,0,0,0-5.913-14.787H460.966c-4.483-.86-15.46-8.351-16.729-60.734h-109.3q.118-4.885.12-10.3H566.222a26.784,26.784,0,0,0,26.784-26.784V26.781A26.784,26.784,0,0,0,566.222,0m19.595,204.825H193.4V24.351A17.165,17.165,0,0,1,210.57,7.186H568.651a17.165,17.165,0,0,1,17.165,17.165Z" transform="translate(-137.755 0.003)" fill="#727997"/>
        <path id="Path_1282673" data-name="Path 1282673" d="M589.088,27.623H231.006a17.165,17.165,0,0,0-17.165,17.165V225.259H606.253V44.788a17.165,17.165,0,0,0-17.165-17.165M340.956,204.545a5.572,5.572,0,0,1-5.572,5.572h-74.94a5.573,5.573,0,0,1-5.573-5.572V51.974a5.572,5.572,0,0,1,5.573-5.572h74.94a5.572,5.572,0,0,1,5.572,5.572Zm112.565,0a5.573,5.573,0,0,1-5.573,5.572h-74.94a5.572,5.572,0,0,1-5.572-5.572V51.974a5.572,5.572,0,0,1,5.572-5.572h74.94a5.572,5.572,0,0,1,5.573,5.572Zm111.7,0a5.572,5.572,0,0,1-5.573,5.572H484.71a5.572,5.572,0,0,1-5.572-5.572V51.974A5.572,5.572,0,0,1,484.71,46.4h74.94a5.572,5.572,0,0,1,5.573,5.572Z" transform="translate(-158.191 -20.434)" fill="#c3d2e7"/>
        <path id="Path_1282674" data-name="Path 1282674" d="M452.018,99.782h-74.94a5.573,5.573,0,0,0-5.572,5.573v152.57a5.572,5.572,0,0,0,5.572,5.572h74.94a5.572,5.572,0,0,0,5.572-5.572V105.355a5.573,5.573,0,0,0-5.572-5.573m-72.924,23.882a4.024,4.024,0,0,1,4.024-4.024H407.21a4.024,4.024,0,0,1,4.024,4.024v15.049a4.024,4.024,0,0,1-4.024,4.024H383.118a4.024,4.024,0,0,1-4.024-4.024Zm32.14,128.369a4.023,4.023,0,0,1-4.024,4.024H383.118a4.024,4.024,0,0,1-4.024-4.024V236.984a4.024,4.024,0,0,1,4.024-4.024H407.21a4.024,4.024,0,0,1,4.024,4.024Zm38.767,0a4.024,4.024,0,0,1-4.024,4.024H421.885a4.023,4.023,0,0,1-4.024-4.024V236.984a4.024,4.024,0,0,1,4.024-4.024h24.092A4.024,4.024,0,0,1,450,236.984Zm0-28.06A4.024,4.024,0,0,1,445.977,228H383.118a4.024,4.024,0,0,1-4.024-4.024V208.924a4.024,4.024,0,0,1,4.024-4.024h62.859A4.024,4.024,0,0,1,450,208.924Zm0-29.95a4.692,4.692,0,0,1-4.473,4.685l-4.075,4.143-5.089-4.132H382.375a3.281,3.281,0,0,1-3.281-3.281v-16.4a3.281,3.281,0,0,1,3.281-3.281h64A3.626,3.626,0,0,1,450,179.387Zm0-27.25a4.024,4.024,0,0,1-4.024,4.024H383.118a4.024,4.024,0,0,1-4.024-4.024V151.724a4.024,4.024,0,0,1,4.024-4.024h62.859A4.023,4.023,0,0,1,450,151.724Zm0-28.06a4.024,4.024,0,0,1-4.024,4.024H421.885a4.024,4.024,0,0,1-4.024-4.024V123.664a4.024,4.024,0,0,1,4.024-4.024h24.092A4.024,4.024,0,0,1,450,123.664Zm-3.4-24.037H382.494a3.4,3.4,0,1,1,0-6.8H446.6a3.4,3.4,0,1,1,0,6.8" transform="translate(-274.825 -73.814)" fill="#fff"/>
        <path id="Path_1282675" data-name="Path 1282675" d="M468.175,130.886H404.068a3.4,3.4,0,1,0,0,6.8h64.107a3.4,3.4,0,1,0,0-6.8" transform="translate(-296.399 -96.824)" fill="#c3d2e7"/>
        <path id="Path_1282676" data-name="Path 1282676" d="M467.949,391.74h-64a3.281,3.281,0,0,0-3.281,3.281v16.4a3.281,3.281,0,0,0,3.281,3.281h53.989l5.089,4.132,4.075-4.143A4.692,4.692,0,0,0,471.575,410V395.366a3.626,3.626,0,0,0-3.626-3.626" transform="translate(-296.399 -289.794)" fill="#94b2d9"/>
        <path id="Path_1282677" data-name="Path 1282677" d="M404.693,199.186h24.093a4.024,4.024,0,0,0,4.024-4.024V180.114a4.024,4.024,0,0,0-4.024-4.024H404.693a4.023,4.023,0,0,0-4.024,4.024v15.049a4.024,4.024,0,0,0,4.024,4.024" transform="translate(-296.399 -130.264)" fill="#c3d2e7"/>
        <path id="Path_1282678" data-name="Path 1282678" d="M467.552,283.915H404.693a4.024,4.024,0,0,0-4.024,4.024v15.049a4.024,4.024,0,0,0,4.024,4.024h62.859a4.023,4.023,0,0,0,4.024-4.024V287.938a4.023,4.023,0,0,0-4.024-4.023" transform="translate(-296.399 -210.029)" fill="#c3d2e7"/>
        <path id="Path_1282679" data-name="Path 1282679" d="M577.751,176.09H553.659a4.024,4.024,0,0,0-4.023,4.024v15.049a4.023,4.023,0,0,0,4.023,4.024h24.092a4.024,4.024,0,0,0,4.024-4.024V180.114a4.024,4.024,0,0,0-4.024-4.024" transform="translate(-406.599 -130.264)" fill="#c3d2e7"/>
        <path id="Path_1282680" data-name="Path 1282680" d="M577.751,611.537H553.659a4.024,4.024,0,0,0-4.023,4.024v15.049a4.023,4.023,0,0,0,4.023,4.023h24.092a4.023,4.023,0,0,0,4.024-4.023V615.56a4.024,4.024,0,0,0-4.024-4.024" transform="translate(-406.599 -452.391)" fill="#c3d2e7"/>
        <path id="Path_1282681" data-name="Path 1282681" d="M467.552,503.712H404.693a4.024,4.024,0,0,0-4.024,4.023v15.049a4.024,4.024,0,0,0,4.024,4.024h62.859a4.023,4.023,0,0,0,4.024-4.023V507.735a4.024,4.024,0,0,0-4.024-4.023" transform="translate(-296.399 -372.626)" fill="#c3d2e7"/>
        <path id="Path_1282682" data-name="Path 1282682" d="M428.785,611.537H404.693a4.024,4.024,0,0,0-4.024,4.024v15.049a4.024,4.024,0,0,0,4.024,4.024h24.093a4.023,4.023,0,0,0,4.024-4.023V615.56a4.024,4.024,0,0,0-4.024-4.024" transform="translate(-296.399 -452.391)" fill="#c3d2e7"/>
        <path id="Path_1282683" data-name="Path 1282683" d="M884.564,99.782h-74.94a5.573,5.573,0,0,0-5.572,5.573v152.57a5.572,5.572,0,0,0,5.572,5.572h74.94a5.572,5.572,0,0,0,5.572-5.572V105.355a5.572,5.572,0,0,0-5.572-5.573m-72.923,23.882a4.023,4.023,0,0,1,4.024-4.024h24.092a4.023,4.023,0,0,1,4.023,4.024v15.049a4.024,4.024,0,0,1-4.023,4.024H815.664a4.024,4.024,0,0,1-4.024-4.024Zm0,28.06a4.024,4.024,0,0,1,4.024-4.024h24.092a4.023,4.023,0,0,1,4.023,4.023v43.109a4.023,4.023,0,0,1-4.023,4.024H815.664a4.023,4.023,0,0,1-4.024-4.024Zm70.906,100.308a4.023,4.023,0,0,1-4.023,4.024H815.664a4.023,4.023,0,0,1-4.024-4.024V208.924a4.023,4.023,0,0,1,4.024-4.024h62.859a4.023,4.023,0,0,1,4.023,4.024Zm0-57.2a4.023,4.023,0,0,1-4.023,4.024H854.43a4.023,4.023,0,0,1-4.023-4.024V123.664a4.024,4.024,0,0,1,4.023-4.024h24.092a4.023,4.023,0,0,1,4.023,4.024Zm-3.4-80.157H815.04a3.4,3.4,0,0,1,0-6.8h64.107a3.4,3.4,0,0,1,0,6.8" transform="translate(-594.806 -73.814)" fill="#fff"/>
        <path id="Path_1282684" data-name="Path 1282684" d="M900.721,130.886H836.615a3.4,3.4,0,1,0,0,6.8h64.107a3.4,3.4,0,0,0,0-6.8" transform="translate(-616.38 -96.824)" fill="#94b2d9"/>
        <path id="Path_1282685" data-name="Path 1282685" d="M837.238,199.186H861.33a4.024,4.024,0,0,0,4.024-4.024V180.114a4.024,4.024,0,0,0-4.024-4.024H837.238a4.024,4.024,0,0,0-4.024,4.024v15.049a4.024,4.024,0,0,0,4.024,4.024" transform="translate(-616.38 -130.264)" fill="#c3d2e7"/>
        <path id="Path_1282686" data-name="Path 1282686" d="M837.238,335.071H861.33a4.023,4.023,0,0,0,4.024-4.023V287.938a4.023,4.023,0,0,0-4.024-4.023H837.238a4.024,4.024,0,0,0-4.024,4.024v43.109a4.023,4.023,0,0,0,4.024,4.023" transform="translate(-616.38 -210.029)" fill="#94b2d9"/>
        <path id="Path_1282687" data-name="Path 1282687" d="M1010.3,176.09H986.2a4.024,4.024,0,0,0-4.023,4.024v71.169a4.023,4.023,0,0,0,4.023,4.024H1010.3a4.024,4.024,0,0,0,4.024-4.024V180.114a4.024,4.024,0,0,0-4.024-4.024" transform="translate(-726.578 -130.264)" fill="#c3d2e7"/>
        <path id="Path_1282688" data-name="Path 1282688" d="M900.1,503.712H837.238a4.024,4.024,0,0,0-4.024,4.023v43.109a4.024,4.024,0,0,0,4.024,4.024H900.1a4.024,4.024,0,0,0,4.024-4.024V507.735a4.023,4.023,0,0,0-4.024-4.023" transform="translate(-616.38 -372.626)" fill="#c3d2e7"/>
        <path id="Path_1282689" data-name="Path 1282689" d="M1313.791,99.782h-74.94a5.572,5.572,0,0,0-5.572,5.573v152.57a5.572,5.572,0,0,0,5.572,5.572h74.94a5.572,5.572,0,0,0,5.572-5.572V105.355a5.573,5.573,0,0,0-5.572-5.573m-72.923,32.736a3.339,3.339,0,0,1,3.339-3.339h6.837a3.339,3.339,0,0,1,3.339,3.339v6.837a3.339,3.339,0,0,1-3.339,3.339h-6.837a3.339,3.339,0,0,1-3.339-3.339Zm0,19.211a3.339,3.339,0,0,1,3.339-3.339h6.837a3.339,3.339,0,0,1,3.339,3.339v6.837a3.339,3.339,0,0,1-3.339,3.339h-6.837a3.339,3.339,0,0,1-3.339-3.339Zm0,19.211a3.339,3.339,0,0,1,3.339-3.339h6.837a3.339,3.339,0,0,1,3.339,3.339v6.837a3.339,3.339,0,0,1-3.339,3.339h-6.837a3.34,3.34,0,0,1-3.339-3.339Zm0,19.211a3.339,3.339,0,0,1,3.339-3.339h6.837a3.339,3.339,0,0,1,3.339,3.339v6.837a3.339,3.339,0,0,1-3.339,3.339h-6.837a3.339,3.339,0,0,1-3.339-3.339Zm0,19.211a3.339,3.339,0,0,1,3.339-3.339h6.837a3.339,3.339,0,0,1,3.339,3.339V216.2a3.339,3.339,0,0,1-3.339,3.339h-6.837a3.339,3.339,0,0,1-3.339-3.339Zm0,19.211a3.339,3.339,0,0,1,3.339-3.339h6.837a3.339,3.339,0,0,1,3.339,3.339v6.837a3.339,3.339,0,0,1-3.339,3.339h-6.837a3.339,3.339,0,0,1-3.339-3.339Zm67.506,25.975h-64.107a3.4,3.4,0,1,1,0-6.8h64.107a3.4,3.4,0,1,1,0,6.8m-45.037-106.156h6.837a3.339,3.339,0,0,1,3.339,3.339v6.837a3.339,3.339,0,0,1-3.339,3.339h-6.837a3.339,3.339,0,0,1-3.339-3.339v-6.837a3.339,3.339,0,0,1,3.339-3.339M1260,139.355v-6.837a3.339,3.339,0,0,1,3.339-3.339h6.837a3.339,3.339,0,0,1,3.339,3.339v6.837a3.339,3.339,0,0,1-3.339,3.339h-6.837a3.339,3.339,0,0,1-3.339-3.339m3.339,28.245h6.837a3.339,3.339,0,0,1,3.339,3.339v6.837a3.339,3.339,0,0,1-3.339,3.339h-6.837a3.339,3.339,0,0,1-3.339-3.339v-6.837a3.339,3.339,0,0,1,3.339-3.339m0,19.211h6.837a3.339,3.339,0,0,1,3.339,3.339v6.837a3.339,3.339,0,0,1-3.339,3.339h-6.837a3.339,3.339,0,0,1-3.339-3.339V190.15a3.339,3.339,0,0,1,3.339-3.339m0,19.211h6.837a3.339,3.339,0,0,1,3.339,3.339V216.2a3.339,3.339,0,0,1-3.339,3.339h-6.837A3.339,3.339,0,0,1,1260,216.2V209.36a3.339,3.339,0,0,1,3.339-3.339m0,19.21h6.837a3.339,3.339,0,0,1,3.339,3.339v6.837a3.339,3.339,0,0,1-3.339,3.339h-6.837a3.339,3.339,0,0,1-3.339-3.339v-6.837a3.339,3.339,0,0,1,3.339-3.339m19.13-76.842h6.837a3.339,3.339,0,0,1,3.339,3.339v6.837a3.339,3.339,0,0,1-3.339,3.339h-6.837a3.34,3.34,0,0,1-3.339-3.339v-6.837a3.339,3.339,0,0,1,3.339-3.339m-3.339-9.034v-6.837a3.339,3.339,0,0,1,3.339-3.339h6.837a3.339,3.339,0,0,1,3.339,3.339v6.837a3.339,3.339,0,0,1-3.339,3.339h-6.837a3.339,3.339,0,0,1-3.339-3.339m3.339,28.245h6.837a3.339,3.339,0,0,1,3.339,3.339v6.837a3.34,3.34,0,0,1-3.339,3.339h-6.837a3.34,3.34,0,0,1-3.339-3.339v-6.837a3.339,3.339,0,0,1,3.339-3.339m0,19.211h6.837a3.339,3.339,0,0,1,3.339,3.339v6.837a3.339,3.339,0,0,1-3.339,3.339h-6.837a3.34,3.34,0,0,1-3.339-3.339V190.15a3.339,3.339,0,0,1,3.339-3.339m0,19.211h6.837a3.339,3.339,0,0,1,3.339,3.339V216.2a3.339,3.339,0,0,1-3.339,3.339h-6.837a3.339,3.339,0,0,1-3.339-3.339V209.36a3.339,3.339,0,0,1,3.339-3.339m0,19.21h6.837a3.339,3.339,0,0,1,3.339,3.339v6.837a3.339,3.339,0,0,1-3.339,3.339h-6.837a3.339,3.339,0,0,1-3.339-3.339v-6.837a3.34,3.34,0,0,1,3.339-3.339m29.306,10.176a3.339,3.339,0,0,1-3.339,3.339H1301.6a3.339,3.339,0,0,1-3.339-3.339v-6.837a3.339,3.339,0,0,1,3.339-3.339h6.837a3.339,3.339,0,0,1,3.339,3.339Zm0-19.211a3.339,3.339,0,0,1-3.339,3.339H1301.6a3.339,3.339,0,0,1-3.339-3.339V209.36a3.339,3.339,0,0,1,3.339-3.339h6.837a3.339,3.339,0,0,1,3.339,3.339Zm0-19.211a3.339,3.339,0,0,1-3.339,3.339H1301.6a3.339,3.339,0,0,1-3.339-3.339V190.15a3.339,3.339,0,0,1,3.339-3.339h6.837a3.339,3.339,0,0,1,3.339,3.339Zm0-19.211a3.339,3.339,0,0,1-3.339,3.339H1301.6a3.34,3.34,0,0,1-3.339-3.339v-6.837a3.339,3.339,0,0,1,3.339-3.339h6.837a3.339,3.339,0,0,1,3.339,3.339Zm0-19.211a3.339,3.339,0,0,1-3.339,3.339H1301.6a3.339,3.339,0,0,1-3.339-3.339v-6.837a3.339,3.339,0,0,1,3.339-3.339h6.837a3.339,3.339,0,0,1,3.339,3.339Zm0-19.21a3.339,3.339,0,0,1-3.339,3.339H1301.6a3.339,3.339,0,0,1-3.339-3.339v-6.837a3.339,3.339,0,0,1,3.339-3.339h6.837a3.339,3.339,0,0,1,3.339,3.339Zm-7.717-16.046h-55.473a7.717,7.717,0,0,1,0-15.433h55.473a7.717,7.717,0,0,1,0,15.433" transform="translate(-912.332 -73.814)" fill="#fff"/>
        <path id="Path_1282690" data-name="Path 1282690" d="M1325.631,130.886h-55.473a7.717,7.717,0,0,0,0,15.433h55.473a7.717,7.717,0,0,0,0-15.433" transform="translate(-933.905 -96.824)" fill="#94b2d9"/>
        <path id="Path_1282691" data-name="Path 1282691" d="M1265.78,226.259h6.837a3.339,3.339,0,0,0,3.339-3.339v-6.837a3.339,3.339,0,0,0-3.339-3.339h-6.837a3.339,3.339,0,0,0-3.339,3.339v6.837a3.339,3.339,0,0,0,3.339,3.339" transform="translate(-933.905 -157.379)" fill="#94b2d9"/>
        <path id="Path_1282692" data-name="Path 1282692" d="M1339.291,226.259h6.837a3.339,3.339,0,0,0,3.339-3.339v-6.837a3.339,3.339,0,0,0-3.339-3.339h-6.837a3.339,3.339,0,0,0-3.339,3.339v6.837a3.339,3.339,0,0,0,3.339,3.339" transform="translate(-988.286 -157.379)" fill="#94b2d9"/>
        <path id="Path_1282693" data-name="Path 1282693" d="M1412.8,226.259h6.837a3.339,3.339,0,0,0,3.339-3.339v-6.837a3.339,3.339,0,0,0-3.339-3.339H1412.8a3.339,3.339,0,0,0-3.339,3.339v6.837a3.339,3.339,0,0,0,3.339,3.339" transform="translate(-1042.666 -157.379)" fill="#c3d2e7"/>
        <path id="Path_1282694" data-name="Path 1282694" d="M1493.149,212.744h-6.837a3.339,3.339,0,0,0-3.339,3.339v6.837a3.339,3.339,0,0,0,3.339,3.339h6.837a3.339,3.339,0,0,0,3.339-3.339v-6.837a3.339,3.339,0,0,0-3.339-3.339" transform="translate(-1097.047 -157.379)" fill="#c3d2e7"/>
        <path id="Path_1282695" data-name="Path 1282695" d="M1265.78,300.078h6.837a3.339,3.339,0,0,0,3.339-3.339V289.9a3.339,3.339,0,0,0-3.339-3.339h-6.837a3.339,3.339,0,0,0-3.339,3.339v6.837a3.339,3.339,0,0,0,3.339,3.339" transform="translate(-933.905 -211.988)" fill="#c3d2e7"/>
        <path id="Rectangle_467378" data-name="Rectangle 467378" d="M6.757,0h0a6.758,6.758,0,0,1,6.758,6.758v0a6.757,6.757,0,0,1-6.757,6.757h0A6.757,6.757,0,0,1,0,6.758v0A6.757,6.757,0,0,1,6.757,0Z" transform="translate(347.666 74.575)" fill="#94b2d9"/>
        <path id="Rectangle_467379" data-name="Rectangle 467379" d="M6.758,0h0a6.758,6.758,0,0,1,6.758,6.758v0a6.757,6.757,0,0,1-6.757,6.757h0A6.758,6.758,0,0,1,0,6.758v0A6.758,6.758,0,0,1,6.758,0Z" transform="translate(366.796 74.575)" fill="#c3d2e7"/>
        <path id="Path_1282696" data-name="Path 1282696" d="M1493.149,286.563h-6.837a3.339,3.339,0,0,0-3.339,3.339v6.837a3.339,3.339,0,0,0,3.339,3.339h6.837a3.339,3.339,0,0,0,3.339-3.339V289.9a3.339,3.339,0,0,0-3.339-3.339" transform="translate(-1097.047 -211.988)" fill="#94b2d9"/>
        <path id="Path_1282697" data-name="Path 1282697" d="M1265.78,373.9h6.837a3.339,3.339,0,0,0,3.339-3.339V363.72a3.339,3.339,0,0,0-3.339-3.339h-6.837a3.34,3.34,0,0,0-3.339,3.339v6.837a3.339,3.339,0,0,0,3.339,3.339" transform="translate(-933.905 -266.596)" fill="#c3d2e7"/>
        <path id="Rectangle_467380" data-name="Rectangle 467380" d="M6.757,0h0a6.757,6.757,0,0,1,6.757,6.757v0a6.758,6.758,0,0,1-6.758,6.758h0A6.757,6.757,0,0,1,0,6.758v0A6.757,6.757,0,0,1,6.757,0Z" transform="translate(347.666 93.785)" fill="#c3d2e7"/>
        <path id="Rectangle_467381" data-name="Rectangle 467381" d="M6.757,0h0a6.757,6.757,0,0,1,6.757,6.757v0a6.758,6.758,0,0,1-6.758,6.758h0A6.757,6.757,0,0,1,0,6.758v0A6.757,6.757,0,0,1,6.757,0Z" transform="translate(366.796 93.785)" fill="#c3d2e7"/>
        <path id="Path_1282698" data-name="Path 1282698" d="M1493.149,360.381h-6.837a3.339,3.339,0,0,0-3.339,3.339v6.837a3.339,3.339,0,0,0,3.339,3.339h6.837a3.339,3.339,0,0,0,3.339-3.339V363.72a3.339,3.339,0,0,0-3.339-3.339" transform="translate(-1097.047 -266.596)" fill="#c3d2e7"/>
        <path id="Path_1282699" data-name="Path 1282699" d="M1265.78,447.716h6.837a3.339,3.339,0,0,0,3.339-3.339v-6.837a3.339,3.339,0,0,0-3.339-3.339h-6.837a3.339,3.339,0,0,0-3.339,3.339v6.837a3.339,3.339,0,0,0,3.339,3.339" transform="translate(-933.905 -321.204)" fill="#c3d2e7"/>
        <path id="Rectangle_467382" data-name="Rectangle 467382" d="M6.758,0h0a6.758,6.758,0,0,1,6.758,6.758v0a6.757,6.757,0,0,1-6.757,6.757h0A6.757,6.757,0,0,1,0,6.758v0A6.758,6.758,0,0,1,6.758,0Z" transform="translate(347.666 112.996)" fill="#c3d2e7"/>
        <path id="Rectangle_467383" data-name="Rectangle 467383" d="M6.758,0h0a6.757,6.757,0,0,1,6.757,6.757v0a6.757,6.757,0,0,1-6.757,6.757h0A6.757,6.757,0,0,1,0,6.758v0A6.758,6.758,0,0,1,6.758,0Z" transform="translate(366.796 112.996)" fill="#94b2d9"/>
        <path id="Path_1282700" data-name="Path 1282700" d="M1493.149,434.2h-6.837a3.339,3.339,0,0,0-3.339,3.339v6.837a3.339,3.339,0,0,0,3.339,3.339h6.837a3.339,3.339,0,0,0,3.339-3.339v-6.837a3.339,3.339,0,0,0-3.339-3.339" transform="translate(-1097.047 -321.204)" fill="#c3d2e7"/>
        <path id="Path_1282701" data-name="Path 1282701" d="M1265.78,521.534h6.837a3.339,3.339,0,0,0,3.339-3.339v-6.837a3.339,3.339,0,0,0-3.339-3.339h-6.837a3.339,3.339,0,0,0-3.339,3.339V518.2a3.339,3.339,0,0,0,3.339,3.339" transform="translate(-933.905 -375.812)" fill="#c3d2e7"/>
        <path id="Rectangle_467384" data-name="Rectangle 467384" d="M6.757,0h0a6.758,6.758,0,0,1,6.758,6.758v0a6.757,6.757,0,0,1-6.757,6.757h0A6.757,6.757,0,0,1,0,6.758v0A6.757,6.757,0,0,1,6.757,0Z" transform="translate(347.666 132.207)" fill="#c3d2e7"/>
        <rect id="Rectangle_467385" data-name="Rectangle 467385" width="13.515" height="13.515" rx="6.758" transform="translate(366.796 132.207)" fill="#c3d2e7"/>
        <path id="Path_1282702" data-name="Path 1282702" d="M1493.149,508.019h-6.837a3.339,3.339,0,0,0-3.339,3.339V518.2a3.339,3.339,0,0,0,3.339,3.339h6.837a3.339,3.339,0,0,0,3.339-3.339v-6.837a3.339,3.339,0,0,0-3.339-3.339" transform="translate(-1097.047 -375.812)" fill="#94b2d9"/>
        <path id="Path_1282703" data-name="Path 1282703" d="M1265.78,595.352h6.837a3.339,3.339,0,0,0,3.339-3.339v-6.837a3.339,3.339,0,0,0-3.339-3.339h-6.837a3.339,3.339,0,0,0-3.339,3.339v6.837a3.339,3.339,0,0,0,3.339,3.339" transform="translate(-933.905 -430.42)" fill="#c3d2e7"/>
        <path id="Rectangle_467386" data-name="Rectangle 467386" d="M6.757,0h0a6.758,6.758,0,0,1,6.758,6.758v0a6.758,6.758,0,0,1-6.758,6.758h0A6.757,6.757,0,0,1,0,6.758v0A6.757,6.757,0,0,1,6.757,0Z" transform="translate(347.666 151.417)" fill="#94b2d9"/>
        <path id="Rectangle_467387" data-name="Rectangle 467387" d="M6.757,0h0a6.757,6.757,0,0,1,6.757,6.757v0a6.758,6.758,0,0,1-6.758,6.758h0A6.757,6.757,0,0,1,0,6.758v0A6.757,6.757,0,0,1,6.757,0Z" transform="translate(366.796 151.417)" fill="#c3d2e7"/>
        <path id="Path_1282704" data-name="Path 1282704" d="M1493.149,581.837h-6.837a3.339,3.339,0,0,0-3.339,3.339v6.837a3.339,3.339,0,0,0,3.339,3.339h6.837a3.339,3.339,0,0,0,3.339-3.339v-6.837a3.339,3.339,0,0,0-3.339-3.339" transform="translate(-1097.047 -430.42)" fill="#c3d2e7"/>
        <path id="Path_1282705" data-name="Path 1282705" d="M1329.946,668.353H1265.84a3.4,3.4,0,1,0,0,6.8h64.107a3.4,3.4,0,1,0,0-6.8" transform="translate(-933.904 -494.421)" fill="#c3d2e7"/>
        <path id="Path_1282706" data-name="Path 1282706" d="M1676.43,524.9v0Z" transform="translate(-1240.158 -388.202)" fill="#ec8b6b"/>
        <path id="Path_1282707" data-name="Path 1282707" d="M1623.878,469.938a2.313,2.313,0,1,0,1.324-3.037,6.772,6.772,0,0,1,.543-4.522c-1.007.033-1.775.022-2.151.011-.015,0-.03,0-.046,0s-.03-.005-.046-.006l-.176-.006,0-.017c-.054,0-.105-.015-.159-.021l-.6,3.4-.434,2.441-1.139,1.61a.534.534,0,0,0,.267.814l.416.138-.576,3.238a3.7,3.7,0,0,0,2.7,4.217l.071-8.26Zm1.973-2.386h.022a1.475,1.475,0,0,1,1.437,1.2.154.154,0,0,1,.03.145c.005.046.027.086.028.133h0v0h0v.012a1.5,1.5,0,0,1-1.484,1.5.165.165,0,1,1,0-.331h0a1.166,1.166,0,0,0,1.156-1.166v-.009c0-.025-.013-.046-.014-.07a2.3,2.3,0,0,0-.683-.105,1.662,1.662,0,0,0-1.437.749.165.165,0,0,1-.273-.188,2,2,0,0,1,1.71-.893,2.676,2.676,0,0,1,.606.072,1.162,1.162,0,0,0-1.074-.722.165.165,0,1,1-.022-.33" transform="translate(-1199.076 -342.024)" fill="#ec8b6b"/>
        <path id="Path_1282708" data-name="Path 1282708" d="M1643.585,500.3v-.129l.005-7.221a6.844,6.844,0,0,1-7.807-.644,2.284,2.284,0,0,1-3.668-.786h0l-.071,8.26-.013,1.562h11.554Z" transform="translate(-1207.313 -363.611)" fill="#e56845"/>
        <path id="Path_1282709" data-name="Path 1282709" d="M1617.047,434.024l0,.017.176.006c.016,0,.03.005.046.006s.03,0,.046,0c.375.01,1.143.021,2.15-.012a6.77,6.77,0,0,0-.542,4.522,2.266,2.266,0,0,1,.77-.149,2.288,2.288,0,0,1,1.573,3.972,6.875,6.875,0,1,0,8.645-10.691,2.759,2.759,0,0,0-2.318-4.961l0-.011s-.029.013-.081.034-.111.036-.164.059a4.517,4.517,0,0,1-3.341-.2c-1.917-.9-3.838-2.313-5.406-2.44v0a5,5,0,0,0-2.783,9.591,4.635,4.635,0,0,0,.472,3.632l.6-3.4c.053.006.1.017.159.021" transform="translate(-1192.794 -313.683)" fill="#282a40"/>
        <path id="Path_1282710" data-name="Path 1282710" d="M1636.409,482.684h0a1.162,1.162,0,0,1,1.074.722,2.664,2.664,0,0,0-.607-.073,2,2,0,0,0-1.709.893.165.165,0,1,0,.272.187,1.662,1.662,0,0,1,1.437-.749,2.3,2.3,0,0,1,.683.105c0,.025.015.046.015.071v.009a1.166,1.166,0,0,1-1.156,1.166h0a.165.165,0,0,0,0,.331,1.5,1.5,0,0,0,1.484-1.5v-.012h0v0h0c0-.047-.023-.087-.028-.133a.153.153,0,0,0-.031-.145,1.475,1.475,0,0,0-1.437-1.2h-.022a.165.165,0,1,0,.022.33" transform="translate(-1209.612 -356.826)" fill="#222530"/>
        <path id="Path_1282711" data-name="Path 1282711" d="M1636.835,533.98c2.283.076,4.484.229,6.594.435v-5.146H1631.8v4.666c1.632-.024,3.313-.012,5.036.045" transform="translate(-1207.143 -391.532)" fill="#cddce6"/>
        <path id="Path_1282712" data-name="Path 1282712" d="M1678.222,1208.872a29.04,29.04,0,0,1-5.915.327l-.625-4.953,1.172,9.284a22.511,22.511,0,0,1,2.544-.006,7.887,7.887,0,0,1,2.391.03l.891-9.623Z" transform="translate(-1236.646 -890.622)" fill="#ec8b6b"/>
        <path id="Path_1282713" data-name="Path 1282713" d="M1653.441,1240.554a22.684,22.684,0,0,0-2.545.006c-.381.056-.617.176-.6.423.088,1.138.491,2.469-1.754,2.529l.009,0c-3.72.263-6.553,1.556-6.553,2.508,0,1.064,3.537.759,7.9.759s6.822.531,6.822-.533c0,0,.755-3.428-.411-5.265a.99.99,0,0,0-.479-.4,7.881,7.881,0,0,0-2.39-.03" transform="translate(-1214.689 -917.651)" fill="#4ca668"/>
        <path id="Path_1282714" data-name="Path 1282714" d="M1678.222,1208.872l.458-4.94c-1.186.145-2.533.251-3.968.3-1.067.037-2.085.039-3.03.013l.625,4.953a29.04,29.04,0,0,0,5.915-.327" transform="translate(-1236.646 -890.622)" fill="#993518"/>
        <path id="Path_1282715" data-name="Path 1282715" d="M1630.118,796.988c-.1,0-.187-.017-.285-.021-4.1,39.467,4.438,99.632,4.438,99.632.022.615,2.363,1.056,5.628,1.147.945.026,1.964.024,3.031-.013,1.434-.05,2.781-.157,3.967-.3h0c2.745-.336,4.61-.881,4.59-1.435l1.649-106.389q-1.425.227-3.023.421a27.809,27.809,0,0,1-20,6.96" transform="translate(-1204.864 -584.12)" fill="#282a40"/>
        <path id="Path_1282716" data-name="Path 1282716" d="M1488.1,1204.13a28.987,28.987,0,0,1-5.827-1.071l.555-4.961-1.041,9.3a22.565,22.565,0,0,1,2.475.592,7.881,7.881,0,0,1,2.317.59l3.126-9.144h0Z" transform="translate(-1096.171 -886.306)" fill="#ec8b6b"/>
        <path id="Path_1282717" data-name="Path 1282717" d="M1453.529,1233.809c-.384-.036-.64.026-.68.27-.182,1.127-.1,2.516-2.3,2.047l.008,0c-3.677-.618-6.735-.026-6.958.9-.25,1.034,3.259,1.569,7.5,2.593s6.506,2.119,6.756,1.085h0s1.539-3.155.837-5.215a.994.994,0,0,0-.372-.5,7.88,7.88,0,0,0-2.317-.59,22.733,22.733,0,0,0-2.475-.592" transform="translate(-1067.911 -912.717)" fill="#4ca668"/>
        <path id="Path_1282718" data-name="Path 1282718" d="M1489.485,1204.13l1.6-4.694c-1.187-.138-2.521-.351-3.927-.639-1.046-.214-2.036-.452-2.949-.7l-.555,4.961a28.984,28.984,0,0,0,5.827,1.071" transform="translate(-1097.553 -886.306)" fill="#993518"/>
        <path id="Path_1282719" data-name="Path 1282719" d="M1489.2,786.251q-.884-.193-1.656-.4c-15.146,36.263-21.752,104.847-21.752,104.847-.123.6,2.049,1.581,5.2,2.436.913.247,1.9.485,2.949.7,1.406.288,2.741.5,3.927.639h0c2.747.318,4.688.226,4.8-.316l25.812-100.03c-10.789-.764-17.107-5.786-19.281-7.874" transform="translate(-1084.33 -581.341)" fill="#282a40"/>
        <path id="Path_1282720" data-name="Path 1282720" d="M1596.134,788.389a145.948,145.948,0,0,1-17.131.931c-9.467,0-17.882-.756-23.253-1.929,2.175,2.088,8.492,7.11,19.282,7.874.275.02.541.048.822.062.1,0,.187.018.285.022a27.811,27.811,0,0,0,20-6.96" transform="translate(-1150.884 -582.481)" fill="#cddce6"/>
        <path id="Path_1282721" data-name="Path 1282721" d="M1525.925,587.735a6.737,6.737,0,0,0-.512-1.523c-4.984-15.975-18.456-30.684-28.026-35.944a8.729,8.729,0,0,0-1.688-.858c-.016-.006-.032-.009-.047-.015-3.455-1.647-9.308-2.985-16.308-3.668-2.11-.206-4.311-.359-6.593-.435-1.722-.058-3.4-.069-5.036-.045-8.765.129-16.021,1.381-19.444,3.267a8.656,8.656,0,0,0-3.967,3.589l-.008,0c-5.462,8.225-15.393,14.153-21.882,17.516-.653-4.657-1.258-10.475-1.489-16.062,0,.013,0,.025,0,.038-3.292.384-6.586.732-9.885,1.026.535-4.917,1.115-8.75,1.321-10.055h0c-.515,3.267-3.414,22.583-1.97,34.838a6.739,6.739,0,0,0,7.429,5.929l0,.05c8.635-1.24,17.3-4.923,24.61-9.429-.976,16.517-.62,28.782-.62,28.782,0,.964,1.638,1.863,4.462,2.623q.77.208,1.656.4c5.371,1.173,13.786,1.929,23.253,1.929a145.96,145.96,0,0,0,17.131-.931q1.6-.193,3.023-.421c5.671-.9,9.216-2.182,9.216-3.6,0-.606,0-1.185,0-1.778a.165.165,0,0,1-.163-.164v-11.9a.166.166,0,0,1,.331,0v11.635a150.075,150.075,0,0,1,20.083-6.776,6.8,6.8,0,0,0,5.13-8.017m-25.449,3.006c-.073-6.777-.2-12.429-.345-17.139a84.493,84.493,0,0,1,9.927,12.079c-3.255,1.543-6.545,3.315-9.583,5.06" transform="translate(-1043.057 -402.845)" fill="#0f654d"/>
        <path id="Path_1282722" data-name="Path 1282722" d="M1451.622,561.581c0-.165-.005-.335,0-.5,0,.164,0,.334,0,.5" transform="translate(-1073.851 -415.066)" fill="#4ca668"/>
        <path id="Path_1282723" data-name="Path 1282723" d="M1451.724,552.472c0,.168,0,.344-.008.513,0-.169,0-.346.008-.513" transform="translate(-1073.924 -408.697)" fill="#4ca668"/>
        <path id="Path_1282724" data-name="Path 1282724" d="M1451.71,569.99c0,.167.011.338.016.506,0-.168-.012-.339-.016-.506" transform="translate(-1073.919 -421.656)" fill="#4ca668"/>
        <path id="Path_1282725" data-name="Path 1282725" d="M1397.643,528.122c3.3-.294,6.594-.642,9.885-1.026,0-.013,0-.025,0-.038-.026-.627-.044-1.248-.06-1.867,0-.168-.012-.339-.016-.506-.013-.614-.017-1.218-.019-1.819,0-.165-.005-.335,0-.5,0-.587.013-1.158.026-1.728,0-.169,0-.346.008-.513.021-.728.053-1.44.1-2.13l-.08,0a5.42,5.42,0,0,0-2.563-5.273c-3.321-2.122-7.042-4.224-8.376-3.948-.853.177,4.882,4.063,4.882,4.063s-15.457-9.557-2.317,1.12c0,0-15.585-9.4-.961,1.291,0,0-11.72-7.291-.914,1.319.525.418,1.121.941,1.736,1.5h0c-.205,1.305-.786,5.138-1.321,10.055" transform="translate(-1029.661 -376.351)" fill="#ec8b6b"/>
        <path id="Path_1282726" data-name="Path 1282726" d="M1757.494,721.961a.166.166,0,0,0-.166.165v11.9a.165.165,0,0,0,.163.164h0a.166.166,0,0,0,.165-.165v-11.9a.166.166,0,0,0-.165-.165" transform="translate(-1300.004 -534.079)" fill="#222530"/>
        <path id="Path_1282727" data-name="Path 1282727" d="M316.749,588.89c.329.411.8.984,1.357,1.631a36.052,36.052,0,0,0,3.929,3.963c-.161-1.971-.346-3.866-.537-5.626q-2.587-.23-5.17-.5c.085.111.224.289.422.536" transform="translate(-234.007 -435.241)" fill="#e65e71"/>
        <path id="Path_1282728" data-name="Path 1282728" d="M298.336,560.093c0-.216,0-.44-.01-.653.006.213.006.437.01.653" transform="translate(-220.69 -413.852)" fill="#e65e71"/>
        <path id="Path_1282729" data-name="Path 1282729" d="M332.424,561.6c-.538-4.94-1.12-8.787-1.325-10.09h0c.206,1.31.789,5.156,1.326,10.09" transform="translate(-244.934 -407.983)" fill="#e65e71"/>
        <path id="Path_1282730" data-name="Path 1282730" d="M298.081,529.81c.085.077.185.152.261.23a8.691,8.691,0,0,1,3.353,3.293l.008,0c.23.346.485.677.73,1.015a.161.161,0,0,1,.21.038l.095.123q2.584.271,5.17.5v0c-.537-4.934-1.119-8.78-1.325-10.09h0c.617-.565,1.216-1.089,1.743-1.509,10.846-8.642-.917-1.324-.917-1.324,14.678-10.734-.965-1.3-.965-1.3,13.189-10.715-2.326-1.123-2.326-1.123s5.757-3.9,4.9-4.077c-1.339-.277-5.074,1.832-8.407,3.962a5.44,5.44,0,0,0-2.572,5.292l-.081,0c.043.692.075,1.405.1,2.135.006.213.006.437.01.654.011.525.022,1.049.023,1.588,0,.193,0,.393-.005.588" transform="translate(-220.417 -381.393)" fill="#f6ae98"/>
        <path id="Path_1282731" data-name="Path 1282731" d="M102.744,1199.676h0l.482,10.038a7.9,7.9,0,0,1,2.4.077,22.7,22.7,0,0,1,2.551.119l.741-4.319A29.147,29.147,0,0,1,103,1205Z" transform="translate(-76.006 -887.474)" fill="#f6ae98"/>
        <path id="Path_1282732" data-name="Path 1282732" d="M100.925,1238.007a1,1,0,0,0-.5.378c-1.251,1.79-.646,5.257-.647,5.262h0c-.047,1.066,2.443.643,6.817.838s7.907.658,7.954-.408c.042-.955-2.741-2.377-6.46-2.807l.01,0c-2.248-.16-1.784-1.476-1.646-2.614.03-.247-.2-.377-.58-.45a22.733,22.733,0,0,0-2.551-.119,7.91,7.91,0,0,0-2.4-.077" transform="translate(-73.705 -915.766)" fill="#e65e71"/>
        <path id="Path_1282733" data-name="Path 1282733" d="M104.877,1200.176c-.741-.156-1.453-.325-2.132-.5L103,1205a29.188,29.188,0,0,0,5.917.593l.8-4.656a43.972,43.972,0,0,1-4.839-.761" transform="translate(-76.007 -887.474)" fill="#ec8b6b"/>
        <path id="Path_1282734" data-name="Path 1282734" d="M237.652,1227.027a7.9,7.9,0,0,1,2.4.015,22.724,22.724,0,0,1,2.553.054l.63-4.336a29.185,29.185,0,0,1-5.93-.44Z" transform="translate(-175.549 -904.224)" fill="#f6ae98"/>
        <path id="Path_1282735" data-name="Path 1282735" d="M237.631,1240.135a7.908,7.908,0,0,0-2.4-.015.994.994,0,0,0-.489.391c-1.205,1.822-.511,5.271-.512,5.276h0c-.02,1.067,2.458.58,6.836.662s7.922.455,7.941-.612c.018-.955-2.8-2.307-6.529-2.641l.009,0c-2.252-.1-1.821-1.431-1.712-2.571.024-.247-.21-.372-.592-.435a22.825,22.825,0,0,0-2.553-.053" transform="translate(-173.128 -917.317)" fill="#e65e71"/>
        <path id="Path_1282736" data-name="Path 1282736" d="M239.874,1203.612c-1.438-.078-2.789-.21-3.976-.378l.366,4.966a29.159,29.159,0,0,0,5.93.44h0l.72-4.959c-.949.009-1.971-.012-3.041-.07" transform="translate(-174.508 -890.106)" fill="#ec8b6b"/>
        <path id="Path_1282737" data-name="Path 1282737" d="M119.174,791.974a27.759,27.759,0,0,1-21-7.866c-.714-.184-1.345-.381-1.93-.585L79.556,888.747c-.138.655,2.431,1.77,6.031,2.695.679.174,1.39.343,2.132.5a43.915,43.915,0,0,0,4.84.762c2.271.213,3.816.095,3.917-.388,0,0,13.7-42.209,19.438-79.278l-.255,77.806c-.03.555,1.832,1.137,4.58,1.526,1.187.168,2.538.3,3.976.378,1.07.057,2.092.078,3.041.07,3.279-.029,5.636-.428,5.67-1.044,0,0,11.274-69.964,5.293-108.762a25.924,25.924,0,0,1-19.043,8.965" transform="translate(-58.848 -579.239)" fill="#597ebe"/>
        <path id="Path_1282738" data-name="Path 1282738" d="M169.286,784.6a78.46,78.46,0,0,1-18.169-1.815,27.759,27.759,0,0,0,21,7.866,25.925,25.925,0,0,0,19.043-8.965c.136-.159.276-.322.393-.467-3.14,1.965-11.912,3.382-22.267,3.382" transform="translate(-111.791 -577.912)" fill="#cddce6"/>
        <path id="Path_1282739" data-name="Path 1282739" d="M227.148,466.058a6.883,6.883,0,0,1-.167,1.7,2.3,2.3,0,1,0,.763,3.845,6.089,6.089,0,0,0,2.138,2.7l.09.083a7.509,7.509,0,0,1,1.178,1.323,3.757,3.757,0,0,0-.053-.847l-.578-3.251.418-.139a.535.535,0,0,0,.268-.817l-1.143-1.616-.875-4.921c-.654.176-1.408.361-2.227.531a6.917,6.917,0,0,1,.188,1.409m-.852,5.352a1.5,1.5,0,0,1-1.489-1.5V469.9a1.4,1.4,0,0,1,.029-.138.154.154,0,0,1,.03-.146,1.481,1.481,0,0,1,1.442-1.205h.022a.166.166,0,0,1-.022.331,1.167,1.167,0,0,0-1.078.725,2.7,2.7,0,0,1,.608-.073,2,2,0,0,1,1.716.9.166.166,0,1,1-.273.188,1.669,1.669,0,0,0-1.443-.753,2.3,2.3,0,0,0-.684.106c0,.025-.015.047-.015.073v.009a1.169,1.169,0,0,0,1.16,1.169.166.166,0,0,1,0,.332" transform="translate(-165.622 -343.336)" fill="#f6ae98"/>
        <path id="Path_1282740" data-name="Path 1282740" d="M239.054,547.106a4.419,4.419,0,0,0-1.637,1.606c.635.043,1.257.1,1.871.156l-.211-1.789c-.011.007-.021.016-.033.023Z" transform="translate(-175.632 -404.707)" fill="#cddce6"/>
        <path id="Path_1282741" data-name="Path 1282741" d="M402.865,571.356c0,.148,0,.3,0,.45,0-.149,0-.3,0-.45" transform="translate(-298.021 -422.667)" fill="#e65e71"/>
        <path id="Path_1282742" data-name="Path 1282742" d="M435.568,555.055c-.017-.108-.033-.208-.046-.294.014.088.029.184.046.294" transform="translate(-322.182 -410.39)" fill="#e65e71"/>
        <path id="Path_1282743" data-name="Path 1282743" d="M402.756,563.124c0-.135,0-.276-.006-.41,0,.134,0,.275.006.41" transform="translate(-297.939 -416.274)" fill="#e65e71"/>
        <path id="Path_1282744" data-name="Path 1282744" d="M402.721,580.823c0-.179.013-.362.017-.54,0,.178-.012.361-.017.54" transform="translate(-297.918 -429.271)" fill="#e65e71"/>
        <path id="Path_1282745" data-name="Path 1282745" d="M201.332,562.782c0-.015,0-.029,0-.044-.232,5.61-.84,11.452-1.5,16.129a77.732,77.732,0,0,1-15.071-9.939s0,.006,0,.008a.166.166,0,0,1-.234.023,45.018,45.018,0,0,1-5.982-6.42.166.166,0,0,1,.032-.233c.007-.005.015,0,.023-.006-.245-.338-.5-.669-.73-1.015l-.008,0A8.69,8.69,0,0,0,174.513,558c-.076-.078-.176-.153-.261-.23,0-.195.006-.395.005-.588,0,.193,0,.393-.006.587-2.226-2.019-7.444-3.616-14.008-4.257-.613-.06-1.236-.113-1.871-.156a3.344,3.344,0,0,0-.359,2.371l-.008,0c.012.073.031.144.042.218a7.178,7.178,0,0,1-6.6,7.957,8.046,8.046,0,0,1-3.418-.378v.008s-.914-.368-2.313.734c-.155.15-.318.292-.487.428l-.09.085,0-.01a7.879,7.879,0,0,1-12.422-4.14,6.725,6.725,0,0,1-.076-2.449l-.008,0a1.406,1.406,0,0,0-.058-.759,2.249,2.249,0,0,0-.676,1.478s-1.334,11.119-1.334,52.166c0,.942,1.263,1.82,3.417,2.571.585.2,1.217.4,1.93.585a78.454,78.454,0,0,0,18.169,1.815c10.355,0,19.128-1.416,22.267-3.381.8-.5,1.25-1.033,1.25-1.59,0,0,.159-6.868-.086-17.25a6.759,6.759,0,0,0,7.182-5.777,63.092,63.092,0,0,0,19.755,6.654l0-.05a6.766,6.766,0,0,0,7.457-5.951c1.409-11.964-1.3-30.63-1.929-34.66.239,1.543.778,5.2,1.278,9.784-3.312-.294-6.618-.645-9.922-1.03m-16.452,25.13a.166.166,0,0,1-.222.078,68.122,68.122,0,0,1-7.573-4.277l.358,10.122a.166.166,0,0,1-.332.012l-.37-10.453a.166.166,0,0,1,.087-.152l.175.011a59.894,59.894,0,0,0,7,4.041c.5.251.8.4.8.4h0a.166.166,0,0,1,.078.221" transform="translate(-96.588 -409.349)" fill="#7a4806"/>
        <path id="Path_1282746" data-name="Path 1282746" d="M410.865,524.042c13.189-10.715-2.326-1.123-2.326-1.123s5.756-3.9,4.9-4.078c-1.339-.277-5.074,1.832-8.407,3.962a5.442,5.442,0,0,0-2.572,5.292l-.08,0c.043.694.075,1.409.1,2.14,0,.134,0,.275.007.41.014.6.026,1.214.027,1.839,0,.148,0,.3,0,.45,0,.618-.006,1.241-.02,1.873,0,.178-.012.361-.017.54-.016.609-.033,1.22-.059,1.837,0,.015,0,.029,0,.044,3.3.385,6.61.736,9.922,1.03-.5-4.589-1.039-8.242-1.278-9.784,0,0,0-.009,0-.014-.017-.11-.032-.206-.046-.294h0c.617-.565,1.216-1.09,1.743-1.509,10.846-8.642-.917-1.324-.917-1.324,14.678-10.734-.965-1.3-.965-1.3" transform="translate(-297.665 -383.8)" fill="#f6ae98"/>
        <path id="Path_1282747" data-name="Path 1282747" d="M119.592,462.477l.008,0a6.729,6.729,0,0,0,.076,2.449,7.88,7.88,0,0,0,12.422,4.14l0,.01.09-.085c.169-.137.332-.279.487-.429,1.4-1.1,2.313-.734,2.313-.734v-.008a8.044,8.044,0,0,0,3.418.377,7.178,7.178,0,0,0,6.6-7.956c-.01-.074-.029-.145-.042-.218l.008,0a3.343,3.343,0,0,1,.359-2.371,4.416,4.416,0,0,1,1.637-1.606l-.01,0c.012-.007.022-.016.033-.023a6.823,6.823,0,0,0,2.082-10,7.508,7.508,0,0,0-1.178-1.323l-.09-.083a6.089,6.089,0,0,1-2.138-2.7,2.31,2.31,0,1,1-.763-3.845,6.8,6.8,0,0,0-.021-3.1c.819-.17,1.573-.354,2.227-.531,1.009-.273,1.766-.517,2.131-.64.015,0,.03-.005.045-.01s.027-.014.042-.02l.167-.058-.008-.015A5.02,5.02,0,1,0,145.1,424.7v0c-1.468.584-2.894,2.509-4.469,3.934a4.466,4.466,0,0,1-2.049,1.056c-.205-.012-.411-.019-.621-.013A6.9,6.9,0,0,0,131.447,435a2.664,2.664,0,0,1-2.557.13v.006a8.075,8.075,0,0,0-4.594-.495,7.128,7.128,0,0,0-5.942,8.424c.026.118.064.23.1.345h-.01a2.95,2.95,0,0,1-1.522,3.471l-.113.06-.071.034v.007a6.956,6.956,0,0,0-3.641,7.614,7.326,7.326,0,0,0,4.007,4.972v0c1.664.73,2.244,1.558,2.433,2.142a1.406,1.406,0,0,1,.058.759" transform="translate(-83.545 -313.65)" fill="#282a40"/>
        <path id="Path_1282748" data-name="Path 1282748" d="M228.913,483.27h0a1.17,1.17,0,0,1-1.16-1.169v-.009c0-.026.014-.047.016-.073a2.286,2.286,0,0,1,.684-.106,1.669,1.669,0,0,1,1.443.753.166.166,0,1,0,.273-.188,2,2,0,0,0-1.716-.9,2.689,2.689,0,0,0-.608.073,1.167,1.167,0,0,1,1.078-.725.166.166,0,0,0,.022-.331h-.022a1.481,1.481,0,0,0-1.442,1.205.153.153,0,0,0-.031.146,1.374,1.374,0,0,0-.029.138v.013a1.5,1.5,0,0,0,1.49,1.5.166.166,0,0,0,0-.332" transform="translate(-168.237 -355.527)" fill="#222530"/>
        <path id="Path_1282749" data-name="Path 1282749" d="M316.989,590c-.56-.647-1.028-1.22-1.357-1.631-.2-.247-.336-.425-.422-.536l-.095-.123a.162.162,0,0,0-.21-.038c-.007,0-.016,0-.023.006a.166.166,0,0,0-.032.233h0a45.01,45.01,0,0,0,5.982,6.42.166.166,0,0,0,.233-.023s0-.005,0-.008a.164.164,0,0,0-.026-.226c-.042-.034-.083-.075-.125-.11A36.034,36.034,0,0,1,316.989,590" transform="translate(-232.89 -434.72)" fill="#222530"/>
        <path id="Path_1282750" data-name="Path 1282750" d="M316.059,672.656s-.3-.146-.8-.4a59.917,59.917,0,0,1-7-4.04l-.175-.011a.166.166,0,0,0-.087.152l.37,10.453a.166.166,0,0,0,.332-.012l-.358-10.122a68.086,68.086,0,0,0,7.573,4.277.166.166,0,1,0,.144-.3Z" transform="translate(-227.845 -494.313)" fill="#222530"/>
        <path id="Path_1282751" data-name="Path 1282751" d="M917.968,474.2l.006-8.427a4.013,4.013,0,0,0,1.649-3.246l-.007-1.893a2.253,2.253,0,0,0,.327.031,2.339,2.339,0,0,0-.037-4.677c-.07,0-.136.016-.205.023l.045,2.523a7.012,7.012,0,0,1-14.019-.414c0-.134.021-.265.032-.4l-.007,0,.077-1.695a2.315,2.315,0,0,0-.347-.038,2.334,2.334,0,0,0-.14,4.666l-.221,1.245a3.75,3.75,0,0,0,1.277,3.519l-1.055,8.969c1.914-.216,3.936-.357,6.036-.4a62.737,62.737,0,0,1,6.589.212" transform="translate(-668.098 -337.319)" fill="#993518"/>
        <path id="Path_1282752" data-name="Path 1282752" d="M960.523,1218.141l.442,4.772a8.032,8.032,0,0,1,2.436-.03,23.128,23.128,0,0,1,2.593.006l.557-4.413a29.565,29.565,0,0,1-6.027-.334" transform="translate(-710.558 -901.133)" fill="#993518"/>
        <path id="Path_1282753" data-name="Path 1282753" d="M961.381,1236.117a8.025,8.025,0,0,0-2.436.03,1.011,1.011,0,0,0-.488.406c-1.189,1.872-.419,5.36-.419,5.365h0c0,1.084,2.506.542,6.952.542s8.049.311,8.049-.773c0-.969-2.887-2.287-6.677-2.555l.01,0c-2.287-.061-1.876-1.417-1.788-2.577.02-.251-.22-.374-.609-.43a23.162,23.162,0,0,0-2.593-.006" transform="translate(-708.539 -914.367)" fill="#2f3686"/>
        <path id="Path_1282754" data-name="Path 1282754" d="M958.756,1199.072l.46,4.963a29.589,29.589,0,0,0,6.027.335h0l.648-5.14c-.8.04-1.647.062-2.526.062a45.745,45.745,0,0,1-4.609-.22" transform="translate(-709.251 -887.027)" fill="#5e1e0e"/>
        <path id="Path_1282755" data-name="Path 1282755" d="M811.07,1221.39c.534-.024,1.175.083,1.843.08,1.371-.008,2.789-.159,3.123.216l1.345-4.65a29.617,29.617,0,0,1-5.983-.805Z" transform="translate(-599.998 -899.72)" fill="#993518"/>
        <path id="Path_1282756" data-name="Path 1282756" d="M812.93,1193.342l-.3,4.765.3-4.765Z" transform="translate(-601.149 -882.788)" fill="#f5bbbf"/>
        <path id="Path_1282757" data-name="Path 1282757" d="M812.715,1193.342l-.3,4.765-.076,1.191a29.623,29.623,0,0,0,5.983.805l1.551-5.362c-1.013-.12-2.112-.288-3.258-.5-1.415-.266-2.736-.574-3.9-.9" transform="translate(-600.934 -882.788)" fill="#5e1e0e"/>
        <path id="Path_1282758" data-name="Path 1282758" d="M1009.31,775.964c-.05-.267-.1-.535-.152-.8h0c.052.266.1.531.154.8" transform="translate(-746.535 -573.436)" fill="#2f3686"/>
        <path id="Path_1282759" data-name="Path 1282759" d="M809.538,785.784l1.717-12.6h0L796.646,880.362c-.1.558,1.716,1.4,4.459,2.163h0c1.159.322,2.48.631,3.9.9,1.146.215,2.245.383,3.258.5,3.2.381,5.524.285,5.638-.318,0,0,11.539-38.4,17.046-74.439l3.72,73.605c0,.525,1.67.985,4.168,1.243a45.768,45.768,0,0,0,4.609.219c.879,0,1.726-.022,2.526-.062,3.615-.181,6.25-.739,6.25-1.4,0,0,5.962-56.02,1.667-95.942a116.91,116.91,0,0,1-11.933,1.364,132.9,132.9,0,0,1-32.412-2.41" transform="translate(-589.325 -571.971)" fill="#2f3686"/>
        <path id="Path_1282760" data-name="Path 1282760" d="M869.246,775.46c-8.917,0-16.762-.9-21.331-2.272l-1.717,12.6a132.9,132.9,0,0,0,32.412,2.41,116.866,116.866,0,0,0,11.933-1.364c0-.01,0-.02,0-.03q-.13-1.207-.272-2.393c0-.023-.006-.044-.008-.067q-.141-1.164-.293-2.307c-.008-.06-.017-.119-.025-.178q-.146-1.083-.3-2.146c-.016-.107-.033-.212-.049-.319-.1-.658-.2-1.311-.307-1.956-.026-.162-.055-.32-.083-.481-.1-.582-.2-1.162-.3-1.732-.045-.244-.092-.481-.138-.723q-.076-.4-.154-.8a92.581,92.581,0,0,1-19.36,1.757" transform="translate(-625.984 -571.974)" fill="#162461"/>
        <path id="Path_1282761" data-name="Path 1282761" d="M1157.455,427.777c-.5-.734-1.928,6.178-1.928,6.178s2.99-18.274-1.955-1.747c0,0,2.8-18.336-1.59-.4,0,0,2.31-13.872-1.6-.348a94.675,94.675,0,0,1-3.495,8.955,85.287,85.287,0,0,1-10.418,16.2l2.9,13.3a6.889,6.889,0,0,0,6.3-2.883c7.285-10.276,9.817-22.3,10.2-24.278.866-3.866,2.788-13.2,1.586-14.971" transform="translate(-840.718 -313.613)" fill="#993518"/>
        <path id="Path_1282762" data-name="Path 1282762" d="M1129.2,549.177c-.745.039-1.6.087-2.534.131l3.109,13.826c.79-.164,1.576-.333,2.354-.515l-.014-.063-2.9-13.3Z" transform="translate(-833.464 -406.259)" fill="#f17f49"/>
        <path id="Path_1282763" data-name="Path 1282763" d="M832.255,527.5a8.778,8.778,0,0,0-.85-.264l-.107-.033,0,.008-.011,0a37.88,37.88,0,0,0-4.872-1.2.162.162,0,0,1-.086.116A27.059,27.059,0,0,1,815.662,529h-.25c-3.483,0-7.4-.557-10.183-2.7a.169.169,0,1,1,.206-.267c2.675,2.066,6.528,2.628,9.977,2.627h.248a26.409,26.409,0,0,0,10.284-2.735c-1.472-.253-3.028-.458-4.657-.6a62.829,62.829,0,0,0-6.589-.212c-2.1.043-4.122.183-6.036.4-5.233.59-9.6,1.776-12.3,3.275a8.89,8.89,0,0,0-4.138,3.888l-.007,0c-.015.035-.032.067-.047.1-.106.2-.2.412-.29.625-5.958,13.232-14.451,20.223-19.444,24.686l6.091,13.644A124.662,124.662,0,0,0,790.7,561.713a.168.168,0,0,1-.04-.123l1.651-20.094a.169.169,0,1,1,.336.028L791,561.618a.169.169,0,0,1-.182.154.15.15,0,0,1-.064-.033c-1.1,14.515-1.617,25.148-1.617,25.148,0,1.025,1.551,1.978,4.208,2.774h0c4.569,1.368,12.415,2.272,21.332,2.272a92.573,92.573,0,0,0,19.36-1.757h0c3.849-.883,6.182-2.032,6.182-3.289,0-18.309-.569-31.263-1.208-40.035a92.381,92.381,0,0,0,28.385-1.457l-3.121-13.882a90,90,0,0,1-32.022-4.017" transform="translate(-571.416 -388.448)" fill="#ffb758"/>
        <path id="Path_1282764" data-name="Path 1282764" d="M807.955,1236.127c-.669,0-1.309-.1-1.844-.079a1.221,1.221,0,0,0-1.081.515c-1.189,1.872-.419,5.361-.419,5.365h0c0,1.084,2.506.542,6.951.542s8.049.311,8.049-.774c0-.969-2.887-2.287-6.677-2.555l.01,0c-2.287-.061-1.876-1.417-1.787-2.577a.283.283,0,0,0-.079-.22c-.335-.375-1.752-.224-3.123-.216" transform="translate(-595.039 -914.378)" fill="#2f3686"/>
        <path id="Path_1282765" data-name="Path 1282765" d="M908.452,530.65c-3.448,0-7.3-.561-9.977-2.627a.169.169,0,0,0-.206.267c2.781,2.14,6.7,2.7,10.183,2.7h.251a27.061,27.061,0,0,0,10.663-2.874.161.161,0,0,0,.086-.116.162.162,0,0,0,0-.108.169.169,0,0,0-.224-.081c-.077.036-.16.071-.238.107a26.415,26.415,0,0,1-10.284,2.735h-.248" transform="translate(-664.456 -390.439)" fill="#222530"/>
        <path id="Path_1282766" data-name="Path 1282766" d="M1125.666,549.065a.168.168,0,1,0-.329.074v0l3.121,13.882v0a.168.168,0,1,0,.328-.074h0l-3.109-13.826Z" transform="translate(-832.478 -406.079)" fill="#222530"/>
        <path id="Path_1282767" data-name="Path 1282767" d="M684.3,595.356a88.1,88.1,0,0,1-13.653-9.979,94.693,94.693,0,0,1-6.588-7c-8.676-11.087-1.352.919-1.352.919-10.765-15-1.324.968-1.324.968-10.76-13.484-1.161,2.351-1.161,2.351s-3.908-5.878-4.1-5.011c-.453,2.1,4.82,10.04,7.066,13.3,1.1,1.709,7.938,11.905,18.522,18.71a6.876,6.876,0,0,0,8.84-1.178c-.108.076-.215.156-.323.231Z" transform="translate(-485.356 -423.786)" fill="#993518"/>
        <path id="Path_1282768" data-name="Path 1282768" d="M766.276,652.755c-.677.609-1.289,1.174-1.81,1.7l5.93,13.306c.107-.076.215-.155.323-.231q.823-.581,1.646-1.176c-.011-.012-.028-.017-.035-.033Z" transform="translate(-565.523 -482.883)" fill="#f17f49"/>
        <path id="Path_1282769" data-name="Path 1282769" d="M771.429,651.367a.168.168,0,1,0-.308.137l.067.15,6.055,13.564c.007.016.024.021.034.033a.161.161,0,0,0,.188.053.169.169,0,0,0,.085-.223l-.009-.019-6.091-13.644Z" transform="translate(-570.435 -481.781)" fill="#222530"/>
        <path id="Path_1282770" data-name="Path 1282770" d="M899.6,413.956c-.011.132-.028.263-.032.4a7.012,7.012,0,0,0,14.018.414l-.044-2.523-.114-6.524c.049-.025.1-.046.152-.072l0-.006a3.065,3.065,0,0,0-1.922-5.822l0-.012s-.032.015-.089.038-.124.041-.184.066a5.011,5.011,0,0,1-3.707-.221c-2.127-.995-4.259-2.568-6-2.708v0a5.555,5.555,0,0,0-3.514,10.5,4.873,4.873,0,0,0,1.576,3.424l-.062,1.352-.077,1.694Z" transform="translate(-661.934 -293.556)" fill="#282a40"/>
        <path id="Path_1282771" data-name="Path 1282771" d="M842.815,607.787l1.651-20.093a.169.169,0,0,0-.336-.028l-1.652,20.093a.17.17,0,0,0,.04.123c.012.014.033.016.05.026s.038.031.064.033a.169.169,0,0,0,.182-.154" transform="translate(-623.233 -434.618)" fill="#222530"/>
        <path id="Path_1282772" data-name="Path 1282772" d="M.349,1262.615H503.362a.349.349,0,1,0,0-.7H.349a.349.349,0,1,0,0,.7" transform="translate(0 -933.518)" fill="#12151d"/>
      </g>
    </g>
    <g id="Group_1214395" data-name="Group 1214395" transform="translate(4694 11340)">
      <g id="Group_1214392" data-name="Group 1214392" transform="translate(-3860 -6650)">
        <rect id="Rectangle_467372" data-name="Rectangle 467372" width="356" height="54" rx="19" transform="translate(19)" fill="#19538d"/>
        <path id="Path_1284764" data-name="Path 1284764" d="M130.123,13.771h-4.9L124.3,19H121.73l2.224-12.8h8.1l-.378,2.136h-5.52l-.58,3.3H130.5Zm7.428-1.9a5.117,5.117,0,0,0-.835-.088,2.4,2.4,0,0,0-2.1.993L133.517,19h-2.479l1.652-9.51,2.329-.009-.229,1.16A2.615,2.615,0,0,1,137.006,9.3a3.615,3.615,0,0,1,.861.123ZM142.782,19a2.566,2.566,0,0,1-.1-.861,3.221,3.221,0,0,1-2.426,1.037,2.919,2.919,0,0,1-2.07-.813,2.46,2.46,0,0,1-.769-1.964,2.843,2.843,0,0,1,1.305-2.386,5.924,5.924,0,0,1,3.335-.831l1.16.018.123-.571a1.984,1.984,0,0,0,.026-.554.952.952,0,0,0-.312-.646,1.075,1.075,0,0,0-.708-.242,1.514,1.514,0,0,0-.984.286,1.384,1.384,0,0,0-.519.875l-2.487.009a2.764,2.764,0,0,1,1.252-2.21,4.851,4.851,0,0,1,2.94-.831,3.507,3.507,0,0,1,2.531.962,2.816,2.816,0,0,1,.765,2.386l-.729,4.553-.044.563a2.714,2.714,0,0,0,.149,1.055l-.009.167Zm-1.907-1.749a2.27,2.27,0,0,0,1.872-.932l.308-1.644-.861-.009a2.406,2.406,0,0,0-1.978.835,1.454,1.454,0,0,0-.272.712.844.844,0,0,0,.2.751A1,1,0,0,0,140.874,17.251Zm9.854-7.77-.2,1.081a3.5,3.5,0,0,1,2.786-1.248,2.676,2.676,0,0,1,1.459.4,1.889,1.889,0,0,1,.782,1.046,3.662,3.662,0,0,1,2.953-1.45,2.391,2.391,0,0,1,1.973.9,3.68,3.68,0,0,1,.558,2.514l-.018.22L160.009,19h-2.487l1.011-6.08a4.4,4.4,0,0,0,.026-.607.942.942,0,0,0-1.055-.95,2.093,2.093,0,0,0-1.749,1.091l-.026.2L154.622,19h-2.479l1.011-6.056a4.386,4.386,0,0,0,.026-.606.94.94,0,0,0-1.046-.958,2.1,2.1,0,0,0-1.7.888L149.251,19h-2.479l1.644-9.51Zm15.813,9.694a4.137,4.137,0,0,1-2.21-.611,3.7,3.7,0,0,1-1.437-1.652,4.605,4.605,0,0,1-.369-2.316l.026-.352a6.148,6.148,0,0,1,.809-2.549,4.884,4.884,0,0,1,1.74-1.789,4.306,4.306,0,0,1,2.355-.593,3.29,3.29,0,0,1,2.782,1.351A4.631,4.631,0,0,1,170.953,14l-.141,1.083h-5.827a2.041,2.041,0,0,0,.448,1.477,1.711,1.711,0,0,0,1.318.571,3.041,3.041,0,0,0,2.373-1.055l1.134,1.406a3.527,3.527,0,0,1-1.547,1.261A5.059,5.059,0,0,1,166.541,19.176Zm.791-7.813a1.761,1.761,0,0,0-1.217.431,3.784,3.784,0,0,0-.954,1.556h3.41l.053-.229a2.33,2.33,0,0,0,.009-.668,1.276,1.276,0,0,0-.431-.8A1.35,1.35,0,0,0,167.332,11.362Zm12.851,4.175,2.259-6.047h2.47l-4,9.51h-2.074l-.7-5.95L175.357,19h-2.074l-.7-9.51h2.32l.149,5.985,2.716-5.985h1.793ZM190,9.314a3.814,3.814,0,0,1,2.167.646,3.638,3.638,0,0,1,1.336,1.731,5.357,5.357,0,0,1,.3,2.448,5.786,5.786,0,0,1-1.578,3.669,4.455,4.455,0,0,1-3.4,1.367,3.8,3.8,0,0,1-2.145-.637,3.624,3.624,0,0,1-1.336-1.718,5.239,5.239,0,0,1-.308-2.426,5.957,5.957,0,0,1,1.6-3.744A4.363,4.363,0,0,1,190,9.314Zm-2.5,5.979a2.194,2.194,0,0,0,.4,1.33,1.314,1.314,0,0,0,1.063.5,1.926,1.926,0,0,0,1.793-1.049,5.227,5.227,0,0,0,.606-2.848,2.387,2.387,0,0,0-.409-1.347,1.293,1.293,0,0,0-1.068-.522,1.929,1.929,0,0,0-1.771,1.04A5.173,5.173,0,0,0,187.5,15.294Zm13.58-3.422a5.117,5.117,0,0,0-.835-.088,2.4,2.4,0,0,0-2.1.993L197.042,19h-2.479l1.652-9.51,2.329-.009-.229,1.16A2.615,2.615,0,0,1,200.531,9.3a3.615,3.615,0,0,1,.861.123Zm4.106,3.34-1.151,1L203.547,19h-2.479l2.338-13.5h2.487l-1.283,7.33.483-.519,2.821-2.821H211.1l-4.157,4.087L209.585,19h-2.716Z" transform="translate(29 16)" fill="#fff"/>
        <path id="Path_1282655" data-name="Path 1282655" d="M27,0H0V133.142L.155,311.621H27" transform="translate(349.523 71.689) rotate(90)" fill="none" stroke="#0f654d" stroke-linecap="round" stroke-linejoin="round" stroke-width="2" stroke-dasharray="2 3"/>
        <path id="Path_1282656" data-name="Path 1282656" d="M0,0H52.689" transform="translate(186.101 45.999) rotate(90)" fill="none" stroke="#0f654d" stroke-linecap="round" stroke-linejoin="round" stroke-width="2" stroke-dasharray="2 3"/>
        <rect id="Rectangle_467373" data-name="Rectangle 467373" width="392" height="71" rx="15" transform="translate(0 99)" fill="#ffcc74"/>
        <rect id="Rectangle_467374" data-name="Rectangle 467374" width="392" height="71" rx="15" transform="translate(0 176)" fill="#ffcc74"/>
        <rect id="Rectangle_467375" data-name="Rectangle 467375" width="392" height="71" rx="15" transform="translate(0 253)" fill="#ffcc74"/>
        <rect id="Rectangle_467376" data-name="Rectangle 467376" width="392" height="71" rx="15" transform="translate(0 330)" fill="#ffcc74"/>
        <path id="Path_1284765" data-name="Path 1284765" d="M8.552,15.651H3.19L1.986,19H.246L5.133,6.2H6.609L11.5,19H9.773ZM3.7,14.271H8.051L5.871,8.286Zm13.914-3.322a4.873,4.873,0,0,0-.8-.062,2.143,2.143,0,0,0-2.171,1.362V19H13.018V9.49H14.6l.026,1.1a2.532,2.532,0,0,1,2.268-1.274,1.661,1.661,0,0,1,.721.123Zm1.144,3.217a5.582,5.582,0,0,1,1.028-3.546,3.332,3.332,0,0,1,2.76-1.305,3.33,3.33,0,0,1,2.663,1.134l.07-.958h1.494V22.656H25.148V18.121a3.412,3.412,0,0,1-2.619,1.055,3.28,3.28,0,0,1-2.747-1.34,5.706,5.706,0,0,1-1.024-3.555Zm1.626.185a4.231,4.231,0,0,0,.69,2.566,2.195,2.195,0,0,0,1.859.932,2.435,2.435,0,0,0,2.215-1.283V11.907a2.442,2.442,0,0,0-2.2-1.257,2.211,2.211,0,0,0-1.872.936A4.606,4.606,0,0,0,20.384,14.351ZM35.3,18.06a3.454,3.454,0,0,1-2.786,1.116,2.956,2.956,0,0,1-2.316-.883,3.823,3.823,0,0,1-.8-2.615V9.49H31.02v6.144q0,2.162,1.758,2.162a2.434,2.434,0,0,0,2.479-1.389V9.49h1.626V19H35.335Zm5.863.94H39.537V9.49h1.626ZM39.406,6.968a.971.971,0,0,1,.242-.668.907.907,0,0,1,.716-.272.922.922,0,0,1,.721.272.96.96,0,0,1,.246.668.929.929,0,0,1-.246.659.938.938,0,0,1-.721.264.924.924,0,0,1-.716-.264A.938.938,0,0,1,39.406,6.968Zm6.61.22v2.3h1.775v1.257H46.016v5.9a1.32,1.32,0,0,0,.237.858,1,1,0,0,0,.809.286,3.937,3.937,0,0,0,.773-.105V19a4.742,4.742,0,0,1-1.248.175,2.025,2.025,0,0,1-1.644-.659,2.832,2.832,0,0,1-.554-1.872v-5.9H42.659V9.49H44.39v-2.3Zm7.665,11.988a4.155,4.155,0,0,1-3.146-1.27,4.714,4.714,0,0,1-1.213-3.4v-.3a5.707,5.707,0,0,1,.541-2.527,4.217,4.217,0,0,1,1.512-1.74,3.8,3.8,0,0,1,2.1-.628,3.562,3.562,0,0,1,2.883,1.222,5.289,5.289,0,0,1,1.028,3.5v.677H50.948a3.38,3.38,0,0,0,.822,2.272,2.583,2.583,0,0,0,2,.866,2.832,2.832,0,0,0,1.459-.352,3.666,3.666,0,0,0,1.046-.932l.993.773A3.993,3.993,0,0,1,53.681,19.176Zm-.2-8.525a2.169,2.169,0,0,0-1.652.716A3.482,3.482,0,0,0,51,13.375h4.764v-.123a3.1,3.1,0,0,0-.668-1.92A2.042,2.042,0,0,0,53.479,10.65Zm9.651,7.2a2.342,2.342,0,0,0,1.521-.527A1.855,1.855,0,0,0,65.372,16H66.91a2.949,2.949,0,0,1-.562,1.556,3.7,3.7,0,0,1-1.384,1.178,3.994,3.994,0,0,1-1.833.439,3.918,3.918,0,0,1-3.089-1.3,5.163,5.163,0,0,1-1.147-3.546v-.272a5.725,5.725,0,0,1,.51-2.47,3.883,3.883,0,0,1,1.463-1.679,4.157,4.157,0,0,1,2.254-.6,3.814,3.814,0,0,1,2.659.958A3.424,3.424,0,0,1,66.91,12.76H65.372a2.241,2.241,0,0,0-.7-1.516,2.174,2.174,0,0,0-1.551-.593,2.276,2.276,0,0,0-1.92.892,4.19,4.19,0,0,0-.681,2.58v.308a4.106,4.106,0,0,0,.677,2.531A2.287,2.287,0,0,0,63.13,17.849ZM70.989,7.188v2.3h1.775v1.257H70.989v5.9a1.32,1.32,0,0,0,.237.858,1,1,0,0,0,.809.286,3.937,3.937,0,0,0,.773-.105V19a4.742,4.742,0,0,1-1.248.175,2.025,2.025,0,0,1-1.644-.659,2.832,2.832,0,0,1-.554-1.872v-5.9H67.631V9.49h1.731v-2.3Zm9.59,10.872a3.454,3.454,0,0,1-2.786,1.116,2.956,2.956,0,0,1-2.316-.883,3.823,3.823,0,0,1-.8-2.615V9.49H76.3v6.144q0,2.162,1.758,2.162a2.434,2.434,0,0,0,2.479-1.389V9.49h1.626V19H80.614Zm8.693-7.11a4.873,4.873,0,0,0-.8-.062A2.143,2.143,0,0,0,86.3,12.25V19H84.676V9.49h1.582l.026,1.1a2.532,2.532,0,0,1,2.268-1.274,1.661,1.661,0,0,1,.721.123ZM96.331,19a3.416,3.416,0,0,1-.229-1A3.628,3.628,0,0,1,93.4,19.176a3.357,3.357,0,0,1-2.307-.8,2.573,2.573,0,0,1-.9-2.017,2.688,2.688,0,0,1,1.129-2.307,5.325,5.325,0,0,1,3.177-.822h1.582v-.747a1.826,1.826,0,0,0-.51-1.358,2.049,2.049,0,0,0-1.5-.505,2.371,2.371,0,0,0-1.459.439,1.3,1.3,0,0,0-.589,1.063H90.381a2.244,2.244,0,0,1,.505-1.375A3.449,3.449,0,0,1,92.257,9.7a4.613,4.613,0,0,1,1.9-.387,3.759,3.759,0,0,1,2.575.822A2.964,2.964,0,0,1,97.7,12.4v4.377a5.351,5.351,0,0,0,.334,2.083V19Zm-2.7-1.239a2.858,2.858,0,0,0,1.45-.4,2.392,2.392,0,0,0,.993-1.028V14.386H94.8q-2.988,0-2.988,1.749a1.48,1.48,0,0,0,.51,1.2A1.959,1.959,0,0,0,93.633,17.761Zm19.215-3.41a5.654,5.654,0,0,1-1,3.5,3.2,3.2,0,0,1-2.689,1.323A3.315,3.315,0,0,1,106.37,17.9l-.079,1.1H104.8V5.5h1.626v5.036a3.3,3.3,0,0,1,2.716-1.222,3.221,3.221,0,0,1,2.72,1.31,5.824,5.824,0,0,1,.989,3.586Zm-1.626-.185a4.394,4.394,0,0,0-.642-2.566,2.124,2.124,0,0,0-1.846-.905,2.387,2.387,0,0,0-2.312,1.494V16.3a2.454,2.454,0,0,0,2.329,1.494,2.112,2.112,0,0,0,1.819-.905A4.672,4.672,0,0,0,111.222,14.166ZM120.812,19a3.416,3.416,0,0,1-.229-1,3.628,3.628,0,0,1-2.707,1.178,3.357,3.357,0,0,1-2.307-.8,2.573,2.573,0,0,1-.9-2.017,2.688,2.688,0,0,1,1.129-2.307,5.325,5.325,0,0,1,3.177-.822h1.582v-.747a1.826,1.826,0,0,0-.51-1.358,2.049,2.049,0,0,0-1.5-.505,2.371,2.371,0,0,0-1.459.439,1.3,1.3,0,0,0-.589,1.063h-1.635a2.244,2.244,0,0,1,.505-1.375,3.449,3.449,0,0,1,1.371-1.05,4.613,4.613,0,0,1,1.9-.387,3.759,3.759,0,0,1,2.575.822,2.964,2.964,0,0,1,.967,2.263v4.377a5.351,5.351,0,0,0,.334,2.083V19Zm-2.7-1.239a2.858,2.858,0,0,0,1.45-.4,2.392,2.392,0,0,0,.993-1.028V14.386h-1.274q-2.988,0-2.988,1.749a1.48,1.48,0,0,0,.51,1.2A1.959,1.959,0,0,0,118.113,17.761Zm12.2-1.283a1.2,1.2,0,0,0-.5-1.024,4.78,4.78,0,0,0-1.731-.628,8.186,8.186,0,0,1-1.96-.633,2.788,2.788,0,0,1-1.072-.879,2.1,2.1,0,0,1-.347-1.213,2.467,2.467,0,0,1,.989-1.978,3.861,3.861,0,0,1,2.527-.809,3.974,3.974,0,0,1,2.624.835,2.652,2.652,0,0,1,1.006,2.136h-1.635a1.468,1.468,0,0,0-.567-1.151,2.124,2.124,0,0,0-1.428-.483,2.223,2.223,0,0,0-1.389.387,1.217,1.217,0,0,0-.5,1.011.986.986,0,0,0,.466.888,5.731,5.731,0,0,0,1.683.571,8.77,8.77,0,0,1,1.973.65,2.878,2.878,0,0,1,1.121.91,2.237,2.237,0,0,1,.365,1.3,2.434,2.434,0,0,1-1.02,2.043,4.277,4.277,0,0,1-2.646.769,4.789,4.789,0,0,1-2.021-.4,3.288,3.288,0,0,1-1.375-1.129,2.722,2.722,0,0,1-.5-1.569h1.626a1.683,1.683,0,0,0,.655,1.3,2.54,2.54,0,0,0,1.613.479,2.622,2.622,0,0,0,1.481-.374A1.148,1.148,0,0,0,130.314,16.478Zm7.735,2.7a4.155,4.155,0,0,1-3.146-1.27,4.714,4.714,0,0,1-1.213-3.4v-.3a5.707,5.707,0,0,1,.541-2.527,4.217,4.217,0,0,1,1.512-1.74,3.8,3.8,0,0,1,2.1-.628,3.562,3.562,0,0,1,2.883,1.222,5.289,5.289,0,0,1,1.028,3.5v.677h-6.442a3.38,3.38,0,0,0,.822,2.272,2.583,2.583,0,0,0,2,.866A2.832,2.832,0,0,0,139.6,17.5a3.666,3.666,0,0,0,1.046-.932l.993.773A3.993,3.993,0,0,1,138.049,19.176Zm-.2-8.525a2.169,2.169,0,0,0-1.652.716,3.482,3.482,0,0,0-.826,2.008h4.764v-.123a3.1,3.1,0,0,0-.668-1.92A2.042,2.042,0,0,0,137.847,10.65Z" transform="translate(135 125)" fill="#12263f"/>
        <path id="Path_1284766" data-name="Path 1284766" d="M3.182,17.62H9.246V19H1.485V6.2h1.7ZM12.728,19H11.1V9.49h1.626ZM10.97,6.968a.971.971,0,0,1,.242-.668.907.907,0,0,1,.716-.272.922.922,0,0,1,.721.272.96.96,0,0,1,.246.668.929.929,0,0,1-.246.659.938.938,0,0,1-.721.264.924.924,0,0,1-.716-.264A.938.938,0,0,1,10.97,6.968Zm12.455,7.383a5.654,5.654,0,0,1-1,3.5,3.2,3.2,0,0,1-2.689,1.323A3.315,3.315,0,0,1,16.947,17.9L16.868,19H15.374V5.5H17v5.036a3.3,3.3,0,0,1,2.716-1.222,3.221,3.221,0,0,1,2.72,1.31,5.824,5.824,0,0,1,.989,3.586ZM21.8,14.166a4.394,4.394,0,0,0-.642-2.566,2.124,2.124,0,0,0-1.846-.905A2.387,2.387,0,0,0,17,12.188V16.3A2.454,2.454,0,0,0,19.329,17.8a2.112,2.112,0,0,0,1.819-.905A4.672,4.672,0,0,0,21.8,14.166Zm8.316-3.217a4.873,4.873,0,0,0-.8-.062,2.143,2.143,0,0,0-2.171,1.362V19H25.518V9.49H27.1l.026,1.1a2.532,2.532,0,0,1,2.268-1.274,1.661,1.661,0,0,1,.721.123ZM35.6,19.176a4.155,4.155,0,0,1-3.146-1.27,4.714,4.714,0,0,1-1.213-3.4v-.3a5.707,5.707,0,0,1,.541-2.527,4.217,4.217,0,0,1,1.512-1.74,3.8,3.8,0,0,1,2.1-.628,3.562,3.562,0,0,1,2.883,1.222,5.289,5.289,0,0,1,1.028,3.5v.677H32.867a3.38,3.38,0,0,0,.822,2.272,2.583,2.583,0,0,0,2,.866,2.832,2.832,0,0,0,1.459-.352,3.666,3.666,0,0,0,1.046-.932l.993.773A3.993,3.993,0,0,1,35.6,19.176Zm-.2-8.525a2.169,2.169,0,0,0-1.652.716,3.482,3.482,0,0,0-.826,2.008h4.764v-.123a3.1,3.1,0,0,0-.668-1.92A2.042,2.042,0,0,0,35.4,10.65Zm10.434.3a4.873,4.873,0,0,0-.8-.062,2.143,2.143,0,0,0-2.171,1.362V19H41.235V9.49h1.582l.026,1.1a2.532,2.532,0,0,1,2.268-1.274,1.661,1.661,0,0,1,.721.123ZM49.137,19H47.5V9.49h1.635Zm.018-13.491h1.969L48.768,8.093l-1.31,0ZM57.734,19a3.416,3.416,0,0,1-.229-1A3.628,3.628,0,0,1,54.8,19.176a3.357,3.357,0,0,1-2.307-.8,2.573,2.573,0,0,1-.9-2.017,2.688,2.688,0,0,1,1.129-2.307,5.325,5.325,0,0,1,3.177-.822h1.582v-.747a1.826,1.826,0,0,0-.51-1.358,2.049,2.049,0,0,0-1.5-.505,2.371,2.371,0,0,0-1.459.439,1.3,1.3,0,0,0-.589,1.063H51.784a2.244,2.244,0,0,1,.505-1.375A3.449,3.449,0,0,1,53.66,9.7a4.613,4.613,0,0,1,1.9-.387,3.759,3.759,0,0,1,2.575.822,2.964,2.964,0,0,1,.967,2.263v4.377a5.351,5.351,0,0,0,.334,2.083V19Zm-2.7-1.239a2.858,2.858,0,0,0,1.45-.4,2.392,2.392,0,0,0,.993-1.028V14.386H56.2q-2.988,0-2.988,1.749a1.48,1.48,0,0,0,.51,1.2A1.959,1.959,0,0,0,55.036,17.761Zm12.2-1.283a1.2,1.2,0,0,0-.5-1.024,4.78,4.78,0,0,0-1.731-.628,8.186,8.186,0,0,1-1.96-.633,2.788,2.788,0,0,1-1.072-.879,2.1,2.1,0,0,1-.347-1.213,2.467,2.467,0,0,1,.989-1.978,3.861,3.861,0,0,1,2.527-.809,3.974,3.974,0,0,1,2.624.835,2.652,2.652,0,0,1,1.006,2.136H67.139a1.468,1.468,0,0,0-.567-1.151,2.124,2.124,0,0,0-1.428-.483,2.223,2.223,0,0,0-1.389.387,1.217,1.217,0,0,0-.5,1.011.986.986,0,0,0,.466.888,5.731,5.731,0,0,0,1.683.571,8.77,8.77,0,0,1,1.973.65,2.878,2.878,0,0,1,1.121.91,2.237,2.237,0,0,1,.365,1.3,2.434,2.434,0,0,1-1.02,2.043,4.277,4.277,0,0,1-2.646.769,4.789,4.789,0,0,1-2.021-.4A3.288,3.288,0,0,1,61.8,17.642a2.722,2.722,0,0,1-.5-1.569h1.626a1.683,1.683,0,0,0,.655,1.3,2.54,2.54,0,0,0,1.613.479,2.622,2.622,0,0,0,1.481-.374A1.148,1.148,0,0,0,67.236,16.478ZM77.293,19H75.667V9.49h1.626ZM75.535,6.968a.971.971,0,0,1,.242-.668.907.907,0,0,1,.716-.272.922.922,0,0,1,.721.272.96.96,0,0,1,.246.668.929.929,0,0,1-.246.659.938.938,0,0,1-.721.264.924.924,0,0,1-.716-.264A.938.938,0,0,1,75.535,6.968ZM81.477,9.49l.053,1.2a3.465,3.465,0,0,1,2.848-1.371q3.015,0,3.041,3.4V19H85.793V12.707a2.189,2.189,0,0,0-.47-1.521,1.884,1.884,0,0,0-1.437-.492,2.347,2.347,0,0,0-1.389.422,2.865,2.865,0,0,0-.932,1.107V19H79.939V9.49Zm10.645-2.3v2.3H93.9v1.257H92.122v5.9a1.32,1.32,0,0,0,.237.858,1,1,0,0,0,.809.286,3.937,3.937,0,0,0,.773-.105V19a4.742,4.742,0,0,1-1.248.175,2.025,2.025,0,0,1-1.644-.659,2.832,2.832,0,0,1-.554-1.872v-5.9H88.765V9.49H90.5v-2.3Zm7.665,11.988a4.155,4.155,0,0,1-3.146-1.27,4.714,4.714,0,0,1-1.213-3.4v-.3a5.707,5.707,0,0,1,.541-2.527,4.217,4.217,0,0,1,1.512-1.74,3.8,3.8,0,0,1,2.1-.628,3.562,3.562,0,0,1,2.883,1.222,5.289,5.289,0,0,1,1.028,3.5v.677H97.054a3.38,3.38,0,0,0,.822,2.272,2.583,2.583,0,0,0,2,.866,2.832,2.832,0,0,0,1.459-.352,3.666,3.666,0,0,0,1.046-.932l.993.773A3.993,3.993,0,0,1,99.787,19.176Zm-.2-8.525a2.169,2.169,0,0,0-1.652.716,3.482,3.482,0,0,0-.826,2.008h4.764v-.123a3.1,3.1,0,0,0-.668-1.92A2.042,2.042,0,0,0,99.585,10.65Zm5.45,3.516a5.589,5.589,0,0,1,1.028-3.538,3.545,3.545,0,0,1,5.44-.083l.079-1.055h1.485v9.281a3.869,3.869,0,0,1-1.094,2.909,4.038,4.038,0,0,1-2.94,1.063,4.891,4.891,0,0,1-2.013-.439,3.465,3.465,0,0,1-1.5-1.2l.844-.976a3.18,3.18,0,0,0,2.558,1.292,2.491,2.491,0,0,0,1.85-.668,2.553,2.553,0,0,0,.664-1.881v-.817a3.342,3.342,0,0,1-2.663,1.125,3.248,3.248,0,0,1-2.7-1.345A5.876,5.876,0,0,1,105.035,14.166Zm1.635.185a4.264,4.264,0,0,0,.659,2.527,2.142,2.142,0,0,0,1.846.918,2.382,2.382,0,0,0,2.259-1.4V12.057a2.41,2.41,0,0,0-2.241-1.362,2.161,2.161,0,0,0-1.854.923A4.644,4.644,0,0,0,106.67,14.351Zm13.492-3.4a4.873,4.873,0,0,0-.8-.062,2.143,2.143,0,0,0-2.171,1.362V19h-1.626V9.49h1.582l.026,1.1a2.532,2.532,0,0,1,2.268-1.274,1.661,1.661,0,0,1,.721.123ZM127.221,19a3.416,3.416,0,0,1-.229-1,3.628,3.628,0,0,1-2.707,1.178,3.357,3.357,0,0,1-2.307-.8,2.573,2.573,0,0,1-.9-2.017,2.688,2.688,0,0,1,1.129-2.307,5.325,5.325,0,0,1,3.177-.822h1.582v-.747a1.826,1.826,0,0,0-.51-1.358,2.049,2.049,0,0,0-1.5-.505,2.371,2.371,0,0,0-1.459.439,1.3,1.3,0,0,0-.589,1.063h-1.635a2.244,2.244,0,0,1,.505-1.375,3.449,3.449,0,0,1,1.371-1.05,4.613,4.613,0,0,1,1.9-.387,3.759,3.759,0,0,1,2.575.822,2.964,2.964,0,0,1,.967,2.263v4.377a5.351,5.351,0,0,0,.334,2.083V19Zm-2.7-1.239a2.858,2.858,0,0,0,1.45-.4,2.392,2.392,0,0,0,.993-1.028V14.386h-1.274q-2.988,0-2.988,1.749a1.48,1.48,0,0,0,.51,1.2A1.959,1.959,0,0,0,124.523,17.761Zm6.268-3.595a5.571,5.571,0,0,1,1.037-3.52,3.529,3.529,0,0,1,5.361-.189V5.5h1.626V19h-1.494l-.079-1.02a3.311,3.311,0,0,1-2.716,1.2,3.248,3.248,0,0,1-2.694-1.354,5.634,5.634,0,0,1-1.042-3.533Zm1.626.185a4.218,4.218,0,0,0,.668,2.531,2.159,2.159,0,0,0,1.846.914,2.372,2.372,0,0,0,2.259-1.389V12.039a2.39,2.39,0,0,0-2.241-1.345,2.17,2.17,0,0,0-1.863.923A4.644,4.644,0,0,0,132.416,14.351ZM147.253,19a3.416,3.416,0,0,1-.229-1,3.628,3.628,0,0,1-2.707,1.178,3.357,3.357,0,0,1-2.307-.8,2.573,2.573,0,0,1-.9-2.017,2.688,2.688,0,0,1,1.129-2.307,5.325,5.325,0,0,1,3.177-.822H147v-.747a1.826,1.826,0,0,0-.51-1.358,2.049,2.049,0,0,0-1.5-.505,2.371,2.371,0,0,0-1.459.439,1.3,1.3,0,0,0-.589,1.063H141.3a2.244,2.244,0,0,1,.505-1.375A3.449,3.449,0,0,1,143.18,9.7a4.613,4.613,0,0,1,1.9-.387,3.759,3.759,0,0,1,2.575.822,2.964,2.964,0,0,1,.967,2.263v4.377a5.351,5.351,0,0,0,.334,2.083V19Zm-2.7-1.239a2.858,2.858,0,0,0,1.45-.4A2.392,2.392,0,0,0,147,16.337V14.386h-1.274q-2.988,0-2.988,1.749a1.48,1.48,0,0,0,.51,1.2A1.959,1.959,0,0,0,144.555,17.761Zm12.2-1.283a1.2,1.2,0,0,0-.5-1.024,4.78,4.78,0,0,0-1.731-.628,8.186,8.186,0,0,1-1.96-.633,2.788,2.788,0,0,1-1.072-.879,2.1,2.1,0,0,1-.347-1.213,2.467,2.467,0,0,1,.989-1.978,3.861,3.861,0,0,1,2.527-.809,3.974,3.974,0,0,1,2.624.835,2.652,2.652,0,0,1,1.006,2.136h-1.635a1.468,1.468,0,0,0-.567-1.151,2.124,2.124,0,0,0-1.428-.483,2.223,2.223,0,0,0-1.389.387,1.217,1.217,0,0,0-.5,1.011.986.986,0,0,0,.466.888,5.731,5.731,0,0,0,1.683.571,8.77,8.77,0,0,1,1.973.65,2.878,2.878,0,0,1,1.121.91,2.237,2.237,0,0,1,.365,1.3,2.434,2.434,0,0,1-1.02,2.043,4.277,4.277,0,0,1-2.646.769,4.789,4.789,0,0,1-2.021-.4,3.288,3.288,0,0,1-1.375-1.129,2.722,2.722,0,0,1-.5-1.569h1.626a1.683,1.683,0,0,0,.655,1.3,2.54,2.54,0,0,0,1.613.479,2.622,2.622,0,0,0,1.481-.374A1.148,1.148,0,0,0,156.755,16.478Z" transform="translate(135 202)" fill="#12263f"/>
        <path id="Path_1284767" data-name="Path 1284767" d="M10.9,14.939a4.708,4.708,0,0,1-1.5,3.133,4.911,4.911,0,0,1-3.353,1.1A4.509,4.509,0,0,1,2.413,17.55,6.542,6.542,0,0,1,1.046,13.2v-1.23a7.291,7.291,0,0,1,.637-3.138A4.76,4.76,0,0,1,3.489,6.752,5.029,5.029,0,0,1,6.2,6.027a4.624,4.624,0,0,1,3.27,1.138A4.765,4.765,0,0,1,10.9,10.316H9.2a3.677,3.677,0,0,0-.954-2.222A2.885,2.885,0,0,0,6.2,7.407,3.019,3.019,0,0,0,3.661,8.6a5.492,5.492,0,0,0-.918,3.4v1.24a5.645,5.645,0,0,0,.87,3.316A2.812,2.812,0,0,0,6.047,17.8,3.247,3.247,0,0,0,8.2,17.159a3.536,3.536,0,0,0,1-2.219Zm1.662-.782a5.617,5.617,0,0,1,.549-2.514,4.1,4.1,0,0,1,1.529-1.723,4.163,4.163,0,0,1,2.237-.606,4.01,4.01,0,0,1,3.142,1.345,5.174,5.174,0,0,1,1.2,3.577v.114a5.666,5.666,0,0,1-.532,2.492,4.038,4.038,0,0,1-1.521,1.718,4.211,4.211,0,0,1-2.272.615,4,4,0,0,1-3.133-1.345,5.147,5.147,0,0,1-1.2-3.56Zm1.635.193a4.068,4.068,0,0,0,.734,2.54,2.487,2.487,0,0,0,3.933-.013,4.449,4.449,0,0,0,.729-2.72,4.061,4.061,0,0,0-.743-2.536,2.361,2.361,0,0,0-1.973-.971,2.335,2.335,0,0,0-1.942.958A4.416,4.416,0,0,0,14.2,14.351ZM24.84,9.49l.053,1.2A3.465,3.465,0,0,1,27.74,9.314q3.015,0,3.041,3.4V19H29.155V12.707a2.189,2.189,0,0,0-.47-1.521,1.884,1.884,0,0,0-1.437-.492,2.347,2.347,0,0,0-1.389.422,2.865,2.865,0,0,0-.932,1.107V19H23.3V9.49ZM33.823,19V10.747h-1.5V9.49h1.5V8.682a3.3,3.3,0,0,1,.91-2.479A3.528,3.528,0,0,1,37.3,5.315a7.741,7.741,0,0,1,2.487.536l-.272,1.371a5.634,5.634,0,0,0-2.092-.439,2.047,2.047,0,0,0-1.507.47,1.938,1.938,0,0,0-.461,1.411V9.49H37.4v1.257H35.458V19ZM40.6,19H38.965V9.49H40.6Zm2.3-4.834a5.589,5.589,0,0,1,1.028-3.538,3.545,3.545,0,0,1,5.44-.083l.079-1.055h1.485v9.281a3.869,3.869,0,0,1-1.094,2.909,4.038,4.038,0,0,1-2.94,1.063A4.891,4.891,0,0,1,44.89,22.3a3.465,3.465,0,0,1-1.5-1.2l.844-.976a3.18,3.18,0,0,0,2.558,1.292,2.491,2.491,0,0,0,1.85-.668,2.553,2.553,0,0,0,.664-1.881v-.817a3.342,3.342,0,0,1-2.663,1.125,3.248,3.248,0,0,1-2.7-1.345A5.876,5.876,0,0,1,42.9,14.166Zm1.635.185a4.264,4.264,0,0,0,.659,2.527,2.142,2.142,0,0,0,1.846.918A2.382,2.382,0,0,0,49.3,16.4V12.057a2.41,2.41,0,0,0-2.241-1.362,2.161,2.161,0,0,0-1.854.923A4.644,4.644,0,0,0,44.538,14.351ZM59.305,18.06a3.454,3.454,0,0,1-2.786,1.116,2.956,2.956,0,0,1-2.316-.883,3.823,3.823,0,0,1-.8-2.615V9.49h1.626v6.144q0,2.162,1.758,2.162a2.434,2.434,0,0,0,2.479-1.389V9.49h1.626V19H59.34ZM68,10.949a4.873,4.873,0,0,0-.8-.062,2.143,2.143,0,0,0-2.171,1.362V19H63.4V9.49h1.582l.026,1.1a2.532,2.532,0,0,1,2.268-1.274A1.661,1.661,0,0,1,68,9.438ZM75.057,19a3.416,3.416,0,0,1-.229-1,3.628,3.628,0,0,1-2.707,1.178,3.357,3.357,0,0,1-2.307-.8,2.573,2.573,0,0,1-.9-2.017,2.688,2.688,0,0,1,1.129-2.307,5.325,5.325,0,0,1,3.177-.822H74.8v-.747a1.826,1.826,0,0,0-.51-1.358,2.049,2.049,0,0,0-1.5-.505,2.371,2.371,0,0,0-1.459.439,1.3,1.3,0,0,0-.589,1.063H69.107a2.244,2.244,0,0,1,.505-1.375A3.449,3.449,0,0,1,70.983,9.7a4.613,4.613,0,0,1,1.9-.387,3.759,3.759,0,0,1,2.575.822,2.964,2.964,0,0,1,.967,2.263v4.377a5.351,5.351,0,0,0,.334,2.083V19Zm-2.7-1.239a2.858,2.858,0,0,0,1.45-.4,2.392,2.392,0,0,0,.993-1.028V14.386H73.528q-2.988,0-2.988,1.749a1.48,1.48,0,0,0,.51,1.2A1.959,1.959,0,0,0,72.359,17.761Zm10.478.088a2.342,2.342,0,0,0,1.521-.527A1.855,1.855,0,0,0,85.078,16h1.538a2.949,2.949,0,0,1-.562,1.556,3.7,3.7,0,0,1-1.384,1.178,3.994,3.994,0,0,1-1.833.439,3.918,3.918,0,0,1-3.089-1.3A5.163,5.163,0,0,1,78.6,14.333v-.272a5.725,5.725,0,0,1,.51-2.47,3.883,3.883,0,0,1,1.463-1.679,4.157,4.157,0,0,1,2.254-.6,3.814,3.814,0,0,1,2.659.958,3.424,3.424,0,0,1,1.129,2.487H85.078a2.241,2.241,0,0,0-.7-1.516,2.174,2.174,0,0,0-1.551-.593,2.276,2.276,0,0,0-1.92.892,4.19,4.19,0,0,0-.681,2.58v.308a4.106,4.106,0,0,0,.677,2.531A2.287,2.287,0,0,0,82.837,17.849ZM90.256,19H88.63V9.49h1.626ZM88.5,6.968a.971.971,0,0,1,.242-.668.907.907,0,0,1,.716-.272.922.922,0,0,1,.721.272.96.96,0,0,1,.246.668.929.929,0,0,1-.246.659.938.938,0,0,1-.721.264.924.924,0,0,1-.716-.264A.938.938,0,0,1,88.5,6.968Zm3.974,7.189a5.617,5.617,0,0,1,.549-2.514A4.1,4.1,0,0,1,94.55,9.921a4.163,4.163,0,0,1,2.237-.606,4.01,4.01,0,0,1,3.142,1.345,5.174,5.174,0,0,1,1.2,3.577v.114a5.666,5.666,0,0,1-.532,2.492,4.038,4.038,0,0,1-1.521,1.718,4.211,4.211,0,0,1-2.272.615,4,4,0,0,1-3.133-1.345,5.147,5.147,0,0,1-1.2-3.56Zm1.635.193a4.068,4.068,0,0,0,.734,2.54,2.487,2.487,0,0,0,3.933-.013,4.449,4.449,0,0,0,.729-2.72,4.061,4.061,0,0,0-.743-2.536,2.361,2.361,0,0,0-1.973-.971,2.335,2.335,0,0,0-1.942.958A4.416,4.416,0,0,0,94.106,14.351ZM97.525,5.5h1.969L97.138,8.084l-1.31,0Zm7.226,3.99.053,1.2a3.465,3.465,0,0,1,2.848-1.371q3.015,0,3.041,3.4V19h-1.626V12.707a2.189,2.189,0,0,0-.47-1.521,1.884,1.884,0,0,0-1.437-.492,2.347,2.347,0,0,0-1.389.422,2.865,2.865,0,0,0-.932,1.107V19h-1.626V9.49Z" transform="translate(135 279)" fill="#12263f"/>
        <path id="Path_1284768" data-name="Path 1284768" d="M10.9,14.939a4.708,4.708,0,0,1-1.5,3.133,4.911,4.911,0,0,1-3.353,1.1A4.509,4.509,0,0,1,2.413,17.55,6.542,6.542,0,0,1,1.046,13.2v-1.23a7.291,7.291,0,0,1,.637-3.138A4.76,4.76,0,0,1,3.489,6.752,5.029,5.029,0,0,1,6.2,6.027a4.624,4.624,0,0,1,3.27,1.138A4.765,4.765,0,0,1,10.9,10.316H9.2a3.677,3.677,0,0,0-.954-2.222A2.885,2.885,0,0,0,6.2,7.407,3.019,3.019,0,0,0,3.661,8.6a5.492,5.492,0,0,0-.918,3.4v1.24a5.645,5.645,0,0,0,.87,3.316A2.812,2.812,0,0,0,6.047,17.8,3.247,3.247,0,0,0,8.2,17.159a3.536,3.536,0,0,0,1-2.219Zm1.662-.782a5.617,5.617,0,0,1,.549-2.514,4.1,4.1,0,0,1,1.529-1.723,4.163,4.163,0,0,1,2.237-.606,4.01,4.01,0,0,1,3.142,1.345,5.174,5.174,0,0,1,1.2,3.577v.114a5.666,5.666,0,0,1-.532,2.492,4.038,4.038,0,0,1-1.521,1.718,4.211,4.211,0,0,1-2.272.615,4,4,0,0,1-3.133-1.345,5.147,5.147,0,0,1-1.2-3.56Zm1.635.193a4.068,4.068,0,0,0,.734,2.54,2.487,2.487,0,0,0,3.933-.013,4.449,4.449,0,0,0,.729-2.72,4.061,4.061,0,0,0-.743-2.536,2.361,2.361,0,0,0-1.973-.971,2.335,2.335,0,0,0-1.942.958A4.416,4.416,0,0,0,14.2,14.351ZM17.614,5.5h1.969L17.228,8.084l-1.31,0Zm5.292,8.666a5.571,5.571,0,0,1,1.037-3.52,3.529,3.529,0,0,1,5.361-.189V5.5h1.626V19H29.437l-.079-1.02a3.311,3.311,0,0,1-2.716,1.2,3.248,3.248,0,0,1-2.694-1.354,5.634,5.634,0,0,1-1.042-3.533Zm1.626.185a4.218,4.218,0,0,0,.668,2.531,2.159,2.159,0,0,0,1.846.914A2.372,2.372,0,0,0,29.3,16.407V12.039a2.39,2.39,0,0,0-2.241-1.345,2.17,2.17,0,0,0-1.863.923A4.644,4.644,0,0,0,24.532,14.351ZM35.265,19H33.639V9.49h1.626ZM33.507,6.968a.971.971,0,0,1,.242-.668.907.907,0,0,1,.716-.272.922.922,0,0,1,.721.272.96.96,0,0,1,.246.668.929.929,0,0,1-.246.659.938.938,0,0,1-.721.264.924.924,0,0,1-.716-.264A.938.938,0,0,1,33.507,6.968Zm4.018,7.2a5.589,5.589,0,0,1,1.028-3.538,3.545,3.545,0,0,1,5.44-.083l.079-1.055h1.485v9.281a3.869,3.869,0,0,1-1.094,2.909,4.038,4.038,0,0,1-2.94,1.063,4.891,4.891,0,0,1-2.013-.439,3.465,3.465,0,0,1-1.5-1.2l.844-.976a3.18,3.18,0,0,0,2.558,1.292,2.491,2.491,0,0,0,1.85-.668,2.553,2.553,0,0,0,.664-1.881v-.817a3.342,3.342,0,0,1-2.663,1.125,3.248,3.248,0,0,1-2.7-1.345A5.876,5.876,0,0,1,37.525,14.166Zm1.635.185a4.264,4.264,0,0,0,.659,2.527,2.142,2.142,0,0,0,1.846.918,2.382,2.382,0,0,0,2.259-1.4V12.057a2.41,2.41,0,0,0-2.241-1.362,2.161,2.161,0,0,0-1.854.923A4.644,4.644,0,0,0,39.159,14.351Zm8.465-.193a5.617,5.617,0,0,1,.549-2.514A4.1,4.1,0,0,1,49.7,9.921a4.163,4.163,0,0,1,2.237-.606,4.01,4.01,0,0,1,3.142,1.345,5.174,5.174,0,0,1,1.2,3.577v.114a5.666,5.666,0,0,1-.532,2.492,4.038,4.038,0,0,1-1.521,1.718,4.211,4.211,0,0,1-2.272.615,4,4,0,0,1-3.133-1.345,5.147,5.147,0,0,1-1.2-3.56Zm1.635.193a4.068,4.068,0,0,0,.734,2.54,2.487,2.487,0,0,0,3.933-.013,4.449,4.449,0,0,0,.729-2.72,4.061,4.061,0,0,0-.743-2.536,2.361,2.361,0,0,0-1.973-.971A2.335,2.335,0,0,0,50,11.608,4.416,4.416,0,0,0,49.259,14.351Zm13.212-.185a5.571,5.571,0,0,1,1.037-3.52,3.529,3.529,0,0,1,5.361-.189V5.5H70.5V19H69l-.079-1.02a3.311,3.311,0,0,1-2.716,1.2,3.248,3.248,0,0,1-2.694-1.354,5.634,5.634,0,0,1-1.042-3.533Zm1.626.185a4.218,4.218,0,0,0,.668,2.531,2.159,2.159,0,0,0,1.846.914,2.372,2.372,0,0,0,2.259-1.389V12.039a2.39,2.39,0,0,0-2.241-1.345,2.17,2.17,0,0,0-1.863.923A4.644,4.644,0,0,0,64.1,14.351Zm12.912,4.825a4.155,4.155,0,0,1-3.146-1.27,4.714,4.714,0,0,1-1.213-3.4v-.3a5.707,5.707,0,0,1,.541-2.527A4.217,4.217,0,0,1,74.7,9.943a3.8,3.8,0,0,1,2.1-.628,3.562,3.562,0,0,1,2.883,1.222,5.289,5.289,0,0,1,1.028,3.5v.677H74.276a3.38,3.38,0,0,0,.822,2.272,2.583,2.583,0,0,0,2,.866,2.832,2.832,0,0,0,1.459-.352,3.666,3.666,0,0,0,1.046-.932l.993.773A3.993,3.993,0,0,1,77.009,19.176Zm-.2-8.525a2.169,2.169,0,0,0-1.652.716,3.482,3.482,0,0,0-.826,2.008h4.764v-.123a3.1,3.1,0,0,0-.668-1.92A2.042,2.042,0,0,0,76.807,10.65Zm7.6,8.35H82.785V5.5h1.626Zm6.752-4.834a5.571,5.571,0,0,1,1.037-3.52,3.529,3.529,0,0,1,5.361-.189V5.5h1.626V19H97.693l-.079-1.02a3.311,3.311,0,0,1-2.716,1.2A3.248,3.248,0,0,1,92.2,17.822a5.634,5.634,0,0,1-1.042-3.533Zm1.626.185a4.218,4.218,0,0,0,.668,2.531A2.159,2.159,0,0,0,95.3,17.8a2.372,2.372,0,0,0,2.259-1.389V12.039a2.39,2.39,0,0,0-2.241-1.345,2.17,2.17,0,0,0-1.863.923A4.644,4.644,0,0,0,92.789,14.351ZM105.7,19.176a4.155,4.155,0,0,1-3.146-1.27,4.714,4.714,0,0,1-1.213-3.4v-.3a5.707,5.707,0,0,1,.541-2.527,4.217,4.217,0,0,1,1.512-1.74,3.8,3.8,0,0,1,2.1-.628,3.562,3.562,0,0,1,2.883,1.222,5.289,5.289,0,0,1,1.028,3.5v.677h-6.442a3.38,3.38,0,0,0,.822,2.272,2.583,2.583,0,0,0,2,.866,2.832,2.832,0,0,0,1.459-.352,3.666,3.666,0,0,0,1.046-.932l.993.773A3.993,3.993,0,0,1,105.7,19.176Zm-.2-8.525a2.169,2.169,0,0,0-1.652.716,3.482,3.482,0,0,0-.826,2.008h4.764v-.123a3.1,3.1,0,0,0-.668-1.92A2.042,2.042,0,0,0,105.5,10.65Zm11.374,5.827a1.2,1.2,0,0,0-.5-1.024,4.78,4.78,0,0,0-1.731-.628,8.186,8.186,0,0,1-1.96-.633,2.788,2.788,0,0,1-1.072-.879,2.1,2.1,0,0,1-.347-1.213,2.467,2.467,0,0,1,.989-1.978,3.861,3.861,0,0,1,2.527-.809,3.974,3.974,0,0,1,2.624.835,2.652,2.652,0,0,1,1.006,2.136h-1.635a1.468,1.468,0,0,0-.567-1.151,2.124,2.124,0,0,0-1.428-.483,2.223,2.223,0,0,0-1.389.387,1.217,1.217,0,0,0-.5,1.011.986.986,0,0,0,.466.888,5.731,5.731,0,0,0,1.683.571,8.77,8.77,0,0,1,1.973.65,2.878,2.878,0,0,1,1.121.91,2.237,2.237,0,0,1,.365,1.3,2.434,2.434,0,0,1-1.02,2.043,4.277,4.277,0,0,1-2.646.769,4.789,4.789,0,0,1-2.021-.4,3.288,3.288,0,0,1-1.375-1.129,2.722,2.722,0,0,1-.5-1.569h1.626a1.683,1.683,0,0,0,.655,1.3,2.54,2.54,0,0,0,1.613.479,2.622,2.622,0,0,0,1.481-.374A1.148,1.148,0,0,0,116.873,16.478ZM126.533,19a3.416,3.416,0,0,1-.229-1,3.628,3.628,0,0,1-2.707,1.178,3.357,3.357,0,0,1-2.307-.8,2.573,2.573,0,0,1-.9-2.017,2.688,2.688,0,0,1,1.129-2.307,5.325,5.325,0,0,1,3.177-.822h1.582v-.747a1.826,1.826,0,0,0-.51-1.358,2.049,2.049,0,0,0-1.5-.505,2.371,2.371,0,0,0-1.459.439,1.3,1.3,0,0,0-.589,1.063h-1.635a2.244,2.244,0,0,1,.505-1.375A3.449,3.449,0,0,1,122.46,9.7a4.613,4.613,0,0,1,1.9-.387,3.759,3.759,0,0,1,2.575.822A2.964,2.964,0,0,1,127.9,12.4v4.377a5.351,5.351,0,0,0,.334,2.083V19Zm-2.7-1.239a2.858,2.858,0,0,0,1.45-.4,2.392,2.392,0,0,0,.993-1.028V14.386H125q-2.988,0-2.988,1.749a1.48,1.48,0,0,0,.51,1.2A1.959,1.959,0,0,0,123.835,17.761Zm11.26-6.812a4.873,4.873,0,0,0-.8-.062,2.143,2.143,0,0,0-2.171,1.362V19H130.5V9.49h1.582l.026,1.1a2.532,2.532,0,0,1,2.268-1.274,1.661,1.661,0,0,1,.721.123Zm6.136,0a4.873,4.873,0,0,0-.8-.062,2.143,2.143,0,0,0-2.171,1.362V19h-1.626V9.49h1.582l.026,1.1a2.532,2.532,0,0,1,2.268-1.274,1.661,1.661,0,0,1,.721.123Zm.933,3.208a5.617,5.617,0,0,1,.549-2.514,4.1,4.1,0,0,1,1.529-1.723,4.163,4.163,0,0,1,2.237-.606,4.01,4.01,0,0,1,3.142,1.345,5.174,5.174,0,0,1,1.2,3.577v.114a5.666,5.666,0,0,1-.532,2.492,4.038,4.038,0,0,1-1.521,1.718,4.211,4.211,0,0,1-2.272.615,4,4,0,0,1-3.133-1.345,5.147,5.147,0,0,1-1.2-3.56Zm1.635.193a4.068,4.068,0,0,0,.734,2.54,2.487,2.487,0,0,0,3.933-.013,4.449,4.449,0,0,0,.729-2.72,4.061,4.061,0,0,0-.743-2.536,2.361,2.361,0,0,0-1.973-.971,2.335,2.335,0,0,0-1.942.958A4.416,4.416,0,0,0,143.8,14.351ZM154.671,19h-1.626V5.5h1.626Zm4.413,0h-1.626V5.5h1.626Zm8.518,0a3.416,3.416,0,0,1-.229-1,3.628,3.628,0,0,1-2.707,1.178,3.357,3.357,0,0,1-2.307-.8,2.573,2.573,0,0,1-.9-2.017,2.688,2.688,0,0,1,1.129-2.307,5.325,5.325,0,0,1,3.177-.822h1.582v-.747a1.826,1.826,0,0,0-.51-1.358,2.049,2.049,0,0,0-1.5-.505,2.371,2.371,0,0,0-1.459.439,1.3,1.3,0,0,0-.589,1.063h-1.635a2.244,2.244,0,0,1,.505-1.375,3.449,3.449,0,0,1,1.371-1.05,4.613,4.613,0,0,1,1.9-.387,3.759,3.759,0,0,1,2.575.822,2.964,2.964,0,0,1,.967,2.263v4.377a5.351,5.351,0,0,0,.334,2.083V19Zm-2.7-1.239a2.858,2.858,0,0,0,1.45-.4,2.392,2.392,0,0,0,.993-1.028V14.386h-1.274q-2.988,0-2.988,1.749a1.48,1.48,0,0,0,.51,1.2A1.959,1.959,0,0,0,164.9,17.761Zm6.268-3.595a5.571,5.571,0,0,1,1.037-3.52,3.529,3.529,0,0,1,5.361-.189V5.5H179.2V19H177.7l-.079-1.02a3.311,3.311,0,0,1-2.716,1.2,3.248,3.248,0,0,1-2.694-1.354,5.634,5.634,0,0,1-1.042-3.533Zm1.626.185a4.218,4.218,0,0,0,.668,2.531,2.159,2.159,0,0,0,1.846.914,2.372,2.372,0,0,0,2.259-1.389V12.039a2.39,2.39,0,0,0-2.241-1.345,2.17,2.17,0,0,0-1.863.923A4.644,4.644,0,0,0,172.8,14.351Zm8.535-.193a5.617,5.617,0,0,1,.549-2.514,4.1,4.1,0,0,1,1.529-1.723,4.163,4.163,0,0,1,2.237-.606,4.01,4.01,0,0,1,3.142,1.345,5.174,5.174,0,0,1,1.2,3.577v.114a5.666,5.666,0,0,1-.532,2.492,4.038,4.038,0,0,1-1.521,1.718,4.211,4.211,0,0,1-2.272.615,4,4,0,0,1-3.133-1.345,5.147,5.147,0,0,1-1.2-3.56Zm1.635.193a4.068,4.068,0,0,0,.734,2.54,2.487,2.487,0,0,0,3.933-.013,4.449,4.449,0,0,0,.729-2.72,4.061,4.061,0,0,0-.743-2.536,2.361,2.361,0,0,0-1.973-.971,2.335,2.335,0,0,0-1.942.958A4.416,4.416,0,0,0,182.968,14.351Zm13.7-3.4a4.873,4.873,0,0,0-.8-.062A2.143,2.143,0,0,0,193.7,12.25V19h-1.626V9.49h1.582l.026,1.1a2.532,2.532,0,0,1,2.268-1.274,1.661,1.661,0,0,1,.721.123Z" transform="translate(135 356)" fill="#12263f"/>
        <path id="Union_32" data-name="Union 32" d="M0,17.794H12.674V0H26.326V17.794H39L19.5,43Z" transform="translate(176 407)" fill="#19538d"/>
        <g id="Group_1214382" data-name="Group 1214382" transform="translate(63.354 9)">
          <g id="Group_1214382-2" data-name="Group 1214382" clip-path="url(#clip-path-2)">
            <path id="Path_1282773" data-name="Path 1282773" d="M3.582.034,39.906,0a4.285,4.285,0,0,1,3.921,4.087V32.767a4.315,4.315,0,0,1-3.8,3.962H3.8A4.315,4.315,0,0,1,0,32.767L.006,3.841A4.32,4.32,0,0,1,3.582.034m38.124,8.4V3.714c0-.618-1.154-1.605-1.8-1.572L3.512,2.227c-.5.136-1.391.975-1.391,1.487V8.43Zm0,2.138H2.121V33.014c0,.477.88,1.383,1.366,1.513l36.415.06a2.194,2.194,0,0,0,1.8-1.572Z" transform="translate(0 0.001)" fill="#f3f9ff"/>
            <path id="Path_1282774" data-name="Path 1282774" d="M722.771,429.13a1.124,1.124,0,0,1-.164,1.7c-2.475,1.2-5.18,3.973-7.606,5.016a1.042,1.042,0,1,1-.961-1.85l6.032-4.09-6.308-4.251a1.061,1.061,0,0,1,1.318-1.646Z" transform="translate(-685.962 -407.326)" fill="#f3f9ff"/>
            <path id="Path_1282775" data-name="Path 1282775" d="M186.686,424a1.227,1.227,0,0,1-.15,1.474l-6.284,4.212,6.348,4.273a1.094,1.094,0,0,1-.8,1.824,11.4,11.4,0,0,1-2.053-1.2,58.4,58.4,0,0,1-5.976-4.023c-.8-.71-.615-1.227.125-1.866,2.057-1.776,5.2-3.13,7.346-4.9a1.137,1.137,0,0,1,1.445.21" transform="translate(-170.411 -407.113)" fill="#f3f9ff"/>
            <path id="Path_1282776" data-name="Path 1282776" d="M466.594,435.451a1.17,1.17,0,0,1-.059-1.307c1.407-3.263,4.12-6.607,5.646-9.889.83-1.383,2.531-.5,1.866,1.006-1.44,3.266-4.143,6.576-5.643,9.891a1.156,1.156,0,0,1-1.81.3" transform="translate(-448.378 -407.062)" fill="#f3f9ff"/>
            <rect id="Rectangle_467389" data-name="Rectangle 467389" width="4.108" height="3.647" transform="translate(29.009 3.401)" fill="#f3f9ff"/>
            <rect id="Rectangle_467390" data-name="Rectangle 467390" width="4.108" height="3.647" transform="translate(35.482 3.401)" fill="#f3f9ff"/>
          </g>
        </g>
        <circle id="Ellipse_13736" data-name="Ellipse 13736" cx="32.5" cy="32.5" r="32.5" transform="translate(53 102)" fill="#fff"/>
        <circle id="Ellipse_13737" data-name="Ellipse 13737" cx="32.5" cy="32.5" r="32.5" transform="translate(53 181)" fill="#fff"/>
        <circle id="Ellipse_13738" data-name="Ellipse 13738" cx="32.5" cy="32.5" r="32.5" transform="translate(53 256)" fill="#fff"/>
        <circle id="Ellipse_13739" data-name="Ellipse 13739" cx="32.5" cy="32.5" r="32.5" transform="translate(53 333)" fill="#fff"/>
        <g id="Group_1214384" data-name="Group 1214384" transform="translate(68.303 111)">
          <g id="Group_1214383" data-name="Group 1214383" transform="translate(0 0)" clip-path="url(#clip-path-3)">
            <path id="Path_1282777" data-name="Path 1282777" d="M3.288,0,25.1,0c3.142,2.757,5.983,5.932,8.96,8.9l.156.646L34.211,43.7a4.033,4.033,0,0,1-3.642,3.419L3.52,47.11A4.021,4.021,0,0,1,0,43.567L0,3.382A4.062,4.062,0,0,1,3.288,0M24.134,1.575H3.254a4.857,4.857,0,0,0-1.129.735,2.924,2.924,0,0,0-.532,1.2L1.659,43.9a2.3,2.3,0,0,0,1.857,1.607H30.7c.643.082,1.919-1.176,1.919-1.677V10.146H25.129c-.248,0-.994-.86-.994-1.138Zm7.292,7.1-5.7-5.893V8.673Z" transform="translate(0 0.004)" fill="#19538d"/>
            <path id="Path_1282778" data-name="Path 1282778" d="M138.855,354.958a.805.805,0,0,1,.949,1.229l-4.878,5.088,4.878,4.991c.367,1.361-.532,1.543-1.51.723a50.5,50.5,0,0,1-5.037-5.09c-.251-.336-.413-.49-.274-.945Z" transform="translate(-128.282 -342.371)" fill="#19538d"/>
            <path id="Path_1282779" data-name="Path 1282779" d="M644.939,355.047a1.083,1.083,0,0,1,.5-.029c.671.118,4.753,4.943,5.71,5.624.49.525.383.831,0,1.345a50.5,50.5,0,0,1-5.037,5.09c-.981.823-1.878.634-1.51-.723l4.878-5.088-4.823-4.913a.818.818,0,0,1,.287-1.306" transform="translate(-621.903 -342.458)" fill="#19538d"/>
            <path id="Path_1282780" data-name="Path 1282780" d="M405.869,309.665c.781-.23,1.171.644.9,1.322l-4.609,13.958c-.7.883-1.767.255-1.4-.876,1.725-4.263,2.7-9.127,4.416-13.35.139-.341.3-.941.685-1.054" transform="translate(-386.676 -298.687)" fill="#19538d"/>
            <path id="Path_1282781" data-name="Path 1282781" d="M289.065,1156.086l9.846.042c.743.584.5,1.429-.458,1.54-2.829.329-6.258-.253-9.153,0a.8.8,0,0,1-.234-1.581" transform="translate(-278.359 -1115.237)" fill="#19538d"/>
            <path id="Path_1282782" data-name="Path 1282782" d="M299.2,930.179c-.146.148-.487.154-.692.171-2.972.253-6.283-.2-9.293,0-.414.012-.651-.365-.713-.743a1.019,1.019,0,0,1,.982-.874c2.849.253,6.239-.328,9.021,0,.782.092,1.223.909.695,1.445" transform="translate(-278.408 -895.819)" fill="#19538d"/>
            <path id="Path_1282783" data-name="Path 1282783" d="M243.91,818.076a1.18,1.18,0,0,1,.69-.174,53,53,0,0,1,7.565,0c1.156.135,1.156,1.476,0,1.612a51.354,51.354,0,0,1-7.562,0c-.781-.092-1.3-.853-.692-1.442" transform="translate(-235.121 -788.873)" fill="#19538d"/>
            <path id="Path_1282784" data-name="Path 1282784" d="M243.934,1045.472l8.323-.022a.737.737,0,0,1,.277,1.344l-8.49.123a.765.765,0,0,1-.11-1.445" transform="translate(-234.954 -1008.51)" fill="#19538d"/>
            <path id="Path_1282785" data-name="Path 1282785" d="M650.432,929.33a.9.9,0,0,1-.153,1.181c-.574.412-5.078-.051-6.1.121-1.032-.478-.738-1.485.395-1.6a33.857,33.857,0,0,1,5.04,0,1.932,1.932,0,0,1,.823.306" transform="translate(-621.031 -896.109)" fill="#19538d"/>
            <path id="Path_1282786" data-name="Path 1282786" d="M645.266,1153.113c1.723.133,4.01-.282,5.664-.02a.8.8,0,0,1,0,1.59,36.771,36.771,0,0,1-5.552,0,.8.8,0,0,1-.113-1.57" transform="translate(-622.098 -1112.264)" fill="#19538d"/>
            <path id="Path_1282787" data-name="Path 1282787" d="M557.3,820.2c.5-.146,2.908-.143,3.206.321.986,1.536-2.332,1.394-3.073,1.23a.813.813,0,0,1-.133-1.55" transform="translate(-537.317 -791.133)" fill="#19538d"/>
            <path id="Path_1282788" data-name="Path 1282788" d="M557.442,1045.352h3.049c.564,0,.564,1.473,0,1.473h-3.049c-.378,0-.523-1.287,0-1.473" transform="translate(-537.617 -1008.416)" fill="#19538d"/>
            <path id="Path_1282789" data-name="Path 1282789" d="M712.821,820.028c.518-.15,2.337-.187,2.53.469.452,1.536-2.545,1.288-2.9.785a.853.853,0,0,1,.369-1.254" transform="translate(-687.399 -790.965)" fill="#19538d"/>
            <path id="Path_1282790" data-name="Path 1282790" d="M712.6,1045.352h2.254c.42,0,.681,1.207.133,1.473H712.6l-.263-.27a1.076,1.076,0,0,1,.263-1.2" transform="translate(-687.341 -1008.416)" fill="#19538d"/>
            <path id="Path_1282791" data-name="Path 1282791" d="M134.844,821.475c-.61.5-2.541.194-1.986-1,.533-1.143,3.331-.1,1.986,1" transform="translate(-128.115 -791.008)" fill="#19538d"/>
            <path id="Path_1282792" data-name="Path 1282792" d="M134.844,1155.032c-.61.5-2.541.194-1.986-1,.533-1.143,3.331-.1,1.986,1" transform="translate(-128.115 -1112.779)" fill="#19538d"/>
            <path id="Path_1282793" data-name="Path 1282793" d="M133.311,931.552c.552-.591,2.4-.347,2.2.67-.148.763-1.3.784-1.877.609a.884.884,0,0,1-.321-1.279" transform="translate(-128.497 -898.331)" fill="#19538d"/>
            <path id="Path_1282794" data-name="Path 1282794" d="M133.349,1043.791c.571-.165,1.757-.157,1.873.6.169,1.11-2,1.1-2.3.435a.762.762,0,0,1,.424-1.04" transform="translate(-128.211 -1006.826)" fill="#19538d"/>
          </g>
        </g>
        <g id="Group_1214386" data-name="Group 1214386" transform="translate(66.323 194)">
          <g id="Group_1214385" data-name="Group 1214385" transform="translate(0 0)" clip-path="url(#clip-path-4)">
            <path id="Path_1282795" data-name="Path 1282795" d="M39.165,0V39.565H0V0ZM10.448,1.329H1.314V5.284h9.135Zm27.4,0h-26.1V5.284h26.1ZM2.619,6.6h-1.3V38.24H37.852V6.6H9.143v6.172c0,.237-.606.518-.947.358-.6-.28-1.581-1.922-2.315-2.22-.388,0-1.85,2-2.315,2.22-.341.16-.947-.121-.947-.358Zm5.22,0H3.923v4.314c.528-.273,1.431-1.69,1.957-1.69s1.429,1.418,1.957,1.69Z" transform="translate(0 -0.003)" fill="#19538d"/>
            <path id="Path_1282796" data-name="Path 1282796" d="M84.495,433.622H74.055V422.956h10.44Zm-9.135-1.438h1.3v-7.79h-1.3Zm7.83-7.79H77.97v7.79h5.22Z" transform="translate(-71.437 -407.848)" fill="#19538d"/>
            <path id="Path_1282797" data-name="Path 1282797" d="M416.652,433.622h-10.44V422.956h10.44Zm-7.83-9.228h-1.3v7.79h1.3Zm6.525,0h-5.22v7.79h5.22Z" transform="translate(-391.849 -407.848)" fill="#19538d"/>
            <path id="Path_1282798" data-name="Path 1282798" d="M748.809,433.622h-10.44V422.956h10.44Zm-7.83-9.228h-1.3v7.79h1.3Zm6.525,0h-5.22v7.79h5.22Z" transform="translate(-712.261 -407.848)" fill="#19538d"/>
            <path id="Path_1282799" data-name="Path 1282799" d="M535.2,226.922H516.931v-5.273H535.2Zm-15.659-3.955h-1.3V225.6h1.3Zm14.355,0h-13.05V225.6H533.9Z" transform="translate(-498.653 -213.732)" fill="#19538d"/>
            <path id="Path_1282800" data-name="Path 1282800" d="M94.729,920.891a36.961,36.961,0,0,1,6.178.053,2,2,0,0,1-.285,3.862,36.673,36.673,0,0,1-6.077-.071,2,2,0,0,1,.185-3.844m.235,1.316c-.552.121-.566.683-.326,1.115a.933.933,0,0,0,.426.169,34.223,34.223,0,0,0,5.214.01c.947-.11.9-1.189.109-1.312a37.552,37.552,0,0,0-5.423.019" transform="translate(-89.887 -887.898)" fill="#19538d"/>
            <path id="Path_1282801" data-name="Path 1282801" d="M426.886,920.891a36.961,36.961,0,0,1,6.178.053,2,2,0,0,1-.285,3.862,36.673,36.673,0,0,1-6.077-.071,2,2,0,0,1,.185-3.844m.235,1.316c-.552.121-.566.683-.326,1.115a.933.933,0,0,0,.426.169,34.223,34.223,0,0,0,5.214.01c.947-.11.9-1.189.109-1.312a37.551,37.551,0,0,0-5.423.019" transform="translate(-410.299 -887.898)" fill="#19538d"/>
            <path id="Path_1282802" data-name="Path 1282802" d="M759.043,920.891a36.962,36.962,0,0,1,6.178.053,2,2,0,0,1-.285,3.862,36.674,36.674,0,0,1-6.077-.071,2,2,0,0,1,.185-3.844m.235,1.316c-.552.121-.566.683-.326,1.115a.933.933,0,0,0,.426.169,34.222,34.222,0,0,0,5.214.01c.947-.11.9-1.189.109-1.312a37.551,37.551,0,0,0-5.423.019" transform="translate(-730.712 -887.898)" fill="#19538d"/>
            <rect id="Rectangle_467393" data-name="Rectangle 467393" width="10.44" height="1.438" transform="translate(14.363 26.972)" fill="#19538d"/>
            <rect id="Rectangle_467394" data-name="Rectangle 467394" width="10.44" height="1.438" transform="translate(2.618 26.972)" fill="#19538d"/>
            <rect id="Rectangle_467395" data-name="Rectangle 467395" width="10.44" height="1.438" transform="translate(2.618 29.609)" fill="#19538d"/>
            <rect id="Rectangle_467396" data-name="Rectangle 467396" width="7.83" height="1.438" transform="translate(26.108 29.609)" fill="#19538d"/>
            <rect id="Rectangle_467397" data-name="Rectangle 467397" width="6.525" height="1.438" transform="translate(26.108 26.972)" fill="#19538d"/>
            <path id="Path_1282803" data-name="Path 1282803" d="M406.212,830.365v-1.438h4.449l.159.2a1.53,1.53,0,0,1,.025.335c.026.3.059.72-.184.9Z" transform="translate(-391.849 -799.318)" fill="#19538d"/>
            <path id="Path_1282804" data-name="Path 1282804" d="M570.2,828.307c.191-.063,1.066-.067,1.177.1l-.059,1.274-1.261-.06c-.062-.3-.182-1.2.143-1.309" transform="translate(-549.83 -798.681)" fill="#19538d"/>
            <rect id="Rectangle_467398" data-name="Rectangle 467398" width="1.309" height="1.322" transform="translate(2.616 2.642)" fill="#19538d"/>
            <rect id="Rectangle_467399" data-name="Rectangle 467399" width="1.309" height="1.322" transform="translate(7.836 2.642)" fill="#19538d"/>
            <rect id="Rectangle_467400" data-name="Rectangle 467400" width="1.309" height="1.322" transform="translate(5.226 2.642)" fill="#19538d"/>
            <rect id="Rectangle_467401" data-name="Rectangle 467401" width="1.309" height="1.442" transform="translate(9.141 17.742)" fill="#19538d"/>
            <rect id="Rectangle_467402" data-name="Rectangle 467402" width="1.309" height="1.442" transform="translate(20.886 21.697)" fill="#19538d"/>
          </g>
        </g>
        <g id="Group_1214388" data-name="Group 1214388" transform="translate(66.323 267.293)">
          <g id="Group_1214387" data-name="Group 1214387" transform="translate(0 0)" clip-path="url(#clip-path-5)">
            <path id="Path_1282805" data-name="Path 1282805" d="M8.628,11.146c-.461-2.155,1.524-1.634,2.894-2.166l.5-1.424c-.385-.837-1.775-1.96-1.136-2.851a26.236,26.236,0,0,1,2.374-2.4c.925-.679,2.086.832,2.96,1.193l1.216-.486c.34-.536.421-2.683.926-2.926a29.051,29.051,0,0,1,3.767-.06c1.1.13.9,2.052,1.24,2.9l1.242.561c.918-.224,2.039-1.861,2.961-1.236A28.562,28.562,0,0,1,30,4.705c.651.9-.808,2.067-1.168,2.921l.47,1.3c1.33.63,3.43.033,2.952,2.224h4.923a3.012,3.012,0,0,1,1.911,1.931v22.29c.47.014,1.417-.121,1.653.377A9.29,9.29,0,0,1,40.832,38a3.416,3.416,0,0,1-3.3,3.219L3.023,41.2c-2.57-.37-3.235-2.77-2.968-5.079.112-.971,1-.731,1.739-.759V13.077a3.012,3.012,0,0,1,1.911-1.931ZM21.7,1.33H19.18c-.125.107-.3,2.145-.653,2.558A19.727,19.727,0,0,1,16.276,4.9c-.559.083-2.154-1.434-2.438-1.3L12.13,5.353l1.354,2.341c-.386.548-.693,2.265-1.238,2.485a18.086,18.086,0,0,0-2.351.57l.012,2.5a20.012,20.012,0,0,1,2.49.585c.4.274.665,1.841,1.076,2.315l-1.318,2.49L13.9,20.369l2.209-1.384c.581.3,2.334.723,2.568,1.261.144.33.413,2.333.565,2.375L21.7,22.6c.264-.734.215-2.385.907-2.769.158-.088,1.866-.811,1.972-.829.526-.086,2.243,1.433,2.46,1.336l1.71-1.762L27.4,16.236c.4-.573.673-2.23,1.238-2.485.312-.141,2.33-.446,2.351-.567l-.018-2.5c-.717-.287-2.373-.235-2.741-.917a13.947,13.947,0,0,0-.819-1.989l1.318-2.49L26.988,3.569,24.769,4.914a19.551,19.551,0,0,1-2.282-.922C21.923,3.578,21.961,2,21.7,1.33M8.628,12.433H3.937a1.6,1.6,0,0,0-.869.878V35.367H37.816V13.311a1.6,1.6,0,0,0-.869-.878H32.257c.449,2.714-1.268,1.768-2.735,2.444a3.271,3.271,0,0,0-.7,1.358c.021.357,1.5,1.974,1.405,2.528a13.682,13.682,0,0,1-2.92,3.008c-.818.185-1.9-1.15-2.708-1.327l-1.2.533c-.435.838-.129,2.79-1.274,2.925a22.211,22.211,0,0,1-3.739-.089c-.613-.285-.549-2.326-.958-2.894l-1.283-.473c-.985.444-1.926,1.864-3,1.057a18.451,18.451,0,0,1-2.459-2.67c-.166-.561,1.185-2.037,1.366-2.662l-.528-1.221c-1.675-.644-3.342.042-2.893-2.518M14.3,36.771H1.331c-.185,1.5.282,2.92,1.911,3.16l34.174,0c1.814-.137,2.312-1.5,2.138-3.164H26.581c.079.868-.015,1.8-.992,1.982-3.24-.213-6.884.309-10.075.014-1.176-.109-1.285-.945-1.21-2m11,0H15.578v.7h9.729Z" transform="translate(0 0.004)" fill="#19538d"/>
            <path id="Path_1282806" data-name="Path 1282806" d="M140.974,652.743c-.448-.285-4.465.258-5.259-.129-.45-.386-.446-1.094.233-1.183,1.5-.2,3.423.151,4.973.013a2.2,2.2,0,0,1,3.922-.68c.181.245.177.63.49.675l20.746.1a.733.733,0,0,1-.187,1.12l-20.557.061-.233.116a2.214,2.214,0,0,1-3.7.7,8.633,8.633,0,0,1-.431-.793m2.987-.694a.913.913,0,1,0-.913.922.917.917,0,0,0,.913-.922" transform="translate(-130.395 -625.543)" fill="#19538d"/>
            <path id="Path_1282807" data-name="Path 1282807" d="M154.522,772.481l-18.743-.08c-.634-.472-.455-1.283.4-1.231l18.292.013a2.262,2.262,0,0,1,4.315-.022l6.927.023c.723.081.7.873.179,1.218l-7.005.061-.233.116a2.181,2.181,0,0,1-4.128-.1m2.993-.672a.909.909,0,1,0-.909.918.914.914,0,0,0,.909-.918" transform="translate(-130.392 -740.835)" fill="#19538d"/>
            <path id="Path_1282808" data-name="Path 1282808" d="M387.038,147.825a6.618,6.618,0,1,1-6.618-6.685,6.652,6.652,0,0,1,6.618,6.685m-1.278,0a5.34,5.34,0,1,0-5.339,5.394,5.367,5.367,0,0,0,5.339-5.394" transform="translate(-359.978 -135.867)" fill="#19538d"/>
          </g>
        </g>
        <g id="Group_1214390" data-name="Group 1214390" transform="translate(65.333 347)">
          <g id="Group_1214389" data-name="Group 1214389" clip-path="url(#clip-path-6)">
            <path id="Path_1282809" data-name="Path 1282809" d="M39.009,7.31H1.418V33.6H27.64c.44,0,.733.938.327,1.26l-.588.2L.37,34.991.1,34.737,0,.5.688,0,39.86.01a.767.767,0,0,1,.6.72V34.337a.761.761,0,0,1-1.453.259ZM11.539,1.467H1.418V5.849H11.539Zm27.471,0H12.985V5.849H39.009Z" fill="#19538d"/>
            <path id="Path_1282810" data-name="Path 1282810" d="M319.76,318.33c.338.01.376.488.645.609.318.143.7-.036.993.192l7,7.133A2.288,2.288,0,0,1,325,329.3c-.791-.631-6.944-6.838-7.065-7.336-.037-.154.064-.346.009-.532s-.568-.39-.581-.681a12.956,12.956,0,0,1-4.142,1.694c-9.874,1.668-15.978-10.581-8.794-17.514,7.087-6.839,18.723-.4,16.991,9.33a13.451,13.451,0,0,1-1.663,4.072m.376-5.963a8.671,8.671,0,1,0-8.671,8.759,8.715,8.715,0,0,0,8.671-8.759m-1.31,6.959-.47.479.667.669.47-.479Zm2.038,1.408-1.115,1.126,6.241,6.306a.8.8,0,1,0,1.117-1.128Z" transform="translate(-291.253 -291.912)" fill="#19538d"/>
            <path id="Path_1282811" data-name="Path 1282811" d="M433.036,86.784l21.929-.035a.737.737,0,0,1,0,1.474h-21.7a.739.739,0,0,1-.228-1.439" transform="translate(-418.117 -83.828)" fill="#19538d"/>
            <path id="Path_1282812" data-name="Path 1282812" d="M87.177,87.487a.729.729,0,1,1-.729-.737.733.733,0,0,1,.729.737" transform="translate(-82.861 -83.829)" fill="#19538d"/>
            <path id="Path_1282813" data-name="Path 1282813" d="M173.926,87.487a.729.729,0,1,1-.729-.737.733.733,0,0,1,.729.737" transform="translate(-166.718 -83.829)" fill="#19538d"/>
            <path id="Path_1282814" data-name="Path 1282814" d="M260.676,87.487a.729.729,0,1,1-.729-.737.733.733,0,0,1,.729.737" transform="translate(-250.576 -83.829)" fill="#19538d"/>
            <path id="Path_1282815" data-name="Path 1282815" d="M391.83,523.567l.082.274c.616.46,2.741,1.3,2.8,2.057.067.791-.655.8-1.232.574a39.786,39.786,0,0,1-3.62-2.184.785.785,0,0,1,0-1.182,35.977,35.977,0,0,1,3.535-2.136c.367-.16.7-.339,1.056.008,1.044,1.019-2,2.164-2.626,2.589" transform="translate(-376.61 -503.242)" fill="#19538d"/>
            <path id="Path_1282816" data-name="Path 1282816" d="M673.105,525.638a22.771,22.771,0,0,1,2.589-1.5l-.082-.274a27.8,27.8,0,0,1-2.553-1.542.808.808,0,0,1,.4-1.183.5.5,0,0,1,.3-.029c.219.034,3.521,2,3.823,2.254a.773.773,0,0,1,.078,1.235l-3.8,2.275a.755.755,0,0,1-.75-1.235" transform="translate(-650.487 -503.552)" fill="#19538d"/>
            <path id="Path_1282817" data-name="Path 1282817" d="M565.61,475.439a1.189,1.189,0,0,1,.152.81,54.634,54.634,0,0,1-1.365,7c-.161.639-.3.874-1.027.765-.432-.064-.506-.429-.493-.83a53.84,53.84,0,0,1,1.38-7.116c.168-.668.8-1.184,1.353-.627" transform="translate(-544.114 -459.201)" fill="#19538d"/>
          </g>
        </g>
      </g>
    </g>
  </g>
</svg>
