<svg xmlns="http://www.w3.org/2000/svg" xmlns:xlink="http://www.w3.org/1999/xlink" width="96" height="96" viewBox="0 0 96 96">
  <defs>
    <clipPath id="clip-path">
      <rect id="Rectángulo_456267" data-name="Rectángulo 456267" width="96" height="96" fill="none"/>
    </clipPath>
    <clipPath id="clip-path-2">
      <rect id="Rectángulo_468176" data-name="Rectángulo 468176" width="52.069" height="52.009" fill="#0f654d"/>
    </clipPath>
  </defs>
  <g id="Grupo_1179917" data-name="Grupo 1179917" transform="translate(479.746 8495) rotate(180)">
    <path id="Trazado_999622" data-name="Trazado 999622" d="M43.07,0A43.07,43.07,0,1,1,0,43.07,43.071,43.071,0,0,1,43.07,0" transform="translate(388.676 8403.93)" fill="#e3fbf9"/>
    <g id="Grupo_1179902" data-name="Grupo 1179902" transform="translate(383.746 8399)">
      <g id="Grupo_1179905" data-name="Grupo 1179905" clip-path="url(#clip-path)">
        <path id="Trazado_999618" data-name="Trazado 999618" d="M48,0A48,48,0,1,1,0,48,48,48,0,0,1,48,0" fill="none"/>
        <path id="Trazado_999619" data-name="Trazado 999619" d="M3.75,59A3.75,3.75,0,1,1,0,62.75,3.75,3.75,0,0,1,3.75,59" transform="translate(0 -14.75)" fill="#0f654d"/>
        <path id="Trazado_999620" data-name="Trazado 999620" d="M19.75,19A3.75,3.75,0,1,1,16,22.75,3.75,3.75,0,0,1,19.75,19" transform="translate(-4 -4.75)" fill="#0f654d"/>
        <path id="Trazado_999621" data-name="Trazado 999621" d="M49,94A45.051,45.051,0,0,1,4,49H6.25A42.75,42.75,0,1,0,17.806,19.768l-1.641-1.539A45,45,0,1,1,49,94" transform="translate(-1 -1)" fill="#0f654d"/>
        <rect id="Rectángulo_456268" data-name="Rectángulo 456268" width="96" height="96" fill="none"/>
        <rect id="Rectángulo_456269" data-name="Rectángulo 456269" width="96" height="96" fill="none"/>
      </g>
    </g>
    <g id="Grupo_1179903" data-name="Grupo 1179903" transform="translate(458.745 8474.508) rotate(180)">
      <g id="Grupo_1099618" data-name="Grupo 1099618" transform="translate(-0.247 -0.32)">
        <rect id="Rectángulo_401104" data-name="Rectángulo 401104" width="54.153" height="54.806" transform="translate(0)" fill="none"/>
      </g>
      <g id="Grupo_1214681" data-name="Grupo 1214681" transform="translate(0.753 1.68)">
        <g id="Grupo_1214680" data-name="Grupo 1214680" transform="translate(0 0)" clip-path="url(#clip-path-2)">
          <path id="Trazado_1283343" data-name="Trazado 1283343" d="M48,52l-43.857.009a4.276,4.276,0,0,1-4.11-4.2L0,44.134a.863.863,0,0,1,.594-.664l3.05,0V18.49a3.805,3.805,0,0,1,3.65-3.9l6.33-.048a12.566,12.566,0,1,1,24.817,0l6.471.065a3.732,3.732,0,0,1,3.5,3.718l.011,25.141,3.046,0a.845.845,0,0,1,.6.627l-.037,3.713A4.251,4.251,0,0,1,48,52M26.024,26.528l2.162-2.917a11.226,11.226,0,1,0-4.251.025ZM7.183,18.8c0-.373.484-.622.72-.622l6.851.006L13.9,15.845l-6.441.019a2.546,2.546,0,0,0-2.493,2.349L4.95,43.478l2.23-.008Zm37.7,24.67,2.232-.006V18.51a2.573,2.573,0,0,0-2.526-2.645l-6.439-.012-.834,2.329,6.846-.007a.767.767,0,0,1,.72.666ZM28.9,24.8l-2.328,3.237a.844.844,0,0,1-.672.281,1.422,1.422,0,0,1-.486-.4l-2.259-3.136A12.505,12.505,0,0,1,15.57,19.49l-7.092,0,0,23.977h35.1l0-23.984-7.1.008A12.605,12.605,0,0,1,28.9,24.8M50.754,44.753l-16.017,0a4.133,4.133,0,0,1-3.871,3.652H21.2a4.146,4.146,0,0,1-3.882-3.654H1.313l.033,3.159a2.938,2.938,0,0,0,2.822,2.8l43.591,0A2.946,2.946,0,0,0,50.721,47.9ZM31.06,47.111a3,3,0,0,0,2.381-2.361l-14.816.008a2.827,2.827,0,0,0,2.454,2.321Z" transform="translate(0 0)" fill="#0f654d"/>
          <path id="Trazado_1283344" data-name="Trazado 1283344" d="M54.412,54.839l-17.665,0a.974.974,0,0,1-.638-.526c-.074-.212.257-.771.492-.771l17.914,0c.24,0,.553.457.554.669a.766.766,0,0,1-.657.629" transform="translate(-14.849 -22.026)" fill="#0f654d"/>
          <rect id="Rectángulo_468175" data-name="Rectángulo 468175" width="18.923" height="1.299" transform="translate(21.279 39.206)" fill="#0f654d"/>
          <path id="Trazado_1283345" data-name="Trazado 1283345" d="M38.4,61.4H20.817a.824.824,0,0,1-.682-.561.708.708,0,0,1,.653-.72l17.56.005a.709.709,0,0,1,.748.573.752.752,0,0,1-.7.7" transform="translate(-8.282 -24.731)" fill="#0f654d"/>
          <path id="Trazado_1283346" data-name="Trazado 1283346" d="M25.684,54.84H20.811a.815.815,0,0,1-.678-.645.826.826,0,0,1,.648-.658l4.907,0a.748.748,0,0,1,.686.657.716.716,0,0,1-.691.648" transform="translate(-8.282 -22.023)" fill="#0f654d"/>
          <path id="Trazado_1283347" data-name="Trazado 1283347" d="M63.384,61.385l-4.992.015a1.007,1.007,0,0,1-.627-.427c-.109-.191.088-.842.331-.843l5.238-.022a.858.858,0,0,1,.642.587c.033.213-.3.69-.592.691" transform="translate(-23.75 -24.726)" fill="#0f654d"/>
          <path id="Trazado_1283348" data-name="Trazado 1283348" d="M25.795,67.888l-5.039.009a.874.874,0,0,1-.626-.593.753.753,0,0,1,.636-.7l5.1.009c.191,0,.479.381.506.567.031.217-.306.711-.578.712" transform="translate(-8.28 -27.397)" fill="#0f654d"/>
          <path id="Trazado_1283349" data-name="Trazado 1283349" d="M33.376,21.294a.855.855,0,0,1-.034.994.778.778,0,0,1-.949-.12l-2.45-2.64a.813.813,0,0,1-.062-1.259l2.579-2.775a.887.887,0,0,1,.878-.068.851.851,0,0,1,.108.9L31.1,18.886Z" transform="translate(-12.18 -6.311)" fill="#0f654d"/>
          <path id="Trazado_1283350" data-name="Trazado 1283350" d="M53.369,22.132a.79.79,0,0,1-.988.16.88.88,0,0,1-.068-.955l2.313-2.449-2.3-2.5a.843.843,0,0,1,.062-.954.881.881,0,0,1,.939.111l2.521,2.731a.81.81,0,0,1-.064,1.252Z" transform="translate(-21.474 -6.314)" fill="#0f654d"/>
          <path id="Trazado_1283351" data-name="Trazado 1283351" d="M42.26,22.086a.709.709,0,0,1-.923.489.748.748,0,0,1-.331-.854L43.6,14.453c.074-.206.606-.361.826-.293a.771.771,0,0,1,.387.737Z" transform="translate(-16.855 -5.819)" fill="#0f654d"/>
        </g>
      </g>
    </g>
  </g>
</svg>
