<svg xmlns="http://www.w3.org/2000/svg" xmlns:xlink="http://www.w3.org/1999/xlink" width="396" height="753.193" viewBox="0 0 396 753.193">
  <defs>
    <clipPath id="clip-path">
      <rect id="Rectangle_467388" data-name="Rectangle 467388" width="361.811" height="236.506" transform="translate(0 0)" fill="none"/>
    </clipPath>
    <clipPath id="clip-path-2">
      <rect id="Rectangle_467391" data-name="Rectangle 467391" width="40.25" height="36.73" fill="#f3f9ff"/>
    </clipPath>
    <clipPath id="clip-path-3">
      <rect id="Rectangle_467392" data-name="Rectangle 467392" width="33.305" height="47.12" fill="#19538d"/>
    </clipPath>
    <clipPath id="clip-path-4">
      <rect id="Rectangle_467403" data-name="Rectangle 467403" width="38.123" height="39.563" fill="#19538d"/>
    </clipPath>
    <clipPath id="clip-path-5">
      <rect id="Rectangle_467404" data-name="Rectangle 467404" width="39.769" height="41.226" fill="#19538d"/>
    </clipPath>
    <clipPath id="clip-path-6">
      <rect id="Rectangle_467405" data-name="Rectangle 467405" width="39.384" height="37.986" fill="#19538d"/>
    </clipPath>
  </defs>
  <g id="img19_1" transform="translate(3866 6686.394)">
    <g id="Group_1214379" data-name="Group 1214379" transform="translate(4670 -3309.116)">
      <rect id="Rectangle_466725" data-name="Rectangle 466725" width="396" height="753.193" rx="16" transform="translate(-8536 -3377.277)" fill="#c0f6f2"/>
    </g>
    <g id="Group_1214391" data-name="Group 1214391" transform="translate(-3849 -6196.824)">
      <g id="Group_1214380" data-name="Group 1214380" transform="translate(0 -0.002)" clip-path="url(#clip-path)">
        <path id="Path_1282657" data-name="Path 1282657" d="M1597.243,275.6c6.469,21.268-2.151,42.726-19.253,47.928s-36.21-7.823-42.679-29.091,2.151-42.726,19.253-47.928,36.21,7.823,42.679,29.091" transform="translate(-1246.572 -199.499)" fill="#ffe2ba"/>
        <path id="Path_1282658" data-name="Path 1282658" d="M78.041,312.59H371.47c13.4-24.695,31.959-77.458-32.267-106.775,0,0-29.8-10.127-29.432-51.21.24-26.694-25.61-66.093-93.853-42.451-33.334,11.548-64.192-5.768-64.192-5.768S79.539,50.625,54.094,178.254C38.985,254.038,54.4,293.018,78.041,312.59" transform="translate(-39.101 -76.64)" fill="#ffe2bc"/>
        <path id="Path_1282659" data-name="Path 1282659" d="M547.126,1255.848a6.151,6.151,0,0,1-.669-.549,6.163,6.163,0,0,0,.669.549" transform="translate(-444.309 -1020.649)" fill="#4a81c2"/>
        <path id="Path_1282660" data-name="Path 1282660" d="M550.924,1258.79a6.161,6.161,0,0,1-.731-.437,6.161,6.161,0,0,0,.731.437" transform="translate(-447.347 -1023.133)" fill="#4a81c2"/>
        <path id="Path_1282661" data-name="Path 1282661" d="M539.763,1245.313a6.191,6.191,0,0,1-1.507-2.267,6.166,6.166,0,0,0,1.507,2.267" transform="translate(-437.641 -1010.686)" fill="#4a81c2"/>
        <path id="Path_1282662" data-name="Path 1282662" d="M1386.208,1255.3a6.237,6.237,0,0,1-.67.55,6.2,6.2,0,0,0,.67-.55" transform="translate(-1126.544 -1020.647)" fill="#4a81c2"/>
        <path id="Path_1282663" data-name="Path 1282663" d="M1377.59,1261.008a6.049,6.049,0,0,1-.74.3,6.1,6.1,0,0,0,.74-.3" transform="translate(-1119.48 -1025.291)" fill="#4a81c2"/>
        <path id="Path_1282664" data-name="Path 1282664" d="M1373,1262.738a6.071,6.071,0,0,1-.815.194,6.136,6.136,0,0,0,.815-.194" transform="translate(-1115.684 -1026.698)" fill="#4a81c2"/>
        <path id="Path_1282665" data-name="Path 1282665" d="M555.506,1261.31a6.06,6.06,0,0,1-.74-.3,6.076,6.076,0,0,0,.74.3" transform="translate(-451.065 -1025.291)" fill="#4a81c2"/>
        <path id="Path_1282666" data-name="Path 1282666" d="M1382.2,1258.353a6.164,6.164,0,0,1-.731.437,6.177,6.177,0,0,0,.731-.437" transform="translate(-1123.237 -1023.133)" fill="#4a81c2"/>
        <path id="Path_1282667" data-name="Path 1282667" d="M1367.4,1263.933a6.148,6.148,0,0,1-.864.067,6.167,6.167,0,0,0,.864-.067" transform="translate(-1111.092 -1027.67)" fill="#4a81c2"/>
        <path id="Path_1282668" data-name="Path 1282668" d="M565.283,1264a6.149,6.149,0,0,1-.864-.067,6.169,6.169,0,0,0,.864.067" transform="translate(-458.914 -1027.67)" fill="#4a81c2"/>
        <path id="Path_1282669" data-name="Path 1282669" d="M559.85,1262.933a6.214,6.214,0,0,1-.815-.194,6.142,6.142,0,0,0,.815.194" transform="translate(-454.536 -1026.699)" fill="#4a81c2"/>
        <path id="Path_1282670" data-name="Path 1282670" d="M538.255,1243.04h0a6.19,6.19,0,0,0,1.507,2.267l.026.023a6.144,6.144,0,0,0,.669.55l.029.022a6.19,6.19,0,0,0,.731.437c.041.021.082.04.124.059a6.055,6.055,0,0,0,.74.3l.058.021a6.053,6.053,0,0,0,.815.194c.064.011.127.021.192.03a6.2,6.2,0,0,0,.864.067H693.083a6.2,6.2,0,0,0,.864-.067c.064-.009.128-.018.192-.03a6.052,6.052,0,0,0,.815-.194l.058-.021a6.051,6.051,0,0,0,.74-.3c.041-.02.083-.039.123-.059a6.183,6.183,0,0,0,.731-.437l.029-.022a6.174,6.174,0,0,0,.67-.55l.025-.022a6.191,6.191,0,0,0,1.508-2.269Z" transform="translate(-437.641 -1010.682)" fill="#3370b0"/>
        <path id="Path_1282671" data-name="Path 1282671" d="M757.768,925.4q0,3.893-.087,7.4h78.55c-.005-.216-.007-.447-.012-.665V925.4Z" transform="translate(-616.05 -752.417)" fill="#3370b0"/>
        <path id="Path_1282672" data-name="Path 1282672" d="M459.17,0H205.453a19.239,19.239,0,0,0-19.239,19.239v134.5a19.239,19.239,0,0,0,19.239,19.239h87.632c0,44.337-8.683,50.367-12.1,51.023H257.776a6.15,6.15,0,0,0-5.755,8.353H412.6a6.19,6.19,0,0,1-1.508,2.269A6.158,6.158,0,0,0,406.849,224H383.566c-3.22-.618-11.1-6-12.017-43.625H293.037q.085-3.509.087-7.4H459.17a19.239,19.239,0,0,0,19.239-19.239V19.236A19.239,19.239,0,0,0,459.17,0m14.075,147.124H191.379V17.49a12.33,12.33,0,0,1,12.33-12.33H460.916a12.33,12.33,0,0,1,12.329,12.33Z" transform="translate(-151.406 0.003)" fill="#727997"/>
        <path id="Path_1282673" data-name="Path 1282673" d="M483.378,27.623H226.171a12.33,12.33,0,0,0-12.33,12.33v129.63H495.707V39.953a12.329,12.329,0,0,0-12.329-12.33M305.147,154.7a4,4,0,0,1-4,4H247.316a4,4,0,0,1-4-4V45.114a4,4,0,0,1,4-4h53.829a4,4,0,0,1,4,4Zm80.854,0a4,4,0,0,1-4,4H328.17a4,4,0,0,1-4-4V45.114a4,4,0,0,1,4-4H382a4,4,0,0,1,4,4Zm80.234,0a4,4,0,0,1-4,4H408.4a4,4,0,0,1-4-4V45.114a4,4,0,0,1,4-4h53.829a4,4,0,0,1,4,4Z" transform="translate(-173.868 -22.459)" fill="#c3d2e7"/>
        <path id="Path_1282674" data-name="Path 1282674" d="M429.337,99.782H375.508a4,4,0,0,0-4,4v109.59a4,4,0,0,0,4,4h53.829a4,4,0,0,0,4-4V103.785a4,4,0,0,0-4-4m-52.38,17.154a2.89,2.89,0,0,1,2.89-2.89h17.305a2.89,2.89,0,0,1,2.89,2.89v10.809a2.89,2.89,0,0,1-2.89,2.89H379.846a2.89,2.89,0,0,1-2.89-2.89Zm23.086,92.206a2.89,2.89,0,0,1-2.89,2.89H379.846a2.89,2.89,0,0,1-2.89-2.89V198.333a2.89,2.89,0,0,1,2.89-2.89h17.305a2.89,2.89,0,0,1,2.89,2.89Zm27.846,0a2.89,2.89,0,0,1-2.89,2.89H407.692a2.89,2.89,0,0,1-2.89-2.89V198.333a2.89,2.89,0,0,1,2.89-2.89H425a2.89,2.89,0,0,1,2.89,2.89Zm0-20.155a2.89,2.89,0,0,1-2.89,2.89H379.846a2.89,2.89,0,0,1-2.89-2.89V178.177a2.89,2.89,0,0,1,2.89-2.89H425a2.89,2.89,0,0,1,2.89,2.89Zm0-21.513a3.37,3.37,0,0,1-3.213,3.365l-2.927,2.976-3.655-2.968h-38.78a2.357,2.357,0,0,1-2.357-2.357V156.713a2.357,2.357,0,0,1,2.357-2.356h45.97a2.6,2.6,0,0,1,2.6,2.6Zm0-19.573a2.89,2.89,0,0,1-2.89,2.89H379.846a2.89,2.89,0,0,1-2.89-2.89V137.091a2.89,2.89,0,0,1,2.89-2.89H425a2.89,2.89,0,0,1,2.89,2.89Zm0-20.155a2.89,2.89,0,0,1-2.89,2.89H407.692a2.89,2.89,0,0,1-2.89-2.89V116.936a2.89,2.89,0,0,1,2.89-2.89H425a2.89,2.89,0,0,1,2.89,2.89Zm-2.442-17.266H379.4a2.442,2.442,0,1,1,0-4.884h46.047a2.442,2.442,0,1,1,0,4.884" transform="translate(-302.061 -81.13)" fill="#fff"/>
        <path id="Path_1282675" data-name="Path 1282675" d="M449.157,130.886H403.11a2.442,2.442,0,1,0,0,4.884h46.047a2.442,2.442,0,1,0,0-4.884" transform="translate(-325.772 -106.419)" fill="#c3d2e7"/>
        <path id="Path_1282676" data-name="Path 1282676" d="M449,391.74h-45.97a2.357,2.357,0,0,0-2.357,2.356v11.777a2.357,2.357,0,0,0,2.356,2.357h38.78l3.655,2.968,2.927-2.976a3.37,3.37,0,0,0,3.213-3.365V394.345a2.6,2.6,0,0,0-2.6-2.6" transform="translate(-325.773 -318.513)" fill="#94b2d9"/>
        <path id="Path_1282677" data-name="Path 1282677" d="M403.559,192.679h17.305a2.89,2.89,0,0,0,2.89-2.89V178.98a2.89,2.89,0,0,0-2.89-2.89H403.559a2.89,2.89,0,0,0-2.89,2.89v10.809a2.89,2.89,0,0,0,2.89,2.89" transform="translate(-325.773 -143.174)" fill="#c3d2e7"/>
        <path id="Path_1282678" data-name="Path 1282678" d="M448.71,283.915H403.559a2.89,2.89,0,0,0-2.89,2.89v10.809a2.89,2.89,0,0,0,2.89,2.89H448.71a2.89,2.89,0,0,0,2.89-2.89V286.8a2.89,2.89,0,0,0-2.89-2.89" transform="translate(-325.773 -230.843)" fill="#c3d2e7"/>
        <path id="Path_1282679" data-name="Path 1282679" d="M569.83,176.09H552.525a2.89,2.89,0,0,0-2.89,2.89v10.809a2.89,2.89,0,0,0,2.89,2.89H569.83a2.89,2.89,0,0,0,2.89-2.89V178.98a2.89,2.89,0,0,0-2.89-2.89" transform="translate(-446.893 -143.174)" fill="#c3d2e7"/>
        <path id="Path_1282680" data-name="Path 1282680" d="M569.83,611.537H552.525a2.89,2.89,0,0,0-2.89,2.89v10.809a2.89,2.89,0,0,0,2.89,2.89H569.83a2.89,2.89,0,0,0,2.89-2.89V614.427a2.89,2.89,0,0,0-2.89-2.89" transform="translate(-446.893 -497.224)" fill="#c3d2e7"/>
        <path id="Path_1282681" data-name="Path 1282681" d="M448.71,503.712H403.559a2.89,2.89,0,0,0-2.89,2.89v10.809a2.89,2.89,0,0,0,2.89,2.89H448.71a2.89,2.89,0,0,0,2.89-2.89V506.6a2.89,2.89,0,0,0-2.89-2.89" transform="translate(-325.773 -409.554)" fill="#c3d2e7"/>
        <path id="Path_1282682" data-name="Path 1282682" d="M420.865,611.537H403.559a2.89,2.89,0,0,0-2.89,2.89v10.809a2.89,2.89,0,0,0,2.89,2.89h17.305a2.89,2.89,0,0,0,2.89-2.89V614.427a2.89,2.89,0,0,0-2.89-2.89" transform="translate(-325.773 -497.224)" fill="#c3d2e7"/>
        <path id="Path_1282683" data-name="Path 1282683" d="M861.883,99.782H808.054a4,4,0,0,0-4,4v109.59a4,4,0,0,0,4,4h53.829a4,4,0,0,0,4-4V103.785a4,4,0,0,0-4-4M809.5,116.936a2.89,2.89,0,0,1,2.89-2.89H829.7a2.89,2.89,0,0,1,2.89,2.89v10.809a2.89,2.89,0,0,1-2.89,2.89H812.393a2.89,2.89,0,0,1-2.89-2.89Zm0,20.155a2.89,2.89,0,0,1,2.89-2.89H829.7a2.89,2.89,0,0,1,2.89,2.89v30.965a2.89,2.89,0,0,1-2.89,2.89H812.393a2.89,2.89,0,0,1-2.89-2.89Zm50.931,72.051a2.89,2.89,0,0,1-2.89,2.89H812.393a2.89,2.89,0,0,1-2.89-2.89V178.177a2.89,2.89,0,0,1,2.89-2.89h45.151a2.89,2.89,0,0,1,2.89,2.89Zm0-41.086a2.89,2.89,0,0,1-2.89,2.89H840.238a2.89,2.89,0,0,1-2.89-2.89v-51.12a2.89,2.89,0,0,1,2.89-2.89h17.305a2.89,2.89,0,0,1,2.89,2.89Zm-2.442-57.576H811.944a2.442,2.442,0,0,1,0-4.884h46.047a2.442,2.442,0,0,1,0,4.884" transform="translate(-653.752 -81.13)" fill="#fff"/>
        <path id="Path_1282684" data-name="Path 1282684" d="M881.7,130.886H835.657a2.442,2.442,0,1,0,0,4.884H881.7a2.442,2.442,0,0,0,0-4.884" transform="translate(-677.465 -106.419)" fill="#94b2d9"/>
        <path id="Path_1282685" data-name="Path 1282685" d="M836.1,192.679h17.305a2.89,2.89,0,0,0,2.89-2.89V178.98a2.89,2.89,0,0,0-2.89-2.89H836.1a2.89,2.89,0,0,0-2.89,2.89v10.809a2.89,2.89,0,0,0,2.89,2.89" transform="translate(-677.464 -143.174)" fill="#c3d2e7"/>
        <path id="Path_1282686" data-name="Path 1282686" d="M836.1,320.66h17.305a2.89,2.89,0,0,0,2.89-2.89V286.8a2.89,2.89,0,0,0-2.89-2.89H836.1a2.89,2.89,0,0,0-2.89,2.89V317.77a2.89,2.89,0,0,0,2.89,2.89" transform="translate(-677.464 -230.843)" fill="#94b2d9"/>
        <path id="Path_1282687" data-name="Path 1282687" d="M1002.375,176.09H985.069a2.89,2.89,0,0,0-2.89,2.89V230.1a2.89,2.89,0,0,0,2.89,2.89h17.305a2.89,2.89,0,0,0,2.89-2.89V178.98a2.89,2.89,0,0,0-2.89-2.89" transform="translate(-798.583 -143.174)" fill="#c3d2e7"/>
        <path id="Path_1282688" data-name="Path 1282688" d="M881.255,503.712H836.1a2.89,2.89,0,0,0-2.89,2.89v30.965a2.89,2.89,0,0,0,2.89,2.89h45.151a2.89,2.89,0,0,0,2.89-2.89V506.6a2.89,2.89,0,0,0-2.89-2.89" transform="translate(-677.464 -409.554)" fill="#c3d2e7"/>
        <path id="Path_1282689" data-name="Path 1282689" d="M1291.11,99.782h-53.829a4,4,0,0,0-4,4v109.59a4,4,0,0,0,4,4h53.829a4,4,0,0,0,4-4V103.785a4,4,0,0,0-4-4m-52.38,23.514a2.4,2.4,0,0,1,2.4-2.4h4.911a2.4,2.4,0,0,1,2.4,2.4v4.911a2.4,2.4,0,0,1-2.4,2.4h-4.911a2.4,2.4,0,0,1-2.4-2.4Zm0,13.8a2.4,2.4,0,0,1,2.4-2.4h4.911a2.4,2.4,0,0,1,2.4,2.4v4.911a2.4,2.4,0,0,1-2.4,2.4h-4.911a2.4,2.4,0,0,1-2.4-2.4Zm0,13.8a2.4,2.4,0,0,1,2.4-2.4h4.911a2.4,2.4,0,0,1,2.4,2.4V155.8a2.4,2.4,0,0,1-2.4,2.4h-4.911a2.4,2.4,0,0,1-2.4-2.4Zm0,13.8a2.4,2.4,0,0,1,2.4-2.4h4.911a2.4,2.4,0,0,1,2.4,2.4V169.6a2.4,2.4,0,0,1-2.4,2.4h-4.911a2.4,2.4,0,0,1-2.4-2.4Zm0,13.8a2.4,2.4,0,0,1,2.4-2.4h4.911a2.4,2.4,0,0,1,2.4,2.4V183.4a2.4,2.4,0,0,1-2.4,2.4h-4.911a2.4,2.4,0,0,1-2.4-2.4Zm0,13.8a2.4,2.4,0,0,1,2.4-2.4h4.911a2.4,2.4,0,0,1,2.4,2.4V197.2a2.4,2.4,0,0,1-2.4,2.4h-4.911a2.4,2.4,0,0,1-2.4-2.4Zm48.489,18.657h-46.047a2.442,2.442,0,0,1,0-4.884h46.047a2.442,2.442,0,1,1,0,4.884m-32.35-76.251h4.911a2.4,2.4,0,0,1,2.4,2.4v4.911a2.4,2.4,0,0,1-2.4,2.4h-4.911a2.4,2.4,0,0,1-2.4-2.4v-4.911a2.4,2.4,0,0,1,2.4-2.4m-2.4-6.489V123.3a2.4,2.4,0,0,1,2.4-2.4h4.911a2.4,2.4,0,0,1,2.4,2.4v4.911a2.4,2.4,0,0,1-2.4,2.4h-4.911a2.4,2.4,0,0,1-2.4-2.4m2.4,20.288h4.911a2.4,2.4,0,0,1,2.4,2.4V155.8a2.4,2.4,0,0,1-2.4,2.4h-4.911a2.4,2.4,0,0,1-2.4-2.4v-4.911a2.4,2.4,0,0,1,2.4-2.4m0,13.8h4.911a2.4,2.4,0,0,1,2.4,2.4V169.6a2.4,2.4,0,0,1-2.4,2.4h-4.911a2.4,2.4,0,0,1-2.4-2.4v-4.911a2.4,2.4,0,0,1,2.4-2.4m0,13.8h4.911a2.4,2.4,0,0,1,2.4,2.4V183.4a2.4,2.4,0,0,1-2.4,2.4h-4.911a2.4,2.4,0,0,1-2.4-2.4v-4.911a2.4,2.4,0,0,1,2.4-2.4m0,13.8h4.911a2.4,2.4,0,0,1,2.4,2.4V197.2a2.4,2.4,0,0,1-2.4,2.4h-4.911a2.4,2.4,0,0,1-2.4-2.4V192.29a2.4,2.4,0,0,1,2.4-2.4M1268.61,134.7h4.911a2.4,2.4,0,0,1,2.4,2.4v4.911a2.4,2.4,0,0,1-2.4,2.4h-4.911a2.4,2.4,0,0,1-2.4-2.4v-4.911a2.4,2.4,0,0,1,2.4-2.4m-2.4-6.489V123.3a2.4,2.4,0,0,1,2.4-2.4h4.911a2.4,2.4,0,0,1,2.4,2.4v4.911a2.4,2.4,0,0,1-2.4,2.4h-4.911a2.4,2.4,0,0,1-2.4-2.4m2.4,20.288h4.911a2.4,2.4,0,0,1,2.4,2.4V155.8a2.4,2.4,0,0,1-2.4,2.4h-4.911a2.4,2.4,0,0,1-2.4-2.4v-4.911a2.4,2.4,0,0,1,2.4-2.4m0,13.8h4.911a2.4,2.4,0,0,1,2.4,2.4V169.6a2.4,2.4,0,0,1-2.4,2.4h-4.911a2.4,2.4,0,0,1-2.4-2.4v-4.911a2.4,2.4,0,0,1,2.4-2.4m0,13.8h4.911a2.4,2.4,0,0,1,2.4,2.4V183.4a2.4,2.4,0,0,1-2.4,2.4h-4.911a2.4,2.4,0,0,1-2.4-2.4v-4.911a2.4,2.4,0,0,1,2.4-2.4m0,13.8h4.911a2.4,2.4,0,0,1,2.4,2.4V197.2a2.4,2.4,0,0,1-2.4,2.4h-4.911a2.4,2.4,0,0,1-2.4-2.4V192.29a2.4,2.4,0,0,1,2.4-2.4m21.05,7.31a2.4,2.4,0,0,1-2.4,2.4h-4.911a2.4,2.4,0,0,1-2.4-2.4V192.29a2.4,2.4,0,0,1,2.4-2.4h4.911a2.4,2.4,0,0,1,2.4,2.4Zm0-13.8a2.4,2.4,0,0,1-2.4,2.4h-4.911a2.4,2.4,0,0,1-2.4-2.4v-4.911a2.4,2.4,0,0,1,2.4-2.4h4.911a2.4,2.4,0,0,1,2.4,2.4Zm0-13.8a2.4,2.4,0,0,1-2.4,2.4h-4.911a2.4,2.4,0,0,1-2.4-2.4v-4.911a2.4,2.4,0,0,1,2.4-2.4h4.911a2.4,2.4,0,0,1,2.4,2.4Zm0-13.8a2.4,2.4,0,0,1-2.4,2.4h-4.911a2.4,2.4,0,0,1-2.4-2.4v-4.911a2.4,2.4,0,0,1,2.4-2.4h4.911a2.4,2.4,0,0,1,2.4,2.4Zm0-13.8a2.4,2.4,0,0,1-2.4,2.4h-4.911a2.4,2.4,0,0,1-2.4-2.4v-4.911a2.4,2.4,0,0,1,2.4-2.4h4.911a2.4,2.4,0,0,1,2.4,2.4Zm0-13.8a2.4,2.4,0,0,1-2.4,2.4h-4.911a2.4,2.4,0,0,1-2.4-2.4V123.3a2.4,2.4,0,0,1,2.4-2.4h4.911a2.4,2.4,0,0,1,2.4,2.4Zm-5.543-11.525h-39.846a5.543,5.543,0,0,1,0-11.086h39.846a5.543,5.543,0,0,1,0,11.086" transform="translate(-1002.745 -81.13)" fill="#fff"/>
        <path id="Path_1282690" data-name="Path 1282690" d="M1307.83,130.886h-39.846a5.543,5.543,0,0,0,0,11.086h39.846a5.543,5.543,0,0,0,0-11.086" transform="translate(-1026.457 -106.419)" fill="#94b2d9"/>
        <path id="Path_1282691" data-name="Path 1282691" d="M1264.84,222.452h4.911a2.4,2.4,0,0,0,2.4-2.4v-4.911a2.4,2.4,0,0,0-2.4-2.4h-4.911a2.4,2.4,0,0,0-2.4,2.4v4.911a2.4,2.4,0,0,0,2.4,2.4" transform="translate(-1026.457 -172.976)" fill="#94b2d9"/>
        <path id="Path_1282692" data-name="Path 1282692" d="M1338.35,222.452h4.911a2.4,2.4,0,0,0,2.4-2.4v-4.911a2.4,2.4,0,0,0-2.4-2.4h-4.911a2.4,2.4,0,0,0-2.4,2.4v4.911a2.4,2.4,0,0,0,2.4,2.4" transform="translate(-1086.227 -172.976)" fill="#94b2d9"/>
        <path id="Path_1282693" data-name="Path 1282693" d="M1411.86,222.452h4.911a2.4,2.4,0,0,0,2.4-2.4v-4.911a2.4,2.4,0,0,0-2.4-2.4h-4.911a2.4,2.4,0,0,0-2.4,2.4v4.911a2.4,2.4,0,0,0,2.4,2.4" transform="translate(-1145.996 -172.976)" fill="#c3d2e7"/>
        <path id="Path_1282694" data-name="Path 1282694" d="M1490.282,212.744h-4.911a2.4,2.4,0,0,0-2.4,2.4v4.911a2.4,2.4,0,0,0,2.4,2.4h4.911a2.4,2.4,0,0,0,2.4-2.4v-4.911a2.4,2.4,0,0,0-2.4-2.4" transform="translate(-1205.766 -172.976)" fill="#c3d2e7"/>
        <path id="Path_1282695" data-name="Path 1282695" d="M1264.84,296.271h4.911a2.4,2.4,0,0,0,2.4-2.4v-4.911a2.4,2.4,0,0,0-2.4-2.4h-4.911a2.4,2.4,0,0,0-2.4,2.4v4.911a2.4,2.4,0,0,0,2.4,2.4" transform="translate(-1026.457 -232.996)" fill="#c3d2e7"/>
        <path id="Rectangle_467378" data-name="Rectangle 467378" d="M4.854,0h0A4.854,4.854,0,0,1,9.708,4.854v0A4.854,4.854,0,0,1,4.854,9.708h0A4.854,4.854,0,0,1,0,4.854v0A4.854,4.854,0,0,1,4.854,0Z" transform="translate(249.725 53.567)" fill="#94b2d9"/>
        <path id="Rectangle_467379" data-name="Rectangle 467379" d="M4.854,0h0A4.854,4.854,0,0,1,9.708,4.854v0A4.854,4.854,0,0,1,4.854,9.708h0A4.854,4.854,0,0,1,0,4.854v0A4.854,4.854,0,0,1,4.854,0Z" transform="translate(263.466 53.567)" fill="#c3d2e7"/>
        <path id="Path_1282696" data-name="Path 1282696" d="M1490.282,286.563h-4.911a2.4,2.4,0,0,0-2.4,2.4v4.911a2.4,2.4,0,0,0,2.4,2.4h4.911a2.4,2.4,0,0,0,2.4-2.4v-4.911a2.4,2.4,0,0,0-2.4-2.4" transform="translate(-1205.766 -232.996)" fill="#94b2d9"/>
        <path id="Path_1282697" data-name="Path 1282697" d="M1264.84,370.089h4.911a2.4,2.4,0,0,0,2.4-2.4V362.78a2.4,2.4,0,0,0-2.4-2.4h-4.911a2.4,2.4,0,0,0-2.4,2.4v4.911a2.4,2.4,0,0,0,2.4,2.4" transform="translate(-1026.457 -293.016)" fill="#c3d2e7"/>
        <path id="Rectangle_467380" data-name="Rectangle 467380" d="M4.854,0h0A4.854,4.854,0,0,1,9.708,4.854v0A4.854,4.854,0,0,1,4.854,9.708h0A4.854,4.854,0,0,1,0,4.854v0A4.854,4.854,0,0,1,4.854,0Z" transform="translate(249.725 67.365)" fill="#c3d2e7"/>
        <path id="Rectangle_467381" data-name="Rectangle 467381" d="M4.854,0h0A4.854,4.854,0,0,1,9.708,4.854v0A4.854,4.854,0,0,1,4.854,9.708h0A4.854,4.854,0,0,1,0,4.854v0A4.854,4.854,0,0,1,4.854,0Z" transform="translate(263.466 67.365)" fill="#c3d2e7"/>
        <path id="Path_1282698" data-name="Path 1282698" d="M1490.282,360.381h-4.911a2.4,2.4,0,0,0-2.4,2.4v4.911a2.4,2.4,0,0,0,2.4,2.4h4.911a2.4,2.4,0,0,0,2.4-2.4V362.78a2.4,2.4,0,0,0-2.4-2.4" transform="translate(-1205.766 -293.016)" fill="#c3d2e7"/>
        <path id="Path_1282699" data-name="Path 1282699" d="M1264.84,443.908h4.911a2.4,2.4,0,0,0,2.4-2.4V436.6a2.4,2.4,0,0,0-2.4-2.4h-4.911a2.4,2.4,0,0,0-2.4,2.4v4.911a2.4,2.4,0,0,0,2.4,2.4" transform="translate(-1026.457 -353.036)" fill="#c3d2e7"/>
        <path id="Rectangle_467382" data-name="Rectangle 467382" d="M4.854,0h0A4.854,4.854,0,0,1,9.708,4.854v0A4.854,4.854,0,0,1,4.854,9.708h0A4.854,4.854,0,0,1,0,4.854v0A4.854,4.854,0,0,1,4.854,0Z" transform="translate(249.725 81.164)" fill="#c3d2e7"/>
        <path id="Rectangle_467383" data-name="Rectangle 467383" d="M4.854,0h0A4.853,4.853,0,0,1,9.708,4.853v0A4.854,4.854,0,0,1,4.854,9.708h0A4.854,4.854,0,0,1,0,4.854v0A4.854,4.854,0,0,1,4.854,0Z" transform="translate(263.466 81.164)" fill="#94b2d9"/>
        <path id="Path_1282700" data-name="Path 1282700" d="M1490.282,434.2h-4.911a2.4,2.4,0,0,0-2.4,2.4v4.911a2.4,2.4,0,0,0,2.4,2.4h4.911a2.4,2.4,0,0,0,2.4-2.4V436.6a2.4,2.4,0,0,0-2.4-2.4" transform="translate(-1205.766 -353.036)" fill="#c3d2e7"/>
        <path id="Path_1282701" data-name="Path 1282701" d="M1264.84,517.727h4.911a2.4,2.4,0,0,0,2.4-2.4v-4.911a2.4,2.4,0,0,0-2.4-2.4h-4.911a2.4,2.4,0,0,0-2.4,2.4v4.911a2.4,2.4,0,0,0,2.4,2.4" transform="translate(-1026.457 -413.056)" fill="#c3d2e7"/>
        <path id="Rectangle_467384" data-name="Rectangle 467384" d="M4.854,0h0A4.854,4.854,0,0,1,9.708,4.854v0A4.854,4.854,0,0,1,4.854,9.708h0A4.854,4.854,0,0,1,0,4.854v0A4.854,4.854,0,0,1,4.854,0Z" transform="translate(249.725 94.963)" fill="#c3d2e7"/>
        <rect id="Rectangle_467385" data-name="Rectangle 467385" width="9.708" height="9.708" rx="4.854" transform="translate(263.466 94.963)" fill="#c3d2e7"/>
        <path id="Path_1282702" data-name="Path 1282702" d="M1490.282,508.019h-4.911a2.4,2.4,0,0,0-2.4,2.4v4.911a2.4,2.4,0,0,0,2.4,2.4h4.911a2.4,2.4,0,0,0,2.4-2.4v-4.911a2.4,2.4,0,0,0-2.4-2.4" transform="translate(-1205.766 -413.056)" fill="#94b2d9"/>
        <path id="Path_1282703" data-name="Path 1282703" d="M1264.84,591.545h4.911a2.4,2.4,0,0,0,2.4-2.4v-4.911a2.4,2.4,0,0,0-2.4-2.4h-4.911a2.4,2.4,0,0,0-2.4,2.4v4.911a2.4,2.4,0,0,0,2.4,2.4" transform="translate(-1026.457 -473.076)" fill="#c3d2e7"/>
        <path id="Rectangle_467386" data-name="Rectangle 467386" d="M4.853,0h0A4.854,4.854,0,0,1,9.708,4.854v0A4.854,4.854,0,0,1,4.854,9.708h0A4.854,4.854,0,0,1,0,4.854v0A4.853,4.853,0,0,1,4.853,0Z" transform="translate(249.725 108.761)" fill="#94b2d9"/>
        <path id="Rectangle_467387" data-name="Rectangle 467387" d="M4.853,0h0A4.853,4.853,0,0,1,9.708,4.853v0A4.854,4.854,0,0,1,4.854,9.708h0A4.854,4.854,0,0,1,0,4.854v0A4.853,4.853,0,0,1,4.853,0Z" transform="translate(263.466 108.761)" fill="#c3d2e7"/>
        <path id="Path_1282704" data-name="Path 1282704" d="M1490.282,581.837h-4.911a2.4,2.4,0,0,0-2.4,2.4v4.911a2.4,2.4,0,0,0,2.4,2.4h4.911a2.4,2.4,0,0,0,2.4-2.4v-4.911a2.4,2.4,0,0,0-2.4-2.4" transform="translate(-1205.766 -473.076)" fill="#c3d2e7"/>
        <path id="Path_1282705" data-name="Path 1282705" d="M1310.929,668.353h-46.047a2.442,2.442,0,1,0,0,4.884h46.047a2.442,2.442,0,1,0,0-4.884" transform="translate(-1026.456 -543.419)" fill="#c3d2e7"/>
        <path id="Path_1282706" data-name="Path 1282706" d="M1676.43,524.859v0Z" transform="translate(-1363.06 -426.673)" fill="#ec8b6b"/>
        <path id="Path_1282707" data-name="Path 1282707" d="M1623.037,467.8a1.648,1.648,0,1,0,1.5-2.289,1.63,1.63,0,0,0-.553.107,4.865,4.865,0,0,1,.39-3.248c-.724.023-1.275.016-1.545.008-.011,0-.021,0-.033,0s-.021,0-.033,0l-.126,0,0-.012c-.039,0-.076-.011-.114-.015l-.434,2.44-.312,1.753-.818,1.156a.383.383,0,0,0,.192.585l.3.1-.414,2.326a2.655,2.655,0,0,0,1.943,3.029l.051-5.933Zm1.417-1.714h.016a1.06,1.06,0,0,1,1.032.863.11.11,0,0,1,.021.1.964.964,0,0,1,.02.1h0v0h0v.009a1.075,1.075,0,0,1-1.066,1.075.119.119,0,1,1,0-.237h0a.837.837,0,0,0,.83-.837v-.007c0-.018-.009-.033-.01-.051a1.651,1.651,0,0,0-.491-.076,1.194,1.194,0,0,0-1.032.538.119.119,0,0,1-.2-.135,1.434,1.434,0,0,1,1.228-.641,1.923,1.923,0,0,1,.436.052.835.835,0,0,0-.772-.519.119.119,0,0,1-.016-.237" transform="translate(-1317.906 -375.919)" fill="#ec8b6b"/>
        <path id="Path_1282708" data-name="Path 1282708" d="M1640.33,497.831v-.093l0-5.187a4.916,4.916,0,0,1-5.608-.463,1.64,1.64,0,0,1-2.635-.565h0l-.051,5.933-.01,1.122h8.3Z" transform="translate(-1326.96 -399.645)" fill="#e56845"/>
        <path id="Path_1282709" data-name="Path 1282709" d="M1615.739,431.209l0,.012.126,0c.011,0,.022,0,.033,0s.021,0,.033,0c.27.007.821.015,1.545-.008a4.862,4.862,0,0,0-.39,3.248,1.628,1.628,0,0,1,.553-.107,1.643,1.643,0,0,1,1.13,2.853,4.938,4.938,0,1,0,6.21-7.679,1.982,1.982,0,0,0-1.665-3.563l0-.008-.058.025c-.04.014-.079.026-.118.042a3.244,3.244,0,0,1-2.4-.143c-1.377-.644-2.757-1.662-3.883-1.753h0a3.59,3.59,0,0,0-2,6.889,3.331,3.331,0,0,0,.339,2.609l.434-2.44c.038,0,.075.012.114.015" transform="translate(-1311.002 -344.77)" fill="#282a40"/>
        <path id="Path_1282710" data-name="Path 1282710" d="M1636.051,482.591h0a.835.835,0,0,1,.772.519,1.913,1.913,0,0,0-.436-.052,1.434,1.434,0,0,0-1.228.641.119.119,0,0,0,.2.135,1.194,1.194,0,0,1,1.032-.538,1.651,1.651,0,0,1,.49.076c0,.018.01.033.01.051v.007a.837.837,0,0,1-.831.837h0a.119.119,0,0,0,0,.237,1.075,1.075,0,0,0,1.066-1.075v-.009h0v0h0c0-.034-.016-.062-.02-.1a.11.11,0,0,0-.022-.1,1.06,1.06,0,0,0-1.032-.863h-.016a.119.119,0,1,0,.016.237" transform="translate(-1329.487 -392.189)" fill="#222530"/>
        <path id="Path_1282711" data-name="Path 1282711" d="M1635.417,532.653c1.64.055,3.221.164,4.736.312v-3.7H1631.8v3.351c1.173-.017,2.38-.009,3.617.033" transform="translate(-1326.773 -430.334)" fill="#cddce6"/>
        <path id="Path_1282712" data-name="Path 1282712" d="M1676.38,1207.48a20.861,20.861,0,0,1-4.249.235l-.449-3.557.841,6.669a16.163,16.163,0,0,1,1.828,0,5.668,5.668,0,0,1,1.717.022l.64-6.912Z" transform="translate(-1359.2 -978.884)" fill="#ec8b6b"/>
        <path id="Path_1282713" data-name="Path 1282713" d="M1650.218,1240.53a16.281,16.281,0,0,0-1.828,0c-.274.04-.443.126-.429.3.063.818.353,1.773-1.26,1.817h.006c-2.672.189-4.707,1.118-4.707,1.8,0,.764,2.54.545,5.674.545s4.9.382,4.9-.383c0,0,.543-2.463-.3-3.782a.71.71,0,0,0-.344-.286,5.657,5.657,0,0,0-1.717-.022" transform="translate(-1335.067 -1008.592)" fill="#4ca668"/>
        <path id="Path_1282714" data-name="Path 1282714" d="M1676.38,1207.48l.329-3.548c-.852.1-1.82.181-2.85.217-.766.027-1.5.028-2.177.009l.449,3.557a20.861,20.861,0,0,0,4.249-.235" transform="translate(-1359.2 -978.884)" fill="#993518"/>
        <path id="Path_1282715" data-name="Path 1282715" d="M1629.724,794.908c-.07,0-.134-.012-.2-.015-2.946,28.349,3.188,71.565,3.188,71.565.016.442,1.7.758,4.043.824.679.019,1.411.017,2.177-.009,1.03-.036,2-.113,2.85-.217h0c1.971-.241,3.311-.633,3.3-1.03l1.185-76.418q-1.024.163-2.172.3a19.975,19.975,0,0,1-14.363,5" transform="translate(-1324.267 -642.008)" fill="#282a40"/>
        <path id="Path_1282716" data-name="Path 1282716" d="M1486.324,1202.431a20.819,20.819,0,0,1-4.185-.769l.4-3.564-.748,6.68a16.2,16.2,0,0,1,1.778.425,5.656,5.656,0,0,1,1.664.424l2.246-6.568h0Z" transform="translate(-1204.804 -974.141)" fill="#ec8b6b"/>
        <path id="Path_1282717" data-name="Path 1282717" d="M1450.729,1233.806c-.276-.026-.46.018-.488.194-.131.81-.074,1.807-1.651,1.47l.006,0c-2.641-.444-4.838-.019-5,.646-.18.743,2.341,1.127,5.387,1.862s4.674,1.522,4.853.779h0s1.105-2.266.6-3.746a.714.714,0,0,0-.267-.359,5.666,5.666,0,0,0-1.664-.424,16.348,16.348,0,0,0-1.778-.425" transform="translate(-1173.742 -1003.169)" fill="#4ca668"/>
        <path id="Path_1282718" data-name="Path 1282718" d="M1487.843,1202.431l1.153-3.372c-.852-.1-1.811-.252-2.821-.459-.751-.154-1.463-.324-2.118-.5l-.4,3.564a20.818,20.818,0,0,0,4.185.769" transform="translate(-1206.322 -974.141)" fill="#993518"/>
        <path id="Path_1282719" data-name="Path 1282719" d="M1482.6,786.138q-.635-.139-1.189-.288c-10.879,26.048-15.624,75.311-15.624,75.311-.089.433,1.472,1.136,3.736,1.75.656.177,1.367.348,2.118.5,1.01.207,1.969.36,2.821.459h0c1.973.229,3.367.162,3.447-.227l18.54-71.851a22.186,22.186,0,0,1-13.849-5.656" transform="translate(-1191.789 -638.953)" fill="#282a40"/>
        <path id="Path_1282720" data-name="Path 1282720" d="M1584.758,788.108a104.825,104.825,0,0,1-12.305.669,85.282,85.282,0,0,1-16.7-1.386,22.187,22.187,0,0,0,13.85,5.655c.2.014.388.035.59.045.07,0,.134.013.2.016a19.976,19.976,0,0,0,14.363-5" transform="translate(-1264.938 -640.206)" fill="#cddce6"/>
        <path id="Path_1282721" data-name="Path 1282721" d="M1493.265,575.573a4.838,4.838,0,0,0-.368-1.094c-3.58-11.474-13.257-22.04-20.131-25.818a6.268,6.268,0,0,0-1.212-.616l-.034-.011c-2.482-1.183-6.686-2.144-11.714-2.635-1.516-.148-3.1-.258-4.736-.312-1.237-.041-2.444-.05-3.617-.032-6.3.093-11.508.992-13.967,2.346a6.218,6.218,0,0,0-2.849,2.578l-.006,0c-3.923,5.908-11.057,10.166-15.718,12.582-.469-3.345-.9-7.524-1.07-11.537,0,.009,0,.018,0,.027-2.365.276-4.731.526-7.1.737.384-3.532.8-6.285.949-7.222h0c-.37,2.346-2.452,16.221-1.415,25.024a4.841,4.841,0,0,0,5.336,4.258l0,.036a47.644,47.644,0,0,0,17.677-6.773c-.7,11.864-.445,20.674-.445,20.674,0,.692,1.176,1.338,3.2,1.884q.553.149,1.189.288a85.282,85.282,0,0,0,16.7,1.385,104.849,104.849,0,0,0,12.305-.669q1.146-.139,2.172-.3c4.074-.649,6.62-1.567,6.62-2.586,0-.436,0-.851,0-1.277a.119.119,0,0,1-.117-.118v-8.544a.119.119,0,1,1,.238,0V586.2a107.811,107.811,0,0,1,14.425-4.867,4.884,4.884,0,0,0,3.685-5.758m-18.28,2.159c-.053-4.868-.142-8.927-.248-12.311a60.682,60.682,0,0,1,7.131,8.676c-2.338,1.108-4.7,2.381-6.883,3.635" transform="translate(-1146.426 -442.767)" fill="#0f654d"/>
        <path id="Path_1282722" data-name="Path 1282722" d="M1451.621,561.44c0-.119,0-.24,0-.359,0,.118,0,.24,0,.359" transform="translate(-1180.271 -456.2)" fill="#4ca668"/>
        <path id="Path_1282723" data-name="Path 1282723" d="M1451.721,552.472c0,.12,0,.247-.005.369,0-.122,0-.248.005-.369" transform="translate(-1180.351 -449.2)" fill="#4ca668"/>
        <path id="Path_1282724" data-name="Path 1282724" d="M1451.71,569.99c0,.12.008.243.011.364,0-.121-.009-.244-.011-.364" transform="translate(-1180.346 -463.443)" fill="#4ca668"/>
        <path id="Path_1282725" data-name="Path 1282725" d="M1396.02,522.664c2.37-.211,4.736-.461,7.1-.737,0-.009,0-.018,0-.027-.018-.451-.031-.9-.043-1.341,0-.121-.009-.243-.011-.364-.01-.441-.012-.875-.014-1.307,0-.119,0-.241,0-.359,0-.422.009-.832.019-1.241,0-.122,0-.248.005-.368.015-.523.038-1.034.069-1.53l-.057,0a3.893,3.893,0,0,0-1.841-3.787c-2.385-1.524-5.058-3.034-6.016-2.836-.613.127,3.507,2.918,3.507,2.918s-11.1-6.864-1.665.8c0,0-11.195-6.755-.691.927,0,0-8.418-5.237-.656.947.377.3.806.676,1.247,1.08h0c-.147.937-.564,3.691-.949,7.222" transform="translate(-1131.702 -413.648)" fill="#ec8b6b"/>
        <path id="Path_1282726" data-name="Path 1282726" d="M1757.448,721.961a.119.119,0,0,0-.119.119v8.544a.119.119,0,0,0,.117.118h0a.119.119,0,0,0,.119-.119V722.08a.119.119,0,0,0-.119-.119" transform="translate(-1428.837 -587.007)" fill="#222530"/>
        <path id="Path_1282727" data-name="Path 1282727" d="M316.63,588.739c.236.3.573.707.975,1.172a25.885,25.885,0,0,0,2.822,2.847c-.116-1.415-.248-2.777-.386-4.041q-1.858-.165-3.714-.362c.061.08.161.208.3.385" transform="translate(-257.197 -478.374)" fill="#e65e71"/>
        <path id="Path_1282728" data-name="Path 1282728" d="M298.333,559.909c0-.155,0-.316-.007-.469,0,.153,0,.314.007.469" transform="translate(-242.561 -454.865)" fill="#e65e71"/>
        <path id="Path_1282729" data-name="Path 1282729" d="M332.05,558.755c-.386-3.548-.8-6.312-.952-7.248h0c.148.941.566,3.7.952,7.248" transform="translate(-269.207 -448.415)" fill="#e65e71"/>
        <path id="Path_1282730" data-name="Path 1282730" d="M298.046,525.8c.061.055.133.109.187.165a6.243,6.243,0,0,1,2.409,2.365l.006,0c.165.248.348.487.524.729a.116.116,0,0,1,.15.027l.068.088q1.856.2,3.714.362h0c-.386-3.544-.8-6.307-.952-7.247h0c.443-.406.873-.782,1.252-1.084,7.79-6.207-.659-.951-.659-.951,10.543-7.71-.693-.931-.693-.931,9.473-7.7-1.671-.807-1.671-.807s4.135-2.8,3.52-2.929c-.962-.2-3.645,1.316-6.039,2.846a3.907,3.907,0,0,0-1.848,3.8l-.058,0c.031.5.054,1.009.069,1.534,0,.153,0,.314.007.469.008.377.016.753.017,1.141,0,.139,0,.282,0,.422" transform="translate(-242.261 -419.189)" fill="#f6ae98"/>
        <path id="Path_1282731" data-name="Path 1282731" d="M102.744,1199.676h0l.346,7.21a5.676,5.676,0,0,1,1.722.055,16.315,16.315,0,0,1,1.832.086l.533-3.1a20.928,20.928,0,0,1-4.25-.426Z" transform="translate(-83.538 -975.424)" fill="#f6ae98"/>
        <path id="Path_1282732" data-name="Path 1282732" d="M100.561,1237.983a.715.715,0,0,0-.358.271c-.9,1.286-.464,3.776-.465,3.78h0c-.034.766,1.754.462,4.9.6s5.679.473,5.714-.293c.03-.686-1.969-1.708-4.64-2.016l.007,0c-1.615-.115-1.282-1.061-1.182-1.878.021-.177-.144-.271-.417-.323a16.294,16.294,0,0,0-1.832-.086,5.673,5.673,0,0,0-1.723-.055" transform="translate(-81.01 -1006.521)" fill="#e65e71"/>
        <path id="Path_1282733" data-name="Path 1282733" d="M104.276,1200.035c-.533-.112-1.044-.233-1.531-.358l.184,3.824a20.978,20.978,0,0,0,4.25.426l.574-3.344a31.559,31.559,0,0,1-3.476-.547" transform="translate(-83.539 -975.425)" fill="#ec8b6b"/>
        <path id="Path_1282734" data-name="Path 1282734" d="M237.554,1225.7a5.674,5.674,0,0,1,1.723.011,16.252,16.252,0,0,1,1.834.039l.453-3.115a20.972,20.972,0,0,1-4.26-.316Z" transform="translate(-192.946 -993.834)" fill="#f6ae98"/>
        <path id="Path_1282735" data-name="Path 1282735" d="M236.617,1240.1a5.687,5.687,0,0,0-1.723-.011.715.715,0,0,0-.351.281c-.866,1.308-.367,3.786-.367,3.79h0c-.014.767,1.766.417,4.911.476s5.69.327,5.7-.44c.013-.686-2.012-1.657-4.69-1.9h.006c-1.617-.074-1.308-1.028-1.23-1.847.017-.177-.151-.267-.425-.312a16.437,16.437,0,0,0-1.834-.038" transform="translate(-190.285 -1008.225)" fill="#e65e71"/>
        <path id="Path_1282736" data-name="Path 1282736" d="M238.754,1203.505c-1.033-.056-2-.151-2.856-.271l.263,3.567a20.946,20.946,0,0,0,4.26.316h0l.517-3.562c-.682.006-1.416-.009-2.184-.05" transform="translate(-191.802 -978.317)" fill="#ec8b6b"/>
        <path id="Path_1282737" data-name="Path 1282737" d="M108.012,789.449a19.938,19.938,0,0,1-15.084-5.65c-.513-.132-.966-.274-1.387-.42L79.554,858.96c-.1.47,1.746,1.271,4.332,1.936.488.125,1,.246,1.531.358a31.532,31.532,0,0,0,3.476.547c1.631.153,2.741.068,2.814-.279,0,0,9.839-30.318,13.962-56.945l-.183,55.887c-.021.4,1.316.817,3.29,1.1.853.121,1.823.216,2.856.271.768.041,1.5.056,2.184.05,2.355-.021,4.048-.307,4.073-.75,0,0,8.1-50.254,3.8-78.123a18.621,18.621,0,0,1-13.679,6.44" transform="translate(-64.68 -636.643)" fill="#597ebe"/>
        <path id="Path_1282738" data-name="Path 1282738" d="M164.168,783.643a56.356,56.356,0,0,1-13.051-1.3,19.939,19.939,0,0,0,15.084,5.65,18.622,18.622,0,0,0,13.679-6.44c.1-.114.2-.231.282-.335-2.255,1.411-8.556,2.429-15.994,2.429" transform="translate(-122.869 -635.184)" fill="#cddce6"/>
        <path id="Path_1282739" data-name="Path 1282739" d="M226.229,465.512a4.944,4.944,0,0,1-.12,1.218,1.652,1.652,0,1,0,.548,2.762,4.374,4.374,0,0,0,1.536,1.942l.064.06a5.4,5.4,0,0,1,.846.95,2.7,2.7,0,0,0-.038-.608l-.415-2.335.3-.1a.384.384,0,0,0,.193-.587l-.821-1.161-.628-3.535c-.47.127-1.011.259-1.6.381a4.968,4.968,0,0,1,.135,1.012m-.612,3.844a1.079,1.079,0,0,1-1.07-1.078v-.009a1.009,1.009,0,0,1,.021-.1.111.111,0,0,1,.022-.105,1.064,1.064,0,0,1,1.036-.866h.016a.119.119,0,0,1-.016.238.838.838,0,0,0-.775.52,1.937,1.937,0,0,1,.437-.052,1.439,1.439,0,0,1,1.233.644.119.119,0,1,1-.2.135,1.2,1.2,0,0,0-1.036-.541,1.648,1.648,0,0,0-.492.076c0,.018-.011.034-.011.052v.006a.84.84,0,0,0,.833.839.119.119,0,0,1,0,.238" transform="translate(-182.035 -377.362)" fill="#f6ae98"/>
        <path id="Path_1282740" data-name="Path 1282740" d="M238.593,547.1a3.174,3.174,0,0,0-1.176,1.154c.456.031.9.069,1.344.112l-.151-1.285c-.008.005-.015.012-.024.016Z" transform="translate(-193.037 -444.815)" fill="#cddce6"/>
        <path id="Path_1282741" data-name="Path 1282741" d="M402.864,571.356c0,.106,0,.216,0,.323,0-.107,0-.217,0-.323" transform="translate(-327.555 -464.554)" fill="#e65e71"/>
        <path id="Path_1282742" data-name="Path 1282742" d="M435.555,554.972c-.012-.077-.023-.15-.033-.211.01.063.021.132.033.211" transform="translate(-354.111 -451.061)" fill="#e65e71"/>
        <path id="Path_1282743" data-name="Path 1282743" d="M402.754,563.009c0-.1,0-.2,0-.295,0,.1,0,.2,0,.295" transform="translate(-327.465 -457.527)" fill="#e65e71"/>
        <path id="Path_1282744" data-name="Path 1282744" d="M402.721,580.671c0-.129.009-.26.012-.388,0,.128-.009.259-.012.388" transform="translate(-327.442 -471.812)" fill="#e65e71"/>
        <path id="Path_1282745" data-name="Path 1282745" d="M181.4,560.126c0-.011,0-.021,0-.032-.167,4.03-.6,8.226-1.074,11.585A55.834,55.834,0,0,1,169.5,564.54s0,0,0,.005a.12.12,0,0,1-.168.017,32.341,32.341,0,0,1-4.3-4.611.119.119,0,0,1,.023-.167s.011,0,.016,0c-.176-.243-.359-.481-.524-.729l-.006,0a6.243,6.243,0,0,0-2.409-2.365c-.055-.056-.127-.11-.188-.165,0-.14,0-.283,0-.422,0,.139,0,.282,0,.422-1.6-1.45-5.347-2.6-10.062-3.058-.441-.043-.888-.081-1.344-.112a2.4,2.4,0,0,0-.258,1.7h-.006c.009.053.022.1.03.156a5.156,5.156,0,0,1-4.742,5.715,5.781,5.781,0,0,1-2.455-.271v.006s-.657-.264-1.662.527c-.111.107-.228.21-.35.308l-.065.061,0-.007a5.66,5.66,0,0,1-8.923-2.974,4.83,4.83,0,0,1-.054-1.759l-.006,0a1.01,1.01,0,0,0-.042-.545,1.616,1.616,0,0,0-.485,1.062s-.958,7.987-.958,37.47c0,.677.907,1.308,2.455,1.847.42.146.874.288,1.387.42a56.353,56.353,0,0,0,13.051,1.3c7.438,0,13.739-1.017,15.994-2.429.573-.359.9-.742.9-1.142,0,0,.114-4.933-.062-12.39a4.855,4.855,0,0,0,5.159-4.15,45.323,45.323,0,0,0,14.19,4.78l0-.036a4.86,4.86,0,0,0,5.356-4.275c1.012-8.594-.937-22-1.386-24.9.172,1.108.559,3.732.918,7.028-2.379-.211-4.754-.463-7.127-.74m-11.817,18.05a.119.119,0,0,1-.159.056,48.937,48.937,0,0,1-5.44-3.072l.257,7.271a.119.119,0,1,1-.238.008l-.265-7.508a.119.119,0,0,1,.063-.109l.126.008a43.014,43.014,0,0,0,5.025,2.9c.36.181.577.285.577.285h0a.119.119,0,0,1,.056.159" transform="translate(-106.161 -449.916)" fill="#7a4806"/>
        <path id="Path_1282746" data-name="Path 1282746" d="M408.475,522.57c9.473-7.7-1.671-.807-1.671-.807s4.135-2.8,3.52-2.929c-.962-.2-3.645,1.316-6.039,2.846a3.909,3.909,0,0,0-1.848,3.8l-.058,0c.031.5.054,1.012.069,1.537,0,.1,0,.2,0,.295.01.434.018.872.019,1.321,0,.106,0,.216,0,.323,0,.444,0,.891-.014,1.346,0,.128-.009.259-.012.388-.011.438-.024.876-.042,1.32,0,.011,0,.021,0,.032,2.373.277,4.748.529,7.127.74-.359-3.3-.746-5.92-.918-7.028,0,0,0-.006,0-.01-.012-.079-.023-.148-.033-.211h0c.443-.406.873-.783,1.252-1.084,7.791-6.207-.659-.951-.659-.951,10.543-7.71-.693-.931-.693-.931" transform="translate(-327.164 -421.835)" fill="#f6ae98"/>
        <path id="Path_1282747" data-name="Path 1282747" d="M117.717,451.634l.006,0a4.834,4.834,0,0,0,.054,1.759,5.66,5.66,0,0,0,8.923,2.974l0,.007.065-.061c.121-.1.239-.2.35-.308,1-.792,1.662-.527,1.662-.527v-.006a5.777,5.777,0,0,0,2.455.271,5.156,5.156,0,0,0,4.742-5.715c-.007-.053-.021-.1-.03-.157h.006a2.4,2.4,0,0,1,.258-1.7,3.172,3.172,0,0,1,1.176-1.154l-.007,0L137.4,447a4.9,4.9,0,0,0,1.5-7.182,5.391,5.391,0,0,0-.846-.95l-.064-.06a4.374,4.374,0,0,1-1.536-1.942,1.659,1.659,0,1,1-.548-2.762,4.883,4.883,0,0,0-.015-2.23c.588-.122,1.13-.255,1.6-.381.725-.2,1.268-.371,1.531-.46.011,0,.021,0,.032-.007s.02-.01.03-.014l.12-.042-.005-.011a3.606,3.606,0,1,0-3.151-6.459h0c-1.054.419-2.078,1.8-3.21,2.826a3.208,3.208,0,0,1-1.472.759c-.147-.009-.3-.014-.446-.009a4.96,4.96,0,0,0-4.68,3.831,1.914,1.914,0,0,1-1.837.093v0a5.8,5.8,0,0,0-3.3-.355,5.12,5.12,0,0,0-4.268,6.051c.019.084.046.165.069.248h-.007a2.119,2.119,0,0,1-1.093,2.493l-.081.043-.051.024v0a5,5,0,0,0-2.615,5.469,5.262,5.262,0,0,0,2.878,3.571v0c1.2.524,1.612,1.119,1.747,1.539a1.01,1.01,0,0,1,.042.545" transform="translate(-91.825 -344.733)" fill="#282a40"/>
        <path id="Path_1282748" data-name="Path 1282748" d="M228.493,482.517h0a.84.84,0,0,1-.833-.84v-.006c0-.018.01-.034.011-.052a1.643,1.643,0,0,1,.491-.076,1.2,1.2,0,0,1,1.036.541.119.119,0,1,0,.2-.135,1.439,1.439,0,0,0-1.233-.644,1.933,1.933,0,0,0-.437.052.839.839,0,0,1,.775-.52.119.119,0,0,0,.016-.238H228.5a1.064,1.064,0,0,0-1.036.866.11.11,0,0,0-.022.105.983.983,0,0,0-.021.1v.009a1.079,1.079,0,0,0,1.07,1.078.119.119,0,0,0,0-.238" transform="translate(-184.91 -390.761)" fill="#222530"/>
        <path id="Path_1282749" data-name="Path 1282749" d="M316.377,589.337c-.4-.465-.739-.876-.975-1.172-.142-.177-.242-.305-.3-.385l-.068-.089a.116.116,0,0,0-.151-.027c-.005,0-.012,0-.016,0a.12.12,0,0,0-.023.167h0a32.327,32.327,0,0,0,4.3,4.611.119.119,0,0,0,.168-.017s0,0,0-.005a.118.118,0,0,0-.018-.162c-.03-.025-.06-.054-.09-.079a25.886,25.886,0,0,1-2.822-2.847" transform="translate(-255.97 -477.801)" fill="#222530"/>
        <path id="Path_1282750" data-name="Path 1282750" d="M313.788,671.4s-.217-.1-.577-.285a43.031,43.031,0,0,1-5.025-2.9l-.126-.008a.119.119,0,0,0-.063.109l.265,7.508a.119.119,0,0,0,.238-.008l-.257-7.271a48.9,48.9,0,0,0,5.44,3.072.119.119,0,1,0,.1-.215Z" transform="translate(-250.424 -543.301)" fill="#222530"/>
        <path id="Path_1282751" data-name="Path 1282751" d="M913.787,469.065l0-6.053a2.882,2.882,0,0,0,1.185-2.332l0-1.36a1.626,1.626,0,0,0,.235.022,1.68,1.68,0,0,0-.027-3.359c-.05,0-.1.011-.147.016l.032,1.812a5.037,5.037,0,0,1-10.069-.3c0-.1.015-.19.023-.285h0l.055-1.217a1.656,1.656,0,0,0-.25-.027,1.677,1.677,0,0,0-.1,3.351l-.159.895a2.694,2.694,0,0,0,.917,2.528l-.758,6.442c1.375-.155,2.827-.256,4.335-.287a45.055,45.055,0,0,1,4.733.153" transform="translate(-734.307 -370.748)" fill="#993518"/>
        <path id="Path_1282752" data-name="Path 1282752" d="M960.523,1218.141l.317,3.428a5.769,5.769,0,0,1,1.749-.022,16.627,16.627,0,0,1,1.862,0l.4-3.17a21.236,21.236,0,0,1-4.329-.24" transform="translate(-780.975 -990.437)" fill="#993518"/>
        <path id="Path_1282753" data-name="Path 1282753" d="M960.37,1236.093a5.765,5.765,0,0,0-1.749.022.726.726,0,0,0-.351.292c-.854,1.344-.3,3.85-.3,3.854h0c0,.778,1.8.389,4.993.389s5.781.223,5.781-.556c0-.7-2.074-1.643-4.8-1.835l.007,0c-1.643-.044-1.348-1.018-1.284-1.851.014-.181-.158-.268-.437-.309a16.662,16.662,0,0,0-1.862,0" transform="translate(-778.756 -1004.983)" fill="#2f3686"/>
        <path id="Path_1282754" data-name="Path 1282754" d="M958.756,1199.072l.33,3.565a21.242,21.242,0,0,0,4.329.24h0l.466-3.692c-.575.029-1.183.044-1.815.044a32.825,32.825,0,0,1-3.311-.158" transform="translate(-779.539 -974.933)" fill="#5e1e0e"/>
        <path id="Path_1282755" data-name="Path 1282755" d="M811.07,1219.936c.384-.017.844.06,1.324.057.985-.006,2-.114,2.243.155l.966-3.34a21.265,21.265,0,0,1-4.3-.578Z" transform="translate(-659.459 -988.883)" fill="#993518"/>
        <path id="Path_1282756" data-name="Path 1282756" d="M812.844,1193.342l-.218,3.423.219-3.423Z" transform="translate(-660.724 -970.274)" fill="#f5bbbf"/>
        <path id="Path_1282757" data-name="Path 1282757" d="M812.608,1193.342l-.218,3.423-.055.856a21.28,21.28,0,0,0,4.3.579l1.114-3.851c-.728-.087-1.517-.207-2.34-.362-1.017-.191-1.966-.412-2.8-.644" transform="translate(-660.488 -970.274)" fill="#5e1e0e"/>
        <path id="Path_1282758" data-name="Path 1282758" d="M1009.267,775.739c-.036-.192-.072-.384-.109-.575h0c.037.191.074.382.111.574" transform="translate(-820.518 -630.265)" fill="#2f3686"/>
        <path id="Path_1282759" data-name="Path 1282759" d="M805.9,782.235l1.233-9.05h0l-10.491,76.985c-.075.4,1.233,1.006,3.2,1.554h0c.833.232,1.782.453,2.8.644.823.155,1.612.275,2.34.362,2.3.274,3.968.2,4.05-.229,0,0,8.288-27.58,12.244-53.469l2.672,52.87c0,.377,1.2.707,2.994.893a32.9,32.9,0,0,0,3.311.157c.631,0,1.24-.016,1.815-.045,2.6-.13,4.489-.531,4.489-1.006,0,0,4.282-40.238,1.2-68.915a83.959,83.959,0,0,1-8.571.98,95.455,95.455,0,0,1-23.281-1.731" transform="translate(-647.728 -628.655)" fill="#2f3686"/>
        <path id="Path_1282760" data-name="Path 1282760" d="M862.753,774.82c-6.4,0-12.04-.649-15.322-1.632l-1.233,9.05a95.464,95.464,0,0,0,23.281,1.731,83.934,83.934,0,0,0,8.571-.98c0-.007,0-.014,0-.021q-.093-.867-.2-1.719c0-.016,0-.032-.006-.048q-.1-.836-.211-1.657c-.006-.043-.012-.085-.018-.128q-.1-.778-.218-1.542c-.011-.077-.024-.152-.036-.229-.071-.473-.144-.942-.22-1.4-.019-.116-.04-.23-.059-.346-.07-.418-.142-.835-.216-1.244-.032-.175-.066-.345-.1-.519q-.055-.289-.111-.574a66.5,66.5,0,0,1-13.906,1.262" transform="translate(-688.02 -628.658)" fill="#162461"/>
        <path id="Path_1282761" data-name="Path 1282761" d="M1151.544,426.7c-.358-.527-1.385,4.438-1.385,4.438s2.148-13.126-1.4-1.255c0,0,2.009-13.17-1.142-.29,0,0,1.659-9.964-1.147-.25a68.007,68.007,0,0,1-2.51,6.432,61.257,61.257,0,0,1-7.484,11.637l2.08,9.551a4.949,4.949,0,0,0,4.529-2.071,48.588,48.588,0,0,0,7.324-17.439c.622-2.777,2-9.479,1.139-10.754" transform="translate(-924.035 -344.692)" fill="#993518"/>
        <path id="Path_1282762" data-name="Path 1282762" d="M1128.486,549.177c-.535.028-1.146.062-1.82.094l2.233,9.931c.567-.118,1.132-.239,1.691-.37l-.01-.045-2.08-9.552Z" transform="translate(-916.062 -446.521)" fill="#f17f49"/>
        <path id="Path_1282763" data-name="Path 1282763" d="M815.4,526.821a6.3,6.3,0,0,0-.611-.19l-.077-.024,0,.006-.008,0a27.213,27.213,0,0,0-3.5-.861.116.116,0,0,1-.062.083,19.435,19.435,0,0,1-7.659,2.064h-.18c-2.5,0-5.317-.4-7.314-1.937a.121.121,0,1,1,.148-.192c1.922,1.484,4.689,1.888,7.166,1.887h.178a18.971,18.971,0,0,0,7.387-1.965c-1.057-.182-2.175-.329-3.345-.43a45.142,45.142,0,0,0-4.733-.152c-1.508.031-2.961.132-4.336.287a25.152,25.152,0,0,0-8.837,2.352,6.385,6.385,0,0,0-2.972,2.792l0,0c-.011.025-.023.048-.034.073-.076.146-.144.3-.209.449-4.28,9.5-10.38,14.526-13.966,17.732l4.375,9.8a89.544,89.544,0,0,0,8.747-7.194.121.121,0,0,1-.029-.088l1.186-14.433a.121.121,0,1,1,.241.02l-1.186,14.433a.121.121,0,0,1-.131.111.107.107,0,0,1-.046-.023c-.788,10.426-1.162,18.063-1.162,18.063,0,.736,1.114,1.421,3.022,1.993h0c3.282.983,8.917,1.632,15.322,1.632a66.494,66.494,0,0,0,13.906-1.262h0c2.765-.634,4.44-1.46,4.44-2.363,0-13.151-.409-22.456-.867-28.757a66.357,66.357,0,0,0,20.388-1.047l-2.242-9.972a64.65,64.65,0,0,1-23-2.885" transform="translate(-628.044 -426.945)" fill="#ffb758"/>
        <path id="Path_1282764" data-name="Path 1282764" d="M806.944,1236.1c-.48,0-.94-.074-1.324-.057a.877.877,0,0,0-.776.37c-.854,1.345-.3,3.851-.3,3.854h0c0,.779,1.8.389,4.993.389s5.781.223,5.781-.556c0-.7-2.074-1.643-4.8-1.835l.007,0c-1.643-.044-1.348-1.018-1.284-1.851a.2.2,0,0,0-.057-.158c-.24-.269-1.259-.161-2.243-.155" transform="translate(-654.009 -1004.994)" fill="#2f3686"/>
        <path id="Path_1282765" data-name="Path 1282765" d="M905.565,529.844c-2.477,0-5.245-.4-7.166-1.887a.121.121,0,0,0-.148.192c2,1.537,4.813,1.936,7.314,1.937h.18a19.435,19.435,0,0,0,7.659-2.064.115.115,0,0,0,.062-.083.117.117,0,0,0,0-.078.121.121,0,0,0-.161-.058c-.056.026-.115.051-.171.077a18.972,18.972,0,0,1-7.387,1.964h-.178" transform="translate(-730.305 -429.132)" fill="#222530"/>
        <path id="Path_1282766" data-name="Path 1282766" d="M1125.572,549.028a.121.121,0,1,0-.236.053v0l2.242,9.972v0a.121.121,0,1,0,.236-.053h0l-2.233-9.931Z" transform="translate(-914.978 -446.322)" fill="#222530"/>
        <path id="Path_1282767" data-name="Path 1282767" d="M676.354,589.022a63.277,63.277,0,0,1-9.807-7.168,68.037,68.037,0,0,1-4.732-5.031c-6.232-7.963-.971.66-.971.66-7.733-10.771-.951.7-.951.7-7.729-9.685-.834,1.689-.834,1.689s-2.807-4.222-2.942-3.6c-.326,1.505,3.462,7.212,5.075,9.553a48.594,48.594,0,0,0,13.3,13.439,4.939,4.939,0,0,0,6.35-.846c-.077.055-.155.112-.232.166Z" transform="translate(-533.455 -465.784)" fill="#993518"/>
        <path id="Path_1282768" data-name="Path 1282768" d="M765.766,652.755c-.487.437-.926.843-1.3,1.219l4.26,9.558c.077-.054.155-.111.232-.166q.591-.417,1.182-.845c-.008-.009-.02-.012-.025-.024Z" transform="translate(-621.567 -530.737)" fill="#f17f49"/>
        <path id="Path_1282769" data-name="Path 1282769" d="M771.339,651.338a.121.121,0,0,0-.221.1l.048.108,4.349,9.743c.005.011.017.015.025.023a.116.116,0,0,0,.135.038.122.122,0,0,0,.061-.16l-.006-.014-4.375-9.8Z" transform="translate(-626.966 -529.527)" fill="#222530"/>
        <path id="Path_1282770" data-name="Path 1282770" d="M898.243,409.131c-.008.095-.02.189-.023.285a5.037,5.037,0,0,0,10.069.3l-.032-1.812-.082-4.686c.035-.018.074-.033.109-.052l0,0a2.2,2.2,0,0,0-1.381-4.182l0-.008-.064.027c-.045.015-.089.029-.133.047a3.6,3.6,0,0,1-2.663-.159c-1.528-.715-3.059-1.845-4.31-1.945v0a3.99,3.99,0,0,0-2.524,7.541,3.5,3.5,0,0,0,1.132,2.459l-.044.971-.055,1.217Z" transform="translate(-727.532 -322.649)" fill="#282a40"/>
        <path id="Path_1282771" data-name="Path 1282771" d="M842.72,602.076l1.186-14.433a.121.121,0,1,0-.241-.02l-1.186,14.433a.122.122,0,0,0,.029.089c.009.01.024.012.036.018s.027.022.046.024a.121.121,0,0,0,.131-.111" transform="translate(-684.996 -477.69)" fill="#222530"/>
        <path id="Path_1282772" data-name="Path 1282772" d="M.25,1262.419h361.31a.25.25,0,1,0,0-.5H.25a.25.25,0,1,0,0,.5" transform="translate(0 -1026.031)" fill="#12151d"/>
      </g>
    </g>
    <g id="Group_1214393" data-name="Group 1214393" transform="translate(12 -6)">
      <g id="Group_1214392" data-name="Group 1214392" transform="translate(-4690 -11319)">
        <rect id="Rectangle_467372" data-name="Rectangle 467372" width="327" height="54" rx="19" transform="translate(847 4669)" fill="#19538d"/>
        <path id="Path_1284769" data-name="Path 1284769" d="M116.623,13.771h-4.9L110.8,19H108.23l2.224-12.8h8.1l-.378,2.136h-5.52l-.58,3.3H117Zm7.428-1.9a5.117,5.117,0,0,0-.835-.088,2.4,2.4,0,0,0-2.1.993L120.017,19h-2.479l1.652-9.51,2.329-.009-.229,1.16A2.615,2.615,0,0,1,123.506,9.3a3.615,3.615,0,0,1,.861.123ZM129.282,19a2.566,2.566,0,0,1-.1-.861,3.221,3.221,0,0,1-2.426,1.037,2.919,2.919,0,0,1-2.07-.813,2.46,2.46,0,0,1-.769-1.964,2.843,2.843,0,0,1,1.305-2.386,5.924,5.924,0,0,1,3.335-.831l1.16.018.123-.571a1.984,1.984,0,0,0,.026-.554.952.952,0,0,0-.312-.646,1.075,1.075,0,0,0-.708-.242,1.514,1.514,0,0,0-.984.286,1.384,1.384,0,0,0-.519.875l-2.487.009a2.764,2.764,0,0,1,1.252-2.21,4.851,4.851,0,0,1,2.94-.831,3.507,3.507,0,0,1,2.531.962,2.816,2.816,0,0,1,.765,2.386l-.729,4.553-.044.563a2.714,2.714,0,0,0,.149,1.055l-.009.167Zm-1.907-1.749a2.27,2.27,0,0,0,1.872-.932l.308-1.644-.861-.009a2.406,2.406,0,0,0-1.978.835,1.454,1.454,0,0,0-.272.712.844.844,0,0,0,.2.751A1,1,0,0,0,127.374,17.251Zm9.854-7.77-.2,1.081a3.5,3.5,0,0,1,2.786-1.248,2.676,2.676,0,0,1,1.459.4,1.889,1.889,0,0,1,.782,1.046,3.662,3.662,0,0,1,2.953-1.45,2.391,2.391,0,0,1,1.973.9,3.68,3.68,0,0,1,.558,2.514l-.018.22L146.509,19h-2.487l1.011-6.08a4.4,4.4,0,0,0,.026-.607.942.942,0,0,0-1.055-.95,2.093,2.093,0,0,0-1.749,1.091l-.026.2L141.122,19h-2.479l1.011-6.056a4.386,4.386,0,0,0,.026-.606.94.94,0,0,0-1.046-.958,2.1,2.1,0,0,0-1.7.888L135.751,19h-2.479l1.644-9.51Zm15.813,9.694a4.137,4.137,0,0,1-2.21-.611,3.7,3.7,0,0,1-1.437-1.652,4.605,4.605,0,0,1-.369-2.316l.026-.352a6.148,6.148,0,0,1,.809-2.549,4.884,4.884,0,0,1,1.74-1.789,4.306,4.306,0,0,1,2.355-.593,3.29,3.29,0,0,1,2.782,1.351A4.631,4.631,0,0,1,157.453,14l-.141,1.083h-5.827a2.041,2.041,0,0,0,.448,1.477,1.711,1.711,0,0,0,1.318.571,3.041,3.041,0,0,0,2.373-1.055l1.134,1.406a3.527,3.527,0,0,1-1.547,1.261A5.059,5.059,0,0,1,153.041,19.176Zm.791-7.813a1.761,1.761,0,0,0-1.217.431,3.784,3.784,0,0,0-.954,1.556h3.41l.053-.229a2.33,2.33,0,0,0,.009-.668,1.276,1.276,0,0,0-.431-.8A1.35,1.35,0,0,0,153.832,11.362Zm12.851,4.175,2.259-6.047h2.47l-4,9.51h-2.074l-.7-5.95L161.857,19h-2.074l-.7-9.51h2.32l.149,5.985,2.716-5.985h1.793ZM176.5,9.314a3.814,3.814,0,0,1,2.167.646A3.638,3.638,0,0,1,180,11.692a5.357,5.357,0,0,1,.3,2.448,5.786,5.786,0,0,1-1.578,3.669,4.455,4.455,0,0,1-3.4,1.367,3.8,3.8,0,0,1-2.145-.637,3.624,3.624,0,0,1-1.336-1.718,5.239,5.239,0,0,1-.308-2.426,5.957,5.957,0,0,1,1.6-3.744A4.363,4.363,0,0,1,176.5,9.314ZM174,15.294a2.194,2.194,0,0,0,.4,1.33,1.314,1.314,0,0,0,1.063.5,1.926,1.926,0,0,0,1.793-1.049,5.227,5.227,0,0,0,.606-2.848,2.387,2.387,0,0,0-.409-1.347,1.293,1.293,0,0,0-1.068-.522,1.929,1.929,0,0,0-1.771,1.04A5.173,5.173,0,0,0,174,15.294Zm13.58-3.422a5.117,5.117,0,0,0-.835-.088,2.4,2.4,0,0,0-2.1.993L183.542,19h-2.479l1.652-9.51,2.329-.009-.229,1.16A2.615,2.615,0,0,1,187.031,9.3a3.615,3.615,0,0,1,.861.123Zm4.106,3.34-1.151,1L190.047,19h-2.479l2.338-13.5h2.487l-1.283,7.33.483-.519,2.821-2.821H197.6l-4.157,4.087L196.085,19h-2.716Z" transform="translate(857 4685)" fill="#fff"/>
        <path id="Path_1282655" data-name="Path 1282655" d="M27,0H0V122.273L.155,286.182H27" transform="translate(1150.991 4740.689) rotate(90)" fill="none" stroke="#0f654d" stroke-linecap="round" stroke-linejoin="round" stroke-width="2" stroke-dasharray="2 3"/>
        <path id="Path_1282656" data-name="Path 1282656" d="M0,0H52.689" transform="translate(1000.909 4714.999) rotate(90)" fill="none" stroke="#0f654d" stroke-linecap="round" stroke-linejoin="round" stroke-width="2" stroke-dasharray="2 3"/>
        <rect id="Rectangle_467373" data-name="Rectangle 467373" width="360" height="71" rx="15" transform="translate(830 4768)" fill="#ffcc74"/>
        <rect id="Rectangle_467374" data-name="Rectangle 467374" width="360" height="71" rx="15" transform="translate(830 4845)" fill="#ffcc74"/>
        <rect id="Rectangle_467375" data-name="Rectangle 467375" width="360" height="71" rx="15" transform="translate(830 4922)" fill="#ffcc74"/>
        <rect id="Rectangle_467376" data-name="Rectangle 467376" width="360" height="71" rx="15" transform="translate(830 4999)" fill="#ffcc74"/>
        <path id="Path_1284770" data-name="Path 1284770" d="M8.552,15.651H3.19L1.986,19H.246L5.133,6.2H6.609L11.5,19H9.773ZM3.7,14.271H8.051L5.871,8.286Zm13.914-3.322a4.873,4.873,0,0,0-.8-.062,2.143,2.143,0,0,0-2.171,1.362V19H13.018V9.49H14.6l.026,1.1a2.532,2.532,0,0,1,2.268-1.274,1.661,1.661,0,0,1,.721.123Zm1.144,3.217a5.582,5.582,0,0,1,1.028-3.546,3.332,3.332,0,0,1,2.76-1.305,3.33,3.33,0,0,1,2.663,1.134l.07-.958h1.494V22.656H25.148V18.121a3.412,3.412,0,0,1-2.619,1.055,3.28,3.28,0,0,1-2.747-1.34,5.706,5.706,0,0,1-1.024-3.555Zm1.626.185a4.231,4.231,0,0,0,.69,2.566,2.195,2.195,0,0,0,1.859.932,2.435,2.435,0,0,0,2.215-1.283V11.907a2.442,2.442,0,0,0-2.2-1.257,2.211,2.211,0,0,0-1.872.936A4.606,4.606,0,0,0,20.384,14.351ZM35.3,18.06a3.454,3.454,0,0,1-2.786,1.116,2.956,2.956,0,0,1-2.316-.883,3.823,3.823,0,0,1-.8-2.615V9.49H31.02v6.144q0,2.162,1.758,2.162a2.434,2.434,0,0,0,2.479-1.389V9.49h1.626V19H35.335Zm5.863.94H39.537V9.49h1.626ZM39.406,6.968a.971.971,0,0,1,.242-.668.907.907,0,0,1,.716-.272.922.922,0,0,1,.721.272.96.96,0,0,1,.246.668.929.929,0,0,1-.246.659.938.938,0,0,1-.721.264.924.924,0,0,1-.716-.264A.938.938,0,0,1,39.406,6.968Zm6.61.22v2.3h1.775v1.257H46.016v5.9a1.32,1.32,0,0,0,.237.858,1,1,0,0,0,.809.286,3.937,3.937,0,0,0,.773-.105V19a4.742,4.742,0,0,1-1.248.175,2.025,2.025,0,0,1-1.644-.659,2.832,2.832,0,0,1-.554-1.872v-5.9H42.659V9.49H44.39v-2.3Zm7.665,11.988a4.155,4.155,0,0,1-3.146-1.27,4.714,4.714,0,0,1-1.213-3.4v-.3a5.707,5.707,0,0,1,.541-2.527,4.217,4.217,0,0,1,1.512-1.74,3.8,3.8,0,0,1,2.1-.628,3.562,3.562,0,0,1,2.883,1.222,5.289,5.289,0,0,1,1.028,3.5v.677H50.948a3.38,3.38,0,0,0,.822,2.272,2.583,2.583,0,0,0,2,.866,2.832,2.832,0,0,0,1.459-.352,3.666,3.666,0,0,0,1.046-.932l.993.773A3.993,3.993,0,0,1,53.681,19.176Zm-.2-8.525a2.169,2.169,0,0,0-1.652.716A3.482,3.482,0,0,0,51,13.375h4.764v-.123a3.1,3.1,0,0,0-.668-1.92A2.042,2.042,0,0,0,53.479,10.65Zm9.651,7.2a2.342,2.342,0,0,0,1.521-.527A1.855,1.855,0,0,0,65.372,16H66.91a2.949,2.949,0,0,1-.562,1.556,3.7,3.7,0,0,1-1.384,1.178,3.994,3.994,0,0,1-1.833.439,3.918,3.918,0,0,1-3.089-1.3,5.163,5.163,0,0,1-1.147-3.546v-.272a5.725,5.725,0,0,1,.51-2.47,3.883,3.883,0,0,1,1.463-1.679,4.157,4.157,0,0,1,2.254-.6,3.814,3.814,0,0,1,2.659.958A3.424,3.424,0,0,1,66.91,12.76H65.372a2.241,2.241,0,0,0-.7-1.516,2.174,2.174,0,0,0-1.551-.593,2.276,2.276,0,0,0-1.92.892,4.19,4.19,0,0,0-.681,2.58v.308a4.106,4.106,0,0,0,.677,2.531A2.287,2.287,0,0,0,63.13,17.849ZM70.989,7.188v2.3h1.775v1.257H70.989v5.9a1.32,1.32,0,0,0,.237.858,1,1,0,0,0,.809.286,3.937,3.937,0,0,0,.773-.105V19a4.742,4.742,0,0,1-1.248.175,2.025,2.025,0,0,1-1.644-.659,2.832,2.832,0,0,1-.554-1.872v-5.9H67.631V9.49h1.731v-2.3Zm9.59,10.872a3.454,3.454,0,0,1-2.786,1.116,2.956,2.956,0,0,1-2.316-.883,3.823,3.823,0,0,1-.8-2.615V9.49H76.3v6.144q0,2.162,1.758,2.162a2.434,2.434,0,0,0,2.479-1.389V9.49h1.626V19H80.614Zm8.693-7.11a4.873,4.873,0,0,0-.8-.062A2.143,2.143,0,0,0,86.3,12.25V19H84.676V9.49h1.582l.026,1.1a2.532,2.532,0,0,1,2.268-1.274,1.661,1.661,0,0,1,.721.123ZM96.331,19a3.416,3.416,0,0,1-.229-1A3.628,3.628,0,0,1,93.4,19.176a3.357,3.357,0,0,1-2.307-.8,2.573,2.573,0,0,1-.9-2.017,2.688,2.688,0,0,1,1.129-2.307,5.325,5.325,0,0,1,3.177-.822h1.582v-.747a1.826,1.826,0,0,0-.51-1.358,2.049,2.049,0,0,0-1.5-.505,2.371,2.371,0,0,0-1.459.439,1.3,1.3,0,0,0-.589,1.063H90.381a2.244,2.244,0,0,1,.505-1.375A3.449,3.449,0,0,1,92.257,9.7a4.613,4.613,0,0,1,1.9-.387,3.759,3.759,0,0,1,2.575.822A2.964,2.964,0,0,1,97.7,12.4v4.377a5.351,5.351,0,0,0,.334,2.083V19Zm-2.7-1.239a2.858,2.858,0,0,0,1.45-.4,2.392,2.392,0,0,0,.993-1.028V14.386H94.8q-2.988,0-2.988,1.749a1.48,1.48,0,0,0,.51,1.2A1.959,1.959,0,0,0,93.633,17.761Zm19.215-3.41a5.654,5.654,0,0,1-1,3.5,3.2,3.2,0,0,1-2.689,1.323A3.315,3.315,0,0,1,106.37,17.9l-.079,1.1H104.8V5.5h1.626v5.036a3.3,3.3,0,0,1,2.716-1.222,3.221,3.221,0,0,1,2.72,1.31,5.824,5.824,0,0,1,.989,3.586Zm-1.626-.185a4.394,4.394,0,0,0-.642-2.566,2.124,2.124,0,0,0-1.846-.905,2.387,2.387,0,0,0-2.312,1.494V16.3a2.454,2.454,0,0,0,2.329,1.494,2.112,2.112,0,0,0,1.819-.905A4.672,4.672,0,0,0,111.222,14.166ZM120.812,19a3.416,3.416,0,0,1-.229-1,3.628,3.628,0,0,1-2.707,1.178,3.357,3.357,0,0,1-2.307-.8,2.573,2.573,0,0,1-.9-2.017,2.688,2.688,0,0,1,1.129-2.307,5.325,5.325,0,0,1,3.177-.822h1.582v-.747a1.826,1.826,0,0,0-.51-1.358,2.049,2.049,0,0,0-1.5-.505,2.371,2.371,0,0,0-1.459.439,1.3,1.3,0,0,0-.589,1.063h-1.635a2.244,2.244,0,0,1,.505-1.375,3.449,3.449,0,0,1,1.371-1.05,4.613,4.613,0,0,1,1.9-.387,3.759,3.759,0,0,1,2.575.822,2.964,2.964,0,0,1,.967,2.263v4.377a5.351,5.351,0,0,0,.334,2.083V19Zm-2.7-1.239a2.858,2.858,0,0,0,1.45-.4,2.392,2.392,0,0,0,.993-1.028V14.386h-1.274q-2.988,0-2.988,1.749a1.48,1.48,0,0,0,.51,1.2A1.959,1.959,0,0,0,118.113,17.761Zm12.2-1.283a1.2,1.2,0,0,0-.5-1.024,4.78,4.78,0,0,0-1.731-.628,8.186,8.186,0,0,1-1.96-.633,2.788,2.788,0,0,1-1.072-.879,2.1,2.1,0,0,1-.347-1.213,2.467,2.467,0,0,1,.989-1.978,3.861,3.861,0,0,1,2.527-.809,3.974,3.974,0,0,1,2.624.835,2.652,2.652,0,0,1,1.006,2.136h-1.635a1.468,1.468,0,0,0-.567-1.151,2.124,2.124,0,0,0-1.428-.483,2.223,2.223,0,0,0-1.389.387,1.217,1.217,0,0,0-.5,1.011.986.986,0,0,0,.466.888,5.731,5.731,0,0,0,1.683.571,8.77,8.77,0,0,1,1.973.65,2.878,2.878,0,0,1,1.121.91,2.237,2.237,0,0,1,.365,1.3,2.434,2.434,0,0,1-1.02,2.043,4.277,4.277,0,0,1-2.646.769,4.789,4.789,0,0,1-2.021-.4,3.288,3.288,0,0,1-1.375-1.129,2.722,2.722,0,0,1-.5-1.569h1.626a1.683,1.683,0,0,0,.655,1.3,2.54,2.54,0,0,0,1.613.479,2.622,2.622,0,0,0,1.481-.374A1.148,1.148,0,0,0,130.314,16.478Zm7.735,2.7a4.155,4.155,0,0,1-3.146-1.27,4.714,4.714,0,0,1-1.213-3.4v-.3a5.707,5.707,0,0,1,.541-2.527,4.217,4.217,0,0,1,1.512-1.74,3.8,3.8,0,0,1,2.1-.628,3.562,3.562,0,0,1,2.883,1.222,5.289,5.289,0,0,1,1.028,3.5v.677h-6.442a3.38,3.38,0,0,0,.822,2.272,2.583,2.583,0,0,0,2,.866A2.832,2.832,0,0,0,139.6,17.5a3.666,3.666,0,0,0,1.046-.932l.993.773A3.993,3.993,0,0,1,138.049,19.176Zm-.2-8.525a2.169,2.169,0,0,0-1.652.716,3.482,3.482,0,0,0-.826,2.008h4.764v-.123a3.1,3.1,0,0,0-.668-1.92A2.042,2.042,0,0,0,137.847,10.65Z" transform="translate(954 4794)" fill="#12263f"/>
        <path id="Path_1284771" data-name="Path 1284771" d="M3.182,17.62H9.246V19H1.485V6.2h1.7ZM12.728,19H11.1V9.49h1.626ZM10.97,6.968a.971.971,0,0,1,.242-.668.907.907,0,0,1,.716-.272.922.922,0,0,1,.721.272.96.96,0,0,1,.246.668.929.929,0,0,1-.246.659.938.938,0,0,1-.721.264.924.924,0,0,1-.716-.264A.938.938,0,0,1,10.97,6.968Zm12.455,7.383a5.654,5.654,0,0,1-1,3.5,3.2,3.2,0,0,1-2.689,1.323A3.315,3.315,0,0,1,16.947,17.9L16.868,19H15.374V5.5H17v5.036a3.3,3.3,0,0,1,2.716-1.222,3.221,3.221,0,0,1,2.72,1.31,5.824,5.824,0,0,1,.989,3.586ZM21.8,14.166a4.394,4.394,0,0,0-.642-2.566,2.124,2.124,0,0,0-1.846-.905A2.387,2.387,0,0,0,17,12.188V16.3A2.454,2.454,0,0,0,19.329,17.8a2.112,2.112,0,0,0,1.819-.905A4.672,4.672,0,0,0,21.8,14.166Zm8.316-3.217a4.873,4.873,0,0,0-.8-.062,2.143,2.143,0,0,0-2.171,1.362V19H25.518V9.49H27.1l.026,1.1a2.532,2.532,0,0,1,2.268-1.274,1.661,1.661,0,0,1,.721.123ZM35.6,19.176a4.155,4.155,0,0,1-3.146-1.27,4.714,4.714,0,0,1-1.213-3.4v-.3a5.707,5.707,0,0,1,.541-2.527,4.217,4.217,0,0,1,1.512-1.74,3.8,3.8,0,0,1,2.1-.628,3.562,3.562,0,0,1,2.883,1.222,5.289,5.289,0,0,1,1.028,3.5v.677H32.867a3.38,3.38,0,0,0,.822,2.272,2.583,2.583,0,0,0,2,.866,2.832,2.832,0,0,0,1.459-.352,3.666,3.666,0,0,0,1.046-.932l.993.773A3.993,3.993,0,0,1,35.6,19.176Zm-.2-8.525a2.169,2.169,0,0,0-1.652.716,3.482,3.482,0,0,0-.826,2.008h4.764v-.123a3.1,3.1,0,0,0-.668-1.92A2.042,2.042,0,0,0,35.4,10.65Zm10.434.3a4.873,4.873,0,0,0-.8-.062,2.143,2.143,0,0,0-2.171,1.362V19H41.235V9.49h1.582l.026,1.1a2.532,2.532,0,0,1,2.268-1.274,1.661,1.661,0,0,1,.721.123ZM49.137,19H47.5V9.49h1.635Zm.018-13.491h1.969L48.768,8.093l-1.31,0ZM57.734,19a3.416,3.416,0,0,1-.229-1A3.628,3.628,0,0,1,54.8,19.176a3.357,3.357,0,0,1-2.307-.8,2.573,2.573,0,0,1-.9-2.017,2.688,2.688,0,0,1,1.129-2.307,5.325,5.325,0,0,1,3.177-.822h1.582v-.747a1.826,1.826,0,0,0-.51-1.358,2.049,2.049,0,0,0-1.5-.505,2.371,2.371,0,0,0-1.459.439,1.3,1.3,0,0,0-.589,1.063H51.784a2.244,2.244,0,0,1,.505-1.375A3.449,3.449,0,0,1,53.66,9.7a4.613,4.613,0,0,1,1.9-.387,3.759,3.759,0,0,1,2.575.822,2.964,2.964,0,0,1,.967,2.263v4.377a5.351,5.351,0,0,0,.334,2.083V19Zm-2.7-1.239a2.858,2.858,0,0,0,1.45-.4,2.392,2.392,0,0,0,.993-1.028V14.386H56.2q-2.988,0-2.988,1.749a1.48,1.48,0,0,0,.51,1.2A1.959,1.959,0,0,0,55.036,17.761Zm12.2-1.283a1.2,1.2,0,0,0-.5-1.024,4.78,4.78,0,0,0-1.731-.628,8.186,8.186,0,0,1-1.96-.633,2.788,2.788,0,0,1-1.072-.879,2.1,2.1,0,0,1-.347-1.213,2.467,2.467,0,0,1,.989-1.978,3.861,3.861,0,0,1,2.527-.809,3.974,3.974,0,0,1,2.624.835,2.652,2.652,0,0,1,1.006,2.136H67.139a1.468,1.468,0,0,0-.567-1.151,2.124,2.124,0,0,0-1.428-.483,2.223,2.223,0,0,0-1.389.387,1.217,1.217,0,0,0-.5,1.011.986.986,0,0,0,.466.888,5.731,5.731,0,0,0,1.683.571,8.77,8.77,0,0,1,1.973.65,2.878,2.878,0,0,1,1.121.91,2.237,2.237,0,0,1,.365,1.3,2.434,2.434,0,0,1-1.02,2.043,4.277,4.277,0,0,1-2.646.769,4.789,4.789,0,0,1-2.021-.4A3.288,3.288,0,0,1,61.8,17.642a2.722,2.722,0,0,1-.5-1.569h1.626a1.683,1.683,0,0,0,.655,1.3,2.54,2.54,0,0,0,1.613.479,2.622,2.622,0,0,0,1.481-.374A1.148,1.148,0,0,0,67.236,16.478ZM77.293,19H75.667V9.49h1.626ZM75.535,6.968a.971.971,0,0,1,.242-.668.907.907,0,0,1,.716-.272.922.922,0,0,1,.721.272.96.96,0,0,1,.246.668.929.929,0,0,1-.246.659.938.938,0,0,1-.721.264.924.924,0,0,1-.716-.264A.938.938,0,0,1,75.535,6.968ZM81.477,9.49l.053,1.2a3.465,3.465,0,0,1,2.848-1.371q3.015,0,3.041,3.4V19H85.793V12.707a2.189,2.189,0,0,0-.47-1.521,1.884,1.884,0,0,0-1.437-.492,2.347,2.347,0,0,0-1.389.422,2.865,2.865,0,0,0-.932,1.107V19H79.939V9.49Zm10.645-2.3v2.3H93.9v1.257H92.122v5.9a1.32,1.32,0,0,0,.237.858,1,1,0,0,0,.809.286,3.937,3.937,0,0,0,.773-.105V19a4.742,4.742,0,0,1-1.248.175,2.025,2.025,0,0,1-1.644-.659,2.832,2.832,0,0,1-.554-1.872v-5.9H88.765V9.49H90.5v-2.3Zm7.665,11.988a4.155,4.155,0,0,1-3.146-1.27,4.714,4.714,0,0,1-1.213-3.4v-.3a5.707,5.707,0,0,1,.541-2.527,4.217,4.217,0,0,1,1.512-1.74,3.8,3.8,0,0,1,2.1-.628,3.562,3.562,0,0,1,2.883,1.222,5.289,5.289,0,0,1,1.028,3.5v.677H97.054a3.38,3.38,0,0,0,.822,2.272,2.583,2.583,0,0,0,2,.866,2.832,2.832,0,0,0,1.459-.352,3.666,3.666,0,0,0,1.046-.932l.993.773A3.993,3.993,0,0,1,99.787,19.176Zm-.2-8.525a2.169,2.169,0,0,0-1.652.716,3.482,3.482,0,0,0-.826,2.008h4.764v-.123a3.1,3.1,0,0,0-.668-1.92A2.042,2.042,0,0,0,99.585,10.65Zm5.45,3.516a5.589,5.589,0,0,1,1.028-3.538,3.545,3.545,0,0,1,5.44-.083l.079-1.055h1.485v9.281a3.869,3.869,0,0,1-1.094,2.909,4.038,4.038,0,0,1-2.94,1.063,4.891,4.891,0,0,1-2.013-.439,3.465,3.465,0,0,1-1.5-1.2l.844-.976a3.18,3.18,0,0,0,2.558,1.292,2.491,2.491,0,0,0,1.85-.668,2.553,2.553,0,0,0,.664-1.881v-.817a3.342,3.342,0,0,1-2.663,1.125,3.248,3.248,0,0,1-2.7-1.345A5.876,5.876,0,0,1,105.035,14.166Zm1.635.185a4.264,4.264,0,0,0,.659,2.527,2.142,2.142,0,0,0,1.846.918,2.382,2.382,0,0,0,2.259-1.4V12.057a2.41,2.41,0,0,0-2.241-1.362,2.161,2.161,0,0,0-1.854.923A4.644,4.644,0,0,0,106.67,14.351Zm13.492-3.4a4.873,4.873,0,0,0-.8-.062,2.143,2.143,0,0,0-2.171,1.362V19h-1.626V9.49h1.582l.026,1.1a2.532,2.532,0,0,1,2.268-1.274,1.661,1.661,0,0,1,.721.123ZM127.221,19a3.416,3.416,0,0,1-.229-1,3.628,3.628,0,0,1-2.707,1.178,3.357,3.357,0,0,1-2.307-.8,2.573,2.573,0,0,1-.9-2.017,2.688,2.688,0,0,1,1.129-2.307,5.325,5.325,0,0,1,3.177-.822h1.582v-.747a1.826,1.826,0,0,0-.51-1.358,2.049,2.049,0,0,0-1.5-.505,2.371,2.371,0,0,0-1.459.439,1.3,1.3,0,0,0-.589,1.063h-1.635a2.244,2.244,0,0,1,.505-1.375,3.449,3.449,0,0,1,1.371-1.05,4.613,4.613,0,0,1,1.9-.387,3.759,3.759,0,0,1,2.575.822,2.964,2.964,0,0,1,.967,2.263v4.377a5.351,5.351,0,0,0,.334,2.083V19Zm-2.7-1.239a2.858,2.858,0,0,0,1.45-.4,2.392,2.392,0,0,0,.993-1.028V14.386h-1.274q-2.988,0-2.988,1.749a1.48,1.48,0,0,0,.51,1.2A1.959,1.959,0,0,0,124.523,17.761Zm6.268-3.595a5.571,5.571,0,0,1,1.037-3.52,3.529,3.529,0,0,1,5.361-.189V5.5h1.626V19h-1.494l-.079-1.02a3.311,3.311,0,0,1-2.716,1.2,3.248,3.248,0,0,1-2.694-1.354,5.634,5.634,0,0,1-1.042-3.533Zm1.626.185a4.218,4.218,0,0,0,.668,2.531,2.159,2.159,0,0,0,1.846.914,2.372,2.372,0,0,0,2.259-1.389V12.039a2.39,2.39,0,0,0-2.241-1.345,2.17,2.17,0,0,0-1.863.923A4.644,4.644,0,0,0,132.416,14.351ZM147.253,19a3.416,3.416,0,0,1-.229-1,3.628,3.628,0,0,1-2.707,1.178,3.357,3.357,0,0,1-2.307-.8,2.573,2.573,0,0,1-.9-2.017,2.688,2.688,0,0,1,1.129-2.307,5.325,5.325,0,0,1,3.177-.822H147v-.747a1.826,1.826,0,0,0-.51-1.358,2.049,2.049,0,0,0-1.5-.505,2.371,2.371,0,0,0-1.459.439,1.3,1.3,0,0,0-.589,1.063H141.3a2.244,2.244,0,0,1,.505-1.375A3.449,3.449,0,0,1,143.18,9.7a4.613,4.613,0,0,1,1.9-.387,3.759,3.759,0,0,1,2.575.822,2.964,2.964,0,0,1,.967,2.263v4.377a5.351,5.351,0,0,0,.334,2.083V19Zm-2.7-1.239a2.858,2.858,0,0,0,1.45-.4A2.392,2.392,0,0,0,147,16.337V14.386h-1.274q-2.988,0-2.988,1.749a1.48,1.48,0,0,0,.51,1.2A1.959,1.959,0,0,0,144.555,17.761Zm12.2-1.283a1.2,1.2,0,0,0-.5-1.024,4.78,4.78,0,0,0-1.731-.628,8.186,8.186,0,0,1-1.96-.633,2.788,2.788,0,0,1-1.072-.879,2.1,2.1,0,0,1-.347-1.213,2.467,2.467,0,0,1,.989-1.978,3.861,3.861,0,0,1,2.527-.809,3.974,3.974,0,0,1,2.624.835,2.652,2.652,0,0,1,1.006,2.136h-1.635a1.468,1.468,0,0,0-.567-1.151,2.124,2.124,0,0,0-1.428-.483,2.223,2.223,0,0,0-1.389.387,1.217,1.217,0,0,0-.5,1.011.986.986,0,0,0,.466.888,5.731,5.731,0,0,0,1.683.571,8.77,8.77,0,0,1,1.973.65,2.878,2.878,0,0,1,1.121.91,2.237,2.237,0,0,1,.365,1.3,2.434,2.434,0,0,1-1.02,2.043,4.277,4.277,0,0,1-2.646.769,4.789,4.789,0,0,1-2.021-.4,3.288,3.288,0,0,1-1.375-1.129,2.722,2.722,0,0,1-.5-1.569h1.626a1.683,1.683,0,0,0,.655,1.3,2.54,2.54,0,0,0,1.613.479,2.622,2.622,0,0,0,1.481-.374A1.148,1.148,0,0,0,156.755,16.478Z" transform="translate(954 4871)" fill="#12263f"/>
        <path id="Path_1284772" data-name="Path 1284772" d="M10.9,14.939a4.708,4.708,0,0,1-1.5,3.133,4.911,4.911,0,0,1-3.353,1.1A4.509,4.509,0,0,1,2.413,17.55,6.542,6.542,0,0,1,1.046,13.2v-1.23a7.291,7.291,0,0,1,.637-3.138A4.76,4.76,0,0,1,3.489,6.752,5.029,5.029,0,0,1,6.2,6.027a4.624,4.624,0,0,1,3.27,1.138A4.765,4.765,0,0,1,10.9,10.316H9.2a3.677,3.677,0,0,0-.954-2.222A2.885,2.885,0,0,0,6.2,7.407,3.019,3.019,0,0,0,3.661,8.6a5.492,5.492,0,0,0-.918,3.4v1.24a5.645,5.645,0,0,0,.87,3.316A2.812,2.812,0,0,0,6.047,17.8,3.247,3.247,0,0,0,8.2,17.159a3.536,3.536,0,0,0,1-2.219Zm1.662-.782a5.617,5.617,0,0,1,.549-2.514,4.1,4.1,0,0,1,1.529-1.723,4.163,4.163,0,0,1,2.237-.606,4.01,4.01,0,0,1,3.142,1.345,5.174,5.174,0,0,1,1.2,3.577v.114a5.666,5.666,0,0,1-.532,2.492,4.038,4.038,0,0,1-1.521,1.718,4.211,4.211,0,0,1-2.272.615,4,4,0,0,1-3.133-1.345,5.147,5.147,0,0,1-1.2-3.56Zm1.635.193a4.068,4.068,0,0,0,.734,2.54,2.487,2.487,0,0,0,3.933-.013,4.449,4.449,0,0,0,.729-2.72,4.061,4.061,0,0,0-.743-2.536,2.361,2.361,0,0,0-1.973-.971,2.335,2.335,0,0,0-1.942.958A4.416,4.416,0,0,0,14.2,14.351ZM24.84,9.49l.053,1.2A3.465,3.465,0,0,1,27.74,9.314q3.015,0,3.041,3.4V19H29.155V12.707a2.189,2.189,0,0,0-.47-1.521,1.884,1.884,0,0,0-1.437-.492,2.347,2.347,0,0,0-1.389.422,2.865,2.865,0,0,0-.932,1.107V19H23.3V9.49ZM33.823,19V10.747h-1.5V9.49h1.5V8.682a3.3,3.3,0,0,1,.91-2.479A3.528,3.528,0,0,1,37.3,5.315a7.741,7.741,0,0,1,2.487.536l-.272,1.371a5.634,5.634,0,0,0-2.092-.439,2.047,2.047,0,0,0-1.507.47,1.938,1.938,0,0,0-.461,1.411V9.49H37.4v1.257H35.458V19ZM40.6,19H38.965V9.49H40.6Zm2.3-4.834a5.589,5.589,0,0,1,1.028-3.538,3.545,3.545,0,0,1,5.44-.083l.079-1.055h1.485v9.281a3.869,3.869,0,0,1-1.094,2.909,4.038,4.038,0,0,1-2.94,1.063A4.891,4.891,0,0,1,44.89,22.3a3.465,3.465,0,0,1-1.5-1.2l.844-.976a3.18,3.18,0,0,0,2.558,1.292,2.491,2.491,0,0,0,1.85-.668,2.553,2.553,0,0,0,.664-1.881v-.817a3.342,3.342,0,0,1-2.663,1.125,3.248,3.248,0,0,1-2.7-1.345A5.876,5.876,0,0,1,42.9,14.166Zm1.635.185a4.264,4.264,0,0,0,.659,2.527,2.142,2.142,0,0,0,1.846.918A2.382,2.382,0,0,0,49.3,16.4V12.057a2.41,2.41,0,0,0-2.241-1.362,2.161,2.161,0,0,0-1.854.923A4.644,4.644,0,0,0,44.538,14.351ZM59.305,18.06a3.454,3.454,0,0,1-2.786,1.116,2.956,2.956,0,0,1-2.316-.883,3.823,3.823,0,0,1-.8-2.615V9.49h1.626v6.144q0,2.162,1.758,2.162a2.434,2.434,0,0,0,2.479-1.389V9.49h1.626V19H59.34ZM68,10.949a4.873,4.873,0,0,0-.8-.062,2.143,2.143,0,0,0-2.171,1.362V19H63.4V9.49h1.582l.026,1.1a2.532,2.532,0,0,1,2.268-1.274A1.661,1.661,0,0,1,68,9.438ZM75.057,19a3.416,3.416,0,0,1-.229-1,3.628,3.628,0,0,1-2.707,1.178,3.357,3.357,0,0,1-2.307-.8,2.573,2.573,0,0,1-.9-2.017,2.688,2.688,0,0,1,1.129-2.307,5.325,5.325,0,0,1,3.177-.822H74.8v-.747a1.826,1.826,0,0,0-.51-1.358,2.049,2.049,0,0,0-1.5-.505,2.371,2.371,0,0,0-1.459.439,1.3,1.3,0,0,0-.589,1.063H69.107a2.244,2.244,0,0,1,.505-1.375A3.449,3.449,0,0,1,70.983,9.7a4.613,4.613,0,0,1,1.9-.387,3.759,3.759,0,0,1,2.575.822,2.964,2.964,0,0,1,.967,2.263v4.377a5.351,5.351,0,0,0,.334,2.083V19Zm-2.7-1.239a2.858,2.858,0,0,0,1.45-.4,2.392,2.392,0,0,0,.993-1.028V14.386H73.528q-2.988,0-2.988,1.749a1.48,1.48,0,0,0,.51,1.2A1.959,1.959,0,0,0,72.359,17.761Zm10.478.088a2.342,2.342,0,0,0,1.521-.527A1.855,1.855,0,0,0,85.078,16h1.538a2.949,2.949,0,0,1-.562,1.556,3.7,3.7,0,0,1-1.384,1.178,3.994,3.994,0,0,1-1.833.439,3.918,3.918,0,0,1-3.089-1.3A5.163,5.163,0,0,1,78.6,14.333v-.272a5.725,5.725,0,0,1,.51-2.47,3.883,3.883,0,0,1,1.463-1.679,4.157,4.157,0,0,1,2.254-.6,3.814,3.814,0,0,1,2.659.958,3.424,3.424,0,0,1,1.129,2.487H85.078a2.241,2.241,0,0,0-.7-1.516,2.174,2.174,0,0,0-1.551-.593,2.276,2.276,0,0,0-1.92.892,4.19,4.19,0,0,0-.681,2.58v.308a4.106,4.106,0,0,0,.677,2.531A2.287,2.287,0,0,0,82.837,17.849ZM90.256,19H88.63V9.49h1.626ZM88.5,6.968a.971.971,0,0,1,.242-.668.907.907,0,0,1,.716-.272.922.922,0,0,1,.721.272.96.96,0,0,1,.246.668.929.929,0,0,1-.246.659.938.938,0,0,1-.721.264.924.924,0,0,1-.716-.264A.938.938,0,0,1,88.5,6.968Zm3.974,7.189a5.617,5.617,0,0,1,.549-2.514A4.1,4.1,0,0,1,94.55,9.921a4.163,4.163,0,0,1,2.237-.606,4.01,4.01,0,0,1,3.142,1.345,5.174,5.174,0,0,1,1.2,3.577v.114a5.666,5.666,0,0,1-.532,2.492,4.038,4.038,0,0,1-1.521,1.718,4.211,4.211,0,0,1-2.272.615,4,4,0,0,1-3.133-1.345,5.147,5.147,0,0,1-1.2-3.56Zm1.635.193a4.068,4.068,0,0,0,.734,2.54,2.487,2.487,0,0,0,3.933-.013,4.449,4.449,0,0,0,.729-2.72,4.061,4.061,0,0,0-.743-2.536,2.361,2.361,0,0,0-1.973-.971,2.335,2.335,0,0,0-1.942.958A4.416,4.416,0,0,0,94.106,14.351ZM97.525,5.5h1.969L97.138,8.084l-1.31,0Zm7.226,3.99.053,1.2a3.465,3.465,0,0,1,2.848-1.371q3.015,0,3.041,3.4V19h-1.626V12.707a2.189,2.189,0,0,0-.47-1.521,1.884,1.884,0,0,0-1.437-.492,2.347,2.347,0,0,0-1.389.422,2.865,2.865,0,0,0-.932,1.107V19h-1.626V9.49Z" transform="translate(954 4948)" fill="#12263f"/>
        <path id="Path_1284773" data-name="Path 1284773" d="M10.9,14.939a4.708,4.708,0,0,1-1.5,3.133,4.911,4.911,0,0,1-3.353,1.1A4.509,4.509,0,0,1,2.413,17.55,6.542,6.542,0,0,1,1.046,13.2v-1.23a7.291,7.291,0,0,1,.637-3.138A4.76,4.76,0,0,1,3.489,6.752,5.029,5.029,0,0,1,6.2,6.027a4.624,4.624,0,0,1,3.27,1.138A4.765,4.765,0,0,1,10.9,10.316H9.2a3.677,3.677,0,0,0-.954-2.222A2.885,2.885,0,0,0,6.2,7.407,3.019,3.019,0,0,0,3.661,8.6a5.492,5.492,0,0,0-.918,3.4v1.24a5.645,5.645,0,0,0,.87,3.316A2.812,2.812,0,0,0,6.047,17.8,3.247,3.247,0,0,0,8.2,17.159a3.536,3.536,0,0,0,1-2.219Zm1.662-.782a5.617,5.617,0,0,1,.549-2.514,4.1,4.1,0,0,1,1.529-1.723,4.163,4.163,0,0,1,2.237-.606,4.01,4.01,0,0,1,3.142,1.345,5.174,5.174,0,0,1,1.2,3.577v.114a5.666,5.666,0,0,1-.532,2.492,4.038,4.038,0,0,1-1.521,1.718,4.211,4.211,0,0,1-2.272.615,4,4,0,0,1-3.133-1.345,5.147,5.147,0,0,1-1.2-3.56Zm1.635.193a4.068,4.068,0,0,0,.734,2.54,2.487,2.487,0,0,0,3.933-.013,4.449,4.449,0,0,0,.729-2.72,4.061,4.061,0,0,0-.743-2.536,2.361,2.361,0,0,0-1.973-.971,2.335,2.335,0,0,0-1.942.958A4.416,4.416,0,0,0,14.2,14.351ZM17.614,5.5h1.969L17.228,8.084l-1.31,0Zm5.292,8.666a5.571,5.571,0,0,1,1.037-3.52,3.529,3.529,0,0,1,5.361-.189V5.5h1.626V19H29.437l-.079-1.02a3.311,3.311,0,0,1-2.716,1.2,3.248,3.248,0,0,1-2.694-1.354,5.634,5.634,0,0,1-1.042-3.533Zm1.626.185a4.218,4.218,0,0,0,.668,2.531,2.159,2.159,0,0,0,1.846.914A2.372,2.372,0,0,0,29.3,16.407V12.039a2.39,2.39,0,0,0-2.241-1.345,2.17,2.17,0,0,0-1.863.923A4.644,4.644,0,0,0,24.532,14.351ZM35.265,19H33.639V9.49h1.626ZM33.507,6.968a.971.971,0,0,1,.242-.668.907.907,0,0,1,.716-.272.922.922,0,0,1,.721.272.96.96,0,0,1,.246.668.929.929,0,0,1-.246.659.938.938,0,0,1-.721.264.924.924,0,0,1-.716-.264A.938.938,0,0,1,33.507,6.968Zm4.018,7.2a5.589,5.589,0,0,1,1.028-3.538,3.545,3.545,0,0,1,5.44-.083l.079-1.055h1.485v9.281a3.869,3.869,0,0,1-1.094,2.909,4.038,4.038,0,0,1-2.94,1.063,4.891,4.891,0,0,1-2.013-.439,3.465,3.465,0,0,1-1.5-1.2l.844-.976a3.18,3.18,0,0,0,2.558,1.292,2.491,2.491,0,0,0,1.85-.668,2.553,2.553,0,0,0,.664-1.881v-.817a3.342,3.342,0,0,1-2.663,1.125,3.248,3.248,0,0,1-2.7-1.345A5.876,5.876,0,0,1,37.525,14.166Zm1.635.185a4.264,4.264,0,0,0,.659,2.527,2.142,2.142,0,0,0,1.846.918,2.382,2.382,0,0,0,2.259-1.4V12.057a2.41,2.41,0,0,0-2.241-1.362,2.161,2.161,0,0,0-1.854.923A4.644,4.644,0,0,0,39.159,14.351Zm8.465-.193a5.617,5.617,0,0,1,.549-2.514A4.1,4.1,0,0,1,49.7,9.921a4.163,4.163,0,0,1,2.237-.606,4.01,4.01,0,0,1,3.142,1.345,5.174,5.174,0,0,1,1.2,3.577v.114a5.666,5.666,0,0,1-.532,2.492,4.038,4.038,0,0,1-1.521,1.718,4.211,4.211,0,0,1-2.272.615,4,4,0,0,1-3.133-1.345,5.147,5.147,0,0,1-1.2-3.56Zm1.635.193a4.068,4.068,0,0,0,.734,2.54,2.487,2.487,0,0,0,3.933-.013,4.449,4.449,0,0,0,.729-2.72,4.061,4.061,0,0,0-.743-2.536,2.361,2.361,0,0,0-1.973-.971A2.335,2.335,0,0,0,50,11.608,4.416,4.416,0,0,0,49.259,14.351Zm13.212-.185a5.571,5.571,0,0,1,1.037-3.52,3.529,3.529,0,0,1,5.361-.189V5.5H70.5V19H69l-.079-1.02a3.311,3.311,0,0,1-2.716,1.2,3.248,3.248,0,0,1-2.694-1.354,5.634,5.634,0,0,1-1.042-3.533Zm1.626.185a4.218,4.218,0,0,0,.668,2.531,2.159,2.159,0,0,0,1.846.914,2.372,2.372,0,0,0,2.259-1.389V12.039a2.39,2.39,0,0,0-2.241-1.345,2.17,2.17,0,0,0-1.863.923A4.644,4.644,0,0,0,64.1,14.351Zm12.912,4.825a4.155,4.155,0,0,1-3.146-1.27,4.714,4.714,0,0,1-1.213-3.4v-.3a5.707,5.707,0,0,1,.541-2.527A4.217,4.217,0,0,1,74.7,9.943a3.8,3.8,0,0,1,2.1-.628,3.562,3.562,0,0,1,2.883,1.222,5.289,5.289,0,0,1,1.028,3.5v.677H74.276a3.38,3.38,0,0,0,.822,2.272,2.583,2.583,0,0,0,2,.866,2.832,2.832,0,0,0,1.459-.352,3.666,3.666,0,0,0,1.046-.932l.993.773A3.993,3.993,0,0,1,77.009,19.176Zm-.2-8.525a2.169,2.169,0,0,0-1.652.716,3.482,3.482,0,0,0-.826,2.008h4.764v-.123a3.1,3.1,0,0,0-.668-1.92A2.042,2.042,0,0,0,76.807,10.65Zm7.6,8.35H82.785V5.5h1.626Zm6.752-4.834a5.571,5.571,0,0,1,1.037-3.52,3.529,3.529,0,0,1,5.361-.189V5.5h1.626V19H97.693l-.079-1.02a3.311,3.311,0,0,1-2.716,1.2A3.248,3.248,0,0,1,92.2,17.822a5.634,5.634,0,0,1-1.042-3.533Zm1.626.185a4.218,4.218,0,0,0,.668,2.531A2.159,2.159,0,0,0,95.3,17.8a2.372,2.372,0,0,0,2.259-1.389V12.039a2.39,2.39,0,0,0-2.241-1.345,2.17,2.17,0,0,0-1.863.923A4.644,4.644,0,0,0,92.789,14.351ZM105.7,19.176a4.155,4.155,0,0,1-3.146-1.27,4.714,4.714,0,0,1-1.213-3.4v-.3a5.707,5.707,0,0,1,.541-2.527,4.217,4.217,0,0,1,1.512-1.74,3.8,3.8,0,0,1,2.1-.628,3.562,3.562,0,0,1,2.883,1.222,5.289,5.289,0,0,1,1.028,3.5v.677h-6.442a3.38,3.38,0,0,0,.822,2.272,2.583,2.583,0,0,0,2,.866,2.832,2.832,0,0,0,1.459-.352,3.666,3.666,0,0,0,1.046-.932l.993.773A3.993,3.993,0,0,1,105.7,19.176Zm-.2-8.525a2.169,2.169,0,0,0-1.652.716,3.482,3.482,0,0,0-.826,2.008h4.764v-.123a3.1,3.1,0,0,0-.668-1.92A2.042,2.042,0,0,0,105.5,10.65Zm11.374,5.827a1.2,1.2,0,0,0-.5-1.024,4.78,4.78,0,0,0-1.731-.628,8.186,8.186,0,0,1-1.96-.633,2.788,2.788,0,0,1-1.072-.879,2.1,2.1,0,0,1-.347-1.213,2.467,2.467,0,0,1,.989-1.978,3.861,3.861,0,0,1,2.527-.809,3.974,3.974,0,0,1,2.624.835,2.652,2.652,0,0,1,1.006,2.136h-1.635a1.468,1.468,0,0,0-.567-1.151,2.124,2.124,0,0,0-1.428-.483,2.223,2.223,0,0,0-1.389.387,1.217,1.217,0,0,0-.5,1.011.986.986,0,0,0,.466.888,5.731,5.731,0,0,0,1.683.571,8.77,8.77,0,0,1,1.973.65,2.878,2.878,0,0,1,1.121.91,2.237,2.237,0,0,1,.365,1.3,2.434,2.434,0,0,1-1.02,2.043,4.277,4.277,0,0,1-2.646.769,4.789,4.789,0,0,1-2.021-.4,3.288,3.288,0,0,1-1.375-1.129,2.722,2.722,0,0,1-.5-1.569h1.626a1.683,1.683,0,0,0,.655,1.3,2.54,2.54,0,0,0,1.613.479,2.622,2.622,0,0,0,1.481-.374A1.148,1.148,0,0,0,116.873,16.478ZM126.533,19a3.416,3.416,0,0,1-.229-1,3.628,3.628,0,0,1-2.707,1.178,3.357,3.357,0,0,1-2.307-.8,2.573,2.573,0,0,1-.9-2.017,2.688,2.688,0,0,1,1.129-2.307,5.325,5.325,0,0,1,3.177-.822h1.582v-.747a1.826,1.826,0,0,0-.51-1.358,2.049,2.049,0,0,0-1.5-.505,2.371,2.371,0,0,0-1.459.439,1.3,1.3,0,0,0-.589,1.063h-1.635a2.244,2.244,0,0,1,.505-1.375A3.449,3.449,0,0,1,122.46,9.7a4.613,4.613,0,0,1,1.9-.387,3.759,3.759,0,0,1,2.575.822A2.964,2.964,0,0,1,127.9,12.4v4.377a5.351,5.351,0,0,0,.334,2.083V19Zm-2.7-1.239a2.858,2.858,0,0,0,1.45-.4,2.392,2.392,0,0,0,.993-1.028V14.386H125q-2.988,0-2.988,1.749a1.48,1.48,0,0,0,.51,1.2A1.959,1.959,0,0,0,123.835,17.761Zm11.26-6.812a4.873,4.873,0,0,0-.8-.062,2.143,2.143,0,0,0-2.171,1.362V19H130.5V9.49h1.582l.026,1.1a2.532,2.532,0,0,1,2.268-1.274,1.661,1.661,0,0,1,.721.123Zm6.136,0a4.873,4.873,0,0,0-.8-.062,2.143,2.143,0,0,0-2.171,1.362V19h-1.626V9.49h1.582l.026,1.1a2.532,2.532,0,0,1,2.268-1.274,1.661,1.661,0,0,1,.721.123Zm.933,3.208a5.617,5.617,0,0,1,.549-2.514,4.1,4.1,0,0,1,1.529-1.723,4.163,4.163,0,0,1,2.237-.606,4.01,4.01,0,0,1,3.142,1.345,5.174,5.174,0,0,1,1.2,3.577v.114a5.666,5.666,0,0,1-.532,2.492,4.038,4.038,0,0,1-1.521,1.718,4.211,4.211,0,0,1-2.272.615,4,4,0,0,1-3.133-1.345,5.147,5.147,0,0,1-1.2-3.56Zm1.635.193a4.068,4.068,0,0,0,.734,2.54,2.487,2.487,0,0,0,3.933-.013,4.449,4.449,0,0,0,.729-2.72,4.061,4.061,0,0,0-.743-2.536,2.361,2.361,0,0,0-1.973-.971,2.335,2.335,0,0,0-1.942.958A4.416,4.416,0,0,0,143.8,14.351ZM154.671,19h-1.626V5.5h1.626Zm4.413,0h-1.626V5.5h1.626Zm8.518,0a3.416,3.416,0,0,1-.229-1,3.628,3.628,0,0,1-2.707,1.178,3.357,3.357,0,0,1-2.307-.8,2.573,2.573,0,0,1-.9-2.017,2.688,2.688,0,0,1,1.129-2.307,5.325,5.325,0,0,1,3.177-.822h1.582v-.747a1.826,1.826,0,0,0-.51-1.358,2.049,2.049,0,0,0-1.5-.505,2.371,2.371,0,0,0-1.459.439,1.3,1.3,0,0,0-.589,1.063h-1.635a2.244,2.244,0,0,1,.505-1.375,3.449,3.449,0,0,1,1.371-1.05,4.613,4.613,0,0,1,1.9-.387,3.759,3.759,0,0,1,2.575.822,2.964,2.964,0,0,1,.967,2.263v4.377a5.351,5.351,0,0,0,.334,2.083V19Zm-2.7-1.239a2.858,2.858,0,0,0,1.45-.4,2.392,2.392,0,0,0,.993-1.028V14.386h-1.274q-2.988,0-2.988,1.749a1.48,1.48,0,0,0,.51,1.2A1.959,1.959,0,0,0,164.9,17.761Zm6.268-3.595a5.571,5.571,0,0,1,1.037-3.52,3.529,3.529,0,0,1,5.361-.189V5.5H179.2V19H177.7l-.079-1.02a3.311,3.311,0,0,1-2.716,1.2,3.248,3.248,0,0,1-2.694-1.354,5.634,5.634,0,0,1-1.042-3.533Zm1.626.185a4.218,4.218,0,0,0,.668,2.531,2.159,2.159,0,0,0,1.846.914,2.372,2.372,0,0,0,2.259-1.389V12.039a2.39,2.39,0,0,0-2.241-1.345,2.17,2.17,0,0,0-1.863.923A4.644,4.644,0,0,0,172.8,14.351Zm8.535-.193a5.617,5.617,0,0,1,.549-2.514,4.1,4.1,0,0,1,1.529-1.723,4.163,4.163,0,0,1,2.237-.606,4.01,4.01,0,0,1,3.142,1.345,5.174,5.174,0,0,1,1.2,3.577v.114a5.666,5.666,0,0,1-.532,2.492,4.038,4.038,0,0,1-1.521,1.718,4.211,4.211,0,0,1-2.272.615,4,4,0,0,1-3.133-1.345,5.147,5.147,0,0,1-1.2-3.56Zm1.635.193a4.068,4.068,0,0,0,.734,2.54,2.487,2.487,0,0,0,3.933-.013,4.449,4.449,0,0,0,.729-2.72,4.061,4.061,0,0,0-.743-2.536,2.361,2.361,0,0,0-1.973-.971,2.335,2.335,0,0,0-1.942.958A4.416,4.416,0,0,0,182.968,14.351Zm13.7-3.4a4.873,4.873,0,0,0-.8-.062A2.143,2.143,0,0,0,193.7,12.25V19h-1.626V9.49h1.582l.026,1.1a2.532,2.532,0,0,1,2.268-1.274,1.661,1.661,0,0,1,.721.123Z" transform="translate(954 5025)" fill="#12263f"/>
        <path id="Union_32" data-name="Union 32" d="M0,17.794H11.7V0H24.3V17.794H36L18,43Z" transform="translate(992 5076)" fill="#19538d"/>
        <g id="Group_1214382" data-name="Group 1214382" transform="translate(888.182 4678)">
          <g id="Group_1214382-2" data-name="Group 1214382" clip-path="url(#clip-path-2)">
            <path id="Path_1282773" data-name="Path 1282773" d="M3.29.034,36.649,0a4.14,4.14,0,0,1,3.6,4.087V32.767a4.17,4.17,0,0,1-3.486,3.962H3.486A4.17,4.17,0,0,1,0,32.767L.005,3.841A4.185,4.185,0,0,1,3.29.034M38.3,8.43V3.714a2.134,2.134,0,0,0-1.658-1.572L3.225,2.227A2.264,2.264,0,0,0,1.948,3.714V8.43Zm0,2.138H1.948V33.014A2.384,2.384,0,0,0,3.2,34.527l33.442.06c.616.065,1.657-.966,1.657-1.572Z" transform="translate(0 0.001)" fill="#f3f9ff"/>
            <path id="Path_1282774" data-name="Path 1282774" d="M722.012,429.13a1.188,1.188,0,0,1-.15,1.7c-2.273,1.2-4.757,3.973-6.985,5.016-1.186.555-1.961-1.049-.883-1.85l5.54-4.09-5.793-4.251c-.728-1.019.2-2.27,1.211-1.646Z" transform="translate(-688.209 -407.326)" fill="#f3f9ff"/>
            <path id="Path_1282775" data-name="Path 1282775" d="M185.915,424a1.312,1.312,0,0,1-.138,1.474l-5.771,4.212,5.83,4.273c.551.692.127,1.876-.736,1.824a10.3,10.3,0,0,1-1.886-1.2,53.6,53.6,0,0,1-5.488-4.023c-.739-.71-.565-1.227.115-1.866,1.889-1.776,4.771-3.13,6.747-4.9a.984.984,0,0,1,1.327.21" transform="translate(-170.969 -407.113)" fill="#f3f9ff"/>
            <path id="Path_1282776" data-name="Path 1282776" d="M466.575,435.451a1.257,1.257,0,0,1-.054-1.307c1.292-3.263,3.784-6.607,5.185-9.889.763-1.383,2.324-.5,1.714,1.006-1.322,3.266-3.8,6.576-5.183,9.891a1.015,1.015,0,0,1-1.662.3" transform="translate(-449.846 -407.062)" fill="#f3f9ff"/>
            <rect id="Rectangle_467389" data-name="Rectangle 467389" width="3.773" height="3.647" transform="translate(26.641 3.401)" fill="#f3f9ff"/>
            <rect id="Rectangle_467390" data-name="Rectangle 467390" width="3.773" height="3.647" transform="translate(32.585 3.401)" fill="#f3f9ff"/>
          </g>
        </g>
        <ellipse id="Ellipse_13736" data-name="Ellipse 13736" cx="31.5" cy="32.5" rx="31.5" ry="32.5" transform="translate(875 4771)" fill="#fff"/>
        <ellipse id="Ellipse_13737" data-name="Ellipse 13737" cx="31.5" cy="32.5" rx="31.5" ry="32.5" transform="translate(875 4850)" fill="#fff"/>
        <ellipse id="Ellipse_13738" data-name="Ellipse 13738" cx="31.5" cy="32.5" rx="31.5" ry="32.5" transform="translate(875 4925)" fill="#fff"/>
        <ellipse id="Ellipse_13739" data-name="Ellipse 13739" cx="31.5" cy="32.5" rx="31.5" ry="32.5" transform="translate(875 5002)" fill="#fff"/>
        <g id="Group_1214384" data-name="Group 1214384" transform="translate(890.016 4780)">
          <g id="Group_1214383" data-name="Group 1214383" transform="translate(0 0)" clip-path="url(#clip-path-3)">
            <path id="Path_1282777" data-name="Path 1282777" d="M3.2,0,24.432,0c3.058,2.757,5.824,5.932,8.721,8.9l.151.646L33.3,43.7a3.972,3.972,0,0,1-3.545,3.419L3.426,47.11A3.969,3.969,0,0,1,0,43.567L0,3.382A4.013,4.013,0,0,1,3.2,0M23.492,1.575H3.167a4.715,4.715,0,0,0-1.1.735,2.964,2.964,0,0,0-.517,1.2L1.615,43.9a2.262,2.262,0,0,0,1.807,1.607h26.46c.626.082,1.868-1.176,1.868-1.677V10.146H24.459c-.242,0-.968-.86-.968-1.138Zm7.1,7.1L25.04,2.78V8.673Z" transform="translate(0 0.004)" fill="#19538d"/>
            <path id="Path_1282778" data-name="Path 1282778" d="M138.7,354.958a.8.8,0,0,1,.924,1.229l-4.748,5.088,4.748,4.991c.358,1.361-.518,1.543-1.47.723a49.866,49.866,0,0,1-4.9-5.09c-.244-.336-.4-.49-.267-.945Z" transform="translate(-128.406 -342.371)" fill="#19538d"/>
            <path id="Path_1282779" data-name="Path 1282779" d="M644.926,355.047a1.027,1.027,0,0,1,.482-.029c.653.118,4.626,4.943,5.558,5.624.477.525.373.831,0,1.345a49.866,49.866,0,0,1-4.9,5.09c-.954.823-1.828.634-1.47-.723l4.748-5.088-4.695-4.913a.829.829,0,0,1,.28-1.306" transform="translate(-622.504 -342.458)" fill="#19538d"/>
            <path id="Path_1282780" data-name="Path 1282780" d="M405.731,309.665c.76-.23,1.14.644.88,1.322l-4.487,13.958c-.685.883-1.719.255-1.359-.876,1.679-4.263,2.625-9.127,4.3-13.35.135-.341.291-.941.667-1.054" transform="translate(-387.05 -298.687)" fill="#19538d"/>
            <path id="Path_1282781" data-name="Path 1282781" d="M289.049,1156.086l9.583.042a.82.82,0,0,1-.446,1.54c-2.753.329-6.092-.253-8.909,0a.8.8,0,0,1-.228-1.581" transform="translate(-278.627 -1115.237)" fill="#19538d"/>
            <path id="Path_1282782" data-name="Path 1282782" d="M298.912,930.179c-.142.148-.474.154-.674.171-2.893.253-6.116-.2-9.045,0-.4.012-.634-.365-.694-.743a1,1,0,0,1,.956-.874c2.773.253,6.073-.328,8.781,0a.882.882,0,0,1,.676,1.445" transform="translate(-278.677 -895.819)" fill="#19538d"/>
            <path id="Path_1282783" data-name="Path 1282783" d="M243.9,818.076a1.125,1.125,0,0,1,.671-.174,50.22,50.22,0,0,1,7.363,0,.807.807,0,1,1,0,1.612,48.658,48.658,0,0,1-7.361,0c-.76-.092-1.269-.853-.674-1.442" transform="translate(-235.348 -788.873)" fill="#19538d"/>
            <path id="Path_1282784" data-name="Path 1282784" d="M243.922,1045.472l8.1-.022a.743.743,0,0,1,.269,1.344l-8.264.123a.771.771,0,0,1-.107-1.445" transform="translate(-235.181 -1008.51)" fill="#19538d"/>
            <path id="Path_1282785" data-name="Path 1282785" d="M650.249,929.33a.914.914,0,0,1-.149,1.181c-.559.412-4.943-.051-5.942.121-1-.478-.718-1.485.384-1.6a32.08,32.08,0,0,1,4.906,0,1.85,1.85,0,0,1,.8.306" transform="translate(-621.63 -896.109)" fill="#19538d"/>
            <path id="Path_1282786" data-name="Path 1282786" d="M645.25,1153.113c1.677.133,3.9-.282,5.513-.02a.8.8,0,0,1,0,1.59,34.841,34.841,0,0,1-5.4,0,.8.8,0,0,1-.109-1.57" transform="translate(-622.698 -1112.264)" fill="#19538d"/>
            <path id="Path_1282787" data-name="Path 1282787" d="M557.29,820.2c.49-.146,2.83-.143,3.12.321.96,1.536-2.27,1.394-2.991,1.23a.819.819,0,0,1-.129-1.55" transform="translate(-537.836 -791.133)" fill="#19538d"/>
            <path id="Path_1282788" data-name="Path 1282788" d="M557.433,1045.352H560.4c.549,0,.549,1.473,0,1.473h-2.968c-.368,0-.509-1.287,0-1.473" transform="translate(-538.136 -1008.416)" fill="#19538d"/>
            <path id="Path_1282789" data-name="Path 1282789" d="M712.807,820.028c.5-.15,2.275-.187,2.463.469.44,1.536-2.477,1.288-2.822.785a.863.863,0,0,1,.359-1.254" transform="translate(-688.062 -790.965)" fill="#19538d"/>
            <path id="Path_1282790" data-name="Path 1282790" d="M712.593,1045.352h2.194c.409,0,.663,1.207.129,1.473h-2.323l-.256-.27a1.1,1.1,0,0,1,.256-1.2" transform="translate(-688.005 -1008.416)" fill="#19538d"/>
            <path id="Path_1282791" data-name="Path 1282791" d="M134.788,821.475c-.594.5-2.474.194-1.933-1,.518-1.143,3.242-.1,1.933,1" transform="translate(-128.239 -791.008)" fill="#19538d"/>
            <path id="Path_1282792" data-name="Path 1282792" d="M134.788,1155.032c-.594.5-2.474.194-1.933-1,.518-1.143,3.242-.1,1.933,1" transform="translate(-128.239 -1112.779)" fill="#19538d"/>
            <path id="Path_1282793" data-name="Path 1282793" d="M133.307,931.552c.537-.591,2.332-.347,2.14.67-.144.763-1.264.784-1.827.609a.9.9,0,0,1-.313-1.279" transform="translate(-128.621 -898.331)" fill="#19538d"/>
            <path id="Path_1282794" data-name="Path 1282794" d="M133.336,1043.791c.555-.165,1.71-.157,1.823.6.165,1.11-1.946,1.1-2.236.435a.77.77,0,0,1,.412-1.04" transform="translate(-128.335 -1006.826)" fill="#19538d"/>
          </g>
        </g>
        <g id="Group_1214386" data-name="Group 1214386" transform="translate(888.089 4863)">
          <g id="Group_1214385" data-name="Group 1214385" transform="translate(0 0)" clip-path="url(#clip-path-4)">
            <path id="Path_1282795" data-name="Path 1282795" d="M38.121,0V39.565H0V0ZM10.17,1.329H1.279V5.284H10.17Zm26.674,0H11.44V5.284h25.4ZM2.549,6.6H1.279V38.24H36.844V6.6H8.9v6.172c0,.237-.59.518-.922.358-.581-.28-1.539-1.922-2.254-2.22-.378,0-1.8,2-2.254,2.22-.332.16-.922-.121-.922-.358Zm5.081,0H3.819v4.314c.514-.273,1.393-1.69,1.905-1.69s1.391,1.418,1.905,1.69Z" transform="translate(0 -0.003)" fill="#19538d"/>
            <path id="Path_1282796" data-name="Path 1282796" d="M84.217,433.622H74.055V422.956H84.217Zm-8.891-1.438H76.6v-7.79h-1.27Zm7.621-7.79H77.866v7.79h5.081Z" transform="translate(-71.506 -407.848)" fill="#19538d"/>
            <path id="Path_1282797" data-name="Path 1282797" d="M416.374,433.622H406.212V422.956h10.162Zm-7.621-9.228h-1.27v7.79h1.27Zm6.351,0h-5.081v7.79H415.1Z" transform="translate(-392.232 -407.848)" fill="#19538d"/>
            <path id="Path_1282798" data-name="Path 1282798" d="M748.531,433.622H738.369V422.956h10.162Zm-7.621-9.228h-1.27v7.79h1.27Zm6.351,0H742.18v7.79h5.081Z" transform="translate(-712.957 -407.848)" fill="#19538d"/>
            <path id="Path_1282799" data-name="Path 1282799" d="M534.714,226.922H516.931v-5.273h17.783Zm-15.242-3.955H518.2V225.6h1.27Zm13.972,0h-12.7V225.6h12.7Z" transform="translate(-499.14 -213.732)" fill="#19538d"/>
            <path id="Path_1282800" data-name="Path 1282800" d="M94.688,920.891a35.022,35.022,0,0,1,6.013.053,2.012,2.012,0,0,1-.278,3.862,34.749,34.749,0,0,1-5.915-.071,2.016,2.016,0,0,1,.18-3.844m.229,1.316c-.537.121-.551.683-.317,1.115a.9.9,0,0,0,.415.169,32.427,32.427,0,0,0,5.075.01.659.659,0,0,0,.106-1.312,35.58,35.58,0,0,0-5.278.019" transform="translate(-89.975 -887.898)" fill="#19538d"/>
            <path id="Path_1282801" data-name="Path 1282801" d="M426.845,920.891a35.022,35.022,0,0,1,6.013.053,2.012,2.012,0,0,1-.278,3.862,34.749,34.749,0,0,1-5.915-.071,2.016,2.016,0,0,1,.18-3.844m.229,1.316c-.537.121-.551.683-.317,1.115a.9.9,0,0,0,.415.169,32.427,32.427,0,0,0,5.075.01.659.659,0,0,0,.106-1.312,35.58,35.58,0,0,0-5.278.019" transform="translate(-410.7 -887.898)" fill="#19538d"/>
            <path id="Path_1282802" data-name="Path 1282802" d="M759,920.891a35.022,35.022,0,0,1,6.013.053,2.012,2.012,0,0,1-.278,3.862,34.75,34.75,0,0,1-5.915-.071,2.016,2.016,0,0,1,.18-3.844m.229,1.316c-.537.121-.551.683-.317,1.115a.9.9,0,0,0,.415.169,32.426,32.426,0,0,0,5.075.01.659.659,0,0,0,.106-1.312,35.581,35.581,0,0,0-5.278.019" transform="translate(-731.425 -887.898)" fill="#19538d"/>
            <rect id="Rectangle_467393" data-name="Rectangle 467393" width="10.162" height="1.438" transform="translate(13.98 26.972)" fill="#19538d"/>
            <rect id="Rectangle_467394" data-name="Rectangle 467394" width="10.162" height="1.438" transform="translate(2.549 26.972)" fill="#19538d"/>
            <rect id="Rectangle_467395" data-name="Rectangle 467395" width="10.162" height="1.438" transform="translate(2.549 29.609)" fill="#19538d"/>
            <rect id="Rectangle_467396" data-name="Rectangle 467396" width="7.621" height="1.438" transform="translate(25.412 29.609)" fill="#19538d"/>
            <rect id="Rectangle_467397" data-name="Rectangle 467397" width="6.351" height="1.438" transform="translate(25.412 26.972)" fill="#19538d"/>
            <path id="Path_1282803" data-name="Path 1282803" d="M406.212,830.365v-1.438h4.33l.155.2a1.573,1.573,0,0,1,.024.335c.025.3.057.72-.179.9Z" transform="translate(-392.232 -799.318)" fill="#19538d"/>
            <path id="Path_1282804" data-name="Path 1282804" d="M570.195,828.307c.186-.063,1.037-.067,1.146.1l-.058,1.274-1.227-.06c-.061-.3-.178-1.2.139-1.309" transform="translate(-550.367 -798.681)" fill="#19538d"/>
            <rect id="Rectangle_467398" data-name="Rectangle 467398" width="1.274" height="1.322" transform="translate(2.547 2.642)" fill="#19538d"/>
            <rect id="Rectangle_467399" data-name="Rectangle 467399" width="1.274" height="1.322" transform="translate(7.628 2.642)" fill="#19538d"/>
            <rect id="Rectangle_467400" data-name="Rectangle 467400" width="1.274" height="1.322" transform="translate(5.087 2.642)" fill="#19538d"/>
            <rect id="Rectangle_467401" data-name="Rectangle 467401" width="1.274" height="1.442" transform="translate(8.898 17.742)" fill="#19538d"/>
            <rect id="Rectangle_467402" data-name="Rectangle 467402" width="1.274" height="1.442" transform="translate(20.329 21.697)" fill="#19538d"/>
          </g>
        </g>
        <g id="Group_1214388" data-name="Group 1214388" transform="translate(888.089 4936.293)">
          <g id="Group_1214387" data-name="Group 1214387" transform="translate(0 0)" clip-path="url(#clip-path-5)">
            <path id="Path_1282805" data-name="Path 1282805" d="M8.4,11.146C7.95,8.992,9.882,9.512,11.216,8.98L11.7,7.557c-.374-.837-1.728-1.96-1.105-2.851a25.909,25.909,0,0,1,2.31-2.4c.9-.679,2.031.832,2.881,1.193l1.183-.486c.331-.536.41-2.683.9-2.926a27.526,27.526,0,0,1,3.666-.06c1.07.13.875,2.052,1.207,2.9l1.209.561c.893-.224,1.984-1.861,2.882-1.236A28.2,28.2,0,0,1,29.2,4.705c.633.9-.787,2.067-1.137,2.921l.458,1.3c1.294.63,3.338.033,2.874,2.224h4.792a2.974,2.974,0,0,1,1.86,1.931v22.29c.458.014,1.38-.121,1.609.377A9.541,9.541,0,0,1,39.744,38a3.368,3.368,0,0,1-3.212,3.219L2.942,41.2c-2.5-.37-3.149-2.77-2.889-5.079.109-.971.971-.731,1.693-.759V13.077a2.974,2.974,0,0,1,1.86-1.931ZM21.127,1.33H18.669c-.122.107-.29,2.145-.635,2.558A18.953,18.953,0,0,1,15.843,4.9c-.544.083-2.1-1.434-2.373-1.3L11.807,5.353l1.318,2.341c-.376.548-.674,2.265-1.205,2.485a17.217,17.217,0,0,0-2.289.57l.012,2.5a19.042,19.042,0,0,1,2.424.585c.394.274.647,1.841,1.047,2.315l-1.282,2.49,1.7,1.733,2.15-1.384c.566.3,2.272.723,2.5,1.261.14.33.4,2.333.55,2.375l2.4-.019c.257-.734.209-2.385.883-2.769.154-.088,1.817-.811,1.919-.829.512-.086,2.184,1.433,2.395,1.336l1.664-1.762-1.317-2.342c.389-.573.655-2.23,1.2-2.485.3-.141,2.268-.446,2.288-.567l-.018-2.5c-.7-.287-2.31-.235-2.668-.917a14.165,14.165,0,0,0-.8-1.989l1.283-2.49L26.269,3.569l-2.16,1.345a18.74,18.74,0,0,1-2.222-.922c-.548-.414-.511-1.993-.76-2.662M8.4,12.433H3.832a1.583,1.583,0,0,0-.846.878V35.367H36.809V13.311a1.583,1.583,0,0,0-.846-.878H31.4c.437,2.714-1.235,1.768-2.662,2.444a3.3,3.3,0,0,0-.68,1.358c.02.357,1.457,1.974,1.368,2.528a13.522,13.522,0,0,1-2.842,3.008c-.8.185-1.851-1.15-2.636-1.327l-1.17.533c-.423.838-.125,2.79-1.24,2.925a21.047,21.047,0,0,1-3.639-.089c-.6-.285-.535-2.326-.932-2.894l-1.249-.473c-.959.444-1.875,1.864-2.922,1.057a18.276,18.276,0,0,1-2.394-2.67c-.161-.561,1.154-2.037,1.33-2.662l-.514-1.221c-1.631-.644-3.253.042-2.816-2.518m5.524,24.338H1.3c-.18,1.5.275,2.92,1.86,3.16l33.264,0c1.766-.137,2.25-1.5,2.081-3.164H25.873c.077.868-.014,1.8-.966,1.982-3.153-.213-6.7.309-9.807.014-1.145-.109-1.251-.945-1.178-2m10.71,0h-9.47v.7h9.47Z" transform="translate(0 0.004)" fill="#19538d"/>
            <path id="Path_1282806" data-name="Path 1282806" d="M140.825,652.743c-.436-.285-4.346.258-5.119-.129-.438-.386-.435-1.094.227-1.183,1.463-.2,3.332.151,4.841.013a2.12,2.12,0,0,1,3.817-.68c.176.245.173.63.477.675l20.193.1a.744.744,0,0,1-.182,1.12l-20.01.061-.227.116a2.129,2.129,0,0,1-3.6.7,8.717,8.717,0,0,1-.42-.793m2.907-.694a.889.889,0,1,0-.888.922.905.905,0,0,0,.888-.922" transform="translate(-130.529 -625.543)" fill="#19538d"/>
            <path id="Path_1282807" data-name="Path 1282807" d="M154.013,772.481l-18.244-.08c-.617-.472-.443-1.283.387-1.231l17.8.013c.782-2.163,3.333-2.078,4.2-.022l6.742.023c.7.081.678.873.174,1.218l-6.819.061-.227.116a2.1,2.1,0,0,1-4.018-.1m2.914-.672a.886.886,0,1,0-.885.918.9.9,0,0,0,.885-.918" transform="translate(-130.526 -740.835)" fill="#19538d"/>
            <path id="Path_1282808" data-name="Path 1282808" d="M386.686,147.825a6.446,6.446,0,1,1-6.441-6.685,6.567,6.567,0,0,1,6.441,6.685m-1.244,0a5.2,5.2,0,1,0-5.2,5.394,5.3,5.3,0,0,0,5.2-5.394" transform="translate(-360.346 -135.867)" fill="#19538d"/>
          </g>
        </g>
        <g id="Group_1214390" data-name="Group 1214390" transform="translate(887.126 5016)">
          <g id="Group_1214389" data-name="Group 1214389" clip-path="url(#clip-path-6)">
            <path id="Path_1282809" data-name="Path 1282809" d="M37.97,7.31H1.38V33.6H26.9c.428,0,.714.938.318,1.26l-.572.2L.36,34.991l-.267-.254L0,.5.67,0,38.8.01a.761.761,0,0,1,.586.72V34.337a.736.736,0,0,1-1.414.259ZM11.231,1.467H1.38V5.849h9.851Zm26.739,0H12.639V5.849H37.97Z" fill="#19538d"/>
            <path id="Path_1282810" data-name="Path 1282810" d="M319.268,318.33c.329.01.366.488.628.609.31.143.681-.036.966.192l6.816,7.133a2.254,2.254,0,0,1-3.307,3.034c-.77-.631-6.759-6.838-6.877-7.336-.036-.154.062-.346.009-.532s-.552-.39-.565-.681a12.426,12.426,0,0,1-4.032,1.694c-9.611,1.668-15.553-10.581-8.56-17.514,6.9-6.839,18.225-.4,16.538,9.33a13.66,13.66,0,0,1-1.618,4.072m.366-5.963a8.446,8.446,0,1,0-8.44,8.759,8.6,8.6,0,0,0,8.44-8.759m-1.275,6.959-.458.479.649.669.458-.479Zm1.984,1.408-1.085,1.126,6.074,6.306c.816.731,1.795-.27,1.087-1.128Z" transform="translate(-291.521 -291.912)" fill="#19538d"/>
            <path id="Path_1282811" data-name="Path 1282811" d="M433.022,86.784l21.345-.035a.738.738,0,0,1,0,1.474H433.244a.742.742,0,0,1-.222-1.439" transform="translate(-418.501 -83.828)" fill="#19538d"/>
            <path id="Path_1282812" data-name="Path 1282812" d="M87.138,87.487a.71.71,0,1,1-.71-.737.724.724,0,0,1,.71.737" transform="translate(-82.937 -83.829)" fill="#19538d"/>
            <path id="Path_1282813" data-name="Path 1282813" d="M173.887,87.487a.71.71,0,1,1-.71-.737.724.724,0,0,1,.71.737" transform="translate(-166.871 -83.829)" fill="#19538d"/>
            <path id="Path_1282814" data-name="Path 1282814" d="M260.637,87.487a.71.71,0,1,1-.71-.737.724.724,0,0,1,.71.737" transform="translate(-250.807 -83.829)" fill="#19538d"/>
            <path id="Path_1282815" data-name="Path 1282815" d="M391.77,523.567l.079.274c.6.46,2.668,1.3,2.73,2.057.065.791-.638.8-1.2.574a38.535,38.535,0,0,1-3.524-2.184.8.8,0,0,1,0-1.182,34.851,34.851,0,0,1,3.441-2.136c.357-.16.682-.339,1.028.008,1.016,1.019-1.949,2.164-2.556,2.589" transform="translate(-376.956 -503.242)" fill="#19538d"/>
            <path id="Path_1282816" data-name="Path 1282816" d="M673.1,525.638a22.021,22.021,0,0,1,2.52-1.5l-.079-.274a26.939,26.939,0,0,1-2.485-1.542.817.817,0,0,1,.387-1.183.479.479,0,0,1,.293-.029c.213.034,3.427,2,3.721,2.254a.786.786,0,0,1,.076,1.235l-3.7,2.275a.752.752,0,0,1-.73-1.235" transform="translate(-651.084 -503.552)" fill="#19538d"/>
            <path id="Path_1282817" data-name="Path 1282817" d="M565.538,475.439a1.217,1.217,0,0,1,.148.81,55.96,55.96,0,0,1-1.329,7c-.157.639-.29.874-1,.765-.421-.064-.492-.429-.48-.83a55.159,55.159,0,0,1,1.343-7.116c.164-.668.782-1.184,1.317-.627" transform="translate(-544.613 -459.201)" fill="#19538d"/>
          </g>
        </g>
      </g>
    </g>
  </g>
</svg>
