<svg xmlns="http://www.w3.org/2000/svg" xmlns:xlink="http://www.w3.org/1999/xlink" width="98" height="98" viewBox="0 0 98 98">
  <defs>
    <clipPath id="clip-path">
      <rect id="Rectángulo_456312" data-name="Rectángulo 456312" width="98" height="98" transform="translate(0.059 0.059)" fill="none"/>
    </clipPath>
    <clipPath id="clip-path-3">
      <rect id="Rectángulo_468302" data-name="Rectángulo 468302" width="58.355" height="58.387" fill="#19538d"/>
    </clipPath>
  </defs>
  <g id="Grupo_1179975" data-name="Grupo 1179975" transform="translate(-307.117 -10093.059)">
    <g id="Grupo_1179968" data-name="Grupo 1179968" transform="translate(307.059 10093)">
      <g id="Grupo_1179959" data-name="Grupo 1179959" clip-path="url(#clip-path)">
        <path id="Trazado_999654" data-name="Trazado 999654" d="M1.5,5.146H81.261A12.087,12.087,0,0,1,93.377,17.2V96.585H13.616A12.087,12.087,0,0,1,1.5,84.527Z" transform="translate(0.014 0.025)" fill="#fff"/>
      </g>
      <g id="Grupo_1179960" data-name="Grupo 1179960">
        <g id="Grupo_1179956" data-name="Grupo 1179956" clip-path="url(#clip-path)">
          <path id="Trazado_999651" data-name="Trazado 999651" d="M92.229,30a5.024,5.024,0,1,1-5.048,5.024A5.037,5.037,0,0,1,92.229,30" transform="translate(0.84 0.145)" fill="#19538d"/>
          <path id="Trazado_999652" data-name="Trazado 999652" d="M63.229,0a5.024,5.024,0,1,1-5.048,5.024A5.037,5.037,0,0,1,63.229,0" transform="translate(0.56 0)" fill="#19538d"/>
          <path id="Trazado_999653" data-name="Trazado 999653" d="M93.377,35.144V96.585H13.616A12.087,12.087,0,0,1,1.5,84.527V5.146H64.459" transform="translate(0.014 0.025)" fill="none" stroke="#19538d" stroke-miterlimit="10" stroke-width="3"/>
        </g>
      </g>
    </g>
    <g id="Grupo_1179969" data-name="Grupo 1179969" transform="translate(322.757 10111.315)">
      <rect id="Rectángulo_456311" data-name="Rectángulo 456311" width="64.131" height="64.594" transform="translate(0.36 -0.257)" fill="#fff"/>
      <g id="Grupo_1214727" data-name="Grupo 1214727" transform="translate(3.36 2.744)">
        <g id="Grupo_1214726" data-name="Grupo 1214726" clip-path="url(#clip-path-3)">
          <path id="Trazado_1283524" data-name="Trazado 1283524" d="M56.892,58.387l-55.681,0A1.505,1.505,0,0,1,0,57.2l0-4.662A1.461,1.461,0,0,1,1.3,51.377l2.539-.006v-31.4a3.229,3.229,0,0,1,3.349-3.14l4.429.007,0-14.313A2.47,2.47,0,0,1,13.947,0H44.41a2.469,2.469,0,0,1,2.329,2.523l0,14.3,5.636.021A2.259,2.259,0,0,1,54.521,19.1V51.371l2.536.007a1.454,1.454,0,0,1,1.3,1.169l-.007,4.631a1.428,1.428,0,0,1-1.456,1.209M16.614,5.449V1.133l-2.535.008a1.386,1.386,0,0,0-1.316,1.41l0,2.906ZM45.583,2.494a1.367,1.367,0,0,0-1.5-1.358l-26.349,0V5.457H45.6Zm.017,4.09H12.758V37.77H45.6Zm5.694,15.537-.016,25.53a1.778,1.778,0,0,1-1.856,1.634l-40.658,0a1.775,1.775,0,0,1-1.69-1.773l0-25.633a1.818,1.818,0,0,1,2-1.8l2.535,0,.011-2.061-4.8.008a2,2,0,0,0-1.84,1.974l0,31.389h48.4V19.143a1.076,1.076,0,0,0-1.155-1.131L46.753,18l-.008,2.06,2.7.02a1.812,1.812,0,0,1,1.852,2.036m-4.552-.9,0,15.1a2.546,2.546,0,0,1-2.66,2.595h-29.8a2.547,2.547,0,0,1-2.658-2.6l0-15.115-2.7-.03a.788.788,0,0,0-.707.851l0,25.495a.692.692,0,0,0,.736.614l41.2-.011.016-26.094a.806.806,0,0,0-.709-.86Zm-12.2,32.9a1.485,1.485,0,0,1-1.649,1.34l-7.437.007a1.518,1.518,0,0,1-1.666-1.421l-.064-1.516-22.583,0,.01,4.68H57.2l.01-4.68-22.581,0Zm-1.142.163.022-1.754h-8.49l.092,1.763Z" fill="#19538d"/>
          <path id="Trazado_1283525" data-name="Trazado 1283525" d="M118.191,89.853l-12.917,4.16L92.229,89.857a2.869,2.869,0,0,1-.3-.6c-.039-.148.307-.415.48-.471l4.518-1.483-4.494-1.466a1.1,1.1,0,0,1-.5-.461c-.064-.172.179-.56.393-.632l4.509-1.519-4.458-1.487a.985.985,0,0,1-.452-.477c-.043-.18.236-.542.441-.608l12.836-4.122,12.78,4.076a.982.982,0,0,1,.536.515.805.805,0,0,1-.413.624l-4.558,1.476,4.5,1.5a1.126,1.126,0,0,1,.453.376c.089.156-.147.622-.345.687l-4.6,1.518,4.5,1.483a.975.975,0,0,1,.466.435.822.822,0,0,1-.334.625M116.016,81.2l-10.8-3.475L94.471,81.2l10.794,3.468Zm-.1,4.089-4.349-1.451L105.2,85.881l-6.282-2.045-4.487,1.433,10.8,3.475Zm0,4.077c-1.637-.622-2.914-1.021-4.365-1.452L105.2,89.94,98.838,87.9l-4.366,1.461,10.8,3.457Z" transform="translate(-76.073 -63.336)" fill="#19538d"/>
          <rect id="Rectángulo_468301" data-name="Rectángulo 468301" width="19.143" height="1.203" transform="translate(19.599 2.686)" fill="#19538d"/>
          <path id="Trazado_1283526" data-name="Trazado 1283526" d="M234.939,16.725l-2.729.018a.836.836,0,0,1-.568-.567c0-.194.34-.6.542-.6l2.6-.019a.929.929,0,0,1,.584.442c.075.166-.208.722-.424.724" transform="translate(-191.693 -12.876)" fill="#19538d"/>
        </g>
      </g>
    </g>
  </g>
</svg>
