<svg xmlns="http://www.w3.org/2000/svg" xmlns:xlink="http://www.w3.org/1999/xlink" width="98" height="98" viewBox="0 0 98 98">
  <defs>
    <clipPath id="clip-path">
      <rect id="Rectángulo_456312" data-name="Rectángulo 456312" width="98" height="98" transform="translate(0.059 0.059)" fill="none"/>
    </clipPath>
    <clipPath id="clip-path-3">
      <rect id="Rectángulo_468303" data-name="Rectángulo 468303" width="45.218" height="61.664" fill="#19538d"/>
    </clipPath>
  </defs>
  <g id="Grupo_1179976" data-name="Grupo 1179976" transform="translate(-307.117 -10093.059)">
    <g id="Grupo_1179968" data-name="Grupo 1179968" transform="translate(307.059 10093)">
      <g id="Grupo_1179959" data-name="Grupo 1179959" clip-path="url(#clip-path)">
        <path id="Trazado_999654" data-name="Trazado 999654" d="M1.5,5.146H81.261A12.087,12.087,0,0,1,93.377,17.2V96.585H13.616A12.087,12.087,0,0,1,1.5,84.527Z" transform="translate(0.014 0.025)" fill="#fff"/>
      </g>
      <g id="Grupo_1179960" data-name="Grupo 1179960">
        <g id="Grupo_1179956" data-name="Grupo 1179956" clip-path="url(#clip-path)">
          <path id="Trazado_999651" data-name="Trazado 999651" d="M92.229,30a5.024,5.024,0,1,1-5.048,5.024A5.037,5.037,0,0,1,92.229,30" transform="translate(0.84 0.145)" fill="#19538d"/>
          <path id="Trazado_999652" data-name="Trazado 999652" d="M63.229,0a5.024,5.024,0,1,1-5.048,5.024A5.037,5.037,0,0,1,63.229,0" transform="translate(0.56 0)" fill="#19538d"/>
          <path id="Trazado_999653" data-name="Trazado 999653" d="M93.377,35.144V96.585H13.616A12.087,12.087,0,0,1,1.5,84.527V5.146H64.459" transform="translate(0.014 0.025)" fill="none" stroke="#19538d" stroke-miterlimit="10" stroke-width="3"/>
        </g>
      </g>
    </g>
    <g id="Grupo_1179969" data-name="Grupo 1179969" transform="translate(322.757 10111.315)">
      <rect id="Rectángulo_456311" data-name="Rectángulo 456311" width="64.131" height="64.594" transform="translate(0.36 -0.257)" fill="#fff"/>
      <g id="Grupo_1214729" data-name="Grupo 1214729" transform="translate(8.962 1.836)">
        <g id="Grupo_1214728" data-name="Grupo 1214728" clip-path="url(#clip-path-3)">
          <path id="Trazado_1283527" data-name="Trazado 1283527" d="M43.42,60.169a1.749,1.749,0,0,1-1.816,1.5l-10.241-.026a1.831,1.831,0,0,1-1.51-2.464l-1.521-2.106-22.952-.06A5.727,5.727,0,0,1,0,51.314L0,5.727A5.785,5.785,0,0,1,5.559.035L27.635,0a5.937,5.937,0,0,1,5.936,6.188L33.559,33.9l4.13.056A3.353,3.353,0,0,1,40.641,36.1l3.512,7.617A12.113,12.113,0,0,1,45,51.073ZM26.494,51.222l0-9.252a3.736,3.736,0,0,1,1.587-2.979,3.91,3.91,0,0,1,3.555-.445V6.027a3.89,3.89,0,0,0-3.653-4.059l-22.427,0A3.84,3.84,0,0,0,1.926,5.7l.01,45.772a3.88,3.88,0,0,0,3.79,3.664l21.556.01a11.076,11.076,0,0,1-.788-3.927m3.441,4.713,1.672,2.413a3.541,3.541,0,0,1,.114,1.368l9.834,0,1.539-8.965a10.463,10.463,0,0,0-.511-5.821l-3.783-8.2a1.725,1.725,0,0,0-1.407-.881l-3.842.017L33.6,40.33c0,.348.326,1.033.366,1.373l-.008,7.736a.978.978,0,0,1-1.081.924,1.026,1.026,0,0,1-.818-1.069l-.019-7.425a1.844,1.844,0,0,0-1.825-1.627,1.8,1.8,0,0,0-1.772,1.691l0,9.566a7.74,7.74,0,0,0,1.493,4.435" transform="translate(0 -0.001)" fill="#19538d"/>
          <path id="Trazado_1283528" data-name="Trazado 1283528" d="M45.019,154.486c-.247.594-.364,1.6-1.032,1.849a4.926,4.926,0,0,1-3.074.054c-.741-.251-.981-1.163-1.1-1.9l-2.158-.879c-.635.516-1.561,1.011-2.248.492a11.006,11.006,0,0,1-1.776-1.735c-.56-.685-.116-1.678.423-2.36l-.879-2.156c-.783-.106-1.787-.374-1.927-1.219-.3-1.814-.236-3.522,1.2-3.73.789-.115.9-.579,1.173-1.193.281-.641.476-1.154.07-1.74a1.721,1.721,0,0,1,.518-2.432c.473-.4.947-1.081,1.582-1.23a2.9,2.9,0,0,1,1.958.663l2.057-.9c.118-.642.335-1.587.989-1.822a5.03,5.03,0,0,1,3.175,0c.659.24.856,1.176.978,1.827l2.1.89c.607-.386,1.355-.887,2.079-.609a6.386,6.386,0,0,1,1.427,1.175,1.87,1.87,0,0,1,.324,2.8c-.215.292.135,1.016.263,1.355.26.687.4,1.069,1.184,1.219,1.518.291,1.385,1.817,1.212,3.775-.038.429-.8.94-1.21,1-.769.113-.924.576-1.183,1.17a1.7,1.7,0,0,0-.015,1.9,1.645,1.645,0,0,1-.472,2.192,6.774,6.774,0,0,1-1.536,1.283c-.687.3-1.5-.242-2.086-.6Zm-2.008-.036a2.312,2.312,0,0,1,1.165-1.779l1.9-.782c1.666-.684,2.043.675,2.815.142,1.048-.723-.486-1.583-.153-2.392l1.163-2.819c.19-.461,1.019-.714,1.558-.909.319-.116.31-1.129,0-1.243-.635-.218-1.392-.454-1.626-1.04l-1.082-2.706c-.164-.409.34-1.249.56-1.717a1.108,1.108,0,0,0-.93-.782,2.389,2.389,0,0,1-2.05.375l-2.034-.843c-1.383-.573-.948-1.756-1.583-2-.251-.1-.933.017-.983.26-.294,1.777-1.333,1.656-3.275,2.576a2.191,2.191,0,0,1-2.07-.381c-.3-.1-.943.485-.919.8.253.557.734,1.333.525,1.837l-1.126,2.7c-.214.515-1.085.753-1.64.947-.247.207-.235,1.126.056,1.236.556.151,1.394.44,1.582.895l1.165,2.821c.168.408-.376,1.242-.529,1.713-.133.409.707.988,1.034.775a2.018,2.018,0,0,1,1.913-.344l2.278.951c.609.254.884,1.062,1.046,1.749.211.217,1.07.227,1.241-.041" transform="translate(-25.609 -110.315)" fill="#19538d"/>
          <path id="Trazado_1283529" data-name="Trazado 1283529" d="M63.964,34.842l-14.128,0a1.026,1.026,0,0,1-.995-.855c-.072-.383.272-1.08.809-1.08l14.823.009c.422,0,.7.828.624,1.141a1.109,1.109,0,0,1-1.133.788" transform="translate(-40.205 -27.09)" fill="#19538d"/>
          <path id="Trazado_1283530" data-name="Trazado 1283530" d="M50.979,76.031c.294.236.07,1.16-.2,1.34a1.146,1.146,0,0,1-1.338-.106l-4.146-3.3a.954.954,0,0,1-.026-1.446l4.426-3.036a1.019,1.019,0,0,1,1.234.25,1.073,1.073,0,0,1-.172,1.355l-3.191,2.2Z" transform="translate(-37.007 -57.109)" fill="#19538d"/>
          <path id="Trazado_1283531" data-name="Trazado 1283531" d="M111.545,77.477a1.044,1.044,0,0,1-1.334-.147,1.088,1.088,0,0,1,.01-1.249l3.361-2.691L110.5,71.266a.994.994,0,0,1-.27-1.46,1.056,1.056,0,0,1,1.332-.152l4.121,2.826a1.452,1.452,0,0,1,.5.719,1.426,1.426,0,0,1-.424.943Z" transform="translate(-90.58 -57.21)" fill="#19538d"/>
          <path id="Trazado_1283532" data-name="Trazado 1283532" d="M84.478,71.732a1.035,1.035,0,0,1-1.194.584,1.011,1.011,0,0,1-.65-1.118l2.417-9.044a1.05,1.05,0,0,1,1.083-.8,1.022,1.022,0,0,1,.8,1.251Z" transform="translate(-68.014 -50.505)" fill="#19538d"/>
          <path id="Trazado_1283533" data-name="Trazado 1283533" d="M88.827,281.337a4.41,4.41,0,0,1-2.159-.012c-.235-.066-.463-.645-.457-.887.007-.277.365-.861.653-.861h1.78c.239,0,.6.472.652.707.064.269-.2.99-.469,1.052" transform="translate(-70.98 -230.181)" fill="#19538d"/>
          <path id="Trazado_1283534" data-name="Trazado 1283534" d="M76.313,174.24a5.091,5.091,0,1,1-5.091-5.09,5.091,5.091,0,0,1,5.091,5.09m-1.927,0a3.161,3.161,0,1,0-3.161,3.161,3.161,3.161,0,0,0,3.161-3.161" transform="translate(-54.448 -139.265)" fill="#19538d"/>
        </g>
      </g>
    </g>
  </g>
</svg>
