<svg xmlns="http://www.w3.org/2000/svg" xmlns:xlink="http://www.w3.org/1999/xlink" width="96" height="96" viewBox="0 0 96 96">
  <defs>
    <clipPath id="clip-path">
      <rect id="Rectángulo_456267" data-name="Rectángulo 456267" width="96" height="96" fill="none"/>
    </clipPath>
    <clipPath id="clip-path-2">
      <rect id="Rectángulo_468174" data-name="Rectángulo 468174" width="49.276" height="49.263" fill="#0f654d"/>
    </clipPath>
  </defs>
  <g id="Grupo_1179916" data-name="Grupo 1179916" transform="translate(479.746 8495) rotate(180)">
    <path id="Trazado_999622" data-name="Trazado 999622" d="M43.07,0A43.07,43.07,0,1,1,0,43.07,43.071,43.071,0,0,1,43.07,0" transform="translate(388.676 8403.93)" fill="#e3fbf9"/>
    <g id="Grupo_1179902" data-name="Grupo 1179902" transform="translate(383.746 8399)">
      <g id="Grupo_1179905" data-name="Grupo 1179905" clip-path="url(#clip-path)">
        <path id="Trazado_999618" data-name="Trazado 999618" d="M48,0A48,48,0,1,1,0,48,48,48,0,0,1,48,0" fill="none"/>
        <path id="Trazado_999619" data-name="Trazado 999619" d="M3.75,59A3.75,3.75,0,1,1,0,62.75,3.75,3.75,0,0,1,3.75,59" transform="translate(0 -14.75)" fill="#0f654d"/>
        <path id="Trazado_999620" data-name="Trazado 999620" d="M19.75,19A3.75,3.75,0,1,1,16,22.75,3.75,3.75,0,0,1,19.75,19" transform="translate(-4 -4.75)" fill="#0f654d"/>
        <path id="Trazado_999621" data-name="Trazado 999621" d="M49,94A45.051,45.051,0,0,1,4,49H6.25A42.75,42.75,0,1,0,17.806,19.768l-1.641-1.539A45,45,0,1,1,49,94" transform="translate(-1 -1)" fill="#0f654d"/>
        <rect id="Rectángulo_456268" data-name="Rectángulo 456268" width="96" height="96" fill="none"/>
        <rect id="Rectángulo_456269" data-name="Rectángulo 456269" width="96" height="96" fill="none"/>
      </g>
    </g>
    <g id="Grupo_1179903" data-name="Grupo 1179903" transform="translate(458.745 8474.508) rotate(180)">
      <g id="Grupo_1099618" data-name="Grupo 1099618" transform="translate(-0.247 -0.32)">
        <rect id="Rectángulo_401104" data-name="Rectángulo 401104" width="54.153" height="54.806" transform="translate(0)" fill="none"/>
      </g>
      <g id="Grupo_1214679" data-name="Grupo 1214679" transform="translate(2.753 2.679)">
        <g id="Grupo_1214678" data-name="Grupo 1214678" clip-path="url(#clip-path-2)">
          <path id="Trazado_1283335" data-name="Trazado 1283335" d="M20.132,77.233a57,57,0,0,1,6.273.049c1,.084,1.372,1.506,1.142,2.142-.375,1.037-1.174,1.305-2.571,1.347a20.976,20.976,0,0,0,25.446-1.912,21.23,21.23,0,0,0,7.125-15.979,1.723,1.723,0,0,1,1.923-1.537,1.742,1.742,0,0,1,1.564,1.946A24.645,24.645,0,0,1,22.32,83.3c.156,1.334-.218,2.276-1.258,2.584a1.73,1.73,0,0,1-2.22-1.495l-.026-5.568c0-.607.543-1.571,1.315-1.591" transform="translate(-11.797 -38.45)" fill="#0f654d"/>
          <path id="Trazado_1283336" data-name="Trazado 1283336" d="M40.366,10.552c-1.925-.029-3.756.051-5.621-.088-1.056-.079-1.5-1.449-1.257-2.187.347-1.041,1.2-1.264,2.549-1.362a20.973,20.973,0,0,0-22.1-.483,21.222,21.222,0,0,0-10.439,18.4A1.759,1.759,0,1,1,0,24.419,24.648,24.648,0,0,1,38.715,4.4c-.17-1.389.269-2.384,1.391-2.608a1.733,1.733,0,0,1,2.107,1.656L42.2,8.987a1.714,1.714,0,0,1-1.833,1.565" transform="translate(0 0)" fill="#0f654d"/>
          <path id="Trazado_1283337" data-name="Trazado 1283337" d="M58.428,78.274,54.76,81.948a1.723,1.723,0,0,1-2.408-.05l-4.076-4.063-2.3,2.3a1.718,1.718,0,0,1-2.826-.514L37.871,63.8a1.876,1.876,0,0,1,.234-1.822,1.764,1.764,0,0,1,1.88-.609l15.834,5.264a1.891,1.891,0,0,1,1.106.974,1.846,1.846,0,0,1-.126,1.677l-2.516,2.57,4.2,4.233a1.721,1.721,0,0,1-.058,2.189m-3.87-1.147L50.6,73.157a1.773,1.773,0,0,1-.065-2.531l1.484-1.546-9.733-3.234,3.235,9.749,1.543-1.506a1.83,1.83,0,0,1,2.526.077l4,3.985Z" transform="translate(-23.661 -38.423)" fill="#0f654d"/>
          <path id="Trazado_1283338" data-name="Trazado 1283338" d="M110.669,41.225l-1.815-1.855A1.722,1.722,0,0,1,109.1,36.9a1.892,1.892,0,0,1,2.613.342l2.213-3.355a1.8,1.8,0,0,1,2.37-.7,1.734,1.734,0,0,1,.732,2.365L113.3,41.14a1.7,1.7,0,0,1-2.627.085" transform="translate(-67.981 -20.68)" fill="#0f654d"/>
          <path id="Trazado_1283339" data-name="Trazado 1283339" d="M43.209,50.763l-3.877-.039A1.762,1.762,0,0,1,37.7,49.061a1.686,1.686,0,0,1,1.441-1.808c1.408-.04,2.77-.04,4.167,0A1.683,1.683,0,0,1,44.739,48.9a1.942,1.942,0,0,1-1.53,1.867" transform="translate(-23.631 -29.605)" fill="#0f654d"/>
          <path id="Trazado_1283340" data-name="Trazado 1283340" d="M90.217,50.775l-3.743,0a1.762,1.762,0,0,1-1.63-1.666,1.666,1.666,0,0,1,1.437-1.8h4.17A1.668,1.668,0,0,1,91.888,49.1a1.784,1.784,0,0,1-1.671,1.677" transform="translate(-53.188 -29.66)" fill="#0f654d"/>
          <path id="Trazado_1283341" data-name="Trazado 1283341" d="M66.585,50.721l-3.6,0a1.78,1.78,0,0,1-1.675-1.512,1.662,1.662,0,0,1,1.367-1.943c1.377-.069,2.76-.062,4.154-.021a1.7,1.7,0,0,1,1.484,1.813,1.732,1.732,0,0,1-1.727,1.665" transform="translate(-38.424 -29.598)" fill="#0f654d"/>
          <path id="Trazado_1283342" data-name="Trazado 1283342" d="M19.429,50.722h-3.6a1.8,1.8,0,0,1-1.684-1.513,1.658,1.658,0,0,1,1.378-1.944c1.378-.069,2.758-.062,4.153-.018a1.677,1.677,0,0,1,1.464,1.8,1.723,1.723,0,0,1-1.708,1.674" transform="translate(-8.853 -29.598)" fill="#0f654d"/>
        </g>
      </g>
    </g>
  </g>
</svg>
