<svg xmlns="http://www.w3.org/2000/svg" xmlns:xlink="http://www.w3.org/1999/xlink" width="1328" height="556.928" viewBox="0 0 1328 556.928">
  <defs>
    <linearGradient id="linear-gradient" x1="-27731.094" y1="241746.219" x2="49905.867" y2="185005.328" gradientUnits="objectBoundingBox">
      <stop offset="0" stop-color="red"/>
      <stop offset="0.036" stop-color="#ff0909"/>
      <stop offset="1" stop-color="#fff"/>
    </linearGradient>
    <clipPath id="clip-path">
      <rect id="Rectangle_377901" data-name="Rectangle 377901" width="1328" height="556.928" transform="translate(0 29.072)" fill="#68eae0"/>
    </clipPath>
    <clipPath id="clip-path-2">
      <path id="Path_998342" data-name="Path 998342" d="M608.894,73.62l0,0-.005,0Z" transform="translate(-608.893 -73.62)" fill="url(#linear-gradient)"/>
    </clipPath>
    <radialGradient id="radial-gradient" cx="0.5" cy="0.5" r="0.766" gradientTransform="matrix(0.999, 0.055, -0.109, 1.998, 0.055, -0.526)" gradientUnits="objectBoundingBox">
      <stop offset="0" stop-color="#9ecfff"/>
      <stop offset="1" stop-color="#cf9eff"/>
    </radialGradient>
    <clipPath id="clip-path-3">
      <path id="Path_999483" data-name="Path 999483" d="M608.894,73.62l0,0,0,0Z" transform="translate(-608.893 -73.62)" fill="url(#linear-gradient)"/>
    </clipPath>
    <linearGradient id="linear-gradient-5" x1="0.651" y1="0.538" x2="1" y2="0.531" gradientUnits="objectBoundingBox">
      <stop offset="0" stop-color="#68eae0"/>
      <stop offset="1" stop-color="#68eae0" stop-opacity="0"/>
    </linearGradient>
  </defs>
  <g id="imgfondo1" transform="translate(1328 586) rotate(180)">
    <g id="Group_154360" data-name="Group 154360" transform="translate(0 0)" clip-path="url(#clip-path)">
      <rect id="Rectangle_378306" data-name="Rectangle 378306" width="1398.301" height="619.457" transform="translate(1360.14 619.457) rotate(180)" fill="none"/>
      <g id="Group_1178938" data-name="Group 1178938" transform="translate(1740.322 869.48) rotate(180)">
        <g id="Group_1178926" data-name="Group 1178926" transform="translate(2043.265 0)">
          <g id="Group_1178925" data-name="Group 1178925" transform="translate(0 0)">
            <g id="Group_1178924" data-name="Group 1178924" clip-path="url(#clip-path-2)">
              <rect id="Rectangle_455466" data-name="Rectangle 455466" width="0.005" height="0.004" transform="translate(0)" fill="url(#linear-gradient)"/>
            </g>
          </g>
        </g>
        <path id="Path_998346" data-name="Path 998346" d="M-12225.149-11580.053v40.219l-81.99,54.016v239.57s35.9,55.6,35.9,57.943,75.9,0,75.9,0v-394.561Z" transform="translate(14444.136 11883.611)" fill="#fff"/>
        <rect id="Rectangle_456259" data-name="Rectangle 456259" width="1371.651" height="586.262" transform="translate(386.537 271.339)" fill="#68eae0"/>
        <path id="Path_999482" data-name="Path 999482" d="M0,613Z" stroke="#707070" stroke-width="1" fill="url(#radial-gradient)"/>
        <g id="Group_1179889" data-name="Group 1179889" transform="translate(1651.293 81.967)">
          <g id="Group_1179888" data-name="Group 1179888" transform="translate(0 0)">
            <g id="Group_1179887" data-name="Group 1179887" clip-path="url(#clip-path-3)">
              <rect id="Rectangle_456260" data-name="Rectangle 456260" width="0.004" height="0.003" transform="translate(0)" fill="url(#linear-gradient)"/>
            </g>
          </g>
        </g>
        <g id="Group_1179890" data-name="Group 1179890" transform="translate(167.07 -77.741)">
          <path id="Path_999484" data-name="Path 999484" d="M451.6,685.95a7.514,7.514,0,1,0-2,0V824.71L390.412,883.9v235.392h2V884.729L451.6,825.538Z" transform="translate(678.705 127.067)" fill="#8ff5ed"/>
          <path id="Path_999485" data-name="Path 999485" d="M463.984,685.95a7.514,7.514,0,1,0-2,0V875.226L415.3,921.915v197.378h2V922.742l46.689-46.689Z" transform="translate(683.414 127.067)" fill="#8ff5ed"/>
          <path id="Path_999486" data-name="Path 999486" d="M505.073,671.023a7.5,7.5,0,0,0-1,14.928v27.01l-30.361,30.361V902.271l-40.184,40.184v176.838h2V943.283L475.71,903.1V744.15l30.361-30.361V685.951a7.5,7.5,0,0,0-1-14.928" transform="translate(686.869 127.067)" fill="#8ff5ed"/>
          <path id="Path_999487" data-name="Path 999487" d="M426.435,685.95a7.514,7.514,0,1,0-2,0v79.06L307.075,882.369v236.923h2V883.2L426.435,765.836Z" transform="translate(662.922 127.067)" fill="#8ff5ed"/>
          <path id="Path_999488" data-name="Path 999488" d="M443.928,685.95a7.516,7.516,0,1,0-2,0v80.845L327.882,880.839v238.454h2V881.666L443.928,767.623Z" transform="translate(666.862 127.067)" fill="#8ff5ed"/>
          <path id="Path_999489" data-name="Path 999489" d="M390.522,685.95a7.515,7.515,0,1,0-2,0v44.871L219.178,900.165v219.128h2v-218.3L390.522,731.649Z" transform="translate(646.277 127.067)" fill="#8ff5ed"/>
          <path id="Path_999490" data-name="Path 999490" d="M409.737,685.95a7.513,7.513,0,1,0-2,0v57.116L251.087,899.717v219.575h2V900.545L409.737,743.893Z" transform="translate(652.319 127.067)" fill="#8ff5ed"/>
          <path id="Path_999491" data-name="Path 999491" d="M600.881,685.95a7.515,7.515,0,1,0-2,0V825.538l59.189,59.191v234.564h2V883.9l-59.19-59.191Z" transform="translate(716.948 127.067)" fill="#8ff5ed"/>
          <path id="Path_999492" data-name="Path 999492" d="M586.508,685.95a7.515,7.515,0,1,0-2,0v190.1l46.69,46.689v196.55h2V921.915l-46.691-46.689Z" transform="translate(714.225 127.067)" fill="#8ff5ed"/>
          <path id="Path_999493" data-name="Path 999493" d="M578.579,743.321,548.22,712.96V685.95a7.514,7.514,0,1,0-2,0v27.838l30.361,30.361V903.1l40.183,40.184v176.011h2V942.454L578.579,902.27Z" transform="translate(706.975 127.067)" fill="#8ff5ed"/>
          <path id="Path_999494" data-name="Path 999494" d="M635.312,685.95a7.516,7.516,0,1,0-2,0v79.886L750.674,883.2v236.1h2V882.369L635.312,765.009Z" transform="translate(723.467 127.067)" fill="#8ff5ed"/>
          <path id="Path_999495" data-name="Path 999495" d="M617.291,685.95a7.514,7.514,0,1,0-2,0v81.673L729.337,881.666v237.626h2V880.839L617.291,766.795Z" transform="translate(720.055 127.067)" fill="#8ff5ed"/>
          <path id="Path_999496" data-name="Path 999496" d="M679.5,730.821V685.95a7.515,7.515,0,1,0-2,0v45.7L846.846,900.992v218.3h2V900.165Z" transform="translate(731.837 127.067)" fill="#8ff5ed"/>
          <path id="Path_999497" data-name="Path 999497" d="M658.264,685.95a7.515,7.515,0,1,0-2,0v57.944L812.917,900.545v218.748h2V899.717L658.264,743.066Z" transform="translate(727.814 127.067)" fill="#8ff5ed"/>
          <path id="Path_999498" data-name="Path 999498" d="M450.836,428.908a7.626,7.626,0,1,0,0-2.028H310.021l-60.068-60.068H-521.489v2.028h770.6l60.068,60.068Z" transform="translate(535.439 69.459)" fill="#8ff5ed"/>
          <path id="Path_999499" data-name="Path 999499" d="M449.488,441.473a7.625,7.625,0,1,0,0-2.028H257.408l-47.38-47.381H-511.347v2.029H209.189l47.38,47.38Z" transform="translate(536.789 74.24)" fill="#8ff5ed"/>
          <path id="Path_999500" data-name="Path 999500" d="M464.082,483.171a7.607,7.607,0,0,0-15.148-1.015H421.523l-30.811-30.811h-161.3L188.63,410.567l-695.806.033v2.028l694.966-.033,40.779,40.779h161.3l30.811,30.811h28.251a7.607,7.607,0,0,0,15.148-1.013" transform="translate(537.343 77.744)" fill="#8ff5ed"/>
          <path id="Path_999501" data-name="Path 999501" d="M449.434,403.368a7.626,7.626,0,1,0,0-2.028H369.2l-119.1-119.1h-761.05v2.028h760.21l119.1,119.1Z" transform="translate(536.841 53.443)" fill="#8ff5ed"/>
          <path id="Path_999502" data-name="Path 999502" d="M448.332,421.119a7.627,7.627,0,1,0,0-2.028H366.289L250.557,303.356H-502.652v2.028H249.717L365.45,421.119Z" transform="translate(537.944 57.442)" fill="#8ff5ed"/>
          <path id="Path_999503" data-name="Path 999503" d="M381.5,366.924a7.626,7.626,0,1,0,0-2.028H335.968L164.116,193.043H0v2.028H163.278L335.128,366.924Z" transform="translate(604.772 36.553)" fill="#8ff5ed"/>
          <path id="Path_999504" data-name="Path 999504" d="M381.5,386.423a7.625,7.625,0,1,0,0-2.028H323.542L164.571,225.423H0v2.029H163.731L322.7,386.423Z" transform="translate(604.772 42.683)" fill="#8ff5ed"/>
          <path id="Path_999505" data-name="Path 999505" d="M447.561,580.4a7.626,7.626,0,1,0,0-2.028H305.906l-60.068,60.065H-496.854v2.028H246.678L306.746,580.4Z" transform="translate(538.716 108.268)" fill="#8ff5ed"/>
          <path id="Path_999506" data-name="Path 999506" d="M448.428,565.813a7.626,7.626,0,1,0,0-2.028H255.509l-47.38,47.382h-711.5v2.028H208.969l47.38-47.382Z" transform="translate(537.849 105.506)" fill="#8ff5ed"/>
          <path id="Path_999507" data-name="Path 999507" d="M394.251,557.765l30.811-30.811h27.411a7.626,7.626,0,1,0,0-2.028H424.222l-30.811,30.811h-161.3L191.33,596.516H-533.8v2.028H192.169l40.78-40.779Z" transform="translate(533.803 98.149)" fill="#8ff5ed"/>
          <path id="Path_999508" data-name="Path 999508" d="M448.578,615.338a7.626,7.626,0,1,0,0-2.028h-81.07l-119.1,119.1-752.917.9v2.028l753.757-.9,119.1-119.1Z" transform="translate(537.697 114.885)" fill="#8ff5ed"/>
          <path id="Path_999509" data-name="Path 999509" d="M448.577,597.051a7.626,7.626,0,1,0,0-2.028H365.7L249.962,710.755l-754.461.713V713.5l755.3-.713L366.535,597.051Z" transform="translate(537.698 111.422)" fill="#8ff5ed"/>
          <path id="Path_999510" data-name="Path 999510" d="M335.969,660.181H381.5a7.626,7.626,0,1,0,0-2.028H335.128L163.278,830H0v2.029H164.116Z" transform="translate(604.772 123.379)" fill="#8ff5ed"/>
          <path id="Path_999511" data-name="Path 999511" d="M449.349,638.63a7.626,7.626,0,1,0,0-2.028h-58.8L231.575,795.573l-741.875-.645v2.029l742.715.645L391.386,638.63Z" transform="translate(536.927 119.297)" fill="#8ff5ed"/>
          <path id="Path_999512" data-name="Path 999512" d="M598.881,375.941a7.514,7.514,0,1,0,2,0V237.181l59.193-59.191V0h-2V177.162l-59.191,59.191Z" transform="translate(716.948 -0.004)" fill="#8ff5ed"/>
          <path id="Path_999513" data-name="Path 999513" d="M584.51,375.941a7.513,7.513,0,1,0,2,0V186.665L633.2,139.976V0h-2V139.148L584.51,185.837Z" transform="translate(714.225 -0.004)" fill="#8ff5ed"/>
          <path id="Path_999514" data-name="Path 999514" d="M547.218,390.869a7.5,7.5,0,0,0,1-14.928V348.93l30.361-30.361V159.62l40.184-40.183V0h-2V118.609l-40.183,40.184V317.742L546.221,348.1v27.838a7.5,7.5,0,0,0,1,14.928" transform="translate(706.975 -0.004)" fill="#8ff5ed"/>
          <path id="Path_999515" data-name="Path 999515" d="M633.31,375.941a7.515,7.515,0,1,0,2,0v-79.06l117.362-117.36V0h-2v178.69L633.31,296.055Z" transform="translate(723.468 -0.004)" fill="#8ff5ed"/>
          <path id="Path_999516" data-name="Path 999516" d="M615.291,375.941a7.516,7.516,0,1,0,2,0V295.1L731.335,181.052V0h-2v180.22L615.291,294.268Z" transform="translate(720.055 -0.004)" fill="#8ff5ed"/>
          <path id="Path_999517" data-name="Path 999517" d="M677.5,375.941a7.514,7.514,0,1,0,2,0V331.07L848.844,161.726V0h-2V160.9L677.5,330.242Z" transform="translate(731.837 -0.004)" fill="#8ff5ed"/>
          <path id="Path_999518" data-name="Path 999518" d="M656.264,375.941a7.513,7.513,0,1,0,2,0V318.825L814.914,162.173V0h-2V161.345L656.264,318Z" transform="translate(727.814 -0.004)" fill="#8ff5ed"/>
          <path id="Path_999519" data-name="Path 999519" d="M449.6,375.941a7.514,7.514,0,1,0,2,0V236.353l-59.189-59.191V0h-2V177.99l59.19,59.191Z" transform="translate(678.705 -0.004)" fill="#8ff5ed"/>
          <path id="Path_999520" data-name="Path 999520" d="M461.985,375.941a7.515,7.515,0,1,0,2,0v-190.1l-46.69-46.689V0h-2V139.976l46.691,46.689Z" transform="translate(683.414 -0.004)" fill="#8ff5ed"/>
          <path id="Path_999521" data-name="Path 999521" d="M473.712,318.569l30.361,30.36v27.012a7.515,7.515,0,1,0,2,0V348.1L475.71,317.742V158.793l-40.183-40.184V0h-2V119.437l40.184,40.183Z" transform="translate(686.869 -0.004)" fill="#8ff5ed"/>
          <path id="Path_999522" data-name="Path 999522" d="M424.435,375.941a7.516,7.516,0,1,0,2,0V296.055L309.072,178.694V0h-2V179.521l117.362,117.36Z" transform="translate(662.921 -0.004)" fill="#8ff5ed"/>
          <path id="Path_999523" data-name="Path 999523" d="M441.926,375.941a7.515,7.515,0,1,0,2,0V294.268L329.88,180.224V0h-2V181.052L441.926,295.1Z" transform="translate(666.862 -0.004)" fill="#8ff5ed"/>
          <path id="Path_999524" data-name="Path 999524" d="M388.523,331.07v44.871a7.514,7.514,0,1,0,2,0v-45.7L221.177,160.9V0h-2V161.726Z" transform="translate(646.277 -0.004)" fill="#8ff5ed"/>
          <path id="Path_999525" data-name="Path 999525" d="M407.739,375.941a7.514,7.514,0,1,0,2,0V318L253.085,161.345V0h-2V162.173L407.739,318.825Z" transform="translate(652.319 -0.004)" fill="#8ff5ed"/>
          <path id="Path_999526" data-name="Path 999526" d="M712.933,578.369a7.626,7.626,0,1,0,0,2.028H853.748l60.068,60.068h180.621v-2.028H914.656l-60.068-60.068Z" transform="translate(736.911 108.268)" fill="#8ff5ed"/>
          <path id="Path_999527" data-name="Path 999527" d="M712.933,563.784a7.625,7.625,0,1,0,0,2.028h192.08l47.38,47.381h142.045v-2.029H953.232l-47.38-47.38Z" transform="translate(736.911 105.506)" fill="#8ff5ed"/>
          <path id="Path_999528" data-name="Path 999528" d="M697.785,525.94a7.607,7.607,0,0,0,15.148,1.014h27.411l30.811,30.811h161.3l40.779,40.779h121.2v-2.028H974.077L933.3,555.737h-161.3l-30.811-30.811H712.933a7.607,7.607,0,0,0-15.148,1.013" transform="translate(736.911 98.149)" fill="#8ff5ed"/>
          <path id="Path_999529" data-name="Path 999529" d="M712.933,613.307a7.626,7.626,0,1,0,0,2.028h80.23l119.1,119.1h182.176v-2.028H913.1L794,613.307Z" transform="translate(736.911 114.885)" fill="#8ff5ed"/>
          <path id="Path_999530" data-name="Path 999530" d="M712.933,595.021a7.627,7.627,0,1,0,0,2.028h82.043L910.708,712.784h183.729v-2.028H911.548L795.815,595.021Z" transform="translate(736.911 111.421)" fill="#8ff5ed"/>
          <path id="Path_999531" data-name="Path 999531" d="M712.933,658.151a7.626,7.626,0,1,0,0,2.028h45.536L930.321,832.034h164.116V830H931.161L759.309,658.151Z" transform="translate(736.911 123.379)" fill="#8ff5ed"/>
          <path id="Path_999532" data-name="Path 999532" d="M712.933,636.6a7.624,7.624,0,1,0,0,2.028H770.9L929.867,797.6h164.57v-2.029H930.706L771.735,636.6Z" transform="translate(736.911 119.295)" fill="#8ff5ed"/>
          <path id="Path_999533" data-name="Path 999533" d="M712.933,426.877a7.626,7.626,0,1,0,0,2.028H854.588l60.068-60.066h179.781v-2.028H913.816l-60.068,60.066Z" transform="translate(736.911 69.459)" fill="#8ff5ed"/>
          <path id="Path_999534" data-name="Path 999534" d="M712.933,439.444a7.626,7.626,0,1,0,0,2.028H905.852l47.38-47.382h141.205v-2.028H952.392l-47.38,47.382Z" transform="translate(736.911 74.24)" fill="#8ff5ed"/>
          <path id="Path_999535" data-name="Path 999535" d="M771.155,451.346l-30.811,30.811H712.933a7.625,7.625,0,1,0,0,2.028h28.251l30.811-30.811H933.3l40.779-40.779h120.36v-2.028h-121.2l-40.78,40.779Z" transform="translate(736.911 77.744)" fill="#8ff5ed"/>
          <path id="Path_999536" data-name="Path 999536" d="M712.933,401.339a7.626,7.626,0,1,0,0,2.028H794l119.1-119.1h181.336v-2.028H912.261l-119.1,119.1Z" transform="translate(736.911 53.443)" fill="#8ff5ed"/>
          <path id="Path_999537" data-name="Path 999537" d="M712.933,419.089a7.626,7.626,0,1,0,0,2.028h82.882L911.548,305.384h182.889v-2.028H910.708L794.975,419.089Z" transform="translate(736.911 57.442)" fill="#8ff5ed"/>
          <path id="Path_999538" data-name="Path 999538" d="M758.469,364.894H712.933a7.626,7.626,0,1,0,0,2.028h46.376L931.161,195.071h163.278v-2.029H930.321Z" transform="translate(736.911 36.552)" fill="#8ff5ed"/>
          <path id="Path_999539" data-name="Path 999539" d="M712.933,384.394a7.624,7.624,0,1,0,0,2.028h58.8L930.706,227.45h163.731v-2.028H929.867L770.9,384.394Z" transform="translate(736.911 42.683)" fill="#8ff5ed"/>
        </g>
        <rect id="Rectangle_456261" data-name="Rectangle 456261" width="685.32" height="586.262" transform="translate(386.537 271.339)" opacity="0.55" fill="url(#linear-gradient-5)"/>
        <path id="Path_999543" data-name="Path 999543" d="M217.9,271.586a5.734,5.734,0,1,1-8.109,0,5.734,5.734,0,0,1,8.109,0" transform="translate(277.209 103.426)" fill="#fff" stroke="#fff" stroke-width="1" fill-rule="evenodd"/>
        <line id="Line_3273" data-name="Line 3273" x1="77.144" y2="77.144" transform="translate(1702.196 748.292)" fill="none" stroke="#19538d" stroke-linecap="round" stroke-linejoin="round" stroke-width="5"/>
        <line id="Line_3276" data-name="Line 3276" x1="77.144" y2="77.144" transform="translate(444.473 377.056) rotate(180)" fill="none" stroke="#19538d" stroke-linecap="round" stroke-linejoin="round" stroke-width="5"/>
        <line id="Line_3274" data-name="Line 3274" x1="77.144" y2="77.144" transform="translate(1639.311 786.864)" fill="none" stroke="#19538d" stroke-linecap="round" stroke-linejoin="round" stroke-width="14"/>
        <line id="Line_3275" data-name="Line 3275" x1="77.144" y2="77.144" transform="translate(507.357 338.484) rotate(180)" fill="none" stroke="#19538d" stroke-linecap="round" stroke-linejoin="round" stroke-width="14"/>
        <g id="Group_1179891" data-name="Group 1179891" transform="translate(1846.92 802.849) rotate(180)">
          <path id="Path_999544" data-name="Path 999544" d="M0,102.893,51.5,51.4a32.125,32.125,0,0,1,22.716-9.409h0a32.125,32.125,0,0,0,22.716-9.41L129.507,0" transform="translate(-2 103.48)" fill="none" stroke="#fff" stroke-miterlimit="10" stroke-width="3.332"/>
          <path id="Path_999545" data-name="Path 999545" d="M12.548,2.153a7.35,7.35,0,1,0,0,10.395,7.351,7.351,0,0,0,0-10.395" transform="translate(125.051 91.235)" fill="#fff" fill-rule="evenodd"/>
          <path id="Path_999546" data-name="Path 999546" d="M0,205.309,120.041,85.269a32.127,32.127,0,0,0,9.409-22.717V41.966a32.125,32.125,0,0,1,9.41-22.716L158.109,0" transform="translate(85.108 -15.635)" fill="none" stroke="#fff" stroke-miterlimit="10" stroke-width="3.332"/>
          <path id="Path_999547" data-name="Path 999547" d="M12.548,2.153a7.35,7.35,0,1,1-10.395,0,7.351,7.351,0,0,1,10.395,0" transform="translate(235.472 -22.587)" fill="#fff" stroke="#fff" stroke-width="1" fill-rule="evenodd"/>
        </g>
        <g id="Group_1179892" data-name="Group 1179892" transform="translate(299.748 322.499)">
          <path id="Path_999544-2" data-name="Path 999544" d="M0,102.893,51.5,51.4a32.125,32.125,0,0,1,22.716-9.409h0a32.125,32.125,0,0,0,22.716-9.41L129.507,0" transform="translate(-2 103.48)" fill="none" stroke="#fff" stroke-miterlimit="10" stroke-width="3.332"/>
          <path id="Path_999545-2" data-name="Path 999545" d="M12.548,2.153a7.35,7.35,0,1,0,0,10.395,7.351,7.351,0,0,0,0-10.395" transform="translate(125.051 91.235)" fill="#fff" fill-rule="evenodd"/>
          <path id="Path_999546-2" data-name="Path 999546" d="M0,205.309,120.041,85.269a32.127,32.127,0,0,0,9.409-22.717V41.966a32.125,32.125,0,0,1,9.41-22.716L158.109,0" transform="translate(85.108 -15.635)" fill="none" stroke="#fff" stroke-miterlimit="10" stroke-width="3.332"/>
          <path id="Path_999547-2" data-name="Path 999547" d="M12.548,2.153a7.35,7.35,0,1,1-10.395,0,7.351,7.351,0,0,1,10.395,0" transform="translate(235.472 -22.587)" fill="#fff" stroke="#fff" stroke-width="1" fill-rule="evenodd"/>
        </g>
      </g>
    </g>
  </g>
</svg>
