<svg xmlns="http://www.w3.org/2000/svg" xmlns:xlink="http://www.w3.org/1999/xlink" width="69.323" height="69.323" viewBox="0 0 69.323 69.323">
  <defs>
    <clipPath id="clip-path">
      <rect id="Rectangle_467009" data-name="Rectangle 467009" width="52" height="48.165" fill="#fff"/>
    </clipPath>
    <clipPath id="clip-path-2">
      <rect id="Rectangle_468189" data-name="Rectangle 468189" width="24.051" height="43.372" fill="#fff"/>
    </clipPath>
  </defs>
  <g id="img12" transform="translate(-305 -3063.901)">
    <path id="Path_1281027" data-name="Path 1281027" d="M0,0H69.323V69.323H0Z" transform="translate(305 3063.901)" fill="#0f654d"/>
    <g id="Group_1214056" data-name="Group 1214056" transform="translate(315 3074.784)">
      <g id="Group_1180863" data-name="Group 1180863" transform="translate(0 0.216)" clip-path="url(#clip-path)">
        <g id="Group_1214689" data-name="Group 1214689" transform="translate(13.744 2.115)">
          <g id="Group_1214688" data-name="Group 1214688" clip-path="url(#clip-path-2)">
            <path id="Path_1283427" data-name="Path 1283427" d="M23.158,128.583a1.047,1.047,0,0,1,.785.339,1.029,1.029,0,0,1-.019.956L12.8,142.987a1.145,1.145,0,0,1-.77.472,1.191,1.191,0,0,1-.774-.473L.127,129.877a1.1,1.1,0,0,1-.071-.865.959.959,0,0,1,.767-.429L6,128.591l.01-11.218a1.607,1.607,0,0,1,1.532-1.554l1.257-.031-.534,4.546a1.952,1.952,0,0,0,1.049,2.046,1.885,1.885,0,0,0,2.208-.329l5.051-6.208a1.567,1.567,0,0,1,1.464,1.533l.012,11.213Z" transform="translate(0 -100.087)" fill="#fff"/>
            <path id="Path_1283428" data-name="Path 1283428" d="M32.2,20.806c-.1.124-.388.306-.461.239l-.418-.386.976-8.326-6.845.008-.39-.231c-.117-.069-.023-.471.067-.586L33.983.195a.7.7,0,0,1,.6-.175.75.75,0,0,1,.249.559L34.373,8.5l6.9-.006a2.5,2.5,0,0,1,.379.34c.071.092-.068.368-.165.488Z" transform="translate(-21.621 0)" fill="#fff"/>
          </g>
        </g>
      </g>
    </g>
  </g>
</svg>
