<svg xmlns="http://www.w3.org/2000/svg" xmlns:xlink="http://www.w3.org/1999/xlink" width="128" height="128" viewBox="0 0 128 128">
  <defs>
    <clipPath id="clip-path">
      <rect id="Rectángulo_456267" data-name="Rectángulo 456267" width="128" height="128" fill="none"/>
    </clipPath>
    <clipPath id="clip-path-2">
      <rect id="Rectángulo_468494" data-name="Rectángulo 468494" width="67.174" height="63.627" fill="#19538d" stroke="#19538d" stroke-width="0.5"/>
    </clipPath>
  </defs>
  <g id="Grupo_1214478" data-name="Grupo 1214478" transform="translate(511.492 8526.602) rotate(180)">
    <path id="Trazado_999622" data-name="Trazado 999622" d="M59.07,0A59.07,59.07,0,1,1,0,59.07,59.071,59.071,0,0,1,59.07,0" transform="translate(388.676 8403.93)" fill="#fff"/>
    <g id="Grupo_1179902" data-name="Grupo 1179902" transform="translate(383.492 8398.602)">
      <g id="Grupo_1179905" data-name="Grupo 1179905" clip-path="url(#clip-path)">
        <path id="Trazado_999618" data-name="Trazado 999618" d="M64,0A64,64,0,1,1,0,64,64,64,0,0,1,64,0" fill="none"/>
        <path id="Trazado_999619" data-name="Trazado 999619" d="M5,59a5,5,0,1,1-5,5,5,5,0,0,1,5-5" fill="#19538d"/>
        <path id="Trazado_999620" data-name="Trazado 999620" d="M21,19a5,5,0,1,1-5,5,5,5,0,0,1,5-5" fill="#19538d"/>
        <path id="Trazado_999621" data-name="Trazado 999621" d="M64,124A60.068,60.068,0,0,1,4,64H7A57,57,0,1,0,22.408,25.024L20.22,22.972A60,60,0,1,1,64,124" fill="#19538d"/>
        <rect id="Rectángulo_456268" data-name="Rectángulo 456268" width="128" height="128" fill="none"/>
        <rect id="Rectángulo_456269" data-name="Rectángulo 456269" width="128" height="128" fill="none"/>
      </g>
    </g>
    <g id="Grupo_1214838" data-name="Grupo 1214838" transform="translate(481.492 8494.602) rotate(180)">
      <g id="Grupo_1214837" data-name="Grupo 1214837" clip-path="url(#clip-path-2)">
        <path id="Trazado_1284248" data-name="Trazado 1284248" d="M46.23,63.627l-25.186-.033a4.3,4.3,0,0,1-3.96-4.152L17.04,54.8,4.15,54.789A4.113,4.113,0,0,1,0,50.96L.011,3.627A4.037,4.037,0,0,1,3.795.009L63.184,0a4.061,4.061,0,0,1,3.99,3.818l-.013,47.325c0,2.12-2.262,3.644-4.122,3.646l-12.911.01-.018,4.417a4.451,4.451,0,0,1-3.88,4.411M41.224,18.072l8.895,8.908,0,26.41L63.2,53.368a2.79,2.79,0,0,0,2.619-2.611L65.793,3.845c0-1.714-1.8-2.462-3.221-2.462L4,1.394A2.772,2.772,0,0,0,1.373,3.834L1.357,50.947a2.816,2.816,0,0,0,2.433,2.4l13.264.032V22.312a4.533,4.533,0,0,1,4.189-4.254Zm7.471,41.4.012-31.4H43.144a2.986,2.986,0,0,1-2.829-2.786l0-5.634-19.459.043c-1.337,0-2.377,1.546-2.377,2.811l.005,37.057a2.955,2.955,0,0,0,2.63,2.77l24.573.015A3,3,0,0,0,48.7,59.474M43.406,26.518l4.2-.049-5.827-5.8L41.72,24.9a1.6,1.6,0,0,0,1.686,1.62" transform="translate(0 0)" fill="#19538d" stroke="#19538d" stroke-width="0.5"/>
        <path id="Trazado_1284249" data-name="Trazado 1284249" d="M159.928,23.286l-31.979,0a2.529,2.529,0,0,1-2.5-2.7,2.606,2.606,0,0,1,2.9-2.506l32.036.027a2.512,2.512,0,0,1,2.194,2.613,2.555,2.555,0,0,1-2.648,2.569m.379-1.572c.756,0,.969-1.065.835-1.455a1.341,1.341,0,0,0-1.359-.927H128.188a1.187,1.187,0,0,0-1.329,1.039c-.056.445.208,1.349.888,1.349Z" transform="translate(-100.258 -14.448)" fill="#19538d" stroke="#19538d" stroke-width="0.5"/>
        <path id="Trazado_1284250" data-name="Trazado 1284250" d="M89.845,19.866A2.667,2.667,0,1,1,87.178,17.2a2.667,2.667,0,0,1,2.667,2.667m-1.5.009a1.2,1.2,0,1,0-1.2,1.2,1.2,1.2,0,0,0,1.2-1.2" transform="translate(-67.543 -13.746)" fill="#19538d" stroke="#19538d" stroke-width="0.5"/>
        <path id="Trazado_1284251" data-name="Trazado 1284251" d="M56.488,20.4a2.648,2.648,0,1,1-2.648-2.648A2.648,2.648,0,0,1,56.488,20.4m-1.509-.087a1.2,1.2,0,1,0-1.2,1.2,1.2,1.2,0,0,0,1.2-1.2" transform="translate(-40.914 -14.189)" fill="#19538d" stroke="#19538d" stroke-width="0.5"/>
        <path id="Trazado_1284252" data-name="Trazado 1284252" d="M22.918,20.467a2.637,2.637,0,1,1-2.637-2.637,2.637,2.637,0,0,1,2.637,2.637m-1.481-.078A1.215,1.215,0,1,0,20.222,21.6a1.215,1.215,0,0,0,1.215-1.215" transform="translate(-14.101 -14.25)" fill="#19538d" stroke="#19538d" stroke-width="0.5"/>
        <rect id="Rectángulo_468493" data-name="Rectángulo 468493" width="13.75" height="1.39" transform="translate(30.986 56.551) rotate(-73.631)" fill="#19538d" stroke="#19538d" stroke-width="0.5"/>
        <path id="Trazado_1284253" data-name="Trazado 1284253" d="M190.494,236.492a1.4,1.4,0,0,1-.976.125c-.2-.069-.483-.645-.372-.837l3.409-3.481-3.164-3.187a1.053,1.053,0,0,1-.216-.817c.07-.247.823-.538,1.006-.358l3.751,3.707a.919.919,0,0,1,.05,1.376Z" transform="translate(-151.148 -182.127)" fill="#19538d" stroke="#19538d" stroke-width="0.5"/>
        <path id="Trazado_1284254" data-name="Trazado 1284254" d="M122.775,234.736a1.263,1.263,0,0,1,.244,1.026c-.063.245-.775.554-.967.361l-4.355-4.377,4.336-4.4a.818.818,0,0,1,.926.139,1.11,1.11,0,0,1-.094.983l-3.213,3.175Z" transform="translate(-94.066 -181.623)" fill="#19538d" stroke="#19538d" stroke-width="0.5"/>
        <path id="Trazado_1284255" data-name="Trazado 1284255" d="M111.975,163.421h-7.747a1.436,1.436,0,0,1-.621-.7c-.044-.227.4-.68.639-.68l7.437-.007a1.013,1.013,0,0,1,.8.509c.049.228-.238.683-.508.881" transform="translate(-82.801 -129.498)" fill="#19538d" stroke="#19538d" stroke-width="0.5"/>
        <path id="Trazado_1284256" data-name="Trazado 1284256" d="M111.627,133.38l-7.384,0a1.3,1.3,0,0,1-.615-.715c-.02-.231.368-.6.646-.689l7.347.015a.845.845,0,0,1,.617.69,1.432,1.432,0,0,1-.611.7" transform="translate(-82.821 -105.475)" fill="#19538d" stroke="#19538d" stroke-width="0.5"/>
        <path id="Trazado_1284257" data-name="Trazado 1284257" d="M138.58,118.688h-4.943a.846.846,0,0,1-.712-.779c0-.27.449-.625.768-.625l4.831,0c.308,0,.779.363.78.63a.932.932,0,0,1-.724.769" transform="translate(-106.237 -93.737)" fill="#19538d" stroke="#19538d" stroke-width="0.5"/>
        <path id="Trazado_1284258" data-name="Trazado 1284258" d="M109.087,178.693l-4.739.005a1.071,1.071,0,0,1-.784-.573.9.9,0,0,1,.662-.821l4.816-.01a.945.945,0,0,1,.751.658.888.888,0,0,1-.707.741" transform="translate(-82.767 -141.697)" fill="#19538d" stroke="#19538d" stroke-width="0.5"/>
        <path id="Trazado_1284259" data-name="Trazado 1284259" d="M155.246,133.361l-4.708.033a.917.917,0,0,1-.767-.722.848.848,0,0,1,.762-.691l4.5,0a1.049,1.049,0,0,1,.8.474c.087.224-.274.9-.585.9" transform="translate(-119.699 -105.481)" fill="#19538d" stroke="#19538d" stroke-width="0.5"/>
        <path id="Trazado_1284260" data-name="Trazado 1284260" d="M156.258,163.393l-4.451.012a1.12,1.12,0,0,1-.708-.572c-.076-.239.267-.806.55-.807l4.413-.021a1,1,0,0,1,.817.493c.085.3-.28.893-.62.894" transform="translate(-120.753 -129.478)" fill="#19538d" stroke="#19538d" stroke-width="0.5"/>
        <path id="Trazado_1284261" data-name="Trazado 1284261" d="M139.4,148.7l-4.139.006a1.054,1.054,0,0,1-.8-.556c-.057-.242.252-.849.51-.848l4.776.021c.266,0,.533.629.463.828a1.112,1.112,0,0,1-.807.55" transform="translate(-107.454 -117.728)" fill="#19538d" stroke="#19538d" stroke-width="0.5"/>
        <path id="Trazado_1284262" data-name="Trazado 1284262" d="M109.144,148.634l-3.831.009a1.273,1.273,0,0,1-.772-.39c-.146-.206.086-.979.384-.983l4.036-.046a1,1,0,0,1,.825.479.8.8,0,0,1-.642.931" transform="translate(-83.516 -117.664)" fill="#19538d" stroke="#19538d" stroke-width="0.5"/>
        <path id="Trazado_1284263" data-name="Trazado 1284263" d="M107.888,118.662l-3.491,0a1.038,1.038,0,0,1-.814-.566c-.052-.283.332-.83.62-.831l3.667-.015c.343,0,.8.355.8.64a.787.787,0,0,1-.785.77" transform="translate(-82.781 -93.71)" fill="#19538d" stroke="#19538d" stroke-width="0.5"/>
      </g>
    </g>
  </g>
</svg>
