<svg xmlns="http://www.w3.org/2000/svg" xmlns:xlink="http://www.w3.org/1999/xlink" width="69.323" height="69.323" viewBox="0 0 69.323 69.323">
  <defs>
    <clipPath id="clip-path">
      <rect id="Rectangle_468787" data-name="Rectangle 468787" width="45" height="44.987" fill="#fff"/>
    </clipPath>
  </defs>
  <g id="img14" transform="translate(-919 -5558)">
    <rect id="Rectangle_467850" data-name="Rectangle 467850" width="69.323" height="69.323" transform="translate(919 5558)" fill="#0f654d"/>
    <g id="Group_1214922" data-name="Group 1214922" transform="translate(931 5570)">
      <g id="Group_1214921" data-name="Group 1214921" clip-path="url(#clip-path)">
        <path id="Path_1284599" data-name="Path 1284599" d="M54.374,18.934l-22.016.014-2.788-3.435a2.742,2.742,0,0,0-2.152-1.1l-5.408-.01,0-13.426A.952.952,0,0,1,22.876,0L45.413,0l-.006,8.245a1.081,1.081,0,0,0,1.016.806l7.944-.01ZM28.769,5.371l.361-.381c.473-.5.609-1.1.154-1.5a1.055,1.055,0,0,0-1.454.176l-.448.422c-.1.092-.6-.98-1.493-.829a1.038,1.038,0,0,0-.647.765c-.023.874,1.014,1.218.822,1.41l-.4.4A1.559,1.559,0,0,0,25.27,6.97a1.048,1.048,0,0,0,.779.623c.71.07,1.245-1.017,1.443-.816l.4.4a1.243,1.243,0,0,0,1.065.388,1.289,1.289,0,0,0,.633-.742c.12-.7-.982-1.277-.818-1.451M42.715,6.3a.951.951,0,0,0,.889-.941.99.99,0,0,0-.864-.852l-10.947,0c-.474,0-.849.641-.8,1a.948.948,0,0,0,.9.793ZM26.41,12.418a1.042,1.042,0,0,0,1.08.008L29.5,10.4a1.085,1.085,0,0,0-.135-1.189,1.152,1.152,0,0,0-1.147,0l-1.255,1.225c-.449-.471-.966-.663-1.392-.375a.885.885,0,0,0-.16,1.355Zm16.223-.706A.988.988,0,0,0,43.6,10.8a1.022,1.022,0,0,0-.828-.9l-10.863,0a.949.949,0,0,0-.912.9.92.92,0,0,0,.91.915Z" transform="translate(-18.377)" fill="#fff"/>
        <path id="Path_1284600" data-name="Path 1284600" d="M26.626,182.575l-25.617.01a1,1,0,0,1-1-.872L0,169.069h28.92a10.819,10.819,0,0,0-2.3,13.5m-13.081-3.608a.884.884,0,0,0,.866-.826l0-3.68a.948.948,0,0,0-.941-.887l-8.874.02a.9.9,0,0,0-.967.889l0,3.656a.935.935,0,0,0,.819.822Z" transform="translate(-0.001 -141.184)" fill="#fff"/>
        <path id="Path_1284601" data-name="Path 1284601" d="M39.581,103.5l.007,4.28a11.23,11.23,0,0,0-7.922.292H0l0-8.786a1.056,1.056,0,0,1,.846-1.115l8.6.017,3.643,4.536H38.582c.489,0,1,.174,1,.776" transform="translate(-0.001 -81.976)" fill="#fff"/>
        <path id="Path_1284602" data-name="Path 1284602" d="M181.777,172.708a8.993,8.993,0,1,1-8.993-8.993,8.993,8.993,0,0,1,8.993,8.993m-12.2-1.7-1.078.3a4.558,4.558,0,0,1,3.319-3,4.459,4.459,0,0,1,4.407,1.506.968.968,0,0,0,1.35.168.945.945,0,0,0,0-1.364A6.286,6.286,0,0,0,166.5,172.8a.892.892,0,0,0,1.172.76l2.624-.867a.91.91,0,0,0,.549-1.352,1.084,1.084,0,0,0-1.271-.328m-.256,4.568a.892.892,0,1,0-1.418,1.082,6.191,6.191,0,0,0,7.134,1.915c3.776-1.429,4.607-5.944,3.714-6.57a1.414,1.414,0,0,0-.871-.152l-2.851.968c-.4.136-.534.851-.379,1.143a1.058,1.058,0,0,0,1.157.479l1.239-.365a4.468,4.468,0,0,1-3.439,3.06,4.527,4.527,0,0,1-4.287-1.561" transform="translate(-136.777 -136.713)" fill="#fff"/>
        <path id="Path_1284603" data-name="Path 1284603" d="M181.426,10.061l-6.695.028.027-6.693Z" transform="translate(-145.912 -2.835)" fill="#fff"/>
        <rect id="Rectangle_468786" data-name="Rectangle 468786" width="7.188" height="1.796" transform="translate(5.441 34.188)" fill="#fff"/>
      </g>
    </g>
  </g>
</svg>
