<svg xmlns="http://www.w3.org/2000/svg" xmlns:xlink="http://www.w3.org/1999/xlink" width="129" height="129" viewBox="0 0 129 129">
  <defs>
    <clipPath id="clip-path">
      <rect id="Rectángulo_456296" data-name="Rectángulo 456296" width="129" height="129" fill="none"/>
    </clipPath>
    <clipPath id="clip-path-3">
      <rect id="Rectángulo_468426" data-name="Rectángulo 468426" width="84" height="64.582" fill="#19538d"/>
    </clipPath>
  </defs>
  <g id="Grupo_1179967" data-name="Grupo 1179967" transform="translate(-1122.059 -5874)">
    <g id="Grupo_1179964" data-name="Grupo 1179964" transform="translate(92 -3561)">
      <g id="Grupo_1179952" data-name="Grupo 1179952" transform="translate(1030.059 9435)" clip-path="url(#clip-path)">
        <path id="Trazado_999645" data-name="Trazado 999645" d="M1.5,5.146H106.366A15.892,15.892,0,0,1,122.3,21V125.366H17.429A15.892,15.892,0,0,1,1.5,109.513Z" transform="translate(0.491 1.653)" fill="#d7f1fe"/>
      </g>
      <g id="Grupo_1179957" data-name="Grupo 1179957" transform="translate(1030.059 9435)">
        <g id="Grupo_1179956" data-name="Grupo 1179956" clip-path="url(#clip-path)">
          <path id="Trazado_999651" data-name="Trazado 999651" d="M93.818,30a6.606,6.606,0,1,1-6.637,6.605A6.622,6.622,0,0,1,93.818,30" transform="translate(28.545 9.633)" fill="#19538d"/>
          <path id="Trazado_999652" data-name="Trazado 999652" d="M64.818,0a6.606,6.606,0,1,1-6.637,6.605A6.622,6.622,0,0,1,64.818,0" transform="translate(19.05 0)" fill="#19538d"/>
          <path id="Trazado_999653" data-name="Trazado 999653" d="M122.3,44.586v80.78H17.429A15.892,15.892,0,0,1,1.5,109.513V5.146H84.275" transform="translate(0.491 1.653)" fill="none" stroke="#19538d" stroke-miterlimit="10" stroke-width="4"/>
        </g>
      </g>
    </g>
    <g id="Grupo_1179965" data-name="Grupo 1179965" transform="translate(1141.059 5897)">
      <rect id="Rectángulo_456311" data-name="Rectángulo 456311" width="87.124" height="87.753" transform="translate(1 -0.189)" fill="none"/>
      <g id="Grupo_1214763" data-name="Grupo 1214763" transform="translate(3 11.81)">
        <g id="Grupo_1214762" data-name="Grupo 1214762" clip-path="url(#clip-path-3)">
          <path id="Trazado_1284118" data-name="Trazado 1284118" d="M188.381,112.072l-3.289,1.287c.2,1.1-.193,2.677-1.488,2.75a36.7,36.7,0,0,1-5.006-.03c-1.234-.1-1.466-1.75-1.277-2.672l-3.361-1.383c-.545.871-2.007,1.822-2.883.986l-3.114-2.973a2.792,2.792,0,0,1-.749-1.69,3.07,3.07,0,0,1,1.26-1.759l-1.393-3.423c-1.061.256-2.654-.122-2.681-1.341l-.1-4.554a2.167,2.167,0,0,1,.76-1.555,4.577,4.577,0,0,1,2.021-.308l1.416-3.339c-1.08-.578-1.761-1.981-.959-2.874,1.064-1.184,2.193-2.306,3.355-3.407.964-.913,2.509-.17,3.054.854l3.282-1.367a5.07,5.07,0,0,1,.434-2.137c.409-.577,1.354-.682,2.191-.763l.006-5.6c0-.482.534-1.308,1.078-1.31L190,75.444a4.465,4.465,0,0,1,5.026-3.176,4.548,4.548,0,0,1,.2,8.946A4.48,4.48,0,0,1,190.01,78.1l-7.5-.009.013,4.309a3.531,3.531,0,0,1,2.066.573,3.384,3.384,0,0,1,.53,2.286l3.275,1.355a4.416,4.416,0,0,1,1.5-1.175,2.711,2.711,0,0,1,1.988.663l2.587,2.609a2.447,2.447,0,0,1,.635,1.706,3.489,3.489,0,0,1-1.171,1.722l1.3,3.222a4.085,4.085,0,0,1,2.111.417,2.557,2.557,0,0,1,.747,2.212l6.115.041a1.412,1.412,0,0,1,1.195,1.431l-.009,8.678a4.479,4.479,0,0,1,3.127,5.2,4.525,4.525,0,0,1-8.9,0,4.488,4.488,0,0,1,3.124-5.213l0-7.47h-4.609a3.654,3.654,0,0,1-.58,2.023,3.188,3.188,0,0,1-2.277.533l-1.429,3.308c.89.466,1.837,2.019.963,2.926l-3.113,3.23a2.46,2.46,0,0,1-1.627.6,3.986,3.986,0,0,1-1.687-1.2m7.852-35.312a1.9,1.9,0,1,0-1.9,1.9,1.9,1.9,0,0,0,1.9-1.9m-13.794,36.792a3.566,3.566,0,0,1,.491-2.358,22.161,22.161,0,0,0,5.406-2.22,3.868,3.868,0,0,1,2.053,1.285l1.741-1.828c-.748-.551-1.532-1.46-1.2-2.088a24.206,24.206,0,0,0,2.118-5.216,3.643,3.643,0,0,1,2.358-.542l.035-2.555c-.739.072-1.984.031-2.32-.459a38.387,38.387,0,0,0-2.224-5.4c-.3-.62.707-1.585,1.225-2l-1.884-1.83c-.418.643-1.353,1.544-1.951,1.244a34.7,34.7,0,0,0-5.245-2.167c-.62-.2-.679-1.481-.527-2.338l-2.62,0c.114.821.03,2.112-.526,2.3a38.84,38.84,0,0,0-5.262,2.173c-.626.313-1.52-.465-2.082-1.233l-1.837,1.87c.792.563,1.579,1.446,1.222,2.122a26.222,26.222,0,0,0-2.081,5.041c-.21.7-1.337.794-2.329.593v2.674c.919-.1,2.135-.034,2.348.706a27.279,27.279,0,0,0,2.094,5.074c.3.589-.607,1.525-1.237,2.017l1.836,1.837c.473-.593,1.439-1.51,2-1.225a27.555,27.555,0,0,0,5.015,2.085c.815.241,1.019,1.233.812,2.351Zm23.514-1.071a1.9,1.9,0,1,0-1.9,1.9,1.9,1.9,0,0,0,1.9-1.9" transform="translate(-124.584 -54.753)" fill="#19538d"/>
          <path id="Trazado_1284119" data-name="Trazado 1284119" d="M82.785,18.353a2.825,2.825,0,0,1-.56,1.641,3.072,3.072,0,0,1-1.886.531l-1.083,2.462a5.24,5.24,0,0,1,.972,1.385,2.34,2.34,0,0,1-.62,1.793l-2.486,2.412a1.779,1.779,0,0,1-2.774-.591l-2.635,1.062c.189.994-.312,2.355-1.387,2.382l-3.689.092a2.413,2.413,0,0,1-1.525-.585,4.788,4.788,0,0,1-.481-1.9l-2.419-.978a9.918,9.918,0,0,1-1.534.953c-.446.186-1.324-.375-1.666-.716l-2.109-2.109c-.332-.331-.856-1.127-.745-1.553a6.894,6.894,0,0,1,.928-1.708l-.936-2.391a3.687,3.687,0,0,1-1.9-.456,3.334,3.334,0,0,1-.622-1.77L47.6,18.3a1.4,1.4,0,0,1-1.436-1.369l-.009-7.975A4.622,4.622,0,0,1,42.99,3.8a4.58,4.58,0,0,1,9.041.093,4.6,4.6,0,0,1-3.236,5.078l-.005,6.713,4.834-.015a3.7,3.7,0,0,1,.568-1.706,2.82,2.82,0,0,1,1.907-.487l1.076-2.606c-.881-.574-1.425-1.888-.661-2.676l2.75-2.834c.765-.789,1.894-.5,2.939.544l2.448-1.023a5.186,5.186,0,0,1,.408-1.756,2.28,2.28,0,0,1,1.563-.709h3.042a2.564,2.564,0,0,1,1.641.6,4.344,4.344,0,0,1,.5,1.874l2.333.98,1.511-.922c.376-.229,1.359.25,1.683.572l2.349,2.335a2.541,2.541,0,0,1,.583,1.45,2.861,2.861,0,0,1-1.006,1.55l1.037,2.65c1.1-.232,2.381.28,2.408,1.472ZM49.439,4.556A1.937,1.937,0,1,0,47.5,6.493a1.937,1.937,0,0,0,1.937-1.937M69.092,28.539c-.086-1.162.385-1.712,1.251-1.913,3.255-.754,3.936-2.773,5.593-.64l1.256-1.207-.96-1.3c-.325-.441,1.02-1.913,1.62-4.31.264-1.056.916-1.536,2.232-1.24l.036-1.871c-1.219.245-1.942-.181-2.214-1.145-1.019-3.605-2.74-4.063-.7-5.7L75.962,7.928c-1.56,2.2-2.334.181-5.476-.576a1.708,1.708,0,0,1-1.36-2.288l-1.887.085c.325,1.372-.207,1.936-1.228,2.178-3.246.771-4.03,2.828-5.487.567A11.6,11.6,0,0,0,59.168,9.27c.837.569,1.228,1.3.867,1.977a22.375,22.375,0,0,0-1.716,4.175c-.161.522-1.1.76-1.915.72l-.057,1.725c2.544-.3,1.726,1.154,3.676,4.782.385.716-.105,1.576-.849,2.1l1.186,1.185,1.282-.914c.283-.2,1.075.2,1.4.382,3.018,1.661,4.428.864,4.331,3.2.172.378,1.576.364,1.716-.066" transform="translate(-32.549 0)" fill="#19538d"/>
          <path id="Trazado_1284120" data-name="Trazado 1284120" d="M20.651,160.537l-2.581-1a1.839,1.839,0,0,1-2.914.443l-2.546-2.536c-.745-.742-.571-1.928.536-2.879l-1-2.457a5.8,5.8,0,0,1-1.821-.468,2.849,2.849,0,0,1-.689-1.8H5.851l0,7.393a4.64,4.64,0,0,1,3.181,4.925,4.476,4.476,0,0,1-4.275,4,4.54,4.54,0,0,1-1.564-8.87l.02-8.8A1.308,1.308,0,0,1,4.376,147.2l5.277-.049a3.356,3.356,0,0,1,.53-1.7,2.974,2.974,0,0,1,1.885-.511L13.2,142.4c-1.006-.708-1.455-2.005-.585-2.885l2.547-2.577a2.4,2.4,0,0,1,1.439-.519,3.074,3.074,0,0,1,1.535,1.018l2.63-1.123a1.784,1.784,0,0,1,1.768-2.364l3.642.03c1.171.01,1.715,1.258,1.488,2.368l2.678,1.119c.5-.837,1.718-1.476,2.527-.762a40.884,40.884,0,0,1,3.04,3.013,1.712,1.712,0,0,1-.658,2.585l1.045,2.674c1.188-.206,2.437.364,2.436,1.578l0,3.854c0,1.176-1.288,1.762-2.441,1.6l-1.043,2.643a1.693,1.693,0,0,1,.554,2.716l-2.543,2.587a2.42,2.42,0,0,1-1.388.593,2.975,2.975,0,0,1-1.527-1l-2.69,1.019c.254,1-.24,2.334-1.257,2.357l-3.907.091a2.252,2.252,0,0,1-1.422-.635,4.792,4.792,0,0,1-.41-1.846m4.383-.308c.049-.948.22-1.67.611-1.8a28.553,28.553,0,0,0,4.165-1.714c.759-.39,1.406-.127,2.1.8l1.379-1.359c-1.17-.717-1.278-1.436-.769-2.308,1.27-2.177,1.463-4.21,1.941-4.274l1.632-.219.013-1.809c-1.2.232-1.993-.136-2.241-1.206-.769-3.32-2.872-3.97-.571-5.609l-1.381-1.262c-1.6,2.107-2.174.239-5.521-.635-.994-.26-1.434-.825-1.3-2.115A4.066,4.066,0,0,0,23.3,136.7c.18,1.289-.285,1.856-1.246,2.11-3.462.917-3.94,2.776-5.594.633L15.2,140.8c.8.6,1.19,1.295.855,1.916a19.239,19.239,0,0,0-1.648,3.989c-.216.743-1.127,1-2.042.866l-.018,1.9c1.251-.277,1.949.147,2.207,1.193.824,3.337,2.766,3.909.609,5.556l1.285,1.3c.7-.951,1.483-1.252,2.386-.724,3.088,1.8,4.773.954,4.5,3.549ZM6.426,161.622a1.9,1.9,0,1,0-1.9,1.9,1.9,1.9,0,0,0,1.9-1.9" transform="translate(0 -101.574)" fill="#19538d"/>
          <path id="Trazado_1284121" data-name="Trazado 1284121" d="M213.237,153.734a9.774,9.774,0,1,1-9.774-9.774,9.774,9.774,0,0,1,9.774,9.774m-7.482-2.778a3.868,3.868,0,0,1,.789-.7,1.616,1.616,0,0,1,1.181.215l2.817,2.928a7.053,7.053,0,0,0-7.392-6.8,7.137,7.137,0,1,0,7.4,7.306c-1.487,1.921-3.237,4.108-4.441,3.049a1.392,1.392,0,0,1-.115-1.982l1.22-1.29-1.087-1.066a2.518,2.518,0,0,1-.5-1.468l-.1-.058-1.626,6.083a1.425,1.425,0,0,1-1.483.858,1.856,1.856,0,0,1-1.167-1.432l-1.08.629c-.273.159-.972-.244-1.213-.487l-2.057-2.067c-.291-.293-.521-1.275-.237-1.573l2.24-2.345a1.356,1.356,0,0,1,2.084-.052c.554.651.292,1.389-.327,2.058l-.938,1.013a6.374,6.374,0,0,1,1.744,2.347l1.555-5.874a1.327,1.327,0,0,1,2.569.539Z" transform="translate(-146.869 -109.161)" fill="#19538d"/>
          <path id="Trazado_1284122" data-name="Trazado 1284122" d="M129.347,43.544a8.5,8.5,0,1,1-8.5-8.5,8.5,8.5,0,0,1,8.5,8.5m-2.631,0a5.861,5.861,0,1,0-5.861,5.861,5.861,5.861,0,0,0,5.861-5.861" transform="translate(-85.191 -26.574)" fill="#19538d"/>
          <path id="Trazado_1284123" data-name="Trazado 1284123" d="M81.968,167.393a8.5,8.5,0,1,1-8.5-8.5,8.5,8.5,0,0,1,8.5,8.5m-2.63,0a5.862,5.862,0,1,0-5.862,5.862,5.862,5.862,0,0,0,5.862-5.862" transform="translate(-49.269 -120.487)" fill="#19538d"/>
        </g>
      </g>
    </g>
  </g>
</svg>
