<svg xmlns="http://www.w3.org/2000/svg" xmlns:xlink="http://www.w3.org/1999/xlink" width="396" height="256.768" viewBox="0 0 396 256.768">
  <defs>
    <clipPath id="clip-path">
      <rect id="Rectángulo_462695" data-name="Rectángulo 462695" width="369.344" height="244.966" fill="none"/>
    </clipPath>
    <clipPath id="clip-path-2">
      <path id="Trazado_1279201" data-name="Trazado 1279201" d="M193.015,0c-16.422,0-29.733,14.519-29.733,32.428,0,.19.01.381.012.573-4.89-8.975-13.864-14.993-24.13-14.993a27.218,27.218,0,0,0-21.946,11.543c-5.985-10.243-16.484-17.044-28.446-17.044-18.621,0-33.715,16.461-33.715,36.768A39.317,39.317,0,0,0,58.61,65.7c-6.124.98-10.83,6.717-10.83,13.667,0,.114.012.223.016.337-8.891,2.405-15.478,11.163-15.478,21.6a24.067,24.067,0,0,0,1.022,6.955,22.611,22.611,0,0,0-2.738-.172c-13.509,0-24.457,11.945-24.457,26.675a28.172,28.172,0,0,0,4.788,15.853A36.486,36.486,0,0,0,0,176.98c0,19.271,14.228,34.909,31.85,35.122,3.525,13.62,15,23.6,28.611,23.6H307.208c21.921,0,39.692-19.381,39.692-43.288a47.142,47.142,0,0,0-1.112-10.164c13.656-4.7,23.556-18.624,23.556-35.068,0-20.307-15.094-36.77-33.713-36.77a31.237,31.237,0,0,0-13.171,2.914c-1.741-8.156-7.454-14.643-14.8-16.908a45.052,45.052,0,0,0,12.6-31.623c0-23.906-17.769-43.286-39.688-43.286-12.612,0-23.84,6.421-31.11,16.42a27.41,27.41,0,0,0-21.488-10.737,26.317,26.317,0,0,0-5.533.591C220.376,12.075,207.991,0,193.015,0Z" transform="translate(0 0)" fill="#fff7df"/>
    </clipPath>
    <clipPath id="clip-path-3">
      <rect id="Rectángulo_464454" data-name="Rectángulo 464454" width="341.43" height="238.728" fill="none"/>
    </clipPath>
    <clipPath id="clip-path-4">
      <rect id="Rectángulo_464456" data-name="Rectángulo 464456" width="207.193" height="127.933" rx="13" fill="none"/>
    </clipPath>
    <clipPath id="clip-path-6">
      <path id="Trazado_1282521" data-name="Trazado 1282521" d="M836.073,191.9l.217,6.022,9.788-.043.317-10.209Z" transform="translate(-836.073 -187.672)" fill="none"/>
    </clipPath>
    <clipPath id="clip-path-8">
      <path id="Trazado_1282552" data-name="Trazado 1282552" d="M733.643,225.5a60.856,60.856,0,0,0-8.57,1.805,7.186,7.186,0,0,0-2.882,1c-4.434,2.624-12.7,20.588-15.289,24.137l-16.324-8.958s-4.467,5.52-6.635,8.053c0,0,20.744,19.658,26.747,16.9,3.015-1.386,7.89-11.364,12-20.956a6.348,6.348,0,0,0-.078,1.246c.044.892.106,1.9.178,2.959h0c.39,5.809,1.067,13.386.808,14.119,0,0,5.52,2.074,22.895.145l9.193-1.245c-.933-15.968-1.627-36.333-1.627-36.333v-.009s-8.669-2.709-10.761-2.863Z" transform="translate(-683.944 -225.496)" fill="none"/>
    </clipPath>
    <clipPath id="clip-path-10">
      <path id="Trazado_1282565" data-name="Trazado 1282565" d="M884.239,234.731c-5.19,3.321,5.059,18.549,5.059,18.549l7.628,12.464-9.706,5.749c1.779,2.177,3.849,5.824,5.733,7.913,19.783-4.118,23.422-9.589,22.23-12.3-8.331-18.951-20.2-33.223-27.967-33.225a5.414,5.414,0,0,0-2.978.851" transform="translate(-882.772 -233.88)" fill="none"/>
    </clipPath>
    <clipPath id="clip-path-12">
      <path id="Trazado_1282584" data-name="Trazado 1282584" d="M183.717,197.881l9.789.043.217-6.022-10.322-4.23Z" transform="translate(-183.4 -187.672)" fill="none"/>
    </clipPath>
    <clipPath id="clip-path-14">
      <path id="Trazado_1282600" data-name="Trazado 1282600" d="M158.819,225.5c-2.092.154-10.762,2.863-10.762,2.863v.009s-.693,20.365-1.627,36.333l9.193,1.245c17.375,1.93,22.895-.145,22.895-.145-.259-.733.418-8.309.808-14.119.072-1.063.133-2.067.178-2.959a6.367,6.367,0,0,0-.078-1.246l.5-19.176a7.185,7.185,0,0,0-2.882-1,60.846,60.846,0,0,0-8.569-1.805Z" transform="translate(-146.43 -225.496)" fill="none"/>
    </clipPath>
    <clipPath id="clip-path-16">
      <path id="Trazado_1282605" data-name="Trazado 1282605" d="M229.648,232.7s14.821,40.793,21.468,43.849,29.62-18.714,29.62-18.714c-2.4-2.805-7.348-8.918-7.348-8.918l-18.077,9.92c-2.867-3.931-12.022-23.824-16.932-26.73a7.713,7.713,0,0,0-3.971-1.154,7.608,7.608,0,0,0-4.761,1.747" transform="translate(-229.648 -230.95)" fill="none"/>
    </clipPath>
    <clipPath id="clip-path-18">
      <path id="Trazado_1282627" data-name="Trazado 1282627" d="M68.265,267.1c-1.192,2.711,2.448,8.183,22.23,12.3,1.884-2.089,3.954-5.736,5.733-7.913l-9.705-5.749,7.628-12.464s10.25-15.228,5.06-18.549a5.413,5.413,0,0,0-2.978-.851c-7.768,0-19.637,14.274-27.967,33.225" transform="translate(-68.062 -233.88)" fill="none"/>
    </clipPath>
  </defs>
  <g id="Grupo_1213607" data-name="Grupo 1213607" transform="translate(-1015.422 -3335.146)">
    <path id="Trazado_1273937" data-name="Trazado 1273937" d="M0,0H396V256.768H0Z" transform="translate(1015.422 3335.146)" fill="none"/>
    <g id="Grupo_1212993" data-name="Grupo 1212993" transform="translate(1027.455 3338.48)">
      <g id="Grupo_1212992" data-name="Grupo 1212992" clip-path="url(#clip-path)">
        <g id="Grupo_1212962" data-name="Grupo 1212962" transform="translate(0 0)">
          <g id="Grupo_1212961" data-name="Grupo 1212961" clip-path="url(#clip-path-2)">
            <path id="Trazado_1279268" data-name="Trazado 1279268" d="M0,0,374.772-.107,374.7,244.4l-374.772.107Z" transform="translate(-5.527 0.133) rotate(-1.36)" fill="#fff7df"/>
          </g>
        </g>
        <g id="Grupo_1214372" data-name="Grupo 1214372" transform="translate(16.967 5.206)">
          <g id="Grupo_1214339" data-name="Grupo 1214339">
            <g id="Grupo_1214338" data-name="Grupo 1214338" clip-path="url(#clip-path-3)">
              <path id="Trazado_1282487" data-name="Trazado 1282487" d="M174.666,15l-1.939-.937a1.1,1.1,0,0,1-.624-1.016q0-.15,0-.3,0-.32-.022-.635a1.1,1.1,0,0,1,.626-1.059l1.946-.931a1.106,1.106,0,0,0,.52-1.475L173.687,5.53a1.106,1.106,0,0,0-1.475-.52l-2.029.971a1.1,1.1,0,0,1-1.2-.161q-.342-.3-.714-.572a1.1,1.1,0,0,1-.422-1.113l.438-2.094a1.106,1.106,0,0,0-.856-1.309L164.047.024a1.106,1.106,0,0,0-1.309.856l-.391,1.869a1.1,1.1,0,0,1-.9.864,9.158,9.158,0,0,0-1.166.258,1.1,1.1,0,0,1-1.185-.4l-1.037-1.388a1.106,1.106,0,0,0-1.548-.224l-2.767,2.068a1.106,1.106,0,0,0-.224,1.548L154.7,7.06a1.1,1.1,0,0,1,.083,1.193,9.223,9.223,0,0,0-.461.954,1.1,1.1,0,0,1-.969.673l-1.963.085a1.106,1.106,0,0,0-1.057,1.153l.15,3.451a1.106,1.106,0,0,0,1.153,1.057l1.6-.07a1.1,1.1,0,0,1,1.067.677,9.188,9.188,0,0,0,.556,1.134,1.093,1.093,0,0,1-.065,1.178l-1.3,1.825a1.106,1.106,0,0,0,.261,1.542l2.817,2a1.106,1.106,0,0,0,1.542-.261l1.111-1.564a1.1,1.1,0,0,1,1.188-.426,9.2,9.2,0,0,0,1.34.26,1.1,1.1,0,0,1,.95.876l.285,1.4a1.106,1.106,0,0,0,1.3.864l3.386-.688a1.106,1.106,0,0,0,.864-1.3l-.394-1.939a1.1,1.1,0,0,1,.393-1.092q.357-.278.686-.59a1.1,1.1,0,0,1,1.235-.188l1.738.84a1.106,1.106,0,0,0,1.477-.515l1.5-3.11A1.106,1.106,0,0,0,174.666,15m-11.8,4.09a6.343,6.343,0,1,1,6.343-6.343,6.343,6.343,0,0,1-6.343,6.343" transform="translate(-101.508 0)" fill="#dce0d2"/>
              <path id="Trazado_1282488" data-name="Trazado 1282488" d="M455.991,630.941,454.052,630a1.1,1.1,0,0,1-.624-1.016c0-.1,0-.2,0-.3q0-.32-.022-.635a1.1,1.1,0,0,1,.626-1.059l1.946-.931a1.106,1.106,0,0,0,.52-1.475l-1.491-3.116a1.106,1.106,0,0,0-1.475-.52l-2.029.971a1.1,1.1,0,0,1-1.2-.161q-.342-.3-.714-.572a1.1,1.1,0,0,1-.422-1.113l.438-2.094a1.106,1.106,0,0,0-.856-1.309l-3.382-.707a1.106,1.106,0,0,0-1.309.856l-.391,1.869a1.1,1.1,0,0,1-.9.864,9.163,9.163,0,0,0-1.166.258,1.1,1.1,0,0,1-1.185-.4l-1.037-1.388a1.106,1.106,0,0,0-1.548-.224l-2.768,2.068a1.106,1.106,0,0,0-.224,1.548L436.028,623a1.1,1.1,0,0,1,.083,1.193,9.21,9.21,0,0,0-.461.954,1.1,1.1,0,0,1-.969.673l-1.964.085a1.106,1.106,0,0,0-1.057,1.153l.15,3.451a1.106,1.106,0,0,0,1.153,1.057l1.6-.07a1.1,1.1,0,0,1,1.067.677,9.184,9.184,0,0,0,.556,1.134,1.093,1.093,0,0,1-.065,1.178l-1.3,1.825a1.106,1.106,0,0,0,.261,1.542l2.817,2a1.106,1.106,0,0,0,1.542-.261l1.111-1.564a1.1,1.1,0,0,1,1.188-.427,9.165,9.165,0,0,0,1.34.26,1.1,1.1,0,0,1,.949.876l.285,1.4a1.106,1.106,0,0,0,1.3.864l3.385-.688a1.107,1.107,0,0,0,.864-1.3l-.394-1.939a1.105,1.105,0,0,1,.393-1.092q.357-.278.686-.59a1.1,1.1,0,0,1,1.236-.188l1.738.84a1.106,1.106,0,0,0,1.477-.515l1.5-3.11a1.106,1.106,0,0,0-.515-1.477m-11.8,4.09a6.343,6.343,0,1,1,6.343-6.343,6.343,6.343,0,0,1-6.343,6.343" transform="translate(-291.463 -415.894)" fill="#dce0d2"/>
              <path id="Trazado_1282489" data-name="Trazado 1282489" d="M365.914,166.554H187.963a14.621,14.621,0,0,1-14.621-14.62V53.241a14.621,14.621,0,0,1,14.621-14.62H365.914a14.62,14.62,0,0,1,14.62,14.62v98.692a14.62,14.62,0,0,1-14.62,14.62" transform="translate(-117.043 -26.078)" fill="#1e535a"/>
            </g>
          </g>
          <g id="Grupo_1214341" data-name="Grupo 1214341" transform="translate(56.298 12.543)">
            <g id="Grupo_1214340" data-name="Grupo 1214340" clip-path="url(#clip-path-4)">
              <rect id="Rectángulo_464455" data-name="Rectángulo 464455" width="213.295" height="21.786" transform="translate(0 -6.843)" fill="#69d7e5"/>
            </g>
          </g>
          <g id="Grupo_1214343" data-name="Grupo 1214343">
            <g id="Grupo_1214342" data-name="Grupo 1214342" clip-path="url(#clip-path-3)">
              <path id="Trazado_1282490" data-name="Trazado 1282490" d="M259.327,59.339H257a1.654,1.654,0,0,1-1.654-1.654V55.974A1.654,1.654,0,0,1,257,54.321h2.33a1.654,1.654,0,0,1,1.654,1.653v1.711a1.654,1.654,0,0,1-1.654,1.654" transform="translate(-172.412 -36.678)" fill="#fbfcf2"/>
              <path id="Trazado_1282491" data-name="Trazado 1282491" d="M227.887,59.339h-2.33a1.654,1.654,0,0,1-1.654-1.654V55.974a1.654,1.654,0,0,1,1.654-1.653h2.33a1.654,1.654,0,0,1,1.654,1.653v1.711a1.654,1.654,0,0,1-1.654,1.654" transform="translate(-151.183 -36.678)" fill="#fbfcf2"/>
              <path id="Trazado_1282492" data-name="Trazado 1282492" d="M290.558,59.339h-2.33a1.654,1.654,0,0,1-1.654-1.654V55.974a1.654,1.654,0,0,1,1.654-1.653h2.33a1.654,1.654,0,0,1,1.654,1.653v1.711a1.654,1.654,0,0,1-1.654,1.654" transform="translate(-193.5 -36.678)" fill="#fbfcf2"/>
              <path id="Trazado_1282493" data-name="Trazado 1282493" d="M762.666,48.555a6.689,6.689,0,0,1,1.762.884,9.186,9.186,0,0,1,3.709,4.529,3.169,3.169,0,0,1-.016,2.493,1.545,1.545,0,0,1-2.16.644,3.348,3.348,0,0,1-.811-1.677c-.743-2.114-3.084-3.231-5.295-3.6-1.1-.182-3.909-1.02-2.32-2.534,1.135-1.08,3.733-1.165,5.131-.743" transform="translate(-511.179 -32.626)" fill="#d5f4f8"/>
              <path id="Trazado_1282494" data-name="Trazado 1282494" d="M222.114,150.334h93.968a4.9,4.9,0,0,0,4.9-4.895v-34.41a4.9,4.9,0,0,0-4.9-4.895H222.114a4.895,4.895,0,0,0-4.895,4.895v34.41a4.895,4.895,0,0,0,4.895,4.895" transform="translate(-146.67 -71.664)" fill="#fbfcf2"/>
              <path id="Rectángulo_464457" data-name="Rectángulo 464457" d="M13.218,0H81.391A13.219,13.219,0,0,1,94.61,13.219V24.068A13.218,13.218,0,0,1,81.392,37.286H13.218A13.218,13.218,0,0,1,0,24.068V13.218A13.218,13.218,0,0,1,13.218,0Z" transform="translate(75.309 37.928)" fill="none" stroke="#1e535a" stroke-linecap="round" stroke-linejoin="round" stroke-width="2.886"/>
              <line id="Línea_3573" data-name="Línea 3573" x1="91.146" y2="35.024" transform="translate(76.977 39.149)" fill="none" stroke="#1e535a" stroke-linecap="round" stroke-linejoin="round" stroke-width="2.886"/>
              <line id="Línea_3574" data-name="Línea 3574" x2="91.402" y2="35.293" transform="translate(77.104 38.802)" fill="none" stroke="#1e535a" stroke-linecap="round" stroke-linejoin="round" stroke-width="2.886"/>
              <rect id="Rectángulo_464458" data-name="Rectángulo 464458" width="96.987" height="43.273" transform="translate(187.39 36.51)" fill="none" stroke="#a4e7f0" stroke-linecap="round" stroke-linejoin="round" stroke-width="4.507" stroke-dasharray="7.512 18.028"/>
              <path id="Trazado_1282498" data-name="Trazado 1282498" d="M868.444,243.291h2.84a.769.769,0,0,0,.769-.769v-2.84a.769.769,0,0,0-.769-.769h-2.84a.769.769,0,0,0-.769.769v2.84a.77.77,0,0,0,.769.769" transform="translate(-585.869 -161.317)" fill="#bfe34f"/>
              <path id="Trazado_1282501" data-name="Trazado 1282501" d="M512.374,305.14H479.366a2.862,2.862,0,0,1,0-5.724h33.008a2.862,2.862,0,1,1,0,5.724" transform="translate(-321.744 -202.171)" fill="#fbfcf2"/>
              <path id="Trazado_1282502" data-name="Trazado 1282502" d="M624.256,305.14H610.614a2.862,2.862,0,1,1,0-5.724h13.642a2.862,2.862,0,1,1,0,5.724" transform="translate(-410.365 -202.171)" fill="#fbfcf2"/>
              <path id="Trazado_1282503" data-name="Trazado 1282503" d="M535.536,345.674H479.219a2.862,2.862,0,1,1,0-5.724h56.317a2.862,2.862,0,0,1,0,5.724" transform="translate(-321.644 -229.54)" fill="#fbfcf2"/>
              <path id="Trazado_1282504" data-name="Trazado 1282504" d="M525.568,385.474H479.22a2.862,2.862,0,1,1,0-5.724h46.348a2.862,2.862,0,0,1,0,5.724" transform="translate(-321.645 -256.414)" fill="#fbfcf2"/>
              <path id="Trazado_1282505" data-name="Trazado 1282505" d="M833.261,153.347A19.275,19.275,0,0,0,831,151.033c-1.583-1.219-1.918-3.32-1.921-4.868,0-1.385.694-2.693.988-4.243.686-3.612-.894-6.561-2.35-8.788-6.526-9.982-19.465-3.135-20.2-2.9-10.3.444-6.2,10.7-5.777,13.078.709,3.973-.526,7.577-1.921,11.325l-.042.114c-1.722,4.7.669,9.121,6.546,11.971,3.561,1.727,7.494,3.53,11.565,4.128.688.1,1.375.178,2.056.228,6.358.472,11.916-1.8,14.506-5.927,2.519-4.016,1.962-8.034-1.19-11.8" transform="translate(-539.655 -86.242)" fill="#1d3136"/>
              <rect id="Rectángulo_464459" data-name="Rectángulo 464459" width="10.313" height="9.338" transform="translate(261.279 216.479)" fill="#e06741"/>
              <path id="Trazado_1282506" data-name="Trazado 1282506" d="M743.1,703.751l30.862-.026a4.311,4.311,0,0,0,.4-1.715c.191-2.611-.6-11.06-.6-11.328,0-2.144-.9-1.771-.9-1.771-5.71,3.151-9.831-1.131-10.731-.02,0,0-.555.639-3,2.845s-6.614,3.665-10.16,5.153c-4.578,1.918-5.875,3.831-6.128,5.149a2.411,2.411,0,0,0,.255,1.714" transform="translate(-501.551 -465.023)" fill="#344866"/>
              <path id="Trazado_1282507" data-name="Trazado 1282507" d="M743.1,731.42l30.862-.026a4.311,4.311,0,0,0,.4-1.715l-31.521.027a2.411,2.411,0,0,0,.255,1.714" transform="translate(-501.551 -492.692)" fill="#fff"/>
              <path id="Trazado_1282508" data-name="Trazado 1282508" d="M792.839,695.575l1.987,1.816a.944.944,0,0,1-1.27,1.4l-2.152-1.948Z" transform="translate(-534.37 -469.664)" fill="#fff"/>
              <path id="Trazado_1282509" data-name="Trazado 1282509" d="M785.662,701.174l1.71,2.162a.944.944,0,0,1-1.479,1.173l-1.865-2.358Z" transform="translate(-529.389 -473.445)" fill="#fff"/>
              <path id="Trazado_1282510" data-name="Trazado 1282510" d="M777.6,705.65l1.7,2.153a.944.944,0,0,1-1.479,1.173l-1.938-2.536Z" transform="translate(-523.893 -476.467)" fill="#fff"/>
              <rect id="Rectángulo_464460" data-name="Rectángulo 464460" width="10.313" height="9.338" transform="translate(297.525 216.672)" fill="#e06741"/>
              <path id="Trazado_1282511" data-name="Trazado 1282511" d="M915.743,700c0,.071,0,.141,0,.209-.007.318-.021.6-.034.85-.032.54-.071.872-.071.872H897.718a9.841,9.841,0,0,1-.021-1.722,11.015,11.015,0,0,1,3.2-6.633c2.376-2.47,2.546-3.278,2.546-3.278s.231-2.146.3-2.286c.582-1.24,1.8-1.828,5.013-1.828,4.257,0,4.632,2.066,5.086,3.154a20.346,20.346,0,0,1,.708,2.529c.107.453.215.937.32,1.429.262,1.234.507,2.524.674,3.552a18.618,18.618,0,0,1,.2,3.152" transform="translate(-606.123 -463.321)" fill="#344866"/>
              <path id="Trazado_1282512" data-name="Trazado 1282512" d="M915.739,729.364c-.024,1.02-.105,1.721-.105,1.721H897.718a9.837,9.837,0,0,1-.021-1.721Z" transform="translate(-606.123 -492.479)" fill="#fff"/>
              <path id="Trazado_1282513" data-name="Trazado 1282513" d="M926.48,696.939a.322.322,0,0,1-.124-.037,5.369,5.369,0,0,0-4.085-.463c-.278.1-.535-.182-.574-.638a1.007,1.007,0,0,1,.433-1.013,5.951,5.951,0,0,1,4.607.5.99.99,0,0,1,.281,1.058c-.089.376-.313.613-.537.6" transform="translate(-622.342 -468.964)" fill="#fff"/>
              <path id="Trazado_1282514" data-name="Trazado 1282514" d="M923.518,704.6a.323.323,0,0,1-.126-.032,5.363,5.363,0,0,0-4.1-.306c-.275.114-.541-.162-.6-.616a1.007,1.007,0,0,1,.394-1.029,5.95,5.95,0,0,1,4.623.32.99.99,0,0,1,.321,1.047c-.074.38-.289.625-.514.616" transform="translate(-620.311 -474.205)" fill="#fff"/>
              <path id="Trazado_1282515" data-name="Trazado 1282515" d="M919.948,712.518a.321.321,0,0,1-.126-.031,5.364,5.364,0,0,0-4.1-.265c-.273.117-.543-.156-.6-.61a1.006,1.006,0,0,1,.383-1.033,5.951,5.951,0,0,1,4.626.273.99.99,0,0,1,.332,1.044c-.07.38-.283.628-.508.621" transform="translate(-617.893 -479.568)" fill="#fff"/>
              <path id="Trazado_1282516" data-name="Trazado 1282516" d="M833.5,388.584c-2.429-12.292-4.371-21.606-5.144-24.63a79.6,79.6,0,0,0-8.77-22.143c-8.382-.25-18.468-1.739-26.734-.6-6.189,10.229-9.386,27.761-10.824,47.373,0,0-1.321,50.767,0,61.859l24.107-.346-1.708-61.512c-.109-2.413-.244-4.384-.41-5.791-.23-1.95,2.722-2.37,3.176-.459.329,1.386.835,3.523,1.484,6.25,0,0,8.4,50.58,9.72,61.671h25.1Z" transform="translate(-527.646 -230.105)" fill="#644602"/>
              <path id="Trazado_1282518" data-name="Trazado 1282518" d="M895.921,354.291S910.8,397.7,916,458.854" transform="translate(-604.941 -239.223)" fill="none" stroke="#ffb851" stroke-linecap="round" stroke-linejoin="round" stroke-width="3.023"/>
              <path id="Trazado_1282519" data-name="Trazado 1282519" d="M836.1,192.163l.3,8.24,9.622-.053.393-12.678Z" transform="translate(-564.55 -126.719)" fill="#e06741"/>
            </g>
          </g>
          <g id="Grupo_1214345" data-name="Grupo 1214345" transform="translate(271.542 60.953)">
            <g id="Grupo_1214344" data-name="Grupo 1214344" clip-path="url(#clip-path-6)">
              <path id="Trazado_1282520" data-name="Trazado 1282520" d="M833.654,204.288s6.96-1.719,8.216-5.55l-7.994.384Z" transform="translate(-834.44 -195.144)" fill="#b74329"/>
            </g>
          </g>
          <g id="Grupo_1214347" data-name="Grupo 1214347">
            <g id="Grupo_1214346" data-name="Grupo 1214346" clip-path="url(#clip-path-3)">
              <path id="Trazado_1282522" data-name="Trazado 1282522" d="M817.721,147.872s-4.535,13.9,4.445,16.276c0,0,8.2,1.4,11.064-5.53l-.044-11.728-12.206-2.176Z" transform="translate(-551.366 -97.713)" fill="#e06741"/>
              <path id="Trazado_1282523" data-name="Trazado 1282523" d="M842.821,169.213c-.075.639.175,1.194.558,1.239s.754-.437.829-1.077-.175-1.194-.558-1.239-.754.437-.829,1.077" transform="translate(-569.078 -113.526)" fill="#1d3136"/>
              <path id="Trazado_1282524" data-name="Trazado 1282524" d="M822.13,168.576c-.04.642.24,1.183.625,1.207s.729-.478.769-1.121-.24-1.183-.625-1.207-.729.478-.769,1.121" transform="translate(-555.114 -113.068)" fill="#1d3136"/>
              <path id="Trazado_1282525" data-name="Trazado 1282525" d="M845.1,162.168a4.878,4.878,0,0,1,2.476.941.062.062,0,0,1-.052.11,9.725,9.725,0,0,0-2.121-.3,7.666,7.666,0,0,0-1.717.137.062.062,0,0,1-.07-.084,1.321,1.321,0,0,1,1.485-.8" transform="translate(-569.622 -109.498)" fill="#1d3136"/>
              <path id="Trazado_1282526" data-name="Trazado 1282526" d="M819.8,161.823a4.878,4.878,0,0,0-2.506.859.062.062,0,0,0,.049.111,9.75,9.75,0,0,1,2.13-.231,7.677,7.677,0,0,1,1.712.193.062.062,0,0,0,.073-.082,1.321,1.321,0,0,0-1.458-.851" transform="translate(-551.833 -109.266)" fill="#1d3136"/>
              <path id="Trazado_1282527" data-name="Trazado 1282527" d="M831.278,177.638l-.288.868a.477.477,0,0,0,.447.632l.525.031" transform="translate(-561.082 -119.944)" fill="none" stroke="#b74329" stroke-linecap="round" stroke-linejoin="round" stroke-width="1.076"/>
              <path id="Trazado_1282528" data-name="Trazado 1282528" d="M819.7,177.882c-.019.372-.536.648-1.155.616s-1.106-.358-1.087-.729.536-.648,1.155-.616,1.106.358,1.088.729" transform="translate(-551.959 -119.615)" fill="#b74329"/>
              <path id="Trazado_1282529" data-name="Trazado 1282529" d="M847.478,178.857c-.019.372-.536.648-1.155.616s-1.106-.358-1.087-.729.536-.648,1.155-.616,1.106.358,1.088.729" transform="translate(-570.717 -120.273)" fill="#b74329"/>
              <path id="Trazado_1282530" data-name="Trazado 1282530" d="M829.121,188.06a10.289,10.289,0,0,0,3.508-.136.068.068,0,0,1,.083.081,1.936,1.936,0,0,1-1.764,1.606,1.852,1.852,0,0,1-1.9-1.469.068.068,0,0,1,.076-.082" transform="translate(-559.785 -126.888)" fill="#b74329"/>
              <path id="Trazado_1282531" data-name="Trazado 1282531" d="M831.123,188.772c1.181-.048,1.508-.551,1.645-.824a10.2,10.2,0,0,1-3.476.13c.117.292.717.739,1.831.694" transform="translate(-559.952 -126.906)" fill="#fff"/>
              <path id="Trazado_1282532" data-name="Trazado 1282532" d="M818.7,140.542c2.112-.018,3.262-2.964,3.262-2.964,2.734,5.844,10.893,3.12,10.893,3.12s-.27,4.154,1.688,4.982l2.032.235-.235-9.32-10.85-3.465-6.942,4.479Z" transform="translate(-552.697 -89.893)" fill="#1d3136"/>
              <path id="Trazado_1282533" data-name="Trazado 1282533" d="M865.75,169.568c-.195,1.3-.159,3.129,1.576,3.252,1.21.086,2.1-1.742,2.3-3.039a1.79,1.79,0,0,0-1.608-2.318,2.173,2.173,0,0,0-2.264,2.1" transform="translate(-584.515 -113.068)" fill="#e06741"/>
              <path id="Trazado_1282534" data-name="Trazado 1282534" d="M871.484,171.72s-1.376.238-1.293,2.181" transform="translate(-587.566 -115.948)" fill="none" stroke="#b74329" stroke-linecap="round" stroke-linejoin="round" stroke-width="0.954"/>
              <path id="Trazado_1282535" data-name="Trazado 1282535" d="M693.125,282.836,675.9,271.229l-3.992,5.145c2.745,2.859,23.071,20.222,25.619,18.362,7.479-5.463-4.4-11.9-4.4-11.9" transform="translate(-453.682 -183.139)" fill="#e06741"/>
              <path id="Trazado_1282536" data-name="Trazado 1282536" d="M651.668,264.584s3.677,4.474,7.546,4.205c3.5-.243,3.448-6.165,2.75-6.875a58.886,58.886,0,0,0-5.181-3.378s-5.615,2.342-5.115,6.048" transform="translate(-439.996 -174.568)" fill="#e06741"/>
              <path id="Trazado_1282537" data-name="Trazado 1282537" d="M657.764,266.284s2.859-1.868,5.211-1.479l-1.052-3.746-2.116-1.79-3.571,5.87Z" transform="translate(-443.102 -175.063)" fill="#b74329"/>
              <path id="Trazado_1282538" data-name="Trazado 1282538" d="M650.12,273.369a.781.781,0,0,1-.44-.7,1.661,1.661,0,0,1,.428-1.246c.576-.466,3.892,1.733,3.847,2.076-.059.456-.382.979-.737.936a18.4,18.4,0,0,1-3.1-1.063" transform="translate(-438.675 -183.224)" fill="#e06741"/>
              <path id="Trazado_1282539" data-name="Trazado 1282539" d="M650.955,271.421l-.021.019c1.074.2,3.455,1.828,3.417,2.119a1.327,1.327,0,0,1-.439.842,1.531,1.531,0,0,0,.153.031c.355.043.678-.48.737-.936.044-.343-3.271-2.542-3.847-2.076" transform="translate(-439.522 -183.224)" fill="#b74329"/>
              <path id="Trazado_1282540" data-name="Trazado 1282540" d="M651.488,267.065a.555.555,0,0,1-.232-.63c.144-.451.431-1.171.8-1.2.538-.045,4.138,1.917,3.89,2.716s-.5.98-.744.984a24.907,24.907,0,0,1-3.712-1.868" transform="translate(-439.723 -179.09)" fill="#e06741"/>
              <path id="Trazado_1282541" data-name="Trazado 1282541" d="M653.38,265.232a.379.379,0,0,0-.187.077c1.211.537,3.287,1.773,3.154,2.484a1.37,1.37,0,0,1-.47.885,3.365,3.365,0,0,0,.649.255c.248,0,.5-.184.744-.984s-3.351-2.762-3.89-2.717" transform="translate(-441.047 -179.089)" fill="#b74329"/>
              <path id="Trazado_1282542" data-name="Trazado 1282542" d="M654.645,260.745a.754.754,0,0,1-.274-.741,1.976,1.976,0,0,1,.815-1.374c.767-.377,4.021,2.78,3.884,3.15s-.566,1.465-.957,1.331a32.718,32.718,0,0,1-3.468-2.365" transform="translate(-441.832 -174.611)" fill="#e06741"/>
              <path id="Trazado_1282543" data-name="Trazado 1282543" d="M657.2,258.607a10.17,10.17,0,0,1,2.616,2.662,1.481,1.481,0,0,1-.722,1.279,7.7,7.7,0,0,0,.938.566c.39.135.819-.96.957-1.33s-2.882-3.3-3.789-3.176" transform="translate(-443.755 -174.613)" fill="#b74329"/>
              <path id="Trazado_1282544" data-name="Trazado 1282544" d="M655.526,250.045l-6.361-5.3a.868.868,0,0,0-1.286.15.8.8,0,0,0,.216,1.055l5.768,5.433Z" transform="translate(-437.378 -165.107)" fill="#e06741"/>
              <path id="Trazado_1282545" data-name="Trazado 1282545" d="M665.387,257.934a9.01,9.01,0,0,0-.955,1.85l.69.649,2.76-.873Z" transform="translate(-448.636 -174.161)" fill="#b74329"/>
              <path id="Trazado_1282546" data-name="Trazado 1282546" d="M674.135,257.477a16.178,16.178,0,0,1-1.8-5.961c-.1-1.94-.489-4.125,1.151-5.765.343-.343,1.242-.223,1.292.259,0,.028-.005.057-.007.086a11.627,11.627,0,0,0-.039,1.8,13.182,13.182,0,0,0,1.957,6.423c.21.376-.842.745-1.02,1.139a3.92,3.92,0,0,1-1.538,2.024" transform="translate(-453.898 -165.803)" fill="#e06741"/>
              <path id="Trazado_1282547" data-name="Trazado 1282547" d="M678.576,249.017a.411.411,0,0,1-.271,0,.587.587,0,0,1-.3-.329,1.1,1.1,0,0,1,.613-1.461,11.628,11.628,0,0,0-.038,1.8" transform="translate(-457.738 -166.929)" fill="#ff9685"/>
              <path id="Trazado_1282548" data-name="Trazado 1282548" d="M730.077,232.5a6.715,6.715,0,0,0-7.885-.536c-4.434,2.624-12.7,20.588-15.289,24.137l-16.324-8.957s-4.467,5.52-6.635,8.053c0,0,20.744,19.658,26.747,16.9s19.386-39.6,19.386-39.6" transform="translate(-461.811 -155.925)" fill="#dce0d2"/>
              <path id="Trazado_1282549" data-name="Trazado 1282549" d="M834.427,228.359s-8.67-2.709-10.761-2.863h-9.651s-8.116,1.132-9.97,2.45l-.675,18.092a9.061,9.061,0,0,0-.389,2.686c.045.892.107,1.9.178,2.959h0c.39,5.809,1.067,13.386.808,14.118,0,0,7.408,2.786,32.088-1.1-.192-4.979-1.627-36.342-1.627-36.342" transform="translate(-542.182 -152.259)" fill="#dce0d2"/>
            </g>
          </g>
          <g id="Grupo_1214349" data-name="Grupo 1214349" transform="translate(222.133 73.237)">
            <g id="Grupo_1214348" data-name="Grupo 1214348" clip-path="url(#clip-path-8)">
              <path id="Trazado_1282550" data-name="Trazado 1282550" d="M804.881,213.291c-.161.25-.294.518-.448.773a29.076,29.076,0,0,0-3.833,9.526c-.246,1.292-.48,2.684.312,3.842,1.328,1.941,2.44,2.418,4.283,1.287,1.123-.689,2.24-1.384,3.3-2.162a.931.931,0,0,0,.417-.536,64.115,64.115,0,0,1,2.093-6.538,25.321,25.321,0,0,1,4.13-7.644,17.375,17.375,0,0,1,4.537-4.126c1.678-.972,3.111-.3,3.458,1.6a9.7,9.7,0,0,1-1.055,5.738,30.25,30.25,0,0,1-3.857,6.06,31.629,31.629,0,0,1-7.328,7.427.9.9,0,0,0-.432.651c-.2,1.127-.386,2.254-.495,3.393a10.051,10.051,0,0,0,.165,3.985c.759,2.444,1.907,2.734,3.692,1.369a1.381,1.381,0,0,1,.148-.12.95.95,0,0,0,.475-.88,33.782,33.782,0,0,1,3.992-14.474,10.715,10.715,0,0,1,3.167-3.692,2.315,2.315,0,0,1,2.846-.215,2.918,2.918,0,0,1,1.148,1.92,8.3,8.3,0,0,1-.034,3.1,28.307,28.307,0,0,1-3.7,9.84,22.141,22.141,0,0,1-5.093,6.28.478.478,0,0,0-.158.507,8.185,8.185,0,0,0,.755,2.756,1.578,1.578,0,0,0,2.033.948,8.169,8.169,0,0,0,3.707-2.144,46.581,46.581,0,0,0,6.039-7.011.569.569,0,0,0-.011-.7A11.543,11.543,0,0,1,828,230.947a17.979,17.979,0,0,1,.968-10.925,7.284,7.284,0,0,1,3.317-3.825,2.885,2.885,0,0,1,4.258,1.513,8.432,8.432,0,0,1,.674,3.165,22.744,22.744,0,0,1-2.157,9.732,31.466,31.466,0,0,1-2.352,4.535,3.868,3.868,0,0,0,1.821,1.027,5.517,5.517,0,0,0,6.03-2.758,18.882,18.882,0,0,0,2.022-5.941c.587-3.132,3.715,2.032-.144,8.541a7.1,7.1,0,0,1-7.6,2.884,7.349,7.349,0,0,1-3.371-1.759,3.584,3.584,0,0,0-.373.381,36.83,36.83,0,0,1-4.381,5.007,12.619,12.619,0,0,1-6.162,3.659,4.155,4.155,0,0,1-5.143-2.524,16.846,16.846,0,0,1-.813-2.628c-.152.046-.272.08-.391.118a4.384,4.384,0,0,1-5.764-2.661,10.93,10.93,0,0,1-.693-5.132c.063-1.02.18-2.036.278-3.123a23.478,23.478,0,0,1-2.785,1.079,4.373,4.373,0,0,1-4.025-.8,6.773,6.773,0,0,1-2.71-6.728,25.539,25.539,0,0,1,1.766-6.807c1.928-5.181,4.453-7.667,4.866-8,4.447-3.6-.1,4.082-.253,4.312m27.858,14.787a24.19,24.19,0,0,0,1.7-6.231,8.832,8.832,0,0,0-.045-3.036c-.234-1.008-.642-1.183-1.534-.637a5.154,5.154,0,0,0-2.04,2.387,15.305,15.305,0,0,0-.245,11.769,19.2,19.2,0,0,0,2.159-4.252m-11.281-6.848a16.9,16.9,0,0,0-2.714,5.233,42.84,42.84,0,0,0-1.9,7.818c-.018.12-.011.243-.018.413,2.935-3.5,6.93-12.8,6.22-14.641a3.194,3.194,0,0,0-1.586,1.177m-1.286-11.071c-4.492,3.219-6.533,7.957-8.022,13.037,3.365-3.918,6.473-7.995,8.022-13.037" transform="translate(-761.252 -213.19)" fill="#e4e8da"/>
              <path id="Trazado_1282551" data-name="Trazado 1282551" d="M719.608,256.635c-.038.53-.63,4.024-3.773,8.571a25.54,25.54,0,0,1-4.569,5.345,6.775,6.775,0,0,1-7.068,1.631,4.374,4.374,0,0,1-2.959-2.843,23.524,23.524,0,0,1-.711-2.9c-.834.7-1.6,1.381-2.4,2.016a10.928,10.928,0,0,1-4.6,2.371,4.384,4.384,0,0,1-5.483-3.2c-.038-.119-.078-.237-.128-.388a16.82,16.82,0,0,1-2.62.839,4.155,4.155,0,0,1-5.015-2.771,12.618,12.618,0,0,1-.528-7.147,36.868,36.868,0,0,1,1.6-6.459,3.574,3.574,0,0,0,.1-.524,7.348,7.348,0,0,1-3.372-1.756,7.1,7.1,0,0,1-1.987-7.882c3.127-6.891,9.151-7.284,6.92-5.009a18.9,18.9,0,0,0-3.713,5.059,5.518,5.518,0,0,0,1.192,6.523,3.87,3.87,0,0,0,1.885.9,31.449,31.449,0,0,1,2.371-4.525,22.744,22.744,0,0,1,6.743-7.341,8.428,8.428,0,0,1,2.981-1.259,2.885,2.885,0,0,1,3.679,2.624,7.286,7.286,0,0,1-1.236,4.91,17.977,17.977,0,0,1-8.4,7.049,11.54,11.54,0,0,1-3.2.844c-.275.03-.479.093-.579.391a46.578,46.578,0,0,0-2.29,8.966,8.169,8.169,0,0,0,.365,4.266,1.578,1.578,0,0,0,1.942,1.124,8.186,8.186,0,0,0,2.692-.959c.179-.094.312-.188.326-.42a22.135,22.135,0,0,1,2.232-7.771,28.31,28.31,0,0,1,5.95-8.666,8.3,8.3,0,0,1,2.522-1.8,2.917,2.917,0,0,1,2.232-.158,2.315,2.315,0,0,1,1.453,2.456,10.72,10.72,0,0,1-1.213,4.71,33.793,33.793,0,0,1-9.58,11.561.949.949,0,0,0-.449.893,1.349,1.349,0,0,1-.014.19c-.1,2.244.8,3.02,3.236,2.243a10.054,10.054,0,0,0,3.362-2.147c.871-.742,1.687-1.541,2.5-2.348a.9.9,0,0,0,.286-.727,31.636,31.636,0,0,1,1.892-10.261,30.26,30.26,0,0,1,2.76-6.632,9.7,9.7,0,0,1,4.1-4.15c1.762-.807,3.13-.015,3.294,1.917a17.376,17.376,0,0,1-.784,6.083,25.32,25.32,0,0,1-3.9,7.763,64.007,64.007,0,0,1-4.161,5.46.933.933,0,0,0-.2.648c-.029,1.318.042,2.631.12,3.947.128,2.159,1.156,2.8,3.507,2.774,1.4-.013,2.411-1,3.329-1.944a29.091,29.091,0,0,0,5.615-8.6c.121-.272.265-.535.377-.81.1-.254,3.794-8.382,3.39-2.677m-33.714-7.489a15.307,15.307,0,0,0,9.508-6.94,5.152,5.152,0,0,0,.789-3.039c-.063-1.044-.44-1.279-1.4-.892a8.836,8.836,0,0,0-2.514,1.7,24.182,24.182,0,0,0-4.133,4.965,19.176,19.176,0,0,0-2.249,4.205m14.38-.852c-1.912.469-7.253,9.072-8.441,13.482.135-.1.24-.168.328-.251a42.828,42.828,0,0,0,5.32-6.036,16.9,16.9,0,0,0,2.736-5.221,3.192,3.192,0,0,0,.057-1.974m3.662,10.732c3.312-4.13,6.028-8.516,6.094-14.042-3.247,4.158-4.809,9.04-6.094,14.042" transform="translate(-678.324 -232.102)" fill="#e4e8da"/>
            </g>
          </g>
          <g id="Grupo_1214351" data-name="Grupo 1214351">
            <g id="Grupo_1214350" data-name="Grupo 1214350" clip-path="url(#clip-path-3)">
              <path id="Trazado_1282553" data-name="Trazado 1282553" d="M843.908,226.165c-.018.069-1.919,5.464-9.233,5.165-3.887-.159-5.963-3.715-6.429-5.376a20.338,20.338,0,0,1,2.832-.457h9.651s3.236.446,3.179.669" transform="translate(-559.246 -152.259)" fill="#e06741"/>
              <path id="Trazado_1282554" data-name="Trazado 1282554" d="M856.995,372.251s6.228-2.931,7.544-5.315c1.927-3.491-4.615-5.252-5.716-4.992s-6.315,2.267-6.315,2.267.589,6.343,4.487,8.04" transform="translate(-575.628 -244.374)" fill="#e06741"/>
              <path id="Trazado_1282555" data-name="Trazado 1282555" d="M835.621,367.96l-8.9,3.073a1.021,1.021,0,0,0-.593,1.395.915.915,0,0,0,1.164.45l8.686-2.392Z" transform="translate(-557.751 -248.453)" fill="#e06741"/>
              <path id="Trazado_1282556" data-name="Trazado 1282556" d="M831.538,378.206l8.315-3.51L841,377.173l-8.792,2.834a.917.917,0,0,1-1.243-.559,1.016,1.016,0,0,1,.573-1.243" transform="translate(-561.05 -253.001)" fill="#e06741"/>
              <path id="Trazado_1282557" data-name="Trazado 1282557" d="M844.187,382.793l-7.026,3.334a.806.806,0,0,0,.638,1.479l7.28-2.838Z" transform="translate(-564.954 -258.468)" fill="#e06741"/>
              <path id="Trazado_1282558" data-name="Trazado 1282558" d="M850.224,388.6l-5.5,3.184a.816.816,0,0,0,.771,1.438l5.969-2.957Z" transform="translate(-570.095 -262.391)" fill="#e06741"/>
              <path id="Trazado_1282559" data-name="Trazado 1282559" d="M850.69,352.133a.633.633,0,0,1,.219.059,11.365,11.365,0,0,0,1.557.994,15.346,15.346,0,0,0,6.047,1.646l1.709-.2c1.016,1.36.5,3.306.6,4.3,0,0-.069.072-.2.184a6.209,6.209,0,0,1-1.865,1.142,3.633,3.633,0,0,1-3.266-.244,5.215,5.215,0,0,1-2.432-3.245,4.7,4.7,0,0,1-.119-.761,4.676,4.676,0,0,1-2.848-3.137.58.58,0,0,1,.594-.74" transform="translate(-573.986 -237.765)" fill="#e06741"/>
              <path id="Trazado_1282560" data-name="Trazado 1282560" d="M851.918,352.136a.632.632,0,0,1,.219.059,11.382,11.382,0,0,0,1.557.994.757.757,0,0,1-.3.145,1.2,1.2,0,0,1-1.082-.315,1.34,1.34,0,0,1-.409-.666.408.408,0,0,1,.014-.219" transform="translate(-575.215 -237.768)" fill="#ff9685"/>
              <path id="Trazado_1282561" data-name="Trazado 1282561" d="M888.948,352.041l-7.635,2.53,1.982,6.205a82.132,82.132,0,0,0,9.975-3.729Z" transform="translate(-595.078 -237.704)" fill="#e06741"/>
              <path id="Trazado_1282562" data-name="Trazado 1282562" d="M884.239,234.73c-5.19,3.321,5.06,18.549,5.06,18.549l7.628,12.464-9.705,5.749c1.779,2.177,3.849,5.825,5.733,7.913,19.783-4.118,23.422-9.589,22.23-12.3-9.488-21.582-23.562-37.1-30.945-32.374" transform="translate(-596.063 -157.92)" fill="#dce0d2"/>
            </g>
          </g>
          <g id="Grupo_1214353" data-name="Grupo 1214353" transform="translate(286.709 75.96)">
            <g id="Grupo_1214352" data-name="Grupo 1214352" clip-path="url(#clip-path-10)">
              <path id="Trazado_1282563" data-name="Trazado 1282563" d="M803.29,225.689c-.094.282-.157.575-.242.86a29.077,29.077,0,0,0-1.351,10.179c.082,1.312.2,2.719,1.256,3.645,1.768,1.551,2.963,1.738,4.468.184.917-.946,1.827-1.9,2.665-2.914a.932.932,0,0,0,.271-.622,64.01,64.01,0,0,1,.407-6.853,25.319,25.319,0,0,1,2.106-8.429,17.384,17.384,0,0,1,3.373-5.122c1.384-1.357,2.938-1.066,3.747.7a9.7,9.7,0,0,1,.4,5.82,30.25,30.25,0,0,1-2.234,6.827,31.632,31.632,0,0,1-5.258,9.012.9.9,0,0,0-.257.737c.088,1.141.185,2.279.361,3.41a10.059,10.059,0,0,0,1.148,3.819c1.341,2.18,2.526,2.175,3.916.411a1.383,1.383,0,0,1,.114-.153.949.949,0,0,0,.242-.97,33.785,33.785,0,0,1,.278-15.011,10.718,10.718,0,0,1,2.152-4.362,2.315,2.315,0,0,1,2.7-.913,2.916,2.916,0,0,1,1.589,1.575,8.293,8.293,0,0,1,.736,3.012,28.307,28.307,0,0,1-1.141,10.449,22.138,22.138,0,0,1-3.377,7.347.478.478,0,0,0-.027.531,8.194,8.194,0,0,0,1.415,2.483,1.578,1.578,0,0,0,2.205.414,8.168,8.168,0,0,0,3.059-3,46.553,46.553,0,0,0,4.111-8.29.568.568,0,0,0-.184-.674,11.541,11.541,0,0,1-1.878-2.729,17.976,17.976,0,0,1-1.771-10.824,7.282,7.282,0,0,1,2.265-4.528,2.885,2.885,0,0,1,4.5.411,8.425,8.425,0,0,1,1.438,2.9,22.74,22.74,0,0,1,.324,9.963,31.459,31.459,0,0,1-1.154,4.976,3.867,3.867,0,0,0,2.019.544,5.517,5.517,0,0,0,5.158-4.167,18.891,18.891,0,0,0,.485-6.257c-.208-3.18,4.1,1.048,1.978,8.31a7.1,7.1,0,0,1-6.647,4.678,7.347,7.347,0,0,1-3.7-.868,3.568,3.568,0,0,0-.267.462,36.815,36.815,0,0,1-3,5.938,12.615,12.615,0,0,1-5.062,5.073,4.155,4.155,0,0,1-5.608-1.17,16.843,16.843,0,0,1-1.439-2.344c-.136.082-.244.146-.35.211a4.384,4.384,0,0,1-6.244-1.149,10.928,10.928,0,0,1-1.944-4.8c-.192-1-.331-2.018-.5-3.094a23.56,23.56,0,0,1-2.431,1.736,4.373,4.373,0,0,1-4.1.225,6.772,6.772,0,0,1-4.294-5.845,25.536,25.536,0,0,1,.023-7.032c.583-5.5,2.413-8.531,2.73-8.957,3.416-4.589.911,3.98.825,4.24m30.654,7.418a24.177,24.177,0,0,0,.106-6.459,8.824,8.824,0,0,0-.8-2.93c-.476-.919-.916-.987-1.644-.237a5.152,5.152,0,0,0-1.384,2.818,15.306,15.306,0,0,0,2.681,11.463,19.2,19.2,0,0,0,1.038-4.654m-12.627-3.837a16.9,16.9,0,0,0-1.332,5.742,42.793,42.793,0,0,0,.1,8.045c.012.12.049.238.085.4,1.976-4.118,3.539-14.123,2.395-15.725a3.19,3.19,0,0,0-1.245,1.534m-3.991-10.406c-3.554,4.232-4.356,9.328-4.539,14.619,2.288-4.629,4.288-9.35,4.539-14.619" transform="translate(-826.532 -221.649)" fill="#e4e8da"/>
              <path id="Trazado_1282564" data-name="Trazado 1282564" d="M952.479,299.929c.291.445,1.936,3.584,2.188,9.105a25.531,25.531,0,0,1-.4,7.021,6.774,6.774,0,0,1-4.637,5.578,4.374,4.374,0,0,1-4.076-.471,23.572,23.572,0,0,1-2.322-1.878c-.238,1.064-.437,2.068-.689,3.058a10.932,10.932,0,0,1-2.229,4.675,4.383,4.383,0,0,1-6.3.772c-.1-.072-.205-.141-.337-.232a16.828,16.828,0,0,1-1.577,2.254,4.155,4.155,0,0,1-5.668.832,12.612,12.612,0,0,1-4.749-5.367,36.853,36.853,0,0,1-2.641-6.107,3.6,3.6,0,0,0-.239-.477,7.348,7.348,0,0,1-3.747.645,7.1,7.1,0,0,1-6.354-5.069c-1.685-7.377,2.871-11.338,2.473-8.177a18.894,18.894,0,0,0,.109,6.274,5.517,5.517,0,0,0,4.9,4.469,3.867,3.867,0,0,0,2.048-.422,31.488,31.488,0,0,1-.854-5.037,22.747,22.747,0,0,1,.92-9.925,8.431,8.431,0,0,1,1.609-2.807,2.885,2.885,0,0,1,4.517-.14,7.286,7.286,0,0,1,1.99,4.656,17.979,17.979,0,0,1-2.417,10.7,11.54,11.54,0,0,1-2.038,2.611.568.568,0,0,0-.224.662,46.577,46.577,0,0,0,3.607,8.522,8.164,8.164,0,0,0,2.874,3.174,1.577,1.577,0,0,0,2.225-.282A8.181,8.181,0,0,0,932,326.152a.478.478,0,0,0,0-.532,22.137,22.137,0,0,1-2.931-7.536,28.312,28.312,0,0,1-.513-10.5,8.3,8.3,0,0,1,.915-2.963,2.917,2.917,0,0,1,1.68-1.477,2.314,2.314,0,0,1,2.644,1.074,10.716,10.716,0,0,1,1.887,4.483,33.79,33.79,0,0,1-.622,15,.949.949,0,0,0,.183.983,1.334,1.334,0,0,1,.1.159c1.282,1.844,2.464,1.919,3.934-.175a10.06,10.06,0,0,0,1.375-3.744c.244-1.118.409-2.248.565-3.382a.9.9,0,0,0-.213-.752,31.634,31.634,0,0,1-4.708-9.311,30.257,30.257,0,0,1-1.821-6.949,9.7,9.7,0,0,1,.749-5.786c.913-1.709,2.482-1.907,3.782-.469a17.384,17.384,0,0,1,3.06,5.315,25.326,25.326,0,0,1,1.6,8.54,64.124,64.124,0,0,1-.005,6.865.933.933,0,0,0,.233.637c.775,1.066,1.627,2.069,2.485,3.068,1.41,1.641,2.613,1.526,4.471.084,1.109-.861,1.311-2.258,1.472-3.563a29.08,29.08,0,0,0-.739-10.241c-.068-.29-.113-.586-.19-.873-.071-.265-2.057-8.968,1.077-4.183m-31.364,14.458a15.307,15.307,0,0,0,3.363-11.281,5.153,5.153,0,0,0-1.213-2.9c-.682-.792-1.124-.751-1.655.138a8.846,8.846,0,0,0-.971,2.877,24.189,24.189,0,0,0-.282,6.454,19.2,19.2,0,0,0,.757,4.708M932.042,305c-1.238,1.531-.278,11.612,1.448,15.841.045-.164.089-.279.109-.4a42.844,42.844,0,0,0,.578-8.025,16.9,16.9,0,0,0-.985-5.812,3.194,3.194,0,0,0-1.15-1.605m9.413,6.322c.135-5.292-.361-10.427-3.654-14.865-.066,5.275,1.648,10.107,3.654,14.865" transform="translate(-900.026 -274.016)" fill="#e4e8da"/>
            </g>
          </g>
          <g id="Grupo_1214355" data-name="Grupo 1214355">
            <g id="Grupo_1214354" data-name="Grupo 1214354" clip-path="url(#clip-path-3)">
              <rect id="Rectángulo_464464" data-name="Rectángulo 464464" width="10.313" height="9.338" transform="translate(69.838 216.479)" fill="#e06741"/>
              <path id="Trazado_1282566" data-name="Trazado 1282566" d="M242.451,703.751l-30.862-.026a4.311,4.311,0,0,1-.4-1.715c-.191-2.611.6-11.06.6-11.328,0-2.144.9-1.771.9-1.771,5.71,3.151,9.831-1.131,10.731-.02,0,0,.555.639,3,2.845s6.614,3.665,10.16,5.153c4.578,1.918,5.875,3.831,6.128,5.149a2.411,2.411,0,0,1-.255,1.714" transform="translate(-142.575 -465.023)" fill="#344866"/>
              <path id="Trazado_1282567" data-name="Trazado 1282567" d="M242.513,731.42l-30.862-.026a4.311,4.311,0,0,1-.4-1.715l31.521.027a2.411,2.411,0,0,1-.255,1.714" transform="translate(-142.637 -492.692)" fill="#fff"/>
              <path id="Trazado_1282568" data-name="Trazado 1282568" d="M250.664,695.575l-1.987,1.816a.944.944,0,0,0,1.27,1.4l2.152-1.948Z" transform="translate(-167.703 -469.664)" fill="#fff"/>
              <path id="Trazado_1282569" data-name="Trazado 1282569" d="M258.219,701.174l-1.71,2.162a.944.944,0,0,0,1.479,1.173l1.865-2.358Z" transform="translate(-173.062 -473.445)" fill="#fff"/>
              <path id="Trazado_1282570" data-name="Trazado 1282570" d="M266.127,705.65l-1.7,2.153a.944.944,0,0,0,1.479,1.173l1.938-2.536Z" transform="translate(-178.407 -476.467)" fill="#fff"/>
              <rect id="Rectángulo_464465" data-name="Rectángulo 464465" width="10.313" height="9.338" transform="translate(33.591 216.672)" fill="#e06741"/>
              <path id="Trazado_1282571" data-name="Trazado 1282571" d="M97.938,700c0,.071,0,.141,0,.209.007.318.021.6.034.85.032.54.071.872.071.872h17.916a9.848,9.848,0,0,0,.02-1.722,11.014,11.014,0,0,0-3.2-6.633c-2.376-2.47-2.546-3.278-2.546-3.278s-.231-2.146-.3-2.286c-.582-1.24-1.8-1.828-5.013-1.828-4.258,0-4.632,2.066-5.087,3.154a20.322,20.322,0,0,0-.708,2.529c-.108.453-.215.937-.32,1.429-.262,1.234-.507,2.524-.674,3.552a18.62,18.62,0,0,0-.2,3.152" transform="translate(-66.128 -463.321)" fill="#344866"/>
              <path id="Trazado_1282572" data-name="Trazado 1282572" d="M97.953,729.364c.024,1.02.106,1.721.106,1.721h17.916a9.844,9.844,0,0,0,.02-1.721Z" transform="translate(-66.14 -492.479)" fill="#fff"/>
              <path id="Trazado_1282573" data-name="Trazado 1282573" d="M113.625,696.939a.322.322,0,0,0,.124-.037,5.369,5.369,0,0,1,4.085-.463c.278.1.535-.182.574-.638a1.006,1.006,0,0,0-.433-1.013,5.951,5.951,0,0,0-4.607.5.99.99,0,0,0-.281,1.058c.089.376.313.613.537.6" transform="translate(-76.334 -468.964)" fill="#fff"/>
              <path id="Trazado_1282574" data-name="Trazado 1282574" d="M116.563,704.6a.323.323,0,0,0,.126-.032,5.364,5.364,0,0,1,4.1-.306c.274.114.541-.162.6-.616a1.007,1.007,0,0,0-.394-1.029,5.95,5.95,0,0,0-4.623.32.99.99,0,0,0-.321,1.047c.074.38.289.625.514.616" transform="translate(-78.341 -474.205)" fill="#fff"/>
              <path id="Trazado_1282575" data-name="Trazado 1282575" d="M120.13,712.518a.321.321,0,0,0,.126-.031,5.364,5.364,0,0,1,4.1-.265c.273.117.543-.156.6-.61a1.007,1.007,0,0,0-.384-1.033,5.951,5.951,0,0,0-4.626.273.99.99,0,0,0-.332,1.044c.07.38.283.628.508.621" transform="translate(-80.756 -479.568)" fill="#fff"/>
              <path id="Trazado_1282576" data-name="Trazado 1282576" d="M88.748,388.584c2.429-12.292,4.371-21.606,5.144-24.63a79.6,79.6,0,0,1,8.77-22.143c8.382-.25,18.468-1.739,26.734-.6,6.189,10.229,9.386,27.761,10.824,47.373,0,0,1.321,50.767,0,61.859l-24.107-.346,1.708-61.512c.109-2.413.244-4.384.41-5.791.23-1.95-2.722-2.37-3.176-.459-.329,1.386-.836,3.523-1.484,6.25,0,0-8.4,50.58-9.72,61.671h-25.1Z" transform="translate(-53.177 -230.105)" fill="#1d3136"/>
              <path id="Trazado_1282577" data-name="Trazado 1282577" d="M195,358.49q.018,4.425-.322,8.843a6.635,6.635,0,0,1-.754,3.055,2.366,2.366,0,0,1-2.7,1.128" transform="translate(-129.117 -242.059)" fill="none" stroke="#3b575e" stroke-linecap="round" stroke-linejoin="round" stroke-width="3.023"/>
              <path id="Trazado_1282578" data-name="Trazado 1282578" d="M113.6,354.291S98.719,397.7,93.523,458.854" transform="translate(-63.148 -239.223)" fill="none" stroke="#3b575e" stroke-linecap="round" stroke-linejoin="round" stroke-width="3.023"/>
              <path id="Trazado_1282579" data-name="Trazado 1282579" d="M197.855,135.314a8.777,8.777,0,0,1,9.3.926c4.53,3.548,1.823,6.434,5.681,8.042s1.66,7.232,6.178,9.289,2.234,8.353-2.107,9.614c0,0-1.613,5.789-6.317,5.673,0,0-3.873,5.18-12.541,2.9l-3.205-.986Z" transform="translate(-131.561 -90.737)" fill="#1d3136"/>
              <path id="Trazado_1282580" data-name="Trazado 1282580" d="M155.223,136.023s-5.518,1.229-6.149,6.286-.344,3.849-3.179,6.653,1.3,5.305-.9,8.052a5.9,5.9,0,0,0-1.623,3.736,4.485,4.485,0,0,0,3.761,4.332c1.448.273,2.722,1.5,3.727,3.245,1.994,3.455,7.81,1.347,7.81,1.347s5.927,2.767,9.153.019-5.021-35.813-5.021-35.813Z" transform="translate(-96.805 -90.397)" fill="#1d3136"/>
              <path id="Trazado_1282581" data-name="Trazado 1282581" d="M189.824,131.668s-1.9-3.782-7.965-3.445-7.614,6.389-7.614,6.389l9.092,4.316Z" transform="translate(-117.654 -86.564)" fill="#1d3136"/>
              <path id="Trazado_1282582" data-name="Trazado 1282582" d="M193.713,192.163l-.3,8.24-9.622-.053-.393-12.678Z" transform="translate(-123.835 -126.719)" fill="#e06741"/>
            </g>
          </g>
          <g id="Grupo_1214357" data-name="Grupo 1214357" transform="translate(59.565 60.953)">
            <g id="Grupo_1214356" data-name="Grupo 1214356" clip-path="url(#clip-path-12)">
              <path id="Trazado_1282583" data-name="Trazado 1282583" d="M200.52,204.288s-6.96-1.719-8.216-5.55l7.994.384Z" transform="translate(-189.412 -195.144)" fill="#b74329"/>
            </g>
          </g>
          <g id="Grupo_1214359" data-name="Grupo 1214359">
            <g id="Grupo_1214358" data-name="Grupo 1214358" clip-path="url(#clip-path-3)">
              <path id="Trazado_1282585" data-name="Trazado 1282585" d="M198.909,147.872s4.535,13.9-4.445,16.276c0,0-8.2,1.4-11.064-5.53l.044-11.728,12.206-2.176Z" transform="translate(-123.835 -97.713)" fill="#e06741"/>
              <path id="Trazado_1282586" data-name="Trazado 1282586" d="M205.5,169.213c.075.639-.175,1.194-.558,1.239s-.754-.437-.829-1.077.175-1.194.558-1.239.754.437.829,1.077" transform="translate(-137.809 -113.526)" fill="#1d3136"/>
              <path id="Trazado_1282587" data-name="Trazado 1282587" d="M226.211,168.576c.04.642-.24,1.183-.626,1.207s-.729-.478-.768-1.121.24-1.183.625-1.207.729.478.769,1.121" transform="translate(-151.798 -113.068)" fill="#1d3136"/>
              <path id="Trazado_1282588" data-name="Trazado 1282588" d="M197.855,162.168a4.878,4.878,0,0,0-2.476.941.062.062,0,0,0,.052.11,9.725,9.725,0,0,1,2.121-.3,7.666,7.666,0,0,1,1.717.137.062.062,0,0,0,.071-.084,1.322,1.322,0,0,0-1.486-.8" transform="translate(-131.906 -109.498)" fill="#1d3136"/>
              <path id="Trazado_1282589" data-name="Trazado 1282589" d="M223.151,161.823a4.878,4.878,0,0,1,2.506.859.062.062,0,0,1-.049.111,9.751,9.751,0,0,0-2.13-.231,7.673,7.673,0,0,0-1.712.193.062.062,0,0,1-.073-.082,1.321,1.321,0,0,1,1.458-.851" transform="translate(-149.688 -109.266)" fill="#1d3136"/>
              <path id="Trazado_1282590" data-name="Trazado 1282590" d="M217.9,177.638l.288.868a.477.477,0,0,1-.447.632l-.524.031" transform="translate(-146.67 -119.944)" fill="none" stroke="#b74329" stroke-linecap="round" stroke-linejoin="round" stroke-width="1.076"/>
              <path id="Trazado_1282591" data-name="Trazado 1282591" d="M226.894,177.882c.018.372.536.648,1.155.616s1.106-.358,1.087-.729-.536-.648-1.155-.616-1.106.358-1.087.729" transform="translate(-153.202 -119.615)" fill="#b74329"/>
              <path id="Trazado_1282592" data-name="Trazado 1282592" d="M199.113,178.857c.019.372.536.648,1.155.616s1.106-.358,1.088-.729-.536-.648-1.155-.616-1.106.358-1.087.729" transform="translate(-134.444 -120.273)" fill="#b74329"/>
              <path id="Trazado_1282593" data-name="Trazado 1282593" d="M214.5,188.06a10.289,10.289,0,0,1-3.508-.136.068.068,0,0,0-.083.081,1.937,1.937,0,0,0,1.764,1.606,1.853,1.853,0,0,0,1.9-1.469.068.068,0,0,0-.076-.082" transform="translate(-142.409 -126.888)" fill="#b74329"/>
              <path id="Trazado_1282594" data-name="Trazado 1282594" d="M212.9,188.772c-1.181-.048-1.508-.551-1.646-.824a10.2,10.2,0,0,0,3.476.13c-.117.292-.717.739-1.83.694" transform="translate(-142.646 -126.906)" fill="#fff"/>
              <path id="Trazado_1282595" data-name="Trazado 1282595" d="M195.077,140.542c-2.112-.018-3.262-2.964-3.262-2.964-2.734,5.844-10.893,3.12-10.893,3.12s.27,4.154-1.688,4.982l-2.032.235.235-9.32,10.85-3.465,6.942,4.479Z" transform="translate(-119.651 -89.893)" fill="#1d3136"/>
              <path id="Trazado_1282596" data-name="Trazado 1282596" d="M177.212,169.568c.195,1.3.159,3.129-1.576,3.252-1.21.086-2.1-1.742-2.3-3.039a1.79,1.79,0,0,1,1.608-2.318,2.173,2.173,0,0,1,2.264,2.1" transform="translate(-117.018 -113.068)" fill="#e06741"/>
              <path id="Trazado_1282597" data-name="Trazado 1282597" d="M177.074,171.72s1.376.238,1.293,2.181" transform="translate(-119.563 -115.948)" fill="none" stroke="#b74329" stroke-linecap="round" stroke-linejoin="round" stroke-width="0.954"/>
              <path id="Trazado_1282598" data-name="Trazado 1282598" d="M148.056,228.359s8.67-2.709,10.761-2.863h9.651s8.116,1.132,9.971,2.45l.675,18.092a9.046,9.046,0,0,1,.388,2.686c-.044.892-.106,1.9-.178,2.959h0c-.39,5.809-1.067,13.386-.808,14.118,0,0-7.408,2.786-32.088-1.1.192-4.979,1.627-36.342,1.627-36.342" transform="translate(-98.871 -152.259)" fill="#dce0d2"/>
            </g>
          </g>
          <g id="Grupo_1214361" data-name="Grupo 1214361" transform="translate(47.558 73.237)">
            <g id="Grupo_1214360" data-name="Grupo 1214360" clip-path="url(#clip-path-14)">
              <path id="Trazado_1282599" data-name="Trazado 1282599" d="M150.708,208.979c.413.334,2.938,2.82,4.866,8a25.536,25.536,0,0,1,1.766,6.807,6.773,6.773,0,0,1-2.71,6.728,4.374,4.374,0,0,1-4.025.8,23.474,23.474,0,0,1-2.785-1.079c.1,1.086.215,2.1.278,3.123a10.926,10.926,0,0,1-.693,5.132,4.384,4.384,0,0,1-5.764,2.661c-.119-.037-.239-.072-.391-.118a16.839,16.839,0,0,1-.813,2.628,4.155,4.155,0,0,1-5.143,2.524,12.619,12.619,0,0,1-6.162-3.659,36.83,36.83,0,0,1-4.381-5.007,3.587,3.587,0,0,0-.373-.381,7.349,7.349,0,0,1-3.371,1.759,7.1,7.1,0,0,1-7.6-2.884c-3.859-6.509-.731-11.673-.144-8.541a18.883,18.883,0,0,0,2.022,5.941,5.518,5.518,0,0,0,6.03,2.758,3.868,3.868,0,0,0,1.821-1.027,31.472,31.472,0,0,1-2.352-4.535,22.744,22.744,0,0,1-2.157-9.732,8.439,8.439,0,0,1,.674-3.165,2.885,2.885,0,0,1,4.258-1.514,7.284,7.284,0,0,1,3.317,3.825,17.977,17.977,0,0,1,.968,10.925,11.539,11.539,0,0,1-1.143,3.109.569.569,0,0,0-.011.7,46.582,46.582,0,0,0,6.039,7.011,8.167,8.167,0,0,0,3.707,2.144,1.578,1.578,0,0,0,2.033-.948,8.187,8.187,0,0,0,.755-2.756.478.478,0,0,0-.158-.507,22.141,22.141,0,0,1-5.093-6.28,28.309,28.309,0,0,1-3.7-9.84,8.3,8.3,0,0,1-.034-3.1,2.918,2.918,0,0,1,1.148-1.92,2.315,2.315,0,0,1,2.846.215,10.714,10.714,0,0,1,3.167,3.692,33.786,33.786,0,0,1,3.992,14.474.95.95,0,0,0,.475.88,1.381,1.381,0,0,1,.148.12c1.784,1.364,2.932,1.075,3.692-1.369a10.057,10.057,0,0,0,.165-3.985c-.109-1.139-.3-2.266-.5-3.393a.9.9,0,0,0-.432-.651,31.627,31.627,0,0,1-7.328-7.427,30.249,30.249,0,0,1-3.857-6.06,9.7,9.7,0,0,1-1.055-5.738c.347-1.906,1.78-2.574,3.458-1.6a17.38,17.38,0,0,1,4.538,4.126,25.321,25.321,0,0,1,4.13,7.644,64.092,64.092,0,0,1,2.093,6.538.931.931,0,0,0,.417.536c1.064.778,2.181,1.473,3.3,2.162,1.843,1.131,2.955.654,4.283-1.287.792-1.158.559-2.551.312-3.842a29.078,29.078,0,0,0-3.833-9.526c-.153-.255-.286-.523-.448-.773-.149-.231-4.7-7.91-.253-4.312M125.263,232.33a15.306,15.306,0,0,0-.245-11.769,5.151,5.151,0,0,0-2.04-2.387c-.891-.546-1.3-.371-1.534.637a8.832,8.832,0,0,0-.045,3.036,24.191,24.191,0,0,0,1.7,6.231,19.191,19.191,0,0,0,2.159,4.252m7.536-12.277c-.711,1.836,3.284,11.141,6.22,14.641-.007-.17,0-.293-.018-.413a42.84,42.84,0,0,0-1.9-7.818,16.9,16.9,0,0,0-2.714-5.233,3.194,3.194,0,0,0-1.586-1.177m10.895,3.143c-1.489-5.08-3.53-9.819-8.022-13.037,1.55,5.043,4.657,9.12,8.022,13.037" transform="translate(-122.851 -213.19)" fill="#e4e8da"/>
            </g>
          </g>
          <g id="Grupo_1214363" data-name="Grupo 1214363">
            <g id="Grupo_1214362" data-name="Grupo 1214362" clip-path="url(#clip-path-3)">
              <path id="Trazado_1282601" data-name="Trazado 1282601" d="M174.784,226.165c.018.069,1.919,5.464,9.233,5.165,3.887-.159,5.963-3.715,6.429-5.376a20.336,20.336,0,0,0-2.832-.457h-9.651s-3.236.446-3.179.669" transform="translate(-118.017 -152.259)" fill="#e06741"/>
              <path id="Trazado_1282602" data-name="Trazado 1282602" d="M312.921,289.611l19.967-11.426,3.993,6.005c-3.263,2.936-27.117,20.469-29.78,18.207-7.818-6.638,5.82-12.786,5.82-12.786" transform="translate(-205.727 -187.835)" fill="#e06741"/>
              <path id="Trazado_1282603" data-name="Trazado 1282603" d="M229.648,232.7a7.436,7.436,0,0,1,8.732-.594c4.91,2.906,14.064,22.8,16.932,26.73l18.077-9.92s4.947,6.113,7.348,8.918c0,0-22.972,21.77-29.62,18.714S229.648,232.7,229.648,232.7" transform="translate(-155.062 -155.942)" fill="#dce0d2"/>
            </g>
          </g>
          <g id="Grupo_1214365" data-name="Grupo 1214365" transform="translate(74.586 75.009)">
            <g id="Grupo_1214364" data-name="Grupo 1214364" clip-path="url(#clip-path-16)">
              <path id="Trazado_1282604" data-name="Trazado 1282604" d="M226.8,256.772c.125.3.284.6.418.9a32.2,32.2,0,0,0,6.218,9.521c1.017,1.043,2.133,2.138,3.687,2.153,2.6.025,3.742-.681,3.884-3.072.086-1.456.164-2.911.132-4.37a1.031,1.031,0,0,0-.222-.718,70.936,70.936,0,0,1-4.609-6.046,28.047,28.047,0,0,1-4.321-8.6,19.256,19.256,0,0,1-.868-6.736c.182-2.139,1.7-3.017,3.648-2.123a10.74,10.74,0,0,1,4.54,4.6,33.477,33.477,0,0,1,3.056,7.345,35.036,35.036,0,0,1,2.1,11.363,1,1,0,0,0,.317.8c.9.893,1.8,1.779,2.766,2.6a11.141,11.141,0,0,0,3.723,2.377c2.7.861,3.691,0,3.584-2.484a1.53,1.53,0,0,1-.015-.21,1.051,1.051,0,0,0-.5-.989,37.418,37.418,0,0,1-10.609-12.8,11.868,11.868,0,0,1-1.344-5.216,2.564,2.564,0,0,1,1.61-2.72,3.231,3.231,0,0,1,2.471.175,9.188,9.188,0,0,1,2.793,2,31.354,31.354,0,0,1,6.59,9.6,24.518,24.518,0,0,1,2.471,8.606.529.529,0,0,0,.361.465,9.07,9.07,0,0,0,2.981,1.062,1.747,1.747,0,0,0,2.15-1.245,9.041,9.041,0,0,0,.4-4.725,51.6,51.6,0,0,0-2.536-9.929c-.111-.33-.336-.4-.641-.433a12.773,12.773,0,0,1-3.547-.934,19.911,19.911,0,0,1-9.305-7.806,8.069,8.069,0,0,1-1.369-5.438,3.194,3.194,0,0,1,4.074-2.905,9.329,9.329,0,0,1,3.3,1.395,25.185,25.185,0,0,1,7.467,8.13,34.858,34.858,0,0,1,2.626,5.011,4.281,4.281,0,0,0,2.087-1,6.11,6.11,0,0,0,1.32-7.223,20.914,20.914,0,0,0-4.111-5.6c-2.472-2.519,4.2-2.083,7.663,5.547a7.865,7.865,0,0,1-2.2,8.729,8.141,8.141,0,0,1-3.735,1.945,3.959,3.959,0,0,0,.109.58,40.818,40.818,0,0,1,1.768,7.153,13.971,13.971,0,0,1-.585,7.915,4.6,4.6,0,0,1-5.553,3.069,18.658,18.658,0,0,1-2.9-.929c-.055.168-.1.3-.141.43a4.854,4.854,0,0,1-6.071,3.546,12.1,12.1,0,0,1-5.1-2.625c-.886-.7-1.735-1.454-2.659-2.233a26.044,26.044,0,0,1-.787,3.212,4.844,4.844,0,0,1-3.277,3.148c-2.987,1.033-5.543.19-7.827-1.805a28.29,28.29,0,0,1-5.06-5.92c-3.481-5.035-4.137-8.9-4.178-9.491-.447-6.319,3.64,2.683,3.754,2.964m31.09-15.915a26.78,26.78,0,0,0-4.577-5.5,9.783,9.783,0,0,0-2.785-1.884c-1.064-.427-1.481-.167-1.551.988a5.7,5.7,0,0,0,.873,3.365,16.95,16.95,0,0,0,10.53,7.686,21.253,21.253,0,0,0-2.491-4.657m-13.371,5.9a18.717,18.717,0,0,0,3.03,5.782,47.464,47.464,0,0,0,5.892,6.684c.1.092.213.164.364.278-1.316-4.884-7.23-14.411-9.348-14.931a3.538,3.538,0,0,0,.063,2.186M233.651,240.9c.073,6.12,3.081,10.977,6.749,15.551-1.423-5.539-3.154-10.946-6.749-15.551" transform="translate(-225.166 -230.416)" fill="#e4e8da"/>
            </g>
          </g>
          <g id="Grupo_1214367" data-name="Grupo 1214367">
            <g id="Grupo_1214366" data-name="Grupo 1214366" clip-path="url(#clip-path-3)">
              <path id="Trazado_1282606" data-name="Trazado 1282606" d="M394.115,275.2s-4.638,6.755-6.967,5.3c-3.168-1.981-4.926-4.939-4.353-5.831a62.673,62.673,0,0,1,4.664-4.655s6.368,1.215,6.656,5.189" transform="translate(-258.397 -182.317)" fill="#e06741"/>
              <path id="Trazado_1282607" data-name="Trazado 1282607" d="M399.928,278.2s-3.493-1.718-4.868-1.188l-.817-4.041,1.156-2.251,6.518,4.958Z" transform="translate(-266.2 -182.796)" fill="#b74329"/>
              <path id="Trazado_1282608" data-name="Trazado 1282608" d="M386.7,266.431c.643,3.122-2.452,4.845-2.452,4.845-.784-.366-3.163-1.206-3.066-1.655a21.39,21.39,0,0,0,.336-8.256,12.609,12.609,0,0,0-.4-1.747c-.016-.053-.033-.107-.05-.158-.053-.514.857-.835,1.29-.552,2.068,1.351,3.974,5.738,4.342,7.524" transform="translate(-257.299 -174.747)" fill="#e06741"/>
              <path id="Trazado_1282609" data-name="Trazado 1282609" d="M381.8,261.648a1,1,0,0,1,.177.931.983.983,0,0,1-.355.482,12.608,12.608,0,0,0-.4-1.747.99.99,0,0,1,.579.334" transform="translate(-257.408 -176.444)" fill="#ff9685"/>
              <path id="Trazado_1282610" data-name="Trazado 1282610" d="M268.849,310.974H210.693a3.758,3.758,0,0,1-3.758-3.758V273.575a3.758,3.758,0,0,1,3.758-3.758h58.156a3.758,3.758,0,0,1,3.758,3.758v33.641a3.758,3.758,0,0,1-3.758,3.758" transform="translate(-139.726 -182.185)" fill="#6cb9ff"/>
              <path id="Trazado_1282611" data-name="Trazado 1282611" d="M253.137,326.192H194.981a3.758,3.758,0,0,1-3.758-3.758V288.793a3.758,3.758,0,0,1,3.758-3.758h58.156a3.758,3.758,0,0,1,3.758,3.758v33.641a3.758,3.758,0,0,1-3.758,3.758" transform="translate(-129.117 -192.461)" fill="#9ed1ff"/>
              <path id="Trazado_1282612" data-name="Trazado 1282612" d="M219.3,333.81l16.785-19.488a1.985,1.985,0,0,1,3.008,0l16.785,19.488a1.985,1.985,0,0,1-1.5,3.281h-33.57a1.985,1.985,0,0,1-1.5-3.281" transform="translate(-147.748 -211.77)" fill="#dce0d2"/>
              <path id="Trazado_1282613" data-name="Trazado 1282613" d="M269.99,354.591l12.855-14.924a1.985,1.985,0,0,1,3.008,0l12.855,14.924a1.985,1.985,0,0,1-1.5,3.281h-25.71a1.985,1.985,0,0,1-1.5-3.281" transform="translate(-181.974 -228.883)" fill="#fbfcf2"/>
              <path id="Trazado_1282614" data-name="Trazado 1282614" d="M310.888,310.089l-2.488,2.489a1.193,1.193,0,0,1-1.687,0l-2.488-2.489a1.192,1.192,0,0,1,0-1.687l2.488-2.488a1.193,1.193,0,0,1,1.687,0l2.488,2.488a1.193,1.193,0,0,1,0,1.687" transform="translate(-205.181 -206.322)" fill="#fbfcf2"/>
              <path id="Trazado_1282615" data-name="Trazado 1282615" d="M365.441,293.2a5.213,5.213,0,0,1,1.217.932,7.142,7.142,0,0,1,2.171,4,2.465,2.465,0,0,1-.376,1.9,1.2,1.2,0,0,1-1.744.177,2.607,2.607,0,0,1-.375-1.4c-.259-1.723-1.884-2.917-3.519-3.518-.813-.3-2.836-1.349-1.4-2.273,1.024-.66,3.02-.345,4.027.181" transform="translate(-243.695 -197.602)" fill="#cfe8ff"/>
              <path id="Trazado_1282616" data-name="Trazado 1282616" d="M168.515,372.251s-6.228-2.931-7.544-5.315c-1.927-3.491,4.615-5.252,5.716-4.992S173,364.211,173,364.211s-.589,6.343-4.487,8.04" transform="translate(-108.452 -244.374)" fill="#e06741"/>
              <path id="Trazado_1282617" data-name="Trazado 1282617" d="M194.956,367.96l8.9,3.073a1.021,1.021,0,0,1,.593,1.395.915.915,0,0,1-1.164.45l-8.686-2.392Z" transform="translate(-131.397 -248.453)" fill="#e06741"/>
              <path id="Trazado_1282618" data-name="Trazado 1282618" d="M198.757,378.206l-8.315-3.51-1.146,2.477,8.792,2.834a.917.917,0,0,0,1.243-.559,1.016,1.016,0,0,0-.573-1.243" transform="translate(-127.816 -253.001)" fill="#e06741"/>
              <path id="Trazado_1282619" data-name="Trazado 1282619" d="M189.648,382.793l7.026,3.334a.806.806,0,0,1-.638,1.479l-7.28-2.838Z" transform="translate(-127.451 -258.468)" fill="#e06741"/>
              <path id="Trazado_1282620" data-name="Trazado 1282620" d="M186.17,388.6l5.5,3.184a.816.816,0,0,1-.771,1.438l-5.969-2.957Z" transform="translate(-124.869 -262.391)" fill="#e06741"/>
              <path id="Trazado_1282621" data-name="Trazado 1282621" d="M178.131,352.133a.633.633,0,0,0-.219.059,11.365,11.365,0,0,1-1.557.994,15.346,15.346,0,0,1-6.047,1.646l-1.709-.2c-1.016,1.36-.5,3.306-.6,4.3,0,0,.069.072.2.184a6.208,6.208,0,0,0,1.865,1.142,3.634,3.634,0,0,0,3.266-.244,5.215,5.215,0,0,0,2.432-3.245,4.709,4.709,0,0,0,.119-.761,4.676,4.676,0,0,0,2.848-3.137.58.58,0,0,0-.594-.74" transform="translate(-113.405 -237.765)" fill="#e06741"/>
              <path id="Trazado_1282622" data-name="Trazado 1282622" d="M195.6,352.136a.632.632,0,0,0-.219.059,11.37,11.37,0,0,1-1.557.994.757.757,0,0,0,.3.145,1.2,1.2,0,0,0,1.082-.315,1.341,1.341,0,0,0,.409-.666.408.408,0,0,0-.014-.219" transform="translate(-130.872 -237.768)" fill="#ff9685"/>
              <path id="Trazado_1282623" data-name="Trazado 1282623" d="M137.449,352.041l7.635,2.53-1.982,6.205a82.126,82.126,0,0,1-9.975-3.729Z" transform="translate(-89.89 -237.704)" fill="#e06741"/>
              <path id="Trazado_1282624" data-name="Trazado 1282624" d="M99.21,234.73c5.19,3.321-5.059,18.549-5.059,18.549l-7.628,12.464,9.705,5.749c-1.779,2.177-3.849,5.825-5.733,7.913-19.783-4.118-23.422-9.589-22.23-12.3,9.488-21.582,23.562-37.1,30.945-32.374" transform="translate(-45.957 -157.92)" fill="#dce0d2"/>
            </g>
          </g>
          <g id="Grupo_1214369" data-name="Grupo 1214369" transform="translate(22.105 75.96)">
            <g id="Grupo_1214368" data-name="Grupo 1214368" clip-path="url(#clip-path-18)">
              <path id="Trazado_1282625" data-name="Trazado 1282625" d="M152.294,221.449c.317.426,2.147,3.461,2.73,8.958a25.537,25.537,0,0,1,.023,7.032,6.773,6.773,0,0,1-4.294,5.845,4.373,4.373,0,0,1-4.1-.225,23.564,23.564,0,0,1-2.431-1.736c-.174,1.077-.312,2.09-.5,3.094a10.929,10.929,0,0,1-1.944,4.8,4.384,4.384,0,0,1-6.244,1.149c-.106-.066-.213-.129-.35-.211a16.855,16.855,0,0,1-1.439,2.344,4.156,4.156,0,0,1-5.609,1.17,12.617,12.617,0,0,1-5.062-5.073,36.827,36.827,0,0,1-3-5.937,3.61,3.61,0,0,0-.267-.461,7.354,7.354,0,0,1-3.7.868,7.1,7.1,0,0,1-6.647-4.678c-2.124-7.262,2.186-11.49,1.978-8.31a18.892,18.892,0,0,0,.486,6.257,5.518,5.518,0,0,0,5.158,4.167,3.868,3.868,0,0,0,2.019-.544,31.412,31.412,0,0,1-1.154-4.976,22.74,22.74,0,0,1,.323-9.963,8.429,8.429,0,0,1,1.438-2.9,2.885,2.885,0,0,1,4.5-.411,7.285,7.285,0,0,1,2.265,4.528,17.976,17.976,0,0,1-1.771,10.824,11.529,11.529,0,0,1-1.878,2.729.569.569,0,0,0-.184.674,46.561,46.561,0,0,0,4.111,8.29,8.168,8.168,0,0,0,3.059,3,1.578,1.578,0,0,0,2.2-.414,8.182,8.182,0,0,0,1.415-2.483.478.478,0,0,0-.027-.531,22.136,22.136,0,0,1-3.377-7.346,28.3,28.3,0,0,1-1.141-10.45,8.289,8.289,0,0,1,.736-3.012,2.916,2.916,0,0,1,1.589-1.575,2.315,2.315,0,0,1,2.7.913,10.716,10.716,0,0,1,2.152,4.362,33.787,33.787,0,0,1,.278,15.012.949.949,0,0,0,.242.97,1.413,1.413,0,0,1,.114.153c1.39,1.764,2.575,1.768,3.916-.411a10.057,10.057,0,0,0,1.148-3.819c.177-1.131.274-2.269.361-3.41a.9.9,0,0,0-.257-.737,31.629,31.629,0,0,1-5.258-9.012,30.255,30.255,0,0,1-2.234-6.827,9.7,9.7,0,0,1,.4-5.82c.809-1.761,2.363-2.053,3.747-.7a17.377,17.377,0,0,1,3.373,5.122A25.315,25.315,0,0,1,144,230.169a64.019,64.019,0,0,1,.407,6.853.933.933,0,0,0,.271.622c.838,1.018,1.748,1.968,2.665,2.914,1.505,1.553,2.7,1.366,4.468-.185,1.055-.925,1.174-2.332,1.256-3.645a29.078,29.078,0,0,0-1.351-10.179c-.085-.285-.148-.578-.242-.86-.087-.26-2.591-8.829.825-4.24m-30.441,16.312a15.305,15.305,0,0,0,2.681-11.463,5.154,5.154,0,0,0-1.384-2.818c-.728-.75-1.167-.682-1.644.237a8.826,8.826,0,0,0-.8,2.93,24.174,24.174,0,0,0,.106,6.459,19.2,19.2,0,0,0,1.038,4.654M132.2,227.736c-1.144,1.6.419,11.608,2.395,15.726.036-.166.072-.284.085-.4a42.8,42.8,0,0,0,.1-8.045,16.9,16.9,0,0,0-1.332-5.742,3.194,3.194,0,0,0-1.245-1.534m9.775,5.747c-.183-5.291-.985-10.387-4.539-14.619.251,5.269,2.251,9.99,4.539,14.619" transform="translate(-95.612 -221.649)" fill="#e4e8da"/>
              <path id="Trazado_1282626" data-name="Trazado 1282626" d="M3.344,304.112c-.077.287-.122.583-.19.873a29.083,29.083,0,0,0-.739,10.242c.16,1.3.363,2.7,1.472,3.563,1.858,1.442,3.062,1.557,4.471-.083.858-1,1.71-2,2.485-3.068a.93.93,0,0,0,.233-.637,64.114,64.114,0,0,1,0-6.865,25.324,25.324,0,0,1,1.6-8.54,17.381,17.381,0,0,1,3.06-5.315c1.3-1.438,2.869-1.24,3.782.47a9.7,9.7,0,0,1,.749,5.785,30.254,30.254,0,0,1-1.821,6.949,31.631,31.631,0,0,1-4.708,9.311.9.9,0,0,0-.212.751c.156,1.133.322,2.264.565,3.382a10.051,10.051,0,0,0,1.375,3.744c1.47,2.095,2.652,2.02,3.933.175a1.421,1.421,0,0,1,.1-.159.949.949,0,0,0,.184-.983,33.785,33.785,0,0,1-.622-15,10.722,10.722,0,0,1,1.887-4.483,2.315,2.315,0,0,1,2.644-1.074,2.916,2.916,0,0,1,1.68,1.477,8.293,8.293,0,0,1,.915,2.963,28.312,28.312,0,0,1-.513,10.5,22.143,22.143,0,0,1-2.931,7.536.478.478,0,0,0,0,.532,8.193,8.193,0,0,0,1.562,2.394,1.578,1.578,0,0,0,2.226.281,8.166,8.166,0,0,0,2.874-3.174,46.568,46.568,0,0,0,3.607-8.521.568.568,0,0,0-.224-.662,11.547,11.547,0,0,1-2.038-2.611,17.981,17.981,0,0,1-2.417-10.7,7.287,7.287,0,0,1,1.99-4.656,2.885,2.885,0,0,1,4.516.14,8.426,8.426,0,0,1,1.609,2.807,22.744,22.744,0,0,1,.92,9.926,31.487,31.487,0,0,1-.854,5.036,3.868,3.868,0,0,0,2.047.422,5.518,5.518,0,0,0,4.9-4.469,18.891,18.891,0,0,0,.109-6.274c-.4-3.162,4.158.8,2.473,8.177a7.1,7.1,0,0,1-6.355,5.069,7.347,7.347,0,0,1-3.747-.645,3.561,3.561,0,0,0-.239.477,36.839,36.839,0,0,1-2.641,6.107,12.617,12.617,0,0,1-4.749,5.367,4.156,4.156,0,0,1-5.669-.832,16.882,16.882,0,0,1-1.577-2.254c-.131.09-.235.16-.337.232a4.383,4.383,0,0,1-6.3-.772,10.931,10.931,0,0,1-2.229-4.675c-.252-.99-.451-1.993-.69-3.058a23.5,23.5,0,0,1-2.322,1.879,4.374,4.374,0,0,1-4.076.47,6.774,6.774,0,0,1-4.637-5.578,25.541,25.541,0,0,1-.4-7.021c.252-5.522,1.9-8.661,2.188-9.105,3.134-4.785,1.148,3.918,1.077,4.183m31.044,5.566a24.175,24.175,0,0,0-.282-6.454,8.825,8.825,0,0,0-.971-2.877c-.531-.889-.973-.93-1.655-.138a5.152,5.152,0,0,0-1.213,2.9,15.307,15.307,0,0,0,3.363,11.281,19.188,19.188,0,0,0,.757-4.708m-12.834-3.072a16.9,16.9,0,0,0-.985,5.812,42.816,42.816,0,0,0,.578,8.025c.019.12.063.235.109.4,1.725-4.229,2.686-14.31,1.448-15.841a3.191,3.191,0,0,0-1.15,1.606m-4.608-10.148c-3.294,4.438-3.789,9.573-3.654,14.865,2.007-4.758,3.72-9.59,3.654-14.865" transform="translate(-22.105 -274.016)" fill="#e4e8da"/>
            </g>
          </g>
          <g id="Grupo_1214371" data-name="Grupo 1214371">
            <g id="Grupo_1214370" data-name="Grupo 1214370" clip-path="url(#clip-path-3)">
              <path id="Trazado_1282628" data-name="Trazado 1282628" d="M410.357,281.957a.833.833,0,0,0,.305-.829,1.772,1.772,0,0,0-.719-1.206c-.7-.36-3.461,2.65-3.558,3.006-.219.8.613.937.973.815a19.566,19.566,0,0,0,3-1.786" transform="translate(-274.374 -188.989)" fill="#e06741"/>
              <path id="Trazado_1282629" data-name="Trazado 1282629" d="M406.939,275.781a.592.592,0,0,0,.1-.708c-.249-.439-.705-1.127-1.1-1.079-.571.07-3.478,2.791-3.462,3.683a.81.81,0,0,0,.991.863,26.518,26.518,0,0,0,3.463-2.76" transform="translate(-271.765 -185.005)" fill="#e06741"/>
              <path id="Trazado_1282630" data-name="Trazado 1282630" d="M402.34,269.936a.8.8,0,0,0,.124-.832c-.2-.449-.58-1.11-1.15-1.255-.883-.225-3.2,3.746-3.361,4.133-.31.729.539,1.289,1.288,1.178a20.814,20.814,0,0,0,3.1-3.224" transform="translate(-268.66 -180.85)" fill="#e06741"/>
              <path id="Trazado_1282631" data-name="Trazado 1282631" d="M397.394,264.81a.651.651,0,0,0-.064-.8c-.375-.4-1.022-.994-1.424-.847-.593.217-3.013,3.792-2.8,4.735.077.344.7.944,1.27.659a30.23,30.23,0,0,0,3.018-3.751" transform="translate(-265.423 -177.679)" fill="#e06741"/>
              <path id="Trazado_1282632" data-name="Trazado 1282632" d="M678.73,560.8H627.822a3.29,3.29,0,0,1-3.289-3.289V528.063a3.289,3.289,0,0,1,3.289-3.289H678.73a3.289,3.289,0,0,1,3.289,3.289v29.448a3.289,3.289,0,0,1-3.289,3.289" transform="translate(-421.695 -354.336)" fill="#69d7e5"/>
              <path id="Trazado_1282633" data-name="Trazado 1282633" d="M664.977,574.121H614.069a3.29,3.29,0,0,1-3.289-3.289V541.383a3.289,3.289,0,0,1,3.289-3.289h50.908a3.289,3.289,0,0,1,3.289,3.289v29.448a3.289,3.289,0,0,1-3.289,3.289" transform="translate(-412.409 -363.33)" fill="#a4e7f0"/>
              <path id="Trazado_1282634" data-name="Trazado 1282634" d="M635.359,580.79l14.693-17.059a1.738,1.738,0,0,1,2.633,0l14.693,17.059a1.738,1.738,0,0,1-1.317,2.872H636.675a1.738,1.738,0,0,1-1.317-2.872" transform="translate(-428.719 -380.233)" fill="#dce0d2"/>
              <path id="Trazado_1282635" data-name="Trazado 1282635" d="M679.729,598.981l11.252-13.064a1.737,1.737,0,0,1,2.633,0l11.253,13.064a1.738,1.738,0,0,1-1.317,2.872H681.046a1.738,1.738,0,0,1-1.316-2.872" transform="translate(-458.678 -395.213)" fill="#fbfcf2"/>
              <path id="Trazado_1282636" data-name="Trazado 1282636" d="M715.529,560.025l-2.178,2.178a1.044,1.044,0,0,1-1.477,0l-2.178-2.178a1.044,1.044,0,0,1,0-1.477l2.178-2.178a1.044,1.044,0,0,1,1.477,0l2.178,2.178a1.044,1.044,0,0,1,0,1.477" transform="translate(-478.992 -375.464)" fill="#fbfcf2"/>
              <path id="Trazado_1282637" data-name="Trazado 1282637" d="M763.283,545.244a4.56,4.56,0,0,1,1.065.816,6.251,6.251,0,0,1,1.9,3.5,2.158,2.158,0,0,1-.329,1.664,1.052,1.052,0,0,1-1.526.155,2.28,2.28,0,0,1-.328-1.225c-.227-1.508-1.649-2.553-3.08-3.08-.712-.261-2.483-1.181-1.227-1.99a4.2,4.2,0,0,1,3.525.158" transform="translate(-512.706 -367.831)" fill="#d5f4f8"/>
              <rect id="Rectángulo_464470" data-name="Rectángulo 464470" width="45.481" height="31.326" transform="translate(108.889 151.297)" fill="none" stroke="#1e535a" stroke-linecap="round" stroke-linejoin="round" stroke-width="2.626" stroke-dasharray="4.377 10.504"/>
              <path id="Trazado_1282638" data-name="Trazado 1282638" d="M470.589,557.779h1.874a.508.508,0,0,1,.508.508v1.874a.508.508,0,0,1-.508.508h-1.874a.508.508,0,0,1-.508-.508v-1.874a.508.508,0,0,1,.508-.508" transform="translate(-317.407 -376.622)" fill="#3a624e"/>
              <path id="Trazado_1282639" data-name="Trazado 1282639" d="M400.569,557.843h1.874a.508.508,0,0,1,.508.508v1.874a.508.508,0,0,1-.508.508h-1.874a.508.508,0,0,1-.508-.508v-1.874a.508.508,0,0,1,.508-.508" transform="translate(-270.128 -376.665)" fill="#3a624e"/>
              <path id="Trazado_1282640" data-name="Trazado 1282640" d="M400.618,462h1.874a.508.508,0,0,1,.508.508v1.874a.508.508,0,0,1-.508.508h-1.874a.508.508,0,0,1-.508-.508v-1.874a.508.508,0,0,1,.508-.508" transform="translate(-270.161 -311.952)" fill="#3a624e"/>
              <path id="Trazado_1282641" data-name="Trazado 1282641" d="M470.589,461.391h1.874a.508.508,0,0,1,.508.508v1.874a.508.508,0,0,1-.508.508h-1.874a.508.508,0,0,1-.508-.508V461.9a.508.508,0,0,1,.508-.508" transform="translate(-317.407 -311.539)" fill="#3a624e"/>
              <path id="Trazado_1282642" data-name="Trazado 1282642" d="M333.646,557.811h1.874a.508.508,0,0,1,.508.508v1.874a.508.508,0,0,1-.508.508h-1.874a.508.508,0,0,1-.508-.508v-1.874a.508.508,0,0,1,.508-.508" transform="translate(-224.941 -376.644)" fill="#3a624e"/>
              <path id="Trazado_1282643" data-name="Trazado 1282643" d="M333.646,461.423h1.874a.508.508,0,0,1,.508.508V463.8a.508.508,0,0,1-.508.508h-1.874a.508.508,0,0,1-.508-.508v-1.874a.508.508,0,0,1,.508-.508" transform="translate(-224.941 -311.561)" fill="#3a624e"/>
              <path id="Trazado_1282644" data-name="Trazado 1282644" d="M369.132,506.995l5.656-12.691h2.9l5.675,12.691h-3.082l-4.641-11.2h1.16l-4.66,11.2Zm2.828-2.719.779-2.23h6.527l.8,2.23Z" transform="translate(-249.244 -333.763)" fill="#1e535a"/>
              <path id="Trazado_1282645" data-name="Trazado 1282645" d="M418.1,512.945a4.507,4.507,0,0,1-1.958-.39,2.972,2.972,0,0,1-1.251-1.06,2.876,2.876,0,0,1-.009-3.028,2.789,2.789,0,0,1,1.351-1.024,6.558,6.558,0,0,1,2.411-.372h2.593v1.65h-2.285a2.126,2.126,0,0,0-1.369.326,1.041,1.041,0,0,0-.372.816,1.017,1.017,0,0,0,.426.861,1.919,1.919,0,0,0,1.169.317,2.43,2.43,0,0,0,1.269-.335,1.923,1.923,0,0,0,.816-.988l.435,1.305a2.524,2.524,0,0,1-1.124,1.432,4.043,4.043,0,0,1-2.1.49m2.973-.145v-1.9l-.181-.417v-3.409a1.824,1.824,0,0,0-.553-1.414,2.439,2.439,0,0,0-1.7-.508,4.925,4.925,0,0,0-1.532.245,4.043,4.043,0,0,0-1.278.662l-1.015-1.976a6.127,6.127,0,0,1,1.922-.87,8.607,8.607,0,0,1,2.284-.308,5.178,5.178,0,0,1,3.463,1.052,4.08,4.08,0,0,1,1.233,3.282V512.8Z" transform="translate(-279.85 -339.567)" fill="#1e535a"/>
              <path id="Trazado_1282646" data-name="Trazado 1282646" d="M541.261,501.994l-4.552-16.415a.6.6,0,0,1,.882-.673l14.732,8.787a.6.6,0,0,1-.213,1.1l-6.705,1.06a.6.6,0,0,0-.454.351l-2.566,5.867a.6.6,0,0,1-1.123-.08" transform="translate(-362.38 -327.358)" fill="#1d3136"/>
              <path id="Trazado_1282647" data-name="Trazado 1282647" d="M72.524,530.882H42.7a2.087,2.087,0,0,1-2.087-2.087V511.152a2.087,2.087,0,0,1,2.087-2.087H72.524a2.087,2.087,0,0,1,2.087,2.087v17.642a2.087,2.087,0,0,1-2.087,2.087" transform="translate(-27.423 -343.729)" fill="#69d7e5"/>
              <path id="Trazado_1282648" data-name="Trazado 1282648" d="M69.227,557.586H55.8a1.164,1.164,0,0,1,0-2.328H69.227a1.164,1.164,0,1,1,0,2.328" transform="translate(-36.89 -374.92)" fill="#fbfcf2"/>
              <path id="Trazado_1282649" data-name="Trazado 1282649" d="M114.742,557.586h-5.55a1.164,1.164,0,1,1,0-2.328h5.55a1.164,1.164,0,0,1,0,2.328" transform="translate(-72.942 -374.92)" fill="#fbfcf2"/>
              <path id="Trazado_1282650" data-name="Trazado 1282650" d="M121.505,541.395h-1.837a1.164,1.164,0,1,1,0-2.329h1.837a1.164,1.164,0,1,1,0,2.329" transform="translate(-80.016 -363.987)" fill="#fbfcf2"/>
              <path id="Trazado_1282651" data-name="Trazado 1282651" d="M77.694,525.2H54.783a1.164,1.164,0,0,1,0-2.329H77.694a1.164,1.164,0,0,1,0,2.329" transform="translate(-36.204 -353.054)" fill="#fbfcf2"/>
              <path id="Trazado_1282652" data-name="Trazado 1282652" d="M71.646,541.395H54.783a1.164,1.164,0,1,1,0-2.329H71.646a1.164,1.164,0,1,1,0,2.329" transform="translate(-36.204 -363.987)" fill="#1e535a"/>
            </g>
          </g>
        </g>
      </g>
    </g>
  </g>
</svg>
