<svg xmlns="http://www.w3.org/2000/svg" xmlns:xlink="http://www.w3.org/1999/xlink" width="128" height="128" viewBox="0 0 128 128">
  <defs>
    <clipPath id="clip-path">
      <rect id="Rectángulo_456267" data-name="Rectángulo 456267" width="128" height="128" fill="none"/>
    </clipPath>
    <clipPath id="clip-path-2">
      <rect id="Rectángulo_468491" data-name="Rectángulo 468491" width="61.824" height="61.834" fill="#19538d"/>
    </clipPath>
  </defs>
  <g id="Grupo_1180349" data-name="Grupo 1180349" transform="translate(127.98 127.602) rotate(180)">
    <path id="Trazado_999622" data-name="Trazado 999622" d="M59.07,0A59.07,59.07,0,1,1,0,59.07,59.071,59.071,0,0,1,59.07,0" transform="translate(4.84 4.461)" fill="#fff"/>
    <g id="Grupo_1179902" data-name="Grupo 1179902" transform="translate(-0.02 -0.398)">
      <g id="Grupo_1179905" data-name="Grupo 1179905" clip-path="url(#clip-path)">
        <path id="Trazado_999618" data-name="Trazado 999618" d="M64,0A64,64,0,1,1,0,64,64,64,0,0,1,64,0" fill="none"/>
        <path id="Trazado_999619" data-name="Trazado 999619" d="M5,0A5,5,0,1,1,0,5,5,5,0,0,1,5,0" transform="translate(0 59)" fill="#19538d"/>
        <path id="Trazado_999620" data-name="Trazado 999620" d="M5,0A5,5,0,1,1,0,5,5,5,0,0,1,5,0" transform="translate(16 19)" fill="#19538d"/>
        <path id="Trazado_999621" data-name="Trazado 999621" d="M60,120A60.068,60.068,0,0,1,0,60H3A57,57,0,1,0,18.408,21.024L16.22,18.972A60,60,0,1,1,60,120" transform="translate(4 4)" fill="#19538d"/>
        <rect id="Rectángulo_456268" data-name="Rectángulo 456268" width="128" height="128" fill="none"/>
        <rect id="Rectángulo_456269" data-name="Rectángulo 456269" width="128" height="128" fill="none"/>
      </g>
    </g>
    <g id="Grupo_1214834" data-name="Grupo 1214834" transform="translate(94.98 94.602) rotate(180)">
      <path id="Trazado_1284234" data-name="Trazado 1284234" d="M105.607,5.816h21.242v15.45H105.607Zm0-3.868h21.239V3.9H105.608Zm-1.926,21.267h25.091V0H103.682Z" transform="translate(-85.316)" fill="#19538d"/>
      <g id="Grupo_1214833" data-name="Grupo 1214833">
        <g id="Grupo_1214832" data-name="Grupo 1214832" clip-path="url(#clip-path-2)">
          <path id="Trazado_1284235" data-name="Trazado 1284235" d="M16.53,232.276l-15.462,0A1.023,1.023,0,0,1,0,231.188V208.194a1.062,1.062,0,0,1,.917-1.06l15.524.006a.982.982,0,0,1,.92,1.043v23.176a1.024,1.024,0,0,1-.831.918m-1.095-23.217H1.949v5.855H15.436Zm0,7.77H1.949V222.6H15.436Zm-13.491,13.5H15.436v-5.8H1.945Z" transform="translate(0 -170.442)" fill="#19538d"/>
          <path id="Trazado_1284236" data-name="Trazado 1284236" d="M267.377,232.281H251.9a.969.969,0,0,1-.9-.914V208.015a1,1,0,0,1,.914-.872l15.37,0a1.029,1.029,0,0,1,1.075,1.06v22.991a1.031,1.031,0,0,1-.988,1.089m-.962-23.217H252.929v5.855h13.486Zm0,7.771H252.929v5.774h13.486Zm-13.486,7.7v5.8l13.492,0v-5.8Z" transform="translate(-206.541 -170.448)" fill="#19538d"/>
          <path id="Trazado_1284237" data-name="Trazado 1284237" d="M141.838,232.279l-15.461,0a1.01,1.01,0,0,1-1.008-.938l0-23.264a1.1,1.1,0,0,1,.86-.936l15.536,0a1.019,1.019,0,0,1,1.012,1.084v23.112a1.036,1.036,0,0,1-.935.944m-14.547-1.948h13.556V209.069H127.291Z" transform="translate(-103.159 -170.445)" fill="#19538d"/>
          <path id="Trazado_1284238" data-name="Trazado 1284238" d="M36.672,149.093l0,1.2a2.8,2.8,0,0,1,1.8,3.273,2.89,2.89,0,0,1-2.921,2.3,2.929,2.929,0,0,1-2.735-2.283,2.9,2.9,0,0,1,1.865-3.322l.007-2.1a1.027,1.027,0,0,1,.957-1H54.933v1.932Zm-.066,3.881a.959.959,0,1,0-.959.959.959.959,0,0,0,.959-.959" transform="translate(-26.955 -121.093)" fill="#19538d"/>
          <path id="Trazado_1284239" data-name="Trazado 1284239" d="M211.294,150.23a2.891,2.891,0,0,1-.853,5.621,2.889,2.889,0,0,1-2.89-2.147,2.819,2.819,0,0,1,1.771-3.421l.007-1.2H191.064v-1.932l19.112,0a1.024,1.024,0,0,1,1.127,1.022Zm.017,2.731a.961.961,0,1,0-.961.961.961.961,0,0,0,.961-.961" transform="translate(-157.219 -121.082)" fill="#19538d"/>
          <path id="Trazado_1284240" data-name="Trazado 1284240" d="M162.016,145.962a2.893,2.893,0,1,1-3.815,3.267,2.875,2.875,0,0,1,1.862-3.245l.01-4.032h1.948Zm-.009,2.712a.962.962,0,1,0-.962.962.962.962,0,0,0,.962-.962" transform="translate(-130.133 -116.806)" fill="#19538d"/>
          <path id="Trazado_1284241" data-name="Trazado 1284241" d="M135.565,72.9l-1.344,1.35-3.042-3.053a1.217,1.217,0,0,1,.109-1.208l2.891-2.886,1.391,1.379-2.215,2.22Z" transform="translate(-107.845 -55.214)" fill="#19538d"/>
          <path id="Trazado_1284242" data-name="Trazado 1284242" d="M193.886,74.188l-1.35-1.336,2.2-2.212-2.2-2.218,1.364-1.391,2.832,2.814a1.147,1.147,0,0,1,.116,1.367Z" transform="translate(-158.43 -55.157)" fill="#19538d"/>
          <rect id="Rectángulo_468469" data-name="Rectángulo 468469" width="6.178" height="1.981" transform="translate(28.993 18.072) rotate(-71.565)" fill="#19538d"/>
          <rect id="Rectángulo_468470" data-name="Rectángulo 468470" width="3.858" height="1.972" transform="translate(34.759 7.738)" fill="#19538d"/>
          <rect id="Rectángulo_468471" data-name="Rectángulo 468471" width="1.971" height="1.937" transform="translate(23.201 9.709) rotate(-89.832)" fill="#19538d"/>
          <rect id="Rectángulo_468472" data-name="Rectángulo 468472" width="1.928" height="1.971" transform="translate(27.063 7.74)" fill="#19538d"/>
          <rect id="Rectángulo_468473" data-name="Rectángulo 468473" width="3.852" height="1.958" transform="translate(3.888 40.565)" fill="#19538d"/>
          <rect id="Rectángulo_468474" data-name="Rectángulo 468474" width="3.846" height="1.958" transform="translate(9.666 40.565)" fill="#19538d"/>
          <rect id="Rectángulo_468475" data-name="Rectángulo 468475" width="3.857" height="1.932" transform="translate(3.888 56.014)" fill="#19538d"/>
          <rect id="Rectángulo_468476" data-name="Rectángulo 468476" width="3.846" height="1.933" transform="translate(9.666 56.011)" fill="#19538d"/>
          <rect id="Rectángulo_468477" data-name="Rectángulo 468477" width="9.623" height="1.967" transform="translate(3.888 48.312)" fill="#19538d"/>
          <rect id="Rectángulo_468478" data-name="Rectángulo 468478" width="3.852" height="1.958" transform="translate(54.083 40.565)" fill="#19538d"/>
          <rect id="Rectángulo_468479" data-name="Rectángulo 468479" width="3.846" height="1.958" transform="translate(48.313 40.565)" fill="#19538d"/>
          <rect id="Rectángulo_468480" data-name="Rectángulo 468480" width="3.852" height="1.932" transform="translate(54.083 56.013)" fill="#19538d"/>
          <rect id="Rectángulo_468481" data-name="Rectángulo 468481" width="3.846" height="1.932" transform="translate(48.313 56.013)" fill="#19538d"/>
          <rect id="Rectángulo_468482" data-name="Rectángulo 468482" width="9.623" height="1.967" transform="translate(48.313 48.312)" fill="#19538d"/>
          <path id="Trazado_1284243" data-name="Trazado 1284243" d="M163.956,297.4a2.893,2.893,0,1,1-2.893-2.893,2.893,2.893,0,0,1,2.893,2.893m-1.933-.015a.96.96,0,1,0-.96.96.96.96,0,0,0,.96-.96" transform="translate(-130.152 -242.339)" fill="#19538d"/>
          <rect id="Rectángulo_468483" data-name="Rectángulo 468483" width="1.966" height="5.83" transform="translate(29.934 50.278) rotate(-89.862)" fill="#19538d"/>
          <rect id="Rectángulo_468484" data-name="Rectángulo 468484" width="5.826" height="1.942" transform="translate(29.938 44.462)" fill="#19538d"/>
          <rect id="Rectángulo_468485" data-name="Rectángulo 468485" width="5.826" height="1.958" transform="translate(29.938 40.565)" fill="#19538d"/>
          <rect id="Rectángulo_468486" data-name="Rectángulo 468486" width="1.933" height="1.967" transform="translate(26.056 48.312)" fill="#19538d"/>
          <rect id="Rectángulo_468487" data-name="Rectángulo 468487" width="1.929" height="1.958" transform="translate(26.06 40.565)" fill="#19538d"/>
          <rect id="Rectángulo_468488" data-name="Rectángulo 468488" width="1.926" height="1.93" transform="translate(25.137 54.086)" fill="#19538d"/>
          <rect id="Rectángulo_468489" data-name="Rectángulo 468489" width="1.933" height="1.942" transform="translate(26.056 44.462)" fill="#19538d"/>
          <rect id="Rectángulo_468490" data-name="Rectángulo 468490" width="1.926" height="1.93" transform="translate(34.761 54.086)" fill="#19538d"/>
        </g>
      </g>
    </g>
  </g>
</svg>
