<svg xmlns="http://www.w3.org/2000/svg" xmlns:xlink="http://www.w3.org/1999/xlink" width="69.323" height="69.323" viewBox="0 0 69.323 69.323">
  <defs>
    <clipPath id="clip-path">
      <rect id="Rectangle_468785" data-name="Rectangle 468785" width="45.442" height="41.152" fill="#fff"/>
    </clipPath>
  </defs>
  <g id="img15" transform="translate(-1226 -5558)">
    <rect id="Rectangle_467851" data-name="Rectangle 467851" width="69.323" height="69.323" transform="translate(1226 5558)" fill="#19538d"/>
    <g id="Group_1214920" data-name="Group 1214920" transform="translate(1238 5572)">
      <g id="Group_1214919" data-name="Group 1214919" clip-path="url(#clip-path)">
        <path id="Path_1284593" data-name="Path 1284593" d="M144.887,29.727a1.121,1.121,0,0,1-.7,1.195l-.045-11.011a3.754,3.754,0,0,0-3.47-3.558L119.9,16.309l.005-15.159A1.17,1.17,0,0,1,120.961,0h18.356l0,3.829a1.64,1.64,0,0,0,1.691,1.715l3.876,0Z" transform="translate(-102.956)" fill="#fff"/>
        <path id="Path_1284594" data-name="Path 1284594" d="M69.18,148.615a24.846,24.846,0,0,1-.045-2.793l24.441.006a3,3,0,0,0,3.126-3.116l0-4.8a2.983,2.983,0,0,0-2.85-3.1H69.126l0-5.978H96.543a2.041,2.041,0,0,1,2.115,2.025l.005,18.911a4.133,4.133,0,0,0,.574,2.006L72.4,151.756a3.437,3.437,0,0,1-3.223-3.141" transform="translate(-59.348 -110.623)" fill="#fff"/>
        <path id="Path_1284595" data-name="Path 1284595" d="M35.426,191.891H0v-7.16H35.426ZM5.683,189.265a.994.994,0,0,0,.859-1.02c-.021-.356-.433-.893-.844-.893H4a1.017,1.017,0,0,0-.849,1.017c.026.353.444.9.84.9Zm6.648-.066c.464-.069.686-.732.617-1.081-.055-.278-.448-.746-.77-.748l-1.829-.014c-.391,0-.744.557-.753.884-.011.392.245.931.682.987a7.207,7.207,0,0,0,2.053-.027m6.288.048c.461-.006.808-.635.777-1s-.422-.892-.839-.893l-1.685,0a.955.955,0,0,0-.861,1.015c.036.37.414.906.85.9Zm6.21.032a.937.937,0,0,0,.981-1.044.973.973,0,0,0-.9-.887l-1.547-.007a.965.965,0,0,0,.014,1.93Zm6.579-.015a.977.977,0,0,0,.839-1.012,1.012,1.012,0,0,0-.963-.913l-1.556.013a1,1,0,0,0-.877,1.025,1.06,1.06,0,0,0,.871.891Z" transform="translate(0 -158.62)" fill="#fff"/>
        <path id="Path_1284596" data-name="Path 1284596" d="M293.214,99.217a2.044,2.044,0,0,1-1.589-1.932l0-6.126a3.2,3.2,0,0,0,2.635-3.183l0-20.2c.621-.1,1.247-.063,1.539.369l.04,27.74a3.572,3.572,0,0,1-2.633,3.333" transform="translate(-250.405 -58.157)" fill="#fff"/>
        <path id="Path_1284597" data-name="Path 1284597" d="M74.424,94.136l-5.245.01a3.59,3.59,0,0,1,3.685-3.5l1.557.012Z" transform="translate(-59.401 -77.834)" fill="#fff"/>
        <path id="Path_1284598" data-name="Path 1284598" d="M273.164,11.822l-2.254.087.03-2.319Z" transform="translate(-232.617 -8.235)" fill="#fff"/>
      </g>
    </g>
  </g>
</svg>
