<svg xmlns="http://www.w3.org/2000/svg" xmlns:xlink="http://www.w3.org/1999/xlink" width="129" height="129" viewBox="0 0 129 129">
  <defs>
    <clipPath id="clip-path">
      <rect id="Rectángulo_456296" data-name="Rectángulo 456296" width="129" height="129" fill="none"/>
    </clipPath>
    <clipPath id="clip-path-3">
      <rect id="Rectángulo_468425" data-name="Rectángulo 468425" width="77.783" height="77.087" fill="#19538d"/>
    </clipPath>
  </defs>
  <g id="Grupo_1179966" data-name="Grupo 1179966" transform="translate(-1122.059 -5874)">
    <g id="Grupo_1179964" data-name="Grupo 1179964" transform="translate(92 -3561)">
      <g id="Grupo_1179952" data-name="Grupo 1179952" transform="translate(1030.059 9435)" clip-path="url(#clip-path)">
        <path id="Trazado_999645" data-name="Trazado 999645" d="M1.5,5.146H106.366A15.892,15.892,0,0,1,122.3,21V125.366H17.429A15.892,15.892,0,0,1,1.5,109.513Z" transform="translate(0.491 1.653)" fill="#d7f1fe"/>
      </g>
      <g id="Grupo_1179957" data-name="Grupo 1179957" transform="translate(1030.059 9435)">
        <g id="Grupo_1179956" data-name="Grupo 1179956" clip-path="url(#clip-path)">
          <path id="Trazado_999651" data-name="Trazado 999651" d="M93.818,30a6.606,6.606,0,1,1-6.637,6.605A6.622,6.622,0,0,1,93.818,30" transform="translate(28.545 9.633)" fill="#19538d"/>
          <path id="Trazado_999652" data-name="Trazado 999652" d="M64.818,0a6.606,6.606,0,1,1-6.637,6.605A6.622,6.622,0,0,1,64.818,0" transform="translate(19.05 0)" fill="#19538d"/>
          <path id="Trazado_999653" data-name="Trazado 999653" d="M122.3,44.586v80.78H17.429A15.892,15.892,0,0,1,1.5,109.513V5.146H84.275" transform="translate(0.491 1.653)" fill="none" stroke="#19538d" stroke-miterlimit="10" stroke-width="4"/>
        </g>
      </g>
    </g>
    <g id="Grupo_1179965" data-name="Grupo 1179965" transform="translate(1141.059 5897)">
      <rect id="Rectángulo_456311" data-name="Rectángulo 456311" width="87.124" height="87.753" transform="translate(0 -0.189)" fill="none"/>
      <g id="Grupo_1214761" data-name="Grupo 1214761" transform="translate(5 5.811)">
        <g id="Grupo_1214760" data-name="Grupo 1214760" clip-path="url(#clip-path-3)">
          <path id="Trazado_1284100" data-name="Trazado 1284100" d="M90.4,95.99A1.059,1.059,0,0,1,89.281,97.1l-26.666,0c-.727,0-1.3-.4-1.292-1.1l.085-5.334,3.38-.107,1.3-4.078-20.455-.04c-2.114,0-3.753-2.143-3.752-4.193l.011-39a3.972,3.972,0,0,1,3.782-3.87l8.061-.07c-.116-3.437-.261-6.576-.06-9.959a3.818,3.818,0,0,1,3.375-3.282H94.391a4.018,4.018,0,0,1,3.9,3.675l.049,9.583,7.5.018c1.879,0,4.086,1.559,4.087,3.69l.006,39.654a4.045,4.045,0,0,1-3.878,3.778L85.874,86.5l1.334,4.081,2.161,0a.991.991,0,0,1,1.031.949ZM88.754,32.05c3.306.013,3.108,3.5,5.158,3.516l2.772.022L96.658,30.5a2.659,2.659,0,0,0-2.719-2.636h-36.2a2.668,2.668,0,0,0-2.376,2.6l-.01,5.125,20.718,0c1.9,0,1.726-3.577,5.577-3.561Zm7.777,8.43c0-1.157.223-2.321.168-3.281l-3.177-.076a3.828,3.828,0,0,1-2.975-2.313,2.135,2.135,0,0,0-1.91-1.167l-7-.008a2.567,2.567,0,0,0-2.474,1.544A3.611,3.611,0,0,1,75.827,37.2H55.342l0,39.715H96.513Zm1.82,2.427,7.274-.007a.95.95,0,0,1,.8.862l-.018,34.563-8.642.165-43.618,0L46.3,78.38a.984.984,0,0,1-.849-.813l.019-34.611,8.126-.077-.036-1.921L45.673,41a2.387,2.387,0,0,0-2.136,2.5L43.529,82A2.672,2.672,0,0,0,46.352,84.9l20.91-.036,38.3.031c1.206,0,2.787-.79,2.787-2.205l.009-39.411a2.541,2.541,0,0,0-2.543-2.286l-7.459-.022ZM53.56,44.52H47.1V76.793H53.56Zm51.261,0h-6.48V76.793h6.48ZM85.473,90.553,84.1,86.51l-16.341,0-1.232,4.062Zm3.288,1.6-25.776.05.007,3.263,25.776-.05Z" transform="translate(-32.155 -20.02)" fill="#19538d"/>
          <path id="Trazado_1284101" data-name="Trazado 1284101" d="M10.64,18.508C9.81,18.1,10.2,16.9,9.376,16.262c-.577-.445-.692,1.527-1.5,2.28A8.429,8.429,0,0,1,3.68,16.691l.592-1.516a2.409,2.409,0,0,0,.107-1.031c-.2-.672-2.117.963-2.679.454C.248,13.282-.236,10.533.224,10.294c.849-.44,1.851-.272,2.1-1.276L0,8.1C.017,6.456,1.04,4.076,1.835,3.656c.7-.369,1.562,1.089,2.766.6l-.976-2.43A7.817,7.817,0,0,1,7.491.015c1.238-.2.7,1.593,1.884,2.6A17.86,17.86,0,0,0,10.289.128,5.652,5.652,0,0,1,14.678,1.81c.328.634-.823,1.426-.61,2.594a8.406,8.406,0,0,0,2.453-.933,6.1,6.1,0,0,1,1.97,4.465L16.2,8.854c.13,1.447,2.575.9,2.31,2.184a6.993,6.993,0,0,1-1.961,3.808c-.92-.4-1.474-.627-2.367-.941-.552,1.185,1.079,2.413.392,2.978a7.224,7.224,0,0,1-3.934,1.625m5.894-6.4c.321-1.093-2.475-1.464-1.838-3.571a2.688,2.688,0,0,1,2.013-1.67L16.124,5.5c-1.206.615-2.408.719-3.266-.267-.666-.766-.432-1.88-.039-2.9l-1.348-.494c-.27,1.3-1.241,2.388-2.508,2.172-1.04-.177-1.581-1.2-2-2.217L5.594,2.37a2.326,2.326,0,0,1-.2,3.115,2.227,2.227,0,0,1-2.908.049c-.375.28-.769,1.316-.411,1.544A2.774,2.774,0,0,1,3.876,9c.258,1.928-2.308,2.312-2.011,2.861l.454.836c.131.243,2.158-.957,3.206.286,1.2,1.426-.049,3.118.382,3.26l.957.317c.324.107.744-2.053,2.562-1.959a2.39,2.39,0,0,1,1.658,1.233c.307.747.5.922,1.133.653,1.214-.515-.633-2.23.831-3.586,1.393-1.291,3.079.6,3.488-.79" transform="translate(0 0)" fill="#19538d"/>
          <path id="Trazado_1284102" data-name="Trazado 1284102" d="M112.277,89.15h35.394V99.424H112.277Zm27.483,1.732H120.237l9.822,2.6Zm-13.207,3.426-12.617-3.261,0,6.534ZM146,97.558l.02-6.505-12.589,3.254Zm-6.369.116c-3.151-.649-6.416-2.2-9.7-2.265-3.282.141-6.477,1.606-9.574,2.268,6.624.2,12.649.207,19.274,0" transform="translate(-86.196 -68.442)" fill="#19538d"/>
          <path id="Trazado_1284103" data-name="Trazado 1284103" d="M211.372,151.615h-15.92v-9.921h15.92Zm-4.307-8.208c-2.908-.133-4.976-.114-7.642-.049l3.913,2.31Zm2.664,5.881.035-5.477-4.777,2.741Zm-8.03-2.729-4.624-2.617-.014,5.308Zm5.714,3.348-4.087-2.416-4.13,2.425c2.9.077,5.216.083,8.218-.009" transform="translate(-150.051 -108.78)" fill="#19538d"/>
          <path id="Trazado_1284104" data-name="Trazado 1284104" d="M113.793,141.693l15.938,0v9.921l-15.938,0Zm11.946,1.684c-2.917-.089-5.064-.092-7.887,0l4.033,2.344Zm-5.529,3.295-4.79-2.773v5.58Zm7.84,2.551.021-5.27-4.563,2.652Zm-2.164.68-4.022-2.346-3.934,2.366c2.8.063,5.054.072,7.955-.02" transform="translate(-87.36 -108.779)" fill="#19538d"/>
          <rect id="Rectángulo_468424" data-name="Rectángulo 468424" width="19.823" height="1.628" transform="translate(33.088 45.274)" fill="#19538d"/>
          <path id="Trazado_1284105" data-name="Trazado 1284105" d="M213.173,211.065H199.729a1.138,1.138,0,0,1-.778-.727,1,1,0,0,1,.782-.911h13.35a1.207,1.207,0,0,1,.825.711c.063.265-.405.925-.734.925" transform="translate(-152.734 -160.78)" fill="#19538d"/>
          <path id="Trazado_1284106" data-name="Trazado 1284106" d="M125.722,226.575l-12.548,0a1.506,1.506,0,0,1-.833-.666c-.106-.283.271-.825.616-.95l13.013,0a1.336,1.336,0,0,1,.5.806c-.028.267-.44.645-.748.805" transform="translate(-86.232 -172.705)" fill="#19538d"/>
          <path id="Trazado_1284107" data-name="Trazado 1284107" d="M121.627,211.046l-8.529,0a1.2,1.2,0,0,1-.835-.74,1.042,1.042,0,0,1,.753-.885l8.433-.014a1.191,1.191,0,0,1,.921.732c.044.293-.422.911-.742.911" transform="translate(-86.182 -160.761)" fill="#19538d"/>
          <path id="Trazado_1284108" data-name="Trazado 1284108" d="M188.814,226.55l-6.935.006a1.856,1.856,0,0,1-.93-.424c-.21-.187.022-1.138.307-1.154l7.761-.041c.248,0,.652.586.63.828a1.131,1.131,0,0,1-.833.784" transform="translate(-138.855 -172.688)" fill="#19538d"/>
          <path id="Trazado_1284109" data-name="Trazado 1284109" d="M233.95,226.543l-6.983.022a1.124,1.124,0,0,1-.916-.816,1.062,1.062,0,0,1,.882-.806l7.293,0,.486.775c.121.193-.469.826-.761.827" transform="translate(-173.541 -172.69)" fill="#19538d"/>
          <path id="Trazado_1284110" data-name="Trazado 1284110" d="M168.57,211.055l-5.062-.01a1.164,1.164,0,0,1-.824-.717,1.031,1.031,0,0,1,.849-.928l4.872.02c.275,0,.846.5.8.741a2.227,2.227,0,0,1-.639.894" transform="translate(-124.891 -160.759)" fill="#19538d"/>
          <path id="Trazado_1284111" data-name="Trazado 1284111" d="M241.053,196.5l-4.985.04a1.105,1.105,0,0,1-.876-.818,1.024,1.024,0,0,1,.883-.824l5.049.029c.285,0,.635.549.61.775s-.453.8-.679.8" transform="translate(-180.56 -149.627)" fill="#19538d"/>
          <path id="Trazado_1284112" data-name="Trazado 1284112" d="M116.781,196.526l-3.653.015a1.16,1.16,0,0,1-.848-.844c-.022-.3.5-.786.818-.786l3.552,0a1.21,1.21,0,0,1,.874.614c.088.285-.37.995-.744,1" transform="translate(-86.199 -149.636)" fill="#19538d"/>
          <path id="Trazado_1284113" data-name="Trazado 1284113" d="M183.261,257.838A2.261,2.261,0,1,1,181,255.577a2.261,2.261,0,0,1,2.261,2.261" transform="translate(-137.221 -196.21)" fill="#19538d"/>
          <path id="Trazado_1284114" data-name="Trazado 1284114" d="M164.381,43.178a2.584,2.584,0,1,1-2.584-2.584,2.585,2.585,0,0,1,2.584,2.584m-1.619.006a.967.967,0,1,0-.967.967.967.967,0,0,0,.967-.967" transform="translate(-122.229 -31.165)" fill="#19538d"/>
          <path id="Trazado_1284115" data-name="Trazado 1284115" d="M110.641,43.151a2.585,2.585,0,1,1-2.585-2.585,2.585,2.585,0,0,1,2.585,2.585m-1.626,0a.962.962,0,1,0-.962.962.962.962,0,0,0,.962-.962" transform="translate(-80.971 -31.143)" fill="#19538d"/>
          <path id="Trazado_1284116" data-name="Trazado 1284116" d="M137.892,43.173a2.585,2.585,0,1,1-2.585-2.585,2.585,2.585,0,0,1,2.585,2.585m-1.611.006a.972.972,0,1,0-.972.972.972.972,0,0,0,.972-.972" transform="translate(-101.892 -31.16)" fill="#19538d"/>
          <path id="Trazado_1284117" data-name="Trazado 1284117" d="M32.755,29.681a3.072,3.072,0,1,1-3.072-3.072,3.072,3.072,0,0,1,3.072,3.072m-1.628,0a1.443,1.443,0,1,0-1.443,1.443,1.443,1.443,0,0,0,1.443-1.443" transform="translate(-20.43 -20.428)" fill="#19538d"/>
        </g>
      </g>
    </g>
  </g>
</svg>
