<svg xmlns="http://www.w3.org/2000/svg" xmlns:xlink="http://www.w3.org/1999/xlink" width="84" height="84" viewBox="0 0 84 84">
  <defs>
    <clipPath id="clip-path">
      <rect id="Rectángulo_467930" data-name="Rectángulo 467930" width="64.609" height="73" fill="#19538d"/>
    </clipPath>
  </defs>
  <g id="Grupo_1212410" data-name="Grupo 1212410" transform="translate(0.723 0.547)">
    <g id="Grupo_1119665" data-name="Grupo 1119665" transform="translate(-0.723 -0.547)">
      <rect id="Rectángulo_402006" data-name="Rectángulo 402006" width="84" height="84" rx="5" fill="#ffe2bc"/>
    </g>
    <g id="Grupo_1214636" data-name="Grupo 1214636" transform="translate(9.277 5.453)">
      <g id="Grupo_1214635" data-name="Grupo 1214635" clip-path="url(#clip-path)">
        <path id="Trazado_1283054" data-name="Trazado 1283054" d="M7.7,72.94A7.819,7.819,0,0,1,.048,65.305L0,58.787a1.214,1.214,0,0,1,1.3-1.118l3.5-.058L4.815,2.429C4.815.884,6.451,0,7.8,0L61.908.006a2.693,2.693,0,0,1,2.7,2.655L64.6,64.99c0,4.169-2.98,7.138-6.991,8.01Zm44.081-7.955a5.572,5.572,0,0,0,5.288,5.594,5.582,5.582,0,0,0,5.243-5.262L62.305,2.352l-55.2,0,0,55.3H50.6a1.075,1.075,0,0,1,1.158,1.119Zm.054,5.7a8.482,8.482,0,0,1-2.31-5.431L49.5,59.91l-47.189,0c.008,1.931-.048,3.749.065,5.617a5.724,5.724,0,0,0,5.192,5.159Z" transform="translate(0 0)" fill="#19538d"/>
        <path id="Trazado_1283055" data-name="Trazado 1283055" d="M84.76,74.363l-.077,2.214a2.808,2.808,0,0,1-2.632,2.554l-8.6.046-.015,4.533,3.645,3.642a2.262,2.262,0,0,1,.079,3.145L73.7,93.918c-.972.962-2.451.453-3.252-.356l-2.9-2.924a2.376,2.376,0,0,1-.048-3.361l3.653-3.629,0-4.479L62.6,79.139a2.853,2.853,0,0,1-2.769-2.993l.015-1.78-6.01.066L53.815,96.39a4.948,4.948,0,1,1-2.268-.075l0-21.221c0-1.31.947-2.86,2.379-2.879l5.891-.081.111-3.567c.043-1.378,1.583-2.354,2.887-2.354l18.993,0A2.884,2.884,0,0,1,84.7,69.008l.039,3.132,5.758.049a2.859,2.859,0,0,1,2.551,3l.006,4.094a4.929,4.929,0,0,1,3.8,4.739,4.987,4.987,0,0,1-3.809,4.894l-.013,8.024a4.966,4.966,0,1,1-5.99,5.988l-10.215.034a4.032,4.032,0,0,1-.414,2.41,2.683,2.683,0,0,1-2.057.972l-4.269-.012a2.314,2.314,0,0,1-2.336-2.278V99.463a2.251,2.251,0,0,1,2.143-2.208c1.692-.04,3.369-.071,5.046.052,1.5.11,2.173,1.815,1.841,3.317l10.255.016a5.1,5.1,0,0,1,3.707-3.7l0-8A5.018,5.018,0,0,1,86.928,84.2a4.862,4.862,0,0,1,3.8-4.92l-.034-4.856Zm-2.3-5.858H62.115v8.369H82.459ZM94.565,84.082a2.68,2.68,0,1,0-2.68,2.68,2.68,2.68,0,0,0,2.68-2.68m-19.035,4.89-3.217-3.163L69.1,88.961l3.13,3.175ZM55.21,101.178a2.68,2.68,0,1,0-2.68,2.68,2.68,2.68,0,0,0,2.68-2.68m39.356.6a2.68,2.68,0,1,0-2.68,2.68,2.68,2.68,0,0,0,2.68-2.68m-24.529-2.3-.022,4.588,4.514.021.022-4.588Z" transform="translate(-37.011 -51.508)" fill="#19538d"/>
        <path id="Trazado_1283056" data-name="Trazado 1283056" d="M94.883,43.73H49.4a1.205,1.205,0,0,1-1.116-1.2c.063-.7.476-1.085,1.3-1.085H94.819c.821,0,1.276.381,1.315,1.076a1.182,1.182,0,0,1-1.251,1.208" transform="translate(-37.559 -32.242)" fill="#19538d"/>
        <path id="Trazado_1283057" data-name="Trazado 1283057" d="M95.047,23.116l-45.46,0a1.328,1.328,0,0,1-1.266-.922c-.136-.395.238-1.365.856-1.365l45.871-.007a1.231,1.231,0,0,1,1.106,1.014,1.167,1.167,0,0,1-1.106,1.276" transform="translate(-37.568 -16.2)" fill="#19538d"/>
        <path id="Trazado_1283058" data-name="Trazado 1283058" d="M143.705,90.154a1.188,1.188,0,1,1-1.188-1.188,1.188,1.188,0,0,1,1.188,1.188" transform="translate(-109.943 -69.209)" fill="#19538d"/>
        <path id="Trazado_1283059" data-name="Trazado 1283059" d="M164.338,90.169a1.185,1.185,0,1,1-1.185-1.185,1.185,1.185,0,0,1,1.185,1.185" transform="translate(-125.999 -69.223)" fill="#19538d"/>
        <path id="Trazado_1283060" data-name="Trazado 1283060" d="M184.749,90.167a1.186,1.186,0,1,1-1.186-1.186,1.186,1.186,0,0,1,1.186,1.186" transform="translate(-141.876 -69.221)" fill="#19538d"/>
        <path id="Trazado_1283061" data-name="Trazado 1283061" d="M123.258,90.178A1.183,1.183,0,1,1,122.076,89a1.183,1.183,0,0,1,1.183,1.183" transform="translate(-94.046 -69.231)" fill="#19538d"/>
      </g>
    </g>
  </g>
</svg>
