<svg xmlns="http://www.w3.org/2000/svg" xmlns:xlink="http://www.w3.org/1999/xlink" width="96" height="96" viewBox="0 0 96 96">
  <defs>
    <clipPath id="clip-path">
      <rect id="Rectángulo_456267" data-name="Rectángulo 456267" width="96" height="96" fill="none"/>
    </clipPath>
    <clipPath id="clip-path-2">
      <rect id="Rectángulo_468187" data-name="Rectángulo 468187" width="55" height="55" fill="#0f654d"/>
    </clipPath>
  </defs>
  <g id="Grupo_1214054" data-name="Grupo 1214054" transform="translate(479.746 8495) rotate(180)">
    <path id="Trazado_999622" data-name="Trazado 999622" d="M43.07,0A43.07,43.07,0,1,1,0,43.07,43.071,43.071,0,0,1,43.07,0" transform="translate(388.676 8403.93)" fill="#e3fbf9"/>
    <g id="Grupo_1179902" data-name="Grupo 1179902" transform="translate(383.746 8399)">
      <g id="Grupo_1179905" data-name="Grupo 1179905" clip-path="url(#clip-path)">
        <path id="Trazado_999618" data-name="Trazado 999618" d="M48,0A48,48,0,1,1,0,48,48,48,0,0,1,48,0" fill="none"/>
        <path id="Trazado_999619" data-name="Trazado 999619" d="M3.75,59A3.75,3.75,0,1,1,0,62.75,3.75,3.75,0,0,1,3.75,59" transform="translate(0 -14.75)" fill="#0f654d"/>
        <path id="Trazado_999620" data-name="Trazado 999620" d="M19.75,19A3.75,3.75,0,1,1,16,22.75,3.75,3.75,0,0,1,19.75,19" transform="translate(-4 -4.75)" fill="#0f654d"/>
        <path id="Trazado_999621" data-name="Trazado 999621" d="M49,94A45.051,45.051,0,0,1,4,49H6.25A42.75,42.75,0,1,0,17.806,19.768l-1.641-1.539A45,45,0,1,1,49,94" transform="translate(-1 -1)" fill="#0f654d"/>
        <rect id="Rectángulo_456268" data-name="Rectángulo 456268" width="96" height="96" fill="none"/>
        <rect id="Rectángulo_456269" data-name="Rectángulo 456269" width="96" height="96" fill="none"/>
      </g>
    </g>
    <g id="Grupo_1179903" data-name="Grupo 1179903" transform="translate(458.745 8474.508) rotate(180)">
      <g id="Grupo_1099618" data-name="Grupo 1099618" transform="translate(-0.247 -0.32)">
        <rect id="Rectángulo_401104" data-name="Rectángulo 401104" width="54.153" height="54.806" transform="translate(0)" fill="none"/>
      </g>
      <g id="Grupo_1214685" data-name="Grupo 1214685" transform="translate(-0.247 -0.32)">
        <g id="Grupo_1214684" data-name="Grupo 1214684" clip-path="url(#clip-path-2)">
          <path id="Trazado_1283382" data-name="Trazado 1283382" d="M6.249,55.118A4.422,4.422,0,0,1,1.8,50.692l-.02-4.47,10.661,0,0-18.341-1.181-1.545a19.035,19.035,0,0,1-3.342-1.359l-2.063,1L2.459,22.585l1.006-2.058a21.961,21.961,0,0,1-1.3-3.141L0,16.65l.006-4.861L2.127,11.1c.408-1.121.819-2.123,1.329-3.2l-1-2.056,3.4-3.4L7.9,3.464a24.367,24.367,0,0,1,3.168-1.3L11.819,0l4.839.009.727,2.166a17.134,17.134,0,0,1,3.1,1.292l2.1-1.011,3.4,3.393L24.969,7.906l.512.983H50.52a4.465,4.465,0,0,1,4.6,4.531l.008,7.911H48.012l.006,1.781,7.1.007V44.446l-7.114,0L48,50.7a4.472,4.472,0,0,1-4.436,4.429Zm-.007-31.29,1.811-.919a11.177,11.177,0,0,0,4.4,1.844l-.013-1.837A8.876,8.876,0,1,1,21.3,8.876l2.118.009-.487-.86.9-1.815-1.6-1.6-1.836.913A11.346,11.346,0,0,0,16.031,3.7l-.693-1.93-2.269.02-.639,1.92A11.108,11.108,0,0,0,8.048,5.526l-1.836-.92-1.6,1.622L5.53,8.046a11.08,11.08,0,0,0-1.814,4.377l-1.924.65v2.285l1.921.672a12.037,12.037,0,0,0,1.811,4.4l-.918,1.794Zm9.287-14.8,3.337-.2A7.109,7.109,0,0,0,7.215,15.342a7.02,7.02,0,0,0,5.223,5.72L12.412,19.2a5.274,5.274,0,0,1-3.277-6.52A5.378,5.378,0,0,1,15.529,9.03M46.213,44.447l-19.549,0V23.113H46.219V13.421a5.459,5.459,0,0,1,.877-2.756l-30.333.01a2.634,2.634,0,0,0-2.535,2.766l0,32.778H40.887l.009,4.325a2.67,2.67,0,0,0,2.621,2.78,2.6,2.6,0,0,0,2.691-2.534Zm7.12-24.905.005-6.109a2.667,2.667,0,1,0-5.331-.015v6.137ZM12.437,13.4a6.237,6.237,0,0,1,.687-2.52,3.5,3.5,0,0,0-.686,6.374Zm40.9,11.464-24.88.016v1.793l24.88-.016Zm0,3.576H28.455V42.685H53.334ZM39.946,53.331a5.814,5.814,0,0,1-.846-2.625l.01-2.7H3.582l0,2.851a2.564,2.564,0,0,0,2.633,2.467Z" fill="#0f654d"/>
          <rect id="Rectángulo_468178" data-name="Rectángulo 468178" width="28.443" height="1.776" transform="translate(16.01 16)" fill="#0f654d"/>
          <rect id="Rectángulo_468179" data-name="Rectángulo 468179" width="24.901" height="1.798" transform="translate(19.552 12.435)" fill="#0f654d"/>
          <rect id="Rectángulo_468180" data-name="Rectángulo 468180" width="15.997" height="1.797" transform="translate(28.455 19.548)" fill="#0f654d"/>
          <rect id="Rectángulo_468181" data-name="Rectángulo 468181" width="10.658" height="1.793" transform="translate(16.01 19.548)" fill="#0f654d"/>
          <rect id="Rectángulo_468182" data-name="Rectángulo 468182" width="8.879" height="1.775" transform="translate(16.01 23.111)" fill="#0f654d"/>
          <rect id="Rectángulo_468183" data-name="Rectángulo 468183" width="8.879" height="1.775" transform="translate(16.01 30.222)" fill="#0f654d"/>
          <rect id="Rectángulo_468184" data-name="Rectángulo 468184" width="8.879" height="1.791" transform="translate(16.01 26.662)" fill="#0f654d"/>
          <rect id="Rectángulo_468185" data-name="Rectángulo 468185" width="1.77" height="1.798" transform="translate(16.01 12.435)" fill="#0f654d"/>
          <rect id="Rectángulo_468186" data-name="Rectángulo 468186" width="10.853" height="1.82" transform="translate(39.103 40.759) rotate(-80.498)" fill="#0f654d"/>
          <path id="Trazado_1283383" data-name="Trazado 1283383" d="M217.006,205.653l-1.264,1.257-4.174-4.165,4.165-4.2,1.274,1.259-2.922,2.923Z" transform="translate(-178.152 -167.188)" fill="#0f654d"/>
          <path id="Trazado_1283384" data-name="Trazado 1283384" d="M271.892,205.731l2.919-2.919-2.909-2.949,1.26-1.234,4.174,4.178-4.18,4.183Z" transform="translate(-228.948 -167.256)" fill="#0f654d"/>
        </g>
      </g>
    </g>
  </g>
</svg>
