<svg xmlns="http://www.w3.org/2000/svg" xmlns:xlink="http://www.w3.org/1999/xlink" width="69.323" height="69.323" viewBox="0 0 69.323 69.323">
  <defs>
    <clipPath id="clip-path">
      <rect id="Rectangle_468789" data-name="Rectangle 468789" width="45.697" height="44.342" fill="#fff"/>
    </clipPath>
  </defs>
  <g id="img12" transform="translate(-305 -5558)">
    <path id="Path_1282999" data-name="Path 1282999" d="M0,0H69.323V69.323H0Z" transform="translate(305 5558)" fill="#0f654d"/>
    <g id="Group_1214929" data-name="Group 1214929" transform="translate(317 5570)">
      <g id="Group_1214928" data-name="Group 1214928" clip-path="url(#clip-path)">
        <path id="Path_1284610" data-name="Path 1284610" d="M27.792,289.44H44.947c2.005,0-.094,6.952-5.306,6.954l-33.47.014A6.3,6.3,0,0,1,0,290.1a.65.65,0,0,1,.611-.66l17.1,0a1.058,1.058,0,0,1,.779.37l1.022,1.806,6.65,0,1-1.757a1.015,1.015,0,0,1,.632-.413" transform="translate(0 -252.066)" fill="#fff"/>
        <path id="Path_1284611" data-name="Path 1284611" d="M11.774,19.269a1.02,1.02,0,0,1-1.3.041A31.459,31.459,0,0,1,5.13,14.7c-1.5-1.671-3.018-3.944-3.021-6.129L2.1,4.421A.663.663,0,0,1,2.8,3.762,4.3,4.3,0,0,0,6.739.636.841.841,0,0,1,7.576,0l7.059,0a.8.8,0,0,1,.828.657,4.276,4.276,0,0,0,3.957,3.1c.326.008.738.251.737.58l-.008,4.335c0,2.067-1.558,4.349-3,5.966a31.875,31.875,0,0,1-5.376,4.631M9.331,12.893a.774.774,0,0,0,.933-.039l5.323-5.169a.978.978,0,0,0,0-.872.888.888,0,0,0-.914-.144L9.775,11.411,7.407,9.11a.747.747,0,0,0-.989.063.714.714,0,0,0,.07.963Z" transform="translate(-1.823 0.001)" fill="#fff"/>
        <path id="Path_1284612" data-name="Path 1284612" d="M202.814,122.245h-10.29a2,2,0,0,1-1.942-1.8l-.032-7.338a2.1,2.1,0,0,1,2.09-2.182l.029-3.63a4.7,4.7,0,0,1,3.19-4.109,5.072,5.072,0,0,1,5.558,1.249,4.863,4.863,0,0,1,1.311,3.242l.036,3.248a2.08,2.08,0,0,1,2.052,1.954l.01,7.324a2.05,2.05,0,0,1-2.014,2.043m-1.445-11.326-.008-3.289a3.735,3.735,0,0,0-2.557-3.338,3.666,3.666,0,0,0-4.74,3.059c-.092,1.181-.028,2.335-.042,3.573Zm-3,6.7-.009-2.1a.781.781,0,0,0-.725-.622.79.79,0,0,0-.642.624l0,2.123a.753.753,0,0,0,.756.63.863.863,0,0,0,.618-.656" transform="translate(-165.224 -89.562)" fill="#fff"/>
        <path id="Path_1284613" data-name="Path 1284613" d="M19.745,57.279l1.4,1.344,0,17.253H58.773V49.817a1.148,1.148,0,0,0-1.21-1.092l-20.729.015a8.1,8.1,0,0,1-.006-1.392L57.7,47.36a2.544,2.544,0,0,1,2.468,2.37l.01,26.758a.729.729,0,0,1-.768.728h-38.9a.716.716,0,0,1-.767-.724Z" transform="translate(-17.121 -41.234)" fill="#fff"/>
        <path id="Path_1284614" data-name="Path 1284614" d="M66.275,204.962l-14.362.007a.809.809,0,0,1-.814-.451c-.094-.3.032-.92.451-.92l14.558-.01a.743.743,0,0,1,.8.564.709.709,0,0,1-.633.81" transform="translate(-44.282 -177.302)" fill="#fff"/>
        <path id="Path_1284615" data-name="Path 1284615" d="M66.14,233.155l-14.21,0a.825.825,0,0,1-.807-.472c-.106-.283.067-.885.477-.885H66.459c.313,0,.521.556.471.776a.8.8,0,0,1-.79.582" transform="translate(-44.302 -201.867)" fill="#fff"/>
        <path id="Path_1284616" data-name="Path 1284616" d="M63.482,176.964l-11.711,0a.83.83,0,0,1-.719-.565c-.053-.263.121-.8.466-.8l12.281,0c.307,0,.508.571.459.791a.832.832,0,0,1-.775.568" transform="translate(-44.258 -152.929)" fill="#fff"/>
      </g>
    </g>
  </g>
</svg>
