<svg xmlns="http://www.w3.org/2000/svg" xmlns:xlink="http://www.w3.org/1999/xlink" width="69.323" height="69.323" viewBox="0 0 69.323 69.323">
  <defs>
    <clipPath id="clip-path">
      <rect id="Rectangle_468191" data-name="Rectangle 468191" width="49" height="39.44" fill="#fff"/>
    </clipPath>
  </defs>
  <g id="img14" transform="translate(-919 -3064)">
    <rect id="Rectangle_467361" data-name="Rectangle 467361" width="69.323" height="69.323" transform="translate(919 3064)" fill="#0f654d"/>
    <g id="Group_1214693" data-name="Group 1214693" transform="translate(929 3079)">
      <g id="Group_1214692" data-name="Group 1214692" clip-path="url(#clip-path)">
        <path id="Path_1283431" data-name="Path 1283431" d="M29.945,39.2a1.186,1.186,0,0,1-1.276.1l-8.884-5.088-8.8,5.026a1.171,1.171,0,0,1-1.322,0L.483,33.984A1.229,1.229,0,0,1,0,33.214L0,22.6a1.2,1.2,0,0,1,.47-.935l8.987-5.131,0-10.31a1.263,1.263,0,0,1,.482-.769L19.014.267A1.191,1.191,0,0,1,20.437.206l8.8,5.025L38.017.2a1.224,1.224,0,0,1,1.22-.056l9.279,5.309a1.233,1.233,0,0,1,.479.769L49,17.13l-.468.651-8.989,5.126,0,10.309a1.309,1.309,0,0,1-.48.773ZM19.81,21.432l8.551-4.911,0-9.818L19.769,1.8,11.183,6.714l.017,9.837Zm15.128-5.2c-.419-.238-.655-1.044-.792-1.516l-.888-3.073,1.1-3.853a2.263,2.263,0,0,1,.755-.951.83.83,0,0,0,.47-1.141.959.959,0,0,0-1.194-.363c-1.941.869-1.885,3.475-2.7,5.424a1.615,1.615,0,0,0-.005,1.7c.822,1.94.692,4.285,2.575,5.391a.925.925,0,0,0,1.312-.331c.218-.556.024-.912-.633-1.285m9.726-.414c.374-1.1.57-2.33,1.007-3.361a1.608,1.608,0,0,0-.015-1.688c-.8-1.891-.78-4.539-2.682-5.413a.889.889,0,0,0-1.247.482c-.135.54.152.843.694,1.189A2.942,2.942,0,0,1,43.2,8.51l.884,3.072L43.008,15.42a2.054,2.054,0,0,1-.961,1.082.819.819,0,0,0-.1,1.276c.731.734,2.146-.282,2.716-1.958M39.741,8.611a1.066,1.066,0,1,0-1.066,1.056,1.061,1.061,0,0,0,1.066-1.056m-1.3,7.833a3.994,3.994,0,0,0,1.261-1.8,1.108,1.108,0,0,0-.505-1.29,1.284,1.284,0,0,0-1.315.2c-.781.822.351,1.594.559,2.9m-9.2,21.2,8.575-4.908V22.908L29.218,18l-8.579,4.912,0,9.817ZM12.983,31.9l.3-1.507,1.382-.016a.887.887,0,0,0,.895-.959c-.078-.534-.507-.753-1.039-.759l-.865-.01.374-1.678,2.385,0a.948.948,0,0,0,.842-.858c.018-.336-.323-.838-.691-.841l-2.191-.02.295-1.29a.96.96,0,0,0-.6-1.013.943.943,0,0,0-1.031.5l-.417,1.82-3.366,0,.236-1.271a.856.856,0,0,0-.748-1.075.949.949,0,0,0-.923.677L7.5,25.259l-1.525,0a.914.914,0,0,0-.9.853c-.01.308.413.835.722.841l1.3.023-.337,1.695-2.843.035c-.285,0-.583.7-.508.978a1.139,1.139,0,0,0,.8.7l2.158,0-.258,1.3a.952.952,0,0,0,.747,1.006,1.029,1.029,0,0,0,.921-.641l.361-1.67h3.375l-.26,1.5c-.054.312.506.819.821.814a1.022,1.022,0,0,0,.909-.8" transform="translate(0 0)" fill="#fff"/>
        <path id="Path_1283432" data-name="Path 1283432" d="M145.745,53.619a.958.958,0,0,1-1.254.132.968.968,0,0,1-.1-1.24l2.673-2.7a.889.889,0,0,0,0-1.135l-2.692-2.7a1.108,1.108,0,0,1-.009-1.1c.164-.238.952-.4,1.176-.177,1.024,1.018,1.97,1.982,2.913,3.028a2.505,2.505,0,0,1-.32,3.462Z" transform="translate(-121.491 -37.637)" fill="#fff"/>
        <path id="Path_1283433" data-name="Path 1283433" d="M80.916,52.464a1.025,1.025,0,0,1,.006,1.2.918.918,0,0,1-1.21.053c-1.017-1.011-2-1.98-2.9-3.043a2.49,2.49,0,0,1,.406-3.364l2.592-2.628c.209-.211.995-.054,1.16.183a1.115,1.115,0,0,1-.007,1.1l-2.693,2.7a.9.9,0,0,0,0,1.132Z" transform="translate(-64.29 -37.626)" fill="#fff"/>
        <path id="Path_1283434" data-name="Path 1283434" d="M116.263,56.175a.857.857,0,0,1-1.658-.422l1.726-6.472a.925.925,0,0,1,1.077-.57.87.87,0,0,1,.567,1.089Z" transform="translate(-96.535 -41.095)" fill="#fff"/>
        <path id="Path_1283435" data-name="Path 1283435" d="M141,156.432c.2.2.113.841-.035,1.052-.167.238-.96.4-1.168.187l-2.731-2.8a2.425,2.425,0,0,1-.267-3.2c.921-1.084,1.882-2.024,2.912-3.058a.993.993,0,0,1,1.124-.018.972.972,0,0,1,.105,1.246l-2.673,2.7a.881.881,0,0,0,0,1.131Z" transform="translate(-114.837 -125.282)" fill="#fff"/>
        <path id="Path_1283436" data-name="Path 1283436" d="M205.492,157.6a1.2,1.2,0,0,1-1.122-.072c-.215-.2-.352-.892-.135-1.112l2.754-2.789a.886.886,0,0,0,.005-1.131l-2.685-2.7a1.053,1.053,0,0,1,.027-1.158.934.934,0,0,1,1.21-.062l2.862,2.977a2.361,2.361,0,0,1-.074,3.1Z" transform="translate(-171.97 -125.23)" fill="#fff"/>
        <path id="Path_1283437" data-name="Path 1283437" d="M173.176,156.66a1.725,1.725,0,0,1,.6-1.682c1.151-.759.618-2.465.6-2.465h-.629c-.247,0,.236,1.242-.7,1.653-.3.132-1.063-.171-1.072-.531l-.054-2.1a.98.98,0,0,1,.766-.755l2.751,0a.946.946,0,0,1,.761.769l-.026,3.422-1.092,1.078c-.264.261.026,1.551-1.015,1.552a.933.933,0,0,1-.885-.946" transform="translate(-144.833 -127.263)" fill="#fff"/>
        <path id="Path_1283438" data-name="Path 1283438" d="M181.766,198.256a.861.861,0,1,1-.861-.852.857.857,0,0,1,.861.852" transform="translate(-151.681 -166.612)" fill="#fff"/>
        <path id="Path_1283439" data-name="Path 1283439" d="M57.473,174.589l-3.41.007.333-1.7,3.408-.018Z" transform="translate(-45.546 -145.91)" fill="#fff"/>
      </g>
    </g>
  </g>
</svg>
