<svg xmlns="http://www.w3.org/2000/svg" xmlns:xlink="http://www.w3.org/1999/xlink" width="85" height="85" viewBox="0 0 85 85">
  <defs>
    <clipPath id="clip-path">
      <rect id="Rectángulo_468391" data-name="Rectángulo 468391" width="56" height="53.463" fill="#12263f"/>
    </clipPath>
  </defs>
  <g id="Grupo_1214432" data-name="Grupo 1214432" transform="translate(-705.629 -409.917)">
    <g id="Grupo_1180019" data-name="Grupo 1180019">
      <g id="Grupo_1180023" data-name="Grupo 1180023">
        <rect id="Rectángulo_456333" data-name="Rectángulo 456333" width="85" height="85" rx="10" transform="translate(705.629 409.917)" fill="#68eae0"/>
        <g id="Grupo_1214751" data-name="Grupo 1214751" transform="translate(720.629 425.917)">
          <g id="Grupo_1214750" data-name="Grupo 1214750" clip-path="url(#clip-path)">
            <path id="Trazado_1284051" data-name="Trazado 1284051" d="M39.612,53.326a3.512,3.512,0,0,1-2.238-2.217l-6.187-.015a.865.865,0,0,1-.845-.833V37.042l-4.9-.006V50.27c0,.3-.418.816-.716.817l-6.238.025a3.433,3.433,0,0,1-2.341,2.272,3.243,3.243,0,0,1-3.356-1.268,3.223,3.223,0,1,1,5.731-2.694l5.23,0V37.041l-8.435-.009c-.306,0-.667-.681-.649-.942l0-2.823H4.025l-.006,5.254A3.225,3.225,0,1,1,.3,42.978a3.07,3.07,0,0,1,1.952-4.3v-6.1c0-.277.367-.838.66-.838H14.668v-2.47a.957.957,0,0,1,.959-.979l1.234,0,.016-2.929-1.426-.051a.968.968,0,0,1-.785-.955V21.9l-11.412,0a.868.868,0,0,1-.88-.881l-.013-6.119A3.444,3.444,0,0,1,.024,12.247,3.366,3.366,0,0,1,1.7,8.869a3.228,3.228,0,1,1,2.313,5.975v5.323H14.585l0-2.98a.932.932,0,0,1,.885-.854h8.219V4.017l-5.205.009a3.8,3.8,0,0,1-1.814,2.113,3.058,3.058,0,0,1-3-.153,3.2,3.2,0,0,1-1.514-3.558,3.2,3.2,0,0,1,6.187-.087l6.088-.006c.325,0,.911.329.911.741l.011,13.331,4.862,0,0-13.207A1.01,1.01,0,0,1,31,2.342l6.316,0A3.071,3.071,0,0,1,40.624.011a3.249,3.249,0,0,1,2.968,3.079,3.239,3.239,0,0,1-2.657,3.3,3.186,3.186,0,0,1-3.7-2.37H31.889l0,12.311,8.23,0a.923.923,0,0,1,.873.854V20.17H52l.007-5.328a3.233,3.233,0,1,1,3.8-2.082,3.572,3.572,0,0,1-2.136,2.028l-.009,6.076a.95.95,0,0,1-.837.974l-11.738,0-.01,2.494a.942.942,0,0,1-.99.924l-1.286.032v2.889l1.31.022a1,1,0,0,1,.878.883l-.005,2.56,11.993.006c.374,0,.688.584.688.924v6.064a3.017,3.017,0,0,1,2.322,3.224,3.224,3.224,0,0,1-6.395.354A3.179,3.179,0,0,1,52,38.523l0-5.255H41.09v2.821a.957.957,0,0,1-.814.948l-8.3,0,0,12.366,5.336.019a3.235,3.235,0,0,1,6.3,1.475,3.2,3.2,0,0,1-4,2.426M16.86,3.213a1.567,1.567,0,1,0-1.567,1.567A1.567,1.567,0,0,0,16.86,3.213m25.085.093a1.56,1.56,0,1,0-1.56,1.56,1.56,1.56,0,0,0,1.56-1.56M4.808,11.765a1.561,1.561,0,1,0-1.561,1.561,1.561,1.561,0,0,0,1.561-1.561m49.451,0A1.559,1.559,0,1,0,52.7,13.324a1.559,1.559,0,0,0,1.559-1.559M39.3,18.07H16.323V23.5H39.3Zm-2.083,7.176h-18.7V28.2h18.7ZM16.322,35.388H39.3V29.942H16.322ZM4.785,41.68a1.559,1.559,0,1,0-1.559,1.559A1.559,1.559,0,0,0,4.785,41.68m49.455,0a1.56,1.56,0,1,0-1.56,1.56,1.56,1.56,0,0,0,1.56-1.56m-37.378,8.46A1.567,1.567,0,1,0,15.3,51.7a1.567,1.567,0,0,0,1.567-1.567m25.081.1A1.561,1.561,0,1,0,40.383,51.8a1.561,1.561,0,0,0,1.561-1.561" transform="translate(0 0)" fill="#12263f"/>
            <path id="Trazado_1284052" data-name="Trazado 1284052" d="M121.594,194.063l-7.14.012a1.007,1.007,0,0,1-.861-.886.983.983,0,0,1,.838-.893l7.121,0a.927.927,0,0,1,.888.727.967.967,0,0,1-.846,1.044" transform="translate(-94.822 -160.516)" fill="#12263f"/>
            <path id="Trazado_1284053" data-name="Trazado 1284053" d="M207.45,193.181a.877.877,0,1,1-.877-.877.877.877,0,0,1,.877.877" transform="translate(-171.705 -160.526)" fill="#12263f"/>
            <path id="Trazado_1284054" data-name="Trazado 1284054" d="M193.751,193.234a.868.868,0,1,1-.868-.868.868.868,0,0,1,.868.868" transform="translate(-160.286 -160.578)" fill="#12263f"/>
            <path id="Trazado_1284055" data-name="Trazado 1284055" d="M221.206,193.2a.864.864,0,1,1-.864-.864.864.864,0,0,1,.864.864" transform="translate(-183.209 -160.553)" fill="#12263f"/>
            <path id="Trazado_1284056" data-name="Trazado 1284056" d="M122.076,122.27l-7.026.005a.953.953,0,0,1-.92-.907.942.942,0,0,1,.917-.868l7.243.014c.335,0,.679.563.679.845a.983.983,0,0,1-.893.91" transform="translate(-95.27 -100.588)" fill="#12263f"/>
            <path id="Trazado_1284057" data-name="Trazado 1284057" d="M207.422,121.292a.879.879,0,1,1-.879-.879.879.879,0,0,1,.879.879" transform="translate(-171.679 -100.515)" fill="#12263f"/>
            <path id="Trazado_1284058" data-name="Trazado 1284058" d="M193.7,121.329a.871.871,0,1,1-.871-.871.871.871,0,0,1,.871.871" transform="translate(-160.236 -100.552)" fill="#12263f"/>
            <path id="Trazado_1284059" data-name="Trazado 1284059" d="M221.152,121.328a.868.868,0,1,1-.868-.868.868.868,0,0,1,.868.868" transform="translate(-183.158 -100.554)" fill="#12263f"/>
          </g>
        </g>
      </g>
    </g>
  </g>
</svg>
