<svg xmlns="http://www.w3.org/2000/svg" xmlns:xlink="http://www.w3.org/1999/xlink" width="96" height="96" viewBox="0 0 96 96">
  <defs>
    <clipPath id="clip-path">
      <rect id="Rectangle_456267" data-name="Rectangle 456267" width="96" height="96" fill="none"/>
    </clipPath>
    <clipPath id="clip-path-2">
      <rect id="Rectangle_468826" data-name="Rectangle 468826" width="54.153" height="45.011" fill="#0f654d"/>
    </clipPath>
  </defs>
  <g id="img28" transform="translate(479.746 8495) rotate(180)">
    <path id="Path_999622" data-name="Path 999622" d="M43.07,0A43.07,43.07,0,1,1,0,43.07,43.071,43.071,0,0,1,43.07,0" transform="translate(388.676 8403.93)" fill="#e3fbf9"/>
    <g id="Group_1179902" data-name="Group 1179902" transform="translate(383.746 8399)">
      <g id="Group_1179905" data-name="Group 1179905" clip-path="url(#clip-path)">
        <path id="Path_999618" data-name="Path 999618" d="M48,0A48,48,0,1,1,0,48,48,48,0,0,1,48,0" fill="none"/>
        <path id="Path_999619" data-name="Path 999619" d="M3.75,59A3.75,3.75,0,1,1,0,62.75,3.75,3.75,0,0,1,3.75,59" transform="translate(0 -14.75)" fill="#0f654d"/>
        <path id="Path_999620" data-name="Path 999620" d="M19.75,19A3.75,3.75,0,1,1,16,22.75,3.75,3.75,0,0,1,19.75,19" transform="translate(-4 -4.75)" fill="#0f654d"/>
        <path id="Path_999621" data-name="Path 999621" d="M49,94A45.051,45.051,0,0,1,4,49H6.25A42.75,42.75,0,1,0,17.806,19.768l-1.641-1.539A45,45,0,1,1,49,94" transform="translate(-1 -1)" fill="#0f654d"/>
        <rect id="Rectangle_456268" data-name="Rectangle 456268" width="96" height="96" fill="none"/>
        <rect id="Rectangle_456269" data-name="Rectangle 456269" width="96" height="96" fill="none"/>
      </g>
    </g>
    <g id="Group_1179903" data-name="Group 1179903" transform="translate(458.745 8474.508) rotate(180)">
      <g id="Group_1099618" data-name="Group 1099618" transform="translate(0.253 -0.492)">
        <rect id="Rectangle_401104" data-name="Rectangle 401104" width="54.153" height="54.806" transform="translate(0)" fill="none"/>
      </g>
      <g id="Group_1214942" data-name="Group 1214942" transform="translate(0.253 4.508)">
        <g id="Group_1214941" data-name="Group 1214941" clip-path="url(#clip-path-2)">
          <path id="Path_1284739" data-name="Path 1284739" d="M39.592,44.265a.822.822,0,0,1-.716.744H8.671a.826.826,0,0,1-.82-.689c0-1.242-.034-2.339.048-3.539a3.812,3.812,0,0,1,3.8-3.5l6.45-.015V32.739L3.512,32.7A3.631,3.631,0,0,1,0,29.167L.01,3.487A3.657,3.657,0,0,1,3.845,0L43.7,0a3.629,3.629,0,0,1,3.744,3.61l.019,11.337A11.4,11.4,0,1,1,34.1,32.767l-4.826-.042v4.557l6.262-.018a3.81,3.81,0,0,1,4,3.5ZM32.939,31.159A11.412,11.412,0,0,1,45.952,14.381l.006-10.452a2.269,2.269,0,0,0-2.42-2.418L3.548,1.52A2.133,2.133,0,0,0,1.536,3.777l.009,25.4a2.1,2.1,0,0,0,1.975,1.981Zm19.677-5.834a9.864,9.864,0,1,0-9.864,9.864,9.864,9.864,0,0,0,9.864-9.864M19.724,32.735l0,4.551,8.032.007,0-4.551ZM38.064,43.5l-.005-2.421a2.271,2.271,0,0,0-2.229-2.252l-24.269,0c-2.439.441-2.224,2.255-2.117,4.677Z" transform="translate(0 0)" fill="#0f654d"/>
          <path id="Path_1284740" data-name="Path 1284740" d="M65.995,31.782A1.164,1.164,0,0,1,67,33.3l-2.612,7.677a1.653,1.653,0,0,1-1.545,1.074H47.734a1.164,1.164,0,0,1-1.164-1.166l0-12.386a1.627,1.627,0,0,1,1.574-1.678l3.941-.029a1.877,1.877,0,0,1,1.124.418l1.963,2.241,8.139.061c.965.007,1.293,1.39,1.1,2.194Zm-3.138-.023v-.816h-8.4l-2.266-2.572-4.063-.013.034,7.355,1.067-2.832a1.751,1.751,0,0,1,1.568-1.123Zm.089,8.753,2.42-7.208H50.683l-2.438,7.209Z" transform="translate(-39.074 -22.482)" fill="#0f654d"/>
          <rect id="Rectangle_468825" data-name="Rectangle 468825" width="22.831" height="1.502" transform="translate(5.016 26.93)" fill="#0f654d"/>
          <path id="Path_1284741" data-name="Path 1284741" d="M53.184,133.779H31.812a.834.834,0,0,1-.777-.767.769.769,0,0,1,.779-.75l21.213,0a.849.849,0,0,1,.857.594.805.805,0,0,1-.7.924" transform="translate(-26.042 -110.984)" fill="#0f654d"/>
          <path id="Path_1284742" data-name="Path 1284742" d="M238.209,146.038H226.926a.913.913,0,0,1-.764-.787V141.39a.893.893,0,0,1,.768-.771h11.212a.883.883,0,0,1,.759.805v3.793a.963.963,0,0,1-.693.82m-.845-3.868h-9.652v2.3h9.652Z" transform="translate(-189.779 -117.997)" fill="#0f654d"/>
        </g>
      </g>
    </g>
  </g>
</svg>
