<svg xmlns="http://www.w3.org/2000/svg" xmlns:xlink="http://www.w3.org/1999/xlink" width="150" height="150" viewBox="0 0 150 150">
  <defs>
    <clipPath id="clip-path">
      <rect id="Rectángulo_456267" data-name="Rectángulo 456267" width="150" height="150" fill="none"/>
    </clipPath>
    <clipPath id="clip-path-2">
      <rect id="Rectángulo_467917" data-name="Rectángulo 467917" width="79" height="79.031" fill="#19538d"/>
    </clipPath>
  </defs>
  <g id="Grupo_1181052" data-name="Grupo 1181052" transform="translate(534.064 8549) rotate(180)">
    <path id="Trazado_999622" data-name="Trazado 999622" d="M70.07,0A70.07,70.07,0,1,1,0,70.07,70.071,70.071,0,0,1,70.07,0" transform="translate(388.676 8403.93)" fill="#e1f5ff"/>
    <g id="Grupo_1179902" data-name="Grupo 1179902" transform="translate(384.064 8399)">
      <g id="Grupo_1179905" data-name="Grupo 1179905" clip-path="url(#clip-path)">
        <path id="Trazado_999618" data-name="Trazado 999618" d="M75,0A75,75,0,1,1,0,75,75,75,0,0,1,75,0" fill="none"/>
        <path id="Trazado_999619" data-name="Trazado 999619" d="M5.859,59A5.859,5.859,0,1,1,0,64.859,5.86,5.86,0,0,1,5.859,59" transform="translate(0 10.141)" fill="#19538d"/>
        <path id="Trazado_999620" data-name="Trazado 999620" d="M21.859,19A5.859,5.859,0,1,1,16,24.859,5.86,5.86,0,0,1,21.859,19" transform="translate(2.75 3.266)" fill="#19538d"/>
        <path id="Trazado_999621" data-name="Trazado 999621" d="M74.313,144.625A70.392,70.392,0,0,1,4,74.313H7.516A66.8,66.8,0,1,0,25.572,28.638l-2.564-2.4a70.312,70.312,0,1,1,51.3,118.392" transform="translate(0.688 0.688)" fill="#19538d"/>
        <rect id="Rectángulo_456268" data-name="Rectángulo 456268" width="150" height="150" fill="none"/>
        <rect id="Rectángulo_456269" data-name="Rectángulo 456269" width="150" height="150" fill="none"/>
      </g>
    </g>
    <g id="Grupo_1214618" data-name="Grupo 1214618" transform="translate(498.064 8514) rotate(180)">
      <g id="Grupo_1214617" data-name="Grupo 1214617" clip-path="url(#clip-path-2)">
        <path id="Trazado_1283017" data-name="Trazado 1283017" d="M62.294,70.728l-.041,1.77a3.326,3.326,0,0,1,3.683,3.026A3.261,3.261,0,0,1,62.7,79.029l-12.237,0A3.692,3.692,0,0,1,47.885,77.7a7.906,7.906,0,0,1-4.023,1.327L6.1,79.012c-4.248,0-6.634-3.845-6-7.739L4.012,47.1c1-6.2,6.53-5.668,9.506-7.06,1.688-.789,5.4-2.96,5.4-3.319a1.83,1.83,0,0,0-.228-.639A12.775,12.775,0,0,1,12.1,24.771,6,6,0,0,1,9.2,22.957c-1.442-1.664-.779-3.621.181-5.194-.91-4.8-.6-9.431,3.045-13.031a1.344,1.344,0,0,1,1.537-.295,1.259,1.259,0,0,1,.293,1.688C11.284,9.2,10.83,12.483,11.58,16.537l1.879-.2a14.519,14.519,0,0,0,9.084,1.036,19.144,19.144,0,0,0,7.533-2.881,2.292,2.292,0,0,1,3.076.534,3.871,3.871,0,0,0,3.031,1.355l2.178.1c.654-4.055.353-8.549-3.583-9.865A5.29,5.29,0,0,1,32.8,5.681a8.887,8.887,0,0,0-4.29-2.8,15.433,15.433,0,0,0-10.069.663,1.311,1.311,0,0,1-1.612-.618,1.236,1.236,0,0,1,.642-1.508A18.083,18.083,0,0,1,28.285.406,11.174,11.174,0,0,1,34.537,4.14a7.694,7.694,0,0,1,6.086,6.149c.7,2.414.142,4.886-.058,7.353.671,1.282,1.639,2.667.845,4.39A4.748,4.748,0,0,1,38,24.681a12.723,12.723,0,0,1-6.449,11.211,1.184,1.184,0,0,0-.49.668,1.35,1.35,0,0,0,.568.81l2.6,1.468c-.216-1.983.417-4.38,2.5-4.5,5.3-.294,10.425-.091,15.776-.1l23.076-.049A3.224,3.224,0,0,1,79,37.6l-.024,30.269a3,3,0,0,1-3.107,2.86l-3.514,0a1.489,1.489,0,0,1-1.2-.96c-.121-.4.364-1.291.837-1.3l3.9-.04a1.086,1.086,0,0,0,.805-.99l0-30.049a.937.937,0,0,0-.9-.858l-38.551,0c-.365,0-.726.684-.686,1.045L36.6,68.4l14.642.053L51.225,53.3a1.49,1.49,0,0,1-.684-1.25,1.218,1.218,0,0,1,1.247-.975l10.242,0a2.042,2.042,0,0,1,.818.927c.069.325-.31.948-.591,1.283l-.017,15.133,4.74.036a1.222,1.222,0,0,1,1.088,1.167,1.2,1.2,0,0,1-1.259,1.109ZM29.622,34.292a10.439,10.439,0,0,0,6.057-9.609l0-6a6.328,6.328,0,0,1-4.394-2.193A21.165,21.165,0,0,1,14.33,19.226l.043,5.89a10.59,10.59,0,0,0,15.249,9.176M11.982,18.948a1.766,1.766,0,0,0-1.3,1.731,1.829,1.829,0,0,0,1.268,1.529ZM38.012,22.2a1.813,1.813,0,0,0,1.366-1.72,1.945,1.945,0,0,0-1.359-1.533ZM28.347,40.55c.687-.961.43-2.4.378-3.4a13.8,13.8,0,0,1-7.475.042c-.07,1.062-.3,2.76.684,3.541a5.254,5.254,0,0,0,6.414-.183m-7.36,4.722-2.1-5.613-2.789,1.7Zm12.949-3.815-2.793-1.705-2.066,5.569ZM20.068,61.908l9.923.006c2.263,0,.524,4.239,4.266,6.109l-.034-23.717-1.938,1.429-.025,7.656c0,.493-.936.961-1.34.843a1.551,1.551,0,0,1-.939-1.2l-.023-5.41c-2.179,1.37-3.424,3.486-4.949,3.461-1.669-.028-2.749-2.124-4.94-3.492L20.049,53a1.228,1.228,0,0,1-1.2,1.251,1.348,1.348,0,0,1-1.122-1.108L17.692,45.6l-3.937-3.14-4.266,1.22a4.287,4.287,0,0,0-3.166,3.7l-4,25.109A3.8,3.8,0,0,0,6.076,76.7l11.038.042v-4.98a1.222,1.222,0,0,0-1.134-1.034l-7.679,0a1.28,1.28,0,0,1-1.153-1.094c-.013-.363.459-1.072.816-1.11l1.553-.164,2.236-15.118a1.293,1.293,0,0,1,1.207-1.1,1.276,1.276,0,0,1,1.1,1.286l-2.2,14.962a7.66,7.66,0,0,0,3.993-.426,5.56,5.56,0,0,0,2.737-4.515c.1-.842.46-1.541,1.479-1.54m6.988-17.933L22.963,43.9l2.078,5.048Zm26.5,9.433-.005,19.114,6.368,0,.006-19.114ZM30.716,70.373l1-1.176a9.462,9.462,0,0,1-2.567-4.923H20.819a8.929,8.929,0,0,1-2.548,4.906l.981,1.191a7.209,7.209,0,0,1,5.738,3.456,7.222,7.222,0,0,1,5.725-3.455m13.5,6.308c1.9-.01,3.681-1.843,3.473-3.519l-.3-2.427L34,70.731c-.505.038-1.091.5-1.089.984l.025,5.026Zm7.068-4.192-.094-1.778-1.489.039.332,1.767ZM23.669,76.741a5.169,5.169,0,0,0-4.239-4.081l0,4.068Zm6.944-.01-.025-4.09a5.418,5.418,0,0,0-4.319,4.086Zm32.152-.008a.941.941,0,0,0-.053-1.882l-12.051,0a1.118,1.118,0,0,0-1.079.873c-.028.346.462,1.012.886,1.012Z" transform="translate(0 0)" fill="#19538d"/>
        <path id="Trazado_1283018" data-name="Trazado 1283018" d="M224.113,65.528c1.424,0,2.067,1.355,3.2,2.137l.021-6.268a1.32,1.32,0,0,1,1.08-1.17c.4-.03,1.25.531,1.251.976l.007,7.037a2.366,2.366,0,0,1-1.4,1.864,2.275,2.275,0,0,1-2.36-.589l-1.975-1.706-21.874.009a3.024,3.024,0,0,1-3.148-3l.011-12.647a2.982,2.982,0,0,1,2.976-2.884l24.78,0a2.984,2.984,0,0,1,2.965,2.864l.006,4.093c0,.424-.835.991-1.243.945a1.39,1.39,0,0,1-1.081-1.373l-.091-4.2-25.177-.02a.97.97,0,0,0-.858.79l0,12.437c0,.284.535.683.865.683Z" transform="translate(-153.865 -38.122)" fill="#19538d"/>
        <path id="Trazado_1283019" data-name="Trazado 1283019" d="M241.066,182.329a3.655,3.655,0,1,1-3.655-3.655,3.654,3.654,0,0,1,3.655,3.655m-2.313-.012a1.333,1.333,0,1,0-1.333,1.333,1.333,1.333,0,0,0,1.333-1.333" transform="translate(-180.821 -138.212)" fill="#19538d"/>
        <path id="Trazado_1283020" data-name="Trazado 1283020" d="M255.026,75.968a1.158,1.158,0,0,1-2.2-.721l3.27-8.98a1.443,1.443,0,0,1,1.327-.636,1.373,1.373,0,0,1,.864,1.405Z" transform="translate(-195.535 -50.756)" fill="#19538d"/>
        <path id="Trazado_1283021" data-name="Trazado 1283021" d="M231.847,77.741a1.318,1.318,0,0,1-.144,1.577,1.379,1.379,0,0,1-1.623-.053L227.32,76.5a1.358,1.358,0,0,1,.031-1.852l2.768-2.746a1.412,1.412,0,0,1,1.65.023,1.325,1.325,0,0,1,0,1.619l-2.023,2.033Z" transform="translate(-175.571 -55.426)" fill="#19538d"/>
        <path id="Trazado_1283022" data-name="Trazado 1283022" d="M283.635,78.978a1.373,1.373,0,0,1-1.53.344,1.223,1.223,0,0,1-.366-1.666l2.159-2.176L281.92,73.46A1.459,1.459,0,0,1,281.682,72c.2-.409,1.277-.741,1.633-.389l3.121,3.091a1.19,1.19,0,0,1-.1,1.552Z" transform="translate(-217.783 -55.28)" fill="#19538d"/>
        <path id="Trazado_1283023" data-name="Trazado 1283023" d="M177.188,282.086l-3.5-.007a1.4,1.4,0,0,1-1.128-1.033,1.193,1.193,0,0,1,1.14-1.27l3.5-.016a1.29,1.29,0,0,1,1.226,1.081,1.237,1.237,0,0,1-1.237,1.244" transform="translate(-133.481 -216.407)" fill="#19538d"/>
        <path id="Trazado_1283024" data-name="Trazado 1283024" d="M207.995,280.957a1.139,1.139,0,1,1-1.139-1.139,1.139,1.139,0,0,1,1.139,1.139" transform="translate(-159.13 -216.451)" fill="#19538d"/>
      </g>
    </g>
  </g>
</svg>
