<svg xmlns="http://www.w3.org/2000/svg" xmlns:xlink="http://www.w3.org/1999/xlink" width="98" height="98" viewBox="0 0 98 98">
  <defs>
    <clipPath id="clip-path">
      <rect id="Rectángulo_456312" data-name="Rectángulo 456312" width="98" height="98" transform="translate(0.059 0.059)" fill="none"/>
    </clipPath>
    <clipPath id="clip-path-3">
      <rect id="Rectángulo_468300" data-name="Rectángulo 468300" width="51.937" height="57.985" fill="#19538d"/>
    </clipPath>
  </defs>
  <g id="Grupo_1179974" data-name="Grupo 1179974" transform="translate(-307.117 -10093.059)">
    <g id="Grupo_1179968" data-name="Grupo 1179968" transform="translate(307.059 10093)">
      <g id="Grupo_1179959" data-name="Grupo 1179959" clip-path="url(#clip-path)">
        <path id="Trazado_999654" data-name="Trazado 999654" d="M1.5,5.146H81.261A12.087,12.087,0,0,1,93.377,17.2V96.585H13.616A12.087,12.087,0,0,1,1.5,84.527Z" transform="translate(0.014 0.025)" fill="#fff"/>
      </g>
      <g id="Grupo_1179960" data-name="Grupo 1179960">
        <g id="Grupo_1179956" data-name="Grupo 1179956" clip-path="url(#clip-path)">
          <path id="Trazado_999651" data-name="Trazado 999651" d="M92.229,30a5.024,5.024,0,1,1-5.048,5.024A5.037,5.037,0,0,1,92.229,30" transform="translate(0.84 0.145)" fill="#19538d"/>
          <path id="Trazado_999652" data-name="Trazado 999652" d="M63.229,0a5.024,5.024,0,1,1-5.048,5.024A5.037,5.037,0,0,1,63.229,0" transform="translate(0.56 0)" fill="#19538d"/>
          <path id="Trazado_999653" data-name="Trazado 999653" d="M93.377,35.144V96.585H13.616A12.087,12.087,0,0,1,1.5,84.527V5.146H64.459" transform="translate(0.014 0.025)" fill="none" stroke="#19538d" stroke-miterlimit="10" stroke-width="3"/>
        </g>
      </g>
    </g>
    <g id="Grupo_1179969" data-name="Grupo 1179969" transform="translate(322.757 10111.315)">
      <rect id="Rectángulo_456311" data-name="Rectángulo 456311" width="64.131" height="64.594" fill="#fff"/>
      <g id="Grupo_1214725" data-name="Grupo 1214725" transform="translate(6.36 3.743)">
        <g id="Grupo_1214724" data-name="Grupo 1214724" clip-path="url(#clip-path-3)">
          <path id="Trazado_1283508" data-name="Trazado 1283508" d="M36.928,53.981H15.007l-.033,3.078c0,.473-.692.925-1.173.924l-4.6-.005a1.167,1.167,0,0,1-1.243-1.255l.017-2.733-4.1-.047a3.89,3.89,0,0,1-3.8-3.44,44.382,44.382,0,0,1-.016-4.955,3.985,3.985,0,0,1,4.172-3.614l3.74.023-.012-1.977-4.285-.061a3.873,3.873,0,0,1-3.614-3.5C-.011,34.746-.007,33.258.049,31.6a3.89,3.89,0,0,1,3.821-3.61l4.1-.029,0-2.011-3.921.019A3.923,3.923,0,0,1,.046,22.291c-.051-1.628-.056-3.137.02-4.8a3.771,3.771,0,0,1,3.271-3.4c1.6-.1,2.983-.057,4.622-.068l.019-1.988-4.1-.044a3.886,3.886,0,0,1-3.8-3.432A44.542,44.542,0,0,1,.062,3.572,3.9,3.9,0,0,1,3.937,0H48a3.9,3.9,0,0,1,3.874,3.574c.086,1.651.073,3.16.008,4.807a3.9,3.9,0,0,1-3.831,3.606l-4.089.045.017,1.985,4.456.049a3.751,3.751,0,0,1,3.462,3.6l-.005,4.645a3.8,3.8,0,0,1-3.634,3.617l-4.292.042v1.99l4.1.031A3.838,3.838,0,0,1,51.888,31.6l-.013,4.822a3.8,3.8,0,0,1-3.616,3.5l-4.284.063-.008,1.956,4.081.029a3.893,3.893,0,0,1,3.829,3.562A45.3,45.3,0,0,1,51.86,50.5a3.886,3.886,0,0,1-3.8,3.439l-4.1.048.016,2.733a1.166,1.166,0,0,1-1.243,1.254l-4.6.009c-.475,0-1.162-.458-1.168-.924Zm1.239-2.016a1.139,1.139,0,0,1,.778.854l0,3.158h3.032V52.839a1,1,0,0,1,.919-.877h4.987a2.038,2.038,0,0,0,2.035-1.817l0-4.439a1.965,1.965,0,0,0-1.864-1.755l-5.16-.011a.943.943,0,0,1-.916-.933v-4.08A.914.914,0,0,1,42.887,38l4.971-.012a2.02,2.02,0,0,0,2.048-1.771l.015-4.446a1.955,1.955,0,0,0-1.687-1.769l-5.326-.036a1.032,1.032,0,0,1-.943-1.067l.007-3.894a1.057,1.057,0,0,1,1.11-1.058l4.78.013a1.983,1.983,0,0,0,2.071-2.044l0-3.837A2.01,2.01,0,0,0,47.677,16l-4.756.031A1.135,1.135,0,0,1,41.964,15l.011-4.1a.988.988,0,0,1,.916-.881h4.987A2.039,2.039,0,0,0,49.912,8.2l0-4.423a2,2,0,0,0-1.751-1.786l-44.22,0A1.951,1.951,0,0,0,2.032,3.756L2.025,8.2A2.034,2.034,0,0,0,4.06,10.014l4.985,0a1,1,0,0,1,.919.876l.01,4.1a1.123,1.123,0,0,1-.964,1.027L4.26,16A2.013,2.013,0,0,0,2,18.081l0,3.848a1.939,1.939,0,0,0,1.888,2.023l4.961,0a1.051,1.051,0,0,1,1.111,1.055L9.973,28.9a1.032,1.032,0,0,1-.944,1.066l-5.322.039a1.941,1.941,0,0,0-1.683,1.764L2,35.861a2.025,2.025,0,0,0,1.945,2.112l5.1.027a.919.919,0,0,1,.923.925v4.084a.951.951,0,0,1-.92.927l-5.156.016a1.961,1.961,0,0,0-1.864,1.754l0,4.437a2.035,2.035,0,0,0,2.035,1.818H9.044a1.022,1.022,0,0,1,.921.874v3.141H13V52.825a1.04,1.04,0,0,1,.833-.86Z" transform="translate(0)" fill="#19538d"/>
          <path id="Trazado_1283509" data-name="Trazado 1283509" d="M45.281,152.2l.01-2.445-2.946.008a2.637,2.637,0,0,1-.31,1.67l-4.7,4.711,0,2.692a3.125,3.125,0,0,1,1.941,3.455,2.988,2.988,0,0,1-5.843.145,3.014,3.014,0,0,1,1.908-3.565l.027-3.621,4.967-4.962,0-6.558-1.845,0c-1.47,2.186-2.755,4.493-4.444,6.564-1.274,1.563-3.213,2.455-4.683,3.922l-.025,5.466a1.7,1.7,0,0,1-.506.917l-6.551,3.728a3,3,0,1,1-4.15-3.351,2.964,2.964,0,0,1,3.809,1.246l5.39-3.061,0-5.876,3.134-2.569-8.278-.01a3.006,3.006,0,0,1-5.841-1.012,3.034,3.034,0,0,1,2.4-2.905,3.086,3.086,0,0,1,3.454,1.929l10.6,0,3.3-4.968-2.766-.014a1.159,1.159,0,0,1-1.017-.872,1.07,1.07,0,0,1,.9-1.135l12.218,0c.47,0,.917.647.9,1a1.114,1.114,0,0,1-1.04,1.014H42.34l0,4.031,10.983,0a.969.969,0,0,1,.97,1.066l-.015,3.359-3.967,3.95v3.159l3.35,3.375,1.811.079a2.944,2.944,0,0,1,3.263-1.985,2.99,2.99,0,0,1,.17,5.886,3.157,3.157,0,0,1-3.491-1.942,12.757,12.757,0,0,1-2.6-.057l-4.48-4.48-.008-4.912,3.916-3.89.051-1.606-5,0-.014,3.5-2.939,2.012.009,3.62a3.021,3.021,0,0,1,1.923,3.341,2.986,2.986,0,0,1-5.859.174,3,3,0,0,1,1.922-3.531l.027-4.676Zm-24.943-2.485a.993.993,0,1,0-.993.993.993.993,0,0,0,.993-.993m16.98,11.99a1,1,0,1,0-1,1,1,1,0,0,0,1-1m7,.015a.993.993,0,1,0-.993.994.993.993,0,0,0,.993-.994m-23.977,1.994a.993.993,0,1,0-.994.994.994.994,0,0,0,.994-.994m38.957-.008a1,1,0,1,0-1,1,1,1,0,0,0,1-1" transform="translate(-13.351 -115.761)" fill="#19538d"/>
          <path id="Trazado_1283510" data-name="Trazado 1283510" d="M148.859,29.538l-16.965,0a1.262,1.262,0,0,1-1-.815c-.1-.316.186-1.185.62-1.184h17.723c.425,0,.683.872.6,1.182a1.208,1.208,0,0,1-.974.812" transform="translate(-106.902 -22.497)" fill="#19538d"/>
          <path id="Trazado_1283511" data-name="Trazado 1283511" d="M170.746,95.114a1.311,1.311,0,0,1-1.27-.022,1.218,1.218,0,0,1-.143-1.315l2.415-2.474-2.4-2.422a1.3,1.3,0,0,1,.037-1.228c.184-.249,1.008-.453,1.239-.227l3.161,3.091a1.075,1.075,0,0,1,.172,1.393Z" transform="translate(-138.204 -71.332)" fill="#19538d"/>
          <path id="Trazado_1283512" data-name="Trazado 1283512" d="M91.961,93.745a1.1,1.1,0,0,1,.087,1.4,1.071,1.071,0,0,1-1.387.091l-3.137-3.143a1.032,1.032,0,0,1,.168-1.377l2.772-2.774a1.371,1.371,0,0,1,1.294-.355c.369.091.756,1.04.439,1.367L89.724,91.5Z" transform="translate(-71.328 -71.507)" fill="#19538d"/>
          <path id="Trazado_1283513" data-name="Trazado 1283513" d="M53.842,20.651a1.262,1.262,0,0,1,.2,1.276,1.083,1.083,0,0,1-1.407.3l-3.209-2.162A1.157,1.157,0,0,1,49.44,18.7l3.327-2.217a1.208,1.208,0,0,1,1.27.37,1.2,1.2,0,0,1-.244,1.366L52,19.4Z" transform="translate(-40.195 -13.407)" fill="#19538d"/>
          <path id="Trazado_1283514" data-name="Trazado 1283514" d="M94.281,22.08a1.037,1.037,0,0,1-1.435-.361,1.07,1.07,0,0,1,.383-1.331l1.717-1.131L93.1,18.011a1.184,1.184,0,0,1-.309-1.136c.139-.366.911-.824,1.312-.56l3.195,2.106a1.528,1.528,0,0,1,.452.77,1.22,1.22,0,0,1-.415.854Z" transform="translate(-75.755 -13.262)" fill="#19538d"/>
          <path id="Trazado_1283515" data-name="Trazado 1283515" d="M127.129,98.4a1.084,1.084,0,0,1-1.374.253c-.308-.192-.641-1-.341-1.3l4.128-4.166a1.034,1.034,0,0,1,1.428-.112,1,1,0,0,1,.056,1.415Z" transform="translate(-102.345 -75.835)" fill="#19538d"/>
          <path id="Trazado_1283516" data-name="Trazado 1283516" d="M18.37,104.642a.992.992,0,1,1-.992-.992.992.992,0,0,1,.992.992" transform="translate(-13.385 -84.664)" fill="#19538d"/>
          <path id="Trazado_1283517" data-name="Trazado 1283517" d="M34.662,104.629a1,1,0,1,1-1-1,1,1,0,0,1,1,1" transform="translate(-26.684 -84.649)" fill="#19538d"/>
          <path id="Trazado_1283518" data-name="Trazado 1283518" d="M51.113,104.659a.993.993,0,1,1-.993-.993.993.993,0,0,1,.993.993" transform="translate(-40.128 -84.677)" fill="#19538d"/>
          <path id="Trazado_1283519" data-name="Trazado 1283519" d="M67.43,104.665a.992.992,0,1,1-.992-.992.992.992,0,0,1,.992.992" transform="translate(-53.458 -84.683)" fill="#19538d"/>
          <path id="Trazado_1283520" data-name="Trazado 1283520" d="M209.245,104.657a.992.992,0,1,1-.992-.992.992.992,0,0,1,.992.992" transform="translate(-169.296 -84.676)" fill="#19538d"/>
          <path id="Trazado_1283521" data-name="Trazado 1283521" d="M225.555,104.661a.993.993,0,1,1-.993-.993.993.993,0,0,1,.993.993" transform="translate(-182.617 -84.679)" fill="#19538d"/>
          <path id="Trazado_1283522" data-name="Trazado 1283522" d="M241.971,104.612a1,1,0,1,1-1-1,1,1,0,0,1,1,1" transform="translate(-196.019 -84.635)" fill="#19538d"/>
          <path id="Trazado_1283523" data-name="Trazado 1283523" d="M258.3,104.637a.993.993,0,1,1-.993-.993.993.993,0,0,1,.993.993" transform="translate(-209.366 -84.659)" fill="#19538d"/>
        </g>
      </g>
    </g>
  </g>
</svg>
