<svg xmlns="http://www.w3.org/2000/svg" xmlns:xlink="http://www.w3.org/1999/xlink" width="128" height="128" viewBox="0 0 128 128">
  <defs>
    <clipPath id="clip-path">
      <rect id="Rectángulo_456267" data-name="Rectángulo 456267" width="128" height="128" fill="none"/>
    </clipPath>
    <clipPath id="clip-path-2">
      <rect id="Rectángulo_468423" data-name="Rectángulo 468423" width="65" height="64.82" fill="#19538d"/>
    </clipPath>
  </defs>
  <g id="Grupo_1214043" data-name="Grupo 1214043" transform="translate(128.146 127.637) rotate(180)">
    <path id="Trazado_999622" data-name="Trazado 999622" d="M59.07,0A59.07,59.07,0,1,1,0,59.07,59.071,59.071,0,0,1,59.07,0" transform="translate(4.93 4.93)" fill="#fff"/>
    <g id="Grupo_1179902" data-name="Grupo 1179902" transform="translate(0.146 -0.363)">
      <g id="Grupo_1179905" data-name="Grupo 1179905" clip-path="url(#clip-path)">
        <path id="Trazado_999618" data-name="Trazado 999618" d="M64,0A64,64,0,1,1,0,64,64,64,0,0,1,64,0" fill="none"/>
        <path id="Trazado_999619" data-name="Trazado 999619" d="M5,0A5,5,0,1,1,0,5,5,5,0,0,1,5,0" transform="translate(0 59)" fill="#19538d"/>
        <path id="Trazado_999620" data-name="Trazado 999620" d="M5,0A5,5,0,1,1,0,5,5,5,0,0,1,5,0" transform="translate(16 19)" fill="#19538d"/>
        <path id="Trazado_999621" data-name="Trazado 999621" d="M60,120A60.068,60.068,0,0,1,0,60H3A57,57,0,1,0,18.408,21.024L16.22,18.972A60,60,0,1,1,60,120" transform="translate(4 4)" fill="#19538d"/>
        <rect id="Rectángulo_456268" data-name="Rectángulo 456268" width="128" height="128" fill="none"/>
        <rect id="Rectángulo_456269" data-name="Rectángulo 456269" width="128" height="128" fill="none"/>
      </g>
    </g>
    <g id="Grupo_1214759" data-name="Grupo 1214759" transform="translate(96.146 95.636) rotate(180)">
      <g id="Grupo_1214758" data-name="Grupo 1214758" clip-path="url(#clip-path-2)">
        <path id="Trazado_1284078" data-name="Trazado 1284078" d="M141.114,166.411a1.059,1.059,0,0,1-1.043-.98,1.03,1.03,0,0,1,1.1-.969l5.29-.012.007-21.55a1.674,1.674,0,0,1,1.766-1.595l10.455.005a1.657,1.657,0,0,1,1.72,1.492l.055,7.079,4.989-4.945a1.779,1.779,0,0,1,2.528.1l1.61,1.533,0-11.588a1,1,0,0,1,.909-1.133,1.1,1.1,0,0,1,1.016.96l0,13.754,3.9,3.943a1.666,1.666,0,0,1,0,2.2l-5.085,5.115,6.892.025a1.672,1.672,0,0,1,1.734,1.6l.013,10.609c0,.656-.529,1.669-1.322,1.669l-25.47.008a6.746,6.746,0,0,1-5.682-7.291ZM158.522,143.2h-10.13v8.343h10.13Zm8.144,3.215-5.873,5.87,7.2,7.205,5.873-5.87Zm-9.794,7.054-8.493-.017.105,8.378Zm8.584,6.287-6.022-6.086-5.993,6.1c4.315.114,8.069.125,12.016-.011m-8.8,12.128,0-10.136-3.367.01a4.881,4.881,0,0,0-4.932,5.089,4.82,4.82,0,0,0,4.753,5.052Zm10.2-10.137h-8.312v10.18h8.312Zm1.939,10.18h8.3v-10.18h-8.3Z" transform="translate(-113.984 -108.921)" fill="#19538d"/>
        <path id="Trazado_1284079" data-name="Trazado 1284079" d="M1.881,53.5a1.963,1.963,0,0,0,1.843,2.042l17.436.008c.442,0,.89.655.874.987a1.171,1.171,0,0,1-1.065.969L3.816,57.477A3.814,3.814,0,0,1,0,53.61L0,3.742A3.677,3.677,0,0,1,3.374,0h50.8c1.894,0,3.35,1.961,3.352,3.708l.018,16.209a1.083,1.083,0,0,1-1.02.95.982.982,0,0,1-.907-1.122l0-8.189H1.883ZM55.615,9.655l.005-5.9a1.885,1.885,0,0,0-1.84-1.89H3.576A1.92,1.92,0,0,0,1.891,3.735L1.884,9.656Z" fill="#19538d"/>
        <path id="Trazado_1284080" data-name="Trazado 1284080" d="M46.872,186.732l-10.571.026a2.913,2.913,0,0,1-2.967-2.944l0-9.287a2.811,2.811,0,0,1,2.726-2.861l10.812,0a2.779,2.779,0,0,1,2.709,2.7l0,9.614a2.812,2.812,0,0,1-2.715,2.75M46.151,173.6l-9.4-.018,4.719,4.193Zm-6.124,5.447L35.3,174.864l-.016,8.357Zm7.611,4.133.027-8.351-4.771,4.23Zm-1.275,1.534-4.9-4.413-4.978,4.452Z" transform="translate(-27.126 -139.692)" fill="#19538d"/>
        <path id="Trazado_1284081" data-name="Trazado 1284081" d="M187.3,94l-17.123,0c-.457,0-.886-.737-.826-1.072a1.141,1.141,0,0,1,1.057-.87l16.742,0a1.187,1.187,0,0,1,.986.838c.08.334-.283,1.1-.835,1.1" transform="translate(-137.81 -74.907)" fill="#19538d"/>
        <path id="Trazado_1284082" data-name="Trazado 1284082" d="M102,92.8c-.348,0-.781-.552-.807-.828-.033-.351.318-.938.67-.982,2.338-.293.226-3.023,2.3-3.893-2-.734-.129-3.46-2.064-3.775a1.092,1.092,0,0,1-.909-.987.987.987,0,0,1,1.064-.95,2.981,2.981,0,0,1,2.727,3.3c-.092,1.238,1.453,1.126,1.529,2.319.088,1.372-1.6,1.1-1.534,2.657A2.891,2.891,0,0,1,102,92.8" transform="translate(-82.345 -66.223)" fill="#19538d"/>
        <path id="Trazado_1284083" data-name="Trazado 1284083" d="M31.663,90.419c.4.624,1.81.414,1.739,1.563a1.151,1.151,0,0,1-.867.823,3,3,0,0,1-2.962-3.339c.051-1.232-1.437-1.128-1.49-2.311-.06-1.342,1.539-1.121,1.489-2.484a3.035,3.035,0,0,1,2.792-3.3,1.036,1.036,0,0,1,1.031.831c.172,1.17-1.352.981-1.711,1.527-.628.956.5,2.443-1.259,3.424,1.743.6.642,2.327,1.238,3.264" transform="translate(-22.851 -66.215)" fill="#19538d"/>
        <path id="Trazado_1284084" data-name="Trazado 1284084" d="M220.116,120.533l-6.172,0a1.142,1.142,0,0,1-.9-.846,1.038,1.038,0,0,1,.9-1.056l6.188-.012a1.042,1.042,0,0,1,.977.891.961.961,0,0,1-1,1.025" transform="translate(-173.366 -96.526)" fill="#19538d"/>
        <path id="Trazado_1284085" data-name="Trazado 1284085" d="M144.608,120.531l-5.8.005a1.039,1.039,0,0,1-.938-1.014,1.009,1.009,0,0,1,1.123-.9l5.437,0a1.023,1.023,0,0,1,1.1.916,1.041,1.041,0,0,1-.921,1" transform="translate(-112.188 -96.526)" fill="#19538d"/>
        <path id="Trazado_1284086" data-name="Trazado 1284086" d="M141.107,198.513l-4.405.042a1.173,1.173,0,0,1-.934-.855c-.056-.42.3-1.051.739-1.053l4.365-.028a1.137,1.137,0,0,1,1.009.77c.1.34-.264,1.12-.774,1.125" transform="translate(-110.477 -160)" fill="#19538d"/>
        <path id="Trazado_1284087" data-name="Trazado 1284087" d="M141,175.866l-4.289.01a1,1,0,0,1-.927-.9,1.024,1.024,0,0,1,.95-1.027l4.149-.01a1.069,1.069,0,0,1,1.022.873,1.044,1.044,0,0,1-.905,1.052" transform="translate(-110.495 -141.546)" fill="#19538d"/>
        <path id="Trazado_1284088" data-name="Trazado 1284088" d="M140.032,219.16l-3.258.012a1.022,1.022,0,0,1-1.02-.946,1.056,1.056,0,0,1,.983-.972l3.337.005a1.046,1.046,0,0,1,.933.965.982.982,0,0,1-.975.937" transform="translate(-110.47 -176.792)" fill="#19538d"/>
        <path id="Trazado_1284089" data-name="Trazado 1284089" d="M140.206,241.71l-3.527.069a1.257,1.257,0,0,1-.9-.714c-.092-.323.21-1.167.558-1.171l3.614-.045c.305,0,.76.444.868.706.122.295-.288,1.149-.607,1.155" transform="translate(-110.474 -195.179)" fill="#19538d"/>
        <path id="Trazado_1284090" data-name="Trazado 1284090" d="M141.672,94.015l-2.824.014a1.062,1.062,0,0,1-.991-.944,1.119,1.119,0,0,1,.916-1l2.887,0a1.243,1.243,0,0,1,.876.838,1.069,1.069,0,0,1-.864,1.1" transform="translate(-112.183 -74.931)" fill="#19538d"/>
        <path id="Trazado_1284091" data-name="Trazado 1284091" d="M260.183,175.882l-2.707.023a1.1,1.1,0,0,1-.964-.9,1.016,1.016,0,0,1,1-1.033l2.651.007a1.229,1.229,0,0,1,.895.86,1.073,1.073,0,0,1-.875,1.043" transform="translate(-208.737 -141.571)" fill="#19538d"/>
        <path id="Trazado_1284092" data-name="Trazado 1284092" d="M188.372,120.55l-2.053.036a1.2,1.2,0,0,1-1-.889,1.129,1.129,0,0,1,.837-1.02l2.151-.015c.323,0,.844.557.883.9.036.32-.426.985-.813.992" transform="translate(-150.798 -96.562)" fill="#19538d"/>
        <path id="Trazado_1284093" data-name="Trazado 1284093" d="M57.61,121.911a.941.941,0,1,1-.941-.941.941.941,0,0,1,.941.941" transform="translate(-45.349 -98.44)" fill="#19538d"/>
        <path id="Trazado_1284094" data-name="Trazado 1284094" d="M92.642,121.949a.943.943,0,1,1-.943-.943.943.943,0,0,1,.943.943" transform="translate(-73.853 -98.47)" fill="#19538d"/>
        <path id="Trazado_1284095" data-name="Trazado 1284095" d="M75.2,121.925a.935.935,0,1,1-.935-.935.935.935,0,0,1,.935.935" transform="translate(-59.674 -98.457)" fill="#19538d"/>
        <path id="Trazado_1284096" data-name="Trazado 1284096" d="M196.36,298.055a2.942,2.942,0,1,1-2.941-2.942,2.942,2.942,0,0,1,2.941,2.942m-1.921,0a1.032,1.032,0,1,0-1.032,1.032,1.032,1.032,0,0,0,1.032-1.032" transform="translate(-155.002 -240.151)" fill="#19538d"/>
        <path id="Trazado_1284097" data-name="Trazado 1284097" d="M21.431,19.521a2.787,2.787,0,1,1-2.787-2.787,2.787,2.787,0,0,1,2.787,2.787m-1.914,0a.875.875,0,1,0-.875.875.875.875,0,0,0,.875-.875" transform="translate(-12.904 -13.617)" fill="#19538d"/>
        <path id="Trazado_1284098" data-name="Trazado 1284098" d="M97.821,19.538a2.787,2.787,0,1,1-2.787-2.787,2.787,2.787,0,0,1,2.787,2.787m-1.9,0a.878.878,0,1,0-.878.878.878.878,0,0,0,.878-.878" transform="translate(-75.068 -13.631)" fill="#19538d"/>
        <path id="Trazado_1284099" data-name="Trazado 1284099" d="M59.637,19.509a2.786,2.786,0,1,1-2.786-2.786,2.786,2.786,0,0,1,2.786,2.786m-1.909.017a.875.875,0,1,0-.875.875.875.875,0,0,0,.875-.875" transform="translate(-43.996 -13.608)" fill="#19538d"/>
      </g>
    </g>
  </g>
</svg>
