<svg xmlns="http://www.w3.org/2000/svg" xmlns:xlink="http://www.w3.org/1999/xlink" width="85" height="85" viewBox="0 0 85 85">
  <defs>
    <clipPath id="clip-path">
      <rect id="Rectángulo_467916" data-name="Rectángulo 467916" width="56.978" height="50.329" fill="#19538d"/>
    </clipPath>
  </defs>
  <g id="Grupo_1180043" data-name="Grupo 1180043" transform="translate(-705.629 -410)">
    <g id="Grupo_1180019" data-name="Grupo 1180019">
      <g id="Grupo_1180023" data-name="Grupo 1180023">
        <rect id="Rectángulo_456333" data-name="Rectángulo 456333" width="85" height="85" rx="10" transform="translate(705.629 410)" fill="#68eae0"/>
        <g id="Grupo_1180607" data-name="Grupo 1180607" transform="translate(741.465 449.379)">
          <g id="Grupo_1214616" data-name="Grupo 1214616" transform="translate(-22.186 -25.126)">
            <g id="Grupo_1214615" data-name="Grupo 1214615" clip-path="url(#clip-path)">
              <path id="Trazado_1283007" data-name="Trazado 1283007" d="M2.82,41.528A3.021,3.021,0,0,1,.01,38.746L0,8.908C0,7.492,1.149,5.863,2.612,5.858l12.2-.042c.6,0,.893.766.84,1.19A1.2,1.2,0,0,1,14.45,8.048l-11.2.006a.839.839,0,0,0-1.017.715V33.7H44.112l.006-9.254A3.081,3.081,0,0,1,41.57,23.7c-1.431-1.384-.458-3.13-1.116-3.438-.677-.317-1.513,1.154-3.269.84a2.821,2.821,0,0,1-1.848-1.366l-1.758-3.125a2.659,2.659,0,0,1,1.581-3.7,1.258,1.258,0,0,0,.637-.683c.135-.806-3.133-1.019-2.356-4.18l-8.911-.007a1.226,1.226,0,0,1-1.062-1.021c-.05-.491.238-1.211.864-1.212L34.7,5.794a16.328,16.328,0,0,1,.949-1.536,2.775,2.775,0,0,1,4.021-.25,1.154,1.154,0,0,0,.815.121c.179-.079.307-.53.267-.774-.26-1.595.661-3.322,2.368-3.332L46.975,0a2.648,2.648,0,0,1,2.512,3.2,1.189,1.189,0,0,0,.268.915,1.087,1.087,0,0,0,.939-.17,2.691,2.691,0,0,1,3.885.311,28.836,28.836,0,0,1,2.144,3.694,2.707,2.707,0,0,1-1.693,3.592,1.174,1.174,0,0,0-.573.554c-.06.213.277.664.516.751a2.692,2.692,0,0,1,1.688,3.777l-1.832,3.206a2.73,2.73,0,0,1-4.217.592,1.013,1.013,0,0,0-.833-.15c-.655.365.257,2.075-1.006,3.373a3.034,3.034,0,0,1-2.439.786l-.042,14.493a2.986,2.986,0,0,1-2.715,2.6l-14.138.04.634,4.985c.167,1.314,1.749,1.687,2.852,1.539.815-.109,1.418.2,1.534.882A1.15,1.15,0,0,1,33.4,50.327l-19.325,0a1.145,1.145,0,0,1-1.059-1.36c.109-.678.726-.987,1.532-.881,1.126.148,2.684-.231,2.851-1.56l.623-4.972Zm44.157-19.3c.2-.086.4-.749.372-.887a2.7,2.7,0,0,1,1.263-2.927,2.857,2.857,0,0,1,3.227.188,1.653,1.653,0,0,0,.993.252l1.749-2.983c.08-.136.152-.53.063-.627-.426-.461-2.4-.871-2.4-3a2.9,2.9,0,0,1,1.774-2.65,1.592,1.592,0,0,0,.736-.724L52.859,5.625c-.373-.64-2.157,1.7-4.217.4-2.182-1.376-.848-3.82-1.681-3.819l-3.831,0c-.408,1.39.171,2.841-1.539,3.821-1.637.938-2.564.012-4.1-.583L35.5,8.878a1.432,1.432,0,0,0,.611.642,2.815,2.815,0,0,1,1.865,2.721,2.767,2.767,0,0,1-1.947,2.678c-.135.042-.571.519-.479.672l1.911,3.344a3.683,3.683,0,0,0,1.036-.386,2.855,2.855,0,0,1,3.238-.077c1.7,1.069.892,2.694,1.461,3.753ZM44.117,35.917H2.23v3.435H44.117ZM28.212,48.091l-.42-1.386L27.2,41.554h-6.95l-.45,4.089a10.23,10.23,0,0,1-.566,2.451Z" transform="translate(0 0)" fill="#19538d"/>
              <path id="Trazado_1283008" data-name="Trazado 1283008" d="M57.147,139.189l-19.132,0a1.07,1.07,0,0,1-.982-1.21,1.112,1.112,0,0,1,1.173-1.018l18.975,0a1.147,1.147,0,0,1,1.071.991,1.074,1.074,0,0,1-1.1,1.237" transform="translate(-30.985 -114.609)" fill="#19538d"/>
              <path id="Trazado_1283009" data-name="Trazado 1283009" d="M51.693,173.823l-13.574.007a1.2,1.2,0,0,1-1.156-1.053,1.147,1.147,0,0,1,.988-1.212l13.848,0c.555,0,.978.659,1,1.06a1.161,1.161,0,0,1-1.1,1.2" transform="translate(-30.928 -143.566)" fill="#19538d"/>
              <path id="Trazado_1283010" data-name="Trazado 1283010" d="M167.531,173.826l-9.487.013a1.223,1.223,0,0,1-1.162-1.052,1.153,1.153,0,0,1,1-1.213l9.763,0c.532,0,.954.68.966,1.063a1.132,1.132,0,0,1-1.075,1.187" transform="translate(-131.279 -143.576)" fill="#19538d"/>
              <path id="Trazado_1283011" data-name="Trazado 1283011" d="M134.894,74.024a1.139,1.139,0,0,1-1.577.056,1.211,1.211,0,0,1-.1-1.482l2.5-2.65-2.289-2.428a1.193,1.193,0,0,1-.206-1.563c.253-.369,1.108-.679,1.526-.243l3.129,3.256a2.16,2.16,0,0,1,.513.885,1.576,1.576,0,0,1-.391.956Z" transform="translate(-111.302 -54.813)" fill="#19538d"/>
              <path id="Trazado_1283012" data-name="Trazado 1283012" d="M42.1,72.591a1.12,1.12,0,1,1-1.7,1.444l-2.948-3.07a1.248,1.248,0,0,1,.11-1.884l2.946-3.088a1.134,1.134,0,0,1,1.628.014A1.153,1.153,0,0,1,42,67.645L39.7,70.1Z" transform="translate(-31.022 -54.941)" fill="#19538d"/>
              <path id="Trazado_1283013" data-name="Trazado 1283013" d="M84.512,74.02a1.094,1.094,0,0,1-1.626.226,1.123,1.123,0,0,1-.216-1.48L86.653,66.3a1.185,1.185,0,0,1,1.483-.567,1.12,1.12,0,0,1,.564,1.491Z" transform="translate(-69.025 -54.939)" fill="#19538d"/>
              <path id="Trazado_1283014" data-name="Trazado 1283014" d="M186.334,138.113a1.106,1.106,0,1,1-1.106-1.106,1.106,1.106,0,0,1,1.106,1.106" transform="translate(-154.076 -114.649)" fill="#19538d"/>
              <path id="Trazado_1283015" data-name="Trazado 1283015" d="M115.382,36.569a1.1,1.1,0,1,1-1.1-1.1,1.1,1.1,0,0,1,1.1,1.1" transform="translate(-94.705 -29.677)" fill="#19538d"/>
              <path id="Trazado_1283016" data-name="Trazado 1283016" d="M257.4,51.09a4.628,4.628,0,1,1-4.628-4.628A4.628,4.628,0,0,1,257.4,51.09m-2.229.007a2.4,2.4,0,1,0-2.4,2.4,2.4,2.4,0,0,0,2.4-2.4" transform="translate(-207.648 -38.88)" fill="#19538d"/>
            </g>
          </g>
        </g>
      </g>
    </g>
  </g>
</svg>
