<svg xmlns="http://www.w3.org/2000/svg" xmlns:xlink="http://www.w3.org/1999/xlink" width="96" height="96" viewBox="0 0 96 96">
  <defs>
    <clipPath id="clip-path">
      <rect id="Rectangle_456267" data-name="Rectangle 456267" width="96" height="96" fill="none"/>
    </clipPath>
    <clipPath id="clip-path-2">
      <rect id="Rectangle_468822" data-name="Rectangle 468822" width="50.253" height="50.141" fill="#0f654d"/>
    </clipPath>
  </defs>
  <g id="img24" transform="translate(479.746 8495) rotate(180)">
    <path id="Path_999622" data-name="Path 999622" d="M43.07,0A43.07,43.07,0,1,1,0,43.07,43.071,43.071,0,0,1,43.07,0" transform="translate(388.676 8403.93)" fill="#e3fbf9"/>
    <g id="Group_1179902" data-name="Group 1179902" transform="translate(383.746 8399)">
      <g id="Group_1179905" data-name="Group 1179905" clip-path="url(#clip-path)">
        <path id="Path_999618" data-name="Path 999618" d="M48,0A48,48,0,1,1,0,48,48,48,0,0,1,48,0" fill="none"/>
        <path id="Path_999619" data-name="Path 999619" d="M3.75,59A3.75,3.75,0,1,1,0,62.75,3.75,3.75,0,0,1,3.75,59" transform="translate(0 -14.75)" fill="#0f654d"/>
        <path id="Path_999620" data-name="Path 999620" d="M19.75,19A3.75,3.75,0,1,1,16,22.75,3.75,3.75,0,0,1,19.75,19" transform="translate(-4 -4.75)" fill="#0f654d"/>
        <path id="Path_999621" data-name="Path 999621" d="M49,94A45.051,45.051,0,0,1,4,49H6.25A42.75,42.75,0,1,0,17.806,19.768l-1.641-1.539A45,45,0,1,1,49,94" transform="translate(-1 -1)" fill="#0f654d"/>
        <rect id="Rectangle_456268" data-name="Rectangle 456268" width="96" height="96" fill="none"/>
        <rect id="Rectangle_456269" data-name="Rectangle 456269" width="96" height="96" fill="none"/>
      </g>
    </g>
    <g id="Group_1179903" data-name="Group 1179903" transform="translate(458.745 8474.508) rotate(180)">
      <g id="Group_1099618" data-name="Group 1099618" transform="translate(0.253 -0.492)">
        <rect id="Rectangle_401104" data-name="Rectangle 401104" width="54.153" height="54.806" transform="translate(0)" fill="none"/>
      </g>
      <g id="Group_1214936" data-name="Group 1214936" transform="translate(2.254 2.508)">
        <g id="Group_1214935" data-name="Group 1214935" clip-path="url(#clip-path-2)">
          <path id="Path_1284691" data-name="Path 1284691" d="M35.348,50.14l-20.508,0a2.385,2.385,0,0,1-2.176-2.684,2.437,2.437,0,0,1,2.911-2.121,5.167,5.167,0,0,0,1.987-3.451l-15.1-.012A2.5,2.5,0,0,1,0,39.284L.014,8.217a2.566,2.566,0,0,1,3.293-2.29l.065-3.61A2.422,2.422,0,0,1,5.783,0H44.471A2.416,2.416,0,0,1,46.88,2.321l.066,3.6a2.576,2.576,0,0,1,3.293,2.3l.014,31.069a2.477,2.477,0,0,1-2.33,2.571l-15.2.024a4.972,4.972,0,0,0,1.952,3.453,2.436,2.436,0,0,1,2.9,1.991,2.382,2.382,0,0,1-2.222,2.816M45.213,1.668H5.04V6.68H45.213ZM8.339,37.707a.887.887,0,0,1-.8-.918.869.869,0,0,1,.846-.8H48.569L48.555,8.082c-.038-.614-1.171-.645-1.631-.513L46.9,31.93A2.582,2.582,0,0,1,44.3,34.37H5.959A2.6,2.6,0,0,1,3.34,31.8L3.33,7.57c-.442-.134-1.629-.105-1.63.51l-.021,27.9,3.371.017a.919.919,0,0,1,.821.782c.022.293-.347.905-.687.908l-3.5.033v1.59a.863.863,0,0,0,.94.9H47.631a.882.882,0,0,0,.947-.894l-.042-1.6Zm-3.3-5.039H45.213V8.378H5.039ZM32.423,45.294a9.171,9.171,0,0,1-1.291-3.42l-12.038.008A7.886,7.886,0,0,1,17.8,45.3ZM35.3,48.636a.968.968,0,0,0,.789-1.032,1.018,1.018,0,0,0-.845-.8H15.014a.951.951,0,0,0-.849,1.018.966.966,0,0,0,.975.81Z" transform="translate(0 0.001)" fill="#0f654d"/>
          <path id="Path_1284692" data-name="Path 1284692" d="M77.361,89.67a.867.867,0,0,1-.688.972c-.28.062-.957-.157-.957-.6V70.332c0-.36.585-.636.838-.617a1.007,1.007,0,0,1,.806.633Z" transform="translate(-64.813 -59.676)" fill="#0f654d"/>
          <path id="Path_1284693" data-name="Path 1284693" d="M156.454,181.925l-15.814,0a.849.849,0,0,1-.909-.784.834.834,0,0,1,.922-.9h15.783a.9.9,0,0,1,.869.757.845.845,0,0,1-.85.919" transform="translate(-119.609 -154.294)" fill="#0f654d"/>
          <path id="Path_1284694" data-name="Path 1284694" d="M127.239,135.5l-15.893.006a.914.914,0,0,1-.951-.736c-.056-.295.222-.91.667-.91l16.256,0c.405,0,.681.5.682.8a.842.842,0,0,1-.76.839" transform="translate(-94.493 -114.586)" fill="#0f654d"/>
          <path id="Path_1284695" data-name="Path 1284695" d="M186.267,158.665l-11.065.007a.93.93,0,0,1-.7-.88.859.859,0,0,1,.935-.793l10.793,0a.832.832,0,0,1,.038,1.663" transform="translate(-149.373 -134.393)" fill="#0f654d"/>
          <path id="Path_1284696" data-name="Path 1284696" d="M167.3,205.362h-9.434a.853.853,0,0,1-.855-.809.827.827,0,0,1,.857-.822l9.378.01c.3,0,.643.443.662.691a.934.934,0,0,1-.607.931" transform="translate(-134.4 -174.395)" fill="#0f654d"/>
          <path id="Path_1284697" data-name="Path 1284697" d="M176.043,76.238a.973.973,0,0,1-1.212.088.922.922,0,0,1-.1-1.171l1.985-2-1.85-1.836a.911.911,0,0,1-.141-1.147.854.854,0,0,1,1.171-.178l2.621,2.607a.894.894,0,0,1,.015,1.133Z" transform="translate(-149.428 -59.771)" fill="#0f654d"/>
          <path id="Path_1284698" data-name="Path 1284698" d="M108.612,75.108a.9.9,0,0,1,.047,1.085.875.875,0,0,1-1.1.176L105,73.836a1.434,1.434,0,0,1-.352-.626,1.267,1.267,0,0,1,.359-.741l2.317-2.32a.836.836,0,1,1,1.252,1.1l-1.916,1.909Z" transform="translate(-89.581 -59.767)" fill="#0f654d"/>
          <path id="Path_1284699" data-name="Path 1284699" d="M141.214,75.932a.923.923,0,0,1-1.075.538.871.871,0,0,1-.491-1.156l2.545-5.093a.9.9,0,0,1,1.165-.324.949.949,0,0,1,.328,1.092Z" transform="translate(-119.476 -59.754)" fill="#0f654d"/>
          <path id="Path_1284700" data-name="Path 1284700" d="M114.771,205.32l-3.412.027a.865.865,0,0,1-.929-.819.837.837,0,0,1,.932-.828h3.2a.8.8,0,0,1,.891.684c.055.355-.164.932-.679.936" transform="translate(-94.53 -174.369)" fill="#0f654d"/>
          <path id="Path_1284701" data-name="Path 1284701" d="M142.11,158.639l-1.847-.013c-.269,0-.613-.486-.639-.74-.03-.3.285-.891.609-.9l1.913-.028a.882.882,0,0,1,.826.793.855.855,0,0,1-.862.884" transform="translate(-119.518 -134.361)" fill="#0f654d"/>
          <path id="Path_1284702" data-name="Path 1284702" d="M49,24.823H47.226c-.311,0-.734-.5-.755-.788a.919.919,0,0,1,.794-.9l1.748-.01a.9.9,0,0,1,.817.774.862.862,0,0,1-.826.924" transform="translate(-39.779 -19.795)" fill="#0f654d"/>
          <path id="Path_1284703" data-name="Path 1284703" d="M246,24.052a.838.838,0,1,1-.838-.838.838.838,0,0,1,.838.838" transform="translate(-209.144 -19.871)" fill="#0f654d"/>
          <path id="Path_1284704" data-name="Path 1284704" d="M269.307,24.065a.834.834,0,1,1-.834-.834.834.834,0,0,1,.834.834" transform="translate(-229.103 -19.886)" fill="#0f654d"/>
          <path id="Path_1284705" data-name="Path 1284705" d="M292.5,24.07a.833.833,0,1,1-.833-.833.833.833,0,0,1,.833.833" transform="translate(-248.96 -19.891)" fill="#0f654d"/>
        </g>
      </g>
    </g>
  </g>
</svg>
