<svg xmlns="http://www.w3.org/2000/svg" xmlns:xlink="http://www.w3.org/1999/xlink" width="96" height="96" viewBox="0 0 96 96">
  <defs>
    <clipPath id="clip-path">
      <rect id="Rectangle_456267" data-name="Rectangle 456267" width="96" height="96" fill="none"/>
    </clipPath>
    <clipPath id="clip-path-2">
      <rect id="Rectangle_468821" data-name="Rectangle 468821" width="53.141" height="51.374" fill="#0f654d"/>
    </clipPath>
  </defs>
  <g id="img23" transform="translate(479.746 8495) rotate(180)">
    <path id="Path_999622" data-name="Path 999622" d="M43.07,0A43.07,43.07,0,1,1,0,43.07,43.071,43.071,0,0,1,43.07,0" transform="translate(388.676 8403.93)" fill="#e3fbf9"/>
    <g id="Group_1179902" data-name="Group 1179902" transform="translate(383.746 8399)">
      <g id="Group_1179905" data-name="Group 1179905" clip-path="url(#clip-path)">
        <path id="Path_999618" data-name="Path 999618" d="M48,0A48,48,0,1,1,0,48,48,48,0,0,1,48,0" fill="none"/>
        <path id="Path_999619" data-name="Path 999619" d="M3.75,59A3.75,3.75,0,1,1,0,62.75,3.75,3.75,0,0,1,3.75,59" transform="translate(0 -14.75)" fill="#0f654d"/>
        <path id="Path_999620" data-name="Path 999620" d="M19.75,19A3.75,3.75,0,1,1,16,22.75,3.75,3.75,0,0,1,19.75,19" transform="translate(-4 -4.75)" fill="#0f654d"/>
        <path id="Path_999621" data-name="Path 999621" d="M49,94A45.051,45.051,0,0,1,4,49H6.25A42.75,42.75,0,1,0,17.806,19.768l-1.641-1.539A45,45,0,1,1,49,94" transform="translate(-1 -1)" fill="#0f654d"/>
        <rect id="Rectangle_456268" data-name="Rectangle 456268" width="96" height="96" fill="none"/>
        <rect id="Rectangle_456269" data-name="Rectangle 456269" width="96" height="96" fill="none"/>
      </g>
    </g>
    <g id="Group_1179903" data-name="Group 1179903" transform="translate(458.745 8474.508) rotate(180)">
      <g id="Group_1099618" data-name="Group 1099618" transform="translate(0.253 -0.492)">
        <rect id="Rectangle_401104" data-name="Rectangle 401104" width="54.153" height="54.806" transform="translate(0)" fill="none"/>
      </g>
      <g id="Group_1214934" data-name="Group 1214934" transform="translate(0.253 1.508)">
        <g id="Group_1214933" data-name="Group 1214933" clip-path="url(#clip-path-2)">
          <path id="Path_1284676" data-name="Path 1284676" d="M103.275,104.758l-2.206-.064c-1.277-.037-1.225-1.967-1.7-3.015l-2.536-1.5-1.878.585a1.622,1.622,0,0,1-1.635-.634l-.939-1.578a1.648,1.648,0,0,1,.215-2.122l1.414-1.356a14.626,14.626,0,0,1,0-2.941l-1.1-1a1.77,1.77,0,0,1-.578-2.219l.817-1.463a1.68,1.68,0,0,1,2.056-.879l1.729.52,2.435-1.42c.579-.936.264-2.843,1.725-3.013a10.4,10.4,0,0,1,2.759.034c1.179.192,1.038,1.977,1.538,2.984a20.3,20.3,0,0,1,2.459,1.446l1.765-.5a1.687,1.687,0,0,1,2.007.822l.732,1.247a1.719,1.719,0,0,1-.024,2.023l-1.516,1.5-.017,3,1.187,1.069a1.706,1.706,0,0,1,.468,2.184l-.9,1.548a1.708,1.708,0,0,1-2.1.711l-1.617-.442-2.576,1.474-.382,1.665a1.58,1.58,0,0,1-1.605,1.345m.33-1.21.289-1.47a2.084,2.084,0,0,1,1.307-1.706c1.437-.6,2.126-1.617,3.047-1.327l2.064.651,1.225-2.094-1.627-1.583c-.523-.509-.218-1.741-.326-3.529a1.841,1.841,0,0,1,.489-1.332l1.484-1.339-1.192-2.133-1.939.592c-1.166.356-1.639-.628-3.228-1.3a2.169,2.169,0,0,1-1.274-1.748l-.331-1.395h-2.426l-.344,1.554a2.093,2.093,0,0,1-1.247,1.592c-1.765.807-2.016,1.677-3.489,1.175l-1.594-.543L93.242,89.74l1.2,1.094A2.046,2.046,0,0,1,95.2,92.7c-.189,1.81.376,2.726-.612,3.578L93.2,97.473l1.217,2.17,1.757-.558c1.264-.4,1.695.482,3.424,1.295a2,2,0,0,1,1.139,1.275l.362,1.866Z" transform="translate(-75.814 -67.987)" fill="#0f654d"/>
          <path id="Path_1284677" data-name="Path 1284677" d="M71.544,167.5a.7.7,0,0,1,.753.588.832.832,0,0,1-.657.627l-10.636,0a2.824,2.824,0,0,1-2.9-2.5l-.049-9.69c0-.246.236-.663.436-.7a1.085,1.085,0,0,1,.768.352v9.72a1.713,1.713,0,0,0,1.6,1.591Z" transform="translate(-47.797 -128.281)" fill="#0f654d"/>
          <path id="Path_1284678" data-name="Path 1284678" d="M162.856,170.51a.933.933,0,0,1-.726-.5c-.062-.213.22-.716.471-.717l10.947-.019a1.694,1.694,0,0,0,1.59-1.588l.006-9.034a.907.907,0,0,1,.474-.651c.221-.06.723.24.722.5l-.043,9.505a2.824,2.824,0,0,1-2.9,2.493Z" transform="translate(-133.466 -130.072)" fill="#0f654d"/>
          <path id="Path_1284679" data-name="Path 1284679" d="M59.267,64.765l0,9.113a.775.775,0,0,1-.621.606.807.807,0,0,1-.583-.633l.041-9.338a2.742,2.742,0,0,1,2.563-2.436L71.1,62.056a.843.843,0,0,1,.625.59.75.75,0,0,1-.607.618l-10.249.009a1.7,1.7,0,0,0-1.6,1.493" transform="translate(-47.804 -51.088)" fill="#0f654d"/>
          <path id="Path_1284680" data-name="Path 1284680" d="M176.724,73.723v-8.9a1.686,1.686,0,0,0-1.6-1.574L164.7,63.238c-.285,0-.68-.375-.659-.6a.751.751,0,0,1,.659-.6l10.088-.013a2.931,2.931,0,0,1,3.124,2.488l.012,8.95a1.436,1.436,0,0,1-.426.594c-.155.091-.6-.138-.775-.332" transform="translate(-135.048 -51.061)" fill="#0f654d"/>
          <path id="Path_1284681" data-name="Path 1284681" d="M13.161,130.454a.965.965,0,0,1,.752.458c.075.219-.273.777-.51.777l-7.349.018a3.071,3.071,0,1,1,0-1.253Zm-8.252.608a1.852,1.852,0,1,0-1.852,1.852,1.852,1.852,0,0,0,1.852-1.852" transform="translate(0 -105.375)" fill="#0f654d"/>
          <path id="Path_1284682" data-name="Path 1284682" d="M222.645,131.693a1.015,1.015,0,0,1-.752-.5c-.07-.221.266-.744.507-.745l7.349-.01a3.063,3.063,0,1,1,0,1.25Zm11.957-.638a1.852,1.852,0,1,0-1.852,1.852,1.852,1.852,0,0,0,1.852-1.852" transform="translate(-182.667 -105.366)" fill="#0f654d"/>
          <path id="Path_1284683" data-name="Path 1284683" d="M136.666,222.717a3.177,3.177,0,0,1,2.448,3.233,3.07,3.07,0,1,1-3.688-3.184V216.3a.731.731,0,0,1,.62-.739.694.694,0,0,1,.642.731Zm1.229,3.047a1.85,1.85,0,1,0-1.85,1.85,1.85,1.85,0,0,0,1.85-1.85" transform="translate(-109.476 -177.464)" fill="#0f654d"/>
          <path id="Path_1284684" data-name="Path 1284684" d="M136.662,12.449c0,.5-.253.827-.644.83a.75.75,0,0,1-.616-.743l.012-6.443A3.078,3.078,0,0,1,135.87,0a3.069,3.069,0,0,1,.788,6.068Zm1.215-9.374a1.851,1.851,0,1,0-1.851,1.851,1.851,1.851,0,0,0,1.851-1.851" transform="translate(-109.456 0)" fill="#0f654d"/>
          <path id="Path_1284685" data-name="Path 1284685" d="M82.88,166.18H72.43a.827.827,0,0,1-.718-.692l0-9.2c.115-.227.433-.558.635-.554s.5.329.613.56l-.006,8.653,9.925-.006a.622.622,0,1,1,0,1.24" transform="translate(-59.037 -128.208)" fill="#0f654d"/>
          <path id="Path_1284686" data-name="Path 1284686" d="M162.865,168.022c-.282,0-.712-.314-.73-.5a1.027,1.027,0,0,1,.48-.738l10.081.006,0-8.148a.8.8,0,0,1,.614-.669.852.852,0,0,1,.635.664l0,8.7a.824.824,0,0,1-.715.688Z" transform="translate(-133.478 -130.049)" fill="#0f654d"/>
          <path id="Path_1284687" data-name="Path 1284687" d="M72.963,77.144v8.122a.811.811,0,0,1-.6.632c-.221,0-.638-.365-.638-.6l0-8.7a.779.779,0,0,1,.714-.672H82.516a1.368,1.368,0,0,1,.438.6c.043.212-.37.629-.6.629Z" transform="translate(-59.042 -62.499)" fill="#0f654d"/>
          <path id="Path_1284688" data-name="Path 1284688" d="M175.459,84.829a.826.826,0,0,1-.635.692.862.862,0,0,1-.611-.625l0-7.769-9.567.007a.842.842,0,0,1-.668-.627.76.76,0,0,1,.67-.6l9.923-.007c.425,0,.888.218.888.679Z" transform="translate(-134.995 -62.483)" fill="#0f654d"/>
          <path id="Path_1284689" data-name="Path 1284689" d="M128.575,117.655a5.947,5.947,0,1,1-5.947-5.947,5.947,5.947,0,0,1,5.947,5.947m-1.227,0a4.719,4.719,0,1,0-4.72,4.719,4.72,4.72,0,0,0,4.72-4.719" transform="translate(-96.058 -91.964)" fill="#0f654d"/>
          <path id="Path_1284690" data-name="Path 1284690" d="M149.658,129.344l-1.833,1.57a.922.922,0,0,1-.7.108,1,1,0,0,1-.36-.635l0-2.813a1.032,1.032,0,0,1,.491-.691c.217-.082.733.268.742.537l.052,1.646.76-.549a1.125,1.125,0,0,1,.762.009c.165.071.233.7.091.819" transform="translate(-120.821 -104.446)" fill="#0f654d"/>
        </g>
      </g>
    </g>
  </g>
</svg>
