<svg xmlns="http://www.w3.org/2000/svg" xmlns:xlink="http://www.w3.org/1999/xlink" width="396" height="292.188" viewBox="0 0 396 292.188">
  <defs>
    <clipPath id="clip-path">
      <rect id="Rectángulo_468544" data-name="Rectángulo 468544" width="358.333" height="292.188" fill="none"/>
    </clipPath>
  </defs>
  <g id="Grupo_1214488" data-name="Grupo 1214488" transform="translate(-290 -7388)">
    <ellipse id="Elipse_13759" data-name="Elipse 13759" cx="198" cy="146" rx="198" ry="146" transform="translate(290 7388)" fill="#c9e8f7"/>
    <rect id="Rectángulo_466489" data-name="Rectángulo 466489" width="396" height="286" transform="translate(290 7394)" fill="none"/>
    <g id="Grupo_1214868" data-name="Grupo 1214868" transform="translate(308.833 7388)">
      <g id="Grupo_1214867" data-name="Grupo 1214867" transform="translate(0 0)" clip-path="url(#clip-path)">
        <path id="Trazado_1284318" data-name="Trazado 1284318" d="M25.857,9.055v258.9a7.87,7.87,0,0,0,7.887,7.887h154a7.873,7.873,0,0,0,7.891-7.887V9.055a7.873,7.873,0,0,0-7.891-7.887h-154a7.87,7.87,0,0,0-7.887,7.887" transform="translate(67.348 3.043)" fill="#68eae0"/>
        <path id="Trazado_1284319" data-name="Trazado 1284319" d="M186.769,277.2h-154a9.144,9.144,0,0,1-9.134-9.138V9.134A9.141,9.141,0,0,1,32.764,0h154a9.144,9.144,0,0,1,9.138,9.134V268.066a9.147,9.147,0,0,1-9.138,9.138M32.764,2.5a6.638,6.638,0,0,0-6.633,6.633V268.066a6.638,6.638,0,0,0,6.633,6.633h154a6.638,6.638,0,0,0,6.633-6.633V9.134A6.638,6.638,0,0,0,186.769,2.5Z" transform="translate(61.547 0.001)" fill="#332b33"/>
        <path id="Trazado_1284320" data-name="Trazado 1284320" d="M61.962,234.234H210.073a8.176,8.176,0,0,0,8.175-8.179V16.049a8.176,8.176,0,0,0-8.175-8.179H61.962a8.18,8.18,0,0,0-8.179,8.179V226.055a8.18,8.18,0,0,0,8.179,8.179" transform="translate(140.085 20.499)" fill="#0f654d"/>
        <path id="Trazado_1284321" data-name="Trazado 1284321" d="M25.857,7.87V234.234H121a8.314,8.314,0,0,0,8.1-7.076,10.516,10.516,0,0,0,.068-1.1V16.042a10.586,10.586,0,0,0-.068-1.1,7.969,7.969,0,0,0-1.027-2.97c-.068-.1-.141-.213-.245-.353A8,8,0,0,0,121,7.87Z" transform="translate(67.348 20.499)" fill="#0f654d"/>
        <path id="Trazado_1284322" data-name="Trazado 1284322" d="M54.688,12.838H65.74a2.653,2.653,0,1,0,0-5.306H54.688a2.653,2.653,0,1,0,0,5.306" transform="translate(135.532 19.619)" fill="#332b33"/>
        <path id="Trazado_1284323" data-name="Trazado 1284323" d="M54.688,74.9H65.74a2.653,2.653,0,0,0,0-5.306H54.688a2.653,2.653,0,1,0,0,5.306" transform="translate(135.532 181.268)" fill="#332b33"/>
        <rect id="Rectángulo_468538" data-name="Rectángulo 468538" width="103.312" height="212.216" transform="translate(93.205 35.441)" fill="#fff"/>
        <path id="Trazado_1284324" data-name="Trazado 1284324" d="M116.832,20.032H27.665a2.5,2.5,0,0,1,0-5.007h89.168a2.5,2.5,0,0,1,0,5.007" transform="translate(65.54 39.135)" fill="#dbdcdd"/>
        <path id="Trazado_1284325" data-name="Trazado 1284325" d="M99.363,23.1H34.372a2.5,2.5,0,0,1,0-5.007H99.363a2.5,2.5,0,0,1,0,5.007" transform="translate(83.01 47.121)" fill="#dbdcdd"/>
        <path id="Trazado_1284326" data-name="Trazado 1284326" d="M116.832,28H27.665a2.5,2.5,0,0,1,0-5.007h89.168a2.5,2.5,0,0,1,0,5.007" transform="translate(65.54 59.889)" fill="#dbdcdd"/>
        <path id="Trazado_1284327" data-name="Trazado 1284327" d="M90.1,35.731H37.929a2.5,2.5,0,0,1,0-5.007H90.1a2.5,2.5,0,0,1,0,5.007" transform="translate(92.274 80.025)" fill="#dbdcdd"/>
        <path id="Trazado_1284328" data-name="Trazado 1284328" d="M90.1,38.675H37.929a2.5,2.5,0,0,1,0-5.007H90.1a2.5,2.5,0,0,1,0,5.007" transform="translate(92.274 87.693)" fill="#dbdcdd"/>
        <path id="Trazado_1284329" data-name="Trazado 1284329" d="M90.1,43.581H37.929a2.5,2.5,0,0,1,0-5.007H90.1a2.5,2.5,0,0,1,0,5.007" transform="translate(92.274 100.472)" fill="#dbdcdd"/>
        <path id="Trazado_1284330" data-name="Trazado 1284330" d="M90.1,46.524H37.929a2.5,2.5,0,0,1,0-5.007H90.1a2.5,2.5,0,0,1,0,5.007" transform="translate(92.274 108.137)" fill="#dbdcdd"/>
        <path id="Trazado_1284331" data-name="Trazado 1284331" d="M90.1,51.431H37.929a2.5,2.5,0,0,1,0-5.007H90.1a2.5,2.5,0,0,1,0,5.007" transform="translate(92.274 120.918)" fill="#dbdcdd"/>
        <path id="Trazado_1284332" data-name="Trazado 1284332" d="M90.1,54.374H37.929a2.5,2.5,0,0,1,0-5.007H90.1a2.5,2.5,0,0,1,0,5.007" transform="translate(92.274 128.584)" fill="#dbdcdd"/>
        <path id="Trazado_1284333" data-name="Trazado 1284333" d="M90.1,59.281H37.929a2.5,2.5,0,0,1,0-5.007H90.1a2.5,2.5,0,0,1,0,5.007" transform="translate(92.274 141.365)" fill="#dbdcdd"/>
        <path id="Trazado_1284334" data-name="Trazado 1284334" d="M90.1,62.224H37.929a2.5,2.5,0,0,1,0-5.007H90.1a2.5,2.5,0,0,1,0,5.007" transform="translate(92.274 149.03)" fill="#dbdcdd"/>
        <rect id="Rectángulo_468539" data-name="Rectángulo 468539" width="149.722" height="202.195" transform="translate(197.033 35.441)" fill="#ededef"/>
        <rect id="Rectángulo_468540" data-name="Rectángulo 468540" width="1.251" height="212.216" transform="translate(196.409 35.441)" fill="#332b33"/>
        <path id="Trazado_1284335" data-name="Trazado 1284335" d="M54.8,222.375,207.77,241.238V29.022L54.8,10.159Z" transform="translate(142.744 26.461)" fill="#fff"/>
        <path id="Trazado_1284336" data-name="Trazado 1284336" d="M182.935,35.939a2.154,2.154,0,0,1-.306-.018L61.784,21.016a2.5,2.5,0,0,1,.609-4.967L183.238,30.954a2.5,2.5,0,0,1-.3,4.985" transform="translate(155.201 41.745)" fill="#dbdcdd"/>
        <path id="Trazado_1284337" data-name="Trazado 1284337" d="M182.935,39a2.153,2.153,0,0,1-.306-.018L61.784,24.082A2.494,2.494,0,0,1,59.606,21.3a2.52,2.52,0,0,1,2.786-2.181L183.238,34.02a2.5,2.5,0,0,1-.3,4.985" transform="translate(155.201 49.731)" fill="#dbdcdd"/>
        <path id="Trazado_1284338" data-name="Trazado 1284338" d="M143.056,38.994a2.153,2.153,0,0,1-.306-.018l-65.655-8.1a2.5,2.5,0,0,1,.613-4.967l65.651,8.1a2.5,2.5,0,0,1-.3,4.985" transform="translate(195.081 67.426)" fill="#dbdcdd"/>
        <path id="Trazado_1284339" data-name="Trazado 1284339" d="M185.386,62a2.153,2.153,0,0,1-.306-.018L60.842,46.655a2.5,2.5,0,1,1,.613-4.967L185.689,57.012a2.5,2.5,0,0,1-.3,4.985" transform="translate(152.751 108.532)" fill="#dbdcdd"/>
        <path id="Trazado_1284340" data-name="Trazado 1284340" d="M185.692,65.405a2.186,2.186,0,0,1-.306-.018L61.148,50.064a2.5,2.5,0,0,1-2.177-2.786,2.541,2.541,0,0,1,2.79-2.181l124.234,15.32a2.5,2.5,0,0,1-.3,4.989" transform="translate(153.548 117.415)" fill="#dbdcdd"/>
        <path id="Trazado_1284341" data-name="Trazado 1284341" d="M185.692,69.577a2.184,2.184,0,0,1-.306-.018L61.148,54.236a2.5,2.5,0,1,1,.613-4.964l124.234,15.32a2.5,2.5,0,0,1-.3,4.985" transform="translate(153.548 128.274)" fill="#dbdcdd"/>
        <path id="Trazado_1284342" data-name="Trazado 1284342" d="M139.53,72.372a1.753,1.753,0,0,1-.306-.022L78.875,64.907a2.5,2.5,0,1,1,.609-4.967l60.349,7.444a2.5,2.5,0,0,1-.3,4.989" transform="translate(199.71 156.061)" fill="#dbdcdd"/>
        <path id="Trazado_1284343" data-name="Trazado 1284343" d="M207.746,88.966,54.783,70.1l.151-1.244L207.9,87.726Z" transform="translate(142.69 179.355)" fill="#332b33"/>
        <rect id="Rectángulo_468541" data-name="Rectángulo 468541" width="1.251" height="12.969" transform="translate(349.531 254.732)" fill="#332b33"/>
        <path id="Trazado_1284344" data-name="Trazado 1284344" d="M47.155,27.357a19.372,19.372,0,0,1-3.547,11.726q-3.693-1.465-7.393-2.927c-2.267-4.625-1.813-7.663-1.3-9.271.62-1.961,1.669-2.891,5.757-7.894,1.831-2.242,3.277-4.084,4.178-5.241a4.234,4.234,0,0,1,.31,1.644c-.022.941-.425,1.683-2,3.857-.487.674-1.121,1.528-1.882,2.505A8.613,8.613,0,0,1,44.1,23.14a8.953,8.953,0,0,1,3.057,4.217" transform="translate(89.85 35.814)" fill="#f96e58"/>
        <path id="Trazado_1284345" data-name="Trazado 1284345" d="M36.414,93.722Q24.043,95.214,11.672,96.71q3.293-32.474,6.589-64.948,10.841.93,21.685,1.864-1.768,30.046-3.533,60.1" transform="translate(30.401 82.729)" fill="#f96e58"/>
        <path id="Trazado_1284346" data-name="Trazado 1284346" d="M31.235,99.026,54.56,91.4Q47.98,61.831,41.4,32.257q-10.944.389-21.884.786,5.861,32.988,11.719,65.983" transform="translate(50.832 84.018)" fill="#f96e58"/>
        <path id="Trazado_1284347" data-name="Trazado 1284347" d="M57.067,48.816A50.869,50.869,0,0,1,35.32,52.781,50.663,50.663,0,0,1,13.5,46.888q3.915-10.187,7.833-20.37,13.388.141,26.775.288,4.477,11,8.958,22.01" transform="translate(35.165 69.07)" fill="#f96e58"/>
        <path id="Trazado_1284348" data-name="Trazado 1284348" d="M52.489,60.062l-26.775-.249-13.9-38.227a44.756,44.756,0,0,1,27.114-7.808A43.665,43.665,0,0,1,64.7,23.064q-6.1,18.5-12.209,37" transform="translate(30.782 35.814)" fill="#f96e58"/>
        <path id="Trazado_1284349" data-name="Trazado 1284349" d="M.285,53c4.455,2.264,8.914,4.563,13.334,6.86C19.1,56.076,24.548,52.292,30.03,48.507c2.44-1.7,4.917-3.4,7.357-5.093,5.342-3.68,10.681-7.393,16.023-11.07-.036-.285-.072-.566-.108-.815-.6-3.713-2.721-9.621-10.608-15.81-5.2,4.563-10.435,9.159-15.633,13.723Q13.689,41.218.285,53" transform="translate(0.742 40.943)" fill="#f96e58"/>
        <path id="Trazado_1284350" data-name="Trazado 1284350" d="M17.3,25.884a8.291,8.291,0,0,0,15.738.1,27.69,27.69,0,0,1-2.473-7.177c-.425-1.842-.674-3.432-.815-4.387-.036-.285-.072-.494-.072-.638-.032-.317-.068-.634-.1-.955-.072-.707-.141-1.377-.213-2.051-2.159-.281-4.351-.53-6.542-.811a24.711,24.711,0,0,1-1.168,7.955A24.725,24.725,0,0,1,17.3,25.884" transform="translate(45.058 25.969)" fill="#f96e58"/>
        <path id="Trazado_1284351" data-name="Trazado 1284351" d="M62.256,91.963c-.242.685-1.319.98-2.541,1.146-3.338.429-11.362.378-18.265.216-4.571-.1-8.662-.256-10.562-.321a11.969,11.969,0,0,1-.13-1.626,14,14,0,0,1,.072-2.011c.029-.191.058-.382.1-.559a15.737,15.737,0,0,1,.908-3.1c.642-1.655,1.125-4.25.3-8.37,3.154-.469,6.319-.735,9.487-1.031,1.29.894,2.556,1.77,3.832,2.66.386.252.768.523,1.168.8.238.166.483.332.735.508.386.267.768.537,1.164.8.27.191.541.368.811.559l1.15.8.739.508c.382.267.768.533,1.164.8,2.343,1.626,4.686,3.241,7.029,4.87.6.382,2.541,1.665,2.812,2.761a.821.821,0,0,1,.029.584" transform="translate(80.087 198.745)" fill="#ffb758"/>
        <path id="Trazado_1284352" data-name="Trazado 1284352" d="M62.255,81.07c-.245.681-1.33.973-2.548,1.143-5.558.728-24.075.072-28.823-.1a12.741,12.741,0,0,1-.133-1.629H62.226a.859.859,0,0,1,.029.584" transform="translate(80.092 209.637)" fill="#332b33"/>
        <path id="Trazado_1284353" data-name="Trazado 1284353" d="M37.913,77.842,35.4,80.679a.8.8,0,0,1-1.038.1.609.609,0,0,1-.27-.508.567.567,0,0,1,.159-.407l2.5-2.822c.382.252.768.519,1.164.8" transform="translate(88.797 200.667)" fill="#332b33"/>
        <path id="Trazado_1284354" data-name="Trazado 1284354" d="M38.464,78.206l-2.545,2.862a.8.8,0,0,1-1.035.1.6.6,0,0,1-.274-.508.567.567,0,0,1,.159-.407L37.3,77.406c.382.267.768.533,1.168.8" transform="translate(90.149 201.615)" fill="#332b33"/>
        <path id="Trazado_1284355" data-name="Trazado 1284355" d="M39.015,78.583l-2.57,2.887a.78.78,0,0,1-1.024.1.608.608,0,0,1-.27-.508.567.567,0,0,1,.159-.407l2.556-2.873,1.15.8" transform="translate(91.555 202.597)" fill="#332b33"/>
        <path id="Trazado_1284356" data-name="Trazado 1284356" d="M38.4,78.146c.382.267.768.533,1.164.8l-2.6,2.913a.784.784,0,0,1-1.024.1.615.615,0,0,1-.267-.512Z" transform="translate(92.912 203.542)" fill="#332b33"/>
        <path id="Trazado_1284357" data-name="Trazado 1284357" d="M41.793,82.648c-.112.548-.227,1.092-.342,1.64-4.571-.1-8.662-.256-10.562-.317a11.977,11.977,0,0,1-.13-1.629,13.952,13.952,0,0,1,.072-2.008c.029-.191.058-.382.1-.562.342.079.681.141,1.038.216a97.909,97.909,0,0,1,9.826,2.66" transform="translate(80.087 207.778)" fill="#332b33"/>
        <path id="Trazado_1284358" data-name="Trazado 1284358" d="M19.453,148.5l9.534-.422Q33.01,99.537,37.037,51c-.087-.685-.169-1.366-.256-2.051q-12.3,1.5-24.6,2.988a237.875,237.875,0,0,0-.162,34.284c.537,7.873,1.269,12.739,3.378,29.266,1.752,13.741,3.125,25.1,4.059,33.008" transform="translate(29.894 127.5)" fill="#f96e58"/>
        <path id="Trazado_1284359" data-name="Trazado 1284359" d="M53.191,149.227l9.552-.908q-7.808-48.852-15.612-97.7-.368-.979-.735-1.954L23.071,56.289a87.207,87.207,0,0,0,3.251,33.8c2.476,8.132,5.241,12.789,12.245,27.262,4.034,8.327,9.08,19.1,14.624,31.872" transform="translate(58.996 126.755)" fill="#f96e58"/>
        <path id="Trazado_1284360" data-name="Trazado 1284360" d="M32.1,91.392a1.189,1.189,0,0,1-.054.292,5.465,5.465,0,0,1-.923,1.723H11.93a5.636,5.636,0,0,1-.49-2.015,3.9,3.9,0,0,1,.029-1.117,7.223,7.223,0,0,1,2.956-4.055c1.817-1.507,4.037-4.271,5.284-9.909,3.23.1,6.427.22,9.628.317a20.577,20.577,0,0,0,1.788,9.495c.461.948,1.572,3.01.977,5.27" transform="translate(29.721 198.76)" fill="#ffb758"/>
        <path id="Trazado_1284361" data-name="Trazado 1284361" d="M32.081,80.494a1.189,1.189,0,0,1-.054.292,5.465,5.465,0,0,1-.923,1.723H11.909a5.636,5.636,0,0,1-.49-2.015Z" transform="translate(29.742 209.658)" fill="#332b33"/>
        <path id="Trazado_1284362" data-name="Trazado 1284362" d="M22.593,13.424c-.4-.274-.793-.552-1.19-.825l.62-2.368c.515-.177,1.031-.35,1.546-.526A2.055,2.055,0,0,0,24,11.279c.227.245.425.288.472.472.072.27-.2.75-1.878,1.673" transform="translate(55.747 25.276)" fill="#f96e58"/>
        <path id="Trazado_1284363" data-name="Trazado 1284363" d="M24.1,11.769a2.93,2.93,0,0,1-3.316,2.365,2.829,2.829,0,0,1-1.748-3.615,2.93,2.93,0,0,1,3.316-2.365A2.832,2.832,0,0,1,24.1,11.769" transform="translate(49.274 21.067)" fill="#f96e58"/>
        <path id="Trazado_1284364" data-name="Trazado 1284364" d="M23.568,11.252A2.08,2.08,0,0,1,21.045,12.7a2.009,2.009,0,0,1-1.5-2.444,2.078,2.078,0,0,1,2.523-1.453,2.007,2.007,0,0,1,1.5,2.444" transform="translate(50.741 22.776)" fill="#f96e58"/>
        <path id="Trazado_1284365" data-name="Trazado 1284365" d="M21.979,26.991c1.027,2.512,2.015,5.057,3.042,7.57,1.554,3.925,3.147,7.815,4.74,11.74q.584,1.487,1.164,2.974,1.222,3.022,2.444,6.049c.6,1.449,1.164,2.934,1.8,4.419.353.919.707,1.806,1.1,2.725,1.2,3.042,2.44,6.049,3.644,9.087q7.478.692,14.959,1.381c-2.087-7.71-4.2-15.385-6.294-23.095q-3.558-12.9-7.04-25.856c-.249-.851-.458-1.734-.707-2.581-1.2-1.593-2.336-2.97-3.432-4.174-.425-.249-.847-.461-1.236-.674-3.925-1.943-6.121-2.156-7.429-1.59a1.858,1.858,0,0,0-.638.317c-2.083,1.629-1.308,6.013-5.587,11.073a6.425,6.425,0,0,1-.53.634" transform="translate(57.247 38.268)" fill="#f96e58"/>
        <path id="Trazado_1284366" data-name="Trazado 1284366" d="M57.145,19.42q3.6,2.444,7.177,4.891c-1.867,5.173-3.727,9.866-5.479,14.033-.88,2.094-1.737,4.044-2.534,5.854-.995,2.271-1.82,3.965-1.939,4.221-8.064,16.92-17.349,17.27-17.349,17.27-.278.011-5.519.148-8.536-3.659-2.4-3.039-2.574-7.541-.512-11.614A184.555,184.555,0,0,0,46.057,32.941c4.192-4.639,7.869-9.188,11.088-13.521" transform="translate(69.137 50.583)" fill="#f96e58"/>
        <path id="Trazado_1284367" data-name="Trazado 1284367" d="M38.42,83.733a8.143,8.143,0,0,1-1.9-.231,1.252,1.252,0,0,1-.952-1.1,4.446,4.446,0,0,1-1.9-2.66,3.693,3.693,0,0,1,.487-2.977,3.863,3.863,0,0,1,3.507-1.532A2.952,2.952,0,0,1,40.2,76.542a2.079,2.079,0,0,1,.162,1.5,2.125,2.125,0,0,1,.375.018c1.409.137,2.941,1.154,2.963,2.552.018,1.19-1.009,2.127-3.064,2.786a7.266,7.266,0,0,1-2.217.339m1.983-3.19a2.655,2.655,0,0,0-1.438.66,4.341,4.341,0,0,0,.908-.195,6.283,6.283,0,0,0,.966-.386,1.845,1.845,0,0,0-.342-.076l-.094,0m-3.01-2.819a2.068,2.068,0,0,0-.382.036,1.01,1.01,0,0,0-.908,1.388,1.892,1.892,0,0,0,.281.62c.1-.141.209-.278.31-.4a11.938,11.938,0,0,0,1.121-1.6,2,2,0,0,0-.422-.043" transform="translate(87.392 195.93)" fill="#332b33"/>
        <rect id="Rectángulo_468542" data-name="Rectángulo 468542" width="2.653" height="6.189" transform="translate(52.361 271.825)" fill="#332b33"/>
        <rect id="Rectángulo_468543" data-name="Rectángulo 468543" width="2.156" height="6.357" transform="matrix(0.769, -0.639, 0.639, 0.769, 108.899, 273.294)" fill="#332b33"/>
        <path id="Trazado_1284368" data-name="Trazado 1284368" d="M21.935,192.374q6.283-.687,12.569-1.37,4.055-33.474,8.11-66.945,1.325-36.254,2.653-72.507Q38.05,39.035,30.835,26.518A153.487,153.487,0,0,0,20.508,52.731a156.171,156.171,0,0,0-5.6,56.3,110.551,110.551,0,0,0,7.029,83.346" transform="translate(25.66 69.07)" fill="#7a4806"/>
        <path id="Trazado_1284369" data-name="Trazado 1284369" d="M55.449,191.531q6.78-1.487,13.561-2.977a282.635,282.635,0,0,0-7.083-58.806c-1.925-8.4-4.138-16.275-6.506-23.6A183.852,183.852,0,0,0,41.293,43.092a178.167,178.167,0,0,0-8-16.495Q26.242,38.974,19.186,51.346q6.456,31.209,12.908,62.421a99.727,99.727,0,0,0,.652,29.54,102.69,102.69,0,0,0,22.7,48.223" transform="translate(49.973 69.276)" fill="#7a4806"/>
        <path id="Trazado_1284370" data-name="Trazado 1284370" d="M20.82,42.151c-.411,6.056,2.347,11.077,5.674,11.982,4.037,1.1,10.735-3.378,11.91-11.982l4.044-15.345q-13.388-.146-26.775-.288,2.574,7.818,5.147,15.633" transform="translate(40.822 69.07)" fill="#7a4806"/>
        <path id="Trazado_1284371" data-name="Trazado 1284371" d="M50.04,47.06q-1.925,3.866-3.861,7.707c-5.515-.977-10.544-2.022-15.024-3.042-2.249-.515-4.354-1.035-6.3-1.51-2.448-.6-4.286-1.121-4.563-1.2C2.04,43.96.195,35.035.195,35.035a10.868,10.868,0,0,1,.843-6.607,10.493,10.493,0,0,0,1.182.36c5.22,1.247,10.14-1.936,12.393-3.641,5.991,4.412,12.674,8.932,20.071,13.377C39.961,41.7,45.1,44.529,50.04,47.06" transform="translate(0 65.499)" fill="#f96e58"/>
        <path id="Trazado_1284372" data-name="Trazado 1284372" d="M16.4,46.5q-2.6-2.314-5.187-4.625,1.276-5.191,2.559-10.385l9.044-1.806c1.8.537,3.579,1.074,5.375,1.615q6.191,3.763,5.8,4.654Q33.539,37,24.041,34.1A42.369,42.369,0,0,0,16.4,46.5" transform="translate(29.203 77.311)" fill="#f96e58"/>
        <path id="Trazado_1284373" data-name="Trazado 1284373" d="M19.35,11.157c1.979,1.521,3.925,3.078,5.872,4.563-.425-1.838-.674-3.432-.815-4.387-1.7-.036-3.36-.1-5.057-.177" transform="translate(50.4 29.061)" fill="#332b33"/>
        <path id="Trazado_1284374" data-name="Trazado 1284374" d="M24.154,26.3l.35.087A6.088,6.088,0,0,0,32,22.371l3.118-11.884a12.562,12.562,0,0,0-6.737-4.055,12.808,12.808,0,0,0-7.5.544L18.185,17.228c-1.035,3.943,1.64,8.009,5.969,9.076" transform="translate(46.785 15.907)" fill="#f96e58"/>
        <path id="Trazado_1284375" data-name="Trazado 1284375" d="M11.6,23.966q7,19.47,13.972,38.977c9.408.108,18.852.177,28.3.285.67-1.629,1.377-3.291,2.051-4.917s1.377-3.255,2.051-4.881C61.5,45.01,65.04,36.557,68.576,28.14c.144-.353.285-.674.425-1.027-.389-.53-.779-1.06-1.132-1.557-1.2-1.59-2.332-2.97-3.432-4.171-.317-.389-.634-.743-.952-1.063a42.23,42.23,0,0,0-22.46-7.213A43.333,43.333,0,0,0,12.413,23.259c-.353.317-.6.53-.815.707" transform="translate(30.209 34.113)" fill="#ffb758"/>
        <path id="Trazado_1284376" data-name="Trazado 1284376" d="M7.713,19.526c.991,6.366,1.947,12.7,2.97,19.065,2.44-1.7,4.917-3.4,7.357-5.093V32.33c-3.432-4.279-6.9-8.525-10.327-12.8" transform="translate(20.09 50.859)" fill="#332b33"/>
        <path id="Trazado_1284377" data-name="Trazado 1284377" d="M16.811,51.531,35.158,36.168Q29.351,25.944,23.541,15.719q-7.954,6.521-15.9,13.042,4.585,11.387,9.174,22.77" transform="translate(19.892 40.943)" fill="#ffb758"/>
        <path id="Trazado_1284378" data-name="Trazado 1284378" d="M25.139,29.925c.955,2.372,1.91,4.776,2.9,7.144,4.1-4.21,8.2-8.453,12.306-12.627-3.925,1.449-7.815,2.9-11.744,4.351-1.164.389-2.332.743-3.464,1.132" transform="translate(65.478 63.663)" fill="#332b33"/>
        <path id="Trazado_1284379" data-name="Trazado 1284379" d="M21.616,40.532c2.336,3.608,4.7,7.216,7.072,10.789.357.6.746,1.164,1.135,1.766,1.518,2.3,3.006,4.6,4.524,6.9.6-.425,1.168-.887,1.77-1.308,4.455-3.291,8.95-6.615,13.406-9.906,1.168-.847,2.332-1.734,3.5-2.581A60.92,60.92,0,0,0,47.4,29.321a59.153,59.153,0,0,0-4.491-7.429c-.389-.53-.779-1.06-1.132-1.557-1.2-1.59-2.336-2.97-3.432-4.174a13.982,13.982,0,0,0-.955-1.06,1.537,1.537,0,0,0-.281.389c-.389.6-.743,1.168-1.1,1.77-3.363,5.411-6.687,10.821-10.046,16.232-1.449,2.336-2.9,4.7-4.351,7.04" transform="translate(56.302 39.333)" fill="#ffb758"/>
        <path id="Trazado_1284380" data-name="Trazado 1284380" d="M44.167,124.522a.626.626,0,0,1-.544-.314A127.891,127.891,0,0,1,27.038,51.045a.6.6,0,0,1,.67-.577.625.625,0,0,1,.577.67,126.658,126.658,0,0,0,16.426,72.446.625.625,0,0,1-.234.854.607.607,0,0,1-.31.083" transform="translate(69.498 131.425)" fill="#e4e7eb"/>
        <path id="Trazado_1284381" data-name="Trazado 1284381" d="M40.368,111.822a.621.621,0,0,1-.613-.494L21.819,28.137a.625.625,0,1,1,1.222-.263l17.933,83.191a.622.622,0,0,1-.479.743.522.522,0,0,1-.126.014" transform="translate(56.794 71.323)" fill="#e4e7eb"/>
        <path id="Trazado_1284382" data-name="Trazado 1284382" d="M23.874,44.872a.627.627,0,0,1-.342-1.153A10.17,10.17,0,0,0,26.9,40.208a11.21,11.21,0,0,0,.62-8.986.625.625,0,1,1,1.179-.415,12.485,12.485,0,0,1-.714,10.021,11.391,11.391,0,0,1-3.77,3.943.628.628,0,0,1-.339.1" transform="translate(60.543 79.146)" fill="#e4e7eb"/>
        <path id="Trazado_1284383" data-name="Trazado 1284383" d="M21.366,25.708c-2.293,2-.281,5.248-2.675,8.831-1.665,2.494-3.6,2.361-5.432,3.99-4.848,4.315-4.466,16.978.887,21.22,9.329,7.4,35.113-7.054,35.516-17.241a16.991,16.991,0,0,0-1.734-8.4c-1.29-2.271-2.61-2.92-3.572-5.158a11.707,11.707,0,0,1-.3-7.588c-1.42-1.3-1.629-2.992-.959-3.76.483-.552,1.579-.469,1.846-.44.833.079,1.121.451,1.7.606,1.071.281,1.856-.5,3.378-1.345,3.165-1.752,4.545-1.024,5.6-2.577a4.088,4.088,0,0,0,.634-2.57c-.321-3.035-4.578-4.913-7.191-5.461-.357-.076-5.3-1.042-8.99,1.914-1.489,1.193-1.1,1.712-2.653,3.1-3.615,3.223-7,1.539-8.694,3.832-2.094,2.826,1.777,7.13-.3,9.43-1.683,1.874-4.791-.371-7.072,1.622" transform="translate(25.689 14.596)" fill="#332b33"/>
        <path id="Trazado_1284384" data-name="Trazado 1284384" d="M10.376,24.254l-1.247-.094c.281-3.8,1.575-6.989,3.551-8.745a9.831,9.831,0,0,1,2.339-1.474c.245-.123.5-.245.739-.378l.6,1.1c-.26.141-.523.27-.786.4a8.628,8.628,0,0,0-2.065,1.283c-1.73,1.543-2.876,4.423-3.132,7.9" transform="translate(23.778 35.327)" fill="#332b33"/>
        <path id="Trazado_1284385" data-name="Trazado 1284385" d="M13.048,18.646,11.84,18.3a11.7,11.7,0,0,0,.375-2.768c.09-1.586.169-3.082,1.518-4.253a5.37,5.37,0,0,1,4.279-1.006c.281.018.562.032.833.04l-.018,1.251c-.288,0-.588-.022-.89-.04-1.244-.076-2.415-.148-3.385.7-.944.822-1.006,1.95-1.081,3.378a13.7,13.7,0,0,1-.422,3.042" transform="translate(30.839 26.636)" fill="#332b33"/>
        <path id="Trazado_1284386" data-name="Trazado 1284386" d="M15.144,16.71a11.677,11.677,0,0,0-.447-2.267c-.469-1.8-1-3.846.238-5.522.944-1.269,2.3-1.507,3.731-1.759.393-.065.8-.141,1.222-.234l.278,1.222c-.443.1-.872.173-1.283.245-1.334.234-2.3.4-2.941,1.272-.883,1.193-.472,2.779-.032,4.459a12.828,12.828,0,0,1,.487,2.52Z" transform="translate(36.91 18.043)" fill="#332b33"/>
        <path id="Trazado_1284387" data-name="Trazado 1284387" d="M15.688,54.167A.638.638,0,0,1,15.262,54l-3.98-3.684a.624.624,0,0,1-.032-.887.636.636,0,0,1,.883-.032l3.98,3.684a.623.623,0,0,1,.036.883.632.632,0,0,1-.461.2" transform="translate(28.862 128.242)" fill="#e4e7eb"/>
        <path id="Trazado_1284388" data-name="Trazado 1284388" d="M20.764,10.494c-.227.119.076,2.278,1.283,2.566.739.173,1.611-.4,1.575-.7-.029-.26-.7-.169-1.575-.7-.9-.552-1.15-1.229-1.283-1.161" transform="translate(53.902 27.322)" fill="#fff"/>
      </g>
    </g>
  </g>
</svg>
