<svg xmlns="http://www.w3.org/2000/svg" xmlns:xlink="http://www.w3.org/1999/xlink" width="128" height="128" viewBox="0 0 128 128">
  <defs>
    <clipPath id="clip-path">
      <rect id="Rectángulo_456267" data-name="Rectángulo 456267" width="128" height="128" fill="none"/>
    </clipPath>
    <clipPath id="clip-path-2">
      <rect id="Rectángulo_467154" data-name="Rectángulo 467154" width="65.872" height="67.71" fill="#19538d"/>
    </clipPath>
  </defs>
  <g id="Grupo_1214045" data-name="Grupo 1214045" transform="translate(128 128) rotate(180)">
    <path id="Trazado_999622" data-name="Trazado 999622" d="M59.07,0A59.07,59.07,0,1,1,0,59.07,59.071,59.071,0,0,1,59.07,0" transform="translate(4.93 4.93)" fill="#fff"/>
    <g id="Grupo_1179902" data-name="Grupo 1179902">
      <g id="Grupo_1179905" data-name="Grupo 1179905" clip-path="url(#clip-path)">
        <path id="Trazado_999618" data-name="Trazado 999618" d="M64,0A64,64,0,1,1,0,64,64,64,0,0,1,64,0" fill="none"/>
        <path id="Trazado_999619" data-name="Trazado 999619" d="M5,0A5,5,0,1,1,0,5,5,5,0,0,1,5,0" transform="translate(0 59)" fill="#19538d"/>
        <path id="Trazado_999620" data-name="Trazado 999620" d="M5,0A5,5,0,1,1,0,5,5,5,0,0,1,5,0" transform="translate(16 19)" fill="#19538d"/>
        <path id="Trazado_999621" data-name="Trazado 999621" d="M60,120A60.068,60.068,0,0,1,0,60H3A57,57,0,1,0,18.408,21.024L16.22,18.972A60,60,0,1,1,60,120" transform="translate(4 4)" fill="#19538d"/>
        <rect id="Rectángulo_456268" data-name="Rectángulo 456268" width="128" height="128" fill="none"/>
        <rect id="Rectángulo_456269" data-name="Rectángulo 456269" width="128" height="128" fill="none"/>
      </g>
    </g>
    <g id="Grupo_1181027" data-name="Grupo 1181027" transform="translate(96.936 97.854) rotate(180)">
      <g id="Grupo_1181026" data-name="Grupo 1181026" transform="translate(0)" clip-path="url(#clip-path-2)">
        <path id="Trazado_1033325" data-name="Trazado 1033325" d="M48.211,67.706l-30.475,0a.921.921,0,0,1-.99-.93l0-3.664A4.263,4.263,0,0,1,20.914,58.9l5.191-.05-.034-2.721L3.954,56.116A3.9,3.9,0,0,1,0,52.206L.031,9.381A3.756,3.756,0,0,1,3.741,5.806l15.6-.041c1.572-1.387,3.072-3.267,4.108-2.226L25.39,5.482a15.647,15.647,0,0,1,3.37-1.44l.032-2.752a.957.957,0,0,1,.674-.965,18.975,18.975,0,0,1,6.779-.04.994.994,0,0,1,.832,1.05l.035,2.7a13.963,13.963,0,0,1,3.327,1.449L42.3,3.637c1.2-1.191,2.509.63,4.22,2.131l15.612.04a3.755,3.755,0,0,1,3.711,3.574l.031,42.825a3.9,3.9,0,0,1-3.955,3.909L39.8,56.135l-.034,2.723,5,.031A4.379,4.379,0,0,1,49.135,63.3l-.011,3.49a.89.89,0,0,1-.913.918M35.245,35.734V32.989c0-1.171,2.125-.88,4.966-2.67a.926.926,0,0,1,1.017.092l2.042,2a15.63,15.63,0,0,0,3.193-3.161l-1.706-1.721c-1.217-1.228.578-2.138,1.347-5.495a1.027,1.027,0,0,1,1.013-.859l2.711-.02a16.4,16.4,0,0,0,0-4.48l-2.68-.053c-1.378-.027-.926-2.031-2.553-4.6-.232-.366-.523-.988-.161-1.364l2.035-2.112a15.628,15.628,0,0,0-3.178-3.168L41.3,7.3a.949.949,0,0,1-1.18.114c-2.771-1.736-4.85-1.478-4.873-2.553l-.061-2.883a23.471,23.471,0,0,0-4.509,0l-.091,3.065c-.023.786-2.314.76-4.836,2.37A.957.957,0,0,1,24.567,7.3L22.561,5.4A14.122,14.122,0,0,0,19.4,8.575l2.036,2.084c.363.371.075.993-.159,1.362a12.426,12.426,0,0,0-1.522,3.766c-.329,1.325-1.878.617-3.72.91a16.873,16.873,0,0,0,.011,4.458l2.514,0a1.119,1.119,0,0,1,1.213.878c.734,3.32,2.578,4.253,1.348,5.493L19.41,29.249A15.684,15.684,0,0,0,22.6,32.415L24.416,30.6c1.06-1.056,2.019.679,5.423,1.471a.958.958,0,0,1,.788.916l.008,2.756a13.929,13.929,0,0,0,4.611-.012M60.859,10.053c.531,0,.78.567.78,1.009l0,39.85a.924.924,0,0,1-1.024.975H5.26a.928.928,0,0,1-1.028-.977l0-39.85a.971.971,0,0,1,1.03-1.041L18.148,10c-.316-.509-.768-.747-.85-1.068-.129-.509.136-.857.413-1.318L3.944,7.623A2.117,2.117,0,0,0,1.835,9.756L1.846,52.2a2.033,2.033,0,0,0,2.137,2.042H61.888A2.03,2.03,0,0,0,64.024,52.2l.022-42.241a2.126,2.126,0,0,0-1.932-2.313l-13.94-.022c.334.526.51.871.393,1.3-.086.316-.446.572-.825,1.029ZM37.024,36.771c-.02,1.277-5.008,1.154-7.493.723a.832.832,0,0,1-.7-.806l-.09-3a17.253,17.253,0,0,1-3.357-1.356l-2.1,2.02a.822.822,0,0,1-1.078.087c-1.972-1.376-5.756-4.889-4.748-5.92l2.051-2.1a15.867,15.867,0,0,1-1.388-3.35l-2.729-.021A1.068,1.068,0,0,1,14.282,22a20.715,20.715,0,0,1,.023-6.345.992.992,0,0,1,1.063-.91l2.734,0a24.838,24.838,0,0,1,1.1-2.9L6.079,11.85l.009,38.159H59.78l.008-38.159-13.13-.008a23.372,23.372,0,0,1,1.113,2.9l2.733,0a.994.994,0,0,1,1.06.915A20.682,20.682,0,0,1,51.586,22a1.071,1.071,0,0,1-1.1,1.041l-2.732.03a16.411,16.411,0,0,1-1.385,3.348l2.048,2.1c1,1.027-2.709,4.456-4.614,5.839a.969.969,0,0,1-1.352-.093l-2.048-1.931a19.329,19.329,0,0,1-3.337,1.434Zm.825,22.1.024-2.733-9.875,0,.051,2.738Zm9.41,6.958-.033-2.976a2.314,2.314,0,0,0-2.254-2.072l-24.071,0a2.359,2.359,0,0,0-2.277,2.249l.035,2.807Z" transform="translate(0 0)" fill="#19538d"/>
        <path id="Trazado_1033326" data-name="Trazado 1033326" d="M42.733,7.633H.912A.959.959,0,0,1,0,6.572L.019.858A.829.829,0,0,1,.888,0L42.7,0a.836.836,0,0,1,.869.858V6.773c0,.4-.24.722-.835.859m-1.06-1.874V1.847l-39.76,0V5.764Z" transform="translate(11.143 40.398)" fill="#19538d"/>
        <path id="Trazado_1033327" data-name="Trazado 1033327" d="M7.558.2A9.451,9.451,0,1,1,.2,11.372,9.429,9.429,0,0,1,7.558.2M9.03,1.876a7.595,7.595,0,1,0,8.008,7.03A7.564,7.564,0,0,0,9.03,1.876" transform="translate(23.481 9.438)" fill="#19538d"/>
        <path id="Trazado_1033328" data-name="Trazado 1033328" d="M1.882,2.5,0,2.483V0H1.873Z" transform="translate(14.955 42.953)" fill="#19538d"/>
        <path id="Trazado_1033329" data-name="Trazado 1033329" d="M1.874,2.475,0,2.484,0,0H1.866Z" transform="translate(18.753 42.954)" fill="#19538d"/>
        <path id="Trazado_1033330" data-name="Trazado 1033330" d="M1.859,2.479,0,2.487,0,.009,1.849,0Z" transform="translate(22.567 42.951)" fill="#19538d"/>
        <path id="Trazado_1033331" data-name="Trazado 1033331" d="M1.844,2.475,0,2.479,0,0,1.837,0Z" transform="translate(26.38 42.957)" fill="#19538d"/>
        <path id="Trazado_1033332" data-name="Trazado 1033332" d="M1.845,2.474,0,2.484,0,0,1.836,0Z" transform="translate(30.202 42.953)" fill="#19538d"/>
        <path id="Trazado_1033333" data-name="Trazado 1033333" d="M1.883,2.5,0,2.485,0,0H1.874Z" transform="translate(33.991 42.953)" fill="#19538d"/>
        <path id="Trazado_1033334" data-name="Trazado 1033334" d="M1.87,2.478,0,2.486,0,0,1.861,0Z" transform="translate(37.795 42.951)" fill="#19538d"/>
      </g>
    </g>
  </g>
</svg>
