<svg xmlns="http://www.w3.org/2000/svg" xmlns:xlink="http://www.w3.org/1999/xlink" width="66.683" height="69.323" viewBox="0 0 66.683 69.323">
  <defs>
    <clipPath id="clip-path">
      <rect id="Rectángulo_468460" data-name="Rectángulo 468460" width="45" height="45" transform="translate(0 0)" fill="#fff"/>
    </clipPath>
  </defs>
  <g id="Grupo_1214824" data-name="Grupo 1214824" transform="translate(-276 -1564)">
    <path id="Trazado_1282924" data-name="Trazado 1282924" d="M0,0H66.683V69.323H0Z" transform="translate(276 1564)" fill="#0f654d"/>
    <g id="Grupo_1214820" data-name="Grupo 1214820" transform="translate(287 1576)">
      <g id="Grupo_1214819" data-name="Grupo 1214819" transform="translate(0 0)" clip-path="url(#clip-path)">
        <path id="Trazado_1284202" data-name="Trazado 1284202" d="M2.45,72.916.019,57.161a1.487,1.487,0,0,1,1.418-1.782l13.708-.025a3.609,3.609,0,0,0,2.945-1.967l1.321-2.328a2.174,2.174,0,0,1,1.517-.777l22.5-.006a1.484,1.484,0,0,1,1.541,1.818L41.279,73.077a1.441,1.441,0,0,1-1.433,1.144H3.916a1.471,1.471,0,0,1-1.466-1.3M30.3,67.106a3.633,3.633,0,0,0,3.4-3.841A3.673,3.673,0,0,0,30.214,59.7L14.9,59.682a3.725,3.725,0,0,0-.133,7.439Z" transform="translate(0 -29.221)" fill="#fff"/>
        <path id="Trazado_1284203" data-name="Trazado 1284203" d="M32.268,19.6a3.693,3.693,0,0,0-3.376,2.143L27.826,23.7a2.413,2.413,0,0,1-1.88,1l-6.8.019V1.447A1.388,1.388,0,0,1,20.532,0L47.266,0a1.441,1.441,0,0,1,1.423,1.582V19.6ZM25.95,4.848c.385,0,.694-.584.625-.868a.85.85,0,0,0-.707-.582l-3.717-.007a.776.776,0,0,0-.8.723.866.866,0,0,0,.667.739Zm19.981,0c.434,0,.637-.758.515-.988a.967.967,0,0,0-.819-.464l-15.064,0a.75.75,0,0,0-.734.711.812.812,0,0,0,.719.747ZM31.088,10.532c.548,0,.9-.266.858-.8-.035-.421-.374-.636-.857-.635l-9.072.01a.791.791,0,0,0-.673.758.863.863,0,0,0,.671.662Zm14.559,0a.747.747,0,0,0,.827-.671.738.738,0,0,0-.693-.76l-9.346,0c-.435,0-.642.556-.555.9a.793.793,0,0,0,.831.524Zm-7.52,5.733a.876.876,0,0,0,.764-.757c.013-.232-.278-.714-.579-.714H21.935c-.351,0-.647.562-.579.814a1.043,1.043,0,0,0,.7.657Zm7.715-.026c.381,0,.711-.587.641-.859a.878.878,0,0,0-.7-.586l-3.036-.009a.8.8,0,0,0-.811.719c-.015.263.371.753.679.751Z" transform="translate(-11.127 0)" fill="#fff"/>
        <path id="Trazado_1284204" data-name="Trazado 1284204" d="M10.983,45.4l-3.372.03L7.629,37.8a2.229,2.229,0,0,1,2.186-2.143l1.163-.013Z" transform="translate(-4.422 -20.714)" fill="#fff"/>
        <path id="Trazado_1284205" data-name="Trazado 1284205" d="M95.967,40.3l-2.846.008,0-4.63a2.328,2.328,0,0,1,2.837,1.962Z" transform="translate(-54.106 -20.706)" fill="#fff"/>
        <path id="Trazado_1284206" data-name="Trazado 1284206" d="M47.661,80.744l-14.951,0a2.29,2.29,0,0,1-2.263-2.183,2.24,2.24,0,0,1,2-2.372l15.083-.032a2.3,2.3,0,0,1,2.4,2.155,2.266,2.266,0,0,1-2.269,2.429" transform="translate(-17.69 -44.265)" fill="#fff"/>
      </g>
    </g>
  </g>
</svg>
