<svg xmlns="http://www.w3.org/2000/svg" xmlns:xlink="http://www.w3.org/1999/xlink" width="85" height="85" viewBox="0 0 85 85">
  <defs>
    <clipPath id="clip-path">
      <rect id="Rectangle_468779" data-name="Rectangle 468779" width="63.737" height="53.405" transform="translate(0 0)" fill="#19538d"/>
    </clipPath>
  </defs>
  <g id="img35" transform="translate(-0.016)">
    <g id="Group_1180020" data-name="Group 1180020">
      <rect id="Rectangle_456333" data-name="Rectangle 456333" width="85" height="85" rx="10" transform="translate(0.016)" fill="#fff"/>
    </g>
    <g id="Group_1214914" data-name="Group 1214914" transform="translate(11.016 16.001)">
      <g id="Group_1214913" data-name="Group 1214913" transform="translate(0 -0.001)" clip-path="url(#clip-path)">
        <path id="Path_1284582" data-name="Path 1284582" d="M51.362,4.151l.019-2.074c.008-.9.69-2.024,1.689-2.024l2.828,0c.991,0,1.676,1.133,1.684,2.027L57.6,4.132l3.6.061a2.862,2.862,0,0,1,2.53,2.878l.008,43.062a3.066,3.066,0,0,1-2.97,3.272H2.97A3.065,3.065,0,0,1,0,50.133L.007,7.07a2.863,2.863,0,0,1,2.53-2.877l3.6-.061V2.253c0-.858.536-2.061,1.545-2.164A19.785,19.785,0,0,1,10.669.051,1.977,1.977,0,0,1,12.337,1.9l.037,2.246,4.075-.014.031-2.262A1.885,1.885,0,0,1,18.024.065c2.2-.1,4.538-.356,4.571,1.823l.035,2.253,18.44,0,.076-2.252A1.868,1.868,0,0,1,42.884.031L45.74.056a1.922,1.922,0,0,1,1.5,1.618l.053,2.459ZM10.29,2.047H8.217V8.194H10.29Zm10.281,0H18.522V8.194h2.049Zm24.646,0h-2.05l0,6.146h2.05Zm10.3,0H53.447V8.194H55.52ZM42.8,10.19a1.943,1.943,0,0,1-1.67-2.016L41.11,6.143H22.627l-.015,2.025a1.987,1.987,0,0,1-1.759,2.044l-2.3.046a1.984,1.984,0,0,1-2.043-1.73l-.07-2.383-4.073,0-.01,2.023a2.045,2.045,0,0,1-1.69,2.035,20.579,20.579,0,0,1-2.828,0A2.051,2.051,0,0,1,6.155,8.161L6.14,6.143l-3-.01A1.134,1.134,0,0,0,2.051,7.211l0,5.084H61.682l0-5.089a1.169,1.169,0,0,0-1.079-1.076L57.6,6.144,57.58,8.163a2.038,2.038,0,0,1-1.53,2,12.668,12.668,0,0,1-3.132,0,2.029,2.029,0,0,1-1.537-2L51.371,6.14l-4.073,0-.071,2.383a1.976,1.976,0,0,1-2.044,1.732Zm18.889,4.172H2.053v37H61.684Z" transform="translate(0 0.001)" fill="#19538d"/>
        <path id="Path_1284583" data-name="Path 1284583" d="M82.662,120.983l-.041-4.953-38.97,0-.023-2.066,12.617-.041a11.3,11.3,0,1,0-11.427-13.338l3.879.042-5.1,6.786-5.074-6.782,4.229-.045a13.359,13.359,0,0,1,22.186-7.834,9.245,9.245,0,0,1,17.653,2.677l4.128.058L81.63,102.3l-5.087-6.8,3.979-.061A7.223,7.223,0,0,0,74.007,89.3a7.144,7.144,0,0,0-7.484,5.2,13.38,13.38,0,0,1-3.459,19.446l19.561.026.025-5.058,9.063,6.044ZM82.6,97.5l-1.958.023,1.006,1.33ZM44.6,102.671l-1.973-.013.973,1.335Zm43.385,12.3-3.27-2.189,0,4.375Z" transform="translate(-31.259 -70.787)" fill="#19538d"/>
        <rect id="Rectangle_468774" data-name="Rectangle 468774" width="2.042" height="2.083" transform="translate(4.102 16.429)" fill="#19538d"/>
        <rect id="Rectangle_468775" data-name="Rectangle 468775" width="2.046" height="2.077" transform="translate(4.097 20.56) rotate(-0.135)" fill="#19538d"/>
        <rect id="Rectangle_468776" data-name="Rectangle 468776" width="2.046" height="2.08" transform="translate(4.097 43.169) rotate(-0.135)" fill="#19538d"/>
        <rect id="Rectangle_468777" data-name="Rectangle 468777" width="2.073" height="2.083" transform="translate(8.217 43.162)" fill="#19538d"/>
        <rect id="Rectangle_468778" data-name="Rectangle 468778" width="2.046" height="2.1" transform="translate(4.098 24.655)" fill="#19538d"/>
      </g>
    </g>
  </g>
</svg>
