<svg xmlns="http://www.w3.org/2000/svg" xmlns:xlink="http://www.w3.org/1999/xlink" width="150" height="150" viewBox="0 0 150 150">
  <defs>
    <clipPath id="clip-path">
      <rect id="Rectángulo_456267" data-name="Rectángulo 456267" width="150" height="150" fill="none"/>
    </clipPath>
    <clipPath id="clip-path-2">
      <rect id="Rectángulo_467924" data-name="Rectángulo 467924" width="78.992" height="79" fill="#19538d"/>
    </clipPath>
  </defs>
  <g id="Grupo_1181053" data-name="Grupo 1181053" transform="translate(533.746 8549) rotate(180)">
    <path id="Trazado_999622" data-name="Trazado 999622" d="M70.07,0A70.07,70.07,0,1,1,0,70.07,70.071,70.071,0,0,1,70.07,0" transform="translate(388.865 8403.859)" fill="#e1f5ff"/>
    <g id="Grupo_1179902" data-name="Grupo 1179902" transform="translate(383.746 8399)">
      <g id="Grupo_1179905" data-name="Grupo 1179905" clip-path="url(#clip-path)">
        <path id="Trazado_999618" data-name="Trazado 999618" d="M75,0A75,75,0,1,1,0,75,75,75,0,0,1,75,0" fill="none"/>
        <path id="Trazado_999619" data-name="Trazado 999619" d="M5.859,59A5.859,5.859,0,1,1,0,64.859,5.86,5.86,0,0,1,5.859,59" transform="translate(0 10.141)" fill="#19538d"/>
        <path id="Trazado_999620" data-name="Trazado 999620" d="M21.859,19A5.859,5.859,0,1,1,16,24.859,5.86,5.86,0,0,1,21.859,19" transform="translate(2.75 3.266)" fill="#19538d"/>
        <path id="Trazado_999621" data-name="Trazado 999621" d="M74.313,144.625A70.392,70.392,0,0,1,4,74.313H7.516A66.8,66.8,0,1,0,25.572,28.638l-2.564-2.4a70.312,70.312,0,1,1,51.3,118.392" transform="translate(0.688 0.688)" fill="#19538d"/>
        <rect id="Rectángulo_456268" data-name="Rectángulo 456268" width="150" height="150" fill="none"/>
        <rect id="Rectángulo_456269" data-name="Rectángulo 456269" width="150" height="150" fill="none"/>
      </g>
    </g>
    <g id="Grupo_1214620" data-name="Grupo 1214620" transform="translate(496.006 8512) rotate(180)">
      <g id="Grupo_1214619" data-name="Grupo 1214619" transform="translate(0 0)" clip-path="url(#clip-path-2)">
        <path id="Trazado_1283025" data-name="Trazado 1283025" d="M3.987,63.69A3.762,3.762,0,0,1,0,60.083V8.644A3.762,3.762,0,0,1,3.468,5.1l47.042-.03A16.554,16.554,0,1,1,65,32.9l-.024,13.161A16.564,16.564,0,1,1,45.925,63.69ZM76.433,16.559a14.009,14.009,0,1,0-14.01,14.008,14.01,14.01,0,0,0,14.01-14.008M45.907,15.32a16.79,16.79,0,0,1,2.593-7.7l-44.8,0A1.407,1.407,0,0,0,2.52,8.995l.008,6.33ZM37.681,49.069a16.547,16.547,0,1,1,0-19.154l9.93-5.951a18.376,18.376,0,0,1-1.7-6.085l-43.38,0,0,41.984a1.275,1.275,0,0,0,1.359,1.272l42.016,0a18.333,18.333,0,0,1,1.705-6.109Zm.529-9.575A14.01,14.01,0,1,0,24.2,53.5a14.01,14.01,0,0,0,14.01-14.01m24.222,6.391.014-12.778a16.452,16.452,0,0,1-13.5-6.971L39.005,32.1a16.447,16.447,0,0,1,0,14.791l9.937,5.962a16.4,16.4,0,0,1,13.49-6.964m14,16.542a14.009,14.009,0,1,0-14.01,14.01,14.01,14.01,0,0,0,14.01-14.01" transform="translate(0 -0.001)" fill="#19538d"/>
        <rect id="Rectángulo_467918" data-name="Rectángulo 467918" width="18.079" height="2.617" transform="translate(21.651 48.277) rotate(-81.914)" fill="#19538d"/>
        <path id="Trazado_1283026" data-name="Trazado 1283026" d="M16.3,31.226l-1.833,1.807L8.444,27.017l6.018-6.011L16.3,22.8l-4.2,4.212Z" transform="translate(5.013 12.47)" fill="#19538d"/>
        <path id="Trazado_1283027" data-name="Trazado 1283027" d="M17.036,31.2l4.153-4.18-4.147-4.2,1.791-1.793,5.983,5.979-5.981,5.986Z" transform="translate(10.114 12.482)" fill="#19538d"/>
        <path id="Trazado_1283028" data-name="Trazado 1283028" d="M44.421,45.741a3.827,3.827,0,0,1-3.638,3.908,3.749,3.749,0,0,1-3.994-3.608l-.022-7.909a3.777,3.777,0,0,1,3.591-3.74,3.706,3.706,0,0,1,4.018,3.5Zm-2.574.231-.019-8.085c0-.62-.971-1.045-1.476-.947a1.566,1.566,0,0,0-1.061,1.176l.018,7.943c0,.481.849,1.053,1.27,1.065a1.351,1.351,0,0,0,1.269-1.152" transform="translate(21.828 20.412)" fill="#19538d"/>
        <path id="Trazado_1283029" data-name="Trazado 1283029" d="M45.764,49.641,45.7,37.951c0-.963-1.485-1.264-2.451-.857L43.165,34.4a5.308,5.308,0,0,1,3.7.813A4.257,4.257,0,0,1,48.3,38.577l-.013,11.036Z" transform="translate(25.626 20.409)" fill="#19538d"/>
        <path id="Trazado_1283030" data-name="Trazado 1283030" d="M34.524,49.667l-.083-11.994c0-.69-1.555-.9-2.36-.607l-.108-2.553c2.1-.59,4.979.666,5,3.151l.091,11.951Z" transform="translate(18.982 20.403)" fill="#19538d"/>
        <rect id="Rectángulo_467919" data-name="Rectángulo 467919" width="2.531" height="2.587" transform="translate(5.068 10.169)" fill="#19538d"/>
        <rect id="Rectángulo_467920" data-name="Rectángulo 467920" width="2.571" height="2.587" transform="translate(10.168 10.169)" fill="#19538d"/>
        <rect id="Rectángulo_467921" data-name="Rectángulo 467921" width="2.551" height="2.587" transform="translate(15.309 10.169)" fill="#19538d"/>
        <path id="Trazado_1283031" data-name="Trazado 1283031" d="M33.568,4.779l17.892,0,0,17.927-17.891,0ZM48.886,7.332H36.111v12.82H48.886Z" transform="translate(19.927 2.837)" fill="#19538d"/>
        <rect id="Rectángulo_467922" data-name="Rectángulo 467922" width="7.662" height="2.583" transform="translate(58.58 12.74)" fill="#19538d"/>
        <rect id="Rectángulo_467923" data-name="Rectángulo 467923" width="7.667" height="2.572" transform="translate(58.574 17.862)" fill="#19538d"/>
      </g>
    </g>
  </g>
</svg>
