<svg xmlns="http://www.w3.org/2000/svg" xmlns:xlink="http://www.w3.org/1999/xlink" width="128" height="128" viewBox="0 0 128 128">
  <defs>
    <clipPath id="clip-path">
      <rect id="Rectángulo_456267" data-name="Rectángulo 456267" width="128" height="128" fill="none"/>
    </clipPath>
    <clipPath id="clip-path-2">
      <rect id="Rectángulo_468422" data-name="Rectángulo 468422" width="57.27" height="57.267" fill="#19538d"/>
    </clipPath>
  </defs>
  <g id="Grupo_1214044" data-name="Grupo 1214044" transform="translate(128 128) rotate(180)">
    <path id="Trazado_999622" data-name="Trazado 999622" d="M59.07,0A59.07,59.07,0,1,1,0,59.07,59.071,59.071,0,0,1,59.07,0" transform="translate(4.93 4.93)" fill="#fff"/>
    <g id="Grupo_1179902" data-name="Grupo 1179902">
      <g id="Grupo_1179905" data-name="Grupo 1179905" clip-path="url(#clip-path)">
        <path id="Trazado_999618" data-name="Trazado 999618" d="M64,0A64,64,0,1,1,0,64,64,64,0,0,1,64,0" fill="none"/>
        <path id="Trazado_999619" data-name="Trazado 999619" d="M5,0A5,5,0,1,1,0,5,5,5,0,0,1,5,0" transform="translate(0 59)" fill="#19538d"/>
        <path id="Trazado_999620" data-name="Trazado 999620" d="M5,0A5,5,0,1,1,0,5,5,5,0,0,1,5,0" transform="translate(16 19)" fill="#19538d"/>
        <path id="Trazado_999621" data-name="Trazado 999621" d="M60,120A60.068,60.068,0,0,1,0,60H3A57,57,0,1,0,18.408,21.024L16.22,18.972A60,60,0,1,1,60,120" transform="translate(4 4)" fill="#19538d"/>
        <rect id="Rectángulo_456268" data-name="Rectángulo 456268" width="128" height="128" fill="none"/>
        <rect id="Rectángulo_456269" data-name="Rectángulo 456269" width="128" height="128" fill="none"/>
      </g>
    </g>
    <g id="Grupo_1214757" data-name="Grupo 1214757" transform="translate(93.27 91.772) rotate(180)">
      <g id="Grupo_1214756" data-name="Grupo 1214756" clip-path="url(#clip-path-2)">
        <path id="Trazado_1284073" data-name="Trazado 1284073" d="M56,57.267l-27.631,0c-.638,0-1.093-.829-1.094-1.312l-.009-4.111-3.986.011a1.481,1.481,0,0,1-1.49-1.549l.006-9.376H12.4A1.43,1.43,0,0,1,10.9,39.6V30.008l-9.559,0A1.358,1.358,0,0,1,0,28.518V1.335A1.25,1.25,0,0,1,1.161.006L20.462,0A1.276,1.276,0,0,1,21.8,1.314V10.9l9.564,0a1.328,1.328,0,0,1,1.354,1.3l0,9.595h9.531a1.376,1.376,0,0,1,1.391,1.487v12.18l12.308.01A1.286,1.286,0,0,1,57.269,36.8V55.923A1.265,1.265,0,0,1,56,57.267M19.079,2.687,2.7,2.69V5.436l16.378,0Zm-6.6,8.2h6.6l-.01-2.735H2.7l0,19.124,8.2-.015V12.208c0-.871.71-1.319,1.568-1.319M30,13.626H13.637v2.719H30Zm-6.8,8.167,6.8,0,0-2.715-16.355-.01,0,19.116,8.161-.007,0-14.892a1.4,1.4,0,0,1,1.4-1.489M40.93,24.547H24.558v2.725H40.93ZM28.44,35.461l12.49.006,0-5.451L24.557,30.01l0,19.125,2.715.007,0-12.339a1.368,1.368,0,0,1,1.161-1.343M30,54.6H54.572V38.18H30Z" transform="translate(0 0)" fill="#19538d"/>
        <path id="Trazado_1284074" data-name="Trazado 1284074" d="M166.067,27.413a1.521,1.521,0,0,1-2.262.146l-2.6-2.634a1.361,1.361,0,0,1,.007-2c.641-.573,1.471-.458,2.272.32L163.5,17.1l-9.5,0a1.4,1.4,0,0,1-1.409-1.213,1.373,1.373,0,0,1,1.253-1.52l11.156,0c.462,0,1.194.6,1.2,1.037l.02,7.928a1.613,1.613,0,0,1,2.108-.563,1.363,1.363,0,0,1,.215,2.144Z" transform="translate(-123.944 -11.671)" fill="#19538d"/>
        <path id="Trazado_1284075" data-name="Trazado 1284075" d="M249.536,228.439a1.384,1.384,0,1,1-2-1.9l3.059-3.054-3.069-3.074a1.375,1.375,0,0,1-.067-1.931,1.394,1.394,0,0,1,1.922-.112l4.154,4.135a1.549,1.549,0,0,1,.167,1.748Z" transform="translate(-200.717 -177.108)" fill="#19538d"/>
        <path id="Trazado_1284076" data-name="Trazado 1284076" d="M173.6,226.729a1.363,1.363,0,0,1-2.113,1.723l-3.856-3.852a1.4,1.4,0,0,1-.252-1.945l4.114-4.139a1.429,1.429,0,0,1,1.946-.155,1.368,1.368,0,0,1,.073,1.983l-3.141,3.141Z" transform="translate(-135.721 -177.123)" fill="#19538d"/>
        <path id="Trazado_1284077" data-name="Trazado 1284077" d="M213.221,235.274a1.368,1.368,0,0,1-2.235-1.575l2.7-4.074a1.4,1.4,0,0,1,1.781-.464,1.315,1.315,0,0,1,.631,1.754Z" transform="translate(-171.205 -186.039)" fill="#19538d"/>
      </g>
    </g>
  </g>
</svg>
