<svg xmlns="http://www.w3.org/2000/svg" xmlns:xlink="http://www.w3.org/1999/xlink" width="128" height="128" viewBox="0 0 128 128">
  <defs>
    <clipPath id="clip-path">
      <rect id="Rectángulo_456267" data-name="Rectángulo 456267" width="128" height="128" fill="none"/>
    </clipPath>
    <clipPath id="clip-path-2">
      <rect id="Rectángulo_468421" data-name="Rectángulo 468421" width="65" height="58.948" fill="#19538d"/>
    </clipPath>
  </defs>
  <g id="Grupo_1214048" data-name="Grupo 1214048" transform="translate(128.18 127.637) rotate(180)">
    <path id="Trazado_999622" data-name="Trazado 999622" d="M59.07,0A59.07,59.07,0,1,1,0,59.07,59.071,59.071,0,0,1,59.07,0" transform="translate(4.93 4.93)" fill="#fff"/>
    <g id="Grupo_1179902" data-name="Grupo 1179902" transform="translate(0.18 -0.363)">
      <g id="Grupo_1179905" data-name="Grupo 1179905" clip-path="url(#clip-path)">
        <path id="Trazado_999618" data-name="Trazado 999618" d="M64,0A64,64,0,1,1,0,64,64,64,0,0,1,64,0" fill="none"/>
        <path id="Trazado_999619" data-name="Trazado 999619" d="M5,0A5,5,0,1,1,0,5,5,5,0,0,1,5,0" transform="translate(0 59)" fill="#19538d"/>
        <path id="Trazado_999620" data-name="Trazado 999620" d="M5,0A5,5,0,1,1,0,5,5,5,0,0,1,5,0" transform="translate(16 19)" fill="#19538d"/>
        <path id="Trazado_999621" data-name="Trazado 999621" d="M60,120A60.068,60.068,0,0,1,0,60H3A57,57,0,1,0,18.408,21.024L16.22,18.972A60,60,0,1,1,60,120" transform="translate(4 4)" fill="#19538d"/>
        <rect id="Rectángulo_456268" data-name="Rectángulo 456268" width="128" height="128" fill="none"/>
        <rect id="Rectángulo_456269" data-name="Rectángulo 456269" width="128" height="128" fill="none"/>
      </g>
    </g>
    <g id="Grupo_1214755" data-name="Grupo 1214755" transform="translate(96.18 93.636) rotate(180)">
      <g id="Grupo_1214754" data-name="Grupo 1214754" clip-path="url(#clip-path-2)">
        <path id="Trazado_1284069" data-name="Trazado 1284069" d="M16.424,55.952a1.475,1.475,0,0,1-1.094-.435,1.563,1.563,0,0,1-.159-1.165l3.538-6.085L4.371,48.224A4.4,4.4,0,0,1,0,43.8L.027,4.115A4.344,4.344,0,0,1,4.51,0H60.484a4.343,4.343,0,0,1,4.482,4.117L65,43.965l-.145,1.185a11.9,11.9,0,0,1-19.644,10.8ZM62.663,39.917l.01-35.659A2.153,2.153,0,0,0,60.326,2.29H4.665A2.117,2.117,0,0,0,2.328,4.256L2.322,40.537l40.892,0a11.878,11.878,0,0,1,9.565-5.321,12.162,12.162,0,0,1,9.884,4.705m.016,7.157a9.567,9.567,0,1,0-9.567,9.567,9.567,9.567,0,0,0,9.567-9.567M41.246,45.908l.727-3.047-39.509.007c-.5.972.138,3.016,1.625,3.017Zm1.92,7.725a13.177,13.177,0,0,1-1.878-5.383l-19.91,0-3.105,5.38Z" transform="translate(0)" fill="#19538d"/>
        <path id="Trazado_1284070" data-name="Trazado 1284070" d="M110.446,64.2l-4.54.006a1.293,1.293,0,0,1-1.228-1.419l0-1.11L101.827,60.5l-.948.9a1.262,1.262,0,0,1-1.742,0L95.943,58.2a1.238,1.238,0,0,1,.023-1.722l.891-.945-1.184-2.871-1.315-.014a1.222,1.222,0,0,1-1.2-1.205l0-4.554a1.238,1.238,0,0,1,1.392-1.212l1.108,0,1.209-2.855-.943-.963a1.262,1.262,0,0,1-.068-1.609l3.391-3.382c.583-.581,1.441-.1,1.894.337l.691.661,2.8-1.179.038-1.143c.023-.689.365-1.359,1.142-1.36l4.735-.009a1.24,1.24,0,0,1,1.081.966l.044,1.525,2.818,1.2.7-.642c.549-.507,1.4-.88,2.006-.271l3.2,3.191a1.251,1.251,0,0,1,.011,1.726l-.926.954,1.17,2.792,1.126.073c.775.05,1.408.393,1.409,1.206l.006,4.554a1.231,1.231,0,0,1-1.2,1.208l-1.317.01L119.5,55.537l.891.945a1.234,1.234,0,0,1,.02,1.723L117.324,61.3a1.349,1.349,0,0,1-2.07-.092l-.722-.7-2.789,1.14-.072,1.126c-.048.748-.4,1.431-1.224,1.432m3.887-6.255c.735-.4,1.451.373,1.984,1.02L118,57.263c-2.49-1.631-.17-2.328.59-5.946a1.221,1.221,0,0,1,1.293-.971l1.035-.034-.053-2.369c-.844.2-1.923.163-2.149-.631a21.083,21.083,0,0,0-1.777-4.295c-.369-.688.3-1.432,1.032-1.928a20.329,20.329,0,0,0-1.717-1.71c-.429.644-1.175,1.382-1.774,1.077a27.809,27.809,0,0,0-4.575-1.886c-.67-.208-.641-1.377-.513-2.087l-2.439-.005c.142.834.169,1.923-.629,2.152a20.863,20.863,0,0,0-4.293,1.774c-.773.419-1.445-.369-1.995-1.039l-1.663,1.719c.747.5,1.4,1.248,1.035,1.931a24.266,24.266,0,0,0-1.836,4.417c-.214.68-1.336.672-2.1.53l0,2.447c.734-.109,1.887-.178,2.091.481A22.937,22.937,0,0,0,99.4,55.315c.42.764-.345,1.455-1.056,2.009l1.753,1.657c.562-.88,1.318-1.407,2.058-.981a20.424,20.424,0,0,0,4.295,1.776c.652.2.63,1.347.514,2.093l2.419-.009c-.46-2.76,1-1.771,4.95-3.911" transform="translate(-75.68 -27.763)" fill="#19538d"/>
        <path id="Trazado_1284071" data-name="Trazado 1284071" d="M239,224.1a2.7,2.7,0,0,1,.592-3.91,2.781,2.781,0,0,1,3.8.745l1.214,1.494,5.652-5.6a2.7,2.7,0,0,1,3.617,4.006l-7.676,7.669a2.716,2.716,0,0,1-4.1-.459Zm1.9-1.279,3.436,4.265,7.919-7.9c.051-.116.069-.614-.072-.59l-.6.1-6.1,6.113a1.181,1.181,0,0,1-1.833.144l-2.214-2.765c-.121-.151-.674-.166-.693,0a1.218,1.218,0,0,0,.156.63" transform="translate(-193.674 -175.655)" fill="#19538d"/>
        <path id="Trazado_1284072" data-name="Trazado 1284072" d="M145.345,77.941a8.358,8.358,0,1,1-8.358-8.358,8.358,8.358,0,0,1,8.358,8.358m-2.3.007A6.054,6.054,0,1,0,136.987,84a6.054,6.054,0,0,0,6.054-6.054" transform="translate(-104.491 -56.525)" fill="#19538d"/>
      </g>
    </g>
  </g>
</svg>
