<svg xmlns="http://www.w3.org/2000/svg" width="66.683" height="69.323" viewBox="0 0 66.683 69.323">
  <g id="img6" transform="translate(-1013 -1565.709)">
    <g id="img6-2" data-name="img6">
      <rect id="Rectangle_467761" data-name="Rectangle 467761" width="66.683" height="69.323" transform="translate(1013 1565.709)" fill="#19538d"/>
    </g>
    <g id="Group_1214473" data-name="Group 1214473" transform="translate(1021 1574.052)">
      <path id="Path_1032128" data-name="Path 1032128" d="M41.709,29.431l.006-3.118,2.965,0-.012,7.723-2.931.034-.029,3.049-5.95.041-.013-3.1-8.928-.007-.049,3.1-5.9.005-.014-4.629-2.984,0V26.319H32.755l.03,3.113ZM14.88,0l0,13.928,8.957.009-.011,3.09-2.966.028.011,3.037,2.968.072-.024,3.047-8.934,0,0,9.331L0,32.526V46.443l8.919,0,0,3.061-2.963.054.016,3.076,8.91,0,0-3.111-2.967-.014.019-3.063,8.922-.014.011-6.182,5.927.009.018,3.1,8.931-.021.017-3.083,5.934-.016.021,3.112h8.921V34.06l-2.989-.014,0-10.836H41.724L41.7,20.126l-8.917,0-.027,3.083L26.794,23.2l.012-3.069,2.955-.04.01-3.036L26.8,17.027l.013-3.1,8.936.013V0Z" transform="translate(0 -0.001)" fill="#fff"/>
      <path id="Path_1032129" data-name="Path 1032129" d="M13.163,54.67,14.8,57.255,9.517,60.9l-5.3-3.668L5.85,54.672l2.163,1.4,0-18.358,7.439-.021v3.058l-4.436.019.012,15.3Z" transform="translate(-3.553 -31.495)" fill="#fff"/>
    </g>
  </g>
</svg>
