<svg xmlns="http://www.w3.org/2000/svg" xmlns:xlink="http://www.w3.org/1999/xlink" width="66.683" height="69.323" viewBox="0 0 66.683 69.323">
  <defs>
    <clipPath id="clip-path">
      <rect id="Rectangle_468467" data-name="Rectangle 468467" width="45" height="49.381" fill="#fff"/>
    </clipPath>
  </defs>
  <g id="img7" transform="translate(-1258 -1566)">
    <rect id="Rectangle_467763" data-name="Rectangle 467763" width="66.683" height="69.323" transform="translate(1258 1566)" fill="#0f654d"/>
    <g id="Group_1214829" data-name="Group 1214829" transform="translate(1269 1576)">
      <g id="Group_1214828" data-name="Group 1214828" clip-path="url(#clip-path)">
        <path id="Path_1284214" data-name="Path 1284214" d="M20.007,5,24.3,4.98V31.913L0,31.909V0L19.322,0l-.011,4.226a.849.849,0,0,0,.7.771M7.314,10.009a.736.736,0,0,0,.653-.668l0-3.582c-.074-.234-.435-.587-.66-.587H3.9a.82.82,0,0,0-.788.763l0,3.406c0,.317.457.672.768.672Zm9.47-2.9a.756.756,0,0,0,.7-.746c-.022-.214-.377-.624-.616-.624H9.96a.809.809,0,0,0-.673.762.9.9,0,0,0,.669.607Zm4.988,2.331a.838.838,0,0,0,.666-.693.888.888,0,0,0-.674-.7l-11.784,0a.8.8,0,0,0-.707.7.769.769,0,0,0,.705.7ZM7.306,18.723c.311,0,.668-.457.667-.768L7.966,14.52a.78.78,0,0,0-.659-.626H3.885c-.321,0-.769.3-.769.64l-.006,3.406a.861.861,0,0,0,.786.788Zm14.467-2.889a.837.837,0,0,0,.657-.707.893.893,0,0,0-.668-.7l-11.781,0a.783.783,0,0,0-.705.7.821.821,0,0,0,.706.712Zm.119,2.333a.9.9,0,0,0,.505-.938.905.905,0,0,0-.768-.436H10.137c-.5,0-.84.242-.848.734a.767.767,0,0,0,.742.644ZM7.362,27.431a.9.9,0,0,0,.608-.7V23.3a.774.774,0,0,0-.695-.716L3.9,22.578a.8.8,0,0,0-.789.737l-.008,3.4a.9.9,0,0,0,.813.712Zm14.49-2.912a.989.989,0,0,0,.584-.764.858.858,0,0,0-.645-.594l-11.96.008c-.255,0-.575.513-.554.742a.77.77,0,0,0,.694.6Zm-.221,2.339a.9.9,0,0,0,.795-.561c.062-.234-.281-.838-.546-.839L10,25.445a.828.828,0,0,0-.725.682.8.8,0,0,0,.7.728Z" transform="translate(0 0.001)" fill="#fff"/>
        <path id="Path_1284215" data-name="Path 1284215" d="M135.481,123.127l-24.3.006V109.928l7.26-.009a.663.663,0,0,0,.7-.667l0-18.023,11.355,0-.008,4.349a.9.9,0,0,0,.666.637l4.327.012Zm-7.635-24.784c.521,0,.867-.269.807-.8a.794.794,0,0,0-.8-.579l-6.739.006a.8.8,0,0,0-.664.734.875.875,0,0,0,.655.635Zm-7.385,2.326H133.6V99.3H120.461ZM133,107.061c.412,0,.682-.646.588-.879a.977.977,0,0,0-.7-.516h-11.7a.8.8,0,0,0-.743.65.851.851,0,0,0,.687.751Zm-.092,2.32a.773.773,0,0,0,.706-.675.791.791,0,0,0-.68-.717h-11.8a.793.793,0,0,0-.689.716.78.78,0,0,0,.713.675Zm-14.455,9.29a.886.886,0,0,0,.688-.754l0-3.433a.8.8,0,0,0-.72-.693l-3.334,0a.843.843,0,0,0-.808.863l.007,3.25a.935.935,0,0,0,.759.763Zm14.461-2.892a.809.809,0,0,0,.7-.693.774.774,0,0,0-.675-.717H121.13a.778.778,0,0,0-.683.717.851.851,0,0,0,.706.693Zm.088,2.317c.359-.166.637-.516.605-.773a.927.927,0,0,0-.67-.617l-11.653,0a.7.7,0,1,0-.158,1.382Z" transform="translate(-93.453 -76.678)" fill="#fff"/>
        <path id="Path_1284216" data-name="Path 1284216" d="M129.845,140.14l21.956,0c.554,0,.75-.4.75-.906V110.974l-.981-1.133,2.569,0,0,31.858-24.237,0Z" transform="translate(-109.139 -92.325)" fill="#fff"/>
        <path id="Path_1284217" data-name="Path 1284217" d="M176.778,29.854l-2.32-2.3a.938.938,0,0,1,.029-.908.84.84,0,0,1,.91-.075l1.03.978-.011-1.305a2.542,2.542,0,0,0-2.678-2.416l-2.595.021a.764.764,0,0,1-.814-.72.777.777,0,0,1,.816-.705l2.736.037c2.628.036,4.285,2.3,3.954,5.042l1.05-.931a.811.811,0,0,1,.888.09.855.855,0,0,1-.014.955l-2,2.01c-.184.185-.787.424-.985.228" transform="translate(-143.168 -18.848)" fill="#fff"/>
        <path id="Path_1284218" data-name="Path 1284218" d="M243.51,100.1l-2.634.058.039-2.651Z" transform="translate(-202.465 -81.955)" fill="#fff"/>
        <path id="Path_1284219" data-name="Path 1284219" d="M132.362,8.812l-2.573.054.028-2.611Z" transform="translate(-109.093 -5.257)" fill="#fff"/>
        <rect id="Rectangle_468463" data-name="Rectangle 468463" width="2.069" height="2.07" transform="translate(4.519 23.973)" fill="#fff"/>
        <rect id="Rectangle_468464" data-name="Rectangle 468464" width="2.068" height="2.089" transform="translate(4.519 6.561)" fill="#fff"/>
        <rect id="Rectangle_468465" data-name="Rectangle 468465" width="2.068" height="2.059" transform="translate(4.519 15.251)" fill="#fff"/>
        <rect id="Rectangle_468466" data-name="Rectangle 468466" width="2.064" height="2.082" transform="translate(22.232 38.503)" fill="#fff"/>
      </g>
    </g>
  </g>
</svg>
