<svg xmlns="http://www.w3.org/2000/svg" xmlns:xlink="http://www.w3.org/1999/xlink" width="85" height="85" viewBox="0 0 85 85">
  <defs>
    <clipPath id="clip-path">
      <rect id="Rectángulo_467002" data-name="Rectángulo 467002" width="52.204" height="60.148" fill="#12263f"/>
    </clipPath>
  </defs>
  <g id="Grupo_1180088" data-name="Grupo 1180088" transform="translate(-705.629 -410)">
    <g id="Grupo_1180019" data-name="Grupo 1180019">
      <g id="Grupo_1180023" data-name="Grupo 1180023">
        <rect id="Rectángulo_456333" data-name="Rectángulo 456333" width="85" height="85" rx="10" transform="translate(705.629 410)" fill="#68eae0"/>
        <g id="Grupo_1180850" data-name="Grupo 1180850" transform="translate(722.027 422.426)">
          <g id="Grupo_1180849" data-name="Grupo 1180849" clip-path="url(#clip-path)">
            <path id="Trazado_1032080" data-name="Trazado 1032080" d="M57.958,27.826c.273,1.71,2.019,2.91.964,3.976l-2.647,2.674a1.171,1.171,0,0,1-1.369.417l-2.794-1.4L49.5,34.713c-1,1.765-.552,3.546-2.335,3.5l-4.469-.1-1.385-3.467c-.724-.426-1.819-.537-2.52-1.164l-2.8,1.4a.98.98,0,0,1-1.025-.083l-3.006-2.967a1.061,1.061,0,0,1-.3-1.282L33.03,27.86l-.782-1.508-12.5,0A3.046,3.046,0,0,1,17.3,25.028a2.765,2.765,0,0,1-.274-2.966L28.763,1.668A3.075,3.075,0,0,1,31.3,0a3.005,3.005,0,0,1,2.791,1.553l3.9,6.74c.516.892,1.688-.247,3.384-.681L42.7,4.071l4.89-.04c1.2-.01,1.055,2.2,1.952,3.448a10.186,10.186,0,0,0,2.524,1.15c1.65-.361,3.015-2.03,3.964-1.084l2.985,2.973a1.145,1.145,0,0,1,.076,1.4L57.8,14.456l1.19,2.523c1.238.9,3.511.744,3.517,1.988l.017,4.055a1.2,1.2,0,0,1-.892,1.233l-2.746.9ZM43.2,24.505a1.165,1.165,0,0,0,1.08-1.623L32.538,2.5c-.372-.645-1.507-1.034-1.942-.284L18.811,22.555a1.221,1.221,0,0,0-.023,1.429,1.283,1.283,0,0,0,1.1.532Zm8.926,6.972,3.057,1.514,2.06-2.116-1.459-3.151a17.966,17.966,0,0,0,1.668-3.96,26.354,26.354,0,0,1,3.214-1.124l-.046-3.025-3.171-1.149a18.627,18.627,0,0,0-1.668-3.98l1.45-3.137L55.089,9.3l-2.825,1.325c-.529.248-1.2-.444-1.662-.628L48,8.967,46.877,5.848l-3,.03c-.442.964-.489,2.3-1.176,3.1L39.271,10.5l1.6,2.713A9.107,9.107,0,1,1,37.97,26.361l-3.628.023c1.214,1.69.168,2.4-.8,4.4L35.7,33l3.1-1.482a18,18,0,0,0,3.979,1.634l1.1,3.2,3.032.03.731-2.249c.133-.408.318-.969.795-1.109a19.2,19.2,0,0,0,3.693-1.545M40.462,26.462a7.276,7.276,0,1,0,1.3-11.623l4.1,7.121a2.879,2.879,0,0,1-.265,3.152c-1.274,1.765-3.163,1.034-5.13,1.35" transform="translate(-13.147 0.001)" fill="#12263f"/>
            <path id="Trazado_1032081" data-name="Trazado 1032081" d="M5.921,185.165.18,172.89a2.572,2.572,0,0,1,.887-3c2.8-1.71,5.442-2.941,6.96-.3l9.287-5a4.344,4.344,0,0,1,3.869-.3l8.339,3.783a3.21,3.21,0,0,1,1.8,2.653,3.409,3.409,0,0,0,2.494-.73l8.437-5.617a33.575,33.575,0,0,1,4.387-2.459,4.8,4.8,0,0,1,4.447-.1c2.709,1.574-.081,4.633-2.417,6.87A73.264,73.264,0,0,1,33.46,179.829a12.827,12.827,0,0,1-4.1,1.492c-5.9,1.02-9.075-.9-10.859-.624a14.133,14.133,0,0,0-4.579,1.562,2.538,2.538,0,0,1-1.233,3.063l-3.33,1.548c-1.356.631-2.786-.313-3.437-1.706M20.61,166.011a2.373,2.373,0,0,0-2.086,0L8.788,171.25l4.372,9.279a23.158,23.158,0,0,1,4.306-1.511,9.508,9.508,0,0,1,4.1.227,17.236,17.236,0,0,0,7.546.274,12.211,12.211,0,0,0,3.961-1.56,72.567,72.567,0,0,0,14.535-10.77,12.813,12.813,0,0,0,2.845-3.592,2.736,2.736,0,0,0-3.027-.036,50.293,50.293,0,0,0-6.311,3.711l-6.89,4.613a5.187,5.187,0,0,1-3.322.683,3.046,3.046,0,0,1-3.972,1.509l-4.879-1.73c-.813-.288-3.3,1.03-3.514-.587-.169-1.26,3.319-1.393,3.681-1.271l5.888,1.99c.758.256,1.293-.763,1.378-1.368.107-.765-.42-1.279-1.175-1.62ZM9.1,185.044l2.554-1.2a.942.942,0,0,0,.5-1.185l-5.8-12.29a1.046,1.046,0,0,0-1.476-.355l-2.482,1.171a.877.877,0,0,0-.443,1.227l5.725,12.146a.969.969,0,0,0,1.419.486" transform="translate(0 -126.923)" fill="#12263f"/>
            <path id="Trazado_1032082" data-name="Trazado 1032082" d="M76.719,36.685a2.025,2.025,0,0,1-3.9-.082L71.75,29.177a2.857,2.857,0,0,1,3.182-2.644c1.418.05,3.024,1.062,2.809,2.645Zm-1.966-.373L76.007,29a1.374,1.374,0,0,0-1.2-.662c-.328-.031-1.189.175-1.186.654Z" transform="translate(-56.455 -20.875)" fill="#12263f"/>
            <path id="Trazado_1032083" data-name="Trazado 1032083" d="M74.8,83.9a2.724,2.724,0,0,1,3.56,1.726,2.762,2.762,0,0,1-5.2,1.86A2.734,2.734,0,0,1,74.8,83.9m.728,1.663a.961.961,0,0,0-.672,1.254.921.921,0,0,0,1.241.531.908.908,0,0,0,.51-1.2.947.947,0,0,0-1.079-.582" transform="translate(-57.422 -65.884)" fill="#12263f"/>
          </g>
        </g>
      </g>
    </g>
  </g>
</svg>
