<svg xmlns="http://www.w3.org/2000/svg" xmlns:xlink="http://www.w3.org/1999/xlink" width="69.323" height="69.323" viewBox="0 0 69.323 69.323">
  <defs>
    <clipPath id="clip-path">
      <rect id="Rectángulo_467928" data-name="Rectángulo 467928" width="45" height="44.986" fill="#fff"/>
    </clipPath>
  </defs>
  <g id="Grupo_1214629" data-name="Grupo 1214629" transform="translate(-1225.711 -1637)">
    <rect id="Rectángulo_467183" data-name="Rectángulo 467183" width="69.323" height="69.323" transform="translate(1225.711 1637)" fill="#19538d"/>
    <g id="Grupo_1214628" data-name="Grupo 1214628" transform="translate(1237.711 1649)">
      <g id="Grupo_1214627" data-name="Grupo 1214627" transform="translate(0 0)" clip-path="url(#clip-path)">
        <path id="Trazado_1283043" data-name="Trazado 1283043" d="M25.033,44.974l-5.052.012-.636-4.463a1.133,1.133,0,0,0-.677-.744,17.434,17.434,0,0,1-5.594-2.306,1.1,1.1,0,0,0-1.08-.007l-3.612,2.7L4.814,36.6l2.647-3.53a1.046,1.046,0,0,0,0-1.237A17.786,17.786,0,0,1,5.2,26.316a1.076,1.076,0,0,0-.738-.679L.009,25,0,19.975l4.239-.616a1.13,1.13,0,0,0,.969-.719,17.273,17.273,0,0,1,2.3-5.591,1.066,1.066,0,0,0-.044-1.158L4.813,8.367,8.381,4.79l3.612,2.7a1.045,1.045,0,0,0,1.083,0,17.332,17.332,0,0,1,5.38-2.261,1.085,1.085,0,0,0,.908-.905L19.977,0H25.03l.594,4.215a1.067,1.067,0,0,0,.934,1.012,17.639,17.639,0,0,1,5.456,2.309,1.083,1.083,0,0,0,1.079-.094l3.53-2.654L40.2,8.355l-2.651,3.536a1.039,1.039,0,0,0,.006,1.238A17.515,17.515,0,0,1,39.8,18.643a1.123,1.123,0,0,0,.856.7L45,19.957v5.05l-4.453.634a1.136,1.136,0,0,0-.749.675,17.48,17.48,0,0,1-2.247,5.517,1.046,1.046,0,0,0-.008,1.238L40.2,36.6,36.63,40.173l-3.536-2.647a1.039,1.039,0,0,0-1.238,0,17.716,17.716,0,0,1-5.517,2.259,1.13,1.13,0,0,0-.684.734Zm8.332-30.032c-.376-.625-1.231-.146-1.515.143l-1.868,1.9-1.028-1.01,2.089-2.079a1.176,1.176,0,0,0,.213-.946,1.179,1.179,0,0,0-.564-.595A6.013,6.013,0,0,0,24.026,13.5a9.107,9.107,0,0,0-9.834,12.674,11.11,11.11,0,0,1-1.131,1.1,4.009,4.009,0,0,0-.386,6.02,4.087,4.087,0,0,0,5.994-.4l1.472-1.624a9.053,9.053,0,0,0,8.029-1.686,9.16,9.16,0,0,0,3.455-7,5.81,5.81,0,0,0,1.74-7.643" transform="translate(0 0)" fill="#fff"/>
        <path id="Trazado_1283044" data-name="Trazado 1283044" d="M39.972,66.855a2.089,2.089,0,0,1-3.189.2,2.126,2.126,0,0,1,.3-3.152l8.748-8.071A6.094,6.094,0,0,0,48.091,58.1Z" transform="translate(-22.809 -35.168)" fill="#fff"/>
        <path id="Trazado_1283045" data-name="Trazado 1283045" d="M67.975,39.921l2.493,2.513a.939.939,0,0,0,1.255,0l1.6-1.58a4.007,4.007,0,1,1-3.734-3.706l-1.5,1.528a.984.984,0,0,0-.115,1.241" transform="translate(-41.146 -23.394)" fill="#fff"/>
      </g>
    </g>
  </g>
</svg>
