<svg xmlns="http://www.w3.org/2000/svg" xmlns:xlink="http://www.w3.org/1999/xlink" width="128" height="128" viewBox="0 0 128 128">
  <defs>
    <clipPath id="clip-path">
      <rect id="Rectángulo_456267" data-name="Rectángulo 456267" width="128" height="128" fill="none"/>
    </clipPath>
    <clipPath id="clip-path-2">
      <rect id="Rectángulo_468468" data-name="Rectángulo 468468" width="63.095" height="58.103" fill="#19538d"/>
    </clipPath>
  </defs>
  <g id="Grupo_1180348" data-name="Grupo 1180348" transform="translate(128.146 127.602) rotate(180)">
    <path id="Trazado_999622" data-name="Trazado 999622" d="M59.07,0A59.07,59.07,0,1,1,0,59.07,59.071,59.071,0,0,1,59.07,0" transform="translate(4.93 4.93)" fill="#fff"/>
    <g id="Grupo_1179902" data-name="Grupo 1179902" transform="translate(0.146 -0.398)">
      <g id="Grupo_1179905" data-name="Grupo 1179905" clip-path="url(#clip-path)">
        <path id="Trazado_999618" data-name="Trazado 999618" d="M64,0A64,64,0,1,1,0,64,64,64,0,0,1,64,0" fill="none"/>
        <path id="Trazado_999619" data-name="Trazado 999619" d="M5,0A5,5,0,1,1,0,5,5,5,0,0,1,5,0" transform="translate(0 59)" fill="#19538d"/>
        <path id="Trazado_999620" data-name="Trazado 999620" d="M5,0A5,5,0,1,1,0,5,5,5,0,0,1,5,0" transform="translate(16 19)" fill="#19538d"/>
        <path id="Trazado_999621" data-name="Trazado 999621" d="M60,120A60.068,60.068,0,0,1,0,60H3A57,57,0,1,0,18.408,21.024L16.22,18.972A60,60,0,1,1,60,120" transform="translate(4 4)" fill="#19538d"/>
        <rect id="Rectángulo_456268" data-name="Rectángulo 456268" width="128" height="128" fill="none"/>
        <rect id="Rectángulo_456269" data-name="Rectángulo 456269" width="128" height="128" fill="none"/>
      </g>
    </g>
    <g id="Grupo_1214831" data-name="Grupo 1214831" transform="translate(95.147 92.601) rotate(180)">
      <g id="Grupo_1214830" data-name="Grupo 1214830" clip-path="url(#clip-path-2)">
        <path id="Trazado_1284220" data-name="Trazado 1284220" d="M43.825,58.1l-24.457,0c-1,0-1.325-.654-1.386-1.5A5.314,5.314,0,0,1,23.2,50.718l1.715-.034v-4.6L5.849,46A6.1,6.1,0,0,1,0,39.773L.008,5.057A5.027,5.027,0,0,1,4.714,0H58.389A5.018,5.018,0,0,1,63.1,5.058l-.005,34.9A6,6,0,0,1,57.4,45.979l-19.212.112v4.593l1.717.035a5.3,5.3,0,0,1,5.206,5.892c-.055.708-.268,1.491-1.292,1.491M60.61,36.173l-49.718,0a1.238,1.238,0,1,1,.025-2.474h49.71V5.075A2.708,2.708,0,0,0,58,2.38L4.949,2.394A2.653,2.653,0,0,0,2.482,4.882l-.01,34.88a3.7,3.7,0,0,0,3.709,3.81l50.746,0a3.61,3.61,0,0,0,3.665-3.407ZM27.343,50.71h8.42V46.076h-8.42Zm15.294,4.967a2.777,2.777,0,0,0-2.526-2.507H23.157A2.758,2.758,0,0,0,20.47,55.68Z" fill="#19538d"/>
        <path id="Trazado_1284221" data-name="Trazado 1284221" d="M40.982,61.992c.005,1.472,2.175.55,2.16,2.26A1.219,1.219,0,0,1,41.9,65.422a3.385,3.385,0,0,1-3.378-3.453l-.006-4.851L37.2,55.771a1.4,1.4,0,0,1,.12-1.558l1.2-1.24.032-5.023a3.213,3.213,0,0,1,3.845-3.1,1.2,1.2,0,0,1,.744,1.283c-.279,1.4-2.147.763-2.151,1.922l-.022,5.768a9.082,9.082,0,0,1-.948,1.288c.254.292.945.909.947,1.274Z" transform="translate(-30.32 -36.677)" fill="#19538d"/>
        <path id="Trazado_1284222" data-name="Trazado 1284222" d="M279.371,65.429a1.214,1.214,0,0,1-1.345-1.175c-.023-1.607,2.154-.984,2.156-2.04l.011-5.692c0-.418.61-1.039.962-1.42a6.139,6.139,0,0,1-.95-1.277l-.019-5.574c0-1.464-1.705-.68-2.123-1.957a1.186,1.186,0,0,1,.709-1.433,3.252,3.252,0,0,1,3.865,3.247l.016,4.879,1.069,1.1a1.373,1.373,0,0,1-.125,2.11l-.944.912,0,4.868a3.386,3.386,0,0,1-3.276,3.449" transform="translate(-227.741 -36.685)" fill="#19538d"/>
        <path id="Trazado_1284223" data-name="Trazado 1284223" d="M110.858,147.909l-20.131.008a1.234,1.234,0,1,1-.105-2.457l20.233,0a1.246,1.246,0,0,1,1.215,1.082,1.186,1.186,0,0,1-1.212,1.366" transform="translate(-73.181 -119.155)" fill="#19538d"/>
        <path id="Trazado_1284224" data-name="Trazado 1284224" d="M108.981,82.533l-18.553-.015c-.662,0-1.136-.866-1.109-1.3a1.263,1.263,0,0,1,1.226-1.191l18.38,0a1.366,1.366,0,0,1,1.163,1.15c.013.607-.374,1.064-1.106,1.357" transform="translate(-73.165 -65.551)" fill="#19538d"/>
        <path id="Trazado_1284225" data-name="Trazado 1284225" d="M164.638,115.367l-13.655,0a1.267,1.267,0,0,1-1.312-1.077c-.076-.478.272-1.347.957-1.347l14.281-.005c.6,0,1.025.75,1.011,1.192a1.224,1.224,0,0,1-1.281,1.234" transform="translate(-122.596 -92.517)" fill="#19538d"/>
        <path id="Trazado_1284226" data-name="Trazado 1284226" d="M198.554,49.739l-11.193-.007a1.306,1.306,0,0,1-1.255-1.186,1.255,1.255,0,0,1,1.281-1.3l11.46.016c.627,0,1.083.855,1.042,1.287a1.293,1.293,0,0,1-1.334,1.189" transform="translate(-152.45 -38.704)" fill="#19538d"/>
        <path id="Trazado_1284227" data-name="Trazado 1284227" d="M101.407,49.726,90.5,49.732a1.3,1.3,0,0,1-1.223-1.19c-.024-.477.461-1.281,1.105-1.282l10.921-.017a1.243,1.243,0,0,1,.1,2.483" transform="translate(-73.133 -38.7)" fill="#19538d"/>
        <path id="Trazado_1284228" data-name="Trazado 1284228" d="M226.344,82.432l-5.437.018a1.4,1.4,0,0,1-1.144-1.139,1.291,1.291,0,0,1,1.15-1.321l5.227-.031a1.288,1.288,0,0,1,1.293,1.012,1.223,1.223,0,0,1-1.089,1.462" transform="translate(-180.019 -65.499)" fill="#19538d"/>
        <path id="Trazado_1284229" data-name="Trazado 1284229" d="M95.921,115.364l-5.46,0a1.318,1.318,0,0,1-1.18-1.109c-.078-.472.394-1.308,1-1.309l5.826-.008c.588,0,1.031.72,1.036,1.189a1.221,1.221,0,0,1-1.227,1.234" transform="translate(-73.129 -92.518)" fill="#19538d"/>
        <path id="Trazado_1284230" data-name="Trazado 1284230" d="M233.706,147.892l-3.449,0a1.22,1.22,0,0,1-1.248-1.186,1.245,1.245,0,0,1,1.331-1.272l3.634.023a1.274,1.274,0,0,1,1.063,1.232,1.216,1.216,0,0,1-1.331,1.2" transform="translate(-187.595 -119.137)" fill="#19538d"/>
        <path id="Trazado_1284231" data-name="Trazado 1284231" d="M170.841,214.93a1.218,1.218,0,1,1-1.218-1.218,1.218,1.218,0,0,1,1.218,1.218" transform="translate(-137.951 -175.065)" fill="#19538d"/>
        <path id="Trazado_1284232" data-name="Trazado 1284232" d="M251.324,114.053a1.215,1.215,0,1,1-1.215-1.215,1.215,1.215,0,0,1,1.215,1.215" transform="translate(-203.885 -92.433)" fill="#19538d"/>
        <path id="Trazado_1284233" data-name="Trazado 1284233" d="M29.424,187.655a1.215,1.215,0,1,1-1.215-1.215,1.215,1.215,0,0,1,1.215,1.215" transform="translate(-22.112 -152.725)" fill="#19538d"/>
      </g>
    </g>
  </g>
</svg>
